<svg width="32" height="32" viewBox="0 0 32 32" fill="none" xmlns="http://www.w3.org/2000/svg">
<path fill-rule="evenodd" clip-rule="evenodd" d="M26.6182 15.0629C26.8405 14.6378 26.967 14.1728 26.9939 13.7271C27.0369 13.0158 26.8469 12.2439 26.3204 11.6367C25.7782 11.0112 24.9721 10.6675 24.0031 10.6667L23.9999 10.6667H20.9998C20.4476 10.6667 19.9998 11.1144 19.9998 11.6667V19.6667C19.9998 20.219 20.4476 20.6667 20.9998 20.6667H24.9999L25.0068 20.6667C26.879 20.6629 27.9107 19.1033 27.9939 17.7271C28.0369 17.0158 27.8469 16.2439 27.3204 15.6367C27.1205 15.4061 26.8848 15.2138 26.6182 15.0629ZM21.9998 16.6667V18.6667H24.9998C25.5425 18.6667 25.9599 18.2284 25.9976 17.6063C26.015 17.3176 25.9329 17.0895 25.8092 16.9467C25.7018 16.8229 25.4809 16.6667 24.9998 16.6667H24.0102L23.9998 16.6667L21.9998 16.6667ZM21.9998 12.6667H23.9998C24.4809 12.6667 24.7018 12.8229 24.8092 12.9467C24.9329 13.0895 25.015 13.3176 24.9976 13.6063C24.9601 14.2262 24.5454 14.6637 24.0055 14.6667H21.9998V12.6667Z" fill="currentColor"/>
<path d="M15.7325 21.2377C15.5413 21.3731 15.279 21.3605 15.0862 21.2271LL15.0862 21.2271C14.8263 21.0473 14.8049 20.679 15.0099 20.4449C15.047 20.4026 15.0851 20.358 15.1243 20.3111C15.3439 20.0552 15.4938 19.7716 15.5741 19.4605C15.3171 19.3802 15.1002 19.2446 14.9235 19.0539C14.7522 18.8582 14.6665 18.6073 14.6665 18.3011C14.6665 17.9297 14.7977 17.6336 15.0601 17.4128C15.3278 17.192 15.633 17.0815 15.9757 17.0815C16.3506 17.0815 16.6692 17.2045 16.9316 17.4504C17.1993 17.6913 17.3332 18.0426 17.3332 18.5044C17.3332 18.931 17.2421 19.33 17.0601 19.7014C16.8834 20.0778 16.6478 20.414 16.3533 20.7101C16.156 20.9085 15.949 21.0843 15.7325 21.2377ZM15.9918 14.4467C15.6116 14.4467 15.2957 14.3312 15.044 14.1004C14.7923 13.8645 14.6665 13.5734 14.6665 13.2271C14.6665 12.8959 14.7923 12.6098 15.044 12.3689C15.2957 12.123 15.6116 12 15.9918 12C16.3666 12 16.6799 12.123 16.9316 12.3689C17.1832 12.6098 17.3091 12.8959 17.3091 13.2271C17.3091 13.5734 17.1832 13.8645 16.9316 14.1004C16.6799 14.3312 16.3666 14.4467 15.9918 14.4467Z" fill="currentColor"/>
<path fill-rule="evenodd" clip-rule="evenodd" d="M7.66672 10.6667C8.0455 10.6667 8.39176 10.8807 8.56115 11.2195L12.5612 19.2195C12.8081 19.7135 12.6079 20.3141 12.1139 20.5611C11.62 20.8081 11.0193 20.6079 10.7723 20.1139L10.0487 18.6667H5.28476L4.56115 20.1139C4.31416 20.6079 3.71349 20.8081 3.21951 20.5611C2.72553 20.3141 2.52531 19.7135 2.7723 19.2195L3.75905 17.246C3.76714 17.2285 3.77572 17.2114 3.78476 17.1945L6.7723 11.2195C6.94169 10.8807 7.28795 10.6667 7.66672 10.6667ZM7.66672 13.9028L9.04869 16.6667H6.28476L7.66672 13.9028Z" fill="currentColor"/>
</svg>
