<svg width="32" height="32" viewBox="0 0 32 32" fill="none" xmlns="http://www.w3.org/2000/svg">
<g id="ValueMapper">
<rect id="Accent" opacity="0.2" x="8" width="1e-05" height="0.0001" fill="currentColor"/>
<g id="Vector">
<path fill-rule="evenodd" clip-rule="evenodd" d="M7.00022 11C7.37899 11 7.72525 11.214 7.89465 11.5528L11.8946 19.5528C12.1416 20.0468 11.9414 20.6474 11.4474 20.8944C10.9535 21.1414 10.3528 20.9412 10.1058 20.4472L9.38219 19H4.61825L3.89465 20.4472C3.64766 20.9412 3.04698 21.1414 2.55301 20.8944C2.05903 20.6474 1.8588 20.0468 2.10579 19.5528L3.09255 17.5793C3.10064 17.5619 3.10921 17.5447 3.11826 17.5279L6.10579 11.5528C6.27518 11.214 6.62145 11 7.00022 11ZM7.00022 14.2361L8.38218 17H5.61825L7.00022 14.2361Z" fill="currentColor"/>
<path fill-rule="evenodd" clip-rule="evenodd" d="M28.6184 15.3962C28.8407 14.9711 28.9671 14.5061 28.9941 14.0604C29.0371 13.3491 28.847 12.5772 28.3206 11.97C27.7784 11.3445 26.9723 11.0008 26.0032 11L26 11H23C22.4477 11 22 11.4477 22 12V20C22 20.5523 22.4477 21 23 21H27C27.0023 21 27.0046 21 27.0069 21C28.8791 20.9962 29.9108 19.4366 29.9941 18.0604C30.0371 17.3491 29.847 16.5772 29.3206 15.97C29.1207 15.7394 28.8849 15.5471 28.6184 15.3962ZM24 17V19H27C27.5427 19 27.9601 18.5617 27.9977 17.9396C28.0152 17.6509 27.9331 17.4228 27.8094 17.28C27.702 17.1562 27.4811 17 27 17H26.0103L26 17L24 17ZM24 13H26C26.4811 13 26.702 13.1562 26.8094 13.28C26.9331 13.4228 27.0152 13.6509 26.9977 13.9396C26.9602 14.5595 26.5456 14.997 26.0056 15H24V13Z" fill="currentColor"/>
<path fill-rule="evenodd" clip-rule="evenodd" d="M15.2929 12.2929C15.6834 11.9024 16.3166 11.9024 16.7071 12.2929L19.7071 15.2929C20.0976 15.6834 20.0976 16.3166 19.7071 16.7071L16.7071 19.7071C16.3166 20.0976 15.6834 20.0976 15.2929 19.7071C14.9024 19.3166 14.9024 18.6834 15.2929 18.2929L16.5858 17H14C13.4477 17 13 16.5523 13 16C13 15.4477 13.4477 15 14 15H16.5858L15.2929 13.7071C14.9024 13.3166 14.9024 12.6834 15.2929 12.2929Z" fill="currentColor"/>
</g>
</g>
</svg>
