<svg width="24" height="24" viewBox="0 0 24 24" fill="none" xmlns="http://www.w3.org/2000/svg">
<path d="M9.64893 9.75C9.64893 9.33579 9.98471 9 10.3989 9H12.7777C13.2755 9 13.7528 9.19773 14.1048 9.5497C14.4567 9.90166 14.6545 10.379 14.6545 10.8768C14.6545 11.1761 14.583 11.4681 14.4494 11.7298C14.4906 11.7647 14.5304 11.8015 14.5689 11.8399C14.9444 12.2154 15.1553 12.7246 15.1553 13.2556C15.1553 13.7865 14.9444 14.2957 14.5689 14.6712C14.1935 15.0466 13.6843 15.2575 13.1533 15.2575H10.3989C9.98471 15.2575 9.64893 14.9218 9.64893 14.5075V9.75ZM11.1489 12.7536V13.7575H13.1533C13.2864 13.7575 13.4141 13.7047 13.5082 13.6105C13.6024 13.5164 13.6553 13.3887 13.6553 13.2556C13.6553 13.1224 13.6024 12.9947 13.5082 12.9006C13.4141 12.8065 13.2864 12.7536 13.1533 12.7536H11.1489ZM12.7777 11.2536C12.8776 11.2536 12.9735 11.2139 13.0441 11.1432C13.1148 11.0726 13.1545 10.9767 13.1545 10.8768C13.1545 10.7769 13.1148 10.681 13.0441 10.6104C12.9735 10.5397 12.8776 10.5 12.7777 10.5H11.1489V11.2536H12.7777Z" fill="currentColor"/>
<path d="M6.18169 9.48662C6.05171 9.2411 5.79665 9.08754 5.51885 9.08754C5.24104 9.08754 4.98599 9.2411 4.85601 9.48662L2.33731 14.2442C2.1435 14.6102 2.28316 15.0641 2.64923 15.2579C3.01531 15.4517 3.46919 15.3121 3.66299 14.946L4.19257 13.9457H6.84512L7.37471 14.946C7.56851 15.3121 8.02238 15.4517 8.38846 15.2579C8.75454 15.0641 8.89419 14.6102 8.70039 14.2442L6.18169 9.48662ZM6.051 12.4457H4.98669L5.51885 11.4405L6.051 12.4457Z" fill="currentColor"/>
<path d="M18.4507 10.5866C18.8022 10.4746 19.1827 10.4711 19.5366 10.5768C19.8903 10.6825 20.1945 10.8902 20.4095 11.1644C20.6651 11.4903 21.1366 11.5473 21.4625 11.2916C21.7884 11.036 21.8454 10.5646 21.5898 10.2387C21.1783 9.71404 20.609 9.33166 19.966 9.13958C19.3231 8.94756 18.6343 8.95378 17.9952 9.15749C17.3558 9.36128 16.7938 9.75412 16.3926 10.2864C15.991 10.8193 15.772 11.4638 15.772 12.1288C15.772 12.7937 15.991 13.4382 16.3926 13.9711C16.7938 14.5034 17.3558 14.8963 17.9952 15.1C18.6343 15.3038 19.3231 15.31 19.966 15.118C20.609 14.9259 21.1783 14.5435 21.5898 14.0189C21.8454 13.693 21.7884 13.2215 21.4625 12.9659C21.1366 12.7103 20.6651 12.7673 20.4095 13.0932C20.1945 13.3674 19.8903 13.5751 19.5366 13.6807C19.1827 13.7864 18.8022 13.7829 18.4507 13.6709C18.0994 13.5589 17.7998 13.346 17.5905 13.0682C17.3815 12.7911 17.272 12.4624 17.272 12.1288C17.272 11.7952 17.3815 11.4665 17.5905 11.1893C17.7998 10.9116 18.0994 10.6986 18.4507 10.5866Z" fill="currentColor"/>
</svg>
