<svg width="24" height="24" viewBox="0 0 24 24" fill="none" xmlns="http://www.w3.org/2000/svg">
<path d="M12.2563 2.29515C12.0907 2.23495 11.9093 2.23495 11.7437 2.29515L3.49369 5.29515C3.1973 5.40293 3 5.68461 3 5.99999V9.75C2.99999 13.095 3.98792 15.7048 5.60768 17.6789C7.21943 19.6432 9.41597 20.9292 11.7628 21.7115C11.9168 21.7628 12.0832 21.7628 12.2372 21.7115C14.584 20.9292 16.7805 19.6432 18.3923 17.6789C20.012 15.7048 21 13.095 21 9.75V5.99998C21 5.68461 20.8027 5.40293 20.5063 5.29515L12.2563 2.29515ZM4.5 9.75V6.52532L12 3.79805L19.5 6.52532V9.75C19.5 12.4933 18.7729 14.6097 17.6109 16.234C17.45 15.9466 17.2845 15.6872 17.0874 15.4478C16.7457 15.0329 16.3386 14.7115 15.7671 14.3608C15.4812 14.1853 15.1956 14.045 14.9096 13.933C15.8825 13.1075 16.5 11.8759 16.5 10.5C16.5 8.01472 14.4853 6 12 6C9.51472 6 7.5 8.01472 7.5 10.5C7.5 11.8758 8.11742 13.1074 9.0903 13.9329C8.80422 14.0449 8.51846 14.1853 8.23245 14.3608C7.66102 14.7116 7.25385 15.033 6.91221 15.4479C6.71516 15.6872 6.54972 15.9465 6.38892 16.2339C5.22706 14.6095 4.49999 12.4931 4.5 9.75ZM7.43638 17.4615C7.70036 16.9442 7.86876 16.6459 8.07015 16.4014C8.26869 16.1603 8.52621 15.9405 9.01713 15.6392C9.8811 15.1089 10.7568 15.0031 11.9355 14.9995C11.957 14.9998 11.9785 15 12 15C12.0215 15 12.043 14.9998 12.0644 14.9995C13.243 15.0032 14.1185 15.1089 14.9825 15.6392C15.4734 15.9405 15.731 16.1603 15.9295 16.4014C16.131 16.646 16.2994 16.9443 16.5634 17.4617C15.31 18.7029 13.7328 19.5991 12 20.2073C10.2671 19.5991 8.68979 18.7028 7.43638 17.4615ZM12 7.5C13.6569 7.5 15 8.84315 15 10.5C15 12.1386 13.6863 13.4703 12.0547 13.4995L11.9999 13.4995L11.9453 13.4995C10.3137 13.4703 9 12.1386 9 10.5C9 8.84315 10.3431 7.5 12 7.5Z" fill="currentColor"/>
</svg>
