<svg width="32" height="32" viewBox="0 0 32 32" fill="none" xmlns="http://www.w3.org/2000/svg">
<path fill-rule="evenodd" clip-rule="evenodd" d="M24 4H18C17.4477 4 17 4.44772 17 5V11H25V5C25 4.44772 24.5523 4 24 4ZM17 19V13H25V19H17ZM17 21V27C17 27.5523 17.4477 28 18 28H24C24.5523 28 25 27.5523 25 27V21H17ZM18 2C16.3431 2 15 3.34315 15 5V27C15 28.6569 16.3431 30 18 30H24C25.6569 30 27 28.6569 27 27V5C27 3.34315 25.6569 2 24 2H18Z" fill="currentColor"/>
<path d="M7.5 12C8.05228 12 8.5 12.4477 8.5 13V15.5H11C11.5523 15.5 12 15.9477 12 16.5C12 17.0523 11.5523 17.5 11 17.5H8.5V20C8.5 20.5523 8.05228 21 7.5 21C6.94772 21 6.5 20.5523 6.5 20V17.5H4C3.44772 17.5 3 17.0523 3 16.5C3 15.9477 3.44772 15.5 4 15.5H6.5V13C6.5 12.4477 6.94772 12 7.5 12Z" fill="currentColor"/>
</svg>
