<svg width="32" height="32" viewBox="0 0 32 32" fill="none" xmlns="http://www.w3.org/2000/svg">
<path d="M2.58579 6.58579C2.96086 6.21071 3.46957 6 4 6H12C13.3261 6 14.5979 6.52678 15.5355 7.46447C15.7038 7.63275 15.8589 7.81178 16 7.99997C16.1411 7.81178 16.2962 7.63275 16.4645 7.46447C17.4021 6.52678 18.6739 6 20 6H28C28.5304 6 29.0391 6.21071 29.4142 6.58579C29.7893 6.96086 30 7.46957 30 8V13C30 13.5523 29.5523 14 29 14C28.4477 14 28 13.5523 28 13V8L20 8C19.2043 8 18.4413 8.31607 17.8787 8.87868C17.3161 9.44129 17 10.2044 17 11V14.5C17 15.0523 16.5523 15.5 16 15.5C15.4477 15.5 15 15.0523 15 14.5V11C15 10.2044 14.6839 9.44129 14.1213 8.87868C13.5587 8.31607 12.7956 8 12 8L4 8V24H12C13.3261 24 14.5979 24.5268 15.5355 25.4645C15.7038 25.6327 15.8589 25.8118 16 26C16.0316 25.9578 16.0639 25.9162 16.0969 25.875C16.4421 25.4439 17.0714 25.3742 17.5025 25.7194C17.9336 26.0646 18.0033 26.6939 17.6581 27.125C17.2341 27.6545 17 28.3152 17 29C17 29.5523 16.5523 30 16 30C15.4477 30 15 29.5523 15 29C15 28.2044 14.6839 27.4413 14.1213 26.8787C13.5587 26.3161 12.7956 26 12 26H4C3.46957 26 2.96086 25.7893 2.58579 25.4142C2.21071 25.0391 2 24.5304 2 24V8C2 7.46957 2.21071 6.96086 2.58579 6.58579Z" fill="currentColor"/>
<path d="M21 17C21 16.4477 20.5523 16 20 16C19.4477 16 19 16.4477 19 17V21.3007C19 21.5906 19.1258 21.8662 19.3448 22.0562L22.5 24.7929V26.7547L22.2012 26.4858C21.7906 26.1164 21.1584 26.1496 20.7889 26.5602C20.4195 26.9707 20.4528 27.603 20.8633 27.9724L22.8311 29.7433C23.2068 30.0815 23.7758 30.086 24.157 29.7539L26.1892 27.983C26.6056 27.6202 26.649 26.9885 26.2861 26.5721C25.9233 26.1558 25.2916 26.1124 24.8753 26.4752L24.5 26.8022V24.7929L27.6552 22.0562C27.8742 21.8662 28 21.5906 28 21.3007V17C28 16.4477 27.5523 16 27 16C26.4477 16 26 16.4477 26 17V20.8443L23.5 23.0128L21 20.8443V17Z" fill="currentColor"/>
</svg>
