<svg width="32" height="32" viewBox="0 0 32 32" fill="none" xmlns="http://www.w3.org/2000/svg">
<path d="M22 4C21.6667 4 21.3415 4.10214 21.0681 4.29267C20.7947 4.48319 20.586 4.75346 20.4706 5.06609L19.0154 9.01537L15.0656 10.4708C14.7529 10.5862 14.4832 10.7947 14.2927 11.0681C14.1021 11.3415 14 11.6667 14 12C14 12.3332 14.1021 12.6585 14.2927 12.9319C14.4832 13.2053 14.7535 13.414 15.0661 13.5294L19.0154 14.9846L20.4708 18.9344C20.5862 19.2471 20.7947 19.5168 21.0681 19.7073C21.3415 19.8979 21.6667 20 22 20C22.3332 20 22.6585 19.8979 22.9319 19.7073C23.2053 19.5168 23.414 19.2465 23.5294 18.9339L24.9846 14.9846L28.9344 13.5292C29.2471 13.4138 29.5168 13.2053 29.7073 12.9319C29.8979 12.6585 30 12.3332 30 12C30 11.6667 29.8979 11.3415 29.7073 11.0681C29.5168 10.7947 29.2465 10.586 28.9339 10.4706L24.9846 9.01538L23.5292 5.06558C23.4138 4.75294 23.2053 4.48319 22.9319 4.29267C22.6585 4.10214 22.3332 4 22 4ZM20.7325 10.1399L22 6.70007L23.2675 10.1399C23.3688 10.4146 23.5854 10.6312 23.8601 10.7325L27.2999 12L23.8601 13.2675C23.5854 13.3688 23.3688 13.5853 23.2675 13.8601L22 17.2999L20.7325 13.8601C20.6312 13.5853 20.4146 13.3688 20.1399 13.2675L16.7001 12L20.1399 10.7325C20.4146 10.6312 20.6312 10.4146 20.7325 10.1399Z" fill="currentColor"/>
<path d="M3 8C3 6.89543 3.89543 6 5 6H16C16.5523 6 17 6.44772 17 7C17 7.55228 16.5523 8 16 8H5V27.5601C5.02931 27.5588 5.05882 27.5566 5.08768 27.5538L9.11524 24.4213C9.4663 24.1482 9.89836 24 10.3431 24H27V17.5C27 16.9477 27.4477 16.5 28 16.5C28.5523 16.5 29 16.9477 29 17.5V24C29 25.1046 28.1046 26 27 26H10.3431L6.28604 29.1554C6.06705 29.3257 5.77414 29.481 5.41748 29.5286C5.18343 29.5599 4.66867 29.6103 4.18383 29.4487C3.58847 29.2503 3.2834 28.8293 3.14633 28.5528C3.00865 28.275 3 28.0106 3 27.8831V8Z" fill="currentColor"/>
<path d="M17 18C17 18.2652 16.8946 18.5196 16.7071 18.7071C16.5196 18.8946 16.2652 19 16 19H15V20C15 20.2652 14.8946 20.5196 14.7071 20.7071C14.5196 20.8946 14.2652 21 14 21C13.7348 21 13.4804 20.8946 13.2929 20.7071C13.1054 20.5196 13 20.2652 13 20V19H12C11.7348 19 11.4804 18.8946 11.2929 18.7071C11.1054 18.5196 11 18.2652 11 18C11 17.7348 11.1054 17.4804 11.2929 17.2929C11.4804 17.1054 11.7348 17 12 17H13V16C13 15.7348 13.1054 15.4804 13.2929 15.2929C13.4804 15.1054 13.7348 15 14 15C14.2652 15 14.5196 15.1054 14.7071 15.2929C14.8946 15.4804 15 15.7348 15 16V17H16C16.2652 17 16.5196 17.1054 16.7071 17.2929C16.8946 17.4804 17 17.7348 17 18Z" fill="currentColor"/>
</svg>
