<svg width="32" height="32" viewBox="0 0 32 32" fill="none" xmlns="http://www.w3.org/2000/svg">
<path fill-rule="evenodd" clip-rule="evenodd" d="M13 12C12.4477 12 12 12.4477 12 13V19C12 19.5523 12.4477 20 13 20H19C19.5523 20 20 19.5523 20 19V13C20 12.4477 19.5523 12 19 12H13ZM14 18V14H18V18H14Z" fill="currentColor"/>
<path fill-rule="evenodd" clip-rule="evenodd" d="M19 2C19.5523 2 20 2.44772 20 3V5H25C26.1046 5 27 5.89543 27 7V12H29C29.5523 12 30 12.4477 30 13C30 13.5523 29.5523 14 29 14H27V18H29C29.5523 18 30 18.4477 30 19C30 19.5523 29.5523 20 29 20H27V25C27 26.1046 26.1046 27 25 27H20V29C20 29.5523 19.5523 30 19 30C18.4477 30 18 29.5523 18 29V27H14V29C14 29.5523 13.5523 30 13 30C12.4477 30 12 29.5523 12 29V27H7C5.89543 27 5 26.1046 5 25V20H3C2.44772 20 2 19.5523 2 19C2 18.4477 2.44772 18 3 18H5V14H3C2.44772 14 2 13.5523 2 13C2 12.4477 2.44772 12 3 12H5V7C5 5.89543 5.89543 5 7 5H12V3C12 2.44772 12.4477 2 13 2C13.5523 2 14 2.44772 14 3V5H18V3C18 2.44772 18.4477 2 19 2ZM7 7V25H25V7H7Z" fill="currentColor"/>
</svg>
