<svg width="32" height="32" viewBox="0 0 32 32" fill="none" xmlns="http://www.w3.org/2000/svg">
<g clip-path="url(#clip0_1310_1001)">
<path d="M3 18.548L15.8917 25.8035L27.4638 19.3285V21.9068L15.8917 28.439L3.66033 21.4857L3.00117 21.845V22.7433L15.8917 30L28.7833 22.7457V17.7092L28.1825 17.3487L15.8917 24.3043L4.38017 17.7092V15.1308L15.8917 21.6058L28.7833 14.3515V9.37333L28.1825 9.014L15.8917 15.9697L4.97983 9.7945L15.8917 3.61933L24.945 8.71533L25.7243 8.23583V7.5755L15.8917 2L3 9.315V10.155L15.8917 17.4082L27.4638 10.9332V13.5698L15.8917 20.1067L3.66033 13.1533L3.00117 13.5127L3 18.548Z" fill="currentColor"/>
</g>
<defs>
<clipPath id="clip0_1310_1001">
<rect width="32" height="32" fill="white"/>
</clipPath>
</defs>
</svg>
