<svg width="32" height="32" viewBox="0 0 32 32" fill="none" xmlns="http://www.w3.org/2000/svg">
<path fill-rule="evenodd" clip-rule="evenodd" d="M16.5039 2.13622C16.1925 1.95459 15.8075 1.95459 15.4961 2.13622L3.49614 9.13622C3.18892 9.31543 3.00001 9.64433 3.00001 10C3.00001 10.3557 3.18892 10.6846 3.49614 10.8638L15.4961 17.8638C15.8075 18.0454 16.1925 18.0454 16.5039 17.8638L28.5039 10.8638C28.8111 10.6846 29 10.3557 29 10C29 9.64433 28.8111 9.31543 28.5039 9.13622L16.5039 2.13622ZM16 15.8423L5.98465 10L16 4.1577L26.0154 10L16 15.8423Z" fill="currentColor"/>
<path d="M3.13623 15.4961C3.41451 15.0191 4.02683 14.8579 4.50388 15.1362L16 21.8423L27.4961 15.1362C27.9732 14.8579 28.5855 15.0191 28.8638 15.4961C29.1421 15.9732 28.9809 16.5855 28.5039 16.8638L16.5039 23.8638C16.1925 24.0454 15.8075 24.0454 15.4961 23.8638L3.49614 16.8638C3.01909 16.5855 2.85795 15.9732 3.13623 15.4961Z" fill="currentColor"/>
<path d="M3.13623 21.4961C3.41451 21.0191 4.02683 20.8579 4.50388 21.1362L16 27.8423L27.4961 21.1362C27.9732 20.8579 28.5855 21.0191 28.8638 21.4961C29.1421 21.9732 28.9809 22.5855 28.5039 22.8638L16.5039 29.8638C16.1925 30.0454 15.8075 30.0454 15.4961 29.8638L3.49614 22.8638C3.01909 22.5855 2.85795 21.9732 3.13623 21.4961Z" fill="currentColor"/>
</svg>
