<svg width="32" height="32" viewBox="0 0 32 32" fill="none" xmlns="http://www.w3.org/2000/svg">
<path fill-rule="evenodd" clip-rule="evenodd" d="M9 2C9.55228 2 10 2.44772 10 3V10.1013L16 16.4306L22 10.1013V3C22 2.44772 22.4477 2 23 2C23.5523 2 24 2.44772 24 3V10.5C24 10.756 23.9018 11.0022 23.7257 11.188L17 18.2828V25.5858L19.2929 23.2929C19.6834 22.9024 20.3166 22.9024 20.7071 23.2929C21.0976 23.6834 21.0976 24.3166 20.7071 24.7071L16.7071 28.7071C16.3166 29.0976 15.6834 29.0976 15.2929 28.7071L11.2929 24.7071C10.9024 24.3166 10.9024 23.6834 11.2929 23.2929C11.6834 22.9024 12.3166 22.9024 12.7071 23.2929L15 25.5858V18.2828L8.27427 11.188C8.09816 11.0022 8 10.756 8 10.5V3C8 2.44772 8.44772 2 9 2Z" fill="currentColor"/>
</svg>
