<svg width="32" height="32" viewBox="0 0 32 32" fill="none" xmlns="http://www.w3.org/2000/svg">
<g id="Size=32, Style=Regular">
<path id="Vector" d="M27.8053 13.4579C28.1183 12.5151 28.2266 11.5163 28.1228 10.5283C28.0191 9.54033 27.7057 8.58584 27.2036 7.72864C26.4592 6.43297 25.3226 5.40716 23.9577 4.7991C22.5927 4.19104 21.0699 4.03214 19.6089 4.34531C18.7788 3.42197 17.7204 2.7333 16.5399 2.34847C15.3594 1.96363 14.0985 1.89618 12.8837 2.1529C11.669 2.40961 10.5431 2.98144 9.61927 3.81096C8.69543 4.64049 8.00612 5.69849 7.62058 6.87872C6.6472 7.07833 5.72762 7.48339 4.92332 8.06685C4.11902 8.6503 3.44851 9.39871 2.95661 10.262C2.20416 11.5556 1.88256 13.0548 2.03832 14.5432C2.19408 16.0315 2.81913 17.4317 3.8231 18.5414C3.50887 19.4837 3.39951 20.4823 3.50232 21.4704C3.60513 22.4584 3.91775 23.4131 4.41926 24.2705C5.16457 25.5667 6.30216 26.5927 7.66808 27.2008C9.034 27.8088 10.5577 27.9675 12.0196 27.654C12.6791 28.3966 13.4894 28.99 14.3965 29.3946C15.3035 29.7991 16.2865 30.0055 17.2796 29.9999C18.7772 30.0013 20.2365 29.5267 21.4468 28.6448C22.6571 27.7629 23.5559 26.5191 24.0134 25.0931C24.9866 24.8932 25.9061 24.488 26.7103 23.9045C27.5146 23.3211 28.1852 22.5728 28.6773 21.7097C29.4209 20.4181 29.737 18.9244 29.5803 17.4423C29.4237 15.9602 28.8024 14.5655 27.8053 13.4579ZM17.2796 28.1673C16.0531 28.1692 14.8651 27.7394 13.9238 26.953L14.0894 26.8592L19.664 23.6413C19.8028 23.56 19.918 23.4439 19.9983 23.3045C20.0786 23.1652 20.1213 23.0073 20.1222 22.8465V14.9868L22.4789 16.3502C22.4905 16.3561 22.5006 16.3646 22.5083 16.3752C22.516 16.3857 22.5211 16.3979 22.5232 16.4108V22.9238C22.5202 24.3136 21.9668 25.6456 20.9841 26.6283C20.0014 27.611 18.6694 28.1644 17.2796 28.1673ZM6.00884 23.3543C5.39374 22.2922 5.17289 21.0472 5.38514 19.8384L5.55081 19.9378L11.131 23.1557C11.269 23.2367 11.4262 23.2794 11.5863 23.2794C11.7464 23.2794 11.9036 23.2367 12.0417 23.1557L18.8582 19.2258V21.9469C18.8576 21.961 18.8538 21.9748 18.8471 21.9872C18.8404 21.9996 18.8309 22.0104 18.8195 22.0186L13.1731 25.2751C11.9681 25.9693 10.5368 26.1569 9.19361 25.7968C7.85038 25.4367 6.70497 24.5582 6.00884 23.3543ZM4.54071 11.2115C5.16007 10.1425 6.13768 9.32723 7.30045 8.90988V15.5333C7.29835 15.6933 7.33924 15.8509 7.41884 15.9897C7.49844 16.1286 7.61384 16.2435 7.753 16.3225L14.5364 20.2359L12.1797 21.5991C12.1669 21.6059 12.1527 21.6094 12.1383 21.6094C12.1238 21.6094 12.1096 21.6059 12.0968 21.5991L6.4615 18.3482C5.25875 17.651 4.38128 16.5056 4.02127 15.1628C3.66126 13.82 3.84804 12.3893 4.54071 11.1839V11.2115ZM23.903 15.7099L17.0975 11.7579L19.4488 10.3999C19.4616 10.3932 19.4758 10.3896 19.4902 10.3896C19.5047 10.3896 19.5189 10.3932 19.5316 10.3999L25.167 13.6565C26.0286 14.1536 26.731 14.8857 27.1922 15.7671C27.6535 16.6485 27.8544 17.6429 27.7717 18.6343C27.6889 19.6256 27.3259 20.573 26.7249 21.3657C26.1239 22.1584 25.3099 22.7639 24.3777 23.1113V16.4879C24.3728 16.3282 24.3265 16.1725 24.2432 16.036C24.16 15.8996 24.0428 15.7873 23.903 15.7099ZM26.2488 12.183L26.0831 12.0836L20.5141 8.83814C20.3752 8.75661 20.217 8.71363 20.0559 8.71363C19.8949 8.71363 19.7367 8.75661 19.5978 8.83814L12.7869 12.7679V10.0469C12.7855 10.0331 12.7878 10.0191 12.7936 10.0065C12.7994 9.99385 12.8086 9.98303 12.8201 9.97516L18.4554 6.72414C19.3191 6.22658 20.3066 5.98522 21.3024 6.02829C22.2983 6.07137 23.2612 6.39709 24.0787 6.96737C24.8962 7.53765 25.5345 8.32891 25.9188 9.2486C26.3031 10.1683 26.4176 11.1784 26.2489 12.1608L26.2488 12.183ZM11.5007 17.0068L9.14401 15.649C9.13222 15.6419 9.12214 15.6323 9.11448 15.6209C9.10682 15.6094 9.10176 15.5965 9.09968 15.5828V9.08652C9.10098 8.08992 9.38596 7.11429 9.9213 6.27369C10.4566 5.43309 11.2202 4.76226 12.1228 4.33964C13.0253 3.91702 14.0295 3.76007 15.018 3.88714C16.0065 4.01421 16.9383 4.42005 17.7046 5.05721L17.539 5.15113L11.9644 8.36879C11.8257 8.45016 11.7105 8.56622 11.6302 8.70558C11.5498 8.84494 11.5071 9.00279 11.5063 9.16363L11.5007 17.0068ZM12.7812 14.2471L15.8169 12.4974L18.8582 14.2471V17.7464L15.8279 19.4961L12.7868 17.7464L12.7812 14.2471Z" fill="currentColor"/>
</g>
</svg>
