<svg width="32" height="32" viewBox="0 0 32 32" fill="none" xmlns="http://www.w3.org/2000/svg">
<path d="M8.3695 6.89566C7.42791 6.05232 6 5.76091 6 5.76091C6 5.76091 7.4041 5.37059 8.28457 4.46362C8.29951 4.44823 8.3143 4.43269 8.32893 4.41701C8.34356 4.40132 8.35803 4.38548 8.37234 4.3695C9.21568 3.42791 9.5071 2 9.5071 2C9.5071 2 9.89742 3.4041 10.8044 4.28457C10.8198 4.29951 10.8353 4.3143 10.851 4.32893C10.8667 4.34356 10.8825 4.35803 10.8985 4.37234C11.8401 5.21568 13.268 5.5071 13.268 5.5071C13.268 5.5071 11.8639 5.89742 10.9834 6.80438C10.9685 6.81978 10.9537 6.83531 10.9391 6.851C10.9244 6.86669 10.91 6.88253 10.8957 6.89851C10.0523 7.8401 9.76091 9.26801 9.76091 9.26801C9.76091 9.26801 9.37059 7.86391 8.46362 6.98343C8.44823 6.96849 8.43269 6.9537 8.41701 6.93907C8.40132 6.92444 8.38548 6.90998 8.3695 6.89566Z" fill="currentColor"/>
<path fill-rule="evenodd" clip-rule="evenodd" d="M11.6 27.9999H6C5.5 27.9999 5 27.7999 4.6 27.3999C4.2 26.9999 4 26.4999 4 25.9999V20.3999C4 20.0999 4 19.8999 4.1 19.5999C4.11926 19.5614 4.13852 19.5191 4.15849 19.4753C4.24223 19.2917 4.33852 19.0806 4.5 18.9999L19.5 3.99987C19.7 3.79987 19.9 3.69987 20.1 3.59987C20.6 3.39987 21.2 3.39987 21.6 3.59987C22 3.69987 22.2 3.79987 22.4 3.99987L28 9.59987C28.2 9.79987 28.3 9.99987 28.4 10.2999C28.5 10.4999 28.6 10.7999 28.6 11.0999C28.6 11.3373 28.5374 11.512 28.4617 11.7233C28.4418 11.7789 28.4208 11.8374 28.4 11.8999C28.3808 11.9383 28.3615 11.9805 28.3416 12.0242C28.2579 12.2078 28.1615 12.4191 28 12.4999L13 27.4999C12.8 27.6999 12.6 27.7999 12.3 27.8999C12.2101 27.8999 12.1202 27.9201 12.0212 27.9423C11.9 27.9696 11.7652 27.9999 11.6 27.9999ZM21 5.39987L18.4067 7.99321L24.0067 13.5932L26.6 10.9999L21 5.39987ZM6 20.3999L16.9925 9.40741L22.5925 15.0074L11.6 25.9999H6V20.3999Z" fill="currentColor"/>
<path d="M4.53963 12.5458C3.85191 12.0334 3 11.8283 3 11.8283C3 11.8283 3.85191 11.6232 4.53963 11.1108C4.6474 11.0304 4.75114 10.9426 4.84694 10.8468C4.94273 10.751 5.03059 10.6473 5.11089 10.5395C5.62335 9.85177 5.82843 8.99986 5.82843 8.99986C5.82843 8.99986 6.0335 9.85177 6.54596 10.5395C6.62627 10.6473 6.71412 10.751 6.80992 10.8468C6.90572 10.9426 7.00945 11.0304 7.11723 11.1108C7.80495 11.6232 8.65685 11.8283 8.65685 11.8283C8.65685 11.8283 7.80495 12.0334 7.11723 12.5458C7.00945 12.6261 6.90572 12.714 6.80992 12.8098C6.71412 12.9056 6.62627 13.0093 6.54596 13.1171C6.0335 13.8048 5.82843 14.6567 5.82843 14.6567C5.82843 14.6567 5.62335 13.8048 5.11089 13.1171C5.03059 13.0093 4.94273 12.9056 4.84694 12.8098C4.75114 12.714 4.6474 12.6261 4.53963 12.5458Z" fill="currentColor"/>
<path d="M21 24.7609C21 24.7609 22.4279 25.0523 23.3695 25.8957C23.3855 25.91 23.4013 25.9244 23.417 25.9391C23.4327 25.9537 23.4482 25.9685 23.4636 25.9834C24.3706 26.8639 24.7609 28.268 24.7609 28.268C24.7609 28.268 25.0523 26.8401 25.8957 25.8985C25.9021 25.8914 25.9085 25.8842 25.915 25.8771C25.923 25.8684 25.931 25.8597 25.9391 25.851C25.9537 25.8353 25.9685 25.8198 25.9834 25.8044C26.8639 24.8974 28.268 24.5071 28.268 24.5071C28.268 24.5071 26.8401 24.2157 25.8985 23.3723C25.8825 23.358 25.8667 23.3436 25.851 23.3289C25.8353 23.3143 25.8198 23.2995 25.8044 23.2846C24.8974 22.4041 24.5071 21 24.5071 21C24.5071 21 24.2157 22.4279 23.3723 23.3695C23.358 23.3855 23.3436 23.4013 23.3289 23.417C23.3143 23.4327 23.2995 23.4482 23.2846 23.4636C22.4041 24.3706 21 24.7609 21 24.7609Z" fill="currentColor"/>
</svg>
