<?xml version="1.0" encoding="UTF-8"?>
<svg width="24" height="24" viewBox="0 0 24 24" fill="none" xmlns="http://www.w3.org/2000/svg">
    <path
        d="M22.9285 4.96783C23.0692 4.82718 23.1482 4.63641 23.1482 4.4375C23.1482 4.23859 23.0692 4.04782 22.9285 3.90717C22.7879 3.76652 22.5971 3.6875 22.3982 3.6875H21.6482V2.9375C21.6482 2.73859 21.5692 2.54782 21.4285 2.40717C21.2879 2.26652 21.0971 2.1875 20.8982 2.1875C20.6993 2.1875 20.5085 2.26652 20.3679 2.40717C20.2272 2.54782 20.1482 2.73859 20.1482 2.9375V3.6875H19.3982C19.1993 3.6875 19.0085 3.76652 18.8679 3.90717C18.7272 4.04782 18.6482 4.23859 18.6482 4.4375C18.6482 4.63641 18.7272 4.82718 18.8679 4.96783C19.0085 5.10848 19.1993 5.1875 19.3982 5.1875H20.1482V5.9375C20.1482 6.13641 20.2272 6.32718 20.3679 6.46783C20.5085 6.60848 20.6993 6.6875 20.8982 6.6875C21.0971 6.6875 21.2879 6.60848 21.4285 6.46783C21.5692 6.32718 21.6482 6.13641 21.6482 5.9375V5.1875H22.3982C22.5971 5.1875 22.7879 5.10848 22.9285 4.96783Z"
        fill="currentColor" fill-opacity="1" />
    <path
        d="M12.6027 6.99701C12.4621 7.13767 12.3831 7.32843 12.3831 7.52734C12.3831 7.72626 12.4621 7.91702 12.6027 8.05767C12.7434 8.19833 12.9341 8.27734 13.1331 8.27734H14.6331V9.77734C14.6331 9.97626 14.7121 10.167 14.8527 10.3077C14.9934 10.4483 15.1841 10.5273 15.3831 10.5273C15.582 10.5273 15.7727 10.4483 15.9134 10.3077C16.054 10.167 16.1331 9.97626 16.1331 9.77734V8.27734H17.6331C17.832 8.27734 18.0227 8.19833 18.1634 8.05767C18.304 7.91702 18.3831 7.72626 18.3831 7.52734C18.3831 7.32843 18.304 7.13767 18.1634 6.99701C18.0227 6.85636 17.832 6.77734 17.6331 6.77734H16.1331V5.27734C16.1331 5.07843 16.054 4.88767 15.9134 4.74701C15.7727 4.60636 15.582 4.52734 15.3831 4.52734C15.1841 4.52734 14.9934 4.60636 14.8527 4.74701C14.7121 4.88767 14.6331 5.07843 14.6331 5.27734V6.77734H13.1331C12.9341 6.77734 12.7434 6.85636 12.6027 6.99701Z"
        fill="currentColor" fill-opacity="1" />
    <mask id="path-3-outside-1_2142_22500" maskUnits="userSpaceOnUse" x="1.8667" y="2.78711"
        width="18" height="18" fill="currentColor">
        <rect fill="white" x="1.8667" y="2.78711" width="18" height="18" />
        <path
            d="M18.7376 9.98748C19.1406 11.7 18.9709 13.4973 18.2545 15.1041C17.5382 16.711 16.3148 18.0386 14.7717 18.8835C13.2287 19.7285 11.4511 20.0441 9.71147 19.7822C7.97183 19.5202 6.36608 18.695 5.14029 17.4331C3.91451 16.1712 3.13631 14.5422 2.92495 12.7957C2.71359 11.0492 3.08074 9.28153 3.97013 7.76365C4.85952 6.24577 6.22209 5.0614 7.84901 4.39202C9.47594 3.72264 11.2775 3.60519 12.9775 4.05767L12.9737 4.07205C11.2768 3.62041 9.4786 3.73764 7.85468 4.40578C6.23076 5.07392 4.87072 6.25611 3.98298 7.77118C3.09523 9.28624 2.72876 11.0506 2.93973 12.7939C3.15069 14.5372 3.92745 16.1632 5.15097 17.4227C6.37449 18.6823 7.97727 19.506 9.71368 19.7674C11.4501 20.0289 13.2244 19.7138 14.7646 18.8704C16.3048 18.0271 17.5259 16.7019 18.2409 15.0981C18.9559 13.4942 19.1253 11.7002 18.7231 9.99089L18.7376 9.98748Z" />
    </mask>
    <path
        d="M18.7376 9.98748C19.1406 11.7 18.9709 13.4973 18.2545 15.1041C17.5382 16.711 16.3148 18.0386 14.7717 18.8835C13.2287 19.7285 11.4511 20.0441 9.71147 19.7822C7.97183 19.5202 6.36608 18.695 5.14029 17.4331C3.91451 16.1712 3.13631 14.5422 2.92495 12.7957C2.71359 11.0492 3.08074 9.28153 3.97013 7.76365C4.85952 6.24577 6.22209 5.0614 7.84901 4.39202C9.47594 3.72264 11.2775 3.60519 12.9775 4.05767L12.9737 4.07205C11.2768 3.62041 9.4786 3.73764 7.85468 4.40578C6.23076 5.07392 4.87072 6.25611 3.98298 7.77118C3.09523 9.28624 2.72876 11.0506 2.93973 12.7939C3.15069 14.5372 3.92745 16.1632 5.15097 17.4227C6.37449 18.6823 7.97727 19.506 9.71368 19.7674C11.4501 20.0289 13.2244 19.7138 14.7646 18.8704C16.3048 18.0271 17.5259 16.7019 18.2409 15.0981C18.9559 13.4942 19.1253 11.7002 18.7231 9.99089L18.7376 9.98748Z"
        fill="currentColor" fill-opacity="1" />
    <path
        d="M18.7376 9.98748C19.1406 11.7 18.9709 13.4973 18.2545 15.1041C17.5382 16.711 16.3148 18.0386 14.7717 18.8835C13.2287 19.7285 11.4511 20.0441 9.71147 19.7822C7.97183 19.5202 6.36608 18.695 5.14029 17.4331C3.91451 16.1712 3.13631 14.5422 2.92495 12.7957C2.71359 11.0492 3.08074 9.28153 3.97013 7.76365C4.85952 6.24577 6.22209 5.0614 7.84901 4.39202C9.47594 3.72264 11.2775 3.60519 12.9775 4.05767L12.9737 4.07205C11.2768 3.62041 9.4786 3.73764 7.85468 4.40578C6.23076 5.07392 4.87072 6.25611 3.98298 7.77118C3.09523 9.28624 2.72876 11.0506 2.93973 12.7939C3.15069 14.5372 3.92745 16.1632 5.15097 17.4227C6.37449 18.6823 7.97727 19.506 9.71368 19.7674C11.4501 20.0289 13.2244 19.7138 14.7646 18.8704C16.3048 18.0271 17.5259 16.7019 18.2409 15.0981C18.9559 13.4942 19.1253 11.7002 18.7231 9.99089L18.7376 9.98748Z"
        stroke="currentColor" stroke-opacity="1" stroke-width="1.6" stroke-linejoin="round"
        mask="url(#path-3-outside-1_2142_22500)" />
    <path d="M16.6077 17.5156L20.8174 21.7254" stroke="currentColor" stroke-width="1.5"
        stroke-linecap="round" />
</svg>
    