<svg width="32" height="32" viewBox="0 0 32 32" fill="none" xmlns="http://www.w3.org/2000/svg">
<g clip-path="url(#clip0_26_489)">
<path d="M10.1526 9.64603C10.3876 9.41096 10.5197 9.0922 10.5197 8.75981C10.5197 8.42743 10.3876 8.10867 10.1526 7.87359C9.9176 7.63858 9.59884 7.50652 9.26634 7.50652H8.01317V6.25329C8.01317 5.92091 7.88105 5.60209 7.64603 5.36707C7.41102 5.13206 7.09226 5 6.75975 5C6.42749 5 6.10873 5.13206 5.87372 5.36707C5.6387 5.60209 5.50658 5.92091 5.50658 6.25329V7.50652H4.25317C3.92091 7.50652 3.60215 7.63858 3.36713 7.87359C3.13212 8.10867 3 8.42743 3 8.75981C3 9.0922 3.13212 9.41096 3.36713 9.64603C3.60215 9.88105 3.92091 10.0131 4.25317 10.0131H5.50658V11.2663C5.50658 11.4271 5.53753 11.5846 5.59597 11.731C5.65835 11.8875 5.7524 12.0312 5.87372 12.1526C6.10873 12.3876 6.42749 12.5196 6.75975 12.5196C7.09226 12.5196 7.41102 12.3876 7.64603 12.1526C7.88105 11.9175 8.01317 11.5987 8.01317 11.2663V10.0131H9.26634C9.59884 10.0131 9.9176 9.88105 10.1526 9.64603Z" fill="currentColor"/>
<path d="M29 26.9084V8.34184H25.8846V26.9084H29Z" fill="currentColor"/>
<path d="M14.999 8.34191L6.34129 26.9084H9.78032L14.999 15.7146L17.1473 20.326H14.5631L13.1093 23.4414H18.6009L20.2177 26.9084H23.6565L14.999 8.34191Z" fill="currentColor"/>
</g>
<defs>
<clipPath id="clip0_26_489">
<rect width="32" height="32" fill="white"/>
</clipPath>
</defs>
</svg>
