<svg width="24" height="24" viewBox="0 0 24 24" fill="none" xmlns="http://www.w3.org/2000/svg">
<path d="M4.2309 1.63899C4.53413 1.60852 4.83945 1.67114 5.1062 1.81851L5.11004 1.82062L20.941 10.6875C20.9417 10.6879 20.9423 10.6882 20.943 10.6886C21.1766 10.8183 21.3713 11.008 21.507 11.2382C21.643 11.469 21.7148 11.732 21.7148 12C21.7148 12.2679 21.643 12.531 21.507 12.7618C21.3713 12.992 21.1766 13.1817 20.943 13.3114C20.9423 13.3117 20.9417 13.3121 20.941 13.3125L5.10621 22.1815C4.83945 22.3289 4.53413 22.3915 4.2309 22.361C3.92767 22.3305 3.64091 22.2084 3.4088 22.0109C3.1767 21.8134 3.01026 21.5499 2.93163 21.2555C2.85311 20.9614 2.86591 20.6504 2.96833 20.3638C2.96831 20.3638 2.96836 20.3637 2.96833 20.3638C2.96843 20.3635 2.96861 20.363 2.9687 20.3627L5.94958 12.0013C5.94973 12.0008 5.94989 12.0004 5.95004 12C5.94989 11.9996 5.94973 11.9991 5.94958 11.9987L2.9687 3.63726C2.96863 3.63706 2.96878 3.63745 2.9687 3.63726C2.86614 3.35051 2.85307 3.03874 2.93163 2.7445C3.01026 2.45006 3.1767 2.18655 3.4088 1.98906C3.64091 1.79156 3.92767 1.66945 4.2309 1.63899ZM4.38086 3.13147L4.38123 3.13251L7.27513 11.25H12.7498C13.164 11.25 13.4998 11.5858 13.4998 12C13.4998 12.4142 13.164 12.75 12.7498 12.75H7.27513L4.38086 20.8685L20.2114 12.0019L20.2148 12L20.2114 11.9981L4.38086 3.13147Z" fill="currentColor"/>
</svg>
