<svg width="24" height="24" viewBox="0 0 24 24" fill="none" xmlns="http://www.w3.org/2000/svg">
<path d="M6.16549 1.92585C6.45838 2.21874 6.45838 2.69361 6.16549 2.98651L2.98736 6.16463C2.69447 6.45752 2.21959 6.45752 1.9267 6.16463C1.63381 5.87174 1.63381 5.39686 1.9267 5.10397L5.10483 1.92585C5.39772 1.63295 5.87259 1.63295 6.16549 1.92585ZM17.836 1.92585C18.1289 1.63295 18.6038 1.63295 18.8967 1.92585L22.0748 5.10397C22.3677 5.39686 22.3677 5.87174 22.0748 6.16463C21.7819 6.45752 21.3071 6.45752 21.0142 6.16463L17.836 2.98651C17.5432 2.69361 17.5432 2.21874 17.836 1.92585ZM12.0008 4.5C7.85863 4.5 4.50076 7.85786 4.50076 12C4.50076 16.1421 7.85863 19.5 12.0008 19.5C16.1429 19.5 19.5008 16.1421 19.5008 12C19.5008 7.85786 16.1429 4.5 12.0008 4.5ZM3.00076 12C3.00076 7.02944 7.0302 3 12.0008 3C16.9713 3 21.0008 7.02944 21.0008 12C21.0008 16.9706 16.9713 21 12.0008 21C7.0302 21 3.00076 16.9706 3.00076 12ZM12.0008 6C12.415 6 12.7508 6.33579 12.7508 6.75V11.25H17.2508C17.665 11.25 18.0008 11.5858 18.0008 12C18.0008 12.4142 17.665 12.75 17.2508 12.75H12.0008C11.5865 12.75 11.2508 12.4142 11.2508 12V6.75C11.2508 6.33579 11.5865 6 12.0008 6Z" fill="currentColor"/>
</svg>
