<svg width="24" height="24" viewBox="0 0 24 24" fill="none" xmlns="http://www.w3.org/2000/svg">
<path d="M5.25 17.25C5.99933 17.25 6.62627 16.9929 7.12679 16.5412C7.60852 16.1064 7.94129 15.5212 8.18773 14.9025C8.64116 13.7642 8.8806 12.2952 9.10567 10.9144L9.15353 10.6214C9.40335 9.09801 9.65459 7.70454 10.1228 6.689C10.352 6.19177 10.612 5.83538 10.9047 5.60476C11.1839 5.3848 11.5288 5.25 12 5.25C12.5012 5.25 12.8663 5.38897 13.1573 5.61145C13.4605 5.84323 13.726 6.19922 13.9576 6.69333C14.4315 7.70429 14.6774 9.0939 14.9152 10.6158C14.934 10.7357 14.9527 10.8565 14.9715 10.978L14.9718 10.9801C15.1818 12.3377 15.4044 13.7765 15.8353 14.8947C16.0739 15.5136 16.3993 16.101 16.8772 16.5379C17.3745 16.9925 18.0004 17.25 18.75 17.25H21C21.4142 17.25 21.75 16.9142 21.75 16.5C21.75 16.0858 21.4142 15.75 21 15.75H18.75C18.3746 15.75 18.1099 15.6325 17.8894 15.4309C17.6495 15.2115 17.4301 14.8614 17.235 14.3553C16.8654 13.3963 16.6668 12.1181 16.4472 10.7053L16.3973 10.3842C16.3264 9.93042 16.2518 9.46416 16.1657 9H17.25C17.6642 9 18 8.66421 18 8.25C18 7.83579 17.6642 7.5 17.25 7.5H15.8305C15.6903 6.98693 15.5228 6.49822 15.3158 6.05667C15.0201 5.42578 14.6235 4.84427 14.0683 4.4198C13.5009 3.98603 12.8113 3.75 12 3.75C11.2051 3.75 10.5302 3.9902 9.97642 4.42649C9.43614 4.85212 9.04996 5.43323 8.76055 6.061C8.55772 6.50098 8.39212 6.98823 8.25201 7.50001C8.25134 7.5 8.25067 7.5 8.25 7.5H6.75C6.33579 7.5 6 7.83579 6 8.25C6 8.66421 6.33579 9 6.75 9H7.91272C7.82478 9.46211 7.74746 9.92646 7.67331 10.3786L7.63591 10.607C7.39927 12.0539 7.18432 13.3681 6.79421 14.3475C6.59254 14.8538 6.36732 15.2061 6.12185 15.4276C5.89516 15.6321 5.62567 15.75 5.25 15.75H3C2.58579 15.75 2.25 16.0858 2.25 16.5C2.25 16.9142 2.58579 17.25 3 17.25H5.25Z" fill="currentColor"/>
<path d="M3 7.5C2.58579 7.5 2.25 7.83579 2.25 8.25C2.25 8.66421 2.58579 9 3 9H3.75C4.16421 9 4.5 8.66421 4.5 8.25C4.5 7.83579 4.16421 7.5 3.75 7.5H3Z" fill="currentColor"/>
<path d="M3 18.75C2.58579 18.75 2.25 19.0858 2.25 19.5C2.25 19.9142 2.58579 20.25 3 20.25H21C21.4142 20.25 21.75 19.9142 21.75 19.5C21.75 19.0858 21.4142 18.75 21 18.75H3Z" fill="currentColor"/>
<path d="M19.5 8.25C19.5 7.83579 19.8358 7.5 20.25 7.5H21C21.4142 7.5 21.75 7.83579 21.75 8.25C21.75 8.66421 21.4142 9 21 9H20.25C19.8358 9 19.5 8.66421 19.5 8.25Z" fill="currentColor"/>
</svg>
