<svg width="24" height="24" viewBox="0 0 24 24" fill="none" xmlns="http://www.w3.org/2000/svg">
<path d="M8.24951 3.75H8.99975V8.78965C8.9996 8.79473 8.99841 8.79972 8.99627 8.80432L5.26825 15.0177C5.23657 15.0598 5.20975 15.1047 5.18792 15.1516L3.04101 18.7298L3.04013 18.7312C2.90479 18.958 2.8317 19.2164 2.82825 19.4804C2.8248 19.7445 2.89111 20.0047 3.02047 20.2349C3.14984 20.4651 3.33767 20.6571 3.565 20.7914C3.79233 20.9257 4.05109 20.9977 4.31513 21L19.6779 21L19.6844 21C19.9484 20.9977 20.2072 20.9257 20.4345 20.7914C20.6618 20.6571 20.8497 20.4651 20.979 20.2349C21.1084 20.0047 21.1747 19.7445 21.1712 19.4804C21.1678 19.2164 21.0947 18.958 20.9594 18.7312L19.0514 15.5513C19.0266 15.4949 18.9945 15.4408 18.9549 15.3904L15.0032 8.80432C15.0011 8.79972 14.9999 8.79472 14.9998 8.78963V3.75H15.7495C16.1637 3.75 16.4995 3.41421 16.4995 3C16.4995 2.58579 16.1637 2.25 15.7495 2.25H8.24951C7.8353 2.25 7.49951 2.58579 7.49951 3C7.49951 3.41421 7.8353 3.75 8.24951 3.75ZM17.356 15.641C16.9926 15.8383 16.5427 15.9858 15.9855 16.0235C15.1133 16.0825 13.9233 15.8758 12.3351 15.0795L12.3336 15.0787C10.4139 14.1218 8.86075 13.8587 7.62362 14.0075L10.2897 9.564L10.2984 9.5492C10.4287 9.32042 10.498 9.06201 10.4998 8.79875V3.75H13.4997L13.4997 8.79375L13.4998 8.79875C13.5015 9.06202 13.5709 9.32042 13.7011 9.5492L13.7098 9.564L17.356 15.641ZM6.43659 15.9859C7.29061 15.4217 8.86447 15.0256 11.6636 16.4208C13.422 17.3023 14.8801 17.6017 16.0867 17.5201C16.9025 17.4649 17.5777 17.2372 18.1281 16.928L19.6714 19.5H4.32814L6.43659 15.9859Z" fill="currentColor"/>
</svg>
