<svg width="24" height="24" viewBox="0 0 24 24" fill="none" xmlns="http://www.w3.org/2000/svg">
<path d="M11.25 12C11.25 11.5858 11.5858 11.25 12 11.25H20.25C20.6642 11.25 21 11.5858 21 12C21 12.4142 20.6642 12.75 20.25 12.75H12C11.5858 12.75 11.25 12.4142 11.25 12Z" fill="currentColor"/>
<path d="M11.25 6C11.25 5.58579 11.5858 5.25 12 5.25H20.25C20.6642 5.25 21 5.58579 21 6C21 6.41422 20.6642 6.75 20.25 6.75H12C11.5858 6.75 11.25 6.41422 11.25 6Z" fill="currentColor"/>
<path d="M11.25 18C11.25 17.5858 11.5858 17.25 12 17.25H20.25C20.6642 17.25 21 17.5858 21 18C21 18.4142 20.6642 18.75 20.25 18.75H12C11.5858 18.75 11.25 18.4142 11.25 18Z" fill="currentColor"/>
<path d="M9.17635 3.99156C9.45716 4.29606 9.43795 4.77054 9.13345 5.05135L5.88032 8.05135C5.5928 8.3165 5.14978 8.31618 4.86264 8.05062L3.24076 6.55062C2.93667 6.26937 2.91814 5.79486 3.19939 5.49077C3.48063 5.18667 3.95515 5.16814 4.25924 5.44939L5.37261 6.4791L8.11656 3.94866C8.42106 3.66785 8.89554 3.68706 9.17635 3.99156Z" fill="currentColor"/>
<path d="M6 19.5C6.82843 19.5 7.5 18.8284 7.5 18C7.5 17.1716 6.82843 16.5 6 16.5C5.17158 16.5 4.5 17.1716 4.5 18C4.5 18.8284 5.17158 19.5 6 19.5Z" fill="currentColor"/>
<path d="M6 13.5C6.82843 13.5 7.5 12.8284 7.5 12C7.5 11.1716 6.82843 10.5 6 10.5C5.17158 10.5 4.5 11.1716 4.5 12C4.5 12.8284 5.17158 13.5 6 13.5Z" fill="currentColor"/>
</svg>
