<svg width="24" height="24" viewBox="0 0 24 24" fill="none" xmlns="http://www.w3.org/2000/svg">
<path d="M5.06249 3H18.9437C19.2671 3.00266 19.581 3.10915 19.8394 3.30373C20.0977 3.49831 20.2867 3.77072 20.3785 4.08081L20.3807 4.08827L21.7213 8.79453C21.7406 8.86214 21.75 8.93127 21.75 9V10.25C21.75 11.0879 21.4511 11.9054 20.8985 12.5195C20.7059 12.7335 20.4873 12.917 20.2497 13.0654C20.2499 13.0728 20.25 13.0801 20.25 13.0875V19.5C20.25 19.8978 20.092 20.2794 19.8107 20.5607C19.5294 20.842 19.1478 21 18.75 21H5.25C4.85218 21 4.47065 20.842 4.18934 20.5607C3.90804 20.2794 3.75 19.8978 3.75 19.5V13.0875C3.75 13.0801 3.75011 13.0728 3.75032 13.0654C3.51265 12.917 3.29411 12.7335 3.10154 12.5195C2.54886 11.9054 2.25 11.0879 2.25 10.25V9H2.25298C2.2568 8.91624 2.26472 8.84357 2.27869 8.79453L3.62144 4.0808C3.71326 3.7707 3.90229 3.49831 4.16061 3.30373C4.41893 3.10915 4.73292 3.00269 5.05632 3.00003L5.06249 3ZM17.25 9.75V10.25C17.25 10.7381 17.4252 11.1924 17.7165 11.516C18.0054 11.837 18.3792 12 18.75 12C19.1208 12 19.4946 11.837 19.7835 11.516C20.0748 11.1924 20.25 10.7381 20.25 10.25V9.75H17.25ZM12.75 9.75V10.25C12.75 10.7381 12.9252 11.1924 13.2165 11.516C13.5054 11.837 13.8792 12 14.25 12C14.6208 12 14.9946 11.837 15.2835 11.516C15.5748 11.1924 15.75 10.7381 15.75 10.25V9.75H12.75ZM8.25 9.75V10.25C8.25 10.7381 8.42524 11.1924 8.71648 11.516C9.00537 11.837 9.3792 12 9.75 12C10.1208 12 10.4946 11.837 10.7835 11.516C11.0748 11.1924 11.25 10.7381 11.25 10.25V9.75H8.25ZM3.75 9.75V10.25C3.75 10.7381 3.92524 11.1924 4.21648 11.516C4.50537 11.837 4.8792 12 5.25 12C5.6208 12 5.99463 11.837 6.28352 11.516C6.57476 11.1924 6.75 10.7381 6.75 10.25V9.75H3.75ZM5.25 19.5H9V16.2212C9 16.0143 9.03731 15.778 9.1391 15.5648C9.21944 15.3966 9.46904 15 9.975 15H14.025C14.531 15 14.7806 15.3966 14.8609 15.5648C14.9627 15.778 15 16.0143 15 16.2212V19.5H18.75V13.5C17.9273 13.5 17.1566 13.1362 16.6015 12.5195C16.5667 12.4808 16.5328 12.4412 16.5 12.4009C16.4672 12.4412 16.4333 12.4808 16.3985 12.5195C15.8434 13.1362 15.0727 13.5 14.25 13.5C13.4273 13.5 12.6566 13.1362 12.1015 12.5195C12.0667 12.4808 12.0328 12.4412 12 12.4009C11.9672 12.4412 11.9333 12.4808 11.8985 12.5195C11.3434 13.1362 10.5727 13.5 9.75 13.5C8.92732 13.5 8.15656 13.1362 7.60154 12.5195C7.56668 12.4808 7.53283 12.4412 7.5 12.4009C7.46717 12.4412 7.43332 12.4808 7.39846 12.5195C6.84344 13.1362 6.07268 13.5 5.25 13.5V19.5ZM10.5 19.5H13.5V16.5H10.5V19.5ZM5.0631 4.50186L3.99347 8.25H20.0065L18.9319 4.5H5.06805C5.06626 4.50013 5.06454 4.50078 5.0631 4.50186Z" fill="currentColor"/>
</svg>
