<svg width="32" height="32" viewBox="0 0 32 32" fill="none" xmlns="http://www.w3.org/2000/svg">
<path fill-rule="evenodd" clip-rule="evenodd" d="M12.6 12.2C12.416 12.0618 12.1899 11.9912 11.9599 12.0004C11.7299 12.0095 11.51 12.0976 11.3375 12.25L5 17.8V6C5 5.73478 4.89464 5.48043 4.70711 5.29289C4.51957 5.10536 4.26522 5 4 5C3.73478 5 3.48043 5.10536 3.29289 5.29289C3.10536 5.48043 3 5.73478 3 6V26C3 26.2652 3.10536 26.5196 3.29289 26.7071C3.48043 26.8946 3.73478 27 4 27H28C28.2652 27 28.5196 26.8946 28.7071 26.7071C28.8946 26.5196 29 26.2652 29 26V12.0375C29.0046 11.9145 28.9865 11.7915 28.9464 11.6749C28.9038 11.5507 28.837 11.436 28.75 11.3375C28.663 11.239 28.5575 11.1586 28.4394 11.1009C28.3213 11.0432 28.193 11.0093 28.0619 11.0012C27.9307 10.9931 27.7992 11.0109 27.6749 11.0536C27.5507 11.0962 27.436 11.163 27.3375 11.25L19.95 17.7125L12.6 12.2ZM15 25H13V15L15 16.5V25ZM17 25H19V19.5L17 18V25ZM27 14.2047L25 15.9547V25H27V14.2047ZM23 17.7047V25H21V19.4547L23 17.7047ZM11 15.2053V25H9V17H8.94686L11 15.2053ZM7 18.7018V25H5V20.45L7 18.7018Z" fill="currentColor"/>
</svg>
