<svg width="24" height="24" viewBox="0 0 24 24" fill="none" xmlns="http://www.w3.org/2000/svg">
<path d="M11.25 18.4393L9.15533 16.3447C8.86244 16.0518 8.38756 16.0518 8.09467 16.3447C7.80178 16.6376 7.80178 17.1124 8.09467 17.4053L11.4697 20.7803C11.7626 21.0732 12.2374 21.0732 12.5303 20.7803L15.9053 17.4053C16.1982 17.1124 16.1982 16.6376 15.9053 16.3447C15.6124 16.0518 15.1376 16.0518 14.8447 16.3447L12.75 18.4393V10.7982L18.9203 4.26497C19.2047 3.96383 19.1911 3.48915 18.89 3.20474C18.5888 2.92033 18.1142 2.93389 17.8297 3.23503L12 9.4077L6.17026 3.23503C5.88585 2.93389 5.41117 2.92033 5.11003 3.20474C4.8089 3.48915 4.79533 3.96383 5.07974 4.26497L11.25 10.7982V18.4393Z" fill="currentColor"/>
</svg>
