<svg width="24" height="24" viewBox="0 0 24 24" fill="none" xmlns="http://www.w3.org/2000/svg">
<path d="M21.75 12C21.75 6.61522 17.3848 2.25 12 2.25C6.61522 2.25 2.25 6.61522 2.25 12C2.25 17.3848 6.61522 21.75 12 21.75C17.3848 21.75 21.75 17.3848 21.75 12ZM12 3.75C16.5563 3.75 20.25 7.44365 20.25 12C20.25 12.9995 20.0723 13.9575 19.7467 14.844C19.4496 14.1655 19.0267 13.5413 18.4928 13.0074C17.3676 11.8821 15.8415 11.25 14.2502 11.25H9.31066L11.0303 9.53033C11.3232 9.23744 11.3232 8.76256 11.0303 8.46967C10.7374 8.17678 10.2626 8.17678 9.96967 8.46967L6.96967 11.4697C6.67678 11.7626 6.67678 12.2374 6.96967 12.5303L9.96967 15.5303C10.2626 15.8232 10.7374 15.8232 11.0303 15.5303C11.3232 15.2374 11.3232 14.7626 11.0303 14.4697L9.31066 12.75H14.2502C15.4437 12.75 16.5883 13.2241 17.4322 14.068C18.1644 14.8002 18.6182 15.7588 18.7255 16.7792C17.2301 18.8799 14.775 20.25 12 20.25C7.44365 20.25 3.75 16.5563 3.75 12C3.75 7.44365 7.44365 3.75 12 3.75Z" fill="currentColor"/>
</svg>
