<?xml version="1.0" encoding="UTF-8"?>
<svg width="25px" height="25px" viewBox="0 0 25 25" fill="none" xmlns="http://www.w3.org/2000/svg">
    <title>arrow-square-out</title>
    <g clip-path="url(#clip0_1324_3063)">
        <path d="M21.0889 10.5232C21.0889 10.7177 21.0117 10.9043 20.8741 11.0419C20.7365 11.1795 20.5499 11.2567 20.3554 11.2567C20.1608 11.2567 19.9742 11.1795 19.8366 11.0419C19.6991 10.9043 19.6218 10.7177 19.6218 10.5232V6.42609L13.5394 12.5093C13.4018 12.647 13.2151 12.7243 13.0204 12.7243C12.8258 12.7243 12.6391 12.647 12.5014 12.5093C12.3638 12.3717 12.2864 12.185 12.2864 11.9903C12.2864 11.7957 12.3638 11.609 12.5014 11.4713L18.5838 5.38807H14.4867C14.2921 5.38807 14.1055 5.31078 13.968 5.17321C13.8304 5.03563 13.7531 4.84904 13.7531 4.65448C13.7531 4.45992 13.8304 4.27333 13.968 4.13576C14.1055 3.99819 14.2921 3.9209 14.4867 3.9209H20.3554C20.5499 3.9209 20.7365 3.99819 20.8741 4.13576C21.0117 4.27333 21.0889 4.45992 21.0889 4.65448V10.5232ZM17.421 12.7239C17.2265 12.7239 17.0399 12.8012 16.9023 12.9388C16.7647 13.0764 16.6874 13.2629 16.6874 13.4575V20.0598H4.95008V8.32241H11.5523C11.7469 8.32241 11.9335 8.24512 12.0711 8.10755C12.2086 7.96997 12.2859 7.78338 12.2859 7.58882C12.2859 7.39426 12.2086 7.20767 12.0711 7.0701C11.9335 6.93253 11.7469 6.85524 11.5523 6.85524H4.95008C4.56096 6.85524 4.18778 7.00981 3.91263 7.28496C3.63749 7.56011 3.48291 7.93329 3.48291 8.32241V20.0598C3.48291 20.4489 3.63749 20.8221 3.91263 21.0972C4.18778 21.3724 4.56096 21.5269 4.95008 21.5269H16.6874C17.0766 21.5269 17.4497 21.3724 17.7249 21.0972C18 20.8221 18.1546 20.4489 18.1546 20.0598V13.4575C18.1546 13.2629 18.0773 13.0764 17.9397 12.9388C17.8022 12.8012 17.6156 12.7239 17.421 12.7239Z" fill="currentColor"/>
    </g>
    <defs>
        <clipPath id="clip0_1324_3063">
            <rect width="23.4747" height="23.4747" fill="white" transform="translate(0.548584 0.986328)"/>
        </clipPath>
    </defs>
</svg>
