<svg width="32" height="32" viewBox="0 0 32 32" fill="none" xmlns="http://www.w3.org/2000/svg">
<g clip-path="url(#clip0_1540_1032)">
<path fill-rule="evenodd" clip-rule="evenodd" d="M22 5C21.4477 5 21 5.44772 21 6V23.5858L18.7071 21.2929C18.3166 20.9024 17.6834 20.9024 17.2929 21.2929C16.9024 21.6834 16.9024 22.3166 17.2929 22.7071L21.2929 26.7071C21.6834 27.0976 22.3166 27.0976 22.7071 26.7071L26.7071 22.7071C27.0976 22.3166 27.0976 21.6834 26.7071 21.2929C26.3166 20.9024 25.6834 20.9024 25.2929 21.2929L23 23.5858V6C23 5.44772 22.5523 5 22 5ZM10.7071 5.29289C10.3166 4.90237 9.68342 4.90237 9.29289 5.29289L5.29289 9.29289C4.90237 9.68342 4.90237 10.3166 5.29289 10.7071C5.68342 11.0976 6.31658 11.0976 6.70711 10.7071L9 8.41421V26C9 26.5523 9.44772 27 10 27C10.5523 27 11 26.5523 11 26V8.41421L13.2929 10.7071C13.6834 11.0976 14.3166 11.0976 14.7071 10.7071C15.0976 10.3166 15.0976 9.68342 14.7071 9.29289L10.7071 5.29289Z" fill="currentColor"/>
</g>
<defs>
<clipPath id="clip0_1540_1032">
<rect width="32" height="32" fill="white"/>
</clipPath>
</defs>
</svg>
