<svg width="24" height="24" viewBox="0 0 24 24" fill="none" xmlns="http://www.w3.org/2000/svg">
<path d="M21 17.9988C21.4142 17.9988 21.75 18.3346 21.75 18.7488V19.4246C21.7496 20.2253 21.1438 20.9988 20.25 20.9988H3.75C2.8562 20.9988 2.25039 20.2253 2.25 19.4246V18.7488C2.25 18.3346 2.58579 17.9988 3 17.9988C3.41421 17.9988 3.75 18.3346 3.75 18.7488V19.4246C3.75018 19.4631 3.76347 19.4872 3.77246 19.4988H20.2275C20.2365 19.4872 20.2498 19.4631 20.25 19.4246V18.7488C20.25 18.3346 20.5858 17.9988 21 17.9988ZM18.2197 8.46855C18.4943 8.19397 18.9291 8.17751 19.2236 8.41777L19.2803 8.46855L22.2803 11.4686L22.332 11.5262C22.3386 11.5342 22.3425 11.5443 22.3486 11.5525C22.3641 11.5733 22.3783 11.5947 22.3916 11.617C22.4018 11.634 22.4112 11.6511 22.4199 11.6687C22.4313 11.6918 22.4422 11.7148 22.4512 11.7391C22.4601 11.7632 22.4673 11.7876 22.4736 11.8123C22.489 11.8722 22.5 11.9342 22.5 11.9988C22.5 12.0077 22.4984 12.0164 22.498 12.0252C22.4978 12.0314 22.4974 12.0376 22.4971 12.0437C22.4948 12.0828 22.4895 12.1208 22.4814 12.158C22.476 12.1833 22.4671 12.2075 22.459 12.2322C22.4517 12.2543 22.4457 12.2765 22.4365 12.2977C22.4001 12.3815 22.3488 12.4605 22.2803 12.5291L19.2803 15.5291C18.9874 15.822 18.5126 15.822 18.2197 15.5291C17.9268 15.2362 17.9268 14.7614 18.2197 14.4686L19.9395 12.7488H4.06055L5.78027 14.4686L5.83203 14.5262C6.07184 14.8207 6.05469 15.2547 5.78027 15.5291C5.50585 15.8035 5.07191 15.8207 4.77734 15.5809L4.71973 15.5291L1.71973 12.5291C1.67112 12.4805 1.63403 12.4249 1.60156 12.368C1.58606 12.3408 1.56968 12.3141 1.55762 12.285C1.53696 12.2349 1.52206 12.1833 1.5127 12.1307C1.50508 12.0878 1.5 12.0439 1.5 11.9988C1.5 11.9534 1.50497 11.9092 1.5127 11.866C1.52212 11.8134 1.5369 11.7617 1.55762 11.7117C1.56971 11.6826 1.58603 11.6559 1.60156 11.6287C1.63396 11.572 1.67134 11.5169 1.71973 11.4686L4.71973 8.46855L4.77734 8.41777C5.07192 8.17756 5.5057 8.19399 5.78027 8.46855C6.05486 8.74314 6.07229 9.17788 5.83203 9.47246L5.78027 9.5291L4.06055 11.2488H19.9395L18.2197 9.5291L18.1689 9.47246C17.9287 9.17788 17.9451 8.74314 18.2197 8.46855ZM20.25 2.99883C21.144 2.99883 21.7499 3.77314 21.75 4.57402V5.24883C21.75 5.66304 21.4142 5.99883 21 5.99883C20.5858 5.99883 20.25 5.66304 20.25 5.24883V4.57402C20.2499 4.53524 20.2366 4.51049 20.2275 4.49883H3.77246C3.76344 4.51049 3.75006 4.53524 3.75 4.57402V5.24883C3.75 5.66304 3.41421 5.99883 3 5.99883C2.58579 5.99883 2.25 5.66304 2.25 5.24883V4.57402C2.25015 3.77314 2.85602 2.99883 3.75 2.99883H20.25Z" fill="currentColor"/>
</svg>
