<svg width="24" height="24" viewBox="0 0 24 24" fill="none" xmlns="http://www.w3.org/2000/svg">
<path d="M2.25 12C2.25 6.61522 6.61522 2.25 12 2.25C17.3848 2.25 21.75 6.61522 21.75 12C21.75 17.3848 17.3848 21.75 12 21.75C6.61522 21.75 2.25 17.3848 2.25 12ZM12 3.75C7.44365 3.75 3.75 7.44365 3.75 12C3.75 12.9995 3.92774 13.9575 4.25333 14.844C4.55035 14.1655 4.97325 13.5413 5.50718 13.0074C6.63239 11.8821 8.15852 11.25 9.74982 11.25H14.6893L12.9697 9.53033C12.6768 9.23744 12.6768 8.76256 12.9697 8.46967C13.2626 8.17678 13.7374 8.17678 14.0303 8.46967L17.0303 11.4697C17.3232 11.7626 17.3232 12.2374 17.0303 12.5303L14.0303 15.5303C13.7374 15.8232 13.2626 15.8232 12.9697 15.5303C12.6768 15.2374 12.6768 14.7626 12.9697 14.4697L14.6893 12.75H9.74982C8.55634 12.75 7.41175 13.2241 6.56784 14.068C5.83564 14.8002 5.3818 15.7588 5.27449 16.7792C6.76994 18.8799 9.22497 20.25 12 20.25C16.5563 20.25 20.25 16.5563 20.25 12C20.25 7.44365 16.5563 3.75 12 3.75Z" fill="currentColor"/>
</svg>
