<svg width="24" height="24" viewBox="0 0 24 24" fill="none" xmlns="http://www.w3.org/2000/svg">
<path d="M15.975 14.775C16.125 14.925 16.275 15 16.5 15C16.725 15 16.875 14.925 17.025 14.775L21.3944 10.4056C21.6161 10.2836 21.7493 10.0511 21.75 9.7522V9.7478C21.7493 9.44886 21.6161 9.21637 21.3944 9.09445L17.025 4.725C16.725 4.425 16.275 4.425 15.975 4.725C15.675 5.025 15.675 5.475 15.975 5.775L19.2 9H12C9.375 9 6.975 10.05 5.1 11.85C3.3 13.725 2.25 16.125 2.25 18.75C2.25 19.2 2.55 19.5 3 19.5C3.45 19.5 3.75 19.2 3.75 18.75C3.75 16.575 4.575 14.475 6.15 12.9C7.725 11.325 9.825 10.5 12 10.5H19.2L15.975 13.725C15.675 14.025 15.675 14.475 15.975 14.775Z" fill="currentColor"/>
</svg>
