<svg width="32" height="32" viewBox="0 0 32 32" fill="none" xmlns="http://www.w3.org/2000/svg">
<path d="M17 5C17 4.44772 16.5523 4 16 4C15.4477 4 15 4.44772 15 5V15.0993L6 24.5279L6 22C6 21.4477 5.55228 21 5 21C4.44772 21 4 21.4477 4 22V27C4 27.5523 4.44771 28 5 28H10C10.5523 28 11 27.5523 11 27C11 26.4477 10.5523 26 10 26H7.35972L16.7234 16.1905C16.9009 16.0045 17 15.7572 17 15.5V5Z" fill="currentColor"/>
<path d="M19.7071 18.2929C19.3166 17.9024 18.6834 17.9024 18.2929 18.2929C17.9024 18.6834 17.9024 19.3166 18.2929 19.7071L24.5858 26H22C21.4477 26 21 26.4477 21 27C21 27.5523 21.4477 28 22 28H27C27.5523 28 28 27.5523 28 27V22C28 21.4477 27.5523 21 27 21C26.4477 21 26 21.4477 26 22V24.5858L19.7071 18.2929Z" fill="currentColor"/>
<path d="M23.5 6C24.0523 6 24.5 6.44772 24.5 7V9.5H27C27.5523 9.5 28 9.94772 28 10.5C28 11.0523 27.5523 11.5 27 11.5H24.5V14C24.5 14.5523 24.0523 15 23.5 15C22.9477 15 22.5 14.5523 22.5 14V11.5H20C19.4477 11.5 19 11.0523 19 10.5C19 9.94772 19.4477 9.5 20 9.5H22.5V7C22.5 6.44772 22.9477 6 23.5 6Z" fill="currentColor"/>
</svg>
