<svg width="24" height="24" viewBox="0 0 24 24" fill="none" xmlns="http://www.w3.org/2000/svg">
<path d="M4.5 3.75C4.5 3.33579 4.16421 3 3.75 3C3.33579 3 3 3.33579 3 3.75V19.5C3 19.8978 3.15804 20.2794 3.43934 20.5607C3.72065 20.842 4.10218 21 4.5 21H19.5C19.8978 21 20.2794 20.842 20.5607 20.5607C20.842 20.2794 21 19.8978 21 19.5V3.75C21 3.33579 20.6642 3 20.25 3H12C11.5858 3 11.25 3.33579 11.25 3.75V13.1893L8.59283 10.5322C8.29994 10.2393 7.82506 10.2393 7.53217 10.5322C7.23928 10.8251 7.23928 11.2999 7.53217 11.5928L11.4697 15.5303C11.7626 15.8232 12.2374 15.8232 12.5303 15.5303L16.4678 11.5928C16.7607 11.2999 16.7607 10.8251 16.4678 10.5322C16.1749 10.2393 15.7001 10.2393 15.4072 10.5322L12.75 13.1893V4.5H19.5V19.5H4.5V3.75Z" fill="currentColor"/>
</svg>
