<svg width="24" height="24" viewBox="0 0 24 24" fill="none" xmlns="http://www.w3.org/2000/svg">
<path d="M11.4696 1.71967C11.7625 1.42678 12.2374 1.42678 12.5303 1.71967L15.1834 4.37279C15.4763 4.66569 15.4763 5.14056 15.1834 5.43345C14.8905 5.72635 14.4156 5.72635 14.1227 5.43346L12.7499 4.06068L12.75 8.99999C12.75 9.41421 12.4142 9.75 12 9.75C11.5858 9.75 11.25 9.41422 11.25 9.00001L11.2499 4.06064L9.87713 5.43346C9.58424 5.72635 9.10936 5.72635 8.81647 5.43345C8.52358 5.14056 8.52358 4.66569 8.81647 4.37279L11.4696 1.71967ZM5.43345 8.81647C5.72635 9.10936 5.72635 9.58424 5.43346 9.87713L4.06064 11.2499L9.00001 11.25C9.41422 11.25 9.75 11.5858 9.75 12C9.75 12.4142 9.41421 12.75 8.99999 12.75L4.06068 12.7499L5.43346 14.1227C5.72635 14.4156 5.72635 14.8905 5.43345 15.1834C5.14056 15.4763 4.66569 15.4763 4.37279 15.1834L1.71967 12.5303C1.42678 12.2374 1.42678 11.7625 1.71967 11.4696L4.37279 8.81647C4.66569 8.52358 5.14056 8.52358 5.43345 8.81647ZM18.5665 8.81647C18.8594 8.52358 19.3342 8.52358 19.6271 8.81647L22.2803 11.4696C22.5732 11.7625 22.5732 12.2374 22.2803 12.5303L19.6271 15.1834C19.3342 15.4763 18.8594 15.4763 18.5665 15.1834C18.2736 14.8905 18.2736 14.4156 18.5665 14.1227L19.9392 12.7499L15 12.75C14.5858 12.75 14.25 12.4142 14.25 12C14.25 11.5858 14.5858 11.25 15 11.25L19.9393 11.2499L18.5665 9.87713C18.2736 9.58424 18.2736 9.10936 18.5665 8.81647ZM12 14.25C12.4142 14.25 12.75 14.5858 12.75 15L12.7499 19.9392L14.1227 18.5665C14.4156 18.2736 14.8905 18.2736 15.1834 18.5665C15.4763 18.8594 15.4763 19.3342 15.1834 19.6271L12.5303 22.2803C12.2374 22.5732 11.7625 22.5732 11.4696 22.2803L8.81647 19.6271C8.52358 19.3342 8.52358 18.8594 8.81647 18.5665C9.10936 18.2736 9.58424 18.2736 9.87713 18.5665L11.2499 19.9393L11.25 15C11.25 14.5858 11.5858 14.25 12 14.25Z" fill="currentColor"/>
</svg>
