<svg width="24" height="24" viewBox="0 0 24 24" fill="none" xmlns="http://www.w3.org/2000/svg">
<path d="M12 3.75C7.44365 3.75 3.75 7.44365 3.75 12C3.75 16.5563 7.44365 20.25 12 20.25C16.5563 20.25 20.25 16.5563 20.25 12C20.25 7.44365 16.5563 3.75 12 3.75ZM2.25 12C2.25 6.61522 6.61522 2.25 12 2.25C17.3848 2.25 21.75 6.61522 21.75 12C21.75 17.3848 17.3848 21.75 12 21.75C6.61522 21.75 2.25 17.3848 2.25 12ZM12 7.5C12.1989 7.5 12.3896 7.57902 12.5303 7.71967L15.7084 10.8978C16.0013 11.1907 16.0013 11.6656 15.7084 11.9585C15.4155 12.2513 14.9406 12.2513 14.6478 11.9585L12.75 10.0607L12.75 15.75C12.75 16.1642 12.4142 16.5 12 16.5C11.5858 16.5 11.25 16.1642 11.25 15.75L11.25 10.0607L9.35217 11.9585C9.05928 12.2513 8.5844 12.2513 8.29151 11.9585C7.99862 11.6656 7.99862 11.1907 8.29151 10.8978L11.4696 7.71967C11.6103 7.57902 11.8011 7.5 12 7.5Z" fill="currentColor"/>
</svg>
