<svg width="32" height="32" viewBox="0 0 32 32" fill="none" xmlns="http://www.w3.org/2000/svg">
<path d="M4 16C4 15.4477 4.44772 15 5 15H10.5858L8.29289 12.7071C7.90237 12.3166 7.90237 11.6834 8.29289 11.2929C8.68342 10.9024 9.31658 10.9024 9.70711 11.2929L13.7071 15.2929C13.8946 15.4804 14 15.7348 14 16C14 16.2652 13.8946 16.5196 13.7071 16.7071L9.70711 20.7071C9.31658 21.0976 8.68342 21.0976 8.29289 20.7071C7.90237 20.3166 7.90237 19.6834 8.29289 19.2929L10.5858 17H5C4.44772 17 4 16.5523 4 16Z" fill="currentColor"/>
<path d="M16 27C15.4477 27 15 26.5523 15 26L15 6C15 5.44771 15.4477 5 16 5C16.5523 5 17 5.44771 17 6V26C17 26.5523 16.5523 27 16 27Z" fill="currentColor"/>
<path d="M21.4142 15H27C27.5523 15 28 15.4477 28 16C28 16.5523 27.5523 17 27 17H21.4142L23.7071 19.2929C24.0976 19.6834 24.0976 20.3166 23.7071 20.7071C23.3166 21.0976 22.6834 21.0976 22.2929 20.7071L18.2929 16.7071C18.1054 16.5196 18 16.2652 18 16C18 15.7348 18.1054 15.4804 18.2929 15.2929L22.2929 11.2929C22.6834 10.9024 23.3166 10.9024 23.7071 11.2929C24.0976 11.6834 24.0976 12.3166 23.7071 12.7071L21.4142 15Z" fill="currentColor"/>
</svg>
