<svg width="24" height="24" viewBox="0 0 24 24" fill="none" xmlns="http://www.w3.org/2000/svg">
<path d="M6.975 14.775C7.125 14.925 7.275 15 7.5 15C7.725 15 7.875 14.925 8.025 14.775C8.325 14.475 8.325 14.025 8.025 13.725L4.8 10.5H12C14.175 10.5 16.275 11.325 17.85 12.9C19.425 14.475 20.25 16.575 20.25 18.75C20.25 19.2 20.55 19.5 21 19.5C21.45 19.5 21.75 19.2 21.75 18.75C21.75 16.125 20.775 13.725 18.9 11.85C17.025 10.05 14.625 9 12 9H4.8L8.025 5.775C8.325 5.475 8.325 5.025 8.025 4.725C7.725 4.425 7.275 4.425 6.975 4.725L2.60556 9.09444C2.38333 9.21667 2.25 9.45 2.25 9.75C2.25 10.05 2.38333 10.2833 2.60556 10.4056L6.975 14.775Z" fill="currentColor"/>
</svg>
