<svg width="24" height="24" viewBox="0 0 24 24" fill="none" xmlns="http://www.w3.org/2000/svg">
<path d="M12 6.75C11.7779 6.75 11.5612 6.81796 11.3789 6.94474C11.1966 7.07153 11.0575 7.25107 10.9802 7.45925L10.9796 7.46089L10.234 9.48403L8.21089 10.2296L8.20925 10.2302C8.00107 10.3075 7.82153 10.4466 7.69474 10.6289C7.56796 10.8112 7.5 11.0279 7.5 11.25C7.5 11.4721 7.56796 11.6888 7.69474 11.8711C7.82153 12.0534 8.00107 12.1925 8.20925 12.2698L8.21089 12.2704L10.234 13.016L10.9796 15.0391L10.9802 15.0408C11.0575 15.2489 11.1966 15.4285 11.3789 15.5553C11.5612 15.682 11.7779 15.75 12 15.75C12.2221 15.75 12.4388 15.682 12.6211 15.5553C12.8034 15.4285 12.9425 15.2489 13.0198 15.0408L13.0204 15.0391L13.766 13.016L15.7891 12.2704L15.7908 12.2698C15.9989 12.1925 16.1785 12.0534 16.3053 11.8711C16.432 11.6888 16.5 11.4721 16.5 11.25C16.5 11.0279 16.432 10.8112 16.3053 10.6289C16.1785 10.4466 15.9989 10.3075 15.7908 10.2302L13.766 9.48403L13.0204 7.46089L13.0198 7.45925C12.9425 7.25107 12.8034 7.07153 12.6211 6.94474C12.4388 6.81796 12.2221 6.75 12 6.75ZM11.5764 10.1793L12 9.0299L12.4236 10.1793C12.4782 10.3276 12.5644 10.4622 12.6761 10.5739C12.7878 10.6856 12.9224 10.7718 13.0707 10.8264L14.2201 11.25L13.0707 11.6736C12.9224 11.7282 12.7878 11.8144 12.6761 11.9261C12.5644 12.0378 12.4782 12.1724 12.4236 12.3207L12 13.4701L11.5764 12.3207C11.5218 12.1724 11.4356 12.0378 11.3239 11.9261C11.2122 11.8144 11.0776 11.7282 10.9293 11.6736L9.7799 11.25L10.9293 10.8264C11.0776 10.7718 11.2122 10.6856 11.3239 10.5739C11.4356 10.4622 11.5218 10.3276 11.5764 10.1793Z" fill="currentColor"/>
<path d="M5.8125 3.75C5.38335 3.75 5.0333 3.97828 4.81475 4.26967C4.59931 4.55693 4.5 4.91113 4.5 5.25V17.25C4.5 17.5889 4.59931 17.9431 4.81475 18.2303C5.0333 18.5217 5.38336 18.75 5.8125 18.75H9.0802C9.09559 18.7758 9.11252 18.8006 9.13091 18.8244L10.8779 21.0836C10.972 21.2578 11.1031 21.4204 11.2739 21.5477C11.4762 21.6984 11.7267 21.7929 12 21.7929C12.2733 21.7929 12.5238 21.6984 12.7261 21.5477C12.8969 21.4204 13.028 21.2578 13.1221 21.0836L14.8691 18.8244C14.8875 18.8006 14.9044 18.7758 14.9198 18.75H18.1875C18.6166 18.75 18.9667 18.5217 19.1852 18.2303C19.4007 17.9431 19.5 17.5889 19.5 17.25V5.25C19.5 4.91113 19.4007 4.55693 19.1852 4.26967C18.9667 3.97828 18.6166 3.75 18.1875 3.75H5.8125ZM6 17.25V5.25H18V17.25L14.7539 17.25L14.7523 17.25C14.4762 17.2506 14.2244 17.3483 14.0228 17.5024C13.8549 17.6308 13.7269 17.7936 13.6356 17.9675L12 20.0826L10.3644 17.9675C10.2731 17.7936 10.1451 17.6308 9.97716 17.5024C9.77563 17.3483 9.52379 17.2506 9.24767 17.25H6Z" fill="currentColor"/>
</svg>
