<svg width="24" height="24" viewBox="0 0 24 24" fill="none" xmlns="http://www.w3.org/2000/svg">
<path d="M11.9996 21.7492C11.7746 21.7492 11.4746 21.7492 11.2496 21.7492C9.07463 21.5992 7.04963 20.6992 5.39963 19.2742C3.74963 17.8492 2.77463 15.7492 2.39963 13.6492C2.02463 11.5492 2.39963 9.29924 3.44963 7.42424C4.49963 5.54924 6.14963 3.97424 8.09963 3.14924C10.0496 2.24924 12.2996 2.09924 14.3996 2.62424C16.4996 3.07424 18.3746 4.27424 19.6496 5.99924C20.9996 7.72424 21.7496 9.82424 21.7496 11.9992C21.7496 14.8492 20.4746 16.4992 18.3746 16.4992C17.0996 16.4992 16.1246 15.8992 15.5246 14.7742C14.6996 15.8242 13.4246 16.4992 11.9996 16.4992C9.52463 16.4992 7.49963 14.4742 7.49963 11.9992C7.49963 9.52424 9.52463 7.49924 11.9996 7.49924C13.1246 7.49924 14.1746 7.94924 14.9996 8.62424V8.24924C14.9996 7.79924 15.2996 7.49924 15.7496 7.49924C16.1996 7.49924 16.4996 7.79924 16.4996 8.24924V11.9992C16.4996 13.3492 16.7996 14.9992 18.3746 14.9992C19.9496 14.9992 20.2496 13.3492 20.2496 11.9992C20.2496 10.1992 19.6496 8.39924 18.5246 6.89924C17.3996 5.47424 15.8246 4.42424 14.0246 3.97424C12.2246 3.52424 10.3496 3.67424 8.69963 4.42424C7.04963 5.17424 5.62463 6.44924 4.79963 8.09924C3.89963 9.67424 3.59963 11.6242 3.97463 13.4242C4.27463 15.2242 5.17463 16.8742 6.52463 18.1492C7.87463 19.3492 9.59963 20.0992 11.4746 20.2492C13.2746 20.3992 15.1496 19.8742 16.6496 18.8992C17.0246 18.6742 17.4746 18.7492 17.6996 19.1242C17.9246 19.4992 17.8496 19.9492 17.4746 20.1742C15.8246 21.1492 13.8746 21.7492 11.9996 21.7492ZM11.9996 8.99924C10.3496 8.99924 8.99963 10.3492 8.99963 11.9992C8.99963 13.6492 10.3496 14.9992 11.9996 14.9992C13.6496 14.9992 14.9996 13.6492 14.9996 11.9992C14.9996 10.3492 13.6496 8.99924 11.9996 8.99924Z" fill="currentColor"/>
</svg>
