<svg width="24" height="24" viewBox="0 0 24 24" fill="none" xmlns="http://www.w3.org/2000/svg">
<path d="M12 3.75C16.5563 3.75 20.25 7.44365 20.25 12C20.25 14.1036 19.4627 16.0234 18.1666 17.4806C17.5764 16.6279 16.8135 15.9038 15.9234 15.3575C15.5591 15.1339 15.1779 14.9428 14.7842 14.7855C15.8292 13.9615 16.5 12.6841 16.5 11.25C16.5 8.76472 14.4853 6.75 12 6.75C9.51472 6.75 7.5 8.76472 7.5 11.25C7.5 12.6841 8.17081 13.9615 9.21577 14.7855C8.82211 14.9428 8.44091 15.1339 8.07661 15.3575C7.18653 15.9038 6.42363 16.6279 5.83339 17.4806C4.53733 16.0234 3.75 14.1036 3.75 12C3.75 7.44365 7.44365 3.75 12 3.75ZM18.5602 19.213C20.5199 17.4296 21.75 14.8585 21.75 12C21.75 6.61522 17.3848 2.25 12 2.25C6.61522 2.25 2.25 6.61522 2.25 12C2.25 14.8585 3.48009 17.4296 5.43979 19.213C5.46483 19.2391 5.49197 19.2636 5.5211 19.2862C7.24352 20.8189 9.51302 21.75 12 21.75C14.487 21.75 16.7565 20.8189 18.4789 19.2862C18.508 19.2636 18.5352 19.2391 18.5602 19.213ZM17.0564 18.5194C15.6598 19.6041 13.9053 20.25 12 20.25C10.0947 20.25 8.34024 19.6041 6.94365 18.5194C7.43081 17.7568 8.08569 17.1119 8.86128 16.6359C9.80541 16.0564 10.8917 15.75 12 15.75C13.1083 15.75 14.1946 16.0564 15.1387 16.6359C15.9143 17.1119 16.5692 17.7568 17.0564 18.5194ZM12 8.25C13.6569 8.25 15 9.59315 15 11.25C15 12.9069 13.6569 14.25 12 14.25C10.3431 14.25 9 12.9069 9 11.25C9 9.59315 10.3431 8.25 12 8.25Z" fill="currentColor"/>
</svg>
