<svg width="24" height="24" viewBox="0 0 24 24" fill="none" xmlns="http://www.w3.org/2000/svg">
<path d="M3.00001 3.75C3.41422 3.75 3.75001 4.08579 3.75001 4.5V13.3472L8.50613 9.18557C8.77284 8.9522 9.1665 8.93736 9.45001 9.15L14.9637 13.2852L20.5061 8.43557C20.8179 8.16281 21.2917 8.19439 21.5644 8.50612C21.8372 8.81785 21.8056 9.29167 21.4939 9.56443L15.4939 14.8144C15.2272 15.0478 14.8335 15.0626 14.55 14.85L9.03636 10.7148L3.75001 15.3403V18.75H21C21.4142 18.75 21.75 19.0858 21.75 19.5C21.75 19.9142 21.4142 20.25 21 20.25H3.00001C2.5858 20.25 2.25001 19.9142 2.25001 19.5V15.0042C2.25 15.0016 2.25 14.999 2.25001 14.9964V4.5C2.25001 4.08579 2.5858 3.75 3.00001 3.75Z" fill="currentColor"/>
</svg>
