<svg width="32" height="32" viewBox="0 0 32 32" fill="none" xmlns="http://www.w3.org/2000/svg">
<g id="Size=32, Style=Regular">
<g id="Vector">
<path fill-rule="evenodd" clip-rule="evenodd" d="M7 12C7 11.4477 7.44772 11 8 11H14C14.5523 11 15 11.4477 15 12V20C15 20.5523 14.5523 21 14 21H8C7.44772 21 7 20.5523 7 20V12ZM9 13V19H13V13H9ZM17 14C17 13.4477 17.4477 13 18 13H24C24.5523 13 25 13.4477 25 14C25 14.5523 24.5523 15 24 15H18C17.4477 15 17 14.5523 17 14ZM17 18C17 17.4477 17.4477 17 18 17H24C24.5523 17 25 17.4477 25 18C25 18.5523 24.5523 19 24 19H18C17.4477 19 17 18.5523 17 18Z" fill="currentColor"/>
<path fill-rule="evenodd" clip-rule="evenodd" d="M5 5C4.46957 5 3.96086 5.21071 3.58579 5.58579C3.21071 5.96086 3 6.46957 3 7V25C3 26.1046 3.89543 27 5 27H27C28.1046 27 29 26.1046 29 25V7C29 6.46957 28.7893 5.96086 28.4142 5.58579C28.0391 5.21071 27.5304 5 27 5H5ZM27 7L5 7L5 25H27V7Z" fill="currentColor"/>
</g>
</g>
</svg>
