<svg width="24" height="24" viewBox="0 0 24 24" fill="none" xmlns="http://www.w3.org/2000/svg">
<path d="M11.2661 13.5538C11.2661 13.968 11.6019 14.3038 12.0161 14.3038C12.4303 14.3038 12.7661 13.968 12.7661 13.5538V12.7204C12.7661 12.3062 12.4303 11.9704 12.0161 11.9704C11.6019 11.9704 11.2661 12.3062 11.2661 12.7204V13.5538Z" fill="currentColor"/>
<path d="M12 15.7483C11.4713 15.7483 10.9429 15.8283 10.4647 15.9877C9.99037 16.1458 9.55153 16.387 9.22038 16.7173C8.92709 17.0098 8.92646 17.4846 9.21896 17.7779C9.51147 18.0712 9.98634 18.0718 10.2796 17.7793C10.4059 17.6533 10.6236 17.5159 10.939 17.4107C11.2505 17.3069 11.6174 17.2483 12 17.2483C12.3826 17.2483 12.7495 17.3069 13.061 17.4107C13.3764 17.5159 13.5941 17.6533 13.7204 17.7793C14.0137 18.0718 14.4885 18.0712 14.781 17.7779C15.0735 17.4846 15.0729 17.0098 14.7796 16.7173C14.4485 16.387 14.0096 16.1458 13.5353 15.9877C13.0571 15.8283 12.5287 15.7483 12 15.7483Z" fill="currentColor"/>
<path d="M17.3992 10.6805C17.4672 11.089 17.1911 11.4754 16.7825 11.5435L15.2175 11.8041C15.5213 12.0799 15.5471 12.5496 15.2739 12.8572C14.9989 13.1669 14.5248 13.195 14.2151 12.92L13.0474 11.8829C12.8314 11.6911 12.7447 11.3921 12.8248 11.1145C12.9048 10.8368 13.1372 10.6298 13.4222 10.5823L16.5362 10.0638C16.9447 9.99579 17.3311 10.2719 17.3992 10.6805Z" fill="currentColor"/>
<path d="M7.19402 11.5435C6.78543 11.4754 6.50936 11.089 6.5774 10.6805C6.64543 10.2719 7.03181 9.99579 7.4404 10.0638L10.5543 10.5823C10.8394 10.6298 11.0718 10.8368 11.1518 11.1145C11.2318 11.3921 11.1452 11.6911 10.9291 11.8829L9.76143 12.92C9.45172 13.195 8.97768 13.1669 8.70263 12.8572C8.42945 12.5496 8.45531 12.0799 8.75909 11.8041L7.19402 11.5435Z" fill="currentColor"/>
<path d="M9.41508 2.31436C9.37179 2.32878 9.33069 2.34677 9.29199 2.36788C8.97066 2.20793 8.61846 2.10844 8.2593 2.06517C7.40953 1.96279 6.47235 2.1627 5.62797 2.65021C4.78358 3.13771 4.14186 3.84938 3.80564 4.63649C3.48816 5.37974 3.43107 6.23321 3.80852 6.98963L3.80852 11.2482H3.03557C2.71283 11.2482 2.42627 11.4546 2.32413 11.7608C2.1587 12.2566 2.30193 12.7744 2.44447 13.1358C2.60007 13.5304 2.83196 13.9257 3.05507 14.2624C3.28133 14.6039 3.51561 14.9104 3.69172 15.1299C3.72155 15.1671 3.74985 15.202 3.7763 15.2343C3.73918 15.4039 3.67045 15.6244 3.57236 15.8643C3.50091 16.0391 3.42418 16.1991 3.35516 16.3236C3.29924 16.4245 3.26309 16.4752 3.25146 16.4916C3.24664 16.4983 3.24603 16.4992 3.24996 16.4953C3.03027 16.7148 2.96857 17.0469 3.09479 17.3307C3.82612 18.9747 5.54014 20.2087 7.20891 21.0748C8.64748 21.8215 10.1688 22.354 11.3006 22.6642C11.3761 22.9986 11.675 23.2483 12.0322 23.2483C12.3961 23.2483 12.6995 22.9891 12.7678 22.6453C13.8921 22.3326 15.3813 21.8066 16.7911 21.0748C18.4599 20.2087 20.1739 18.9747 20.9052 17.3307C21.0314 17.0469 20.9697 16.7148 20.75 16.4953C20.754 16.4992 20.7534 16.4983 20.7485 16.4916C20.7369 16.4753 20.7008 16.4245 20.6448 16.3236C20.5758 16.1991 20.4991 16.0391 20.4276 15.8643C20.3295 15.6244 20.2608 15.4039 20.2237 15.2343C20.2502 15.202 20.2785 15.1672 20.3083 15.13C20.4844 14.9104 20.7187 14.6039 20.9449 14.2625C21.168 13.9258 21.3999 13.5304 21.5555 13.1359C21.6981 12.7745 21.8413 12.2567 21.6759 11.7608C21.5737 11.4547 21.2872 11.2482 20.9644 11.2482H20.1915V7.00144C20.5754 6.2421 20.5194 5.38361 20.2003 4.63649C19.8641 3.84938 19.2224 3.13771 18.378 2.65021C17.5336 2.1627 16.5964 1.96279 15.7466 2.06517C15.3814 2.10918 15.0233 2.21132 14.6976 2.37607C14.6547 2.35139 14.6087 2.33061 14.5599 2.31436L13.1724 1.85227C12.4032 1.59612 11.5718 1.59612 10.8026 1.85227L9.41508 2.31436ZM12.6984 3.27543L13.5355 3.55421C13.1836 4.29879 13.2448 5.13227 13.5556 5.86008C13.8919 6.64719 14.5336 7.35885 15.378 7.84636C16.2224 8.33387 17.1595 8.53378 18.0093 8.4314C18.2418 8.40339 18.4713 8.35183 18.6915 8.27556V11.9982C18.6915 12.1971 18.7705 12.3879 18.9112 12.5285C19.0518 12.6692 19.2426 12.7482 19.4415 12.7482H20.0896C19.9889 12.9631 19.8506 13.1984 19.6945 13.4339C19.5011 13.7258 19.2963 13.9943 19.1382 14.1914C19.0596 14.2894 18.9937 14.3683 18.9481 14.422C18.9253 14.4489 18.9076 14.4693 18.896 14.4827L18.8834 14.4972L18.8804 14.5005C18.7587 14.6377 18.6915 14.8148 18.6915 14.9982C18.6915 15.4618 18.8693 16.0164 19.0392 16.4319C19.1299 16.6539 19.2316 16.868 19.3328 17.0507L19.3483 17.0784C18.7427 18.0904 17.5358 18.9983 16.1 19.7435C14.9624 20.334 13.7595 20.7824 12.7822 21.079V20.2483C12.7822 19.8341 12.4464 19.4983 12.0322 19.4983C11.618 19.4983 11.2822 19.8341 11.2822 20.2483V21.0984C10.2937 20.8022 9.06275 20.3471 7.89995 19.7435C6.46416 18.9983 5.25728 18.0904 4.65168 17.0784L4.66716 17.0507C4.76843 16.868 4.87009 16.6539 4.96083 16.4319C5.1307 16.0163 5.30852 15.4617 5.30852 14.9982C5.30852 14.8147 5.24105 14.6374 5.11933 14.5002L5.11665 14.4971L5.10397 14.4826C5.09239 14.4693 5.07472 14.4488 5.05193 14.422C5.00629 14.3683 4.94039 14.2893 4.86182 14.1914C4.70372 13.9943 4.49888 13.7258 4.30548 13.4339C4.1494 13.1983 4.01114 12.963 3.91036 12.7482H4.55852C4.75743 12.7482 4.9482 12.6691 5.08885 12.5285C5.2295 12.3878 5.30852 12.1971 5.30852 11.9982L5.30852 8.2735C5.53048 8.3509 5.76207 8.40314 5.99663 8.4314C6.8464 8.53378 7.78358 8.33387 8.62797 7.84636C9.47235 7.35885 10.1141 6.64719 10.4503 5.86008C10.7624 5.12937 10.8229 4.29214 10.4662 3.54532L11.2766 3.27543C11.7381 3.12173 12.2369 3.12173 12.6984 3.27543ZM14.9294 4.12328C15.0956 3.83548 15.4286 3.61433 15.9261 3.5544C16.4238 3.49444 17.0375 3.60833 17.628 3.94925C18.2185 4.29017 18.6239 4.7647 18.8209 5.22572C19.0177 5.68648 18.9927 6.08548 18.8265 6.37328C18.6604 6.66109 18.3273 6.88224 17.8299 6.94217C17.3322 7.00213 16.7185 6.88824 16.128 6.54732C15.5375 6.2064 15.132 5.73187 14.9351 5.27085C14.7383 4.81009 14.7632 4.41109 14.9294 4.12328ZM5.17941 6.37328C5.01325 6.08548 4.98825 5.68648 5.18507 5.22572C5.38199 4.7647 5.78747 4.29017 6.37797 3.94925C6.96846 3.60833 7.58216 3.49444 8.07988 3.5544C8.57731 3.61433 8.91036 3.83548 9.07652 4.12328C9.24269 4.41109 9.26768 4.81009 9.07087 5.27085C8.87394 5.73187 8.46846 6.2064 7.87797 6.54732C7.28747 6.88824 6.67377 7.00213 6.17606 6.94217C5.67862 6.88224 5.34557 6.66109 5.17941 6.37328Z" fill="currentColor"/>
</svg>
