<svg width="24" height="24" viewBox="0 0 24 24" fill="none" xmlns="http://www.w3.org/2000/svg">
<path d="M14.9992 21.75H8.99922C8.54922 21.75 8.24922 21.45 8.24922 21C8.24922 20.55 8.54922 20.25 8.99922 20.25H14.9992C15.4492 20.25 15.7492 20.55 15.7492 21C15.7492 21.45 15.4492 21.75 14.9992 21.75Z" fill="currentColor"/>
<path d="M4.57422 18.75C4.27422 18.75 4.04922 18.675 3.82422 18.525C3.59922 18.375 3.37422 18.225 3.29922 18C3.14922 17.775 3.07422 17.55 3.07422 17.25C3.07422 17.025 3.14922 16.725 3.29922 16.5C3.82422 15.525 4.49922 13.725 4.49922 10.5V9.75C4.49922 8.775 4.72422 7.8 5.09922 6.9C5.47422 5.925 5.99922 5.1 6.74922 4.425C7.42422 3.75 8.24922 3.15 9.22422 2.775C10.1242 2.4 11.0992 2.25 12.0742 2.25C16.1242 2.25 19.4992 5.7 19.4992 9.825V10.5C19.4992 13.725 20.1742 15.525 20.6992 16.5C20.8492 16.725 20.9242 17.025 20.9242 17.25C20.9242 17.475 20.8492 17.775 20.6992 18C20.5492 18.225 20.3992 18.45 20.1742 18.525C19.9492 18.675 19.6492 18.75 19.4242 18.75H4.57422ZM11.9992 3.75C11.2492 3.75 10.4242 3.9 9.74922 4.2C8.99922 4.5 8.32422 4.95 7.79922 5.475C7.19922 6.075 6.74922 6.75 6.44922 7.425C6.14922 8.175 5.99922 8.925 5.99922 9.75V10.5C5.99922 14.025 5.24922 16.125 4.57422 17.25H19.3492C18.7492 16.125 17.9992 14.025 17.9992 10.5V9.825C17.9992 6.525 15.2992 3.75 11.9992 3.75Z" fill="currentColor"/>
</svg>
