<svg width="24" height="24" viewBox="0 0 24 24" fill="none" xmlns="http://www.w3.org/2000/svg">
<path d="M15 3.75C15 3.33579 15.3358 3 15.75 3H19.5C19.9142 3 20.25 3.33579 20.25 3.75V6H21.375C21.7892 6 22.125 6.33579 22.125 6.75C22.125 7.16421 21.7892 7.5 21.375 7.5H20.25V18.75H21.375C21.7892 18.75 22.125 19.0858 22.125 19.5C22.125 19.9142 21.7892 20.25 21.375 20.25H2.625C2.21079 20.25 1.875 19.9142 1.875 19.5C1.875 19.0858 2.21079 18.75 2.625 18.75H3.75V13.5C3.75 13.0858 4.08579 12.75 4.5 12.75H7.5V9.75C7.5 9.33579 7.83579 9 8.25 9H12C12.4142 9 12.75 9.33579 12.75 9.75V11.25H15V7.5H2.625C2.21079 7.5 1.875 7.16421 1.875 6.75C1.875 6.33579 2.21079 6 2.625 6H15V3.75ZM12.75 12.75V18.75H15V12.75H12.75ZM11.25 18.75V10.5H9V18.75H11.25ZM7.5 18.75V14.25H5.25V18.75H7.5ZM18.75 4.5H16.5V18.75H18.75V4.5Z" fill="currentColor"/>
</svg>
