<svg width="24" height="24" viewBox="0 0 24 24" fill="none" xmlns="http://www.w3.org/2000/svg">
<path d="M9 9.75C8.58579 9.75 8.25 10.0858 8.25 10.5V14.25C8.25 14.6642 8.58579 15 9 15H10.875C11.2892 15 11.625 14.6642 11.625 14.25C11.625 13.8358 11.2892 13.5 10.875 13.5H9.75V13.125H10.5C10.9142 13.125 11.25 12.7892 11.25 12.375C11.25 11.9608 10.9142 11.625 10.5 11.625H9.75V11.25H10.875C11.2892 11.25 11.625 10.9142 11.625 10.5C11.625 10.0858 11.2892 9.75 10.875 9.75H9Z" fill="currentColor"/>
<path d="M12.75 9.75C12.3358 9.75 12 10.0858 12 10.5C12 10.9142 12.3358 11.25 12.75 11.25H13.125V14.25C13.125 14.6642 13.4608 15 13.875 15C14.2892 15 14.625 14.6642 14.625 14.25V11.25H15C15.4142 11.25 15.75 10.9142 15.75 10.5C15.75 10.0858 15.4142 9.75 15 9.75H12.75Z" fill="currentColor"/>
<path d="M3.75 10.5C3.75 10.0858 4.08579 9.75 4.5 9.75H5.625C5.98534 9.75 6.40401 9.86338 6.74999 10.1217C7.11939 10.3976 7.40378 10.8426 7.40378 11.4304C7.40378 11.7401 7.32824 12.0161 7.19817 12.2504C7.4282 12.5143 7.57166 12.86 7.57166 13.272C7.57166 13.7822 7.37593 14.2522 6.97308 14.5777C6.59169 14.8858 6.10532 15 5.625 15H4.5C4.08579 15 3.75 14.6642 3.75 14.25V10.5ZM5.625 11.625C5.72575 11.625 5.81179 11.5915 5.85605 11.5566C5.87447 11.542 5.88325 11.5295 5.88848 11.5189C5.89322 11.5093 5.90378 11.4839 5.90378 11.4304C5.90378 11.3884 5.89516 11.3711 5.89206 11.3653C5.88765 11.357 5.87742 11.3422 5.85253 11.3236C5.82641 11.3041 5.78901 11.2844 5.74282 11.2699C5.69616 11.2552 5.65371 11.25 5.625 11.25H5.25V11.625H5.625ZM5.25 13.125V13.5H5.625C5.88707 13.5 5.99903 13.4362 6.03038 13.4109C6.04381 13.4001 6.04985 13.3913 6.05472 13.3804C6.06032 13.3679 6.07166 13.3356 6.07166 13.272C6.07166 13.2514 6.06932 13.2406 6.06801 13.2364C6.06575 13.2336 6.05885 13.2263 6.04283 13.2157C5.98141 13.175 5.84102 13.125 5.625 13.125H5.25ZM6.06715 13.2342C6.06719 13.2342 6.06762 13.2352 6.06801 13.2364L6.06739 13.2349L6.06715 13.2342Z" fill="currentColor"/>
<path d="M17.4656 9.75C17.1487 9.75 16.866 9.94915 16.7593 10.2475L15.4188 13.9975C15.2794 14.3876 15.4825 14.8168 15.8726 14.9562C16.2626 15.0957 16.6918 14.8925 16.8313 14.5025L17.0556 13.875H18.5803L18.79 14.4915C18.9233 14.8836 19.3494 15.0934 19.7415 14.9601C20.1337 14.8267 20.3435 14.4007 20.2101 14.0085L18.9347 10.2585C18.8313 9.95446 18.5458 9.75 18.2246 9.75H17.4656ZM18.0701 12.375H17.5918L17.8369 11.6893L18.0701 12.375Z" fill="currentColor"/>
<path d="M1.5 6.75C1.08579 6.75 0.75 7.08579 0.75 7.5V17.25C0.75 17.6642 1.08579 18 1.5 18H22.5C22.9142 18 23.25 17.6642 23.25 17.25V7.5C23.25 7.08579 22.9142 6.75 22.5 6.75H1.5ZM2.25 16.5V8.25H21.75V16.5H2.25Z" fill="currentColor"/>
</svg>
