<svg width="24" height="24" viewBox="0 0 24 24" fill="none" xmlns="http://www.w3.org/2000/svg">
<mask id="mask0_2110_144" style="mask-type:luminance" maskUnits="userSpaceOnUse" x="1" y="2" width="22" height="20">
<path fill-rule="evenodd" clip-rule="evenodd" d="M5.95948 3.375C6.22472 2.88731 6.89619 2.5 7.45985 2.5H16.4204C16.9838 2.5 17.6554 2.88714 17.9207 3.375L22.4218 11.125C22.6992 11.6127 22.6993 12.3871 22.4218 12.875L17.9207 20.625C17.6555 21.1127 16.984 21.5 16.4204 21.5H7.45985C6.89638 21.5 6.22482 21.1129 5.95948 20.625L1.45839 12.875C1.18099 12.3873 1.1809 11.6129 1.45839 11.125L5.95948 3.375Z" fill="white"/>
</mask>
<g mask="url(#mask0_2110_144)">
<path d="M11.6729 6.25C14.5221 6.25 16.8317 8.56 16.832 11.4092C16.832 12.682 16.3704 13.8464 15.6064 14.7461L17.6973 16.8369L16.7842 17.75L14.6533 15.6182C13.8114 16.2154 12.7837 16.5684 11.6729 16.5684C8.8237 16.568 6.51367 14.2584 6.51367 11.4092C6.51398 8.56021 8.82389 6.25034 11.6729 6.25ZM11.6729 7.54004C9.53619 7.54035 7.80396 9.2725 7.80371 11.4092C7.80371 13.5461 9.53603 15.278 11.6729 15.2783C13.8099 15.2783 15.543 13.5463 15.543 11.4092C15.5427 9.27231 13.8098 7.54004 11.6729 7.54004ZM12.3184 14.2393C12.1111 14.2863 11.8953 14.3115 11.6738 14.3115C11.4522 14.3115 11.2357 14.2863 11.0283 14.2393V9.47461H12.3184V14.2393ZM10.3838 14.0098C9.8305 13.7348 9.37718 13.2885 9.09375 12.7402V10.7646H10.3838V14.0098ZM14.2529 12.7402C13.9695 13.2885 13.5162 13.7348 12.9629 14.0098V10.7646H14.2529V12.7402Z" fill="currentColor"/>
</g>
<path d="M6.16511 20.0429L1.88733 13.0429C1.49608 12.4027 1.49608 11.5973 1.88733 10.9571L6.16511 3.9571C6.52842 3.36259 7.17494 3 7.87167 3H16.1013C16.8126 3 17.4704 3.37782 17.8288 3.99226L21.9122 10.9923C22.2754 11.615 22.2754 12.385 21.9122 13.0077L17.8288 20.0077C17.4704 20.6222 16.8126 21 16.1013 21H7.87167C7.17494 21 6.52842 20.6374 6.16511 20.0429Z" stroke="currentColor" stroke-width="1.3" stroke-linejoin="round"/>
</svg>
