<svg width="32" height="32" viewBox="0 0 32 32" fill="none" xmlns="http://www.w3.org/2000/svg">
<g clip-path="url(#clip0_4209_2510)">
<path fill-rule="evenodd" clip-rule="evenodd" d="M16.0865 6C16.6388 6 17.0865 6.44772 17.0865 7V10.0909L21.7102 14.796L24.2071 17.2929C24.5977 17.6834 24.5977 18.3166 24.2071 18.7071C23.8166 19.0976 23.1834 19.0976 22.7929 18.7071L21 16.9142L19.2071 18.7071C18.8166 19.0976 18.1834 19.0976 17.7929 18.7071C17.4024 18.3166 17.4024 17.6834 17.7929 17.2929L19.5919 15.4939L16.0766 11.9167L12.5396 15.4173L12.5395 21.1336L14.8423 23.8539C15.1991 24.2754 15.1466 24.9064 14.7251 25.2633C14.3036 25.6201 13.6726 25.5676 13.3157 25.1461L11.5395 23.0478L9.76328 25.1461C9.40645 25.5676 8.77546 25.6201 8.35393 25.2633C7.93239 24.9064 7.87994 24.2754 8.23676 23.8539L10.5395 21.1336L10.5396 15C10.5396 14.733 10.6464 14.4771 10.8361 14.2892L15.0865 10.0827V7C15.0865 6.44772 15.5342 6 16.0865 6Z" fill="currentColor"/>
</g>
<defs>
<clipPath id="clip0_4209_2510">
<rect width="32" height="32" fill="white"/>
</clipPath>
</defs>
</svg>
