<svg width="32" height="32" viewBox="0 0 32 32" fill="none" xmlns="http://www.w3.org/2000/svg">
<g clip-path="url(#clip0_2367_803)">
<path d="M10.6784 6.2652C10.2953 5.9116 9.70487 5.9116 9.32181 6.2652L6.07181 9.2652C5.86672 9.4545 5.75009 9.7209 5.75009 10V22.1848L4.18085 24.4265C3.86414 24.879 3.97417 25.5025 4.42662 25.8192C4.87907 26.1359 5.5026 26.0259 5.81932 25.5735L6.75009 24.2438L7.68085 25.5735C7.99757 26.0259 8.6211 26.1359 9.07355 25.8192C9.526 25.5025 9.63603 24.879 9.31932 24.4265L7.75009 22.1848V10.4378L10.0001 8.36091L12.2501 10.4378V14.1848L10.6809 16.4265C10.3641 16.879 10.4742 17.5025 10.9266 17.8192C11.3791 18.1359 12.0026 18.0259 12.3193 17.5735L13.2501 16.2438L14.1809 17.5735C14.4976 18.0259 15.1211 18.1359 15.5735 17.8192C16.026 17.5025 16.136 16.879 15.8193 16.4265L14.2501 14.1848V10C14.2501 9.7209 14.1334 9.4545 13.9284 9.2652L10.6784 6.2652Z" fill="currentColor"/>
<path d="M22.6784 6.2652C22.2953 5.9116 21.7049 5.9116 21.3218 6.2652L18.0718 9.2652C17.8667 9.4545 17.7501 9.7209 17.7501 10V22.1848L16.1809 24.4265C15.8641 24.879 15.9742 25.5025 16.4266 25.8192C16.8791 26.1359 17.5026 26.0259 17.8193 25.5735L18.7501 24.2438L19.6809 25.5735C19.9976 26.0259 20.6211 26.1359 21.0735 25.8192C21.526 25.5025 21.636 24.879 21.3193 24.4265L19.7501 22.1848V10.4378L22.0001 8.36091L24.2501 10.4378V14.1848L22.6809 16.4265C22.3641 16.879 22.4742 17.5025 22.9266 17.8192C23.3791 18.1359 24.0026 18.0259 24.3193 17.5735L25.2501 16.2438L26.1809 17.5735C26.4976 18.0259 27.1211 18.1359 27.5735 17.8192C28.026 17.5025 28.136 16.879 27.8193 16.4265L26.2501 14.1848V10C26.2501 9.7209 26.1334 9.4545 25.9284 9.2652L22.6784 6.2652Z" fill="currentColor"/>
</g>
<defs>
<clipPath id="clip0_2367_803">
<rect width="32" height="32" fill="white"/>
</clipPath>
</defs>
</svg>
