<svg width="24" height="24" viewBox="0 0 24 24" fill="none" xmlns="http://www.w3.org/2000/svg">
<path d="M3.75 5.25C3.75 4.875 3.825 4.5 3.975 4.125C4.125 3.75 4.35 3.375 4.65 3.15C4.875 2.85 5.25 2.625 5.625 2.475C6 2.325 6.3 2.25 6.75 2.25H19.5C19.95 2.25 20.25 2.55 20.25 3V18C20.25 18.45 19.95 18.75 19.5 18.75H6.75C6.6 18.75 6.375 18.75 6.15 18.9C6.12113 18.9144 6.08948 18.9289 6.05665 18.9438C5.91895 19.0066 5.76056 19.0789 5.7 19.2C5.55 19.35 5.475 19.5 5.4 19.65C5.38435 19.697 5.36869 19.7407 5.35372 19.7824C5.29696 19.9409 5.25 20.072 5.25 20.25H18C18.45 20.25 18.75 20.55 18.75 21C18.75 21.45 18.45 21.75 18 21.75H4.5C4.05 21.75 3.75 21.45 3.75 21V5.25ZM6.75 3.75C6.6375 3.75 6.54375 3.76875 6.45 3.7875C6.35625 3.80625 6.2625 3.825 6.15 3.825C6 3.9 5.85 4.05 5.7 4.2C5.55 4.35 5.4 4.5 5.325 4.65C5.25 4.875 5.25 5.025 5.25 5.25V17.625C5.29019 17.6049 5.325 17.5848 5.35731 17.5662C5.44558 17.5152 5.51519 17.475 5.625 17.475C6 17.325 6.375 17.25 6.75 17.25H18.75V3.75H17.25V12C17.25 12.3 17.1 12.525 16.8 12.675C16.725 12.75 16.65 12.75 16.5 12.75C16.35 12.75 16.2 12.675 16.05 12.6L13.5 10.65L10.95 12.525C10.725 12.675 10.425 12.75 10.2 12.6C9.9 12.525 9.75 12.3 9.75 12V3.75H6.75ZM15.75 10.5V3.75H11.25V10.5L13.05 9.15C13.35 8.925 13.65 8.925 13.95 9.15L15.75 10.5Z" fill="currentColor"/>
</svg>
