<svg width="24" height="24" viewBox="0 0 24 24" fill="none" xmlns="http://www.w3.org/2000/svg">
<path d="M5.24884 8.25009C4.42133 8.25006 3.74986 8.9203 3.74896 9.74816C3.74734 11.2494 3.74748 12.7507 3.74902 14.2518C3.74986 15.0795 4.42097 15.75 5.24873 15.7501L6.9417 15.7502C8.38146 15.7503 9.85584 15.7504 11.2501 15.7502C12.0787 15.7501 12.7497 15.0783 12.7497 14.2502V9.75021C12.7497 8.92164 12.0779 8.25007 11.2495 8.25018C9.81682 8.25037 8.38422 8.25028 6.95154 8.25019L5.24884 8.25009ZM5.24901 14.2501C5.24748 12.75 5.24734 11.25 5.24896 9.75009L6.95149 9.75018C8.38417 9.75028 9.81693 9.75037 11.2497 9.75018L11.2497 14.2502C9.85841 14.2503 8.3874 14.2503 6.95048 14.2502L5.24901 14.2501Z" fill="currentColor"/>
<path d="M21.7607 5.25L2.2425 5.25001C1.40408 5.25001 0.750168 5.93165 0.750156 6.74999L0.75 17.25C0.749988 18.0645 1.39716 18.7501 2.23943 18.7501H21.7578C22.5897 18.7501 23.2502 18.0801 23.2502 17.2551V6.74764C23.2502 5.93008 22.5999 5.25 21.7607 5.25ZM2.25016 6.75001L21.7502 6.75V17.2501H2.25L2.25016 6.75001Z" fill="currentColor"/>
</svg>
