<svg width="32" height="32" viewBox="0 0 32 32" fill="none" xmlns="http://www.w3.org/2000/svg">
<path d="M9 4H11.5V6H9V4Z" fill="currentColor"/>
<path d="M17 4H15V6H17V4Z" fill="currentColor"/>
<path d="M20.5 4H23V6H20.5V4Z" fill="currentColor"/>
<path d="M26 4H28V6H26V4Z" fill="currentColor"/>
<path d="M26 15H28V17H26V15Z" fill="currentColor"/>
<path d="M28 26H26V28H28V26Z" fill="currentColor"/>
<path d="M23 15H20.5V17H23V15Z" fill="currentColor"/>
<path d="M20.5 26H23V28H20.5V26Z" fill="currentColor"/>
<path d="M15 15H17V17H15V15Z" fill="currentColor"/>
<path d="M17 26H15V28H17V26Z" fill="currentColor"/>
<path d="M11.5 15H9V17H11.5V15Z" fill="currentColor"/>
<path d="M9 26H11.5V28H9V26Z" fill="currentColor"/>
<path d="M28 9.5H4V11.5H28V9.5Z" fill="currentColor"/>
<path d="M4 20.5H6V23H4V20.5Z" fill="currentColor"/>
<path d="M17 20.5H15V23H17V20.5Z" fill="currentColor"/>
<path d="M26 20.5H28V23H26V20.5Z" fill="currentColor"/>
<path d="M6 4H4V6H6V4Z" fill="currentColor"/>
<path d="M4 15H6V17H4V15Z" fill="currentColor"/>
<path d="M6 26H4V28H6V26Z" fill="currentColor"/>
</svg>
