<svg width="32" height="32" viewBox="0 0 32 32" fill="none" xmlns="http://www.w3.org/2000/svg">
<path d="M11.5 4H9V6H11.5V4Z" fill="currentColor"/>
<path d="M17 4H15V6H17V4Z" fill="currentColor"/>
<path d="M23 4H20.5V6H23V4Z" fill="currentColor"/>
<path d="M26 4H28V6H26V4Z" fill="currentColor"/>
<path d="M26 26H28V28H26V26Z" fill="currentColor"/>
<path d="M20.5 26H23V28H20.5V26Z" fill="currentColor"/>
<path d="M15 26H17V28H15V26Z" fill="currentColor"/>
<path d="M9 26H11.5V28H9V26Z" fill="currentColor"/>
<path d="M6 9H4V11.5H6V9Z" fill="currentColor"/>
<path d="M4 20.5H6V23H4V20.5Z" fill="currentColor"/>
<path d="M17 9H15V11.5H17V9Z" fill="currentColor"/>
<path d="M15 20.5H17V23H15V20.5Z" fill="currentColor"/>
<path d="M28 9H26V11.5H28V9Z" fill="currentColor"/>
<path d="M26 20.5H28V23H26V20.5Z" fill="currentColor"/>
<path d="M6 4H4V6H6V4Z" fill="currentColor"/>
<path d="M4 15H28V17H4V15Z" fill="currentColor"/>
<path d="M6 26H4V28H6V26Z" fill="currentColor"/>
</svg>
