<svg width="32" height="32" viewBox="0 0 32 32" fill="none" xmlns="http://www.w3.org/2000/svg">
<path fill-rule="evenodd" clip-rule="evenodd" d="M10 10.5C10 6.91015 12.9101 4 16.5 4C20.0899 4 23 6.91015 23 10.5C23 14.0899 20.0899 17 16.5 17C12.9101 17 10 14.0899 10 10.5ZM16.5 6C14.0147 6 12 8.01472 12 10.5C12 12.9853 14.0147 15 16.5 15C18.9853 15 21 12.9853 21 10.5C21 8.01472 18.9853 6 16.5 6Z" fill="currentColor"/>
<path fill-rule="evenodd" clip-rule="evenodd" d="M4 22.5C4 19.4624 6.46243 17 9.5 17C12.5376 17 15 19.4624 15 22.5C15 25.5376 12.5376 28 9.5 28C6.46243 28 4 25.5376 4 22.5ZM9.5 19C7.567 19 6 20.567 6 22.5C6 24.433 7.567 26 9.5 26C11.433 26 13 24.433 13 22.5C13 20.567 11.433 19 9.5 19Z" fill="currentColor"/>
<path fill-rule="evenodd" clip-rule="evenodd" d="M22 20C19.7909 20 18 21.7909 18 24C18 26.2091 19.7909 28 22 28C24.2091 28 26 26.2091 26 24C26 21.7909 24.2091 20 22 20ZM20 24C20 22.8954 20.8954 22 22 22C23.1046 22 24 22.8954 24 24C24 25.1046 23.1046 26 22 26C20.8954 26 20 25.1046 20 24Z" fill="currentColor"/>
<path d="M26 17C27.1046 17 28 16.1046 28 15C28 13.8954 27.1046 13 26 13C24.8954 13 24 13.8954 24 15C24 16.1046 24.8954 17 26 17Z" fill="currentColor"/>
<path d="M8 14C8 15.1046 7.10457 16 6 16C4.89543 16 4 15.1046 4 14C4 12.8954 4.89543 12 6 12C7.10457 12 8 12.8954 8 14Z" fill="currentColor"/>
</svg>
