<svg width="24" height="24" viewBox="0 0 24 24" fill="none" xmlns="http://www.w3.org/2000/svg">
<path d="M6.47217 12.7837C6.65507 12.4932 6.84264 12.2062 7.03854 11.9291L14.0713 18.9617C13.7942 19.1577 13.5073 19.3451 13.2167 19.528L6.47217 12.7837ZM5.32116 14.8971C5.46788 14.58 5.62449 14.2627 5.79312 13.948L12.0524 20.2071C11.7378 20.3756 11.4204 20.5324 11.1032 20.6791L5.32116 14.8971ZM4.45479 17.2952C4.54356 16.94 4.65437 16.5753 4.78582 16.2052L9.79517 21.2144C9.42498 21.3458 9.0603 21.4566 8.7051 21.5454L4.45479 17.2952ZM4.60898 20.7019C4.31823 20.221 4.19823 19.6045 4.2176 18.9015L7.09881 21.7826C6.39575 21.802 5.7792 21.682 5.29834 21.3912L2 24L4.60898 20.7019ZM19.4465 6.73486C20.2371 7.52539 21.2835 7.76087 21.7836 7.2608C21.9269 7.11748 22.0032 6.92638 22.0299 6.71239C21.9425 8.36525 20.6706 9.70208 19.0464 9.88837C19.4878 12.0586 18.4215 14.9527 16.1141 17.26C15.8084 17.5658 15.4729 17.868 15.1161 18.163L7.83728 10.8844C8.13227 10.5277 8.43447 10.1921 8.74021 9.88625C9.37048 9.25614 10.0455 8.72356 10.7367 8.28356C10.2622 8.30646 9.76865 8.32017 9.25697 8.32017C5.88344 8.32017 3.14866 7.79211 3.14866 7.1408C3.14866 6.73444 4.21343 6.37613 5.83312 6.16412C4.23123 5.56553 3.21905 4.94687 3.3163 4.54065C3.46782 3.90715 6.25038 4.02969 9.53133 4.81443C11.551 5.2974 13.2859 5.91846 14.2882 6.47267C14.7025 6.58871 15.0109 6.71988 15.1896 6.8608C15.2249 6.86136 15.2589 6.86518 15.2939 6.86631C15.283 6.7562 15.2769 6.64468 15.2769 6.53175C15.2769 5.12708 16.1337 3.92312 17.3529 3.41245C17.2452 2.43266 17.3758 1.10502 18.4809 0L18.8351 0.354347C17.8941 1.29541 17.7519 2.40679 17.829 3.25739C18.0947 3.19026 18.3715 3.15068 18.658 3.15068C20.4873 3.15068 21.9734 4.6044 22.0333 6.4191C21.9891 5.94037 21.7227 5.38885 21.2576 4.92383C20.4671 4.1333 19.4207 3.89782 18.9206 4.39789C18.4205 4.89796 18.656 5.94433 19.4465 6.73486Z" fill="currentColor"/>
</svg>
