<svg width="24" height="24" viewBox="0 0 24 24" fill="none" xmlns="http://www.w3.org/2000/svg">
<path d="M9.75 13.125C10.1642 13.125 10.5 12.7892 10.5 12.375C10.5 11.9608 10.1642 11.625 9.75 11.625C9.33579 11.625 9 11.9608 9 12.375C9 12.7892 9.33579 13.125 9.75 13.125Z" fill="currentColor"/>
<path d="M10.5 14.625C10.5 15.0392 10.1642 15.375 9.75 15.375C9.33579 15.375 9 15.0392 9 14.625C9 14.2108 9.33579 13.875 9.75 13.875C10.1642 13.875 10.5 14.2108 10.5 14.625Z" fill="currentColor"/>
<path d="M12 13.125C12.4142 13.125 12.75 12.7892 12.75 12.375C12.75 11.9608 12.4142 11.625 12 11.625C11.5858 11.625 11.25 11.9608 11.25 12.375C11.25 12.7892 11.5858 13.125 12 13.125Z" fill="currentColor"/>
<path d="M12.75 14.625C12.75 15.0392 12.4142 15.375 12 15.375C11.5858 15.375 11.25 15.0392 11.25 14.625C11.25 14.2108 11.5858 13.875 12 13.875C12.4142 13.875 12.75 14.2108 12.75 14.625Z" fill="currentColor"/>
<path d="M14.25 13.125C14.6642 13.125 15 12.7892 15 12.375C15 11.9608 14.6642 11.625 14.25 11.625C13.8358 11.625 13.5 11.9608 13.5 12.375C13.5 12.7892 13.8358 13.125 14.25 13.125Z" fill="currentColor"/>
<path d="M15 14.625C15 15.0392 14.6642 15.375 14.25 15.375C13.8358 15.375 13.5 15.0392 13.5 14.625C13.5 14.2108 13.8358 13.875 14.25 13.875C14.6642 13.875 15 14.2108 15 14.625Z" fill="currentColor"/>
<path d="M6.75 6.75C6.75 6.33579 7.08579 6 7.5 6H16.5C16.9142 6 17.25 6.33579 17.25 6.75V16.8125C17.25 17.4881 16.6927 18 16.05 18H7.95C7.30731 18 6.75 17.4881 6.75 16.8125V6.75ZM8.25 10.5V16.5H15.75V10.5H8.25ZM15.75 9V7.5H8.25V9H15.75Z" fill="currentColor"/>
<path d="M3 4.5C3 3.67157 3.67157 3 4.5 3H19.5C20.3284 3 21 3.67157 21 4.5V19.5C21 20.3284 20.3284 21 19.5 21H4.5C3.67157 21 3 20.3284 3 19.5V4.5ZM19.5 4.5H4.5V19.5H19.5V4.5Z" fill="currentColor"/>
</svg>
