<svg width="24" height="24" viewBox="0 0 24 24" fill="none" xmlns="http://www.w3.org/2000/svg">
<path d="M16.5 1.5C16.9142 1.5 17.25 1.83579 17.25 2.25V3H19.5C20.3284 3 21 3.67157 21 4.5V9.75C21 10.1642 20.6642 10.5 20.25 10.5C19.8358 10.5 19.5 10.1642 19.5 9.75V9H4.5V19.5H9.75C10.1642 19.5 10.5 19.8358 10.5 20.25C10.5 20.6642 10.1642 21 9.75 21H4.5C3.67157 21 3 20.3284 3 19.5V4.5C3 3.67157 3.67157 3 4.5 3H6.75V2.25C6.75 1.83579 7.08579 1.5 7.5 1.5C7.91421 1.5 8.25 1.83579 8.25 2.25V3H15.75V2.25C15.75 1.83579 16.0858 1.5 16.5 1.5ZM15.75 4.5H8.25V5.25C8.25 5.66421 7.91421 6 7.5 6C7.08579 6 6.75 5.66421 6.75 5.25V4.5H4.5V7.5H19.5V4.5H17.25V5.25C17.25 5.66421 16.9142 6 16.5 6C16.0858 6 15.75 5.66421 15.75 5.25V4.5Z" fill="currentColor"/>
<path d="M17.25 15C17.25 14.5858 16.9142 14.25 16.5 14.25C16.0858 14.25 15.75 14.5858 15.75 15V16.5C15.75 16.6989 15.829 16.8897 15.9697 17.0303L16.7197 17.7803C17.0126 18.0732 17.4874 18.0732 17.7803 17.7803C18.0732 17.4874 18.0732 17.0126 17.7803 16.7197L17.25 16.1893V15Z" fill="currentColor"/>
<path d="M11.25 16.5C11.25 13.6005 13.6005 11.25 16.5 11.25C19.3995 11.25 21.75 13.6005 21.75 16.5C21.75 19.3995 19.3995 21.75 16.5 21.75C13.6005 21.75 11.25 19.3995 11.25 16.5ZM16.5 12.75C14.4289 12.75 12.75 14.4289 12.75 16.5C12.75 18.5711 14.4289 20.25 16.5 20.25C18.5711 20.25 20.25 18.5711 20.25 16.5C20.25 14.4289 18.5711 12.75 16.5 12.75Z" fill="currentColor"/>
</svg>
