<svg width="24" height="24" viewBox="0 0 24 24" fill="none" xmlns="http://www.w3.org/2000/svg">
<path d="M5.66005 6.72071L17.2793 18.34C15.8487 19.5325 14.0081 20.25 12 20.25C7.44365 20.25 3.75 16.5563 3.75 12C3.75 9.99188 4.46747 8.15133 5.66005 6.72071ZM5.06179 5.14991C3.32321 6.91071 2.25 9.33002 2.25 12C2.25 17.3848 6.61522 21.75 12 21.75C14.67 21.75 17.0893 20.6768 18.8501 18.9382C18.8658 18.9249 18.8811 18.9108 18.896 18.896C18.9108 18.8811 18.9249 18.8658 18.9382 18.8501C20.6768 17.0893 21.75 14.67 21.75 12C21.75 6.61522 17.3848 2.25 12 2.25C9.33002 2.25 6.91071 3.32321 5.14991 5.06179C5.13418 5.07512 5.11888 5.08921 5.10404 5.10404C5.08921 5.11888 5.07512 5.13418 5.06179 5.14991ZM6.72071 5.66005C8.15133 4.46747 9.99188 3.75 12 3.75C16.5563 3.75 20.25 7.44365 20.25 12C20.25 14.0081 19.5325 15.8487 18.34 17.2793L6.72071 5.66005Z" fill="currentColor"/>
</svg>
