<svg width="32" height="32" viewBox="0 0 32 32" fill="none" xmlns="http://www.w3.org/2000/svg">
<path fill-rule="evenodd" clip-rule="evenodd" d="M10.9051 6.5742C10.7401 6.22371 10.3876 6 10.0002 6C9.61287 6 9.26035 6.22371 9.09542 6.5742L3.46322 18.5426C3.45233 18.5638 3.44217 18.5853 3.43278 18.6073L1.09542 23.5742C0.860256 24.0739 1.07472 24.6697 1.57444 24.9048C2.07416 25.14 2.66989 24.9255 2.90506 24.4258L4.98778 20H15.0127L17.0954 24.4258C17.3306 24.9255 17.9263 25.14 18.426 24.9048C18.9258 24.6697 19.1402 24.0739 18.9051 23.5742L16.5675 18.607C16.5582 18.5852 16.5482 18.5639 16.5374 18.5429L10.9051 6.5742ZM14.0715 18L10.0002 9.34854L5.92896 18H14.0715Z" fill="currentColor"/>
<path fill-rule="evenodd" clip-rule="evenodd" d="M25.0002 16C26.0967 16 27.1475 16.3287 28.0002 16.9006V16.5C28.0002 15.241 26.7863 14 25.0002 14C23.9287 14 23.1696 14.248 22.7049 14.7095C22.3131 15.0987 21.6799 15.0965 21.2907 14.7047C20.9015 14.3128 20.9037 13.6797 21.2956 13.2905C22.2958 12.297 23.6817 12 25.0002 12C27.6317 12 30.0002 13.894 30.0002 16.5V24C30.0002 24.5523 29.5525 25 29.0002 25C28.4804 25 28.0533 24.6034 28.0048 24.0963C27.1512 24.6702 26.0987 25 25.0002 25C22.3684 25 20.0002 23.1065 20.0002 20.5C20.0002 17.8935 22.3684 16 25.0002 16ZM22.0002 20.5C22.0002 19.2405 23.2138 18 25.0002 18C26.7867 18 28.0002 19.2405 28.0002 20.5C28.0002 21.7595 26.7867 23 25.0002 23C23.2138 23 22.0002 21.7595 22.0002 20.5Z" fill="currentColor"/>
</svg>
