<svg width="24" height="24" viewBox="0 0 24 24" fill="none" xmlns="http://www.w3.org/2000/svg">
<path d="M7.50001 6C7.0858 6 6.75002 6.33578 6.75001 6.74998L6.75 17.25C6.75 17.4489 6.82901 17.6397 6.96966 17.7803C7.11032 17.921 7.30109 18 7.5 18H16.5C16.9142 18 17.25 17.6642 17.25 17.25L17.25 10.5C17.25 10.3011 17.171 10.1103 17.0303 9.96967L13.2803 6.21967C13.1397 6.07902 12.9489 6 12.75 6H7.50001ZM12.75 7.81067L15.4393 10.5H12.75V7.81067Z" fill="currentColor"/>
<path d="M3 4.5C3 3.67157 3.67157 3 4.5 3H19.5C20.3284 3 21 3.67157 21 4.5V19.5C21 20.3284 20.3284 21 19.5 21H4.5C3.67157 21 3 20.3284 3 19.5V4.5ZM19.5 4.5L4.5 4.5V19.5H19.5V4.5Z" fill="currentColor"/>
</svg>
