<svg width="24" height="24" viewBox="0 0 24 24" fill="none" xmlns="http://www.w3.org/2000/svg">
<path d="M3 4.5C3 3.67157 3.67157 3 4.5 3H19.5C20.3284 3 21 3.67157 21 4.5V19.5C21 20.3284 20.3284 21 19.5 21H4.5C3.67157 21 3 20.3284 3 19.5V4.5ZM19.5 4.5L4.5 4.5V19.5H19.5V4.5Z" fill="currentColor"/>
<path d="M12 15C12 14.5858 12.3358 14.25 12.75 14.25H16.5C16.9142 14.25 17.25 14.5858 17.25 15C17.25 15.4142 16.9142 15.75 16.5 15.75H12.75C12.3358 15.75 12 15.4142 12 15Z" fill="currentColor"/>
<path d="M8.25 8.25C7.83579 8.25 7.5 8.58579 7.5 9C7.5 9.41421 7.83579 9.75 8.25 9.75C8.66421 9.75 9 9.41421 9 9C9 8.58579 8.66421 8.25 8.25 8.25ZM6 9C6 7.75736 7.00736 6.75 8.25 6.75C9.49264 6.75 10.5 7.75736 10.5 9C10.5 10.2426 9.49264 11.25 8.25 11.25C7.00736 11.25 6 10.2426 6 9Z" fill="currentColor"/>
<path d="M12 9C12 8.58579 12.3358 8.25 12.75 8.25H16.5C16.9142 8.25 17.25 8.58579 17.25 9C17.25 9.41421 16.9142 9.75 16.5 9.75H12.75C12.3358 9.75 12 9.41421 12 9Z" fill="currentColor"/>
<path d="M8.25 17.25C9.49264 17.25 10.5 16.2426 10.5 15C10.5 13.7574 9.49264 12.75 8.25 12.75C7.00736 12.75 6 13.7574 6 15C6 16.2426 7.00736 17.25 8.25 17.25Z" fill="currentColor"/>
</svg>
