<svg width="24" height="24" viewBox="0 0 24 24" fill="none" xmlns="http://www.w3.org/2000/svg">
<path d="M7.5 7.5C7.08579 7.5 6.75 7.83579 6.75 8.25C6.75 8.66421 7.08579 9 7.5 9H16.5C16.9142 9 17.25 8.66421 17.25 8.25C17.25 7.83579 16.9142 7.5 16.5 7.5H7.5Z" fill="currentColor"/>
<path d="M6.75 12C6.75 11.5858 7.08579 11.25 7.5 11.25H16.5C16.9142 11.25 17.25 11.5858 17.25 12C17.25 12.4142 16.9142 12.75 16.5 12.75H7.5C7.08579 12.75 6.75 12.4142 6.75 12Z" fill="currentColor"/>
<path d="M7.5 15C7.08579 15 6.75 15.3358 6.75 15.75C6.75 16.1642 7.08579 16.5 7.5 16.5H12C12.4142 16.5 12.75 16.1642 12.75 15.75C12.75 15.3358 12.4142 15 12 15H7.5Z" fill="currentColor"/>
<path d="M4.5 3C3.67157 3 3 3.67157 3 4.5V19.5C3 20.3284 3.67157 21 4.5 21H19.5C20.3284 21 21 20.3284 21 19.5V4.5C21 3.67157 20.3284 3 19.5 3H4.5ZM4.5 4.5L19.5 4.5V19.5H4.5V4.5Z" fill="currentColor"/>
</svg>
