<svg width="24" height="24" viewBox="0 0 24 24" fill="none" xmlns="http://www.w3.org/2000/svg">
<path d="M16.5 13.5C16.5 13.0858 16.1642 12.75 15.75 12.75C15.3358 12.75 15 13.0858 15 13.5V16.5C15 16.9142 15.3358 17.25 15.75 17.25C16.1642 17.25 16.5 16.9142 16.5 16.5V13.5Z" fill="currentColor"/>
<path d="M8.25 9.75C8.66421 9.75 9 10.0858 9 10.5V16.5C9 16.9142 8.66421 17.25 8.25 17.25C7.83579 17.25 7.5 16.9142 7.5 16.5V10.5C7.5 10.0858 7.83579 9.75 8.25 9.75Z" fill="currentColor"/>
<path d="M12.75 7.5C12.75 7.08579 12.4142 6.75 12 6.75C11.5858 6.75 11.25 7.08579 11.25 7.5V16.5C11.25 16.9142 11.5858 17.25 12 17.25C12.4142 17.25 12.75 16.9142 12.75 16.5V7.5Z" fill="currentColor"/>
<path d="M4.5 3C3.67157 3 3 3.67157 3 4.5V19.5C3 20.3284 3.67157 21 4.5 21H19.5C20.3284 21 21 20.3284 21 19.5V4.5C21 3.67157 20.3284 3 19.5 3H4.5ZM4.5 4.5L19.5 4.5V19.5H4.5V4.5Z" fill="currentColor"/>
</svg>
