<svg width="24" height="24" viewBox="0 0 24 24" fill="none" xmlns="http://www.w3.org/2000/svg">
<path d="M7.5 3H16.5C16.9142 3 17.25 3.33579 17.25 3.75V4.5H6.75V3.75C6.75 3.33579 7.08579 3 7.5 3ZM18.75 3.75C18.75 2.50736 17.7426 1.5 16.5 1.5H7.5C6.25736 1.5 5.25 2.50736 5.25 3.75V20.25C5.25 21.4926 6.25736 22.5 7.5 22.5H16.5C17.7426 22.5 18.75 21.4926 18.75 20.25V3.75ZM17.25 6V18H6.75V6H17.25ZM17.25 19.5V20.25C17.25 20.6642 16.9142 21 16.5 21H7.5C7.08579 21 6.75 20.6642 6.75 20.25V19.5H17.25Z" fill="currentColor"/>
</svg>
