<svg width="24" height="24" viewBox="0 0 24 24" fill="none" xmlns="http://www.w3.org/2000/svg">
<path d="M10.8751 14.0261C11.0251 14.1761 11.2501 14.2511 11.4001 14.2511C11.5501 14.2511 11.7001 14.1761 11.8501 14.0261L14.7001 11.4011C15.0001 11.1011 15.0751 10.6511 14.7751 10.3511C14.4751 10.0511 14.0251 9.97606 13.7251 10.2761L11.3251 12.4511L10.2001 11.4011C9.90013 11.1761 9.45013 11.1761 9.15013 11.4761C8.92513 11.7761 8.92513 12.2261 9.22513 12.5261L10.8751 14.0261Z" fill="currentColor"/>
<path d="M8.92468 19.4261C9.07468 19.5011 9.22468 19.5011 9.37468 19.5011C9.67468 19.5011 10.0497 19.4261 10.6497 19.2761L10.8747 19.2011C10.9497 19.1636 11.0434 19.1261 11.1372 19.0886C11.2309 19.0511 11.3247 19.0136 11.3997 18.9761C11.5497 18.9011 11.8497 18.8261 12.1497 18.8261C12.4497 18.8261 12.6747 18.9011 12.8997 18.9761C13.1247 19.0511 13.3497 19.1261 13.4997 19.2011L13.7247 19.2761C14.0247 19.4261 14.2497 19.5011 14.4747 19.5011C14.7747 19.5011 14.9997 19.5011 15.2247 19.4261C15.3747 19.3511 15.5997 19.2011 15.7497 18.9761C15.7981 18.8309 15.8778 18.6856 15.9686 18.5201C16.0184 18.4293 16.0715 18.3324 16.1247 18.2261L16.1997 18.0011C16.2372 17.9261 16.2747 17.8324 16.3122 17.7387C16.3497 17.6449 16.3872 17.5511 16.4247 17.4761C16.4747 17.4012 16.5163 17.3262 16.558 17.2512C16.6413 17.1012 16.7247 16.9511 16.8747 16.8011C17.0247 16.5761 17.3247 16.4261 17.4747 16.3511C17.5497 16.3136 17.6434 16.2761 17.7372 16.2386C17.8309 16.2011 17.9247 16.1636 17.9997 16.1261L18.2997 15.9761C18.8997 15.6761 19.3497 15.4511 19.4997 15.0011C19.7247 14.5511 19.5747 14.1011 19.3497 13.5011L19.2747 13.2761C19.2372 13.2011 19.1997 13.1074 19.1622 13.0136C19.1247 12.9199 19.0872 12.8261 19.0497 12.7511C18.9747 12.6011 18.8997 12.3011 18.8997 12.0011C18.8997 11.7011 18.9747 11.4761 19.0497 11.2511C19.1247 11.0261 19.1997 10.8011 19.2747 10.6511L19.3497 10.4261C19.4997 10.1261 19.5747 9.90114 19.5747 9.67615C19.5747 9.37615 19.5747 9.15114 19.4997 8.92615C19.4247 8.77614 19.2747 8.55115 19.0497 8.40114C18.9044 8.35271 18.7591 8.27301 18.5936 8.18222C18.5028 8.13242 18.406 8.07928 18.2997 8.02614L17.9997 7.87615C17.9247 7.83865 17.8309 7.80115 17.7372 7.76365C17.6434 7.72615 17.5497 7.68865 17.4747 7.65114C17.3997 7.60115 17.3247 7.55949 17.2497 7.51782C17.0997 7.43449 16.9497 7.35115 16.7997 7.20115C16.6497 7.05115 16.5663 6.90115 16.483 6.75115C16.4413 6.67615 16.3997 6.60115 16.3497 6.52614C16.3122 6.45115 16.2747 6.3574 16.2372 6.26365C16.1997 6.1699 16.1622 6.07614 16.1247 6.00115L15.9747 5.77614C15.6747 5.17615 15.4497 4.72615 14.9997 4.57615C14.5497 4.35115 14.0997 4.50115 13.4997 4.72615L13.2747 4.80115C13.1997 4.83864 13.1059 4.87614 13.0122 4.91363C12.9185 4.95113 12.8247 4.98865 12.7497 5.02615C12.5997 5.10115 12.2997 5.17615 11.9997 5.17615C11.6997 5.17615 11.4747 5.10115 11.2497 5.02615C11.1372 4.98865 11.0434 4.95115 10.9497 4.91365C10.8559 4.87615 10.7622 4.83865 10.6497 4.80115L10.4247 4.72615C10.1247 4.57615 9.89968 4.50115 9.67468 4.50115C9.37468 4.50115 9.14968 4.50115 8.92468 4.57615C8.77468 4.65115 8.54968 4.80115 8.39968 5.02615C8.35125 5.17144 8.27154 5.31674 8.18076 5.48223C8.13095 5.57301 8.07782 5.66987 8.02468 5.77614L7.87468 6.00115C7.83718 6.07614 7.79968 6.16989 7.76218 6.26364C7.72468 6.35739 7.68718 6.45114 7.64968 6.52614C7.59968 6.60115 7.55801 6.67615 7.51635 6.75115C7.43301 6.90115 7.34968 7.05115 7.19968 7.20115C7.04968 7.35115 6.89968 7.43448 6.74968 7.51781C6.67468 7.55948 6.59968 7.60115 6.52468 7.65114C6.44968 7.68865 6.35593 7.72615 6.26218 7.76365C6.16843 7.80115 6.07468 7.83865 5.99968 7.87615L5.77468 8.02614C5.17468 8.32615 4.72468 8.55115 4.57468 9.00115C4.34968 9.45115 4.49968 9.90114 4.72468 10.5011L4.79968 10.7261C4.83718 10.8011 4.87468 10.8949 4.91217 10.9886C4.94967 11.0824 4.98718 11.1761 5.02468 11.2511C5.09968 11.4011 5.17468 11.7011 5.17468 12.0011C5.17468 12.3011 5.09968 12.5261 5.02468 12.7511C4.94968 12.9011 4.87468 13.1261 4.79968 13.3511L4.72468 13.5761C4.57468 13.8761 4.49968 14.1011 4.49968 14.3261C4.49968 14.6261 4.49968 14.8511 4.57468 15.1511C4.64968 15.3011 4.79968 15.5261 5.02468 15.6761C5.16998 15.7246 5.31527 15.8043 5.48076 15.8951C5.57155 15.9449 5.66841 15.998 5.77468 16.0511L5.99968 16.1261C6.07468 16.1636 6.16843 16.2011 6.26218 16.2386C6.35592 16.2761 6.44968 16.3136 6.52468 16.3511C6.59968 16.4011 6.67468 16.4428 6.74968 16.4845C6.89968 16.5678 7.04968 16.6511 7.19968 16.8011C7.34968 16.9511 7.43301 17.1011 7.51635 17.2511C7.55801 17.3261 7.59968 17.4012 7.64968 17.4761C7.68718 17.5511 7.72468 17.6449 7.76218 17.7386C7.79968 17.8324 7.83718 17.9261 7.87468 18.0011L7.94968 18.2261C8.24968 18.8261 8.47468 19.2761 8.92468 19.4261ZM6.37468 14.6261C6.29968 14.6261 6.14968 14.5511 5.99968 14.4761C6.07468 14.3261 6.14968 14.1761 6.14968 14.0261L6.22468 13.8011C6.29968 13.6511 6.37468 13.4261 6.44968 13.2011C6.52468 12.9761 6.67468 12.5261 6.67468 12.0011C6.67468 11.5648 6.57106 11.1803 6.493 10.8906C6.47719 10.8319 6.46232 10.7767 6.44968 10.7261L6.14968 9.82615C6.07468 9.67615 5.99968 9.52614 5.99968 9.45115C6.07468 9.45115 6.22467 9.37615 6.37466 9.30115L6.59968 9.22615C6.82468 9.07615 6.97468 9.00115 7.19968 8.92615C7.49968 8.85115 7.87468 8.62615 8.24968 8.25115C8.44763 8.0532 8.60378 7.85525 8.75124 7.66833C8.88311 7.50115 9.00804 7.34278 9.14968 7.20115C9.17239 7.15573 9.20197 7.10344 9.23427 7.04635C9.30864 6.9149 9.39739 6.75802 9.44968 6.60115L9.52468 6.37615C9.52468 6.26634 9.56487 6.19672 9.61583 6.10845C9.63449 6.07615 9.65458 6.04134 9.67468 6.00115C9.74045 6.03403 9.80622 6.05249 9.86566 6.06919C9.9418 6.09056 10.0076 6.10903 10.0497 6.15114L10.2747 6.22615C10.4247 6.30115 10.6497 6.37615 10.8747 6.45115C11.0997 6.52615 11.5497 6.67614 12.0747 6.67614C12.511 6.67614 12.8956 6.57253 13.1852 6.49447C13.2441 6.47861 13.299 6.46381 13.3497 6.45115C13.4997 6.37615 13.7247 6.30115 13.9497 6.22615L14.1747 6.15114C14.3247 6.07615 14.4747 6.00115 14.5497 6.00115C14.5497 6.07615 14.6247 6.22615 14.6997 6.37615L14.7747 6.60115C14.8793 6.75802 14.9474 6.9149 15.0045 7.04635C15.0293 7.10342 15.052 7.15574 15.0747 7.20115C15.1497 7.50115 15.3747 7.87615 15.7497 8.25115C15.9794 8.48086 16.2091 8.65429 16.3871 8.78867C16.4997 8.87366 16.5916 8.94303 16.6497 9.00115C16.6951 9.02385 16.7474 9.05344 16.8045 9.08574C16.9359 9.1601 17.0928 9.24886 17.2497 9.30115L17.4747 9.37615C17.5845 9.37615 17.6541 9.41634 17.7424 9.4673C17.7747 9.48594 17.8095 9.50606 17.8497 9.52614C17.8168 9.59191 17.7983 9.65768 17.7816 9.71713C17.7603 9.79326 17.7418 9.85903 17.6997 9.90114L17.3997 10.8011C17.3247 11.0261 17.1747 11.4761 17.1747 12.0011C17.1747 12.4375 17.2783 12.822 17.3564 13.1117C17.3722 13.1704 17.3871 13.2256 17.3997 13.2761C17.4747 13.4261 17.5497 13.6511 17.6247 13.8761L17.6997 14.1011C17.7747 14.2511 17.8497 14.4011 17.8497 14.4761C17.7747 14.4761 17.6247 14.5511 17.4747 14.6261L17.2497 14.7011C17.0928 14.8057 16.9359 14.8739 16.8045 14.9309C16.7474 14.9557 16.6951 14.9784 16.6497 15.0011C16.3497 15.0761 15.9747 15.3011 15.5997 15.6761C15.2997 16.0511 15.0747 16.4261 14.9247 16.7261C14.7747 16.8761 14.6997 17.1011 14.6247 17.3261L14.5497 17.5511C14.5497 17.661 14.5095 17.7306 14.4585 17.8188C14.4399 17.8511 14.4198 17.886 14.3997 17.9261C14.3339 17.8933 14.2682 17.8748 14.2087 17.8581C14.1326 17.8367 14.0668 17.8183 14.0247 17.7761L13.1247 17.4761C12.8997 17.4011 12.4497 17.2511 11.9247 17.2511C11.5584 17.2511 11.1922 17.3505 10.9068 17.4279C10.8416 17.4456 10.7805 17.4622 10.7247 17.4761C10.5747 17.4761 10.4247 17.5428 10.2747 17.6095C10.1997 17.6428 10.1247 17.6761 10.0497 17.7011L9.89968 17.7761C9.74968 17.8511 9.59968 17.9261 9.52468 17.9261C9.44968 17.8511 9.37468 17.7011 9.29968 17.5511L9.22468 17.3261C9.07468 17.1011 8.99968 16.9511 8.92468 16.7261C8.84968 16.4261 8.62468 16.0511 8.24968 15.6761C7.87468 15.3761 7.49968 15.1511 7.19968 15.0011C7.08719 14.9636 6.9747 14.9074 6.86221 14.8512C6.74971 14.7949 6.63717 14.7386 6.52468 14.7011L6.37468 14.6261Z" fill="currentColor"/>
<path d="M4.5 18.0011H1.5C1.275 18.0011 1.05 17.9261 0.9 17.7011C0.75 17.5511 0.75 17.2511 0.75 17.0261L2.25 12.0011L0.75 6.9761C0.75 6.7511 0.75 6.4511 0.9 6.3011C1.05 6.1511 1.275 6.0011 1.5 6.0011H4.5C4.95 6.0011 5.25 6.3011 5.25 6.7511C5.25 7.2011 4.95 7.5011 4.5 7.5011H2.475L3.75 11.7761V12.2261L2.475 16.5011H4.5C4.95 16.5011 5.25 16.8011 5.25 17.2511C5.25 17.7011 4.95 18.0011 4.5 18.0011Z" fill="currentColor"/>
<path d="M19.5 18.0012H22.5C22.725 18.0012 22.95 17.9262 23.025 17.7012C23.175 17.4762 23.25 17.2512 23.175 17.0262L21.75 12.0012L23.25 6.97617C23.25 6.75117 23.25 6.45117 23.1 6.37617C22.95 6.15117 22.725 6.07617 22.5 6.07617H19.5C19.05 6.07617 18.75 6.37617 18.75 6.82617C18.75 7.27617 19.05 7.57617 19.5 7.57617H21.45L20.25 11.8512C20.175 11.9262 20.175 12.0762 20.25 12.2262L21.525 16.5012H19.5C19.05 16.5012 18.75 16.8012 18.75 17.2512C18.75 17.7012 19.05 18.0012 19.5 18.0012Z" fill="currentColor"/>
</svg>
