<svg width="24" height="24" viewBox="0 0 24 24" fill="none" xmlns="http://www.w3.org/2000/svg">
<path d="M14.25 4.5C13.8358 4.5 13.5 4.83579 13.5 5.25C13.5 5.66421 13.8358 6 14.25 6H18C18.9946 6 19.9484 6.39509 20.6516 7.09835C21.3549 7.80161 21.75 8.75544 21.75 9.75C21.75 10.7446 21.3549 11.6984 20.6516 12.4017C19.9484 13.1049 18.9946 13.5 18 13.5H14.25C13.8358 13.5 13.5 13.8358 13.5 14.25C13.5 14.6642 13.8358 15 14.25 15H18C19.3924 15 20.7277 14.4469 21.7123 13.4623C22.6969 12.4777 23.25 11.1424 23.25 9.75C23.25 8.35761 22.6969 7.02226 21.7123 6.03769C20.7277 5.05312 19.3924 4.5 18 4.5H14.25Z" fill="currentColor"/>
<path d="M3.34835 11.5983C4.05161 10.8951 5.00544 10.5 6 10.5H9.75C10.1642 10.5 10.5 10.1642 10.5 9.75C10.5 9.33579 10.1642 9 9.75 9H6C4.60761 9 3.27226 9.55312 2.28769 10.5377C1.30312 11.5223 0.75 12.8576 0.75 14.25C0.75 15.6424 1.30312 16.9777 2.28769 17.9623C3.27226 18.9469 4.60761 19.5 6 19.5H9.75C10.1642 19.5 10.5 19.1642 10.5 18.75C10.5 18.3358 10.1642 18 9.75 18H6C5.00544 18 4.05161 17.6049 3.34835 16.9017C2.64509 16.1984 2.25 15.2446 2.25 14.25C2.25 13.2554 2.64509 12.3016 3.34835 11.5983Z" fill="currentColor"/>
</svg>
