<svg width="24" height="24" viewBox="0 0 24 24" fill="none" xmlns="http://www.w3.org/2000/svg">
<path d="M11.25 3.78363C7.04513 4.16255 3.75 7.69647 3.75 12C3.75 13.2359 4.02178 14.4084 4.50884 15.4609L11.25 11.5671V3.78363ZM12.75 3.78363V10.7007L18.7398 7.24087C17.3814 5.32066 15.223 4.00649 12.75 3.78363ZM19.4912 8.5391L12.3864 12.6429C12.3786 12.6476 12.3707 12.6522 12.3627 12.6566L5.26024 16.7591C6.75431 18.8711 9.21613 20.25 12 20.25C16.5563 20.25 20.25 16.5563 20.25 12C20.25 10.7641 19.9782 9.59159 19.4912 8.5391ZM2.25 12C2.25 6.61522 6.61522 2.25 12 2.25C17.3848 2.25 21.75 6.61522 21.75 12C21.75 17.3848 17.3848 21.75 12 21.75C6.61522 21.75 2.25 17.3848 2.25 12Z" fill="currentColor"/>
</svg>
