<svg width="24" height="24" viewBox="0 0 24 24" fill="none" xmlns="http://www.w3.org/2000/svg">
<path d="M10.5 3.03363V10.8175L9.57705 11.3506C9.21837 11.5577 9.09556 12.0165 9.30274 12.3751C9.50992 12.7338 9.96864 12.8566 10.3273 12.6495L18.7413 7.78939C19.2283 8.8418 19.5 10.0142 19.5 11.25C19.5 11.6642 19.8358 12 20.25 12C20.6642 12 21 11.6642 21 11.25C21 5.86522 16.6348 1.5 11.25 1.5C5.86522 1.5 1.5 5.86522 1.5 11.25C1.5 13.0247 1.97481 14.6907 2.80484 16.1255C2.94412 16.3663 3.19678 16.5007 3.45632 16.5001C3.58502 16.5009 3.71563 16.4685 3.83512 16.3995L4.50016 16.0153C4.85884 15.8081 4.98166 15.3494 4.77448 14.9907C4.56902 14.635 4.11617 14.5113 3.75885 14.7113C3.27187 13.6594 3 12.4872 3 11.25C3 6.94647 6.29513 3.41255 10.5 3.03363ZM12 3.03363C14.4731 3.2565 16.6316 4.57078 17.9899 6.49113L12 9.95103V3.03363Z" fill="currentColor"/>
<path d="M11.25 16.5C11.25 16.2101 11.4851 15.975 11.775 15.975H13.0875C13.3774 15.975 13.6125 16.2101 13.6125 16.5C13.6125 16.7899 13.3774 17.025 13.0875 17.025H12.3V17.2875H12.825C13.1149 17.2875 13.35 17.5226 13.35 17.8125C13.35 18.1025 13.1149 18.3375 12.825 18.3375H12.3V18.6H13.0875C13.3774 18.6 13.6125 18.835 13.6125 19.125C13.6125 19.4149 13.3774 19.65 13.0875 19.65H11.775C11.4851 19.65 11.25 19.4149 11.25 19.125V16.5Z" fill="currentColor"/>
<path d="M13.875 16.5C13.875 16.2101 14.1101 15.975 14.4 15.975H15.975C16.2649 15.975 16.5 16.2101 16.5 16.5C16.5 16.7899 16.2649 17.025 15.975 17.025H15.7125V19.125C15.7125 19.4149 15.4775 19.65 15.1875 19.65C14.8975 19.65 14.6625 19.4149 14.6625 19.125V17.025H14.4C14.1101 17.025 13.875 16.7899 13.875 16.5Z" fill="currentColor"/>
<path d="M8.625 15.975C8.33505 15.975 8.1 16.2101 8.1 16.5V19.125C8.1 19.4149 8.33505 19.65 8.625 19.65H9.4125C9.74872 19.65 10.0892 19.5701 10.3562 19.3544C10.6381 19.1265 10.7752 18.7976 10.7752 18.4404C10.7752 18.152 10.6747 17.91 10.5137 17.7253C10.6048 17.5612 10.6576 17.3681 10.6576 17.1513C10.6576 16.7398 10.4586 16.4283 10.2 16.2352C9.95781 16.0544 9.66474 15.975 9.4125 15.975H8.625ZM9.57424 17.2396C9.54325 17.264 9.48302 17.2875 9.4125 17.2875H9.15V17.025H9.4125C9.4326 17.025 9.46231 17.0286 9.49498 17.0389C9.52731 17.0491 9.55349 17.0629 9.57177 17.0765C9.58919 17.0896 9.59635 17.0999 9.59944 17.1057C9.60161 17.1098 9.60765 17.1219 9.60765 17.1513C9.60765 17.1887 9.60026 17.2065 9.59694 17.2133C9.59328 17.2207 9.58713 17.2294 9.57424 17.2396ZM9.4125 18.3375C9.56371 18.3375 9.66199 18.3725 9.70498 18.401C9.71619 18.4084 9.72102 18.4135 9.72261 18.4155C9.72353 18.4184 9.72516 18.426 9.72516 18.4404C9.72516 18.4849 9.71722 18.5076 9.71331 18.5163C9.7099 18.5239 9.70567 18.53 9.69626 18.5376C9.67432 18.5554 9.59595 18.6 9.4125 18.6H9.15V18.3375H9.4125ZM9.722 18.4139C9.72203 18.4139 9.72233 18.4146 9.72261 18.4155L9.722 18.4139Z" fill="currentColor"/>
<path d="M17.2067 16.3233C17.2813 16.1144 17.4792 15.975 17.701 15.975H18.2324C18.4572 15.975 18.657 16.1181 18.7294 16.331L19.6222 18.956C19.7155 19.2305 19.5687 19.5287 19.2942 19.622C19.0197 19.7154 18.7215 19.5686 18.6281 19.294L18.4813 18.8625H17.414L17.257 19.3017C17.1594 19.5748 16.8589 19.717 16.5859 19.6194C16.3129 19.5218 16.1707 19.2213 16.2683 18.9483L17.2067 16.3233ZM17.7894 17.8125H18.1242L17.961 17.3325L17.7894 17.8125Z" fill="currentColor"/>
<path d="M6 14.4C6 14.1101 6.23505 13.875 6.525 13.875H21.225C21.5149 13.875 21.75 14.1101 21.75 14.4V21.225C21.75 21.5149 21.5149 21.75 21.225 21.75H6.525C6.23505 21.75 6 21.5149 6 21.225V14.4ZM7.05 14.925V20.7H20.7V14.925H7.05Z" fill="currentColor"/>
</svg>
