<svg width="24" height="24" viewBox="0 0 24 24" fill="none" xmlns="http://www.w3.org/2000/svg">
<path d="M12.7502 2.25C12.7502 1.83579 12.4144 1.5 12.0002 1.5C11.586 1.5 11.2502 1.83579 11.2502 2.25V3.84451C9.95626 4.17755 9.00018 5.35212 9.00018 6.75C9.00018 7.64231 9.38975 8.44363 10.0081 8.99316L3.83731 20.6491C3.6435 21.0152 3.78316 21.469 4.14923 21.6628C4.51531 21.8566 4.96919 21.717 5.16299 21.3509L11.3429 9.67777C11.5544 9.72505 11.7744 9.75 12.0002 9.75C13.657 9.75 15.0002 8.40685 15.0002 6.75C15.0002 5.35212 14.0441 4.17755 12.7502 3.84451V2.25ZM12.0002 5.25C12.8286 5.25 13.5002 5.92157 13.5002 6.75C13.5002 7.57843 12.8286 8.25 12.0002 8.25C11.1718 8.25 10.5002 7.57843 10.5002 6.75C10.5002 5.92157 11.1718 5.25 12.0002 5.25Z" fill="currentColor"/>
<path d="M15.0012 10.8991C14.8074 10.533 14.3536 10.3934 13.9875 10.5872C13.6214 10.781 13.4818 11.2349 13.6756 11.6009L18.8373 21.3509C19.0311 21.717 19.485 21.8566 19.8511 21.6628C20.2172 21.469 20.3568 21.0151 20.163 20.6491L15.0012 10.8991Z" fill="currentColor"/>
</svg>
