<svg width="24" height="24" viewBox="0 0 24 24" fill="none" xmlns="http://www.w3.org/2000/svg">
<path d="M3.75 3C3.33579 3 3 3.33579 3 3.75V17.25C3 17.6642 3.33579 18 3.75 18C4.16421 18 4.5 17.6642 4.5 17.25V4.5H13.5C13.9142 4.5 14.25 4.16421 14.25 3.75C14.25 3.33579 13.9142 3 13.5 3H3.75Z" fill="currentColor"/>
<path d="M14.25 9C14.25 8.58579 13.9142 8.25 13.5 8.25C13.0858 8.25 12.75 8.58579 12.75 9V11.25H10.5C10.0858 11.25 9.75 11.5858 9.75 12C9.75 12.4142 10.0858 12.75 10.5 12.75H12.75V15C12.75 15.4142 13.0858 15.75 13.5 15.75C13.9142 15.75 14.25 15.4142 14.25 15V12.75L16.5 12.75C16.9142 12.75 17.25 12.4142 17.25 12C17.25 11.5858 16.9142 11.25 16.5 11.25L14.25 11.25V9Z" fill="currentColor"/>
<path d="M6.42441 6.46762C6.70197 6.17373 7.08789 6 7.5 6H19.5C19.9121 6 20.298 6.17373 20.5756 6.46762C20.8518 6.76006 21 7.14799 21 7.54412V16.2794C21 16.6755 20.8518 17.0635 20.5756 17.3559C20.298 17.6498 19.9121 17.8235 19.5 17.8235H10.7396L7.23759 20.8199C7.01513 21.0102 6.70225 21.0537 6.43631 20.9312C6.17037 20.8088 6 20.5428 6 20.25V7.54412C6 7.14798 6.14822 6.76006 6.42441 6.46762ZM7.51288 7.5C7.50758 7.50701 7.5 7.52207 7.5 7.54412V18.6212L9.97491 16.5037C10.1108 16.3874 10.2837 16.3235 10.4625 16.3235H19.4871C19.4924 16.3165 19.5 16.3015 19.5 16.2794V7.54412C19.5 7.52207 19.4924 7.50701 19.4871 7.5H7.51288Z" fill="currentColor"/>
</svg>
