<svg width="24" height="24" viewBox="0 0 24 24" fill="none" xmlns="http://www.w3.org/2000/svg">
<path d="M8.25 11.25C8.25 10.8358 8.58579 10.5 9 10.5H9.75V10.125C9.75 9.42881 10.0266 8.76113 10.5188 8.26884C11.0111 7.77656 11.6788 7.5 12.375 7.5C13.0712 7.5 13.7389 7.77656 14.2312 8.26884C14.7234 8.76113 15 9.42881 15 10.125V10.5H15.75C16.1642 10.5 16.5 10.8358 16.5 11.25V15.375C16.5 15.7892 16.1642 16.125 15.75 16.125H9C8.58579 16.125 8.25 15.7892 8.25 15.375V11.25ZM13.5 10.5V10.125C13.5 9.82663 13.3815 9.54048 13.1705 9.3295C12.9595 9.11853 12.6734 9 12.375 9C12.0766 9 11.7905 9.11853 11.5795 9.3295C11.3685 9.54048 11.25 9.82663 11.25 10.125V10.5H13.5ZM15 12H9.75V14.625H15V12Z" fill="currentColor"/>
<path d="M2.68936 4.93934C2.97067 4.65804 3.3522 4.5 3.75002 4.5H20.25C20.6478 4.5 21.0294 4.65804 21.3107 4.93934C21.592 5.22065 21.75 5.60218 21.75 6V18C21.75 18.3978 21.592 18.7794 21.3107 19.0607C21.0294 19.342 20.6478 19.5 20.25 19.5H7.78732L7.68995 19.5342L4.70631 22.0372C4.48778 22.218 4.22244 22.3332 3.9411 22.3693C3.65976 22.4055 3.37394 22.3611 3.11681 22.2414C2.85967 22.1216 2.64175 21.9314 2.48834 21.6929C2.33492 21.4543 2.25229 21.1771 2.25005 20.8934L2.25 20.8875L2.25002 6C2.25002 5.60217 2.40806 5.22064 2.68936 4.93934ZM20.25 6L3.75002 6V20.8815L6.8305 18.2973C6.89966 18.2393 6.97873 18.1942 7.06391 18.1643L7.41078 18.0424C7.49067 18.0143 7.57473 18 7.6594 18H20.25V6Z" fill="currentColor"/>
</svg>
