<svg width="24" height="24" viewBox="0 0 24 24" fill="none" xmlns="http://www.w3.org/2000/svg">
<path d="M3.75 3C3.33579 3 3 3.33579 3 3.75V17.25C3 17.6642 3.33579 18 3.75 18C4.16421 18 4.5 17.6642 4.5 17.25V4.5H13.5C13.9142 4.5 14.25 4.16421 14.25 3.75C14.25 3.33579 13.9142 3 13.5 3H3.75Z" fill="currentColor"/>
<path d="M7.5 6C7.08789 6 6.70197 6.17373 6.42441 6.46762C6.14822 6.76006 6 7.14798 6 7.54412V20.25C6 20.5428 6.17037 20.8088 6.43631 20.9312C6.70225 21.0537 7.01513 21.0102 7.23759 20.8199L10.7396 17.8235H19.5C19.9121 17.8235 20.298 17.6498 20.5756 17.3559C20.8518 17.0635 21 16.6755 21 16.2794V7.54412C21 7.14799 20.8518 6.76006 20.5756 6.46762C20.298 6.17373 19.9121 6 19.5 6H7.5ZM7.5 7.54412C7.5 7.52207 7.50758 7.50701 7.51288 7.5H19.4871C19.4924 7.50701 19.5 7.52207 19.5 7.54412V16.2794C19.5 16.3015 19.4924 16.3165 19.4871 16.3235H10.4625C10.2837 16.3235 10.1108 16.3874 9.97491 16.5037L7.5 18.6212V7.54412Z" fill="currentColor"/>
</svg>
