<svg width="24" height="24" viewBox="0 0 24 24" fill="none" xmlns="http://www.w3.org/2000/svg">
<path d="M7.49866 17.25C7.34866 17.25 7.12366 17.175 6.97366 17.025C6.67366 16.725 6.67366 16.275 6.89866 15.975L10.0487 12.6C10.3487 12.3 10.8737 12.3 11.1737 12.6L12.3737 13.875L14.7967 11.25H13.5C13.05 11.25 12.75 10.95 12.75 10.5C12.75 10.05 13.05 9.75 13.5 9.75H16.41C16.626 9.71488 16.85 9.76973 17.0237 9.89999C17.2169 10.0933 17.2857 10.3488 17.25 10.5863V13.5C17.25 13.95 16.95 14.25 16.5 14.25C16.05 14.25 15.75 13.95 15.75 13.5V12.4213L12.9737 15.45C12.6737 15.75 12.1487 15.75 11.8487 15.45L10.6487 14.25L8.09866 17.025C7.87366 17.175 7.72366 17.25 7.49866 17.25Z" fill="currentColor"/>
<path d="M8.69452 3H5.25C4.875 3 4.5 3.15 4.2 3.45C3.9 3.75 3.75 4.125 3.75 4.5V20.25C3.75 20.625 3.9 21 4.2 21.3C4.5 21.6 4.875 21.75 5.25 21.75H18.75C19.125 21.75 19.5 21.6 19.8 21.3C20.1 21 20.25 20.625 20.25 20.25V4.5C20.25 4.125 20.1 3.75 19.8 3.45C19.5 3.15 19.125 3 18.75 3H15.3055C15.2552 2.94897 15.2034 2.89896 15.15 2.85C14.325 1.95 13.2 1.5 12 1.5C10.8 1.5 9.675 1.95 8.85 2.85C8.79659 2.89896 8.74476 2.94897 8.69452 3ZM7.5 6.75C7.5 7.2 7.8 7.5 8.25 7.5H15.75C16.2 7.5 16.5 7.2 16.5 6.75V6C16.5 5.4798 16.4154 4.97369 16.2463 4.5H18.75V20.25H5.25V4.5H7.7537C7.58457 4.97369 7.5 5.4798 7.5 6V6.75ZM9.45084 4.37086C9.57039 4.28893 9.65878 4.17098 9.70735 4.02568C9.7452 3.98249 9.78443 3.94057 9.825 3.9C11.025 2.775 12.975 2.775 14.1 3.9C14.1881 3.97713 14.2698 4.05912 14.345 4.14549C14.3817 4.21189 14.4283 4.27033 14.4837 4.31962C14.8279 4.79327 15 5.37512 15 6H9C9 5.39747 9.16002 4.83495 9.45084 4.37086Z" fill="currentColor"/>
</svg>
