<svg width="24" height="24" viewBox="0 0 24 24" fill="none" xmlns="http://www.w3.org/2000/svg">
<path d="M20.7803 6.21967C21.0732 6.51256 21.0732 6.98744 20.7803 7.28033L10.2803 17.7803C9.98744 18.0732 9.51256 18.0732 9.21967 17.7803L3.96967 12.5303C3.67678 12.2374 3.67678 11.7626 3.96967 11.4697C4.26256 11.1768 4.73744 11.1768 5.03033 11.4697L9.75 16.1893L19.7197 6.21967C20.0126 5.92678 20.4874 5.92678 20.7803 6.21967Z" fill="currentColor"/>
<path d="M21.75 10.5C21.75 10.9142 21.4142 11.25 21 11.25H20.25C19.8358 11.25 19.5 10.9142 19.5 10.5C19.5 10.0858 19.8358 9.75 20.25 9.75H21C21.4142 9.75 21.75 10.0858 21.75 10.5Z" fill="currentColor"/>
<path d="M16.5 13.5C16.5 13.0858 16.8358 12.75 17.25 12.75L21 12.75C21.4142 12.75 21.75 13.0858 21.75 13.5C21.75 13.9142 21.4142 14.25 21 14.25L17.25 14.25C16.8358 14.25 16.5 13.9142 16.5 13.5Z" fill="currentColor"/>
<path d="M13.125 16.5C13.125 16.0858 13.4608 15.75 13.875 15.75L21 15.75C21.4142 15.75 21.75 16.0858 21.75 16.5C21.75 16.9142 21.4142 17.25 21 17.25L13.875 17.25C13.4608 17.25 13.125 16.9142 13.125 16.5Z" fill="currentColor"/>
</svg>
