<svg width="32" height="32" viewBox="0 0 32 32" fill="none" xmlns="http://www.w3.org/2000/svg">
<path d="M6 4.5C6 5.32843 5.32843 6 4.5 6C3.67157 6 3 5.32843 3 4.5C3 3.67157 3.67157 3 4.5 3C5.32843 3 6 3.67157 6 4.5Z" fill="currentColor"/>
<path d="M14 19.5C14 20.3284 13.3284 21 12.5 21C11.6716 21 11 20.3284 11 19.5C11 18.6716 11.6716 18 12.5 18C13.3284 18 14 18.6716 14 19.5Z" fill="currentColor"/>
<path d="M11.5 14C12.3284 14 13 13.3284 13 12.5C13 11.6716 12.3284 11 11.5 11C10.6716 11 10 11.6716 10 12.5C10 13.3284 10.6716 14 11.5 14Z" fill="currentColor"/>
<path d="M18 14.5C18 15.3284 17.3284 16 16.5 16C15.6716 16 15 15.3284 15 14.5C15 13.6716 15.6716 13 16.5 13C17.3284 13 18 13.6716 18 14.5Z" fill="currentColor"/>
<path d="M20.5 12C21.3284 12 22 11.3284 22 10.5C22 9.67157 21.3284 9 20.5 9C19.6716 9 19 9.67157 19 10.5C19 11.3284 19.6716 12 20.5 12Z" fill="currentColor"/>
<path d="M20 21.5C20 22.3284 19.3284 23 18.5 23C17.6716 23 17 22.3284 17 21.5C17 20.6716 17.6716 20 18.5 20C19.3284 20 20 20.6716 20 21.5Z" fill="currentColor"/>
<path fill-rule="evenodd" clip-rule="evenodd" d="M16 4C9.37258 4 4 9.37258 4 16C4 22.6274 9.37258 28 16 28C22.6274 28 28 22.6274 28 16C28 9.37258 22.6274 4 16 4ZM6 16C6 10.4772 10.4772 6 16 6C21.5228 6 26 10.4772 26 16C26 21.5228 21.5228 26 16 26C10.4772 26 6 21.5228 6 16Z" fill="currentColor"/>
<path d="M28.5 27C29.3284 27 30 26.3284 30 25.5C30 24.6716 29.3284 24 28.5 24C27.6716 24 27 24.6716 27 25.5C27 26.3284 27.6716 27 28.5 27Z" fill="currentColor"/>
<path d="M23.5 30C24.3284 30 25 29.3284 25 28.5C25 27.6716 24.3284 27 23.5 27C22.6716 27 22 27.6716 22 28.5C22 29.3284 22.6716 30 23.5 30Z" fill="currentColor"/>
<path d="M30 6.5C30 7.32843 29.3284 8 28.5 8C27.6716 8 27 7.32843 27 6.5C27 5.67157 27.6716 5 28.5 5C29.3284 5 30 5.67157 30 6.5Z" fill="currentColor"/>
</svg>
