<svg width="24" height="24" viewBox="0 0 24 24" fill="none" xmlns="http://www.w3.org/2000/svg">
<path d="M19.5 4.5H10.125C9.7125 4.5 9.375 4.8375 9.375 5.25C9.375 5.6625 9.7125 6 10.125 6H11.25V7.5C11.25 7.9125 11.5875 8.25 12 8.25C12.4125 8.25 12.75 7.9125 12.75 7.5V6H18.75V8.25C18.75 8.6625 19.0875 9 19.5 9C19.9125 9 20.25 8.6625 20.25 8.25V5.25C20.25 4.8375 19.9125 4.5 19.5 4.5Z" fill="currentColor"/>
<path d="M6.84 4.7175C6.675 4.56 6.4575 4.5 6.2475 4.515C6.225 4.515 6.21 4.5 6.1875 4.5H4.5C4.0875 4.5 3.75 4.8375 3.75 5.25V8.25C3.75 8.6625 4.0875 9 4.5 9C4.9125 9 5.25 8.6625 5.25 8.25V6H6L11.25 11.25V18H9C8.5875 18 8.25 18.3375 8.25 18.75C8.25 19.1625 8.5875 19.5 9 19.5H15C15.4125 19.5 15.75 19.1625 15.75 18.75C15.75 18.3375 15.4125 18 15 18H12.75V12.75L18.51 18.51C18.66 18.66 18.8475 18.7275 19.0425 18.7275C19.2375 18.7275 19.425 18.6525 19.575 18.51C19.8675 18.2175 19.8675 17.745 19.575 17.4525L6.84 4.7175Z" fill="currentColor"/>
</svg>
