<svg width="24" height="24" viewBox="0 0 24 24" fill="none" xmlns="http://www.w3.org/2000/svg">
<path d="M20.55 17.0995C20.7 17.1745 20.85 17.2495 21 17.2495C21.225 17.2495 21.45 17.1745 21.6 16.7995C22.35 15.7495 22.875 14.5495 23.1 13.2745C23.325 11.9995 23.25 10.7245 22.875 9.44947C22.5 8.24947 21.825 7.04947 20.925 6.14947C20.025 5.24947 18.825 4.49947 17.625 4.12447C16.425 3.74947 15.075 3.59947 13.8 3.82447C12.525 4.04947 11.25 4.57447 10.2 5.32447C9.15 6.07447 8.25 7.12447 7.65 8.24947C7.63918 8.26976 7.62845 8.29013 7.61782 8.31057C7.33426 8.27469 7.05477 8.24942 6.75 8.24942C5.175 8.24942 3.675 8.84942 2.475 9.97442C1.35 11.1744 0.75 12.6744 0.75 14.2494C0.75 15.8244 1.35 17.3244 2.475 18.5244C3.675 19.6494 5.175 20.2494 6.75 20.2494H9C9.45 20.2494 9.75 19.9494 9.75 19.4994C9.75 19.0494 9.45 18.7494 9 18.7494H6.75C5.55 18.7494 4.425 18.2994 3.6 17.3994C2.7 16.5744 2.25 15.4494 2.25 14.2494C2.25 13.0494 2.7 11.9244 3.6 11.0244C4.52634 10.0981 5.80864 9.6294 7.07005 9.70211C6.85668 10.4522 6.75 11.2391 6.75 11.9995C6.75 12.4495 7.05 12.7495 7.5 12.7495C7.95 12.7495 8.25 12.4495 8.25 11.9995C8.25 10.9495 8.55 9.89947 9 8.92447C9.45 7.94947 10.125 7.12447 11.025 6.52447C11.85 5.92447 12.9 5.47447 13.95 5.32447C15 5.17447 16.125 5.24947 17.1 5.62447C18.15 5.92447 19.05 6.52447 19.8 7.27447C20.55 8.02447 21.15 8.92447 21.45 9.97447C21.75 10.9495 21.825 12.0745 21.675 13.1245C21.45 14.1745 21.075 15.2245 20.4 16.0495C20.175 16.3495 20.25 16.8745 20.55 17.0995Z" fill="currentColor"/>
<path d="M17.4006 15.8994C17.1756 15.8994 17.0256 15.8244 16.8756 15.6744L15 13.7988V19.4994C15 19.9494 14.7 20.2494 14.25 20.2494C13.8 20.2494 13.5 19.9494 13.5 19.4994V13.8L11.6256 15.6744C11.3256 15.9744 10.8756 15.9744 10.5756 15.6744C10.2756 15.3744 10.2756 14.9244 10.5756 14.6244L13.5937 11.6063C13.7158 11.3833 13.9494 11.2494 14.25 11.2494L14.2528 11.2494C14.5509 11.2502 14.7828 11.3829 14.9048 11.6037L17.9256 14.6244C18.2256 14.9244 18.2256 15.3744 17.9256 15.6744C17.7756 15.8244 17.6256 15.8994 17.4006 15.8994Z" fill="currentColor"/>
</svg>
