<svg width="24" height="24" viewBox="0 0 24 24" fill="none" xmlns="http://www.w3.org/2000/svg">
<path d="M8.81056 5.50174C9.08575 5.81132 9.05786 6.28538 8.74827 6.56056L2.6289 12L8.74827 17.4395C9.05786 17.7146 9.08575 18.1887 8.81056 18.4983C8.53537 18.8079 8.06131 18.8358 7.75173 18.5606L1.00173 12.5606C0.841611 12.4182 0.75 12.2142 0.75 12C0.75 11.7858 0.841611 11.5818 1.00173 11.4395L7.75173 5.43945C8.06131 5.16426 8.53537 5.19215 8.81056 5.50174Z" fill="currentColor"/>
<path d="M15.1894 5.50174C15.4646 5.19215 15.9387 5.16426 16.2483 5.43945L22.9983 11.4395C23.1584 11.5818 23.25 11.7858 23.25 12C23.25 12.2142 23.1584 12.4182 22.9983 12.5606L16.2483 18.5606C15.9387 18.8358 15.4646 18.8079 15.1894 18.4983C14.9143 18.1887 14.9421 17.7146 15.2517 17.4395L21.3711 12L15.2517 6.56056C14.9421 6.28538 14.9143 5.81132 15.1894 5.50174Z" fill="currentColor"/>
</svg>
