<svg width="24" height="24" viewBox="0 0 24 24" fill="none" xmlns="http://www.w3.org/2000/svg">
<path d="M14.0303 3.21969C13.8158 3.00519 13.4932 2.94103 13.213 3.05711C12.9327 3.1732 12.75 3.44668 12.75 3.75002V10.5C12.75 10.9142 13.0858 11.25 13.5 11.25H20.25C20.5533 11.25 20.8268 11.0673 20.9429 10.787C21.059 10.5068 20.9948 10.1842 20.7803 9.96969L14.0303 3.21969ZM14.25 9.75002V5.56068L18.4393 9.75002H14.25Z" fill="currentColor"/>
<path d="M3.75002 12.75C3.44668 12.75 3.1732 12.9327 3.05711 13.213C2.94103 13.4932 3.00519 13.8158 3.21969 14.0303L9.96969 20.7803C10.1842 20.9948 10.5068 21.059 10.787 20.9429C11.0673 20.8268 11.25 20.5533 11.25 20.25V13.5C11.25 13.0858 10.9142 12.75 10.5 12.75H3.75002ZM9.75002 18.4393L5.56068 14.25H9.75002V18.4393Z" fill="currentColor"/>
</svg>
