<svg width="24" height="24" viewBox="0 0 24 24" fill="none" xmlns="http://www.w3.org/2000/svg">
<path d="M9.75002 21.3734C9.37502 21.3734 9.07502 21.2984 8.70002 21.2234C6.52502 20.4734 4.72502 18.9734 3.52502 17.0234C2.32502 15.0734 1.95002 12.7484 2.32502 10.4984C2.70002 8.24844 3.90002 6.14844 5.62502 4.72344C7.35002 3.22344 9.60002 2.39844 11.85 2.39844C14.475 2.39844 16.95 3.37344 18.75 5.17344C20.625 6.97344 21.675 9.44844 21.675 11.9984C21.675 12.7484 21.6 13.4984 21.45 14.2484C21.3 14.9234 20.925 15.5234 20.4 15.8984C19.875 16.3484 19.2 16.5734 18.525 16.5734H14.25C14.025 16.5734 13.875 16.6484 13.65 16.6484C13.5 16.7234 13.275 16.7984 13.2 16.9484C13.05 17.0984 12.975 17.2484 12.9 17.3984C12.75 17.6234 12.75 17.7734 12.75 17.9984V18.3734C12.75 18.8234 12.6 19.3484 12.45 19.7234C12.225 20.1734 11.925 20.5484 11.55 20.7734C11.175 21.0734 10.725 21.2234 10.2 21.2984C10.05 21.3734 9.90002 21.3734 9.75002 21.3734ZM12 3.74844H11.925C9.97502 3.74844 8.10002 4.49844 6.67502 5.69844C5.17502 6.97344 4.20002 8.69844 3.90002 10.6484C3.60002 12.5234 3.97502 14.5484 4.95002 16.1984C5.92502 17.8484 7.50002 19.1234 9.30002 19.7984C9.52502 19.8734 9.75002 19.8734 9.97502 19.8734C10.2 19.8734 10.425 19.7234 10.65 19.6484C10.875 19.4984 11.025 19.3484 11.1 19.1234C11.175 18.8984 11.25 18.6734 11.25 18.4484V17.9984C11.25 17.6234 11.325 17.2484 11.475 16.8734C11.625 16.4984 11.85 16.1984 12.15 15.8984C12.45 15.5984 12.75 15.3734 13.125 15.2234C13.5 15.0734 13.875 14.9984 14.25 14.9984H18.6C18.975 14.9984 19.275 14.8484 19.5 14.6984C19.8 14.4734 19.95 14.1734 20.025 13.8734C20.175 13.2734 20.25 12.5984 20.25 11.9984C20.25 9.82344 19.35 7.72344 17.775 6.22344C16.2 4.57344 14.175 3.74844 12 3.74844Z" fill="currentColor"/>
<path d="M12 8.24844C12.6213 8.24844 13.125 7.74476 13.125 7.12344C13.125 6.50212 12.6213 5.99844 12 5.99844C11.3787 5.99844 10.875 6.50212 10.875 7.12344C10.875 7.74476 11.3787 8.24844 12 8.24844Z" fill="currentColor"/>
<path d="M7.80002 10.7234C8.42134 10.7234 8.92502 10.2198 8.92502 9.59844C8.92502 8.97712 8.42134 8.47344 7.80002 8.47344C7.1787 8.47344 6.67502 8.97712 6.67502 9.59844C6.67502 10.2198 7.1787 10.7234 7.80002 10.7234Z" fill="currentColor"/>
<path d="M7.80002 15.5234C8.42134 15.5234 8.92502 15.0198 8.92502 14.3984C8.92502 13.7771 8.42134 13.2734 7.80002 13.2734C7.1787 13.2734 6.67502 13.7771 6.67502 14.3984C6.67502 15.0198 7.1787 15.5234 7.80002 15.5234Z" fill="currentColor"/>
<path d="M16.2 10.7234C16.8213 10.7234 17.325 10.2198 17.325 9.59844C17.325 8.97712 16.8213 8.47344 16.2 8.47344C15.5787 8.47344 15.075 8.97712 15.075 9.59844C15.075 10.2198 15.5787 10.7234 16.2 10.7234Z" fill="currentColor"/>
</svg>
