<svg width="32" height="32" viewBox="0 0 32 32" fill="none" xmlns="http://www.w3.org/2000/svg">
<path fill-rule="evenodd" clip-rule="evenodd" d="M20 4H15C14.4477 4 14 4.44772 14 5V11H21V5C21 4.44772 20.5523 4 20 4ZM14 19V13H21V19H14ZM14 21V27C14 27.5523 14.4477 28 15 28H20C20.5523 28 21 27.5523 21 27V21H14ZM15 2C13.3431 2 12 3.34315 12 5V27C12 28.6569 13.3431 30 15 30H20C21.6569 30 23 28.6569 23 27V5C23 3.34315 21.6569 2 20 2H15Z" fill="currentColor" fill-opacity="0.9"/>
<path fill-rule="evenodd" clip-rule="evenodd" d="M24 29C24 29.5523 24.4477 30 25 30H27C28.6569 30 30 28.6569 30 27V5C30 3.34315 28.6569 2 27 2H25C24.4477 2 24 2.44772 24 3C24 3.55228 24.4477 4 25 4H27C27.5523 4 28 4.44772 28 5V27C28 27.5523 27.5523 28 27 28H25C24.4477 28 24 28.4477 24 29Z" fill="currentColor" fill-opacity="0.9"/>
<path fill-rule="evenodd" clip-rule="evenodd" d="M25 12C25 11.4477 25.4477 11 26 11H28V13H26C25.4477 13 25 12.5523 25 12Z" fill="currentColor" fill-opacity="0.9"/>
<path fill-rule="evenodd" clip-rule="evenodd" d="M25 20C25 19.4477 25.4477 19 26 19H28V21H26C25.4477 21 25 20.5523 25 20Z" fill="currentColor" fill-opacity="0.9"/>
<path d="M9.70711 16.7071C9.89464 16.5196 10 16.2652 10 16C10 15.7348 9.89464 15.4804 9.70711 15.2929C9.51957 15.1054 9.26522 15 9 15H7V13C7 12.7348 6.89464 12.4804 6.70711 12.2929C6.51957 12.1054 6.26522 12 6 12C5.73478 12 5.48043 12.1054 5.29289 12.2929C5.10536 12.4804 5 12.7348 5 13V15H3C2.73478 15 2.48043 15.1054 2.29289 15.2929C2.10536 15.4804 2 15.7348 2 16C2 16.2652 2.10536 16.5196 2.29289 16.7071C2.48043 16.8946 2.73478 17 3 17H5V19C5 19.2652 5.10536 19.5196 5.29289 19.7071C5.48043 19.8946 5.73478 20 6 20C6.26522 20 6.51957 19.8946 6.70711 19.7071C6.89464 19.5196 7 19.2652 7 19V17H9C9.26522 17 9.51957 16.8946 9.70711 16.7071Z" fill="currentColor" fill-opacity="0.9"/>
</svg>
