<svg width="32" height="32" viewBox="0 0 32 32" fill="none" xmlns="http://www.w3.org/2000/svg">
<path fill-rule="evenodd" clip-rule="evenodd" d="M12 4H17C17.5523 4 18 4.44772 18 5V11H11V5C11 4.44772 11.4477 4 12 4ZM18 19V13H11V19H18ZM18 21V27C18 27.5523 17.5523 28 17 28H12C11.4477 28 11 27.5523 11 27V21H18ZM17 2C18.6569 2 20 3.34315 20 5V27C20 28.6569 18.6569 30 17 30H12C10.3431 30 9 28.6569 9 27V5C9 3.34315 10.3431 2 12 2H17Z" fill="currentColor" fill-opacity="0.9"/>
<path fill-rule="evenodd" clip-rule="evenodd" d="M8 29C8 29.5523 7.55228 30 7 30H5C3.34315 30 2 28.6569 2 27V5C2 3.34315 3.34315 2 5 2H7C7.55228 2 8 2.44772 8 3C8 3.55228 7.55228 4 7 4H5C4.44772 4 4 4.44772 4 5V27C4 27.5523 4.44772 28 5 28H7C7.55228 28 8 28.4477 8 29Z" fill="currentColor" fill-opacity="0.9"/>
<path fill-rule="evenodd" clip-rule="evenodd" d="M7 12C7 11.4477 6.55229 11 6 11H4V13H6C6.55229 13 7 12.5523 7 12Z" fill="currentColor" fill-opacity="0.9"/>
<path fill-rule="evenodd" clip-rule="evenodd" d="M7 20C7 19.4477 6.55229 19 6 19H4V21H6C6.55229 21 7 20.5523 7 20Z" fill="currentColor" fill-opacity="0.9"/>
<path d="M22.2929 16.7071C22.1054 16.5196 22 16.2652 22 16C22 15.7348 22.1054 15.4804 22.2929 15.2929C22.4804 15.1054 22.7348 15 23 15H25V13C25 12.7348 25.1054 12.4804 25.2929 12.2929C25.4804 12.1054 25.7348 12 26 12C26.2652 12 26.5196 12.1054 26.7071 12.2929C26.8946 12.4804 27 12.7348 27 13V15H29C29.2652 15 29.5196 15.1054 29.7071 15.2929C29.8946 15.4804 30 15.7348 30 16C30 16.2652 29.8946 16.5196 29.7071 16.7071C29.5196 16.8946 29.2652 17 29 17H27V19C27 19.2652 26.8946 19.5196 26.7071 19.7071C26.5196 19.8946 26.2652 20 26 20C25.7348 20 25.4804 19.8946 25.2929 19.7071C25.1054 19.5196 25 19.2652 25 19V17H23C22.7348 17 22.4804 16.8946 22.2929 16.7071Z" fill="currentColor" fill-opacity="0.9"/>
</svg>
