<svg width="32" height="32" viewBox="0 0 32 32" fill="none" xmlns="http://www.w3.org/2000/svg">
<g id="AddConstants">
<rect id="Accent" opacity="0.2" x="8" width="1e-05" height="0.0001" fill="currentColor"/>
<g id="Vector">
<path fill-rule="evenodd" clip-rule="evenodd" d="M27.7071 23.2929C28.0976 23.6834 28.0976 24.3166 27.7071 24.7071L24.7071 27.7071C24.3166 28.0976 23.6834 28.0976 23.2929 27.7071L20.2929 24.7071C19.9024 24.3166 19.9024 23.6834 20.2929 23.2929C20.6834 22.9024 21.3166 22.9024 21.7071 23.2929L23 24.5858V17C23 16.4477 23.4477 16 24 16C24.5523 16 25 16.4477 25 17V24.5858L26.2929 23.2929C26.6834 22.9024 27.3166 22.9024 27.7071 23.2929Z" fill="currentColor"/>
<path fill-rule="evenodd" clip-rule="evenodd" d="M13 4H7C6.44772 4 6 4.44772 6 5V27C6 27.5523 6.44772 28 7 28H13C13.5523 28 14 27.5523 14 27V5C14 4.44772 13.5523 4 13 4ZM7 2C5.34315 2 4 3.34315 4 5V27C4 28.6569 5.34315 30 7 30H13C14.6569 30 16 28.6569 16 27V5C16 3.34315 14.6569 2 13 2H7Z" fill="currentColor"/>
<path fill-rule="evenodd" clip-rule="evenodd" d="M14 13H6V11H14V13Z" fill="currentColor"/>
<path fill-rule="evenodd" clip-rule="evenodd" d="M14 21H6V19H14V21Z" fill="currentColor"/>
<path d="M22.9112 6.22535C23.4809 5.99748 24.1081 5.94066 24.7119 6.06293C25.3157 6.18518 25.8657 6.48026 26.2931 6.90736C26.6838 7.29774 27.317 7.29752 27.7074 6.90686C28.0977 6.5162 28.0975 5.88303 27.7069 5.49265C26.9986 4.78492 26.0938 4.30215 25.1088 4.10271C24.124 3.90329 23.1006 3.99551 22.1684 4.3684C21.236 4.74135 20.4348 5.3792 19.8692 6.2038C19.3035 7.02867 19 8.00214 19 9C19 9.99786 19.3035 10.9713 19.8692 11.7962C20.4348 12.6208 21.236 13.2586 22.1684 13.6316C23.1006 14.0045 24.124 14.0967 25.1088 13.8973C26.0938 13.6978 26.9986 13.2151 27.7069 12.5074C28.0975 12.117 28.0977 11.4838 27.7074 11.0931C27.317 10.7025 26.6838 10.7023 26.2931 11.0926C25.8657 11.5197 25.3157 11.8148 24.7119 11.9371C24.1081 12.0593 23.4809 12.0025 22.9112 11.7746C22.3417 11.5468 21.8577 11.1594 21.5186 10.665C21.1796 10.1708 21 9.59121 21 9C21 8.40879 21.1796 7.8292 21.5186 7.33502C21.8577 6.84058 22.3417 6.45316 22.9112 6.22535Z" fill="currentColor"/>
</g>
</g>
</svg>
