<svg width="32" height="32" viewBox="0 0 32 32" fill="none" xmlns="http://www.w3.org/2000/svg">
<g id="CombineColumns">
<rect id="Accent" opacity="0.2" x="8" width="1e-05" height="0.0001" fill="currentColor"/>
<g id="Vector">
<path fill-rule="evenodd" clip-rule="evenodd" d="M4.29289 12.2929C4.68342 11.9024 5.31658 11.9024 5.70711 12.2929L8.70711 15.2929C9.09763 15.6834 9.09763 16.3166 8.70711 16.7071L5.70711 19.7071C5.31658 20.0976 4.68342 20.0976 4.29289 19.7071C3.90237 19.3166 3.90237 18.6834 4.29289 18.2929L5.58579 17H3C2.44772 17 2 16.5523 2 16C2 15.4477 2.44772 15 3 15H5.58579L4.29289 13.7071C3.90237 13.3166 3.90237 12.6834 4.29289 12.2929Z" fill="currentColor"/>
<path fill-rule="evenodd" clip-rule="evenodd" d="M13 2C11.3431 2 10 3.34315 10 5V27C10 28.6569 11.3431 30 13 30H19C20.6569 30 22 28.6569 22 27V5C22 3.34315 20.6569 2 19 2H13ZM19 4H13C12.4477 4 12 4.44772 12 5V11H20V5C20 4.44772 19.5523 4 19 4ZM12 19V13H20V19H12ZM12 21V27C12 27.5523 12.4477 28 13 28H19C19.5523 28 20 27.5523 20 27V21H12Z" fill="currentColor"/>
<path fill-rule="evenodd" clip-rule="evenodd" d="M27.7071 12.2929C27.3166 11.9024 26.6834 11.9024 26.2929 12.2929L23.2929 15.2929C22.9024 15.6834 22.9024 16.3166 23.2929 16.7071L26.2929 19.7071C26.6834 20.0976 27.3166 20.0976 27.7071 19.7071C28.0976 19.3166 28.0976 18.6834 27.7071 18.2929L26.4142 17H29C29.5523 17 30 16.5523 30 16C30 15.4477 29.5523 15 29 15H26.4142L27.7071 13.7071C28.0976 13.3166 28.0976 12.6834 27.7071 12.2929Z" fill="currentColor"/>
</g>
</g>
</svg>
