<svg width="32" height="32" viewBox="0 0 32 32" fill="none" xmlns="http://www.w3.org/2000/svg">
<g id="SelectColumns">
<rect id="Accent" opacity="0.2" x="8" width="1e-05" height="0.0001" fill="currentColor"/>
<g id="Vector">
<path fill-rule="evenodd" clip-rule="evenodd" d="M25.1523 7.17928C24.5526 7.89891 23.4474 7.89891 22.8477 7.17928L20.7318 4.64021C20.3782 4.21593 20.4355 3.58537 20.8598 3.2318C21.2841 2.87824 21.9147 2.93556 22.2682 3.35984L24 5.43798L25.7318 3.35984C26.0853 2.93556 26.7159 2.87824 27.1402 3.2318C27.5645 3.58537 27.6218 4.21593 27.2682 4.64021L25.1523 7.17928Z" fill="currentColor"/>
<path fill-rule="evenodd" clip-rule="evenodd" d="M5 6.00002C3.89543 6.00002 3 6.89546 3 8.00003V26C3 27.1046 3.89543 28 5 28H27C28.1046 28 29 27.1046 29 26V8.00002C29 7.44774 28.5523 7.00002 28 7.00002C27.4477 7.00002 27 7.44774 27 8.00002V10H5V8.00003L19 8.00002C19.5523 8.00002 20 7.55231 20 7.00002C20 6.44774 19.5523 6.00002 19 6.00002H5ZM27 12V14H21V12H27ZM5 26V12H11V26H5ZM19 26H13V12H19V26ZM27 26H21V24H27V26ZM27 20V22H21V20H27ZM21 18H27V16H21V18Z" fill="currentColor"/>
</g>
</g>
</svg>
