<svg width="24" height="24" viewBox="0 0 24 24" fill="none" xmlns="http://www.w3.org/2000/svg">
<path fill-rule="evenodd" clip-rule="evenodd" d="M12 20L14 18V20C14 21.3333 13.3333 22 12 22H6C4.66667 22 4 21.3333 4 20V4C4 2.66667 4.66667 2 6 2H12C13.3333 2 14 2.66667 14 4V10L12 12V10H6V14H10L8 16H6V20H12ZM6 4V8H12V4H6Z" fill="black"/>
<path fill-rule="evenodd" clip-rule="evenodd" d="M10 15.9597V18H12.0541L18 12.0403L15.9459 10L10 15.9597Z" fill="black"/>
<path fill-rule="evenodd" clip-rule="evenodd" d="M19.8448 10.0339C20.0517 9.83051 20.0517 9.52542 19.8448 9.32203L18.6552 8.15254C18.4483 7.94915 18.1379 7.94915 17.931 8.15254L17 9.0678L18.9655 11L19.8448 10.0339Z" fill="black"/>
</svg>
