<svg version="1.1" xmlns="http://www.w3.org/2000/svg" xmlns:xlink="http://www.w3.org/1999/xlink" width="24" height="24" viewBox="0,0,256,256"><g fill="#ffffff" fill-rule="evenodd" stroke="none" stroke-width="1" stroke-linecap="butt" stroke-linejoin="miter" stroke-miterlimit="10" stroke-dasharray="" stroke-dashoffset="0" font-family="none" font-weight="none" font-size="none" text-anchor="none" style="mix-blend-mode: normal"><g transform="translate(0.00013,0) scale(10.66667,10.66667)"><path d="M12,20l2,-2v2c0,1.3333 -0.6667,2 -2,2h-6c-1.33333,0 -2,-0.6667 -2,-2v-16c0,-1.33333 0.66667,-2 2,-2h6c1.3333,0 2,0.66667 2,2v6l-2,2v-2h-6v4h4l-2,2h-2v4zM6,4v4h6v-4z"></path><path d="M10,15.9597v2.0403h2.0541l5.9459,-5.9597l-2.0541,-2.0403z"></path><path d="M19.8448,10.0339c0.2069,-0.20339 0.2069,-0.50848 0,-0.71187l-1.1896,-1.16949c-0.2069,-0.20339 -0.5173,-0.20339 -0.7242,0l-0.931,0.91526l1.9655,1.9322z"></path></g></g></svg>