<svg width="32" height="32" viewBox="0 0 32 32" fill="none" xmlns="http://www.w3.org/2000/svg">
<g id="TableEdit">
<rect id="Accent" opacity="0.2" x="8" width="1e-05" height="0.0001" fill="currentColor"/>
<g id="Vector">
<path fill-rule="evenodd" clip-rule="evenodd" d="M3 6C3 5.44772 3.44772 5 4 5H25C25.5523 5 26 5.44772 26 6V10C26 10.5523 25.5523 11 25 11C24.4477 11 24 10.5523 24 10V7H5V11H22.5C23.0523 11 23.5 11.4477 23.5 12C23.5 12.5523 23.0523 13 22.5 13H12V17H16.5C17.0523 17 17.5 17.4477 17.5 18C17.5 18.5523 17.0523 19 16.5 19H12V24C12 24.5523 11.5523 25 11 25H4.95833C4.42489 25 3.92236 24.7785 3.5587 24.399C3.19643 24.021 3 23.517 3 23V6ZM10 23V19H5V23H10ZM10 17V13H5V17H10Z" fill="currentColor"/>
<path fill-rule="evenodd" clip-rule="evenodd" d="M25.2929 13.2929L14.2929 24.2929C14.1054 24.4804 14 24.7348 14 25V28C14 28.5523 14.4477 29 15 29H18C18.2652 29 18.5196 28.8946 18.7071 28.7071L29.7071 17.7071C30.0976 17.3166 30.0976 16.6834 29.7071 16.2929L26.7071 13.2929C26.3166 12.9024 25.6834 12.9024 25.2929 13.2929ZM26 18.5858L27.5858 17L26 15.4142L24.4142 17L26 18.5858ZM23 18.4142L16 25.4142V27H17.5858L24.5858 20L23 18.4142Z" fill="currentColor"/>
</g>
</g>
</svg>
