<svg width="32" height="32" viewBox="0 0 32 32" fill="none" xmlns="http://www.w3.org/2000/svg">
<g id="SplitColumns">
<rect id="Accent" opacity="0.2" x="8" width="1e-05" height="0.0001" fill="currentColor"/>
<g id="Vector">
<path fill-rule="evenodd" clip-rule="evenodd" d="M25.2929 12.2929C25.6834 11.9024 26.3166 11.9024 26.7071 12.2929L29.7071 15.2929C30.0976 15.6834 30.0976 16.3166 29.7071 16.7071L26.7071 19.7071C26.3166 20.0976 25.6834 20.0976 25.2929 19.7071C24.9024 19.3166 24.9024 18.6834 25.2929 18.2929L26.5858 17H24C23.4477 17 23 16.5523 23 16C23 15.4477 23.4477 15 24 15H26.5858L25.2929 13.7071C24.9024 13.3166 24.9024 12.6834 25.2929 12.2929Z" fill="currentColor"/>
<path fill-rule="evenodd" clip-rule="evenodd" d="M6.70711 12.2929C6.31658 11.9024 5.68342 11.9024 5.29289 12.2929L2.29289 15.2929C1.90237 15.6834 1.90237 16.3166 2.29289 16.7071L5.29289 19.7071C5.68342 20.0976 6.31658 20.0976 6.70711 19.7071C7.09763 19.3166 7.09763 18.6834 6.70711 18.2929L5.41421 17H8C8.55228 17 9 16.5523 9 16C9 15.4477 8.55228 15 8 15H5.41421L6.70711 13.7071C7.09763 13.3166 7.09763 12.6834 6.70711 12.2929Z" fill="currentColor"/>
<path fill-rule="evenodd" clip-rule="evenodd" d="M13 2C11.3431 2 10 3.34315 10 5V27C10 28.6569 11.3431 30 13 30H19C20.6569 30 22 28.6569 22 27V5C22 3.34315 20.6569 2 19 2H13ZM19 4H13C12.4477 4 12 4.44772 12 5V11H20V5C20 4.44772 19.5523 4 19 4ZM12 19V13H20V19H12ZM12 21V27C12 27.5523 12.4477 28 13 28H19C19.5523 28 20 27.5523 20 27V21H12Z" fill="currentColor"/>
</g>
</g>
</svg>
