<svg width="24" height="24" viewBox="0 0 24 24" fill="none" xmlns="http://www.w3.org/2000/svg">
<path d="M12 3.75C7.44365 3.75 3.75 7.44365 3.75 12C3.75 16.5563 7.44365 20.25 12 20.25C16.5563 20.25 20.25 16.5563 20.25 12C20.25 7.44365 16.5563 3.75 12 3.75ZM2.25 12C2.25 6.61522 6.61522 2.25 12 2.25C17.3848 2.25 21.75 6.61522 21.75 12C21.75 17.3848 17.3848 21.75 12 21.75C6.61522 21.75 2.25 17.3848 2.25 12ZM16.7579 7.23166C16.979 7.45225 17.0402 7.7867 16.9116 8.07128L14.2772 13.9025C14.1999 14.0736 14.0613 14.2095 13.8886 14.2833L8.31988 16.6646C8.0381 16.7851 7.71137 16.722 7.49467 16.5053C7.27797 16.2886 7.21491 15.9619 7.3354 15.6801L9.71665 10.1114C9.79028 9.93919 9.92565 9.80079 10.0961 9.72336L15.918 7.07961C16.2023 6.9505 16.5369 7.01106 16.7579 7.23166ZM10.9814 10.9688L9.45006 14.5499L13.0305 13.0189L14.7246 9.26899L10.9814 10.9688Z" fill="currentColor"/>
</svg>
