<svg width="24" height="24" viewBox="0 0 24 24" fill="none" xmlns="http://www.w3.org/2000/svg">
<path d="M8.81802 2.81802C8.75881 2.87723 8.70142 2.93792 8.64589 3H5.25C4.85217 3 4.47064 3.15804 4.18934 3.43934C3.90804 3.72064 3.75 4.10217 3.75 4.5V20.25C3.75 20.6478 3.90804 21.0294 4.18934 21.3107C4.47065 21.592 4.85218 21.75 5.25 21.75H10.5C10.9142 21.75 11.25 21.4142 11.25 21C11.25 20.5858 10.9142 20.25 10.5 20.25H5.25L5.25 4.5H7.75736C7.58859 4.97731 7.5 5.48409 7.5 6V6.75C7.5 7.16421 7.83579 7.5 8.25 7.5H15.75C16.1642 7.5 16.5 7.16421 16.5 6.75V6C16.5 5.48409 16.4114 4.97731 16.2426 4.5H18.75V11.625C18.75 12.0392 19.0858 12.375 19.5 12.375C19.9142 12.375 20.25 12.0392 20.25 11.625V4.5C20.25 4.10218 20.092 3.72065 19.8107 3.43934C19.5294 3.15804 19.1478 3 18.75 3H15.3541C15.2986 2.93792 15.2412 2.87723 15.182 2.81802C14.3381 1.97411 13.1935 1.5 12 1.5C10.8065 1.5 9.66193 1.97411 8.81802 2.81802ZM12 3C12.7956 3 13.5587 3.31607 14.1213 3.87868C14.2202 3.97758 14.3115 4.08267 14.3948 4.19305L14.4046 4.20617C14.7889 4.72126 15 5.34975 15 6H9C9 5.34975 9.21111 4.72127 9.59537 4.20618L9.60522 4.19305C9.6885 4.08267 9.77978 3.97758 9.87868 3.87868C10.4413 3.31607 11.2044 3 12 3Z" fill="currentColor"/>
<path d="M10.5 10.875C10.5 10.4608 10.8358 10.125 11.25 10.125L15.75 10.125C16.1642 10.125 16.5 10.4608 16.5 10.875C16.5 11.2892 16.1642 11.625 15.75 11.625L11.25 11.625C10.8358 11.625 10.5 11.2892 10.5 10.875Z" fill="currentColor"/>
<path d="M11.25 15.375H12C12.4142 15.375 12.75 15.0392 12.75 14.625C12.75 14.2108 12.4142 13.875 12 13.875H11.25C10.8358 13.875 10.5 14.2108 10.5 14.625C10.5 15.0392 10.8358 15.375 11.25 15.375Z" fill="currentColor"/>
<path d="M8.625 12C9.24632 12 9.75 11.4963 9.75 10.875C9.75 10.2537 9.24632 9.75 8.625 9.75C8.00368 9.75 7.5 10.2537 7.5 10.875C7.5 11.4963 8.00368 12 8.625 12Z" fill="currentColor"/>
<path d="M9.75 14.625C9.75 15.2463 9.24632 15.75 8.625 15.75C8.00368 15.75 7.5 15.2463 7.5 14.625C7.5 14.0037 8.00368 13.5 8.625 13.5C9.24632 13.5 9.75 14.0037 9.75 14.625Z" fill="currentColor"/>
<path d="M19.6827 17.4986C19.9597 17.8066 19.9345 18.2808 19.6265 18.5577L17.1241 20.8077C16.8386 21.0644 16.4054 21.0641 16.1203 20.807L14.8727 19.682C14.5651 19.4046 14.5406 18.9304 14.818 18.6227C15.0954 18.3151 15.5696 18.2906 15.8773 18.568L16.6233 19.2408L18.6235 17.4423C18.9316 17.1653 19.4058 17.1905 19.6827 17.4986Z" fill="currentColor"/>
<path d="M12 18.75C12 15.8505 14.3505 13.5 17.25 13.5C20.1495 13.5 22.5 15.8505 22.5 18.75C22.5 21.6495 20.1495 24 17.25 24C14.3505 24 12 21.6495 12 18.75ZM17.25 15C15.1789 15 13.5 16.6789 13.5 18.75C13.5 20.8211 15.1789 22.5 17.25 22.5C19.3211 22.5 21 20.8211 21 18.75C21 16.6789 19.3211 15 17.25 15Z" fill="currentColor"/>
</svg>
