<svg width="24" height="24" viewBox="0 0 24 24" fill="none" xmlns="http://www.w3.org/2000/svg">
<path d="M17.7803 2.78033C18.0732 2.48744 18.0732 2.01256 17.7803 1.71967C17.4874 1.42678 17.0126 1.42678 16.7197 1.71967L13.5 4.93934L11.0303 2.46967C10.7374 2.17678 10.2626 2.17678 9.96967 2.46967C9.67678 2.76256 9.67678 3.23744 9.96967 3.53033L10.5643 4.12498L5.71394 8.97536C5.36528 9.3228 5.08862 9.73563 4.89982 10.1902C4.71094 10.645 4.61371 11.1326 4.61371 11.625C4.61371 12.1174 4.71094 12.605 4.89982 13.0598C5.08861 13.5143 5.36577 13.9277 5.7144 14.2751L7.18932 15.75L2.46967 20.4697C2.17678 20.7626 2.17678 21.2374 2.46967 21.5303C2.76256 21.8232 3.23744 21.8232 3.53033 21.5303L8.24998 16.8107L9.72535 18.286C10.0728 18.6347 10.4856 18.9113 10.9402 19.1001C11.3949 19.289 11.8825 19.3862 12.375 19.3862C12.8674 19.3862 13.355 19.289 13.8098 19.1001C14.2643 18.9114 14.6771 18.6347 15.0245 18.2862L15.0251 18.2856L19.875 13.4356L20.4697 14.0303C20.7626 14.3232 21.2374 14.3232 21.5303 14.0303C21.8232 13.7374 21.8232 13.2626 21.5303 12.9697L19.0607 10.5L22.2803 7.28033C22.5732 6.98744 22.5732 6.51256 22.2803 6.21967C21.9874 5.92678 21.5126 5.92678 21.2197 6.21967L18 9.43934L14.5607 6L17.7803 2.78033ZM11.625 5.18564L18.8143 12.375L13.9634 17.2259L13.9624 17.2269C13.7542 17.4359 13.5068 17.6017 13.2344 17.7149C12.962 17.828 12.6699 17.8862 12.375 17.8862C12.08 17.8862 11.7879 17.828 11.5155 17.7149C11.2431 17.6017 10.9957 17.4359 10.7876 17.2269L8.78501 15.2244L8.78033 15.2197L8.77561 15.215L6.77404 13.2134L6.77302 13.2124C6.56405 13.0042 6.39823 12.7568 6.28509 12.4844C6.17195 12.212 6.11371 11.92 6.11371 11.625C6.11371 11.33 6.17195 11.038 6.28509 10.7656C6.39823 10.4932 6.56405 10.2458 6.77302 10.0376L11.625 5.18564Z" fill="currentColor"/>
</svg>
