<svg width="24" height="24" viewBox="0 0 24 24" fill="none" xmlns="http://www.w3.org/2000/svg">
    <path fill-rule="evenodd" clip-rule="evenodd"
        d="M12.001 5.5C12.001 3 14.001 1 16.501 1C19.001 1 21.001 3 21.001 5.5C21.001 6.4 20.701 7.2 20.301 7.9L23.401 11L22.001 12.4L18.901 9.3C18.201 9.7 17.401 10 16.501 10C14.001 10 12.001 8 12.001 5.5ZM3.00098 5C3.00098 3.89543 3.89641 3 5.00098 3H10.501C10.261 3.65 10.091 4.3 10.031 5H5.00098V19H19.001V12L21.001 14V19C21.001 20.1046 20.1055 21 19.001 21H5.00098C3.89641 21 3.00098 20.1046 3.00098 19V5ZM16.501 3C17.901 3 19.001 4.1 19.001 5.5C19.001 6.9 17.901 8 16.501 8C15.101 8 14.001 6.9 14.001 5.5C14.001 4.1 15.101 3 16.501 3ZM9.00098 7H7.00098V17H9.00098V7ZM13.001 11V17H11.001V11H13.001ZM17.001 14H15.001V17H17.001V14Z"
        fill="currentColor" fill-opacity="1" />
</svg>
    