<svg width="24" height="24" viewBox="0 0 24 24" fill="none" xmlns="http://www.w3.org/2000/svg">
<path d="M9.75 17.25C9.12868 17.25 8.625 16.7463 8.625 16.125C8.625 15.5037 9.12868 15 9.75 15C10.3713 15 10.875 15.5037 10.875 16.125C10.875 16.7463 10.3713 17.25 9.75 17.25ZM7.2337 16.875C7.55641 17.9593 8.56087 18.75 9.75 18.75C10.9391 18.75 11.9436 17.9593 12.2663 16.875L20.25 16.875C20.6642 16.875 21 16.5392 21 16.125C21 15.7108 20.6642 15.375 20.25 15.375H12.2663C11.9436 14.2907 10.9391 13.5 9.75 13.5C8.56087 13.5 7.55641 14.2907 7.2337 15.375H3.75C3.33579 15.375 3 15.7108 3 16.125C3 16.5392 3.33579 16.875 3.75 16.875H7.2337ZM15.75 9C15.1287 9 14.625 8.49632 14.625 7.875C14.625 7.25368 15.1287 6.75 15.75 6.75C16.3713 6.75 16.875 7.25368 16.875 7.875C16.875 8.49632 16.3713 9 15.75 9ZM13.2337 8.625C13.5564 9.70931 14.5609 10.5 15.75 10.5C16.9391 10.5 17.9436 9.70931 18.2663 8.625H20.25C20.6642 8.625 21 8.28921 21 7.875C21 7.46079 20.6642 7.125 20.25 7.125H18.2663C17.9436 6.04069 16.9391 5.25 15.75 5.25C14.5609 5.25 13.5564 6.04069 13.2337 7.125L3.75 7.125C3.33579 7.125 3 7.46079 3 7.875C3 8.28921 3.33579 8.625 3.75 8.625L13.2337 8.625Z" fill="currentColor"/>
</svg>
