<svg width="32" height="32" viewBox="0 0 32 32" fill="none" xmlns="http://www.w3.org/2000/svg">
<path fill-rule="evenodd" clip-rule="evenodd" d="M7 3C6.46957 3 5.96086 3.21071 5.58579 3.58579C5.21071 3.96086 5 4.46957 5 5V16C5 16.5523 5.44772 17 6 17C6.55228 17 7 16.5523 7 16L7 5L18 5V12C18 12.5523 18.4477 13 19 13H25V16C25 16.5523 25.4477 17 26 17C26.5523 17 27 16.5523 27 16V11C27 10.7348 26.8946 10.4804 26.7071 10.2929L19.7071 3.29289C19.5196 3.10536 19.2652 3 19 3H7ZM24.5858 11L20 6.41421V11H24.5858Z" fill="currentColor"/>
<path d="M8 26.0001C6.8975 26.0001 6 24.8751 6 23.5001C6 22.1251 6.8975 21.0001 8 21.0001C8.24131 21.0055 8.47899 21.0599 8.69861 21.1601C8.91822 21.2602 9.11518 21.404 9.2775 21.5826C9.46174 21.7702 9.71248 21.8778 9.97543 21.8819C10.2384 21.886 10.4924 21.7864 10.6824 21.6046C10.8724 21.4228 10.9831 21.1734 10.9907 20.9106C10.9982 20.6477 10.9018 20.3925 10.7225 20.2001C10.3743 19.8253 9.95323 19.5255 9.48508 19.3192C9.01694 19.1128 8.51159 19.0042 8 19.0001C5.79375 19.0001 4 21.0188 4 23.5001C4 25.9813 5.79375 28.0001 8 28.0001C8.51159 27.996 9.01694 27.8874 9.48508 27.681C9.95323 27.4747 10.3743 27.1749 10.7225 26.8001C10.9018 26.6077 10.9982 26.3525 10.9907 26.0896C10.9831 25.8268 10.8724 25.5774 10.6824 25.3956C10.4924 25.2138 10.2384 25.1142 9.97543 25.1183C9.71248 25.1224 9.46174 25.2299 9.2775 25.4176C9.11518 25.5962 8.91822 25.74 8.69861 25.8401C8.47899 25.9403 8.24131 25.9947 8 26.0001Z" fill="currentColor"/>
<path d="M15.9311 22.4084L15.95 22.4138C17.1862 22.7713 19.25 23.3751 18.9762 25.5388C18.9373 25.9213 18.814 26.2904 18.6154 26.6196C18.4168 26.9487 18.1477 27.2298 17.8275 27.4426C17.1787 27.8751 16.3687 28.0001 15.6412 28.0001C15.0004 27.9964 14.3625 27.9125 13.7425 27.7501C13.4866 27.6787 13.2695 27.5085 13.139 27.277C13.0086 27.0455 12.9754 26.7717 13.0469 26.5157C13.1183 26.2598 13.2885 26.0427 13.52 25.9123C13.7515 25.7818 14.0253 25.7487 14.2812 25.8201C14.8287 25.9701 16.15 26.1576 16.725 25.7751C16.835 25.7013 16.9538 25.5851 16.9925 25.2838C17.035 24.9501 16.9025 24.7713 15.395 24.3351C14.2263 23.9976 12.27 23.4313 12.52 21.4463C12.5592 21.0715 12.6802 20.7098 12.8746 20.3868C13.069 20.0639 13.332 19.7876 13.645 19.5776C15.125 18.5801 17.485 19.1638 17.75 19.2326C18.0066 19.3014 18.2254 19.4693 18.3582 19.6994C18.491 19.9295 18.5269 20.2029 18.4581 20.4595C18.3893 20.7161 18.2214 20.9348 17.9913 21.0676C17.7613 21.2004 17.4878 21.2364 17.2313 21.1676C16.6713 21.0213 15.3287 20.8476 14.7537 21.2376C14.6786 21.2887 14.6167 21.3569 14.5732 21.4367C14.5298 21.5165 14.5059 21.6055 14.5037 21.6963C14.49 21.8088 14.4875 21.8326 14.6438 21.9338C14.9289 22.1178 15.437 22.2651 15.9311 22.4084Z" fill="currentColor"/>
<path d="M25.9501 19.0015C26.0814 18.9951 26.2126 19.0146 26.3363 19.0588C26.5858 19.1481 26.7897 19.3328 26.9031 19.5724C27.0166 19.8119 27.0303 20.0867 26.9412 20.3363L24.4412 27.3363C24.3719 27.5307 24.2442 27.6988 24.0756 27.8177C23.907 27.9366 23.7057 28.0004 23.4994 28.0004C23.2931 28.0004 23.0918 27.9366 22.9232 27.8177C22.7545 27.6988 22.6268 27.5307 22.5575 27.3363L20.0575 20.3363C19.9683 20.0865 19.982 19.8116 20.0956 19.5719C20.2092 19.3322 20.4133 19.1474 20.6631 19.0582C20.9129 18.969 21.1879 18.9827 21.4276 19.0963C21.6673 19.2099 21.8521 19.414 21.9412 19.6638L23.5 24.0263L25.0575 19.6638C25.1017 19.5401 25.1699 19.4263 25.2581 19.329C25.3462 19.2316 25.4528 19.1526 25.5715 19.0964C25.6903 19.0402 25.8189 19.008 25.9501 19.0015Z" fill="currentColor"/>
</svg>
