<svg width="32" height="32" viewBox="0 0 32 32" fill="none" xmlns="http://www.w3.org/2000/svg">
<path fill-rule="evenodd" clip-rule="evenodd" d="M15.0182 1.90561C15.317 1.7344 15.6555 1.64429 16 1.64429C16.3445 1.64429 16.683 1.7344 16.9818 1.90561L27.9813 8.09284C28.2479 8.24424 28.4758 8.45422 28.6483 8.7062C28.6788 8.74507 28.7068 8.78669 28.732 8.83097C28.751 8.86441 28.7679 8.89849 28.7826 8.93305C28.9236 9.21127 28.9983 9.51901 29 9.83204L29 9.83741L29 22.1678C28.9981 22.5216 28.9029 22.8688 28.7241 23.1741C28.5452 23.4794 28.289 23.7322 27.9813 23.907L27.9778 23.909L16.9818 30.0942C16.6829 30.2654 16.3445 30.3555 16 30.3555C15.6555 30.3555 15.3171 30.2654 15.0182 30.0942L4.02224 23.909L4.01869 23.907C3.71097 23.7322 3.45478 23.4794 3.27593 23.1741C3.09709 22.8688 3.00191 22.5216 3.00001 22.1678L3 22.1624V9.83204C3.00168 9.51895 3.07639 9.21116 3.21745 8.93289C3.23116 8.90083 3.24668 8.86917 3.26403 8.83803C3.2902 8.79108 3.3196 8.74705 3.35179 8.70608C3.52424 8.45415 3.75213 8.24421 4.01869 8.09284L4.02223 8.09083L15.0182 1.90561ZM5 10.9505V22.1576C5.0001 22.1596 5.00068 22.1616 5.0017 22.1633C5.00274 22.1651 5.00419 22.1666 5.00594 22.1676C5.00581 22.1676 5.00606 22.1677 5.00594 22.1676L15.0131 27.7966L15.1075 16.5846L5 10.9505ZM17.1076 16.5847L17.0132 27.7818L26.9937 22.1678C26.9936 22.1679 26.9938 22.1678 26.9937 22.1678C26.9954 22.1668 26.9973 22.1651 26.9983 22.1633C26.9993 22.1616 26.9999 22.1596 27 22.1576V10.965L17.1076 16.5847ZM25.9645 9.25306L16 3.64804L6.04894 9.24551L16.1078 14.8525L25.9645 9.25306Z" fill="currentColor"/>
</svg>
