<svg width="32" height="32" viewBox="0 0 32 32" fill="none" xmlns="http://www.w3.org/2000/svg">
<path fill-rule="evenodd" clip-rule="evenodd" d="M15.0182 1.90567C15.317 1.73446 15.6555 1.64435 16 1.64435C16.3445 1.64435 16.683 1.73446 16.9818 1.90567L27.9813 8.0929C28.2479 8.2443 28.4758 8.45428 28.6483 8.70626C28.6788 8.74513 28.7068 8.78675 28.732 8.83103C28.751 8.86447 28.7679 8.89855 28.7826 8.93311C28.9236 9.21133 28.9983 9.51907 29 9.8321L29 9.83747L29 22.1678C28.9981 22.5217 28.9029 22.8688 28.7241 23.1742C28.5452 23.4795 28.289 23.7323 27.9813 23.907L27.9778 23.909L16.9818 30.0943C16.6829 30.2655 16.3445 30.3556 16 30.3556C15.6555 30.3556 15.3171 30.2655 15.0182 30.0943L4.02224 23.909L4.01869 23.907C3.71097 23.7323 3.45478 23.4795 3.27593 23.1742C3.09709 22.8688 3.00191 22.5217 3.00001 22.1678L3 22.1625V9.8321C3.00168 9.51902 3.07639 9.21122 3.21745 8.93295C3.23116 8.90089 3.24668 8.86923 3.26403 8.83809C3.2902 8.79114 3.3196 8.74711 3.35179 8.70614C3.52424 8.45421 3.75213 8.24428 4.01869 8.0929L4.02223 8.09089L15.0182 1.90567ZM5 10.9506V22.1576C5.0001 22.1597 5.00068 22.1616 5.0017 22.1634C5.00274 22.1651 5.00419 22.1666 5.00594 22.1677C5.00581 22.1676 5.00606 22.1678 5.00594 22.1677L15.0131 27.7967L15.1075 16.5847L5 10.9506ZM17.1076 16.5848L17.0132 27.7819L26.9937 22.1679C26.9936 22.168 26.9938 22.1678 26.9937 22.1679C26.9954 22.1668 26.9973 22.1651 26.9983 22.1634C26.9993 22.1616 26.9999 22.1597 27 22.1576V10.965L17.1076 16.5848ZM25.9645 9.25312L16 3.6481L6.04894 9.24557L16.1078 14.8525L25.9645 9.25312Z" fill="currentColor"/>
</svg>
