<svg width="24" height="24" viewBox="0 0 24 24" fill="none" xmlns="http://www.w3.org/2000/svg">
<path d="M5.41197 3.44311C5.97463 3.14224 6.66886 3 7.5 3C7.91421 3 8.25 3.33579 8.25 3.75C8.25 4.16421 7.91421 4.5 7.5 4.5C6.83114 4.5 6.40037 4.61557 6.11928 4.76588C5.85082 4.90943 5.67539 5.10737 5.54986 5.36627C5.26571 5.95233 5.25 6.78789 5.25 7.875C5.25 7.90558 5.25002 7.93641 5.25003 7.96747C5.25051 8.92706 5.2511 10.1075 4.79986 11.0381C4.62402 11.4008 4.37983 11.7297 4.04955 12C4.37983 12.2703 4.62402 12.5992 4.79986 12.9619C5.2511 13.8925 5.25051 15.0729 5.25003 16.0325C5.25002 16.0636 5.25 16.0944 5.25 16.125C5.25 17.2121 5.26571 18.0477 5.54986 18.6337C5.67539 18.8926 5.85082 19.0906 6.11928 19.2341C6.40037 19.3844 6.83114 19.5 7.5 19.5C7.91421 19.5 8.25 19.8358 8.25 20.25C8.25 20.6642 7.91421 21 7.5 21C6.66886 21 5.97463 20.8578 5.41197 20.5569C4.83668 20.2493 4.44961 19.8027 4.20014 19.2881C3.7489 18.3575 3.74949 17.1771 3.74997 16.2175C3.74998 16.1864 3.75 16.1556 3.75 16.125C3.75 15.0379 3.73429 14.2023 3.45014 13.6163C3.32461 13.3574 3.14918 13.1594 2.88072 13.0159C2.59963 12.8656 2.16886 12.75 1.5 12.75C1.08579 12.75 0.75 12.4142 0.75 12C0.75 11.5858 1.08579 11.25 1.5 11.25C2.16886 11.25 2.59963 11.1344 2.88072 10.9841C3.14918 10.8406 3.32461 10.6426 3.45014 10.3837C3.73429 9.79767 3.75 8.96211 3.75 7.875C3.75 7.84442 3.74998 7.81359 3.74997 7.78253C3.74949 6.82294 3.7489 5.64254 4.20014 4.71186C4.44961 4.19732 4.83668 3.75073 5.41197 3.44311ZM15.75 3.75C15.75 3.33579 16.0858 3 16.5 3C17.3311 3 18.0254 3.14224 18.588 3.44311C19.1633 3.75073 19.5504 4.19732 19.7999 4.71186C20.2511 5.64255 20.2505 6.82294 20.25 7.78253C20.25 7.81359 20.25 7.84442 20.25 7.875C20.25 8.96211 20.2657 9.79767 20.5499 10.3837C20.6754 10.6426 20.8508 10.8406 21.1193 10.9841C21.4004 11.1344 21.8311 11.25 22.5 11.25C22.9142 11.25 23.25 11.5858 23.25 12C23.25 12.4142 22.9142 12.75 22.5 12.75C21.8311 12.75 21.4004 12.8656 21.1193 13.0159C20.8508 13.1594 20.6754 13.3574 20.5499 13.6163C20.2657 14.2023 20.25 15.0379 20.25 16.125C20.25 16.1556 20.25 16.1864 20.25 16.2175C20.2505 17.1771 20.2511 18.3575 19.7999 19.2881C19.5504 19.8027 19.1633 20.2493 18.588 20.5569C18.0254 20.8578 17.3311 21 16.5 21C16.0858 21 15.75 20.6642 15.75 20.25C15.75 19.8358 16.0858 19.5 16.5 19.5C17.1689 19.5 17.5996 19.3844 17.8807 19.2341C18.1492 19.0906 18.3246 18.8926 18.4501 18.6337C18.7343 18.0477 18.75 17.2121 18.75 16.125C18.75 16.0944 18.75 16.0636 18.75 16.0325C18.7495 15.0729 18.7489 13.8925 19.2001 12.9619C19.376 12.5992 19.6202 12.2703 19.9504 12C19.6202 11.7297 19.376 11.4008 19.2001 11.0381C18.7489 10.1075 18.7495 8.92706 18.75 7.96747C18.75 7.93641 18.75 7.90558 18.75 7.875C18.75 6.78789 18.7343 5.95233 18.4501 5.36627C18.3246 5.10737 18.1492 4.90943 17.8807 4.76588C17.5996 4.61557 17.1689 4.5 16.5 4.5C16.0858 4.5 15.75 4.16421 15.75 3.75Z" fill="currentColor"/>
</svg>
