<svg width="32" height="32" viewBox="0 0 32 32" fill="none" xmlns="http://www.w3.org/2000/svg">
<path fill-rule="evenodd" clip-rule="evenodd" d="M14.7433 1.69964C15.097 1.40795 15.5412 1.24829 15.9999 1.24829C16.4602 1.24829 16.906 1.40906 17.2603 1.70271C18.5019 2.7139 21.1899 5.22078 22.677 9.08621C23.1808 10.3959 23.5421 11.8498 23.6677 13.4391L27.4521 17.9804C27.6522 18.2159 27.7936 18.4956 27.8644 18.7966C27.9345 19.0946 27.9334 19.4049 27.8614 19.7023L26.3265 26.6531L26.3258 26.6562C26.2516 26.9872 26.0944 27.2939 25.8691 27.5474C25.6437 27.8009 25.3576 27.993 25.0375 28.1055C24.7175 28.218 24.3742 28.2473 24.0397 28.1905C23.7053 28.1338 23.3908 27.9929 23.1258 27.7812L23.1253 27.7808L19.6492 25H12.3511L8.87488 27.7809L8.8744 27.7813C8.6094 27.993 8.29489 28.1339 7.96045 28.1906C7.62602 28.2474 7.28265 28.2181 6.96264 28.1056C6.64263 27.9931 6.35649 27.801 6.13113 27.5475C5.90578 27.294 5.74861 26.9873 5.67441 26.6563L5.67371 26.6532L4.13879 19.7024C4.06675 19.405 4.0657 19.0947 4.13582 18.7967C4.20667 18.4955 4.34815 18.2156 4.54851 17.98L8.25792 13.5382C8.37436 11.9076 8.74292 10.4177 9.26309 9.07852C10.7647 5.21238 13.4867 2.7061 14.7433 1.69964ZM21.6984 13.9733C21.6895 13.9135 21.6861 13.8531 21.688 13.7929C21.5927 12.3132 21.2637 10.9827 20.8104 9.80433C19.5015 6.40223 17.1128 4.16238 15.9999 3.2556L15.9996 3.25583C14.8781 4.15306 12.4511 6.39467 11.1274 9.80264C10.6563 11.0156 10.3191 12.3903 10.2377 13.9233C10.2378 13.9577 10.2361 13.9921 10.2326 14.0265C10.1165 16.5858 10.7143 19.5821 12.5849 23H19.4091C21.2534 19.5587 21.8297 16.5446 21.6984 13.9733ZM25.9117 19.2561L23.6133 16.4979C23.3648 18.7113 22.6493 21.1322 21.2791 23.7426L24.3742 26.2187L25.911 19.2593L25.9117 19.2561ZM8.33531 16.5657L6.08845 19.2562L6.08916 19.2594L7.62597 26.2188L10.7153 23.7474C9.3312 21.1628 8.59951 18.7629 8.33531 16.5657ZM13 28C13 27.4477 13.4477 27 14 27H18C18.5523 27 19 27.4477 19 28C19 28.5523 18.5523 29 18 29H14C13.4477 29 13 28.5523 13 28ZM17.5 12C17.5 12.8284 16.8284 13.5 16 13.5C15.1716 13.5 14.5 12.8284 14.5 12C14.5 11.1716 15.1716 10.5 16 10.5C16.8284 10.5 17.5 11.1716 17.5 12Z" fill="currentColor"/>
</svg>
