<svg width="24" height="24" viewBox="0 0 24 24" fill="none" xmlns="http://www.w3.org/2000/svg">
<path fill-rule="evenodd" clip-rule="evenodd" d="M15.7646 10.6901L15.75 10.2343C15.484 10.4457 15.1934 10.6372 14.8872 10.8073C13.5346 11.5587 11.7169 12 9.75 12C7.78312 12 5.96537 11.5587 4.6128 10.8073C4.30664 10.6372 4.01599 10.4457 3.75 10.2343V16.5C3.75 17.1395 4.22541 17.8761 5.34126 18.496C5.93615 18.8265 7.4998 19.4797 9.375 19.4712C10.4236 19.4665 10.5131 20.8453 9.375 21C7.125 21 5.42897 20.2607 4.6128 19.8073C3.28563 19.07 2.25 17.9316 2.25 16.5V7.5C2.25 6.06841 3.28563 4.93005 4.6128 4.19273C5.96537 3.4413 7.78312 3 9.75 3C11.7169 3 13.5346 3.4413 14.8872 4.19273C16.2144 4.93005 17.25 6.06841 17.25 7.5L17.2646 10.6901C17.2646 11.1044 16.9288 11.4401 16.5146 11.4401C16.1004 11.4401 15.7646 11.1044 15.7646 10.6901ZM3.75 7.5C3.75 6.86052 4.22541 6.12389 5.34126 5.50397C6.43171 4.89816 7.98896 4.5 9.75 4.5C11.511 4.5 13.0683 4.89816 14.1587 5.50397C15.2746 6.12389 15.75 6.86052 15.75 7.5C15.75 8.13948 15.2746 8.87611 14.1587 9.49603C13.0683 10.1018 11.511 10.5 9.75 10.5C7.98896 10.5 6.43171 10.1018 5.34126 9.49603C4.22541 8.87611 3.75 8.13948 3.75 7.5Z" fill="currentColor"/>
<path fill-rule="evenodd" clip-rule="evenodd" d="M19.1902 16.3544C19.7575 17.9023 18.9626 19.617 17.4148 20.1843C16.681 20.4533 15.9114 20.4165 15.2421 20.1381C14.9937 20.0348 14.7594 19.8983 14.5467 19.7321C14.2203 19.4771 13.749 19.5349 13.4939 19.8613C13.2389 20.1877 13.2968 20.6591 13.6232 20.9141C13.9427 21.1637 14.2939 21.3683 14.6661 21.5231C15.6698 21.9406 16.8294 21.9965 17.931 21.5927C20.2567 20.7403 21.451 18.1639 20.5986 15.8382C19.7461 13.5126 17.1698 12.3183 14.8441 13.1707C13.5553 13.6431 12.6137 14.6459 12.1761 15.8391C12.1677 15.862 12.1605 15.885 12.1545 15.9081L11.5517 14.8688C11.3946 14.4881 10.9542 14.3043 10.5681 14.4582C10.182 14.6121 9.99639 15.0454 10.1536 15.4261L11.4746 18.1834C11.6318 18.564 12.0722 18.7479 12.4583 18.594L15.3243 17.6408C15.7104 17.4869 15.896 17.0536 15.7388 16.6729C15.5816 16.2922 15.1412 16.1084 14.7551 16.2623L13.5769 16.5428L13.5049 16.5127C13.5368 16.4647 13.5637 16.4121 13.5844 16.3556C13.8767 15.5586 14.5029 14.8933 15.3603 14.5791C16.9082 14.0117 18.6229 14.8066 19.1902 16.3544Z" fill="currentColor"/>
</svg>
