<svg width="32" height="32" viewBox="0 0 32 32" fill="none" xmlns="http://www.w3.org/2000/svg">
<path fill-rule="evenodd" clip-rule="evenodd" d="M9.625 14.2501C9.17627 14.2501 8.8125 14.6138 8.8125 15.0626C8.8125 15.5113 9.17627 15.875 9.625 15.875H11.1735L10.4771 19.125H8.8125C8.36377 19.125 8 19.4887 8 19.9374C8 20.3862 8.36377 20.7499 8.8125 20.7499H10.1289L9.64304 23.0171C9.54901 23.4559 9.82849 23.8878 10.2673 23.9818C10.706 24.0758 11.1379 23.7963 11.232 23.3576L11.7908 20.7499H15.8164L15.3305 23.0171C15.2365 23.4559 15.516 23.8878 15.9548 23.9818C16.3935 24.0758 16.8254 23.7963 16.9195 23.3576L17.4783 20.7499H19.375C19.8237 20.7499 20.1875 20.3862 20.1875 19.9374C20.1875 19.4887 19.8237 19.125 19.375 19.125H17.8265L18.5229 15.875H20.1875C20.6362 15.875 21 15.5113 21 15.0626C21 14.6138 20.6362 14.2501 20.1875 14.2501H18.8711L19.357 11.9829C19.451 11.5441 19.1715 11.1122 18.7327 11.0182C18.294 10.9242 17.8621 11.2036 17.768 11.6424L17.2092 14.2501H13.1836L13.6695 11.9829C13.7635 11.5441 13.484 11.1122 13.0452 11.0182C12.6065 10.9242 12.1746 11.2036 12.0805 11.6424L11.5217 14.2501H9.625ZM16.1646 19.125H12.139L12.8354 15.875H16.861L16.1646 19.125Z" fill="currentColor"/>
<path fill-rule="evenodd" clip-rule="evenodd" d="M8 4.74949C8 3.78327 8.7835 3 9.75 3H27.25C28.2165 3 29 3.78327 29 4.74949V22.2444C29 23.2106 28.2165 23.9939 27.25 23.9939C26.4635 23.9961 25.7165 23.9979 25 23.9993V26.25C25 27.2165 24.2165 28 23.25 28H5.75C4.7835 28 4 27.2165 4 26.25V8.75C4 7.7835 4.7835 7 5.75 7H8V4.74949ZM26.9995 22H25V8.75C25 7.7835 24.2165 7 23.25 7H10.0005V5H26.9995V22ZM23 9H6V26H23V9Z" fill="currentColor"/>
</svg>
