<svg width="24" height="24" viewBox="0 0 24 24" fill="none" xmlns="http://www.w3.org/2000/svg">
<path d="M20.0303 12.2197C19.7374 11.9268 19.2626 11.9268 18.9697 12.2197C18.6768 12.5126 18.6768 12.9874 18.9697 13.2803L19.9393 14.25H15C14.5858 14.25 14.25 14.5858 14.25 15C14.25 15.4142 14.5858 15.75 15 15.75H19.9393L18.9697 16.7197C18.6768 17.0126 18.6768 17.4874 18.9697 17.7803C19.2626 18.0732 19.7374 18.0732 20.0303 17.7803L22.2803 15.5303C22.4262 15.3845 22.4994 15.1934 22.5 15.0022L22.5 15L22.5 14.9978C22.4997 14.8969 22.4795 14.8007 22.4431 14.7129C22.4065 14.6245 22.3522 14.5416 22.2803 14.4697L20.0303 12.2197Z" fill="currentColor"/>
<path d="M15.75 12V10.2343C15.484 10.4458 15.1934 10.6372 14.8872 10.8073C13.5346 11.5587 11.7169 12 9.75 12C7.78312 12 5.96537 11.5587 4.6128 10.8073C4.30664 10.6372 4.01599 10.4458 3.75 10.2343V16.5C3.75 17.1395 4.22541 17.8761 5.34126 18.496C6.43171 19.1018 7.98896 19.5 9.75 19.5C12.4066 19.5 14.5094 18.6037 15.3488 17.5364C15.6049 17.2108 16.0764 17.1544 16.402 17.4105C16.7276 17.6665 16.7839 18.138 16.5279 18.4636C15.284 20.0452 12.6292 21 9.75 21C7.78312 21 5.96537 20.5587 4.6128 19.8073C3.28563 19.07 2.25 17.9316 2.25 16.5V7.5C2.25 6.06841 3.28563 4.93005 4.6128 4.19273C5.96537 3.4413 7.78312 3 9.75 3C11.7169 3 13.5346 3.4413 14.8872 4.19273C16.2144 4.93005 17.25 6.06841 17.25 7.5V12C17.25 12.4142 16.9142 12.75 16.5 12.75C16.0858 12.75 15.75 12.4142 15.75 12ZM3.75 7.5C3.75 8.13948 4.22541 8.87611 5.34126 9.49603C6.43171 10.1018 7.98896 10.5 9.75 10.5C11.511 10.5 13.0683 10.1018 14.1587 9.49603C15.2746 8.87611 15.75 8.13948 15.75 7.5C15.75 6.86052 15.2746 6.12389 14.1587 5.50397C13.0683 4.89816 11.511 4.5 9.75 4.5C7.98896 4.5 6.43171 4.89816 5.34126 5.50397C4.22541 6.12389 3.75 6.86052 3.75 7.5Z" fill="currentColor"/>
</svg>
