<svg width="24" height="24" viewBox="0 0 24 24" fill="none" xmlns="http://www.w3.org/2000/svg">
<path d="M12.75 3.75C12.75 3.33579 12.4142 3 12 3C11.5858 3 11.25 3.33579 11.25 3.75V11.3245L4.5 18.3959L4.5 16.5C4.5 16.0858 4.16421 15.75 3.75 15.75C3.33579 15.75 3 16.0858 3 16.5V20.25C3 20.6642 3.33579 21 3.75 21H7.5C7.91421 21 8.25 20.6642 8.25 20.25C8.25 19.8358 7.91421 19.5 7.5 19.5H5.51979L12.5425 12.1429C12.6757 12.0033 12.75 11.8179 12.75 11.625V3.75Z" fill="currentColor"/>
<path d="M14.7803 13.7197C14.4874 13.4268 14.0126 13.4268 13.7197 13.7197C13.4268 14.0126 13.4268 14.4874 13.7197 14.7803L18.4393 19.5H16.5C16.0858 19.5 15.75 19.8358 15.75 20.25C15.75 20.6642 16.0858 21 16.5 21H20.25C20.6642 21 21 20.6642 21 20.25V16.5C21 16.0858 20.6642 15.75 20.25 15.75C19.8358 15.75 19.5 16.0858 19.5 16.5V18.4393L14.7803 13.7197Z" fill="currentColor"/>
</svg>
