<svg width="24" height="24" viewBox="0 0 24 24" fill="none" xmlns="http://www.w3.org/2000/svg">
<path d="M19.5 15C19.5 16.4316 18.4644 17.57 17.1372 18.3073C15.9584 18.9622 14.4263 19.3815 12.75 19.4784V21H15.75C16.1642 21 16.5 21.3358 16.5 21.75C16.5 22.1642 16.1642 22.5 15.75 22.5H8.25C7.83579 22.5 7.5 22.1642 7.5 21.75C7.5 21.3358 7.83579 21 8.25 21H11.25V19.4784C9.57374 19.3815 8.04161 18.9622 6.8628 18.3073C5.53563 17.57 4.5 16.4316 4.5 15V6C4.5 4.56841 5.53563 3.43005 6.8628 2.69273C8.21537 1.9413 10.0331 1.5 12 1.5C13.9669 1.5 15.7846 1.9413 17.1372 2.69273C18.4644 3.43005 19.5 4.56841 19.5 6V15ZM6 6C6 6.63948 6.47541 7.37611 7.59126 7.99603C8.68171 8.60184 10.239 9 12 9C13.761 9 15.3183 8.60184 16.4087 7.99603C17.5246 7.37611 18 6.63948 18 6C18 5.36052 17.5246 4.62389 16.4087 4.00397C15.3183 3.39816 13.761 3 12 3C10.239 3 8.68171 3.39816 7.59126 4.00397C6.47541 4.62389 6 5.36052 6 6ZM18 15V8.7343C17.734 8.94575 17.4434 9.13718 17.1372 9.30727C15.7846 10.0587 13.9669 10.5 12 10.5C10.0331 10.5 8.21537 10.0587 6.8628 9.30727C6.55664 9.13718 6.26599 8.94575 6 8.7343V15C6 15.6395 6.47541 16.3761 7.59126 16.996C8.68171 17.6018 10.239 18 12 18C13.761 18 15.3183 17.6018 16.4087 16.996C17.5246 16.3761 18 15.6395 18 15Z" fill="currentColor"/>
<path d="M4.5 21.75C4.5 21.3358 4.83579 21 5.25 21C5.66421 21 6 21.3358 6 21.75C6 22.1642 5.66421 22.5 5.25 22.5C4.83579 22.5 4.5 22.1642 4.5 21.75Z" fill="currentColor"/>
<path d="M18.75 21C18.3358 21 18 21.3358 18 21.75C18 22.1642 18.3358 22.5 18.75 22.5C19.1642 22.5 19.5 22.1642 19.5 21.75C19.5 21.3358 19.1642 21 18.75 21Z" fill="currentColor"/>
</svg>
