<svg width="24" height="24" viewBox="0 0 24 24" fill="none" xmlns="http://www.w3.org/2000/svg">
<path d="M12 17.9258C12.225 17.9258 12.525 17.8508 12.675 17.7758C13.725 17.1758 17.025 15.3008 18.675 14.4008C19.125 14.1758 19.425 13.6508 19.425 13.1258V6.52578C19.425 6.00078 19.125 5.55078 18.675 5.25078C18.0136 4.85396 16.6006 4.06832 15.2282 3.30531C14.2661 2.77044 13.3241 2.24668 12.675 1.87578C12.225 1.65078 11.7 1.65078 11.25 1.87578L5.25 5.17578C4.8 5.40078 4.5 5.92578 4.5 6.45078V13.1258C4.5 13.6508 4.8 14.1008 5.25 14.4008C5.91129 14.7976 7.32408 15.583 8.69629 16.346L8.69711 16.3464C9.65906 16.8812 10.601 17.4049 11.25 17.7758C11.475 17.8508 11.775 17.9258 12 17.9258ZM12 3.07578C13.3002 3.81874 15.7759 5.22613 17.2332 6.03219L12 8.92582L6.75541 6.02587L12 3.07578ZM12.75 10.2175L18 7.30082V13.0508C16.6428 13.7911 14.1694 15.1402 12.75 15.9296V10.2175ZM6 7.30082L11.25 10.2175V15.9501C10.3706 15.4738 9.25855 14.8545 8.2551 14.2956L8.25401 14.295C7.31334 13.7712 6.46826 13.3005 6 13.0508V7.30082Z" fill="currentColor"/>
<path d="M3 17.2508C3 20.1758 6.975 22.5008 12 22.5008C17.025 22.5008 21 20.1758 21.075 17.2508C21.075 16.9508 21 16.5758 20.925 16.2758C20.775 15.8258 20.325 15.6008 19.95 15.7508C19.5 15.9008 19.275 16.3508 19.425 16.7258C19.5 16.8758 19.5 17.1008 19.5 17.2508C19.5 19.2758 16.05 21.0008 12 21.0008C7.95 21.0008 4.5 19.2758 4.5 17.2508C4.5 17.1008 4.5 16.8758 4.575 16.6508C4.65 16.2758 4.425 15.9008 4.05 15.7508C3.675 15.6758 3.3 15.9008 3.15 16.2758C3.075 16.5758 3 16.9508 3 17.2508Z" fill="currentColor"/>
</svg>
