<svg width="24" height="24" viewBox="0 0 24 24" fill="none" xmlns="http://www.w3.org/2000/svg">
<path d="M6.75 9.75C6.75 9.33579 7.08579 9 7.5 9H9.25083L9.76665 6.59285C9.85344 6.18783 10.2521 5.92986 10.6571 6.01665C11.0622 6.10344 11.3201 6.50213 11.2334 6.90715L10.7849 9H14.5008L15.0166 6.59285C15.1034 6.18783 15.5021 5.92986 15.9071 6.01665C16.3122 6.10344 16.5701 6.50213 16.4834 6.90715L16.0349 9H17.25C17.6642 9 18 9.33579 18 9.75C18 10.1642 17.6642 10.5 17.25 10.5H15.7135L15.0706 13.5H16.5C16.9142 13.5 17.25 13.8358 17.25 14.25C17.25 14.6642 16.9142 15 16.5 15H14.7492L14.2334 17.4071C14.1466 17.8122 13.7479 18.0701 13.3429 17.9834C12.9378 17.8966 12.6799 17.4979 12.7666 17.0929L13.2151 15H9.49917L8.98335 17.4071C8.89656 17.8122 8.49787 18.0701 8.09285 17.9834C7.68783 17.8966 7.42986 17.4979 7.51665 17.0929L7.96512 15H6.75C6.33579 15 6 14.6642 6 14.25C6 13.8358 6.33579 13.5 6.75 13.5H8.28655L8.9294 10.5H7.5C7.08579 10.5 6.75 10.1642 6.75 9.75ZM9.8206 13.5H13.5365L14.1794 10.5H10.4635L9.8206 13.5Z" fill="currentColor"/>
<path d="M3 4.5C3 3.67157 3.67157 3 4.5 3H19.5C20.3284 3 21 3.67157 21 4.5V19.5C21 20.3284 20.3284 21 19.5 21H4.5C3.67157 21 3 20.3284 3 19.5V4.5ZM19.5 4.5L4.5 4.5V19.5H19.5V4.5Z" fill="currentColor"/>
</svg>
