<svg width="24" height="24" viewBox="0 0 24 24" fill="none" xmlns="http://www.w3.org/2000/svg">
<path d="M20.25 16.5C20.25 16.0858 19.9142 15.75 19.5 15.75C19.0858 15.75 18.75 16.0858 18.75 16.5V18H17.25C16.8358 18 16.5 18.3358 16.5 18.75C16.5 19.1642 16.8358 19.5 17.25 19.5H18.75V21C18.75 21.4142 19.0858 21.75 19.5 21.75C19.9142 21.75 20.25 21.4142 20.25 21V19.5H21.75C22.1642 19.5 22.5 19.1642 22.5 18.75C22.5 18.3358 22.1642 18 21.75 18H20.25V16.5Z" fill="currentColor"/>
<path d="M18.75 13.5V10.5463C18.4311 10.834 18.0735 11.0945 17.6892 11.3251C16.1968 12.2205 14.1836 12.75 12 12.75C9.81637 12.75 7.80315 12.2205 6.31083 11.3251C5.92651 11.0945 5.56886 10.834 5.25 10.5463V16.5C5.25 17.3757 5.8455 18.2966 7.08257 19.0389C8.30471 19.7721 10.0415 20.25 12 20.25C13.0048 20.25 13.9554 20.1241 14.8098 19.9001C15.2105 19.795 15.6204 20.0347 15.7255 20.4354C15.8305 20.836 15.5909 21.246 15.1902 21.351C14.2072 21.6087 13.1285 21.75 12 21.75C9.81637 21.75 7.80315 21.2205 6.31083 20.3251C4.83343 19.4387 3.75 18.1096 3.75 16.5V7.5C3.75 5.89041 4.83343 4.56134 6.31083 3.6749C7.80315 2.7795 9.81637 2.25 12 2.25C14.1836 2.25 16.1968 2.7795 17.6892 3.6749C19.1666 4.56134 20.25 5.89041 20.25 7.5V13.5C20.25 13.9142 19.9142 14.25 19.5 14.25C19.0858 14.25 18.75 13.9142 18.75 13.5ZM5.25 7.5C5.25 8.3757 5.8455 9.29662 7.08257 10.0389C8.30471 10.7721 10.0415 11.25 12 11.25C13.9585 11.25 15.6953 10.7721 16.9174 10.0389C18.1545 9.29662 18.75 8.3757 18.75 7.5C18.75 6.6243 18.1545 5.70338 16.9174 4.96114C15.6953 4.22786 13.9585 3.75 12 3.75C10.0415 3.75 8.30471 4.22786 7.08257 4.96114C5.8455 5.70338 5.25 6.6243 5.25 7.5Z" fill="currentColor"/>
</svg>
