<svg width="24" height="24" viewBox="0 0 24 24" fill="none" xmlns="http://www.w3.org/2000/svg">
<path d="M6 7.5C6 7.08579 6.33579 6.75 6.75 6.75H11.25C11.5297 6.75 11.7861 6.90559 11.9152 7.15364C12.0444 7.40169 12.0248 7.70099 11.8644 7.9301L9.8925 10.7471C10.0026 10.7918 10.1106 10.8423 10.2159 10.8986C10.7054 11.1603 11.1228 11.5386 11.4311 12.0001C11.7394 12.4615 11.9292 12.9919 11.9836 13.5443C12.038 14.0966 11.9553 14.6538 11.7429 15.1666C11.5305 15.6793 11.1949 16.1318 10.7659 16.4839C10.3369 16.836 9.82765 17.0769 9.28331 17.1851C8.73897 17.2934 8.17633 17.2658 7.64522 17.1047C7.1141 16.9436 6.63091 16.654 6.23845 16.2616C5.94554 15.9687 5.94551 15.4939 6.23839 15.2009C6.53127 14.908 7.00614 14.908 7.29905 15.2009C7.51709 15.4189 7.78553 15.5798 8.08059 15.6693C8.37565 15.7588 8.68823 15.7741 8.99064 15.714C9.29305 15.6538 9.57596 15.52 9.8143 15.3244C10.0527 15.1288 10.2391 14.8774 10.3571 14.5925C10.4751 14.3077 10.521 13.9981 10.4908 13.6913C10.4606 13.3844 10.3552 13.0897 10.1839 12.8334C10.0126 12.577 9.78069 12.3668 9.50877 12.2214C9.23685 12.0761 8.93328 12 8.62495 12C8.3453 12 8.08889 11.8444 7.95975 11.5963C7.83062 11.3483 7.85021 11.049 8.01058 10.8199L9.80951 8.25H6.75C6.33579 8.25 6 7.91421 6 7.5Z" fill="currentColor"/>
<path d="M17.25 7.5C17.25 7.2234 17.0978 6.96926 16.8539 6.83874C16.61 6.70823 16.3141 6.72253 16.084 6.87596L13.834 8.37596C13.4893 8.60573 13.3962 9.07138 13.626 9.41603C13.8557 9.76067 14.3214 9.8538 14.666 9.62404L15.75 8.90139V16.5C15.75 16.9142 16.0858 17.25 16.5 17.25C16.9142 17.25 17.25 16.9142 17.25 16.5V7.5Z" fill="currentColor"/>
<path d="M3 4.5C3 3.67157 3.67157 3 4.5 3H19.5C20.3284 3 21 3.67157 21 4.5V19.5C21 20.3284 20.3284 21 19.5 21H4.5C3.67157 21 3 20.3284 3 19.5V4.5ZM19.5 4.5L4.5 4.5V19.5H19.5V4.5Z" fill="currentColor"/>
</svg>
