<svg width="24" height="24" viewBox="0 0 24 24" fill="none" xmlns="http://www.w3.org/2000/svg">
<path d="M12.0002 6.75C12.2943 6.75 12.5613 6.9219 12.683 7.18965L16.433 15.4396C16.6044 15.8167 16.4376 16.2614 16.0605 16.4328C15.6834 16.6042 15.2388 16.4374 15.0674 16.0604L14.2445 14.25H9.75585L8.93296 16.0604C8.76156 16.4374 8.31692 16.6042 7.93983 16.4328C7.56275 16.2614 7.39601 15.8167 7.56741 15.4396L11.3174 7.18965C11.4391 6.9219 11.7061 6.75 12.0002 6.75ZM10.4377 12.75H13.5627L12.0002 9.31246L10.4377 12.75Z" fill="currentColor"/>
<path d="M3 4.5C3 3.67157 3.67157 3 4.5 3H19.5C20.3284 3 21 3.67157 21 4.5V19.5C21 20.3284 20.3284 21 19.5 21H4.5C3.67157 21 3 20.3284 3 19.5V4.5ZM19.5 4.5H4.5V19.5H19.5V4.5Z" fill="currentColor"/>
</svg>
