<svg width="32" height="32" viewBox="0 0 32 32" fill="none" xmlns="http://www.w3.org/2000/svg">
<path fill-rule="evenodd" clip-rule="evenodd" d="M4 10C4 7.80565 5.61684 6.03917 7.74297 4.87946C9.90692 3.69913 12.8281 3 16 3C19.1719 3 22.0931 3.69913 24.257 4.87946C26.3832 6.03917 28 7.80565 28 10V16C28 16.5523 27.5523 17 27 17C26.4477 17 26 16.5523 26 16V13.9205C25.4845 14.3717 24.8936 14.7733 24.257 15.1205C22.0931 16.3009 19.1719 17 16 17C12.8281 17 9.90692 16.3009 7.74297 15.1205C7.10642 14.7733 6.51552 14.3717 6 13.9205V22C6 23.1187 6.84554 24.3522 8.70078 25.3643C10.5181 26.3557 13.0969 27 16 27C16.3207 27 16.6379 26.9921 16.9509 26.9767C17.5025 26.9496 17.9717 27.3748 17.9988 27.9264C18.0259 28.478 17.6007 28.9472 17.0491 28.9743C16.7034 28.9913 16.3534 29 16 29C12.8281 29 9.90691 28.3005 7.74297 27.1201C5.61696 25.9603 4 24.1938 4 22V10ZM6 10C6 8.88064 6.8456 7.64712 8.70068 6.63525C10.5179 5.64402 13.0968 5 16 5C18.9032 5 21.4821 5.64402 23.2993 6.63525C25.1544 7.64712 26 8.88064 26 10C26 11.1194 25.1544 12.3529 23.2993 13.3647C21.4821 14.356 18.9032 15 16 15C13.0968 15 10.5179 14.356 8.70068 13.3647C6.8456 12.3529 6 11.1194 6 10Z" fill="currentColor"/>
<path fill-rule="evenodd" clip-rule="evenodd" d="M20 20C20 19.4477 20.4477 19 21 19H26C26.2685 19 26.5122 19.1058 26.6919 19.278C26.697 19.2829 26.7021 19.2879 26.7071 19.2929L29.7071 22.2929C29.8881 22.4739 30 22.7239 30 23L30 29C30 29.5523 29.5523 30 29 30H21C20.7348 30 20.4804 29.8946 20.2929 29.7071C20.1054 29.5196 20 29.2652 20 29L20 20ZM25 21V23C25 23.5523 25.4477 24 26 24H28L28 28H22L22 21H25Z" fill="currentColor"/>
</svg>
