<svg width="24" height="24" viewBox="0 0 24 24" fill="none" xmlns="http://www.w3.org/2000/svg">
<path d="M6.52551 4.97644C5.1342 5.73534 4.5 6.66048 4.5 7.5C4.5 8.33952 5.1342 9.26466 6.52551 10.0236C7.88846 10.767 9.82259 11.25 12 11.25C14.1774 11.25 16.1115 10.767 17.4745 10.0236C18.8658 9.26466 19.5 8.33952 19.5 7.5C19.5 6.66048 18.8658 5.73534 17.4745 4.97644C16.1115 4.23301 14.1774 3.75 12 3.75C9.82259 3.75 7.88846 4.23301 6.52551 4.97644ZM19.5 10.4404C19.1134 10.7788 18.6702 11.08 18.1928 11.3404C16.5698 12.2257 14.3789 12.75 12 12.75C9.62106 12.75 7.43019 12.2257 5.80723 11.3404C5.32982 11.08 4.88664 10.7788 4.5 10.4404V12C4.5 12.839 5.13415 13.7642 6.52558 14.5232C7.88857 15.2668 9.8227 15.75 12 15.75C14.1773 15.75 16.1114 15.2668 17.4744 14.5232C18.8658 13.7642 19.5 12.839 19.5 12V10.4404ZM19.5 14.94C19.1133 15.2784 18.6702 15.5796 18.1928 15.84C16.5698 16.7254 14.3789 17.25 12 17.25C9.62105 17.25 7.43018 16.7254 5.80723 15.84C5.32983 15.5796 4.88665 15.2784 4.5 14.94V16.5C4.5 17.339 5.13415 18.2642 6.52558 19.0232C7.88857 19.7668 9.8227 20.25 12 20.25C14.1773 20.25 16.1114 19.7668 17.4744 19.0232C18.8658 18.2642 19.5 17.339 19.5 16.5V14.94ZM3 7.5C3 5.85424 4.21263 4.52938 5.80723 3.6596C7.43019 2.77434 9.62106 2.25 12 2.25C14.3789 2.25 16.5698 2.77434 18.1928 3.6596C19.7874 4.52938 21 5.85424 21 7.5V16.5C21 18.1454 19.7873 19.4702 18.1928 20.34C16.5698 21.2254 14.3789 21.75 12 21.75C9.62105 21.75 7.43018 21.2254 5.80723 20.34C4.21272 19.4702 3 18.1454 3 16.5V7.5Z" fill="currentColor"/>
</svg>
