<svg width="24" height="24" viewBox="0 0 24 24" fill="none" xmlns="http://www.w3.org/2000/svg">
<path d="M6.96967 12.9697C7.26256 12.6768 7.73744 12.6768 8.03033 12.9697L10.2803 15.2197C10.5732 15.5126 10.5732 15.9874 10.2803 16.2803L8.03033 18.5303C7.73744 18.8232 7.26256 18.8232 6.96967 18.5303C6.67678 18.2374 6.67678 17.7626 6.96967 17.4697L7.93934 16.5H3C2.58579 16.5 2.25 16.1642 2.25 15.75C2.25 15.3358 2.58579 15 3 15H7.93934L6.96967 14.0303C6.67678 13.7374 6.67678 13.2626 6.96967 12.9697Z" fill="currentColor"/>
<path d="M9.84126 5.50397C10.9317 4.89816 12.489 4.5 14.25 4.5C16.011 4.5 17.5683 4.89816 18.6587 5.50397C19.7746 6.12389 20.25 6.86052 20.25 7.5C20.25 8.13948 19.7746 8.87611 18.6587 9.49603C17.5683 10.1018 16.011 10.5 14.25 10.5C12.489 10.5 10.9317 10.1018 9.84126 9.49603C8.72541 8.87611 8.25 8.13948 8.25 7.5C8.25 6.86052 8.72541 6.12389 9.84126 5.50397ZM20.25 10.2343V16.5C20.25 17.1395 19.7746 17.8761 18.6587 18.496C17.5683 19.1018 16.011 19.5 14.25 19.5C12.9431 19.5 11.7427 19.2805 10.7614 18.9156C10.3732 18.7712 9.94141 18.9689 9.79703 19.3571C9.65266 19.7453 9.85035 20.1771 10.2386 20.3215C11.4024 20.7543 12.7817 21 14.25 21C16.2169 21 18.0346 20.5587 19.3872 19.8073C20.7144 19.07 21.75 17.9316 21.75 16.5V7.5C21.75 6.06841 20.7144 4.93005 19.3872 4.19273C18.0346 3.4413 16.2169 3 14.25 3C12.2831 3 10.4654 3.4413 9.1128 4.19273C7.78563 4.93005 6.75 6.06841 6.75 7.5V10.5C6.75 10.9142 7.08579 11.25 7.5 11.25C7.91421 11.25 8.25 10.9142 8.25 10.5V10.2343C8.516 10.4458 8.80664 10.6372 9.1128 10.8073C10.4654 11.5587 12.2831 12 14.25 12C16.2169 12 18.0346 11.5587 19.3872 10.8073C19.6934 10.6372 19.984 10.4458 20.25 10.2343Z" fill="currentColor"/>
</svg>
