<svg width="24" height="24" viewBox="0 0 24 24" fill="none" xmlns="http://www.w3.org/2000/svg">
<path d="M18.75 2.625C17.3003 2.625 16.125 3.80025 16.125 5.25C16.125 6.43913 16.9157 7.44359 18 7.7663V20.25C18 20.6642 18.3358 21 18.75 21C19.1642 21 19.5 20.6642 19.5 20.25V7.7663C20.5843 7.44359 21.375 6.43913 21.375 5.25C21.375 3.80025 20.1997 2.625 18.75 2.625ZM17.625 5.25C17.625 4.62868 18.1287 4.125 18.75 4.125C19.3713 4.125 19.875 4.62868 19.875 5.25C19.875 5.87132 19.3713 6.375 18.75 6.375C18.1287 6.375 17.625 5.87132 17.625 5.25Z" fill="currentColor"/>
<path d="M6 18.2663C7.08431 17.9436 7.875 16.9391 7.875 15.75C7.875 14.3003 6.69975 13.125 5.25 13.125C3.80025 13.125 2.625 14.3003 2.625 15.75C2.625 16.9391 3.41569 17.9436 4.5 18.2663V20.25C4.5 20.6642 4.83579 21 5.25 21C5.66421 21 6 20.6642 6 20.25V18.2663ZM4.125 15.75C4.125 15.1287 4.62868 14.625 5.25 14.625C5.87132 14.625 6.375 15.1287 6.375 15.75C6.375 16.3713 5.87132 16.875 5.25 16.875C4.62868 16.875 4.125 16.3713 4.125 15.75Z" fill="currentColor"/>
<path d="M12.75 13.0163C13.8343 12.6936 14.625 11.6891 14.625 10.5C14.625 9.05025 13.4497 7.875 12 7.875C10.5503 7.875 9.375 9.05025 9.375 10.5C9.375 11.6891 10.1657 12.6936 11.25 13.0163V20.25C11.25 20.6642 11.5858 21 12 21C12.4142 21 12.75 20.6642 12.75 20.25V13.0163ZM10.875 10.5C10.875 9.87868 11.3787 9.375 12 9.375C12.6213 9.375 13.125 9.87868 13.125 10.5C13.125 11.1213 12.6213 11.625 12 11.625C11.3787 11.625 10.875 11.1213 10.875 10.5Z" fill="currentColor"/>
</svg>
