<svg width="24" height="24" viewBox="0 0 24 24" fill="none" xmlns="http://www.w3.org/2000/svg">
<path d="M4.13851 4.61802C4.85582 3.66161 5.90402 3 7.125 3C8.34598 3 9.39418 3.66161 10.1115 4.61802C10.8286 5.5742 11.25 6.86077 11.25 8.25C11.25 9.63923 10.8286 10.9258 10.1115 11.882C9.39418 12.8384 8.34598 13.5 7.125 13.5C5.90402 13.5 4.85582 12.8384 4.13851 11.882C3.42138 10.9258 3 9.63923 3 8.25C3 6.86077 3.42138 5.5742 4.13851 4.61802ZM5.33851 5.51802C4.83414 6.19052 4.5 7.15394 4.5 8.25C4.5 9.34606 4.83414 10.3095 5.33851 10.982C5.84272 11.6543 6.48202 12 7.125 12C7.76798 12 8.40728 11.6543 8.91149 10.982C9.41586 10.3095 9.75 9.34606 9.75 8.25C9.75 7.15394 9.41586 6.19052 8.91149 5.51802C8.40728 4.84575 7.76798 4.5 7.125 4.5C6.48202 4.5 5.84272 4.84575 5.33851 5.51802Z" fill="currentColor"/>
<path d="M13.1385 4.61802C13.8558 3.66161 14.904 3 16.125 3C17.346 3 18.3942 3.66161 19.1115 4.61802C19.8286 5.5742 20.25 6.86077 20.25 8.25C20.25 9.63923 19.8286 10.9258 19.1115 11.882C18.3942 12.8384 17.346 13.5 16.125 13.5C14.904 13.5 13.8558 12.8384 13.1385 11.882C12.4214 10.9258 12 9.63923 12 8.25C12 6.86077 12.4214 5.5742 13.1385 4.61802ZM14.3385 5.51802C13.8341 6.19052 13.5 7.15394 13.5 8.25C13.5 9.34606 13.8341 10.3095 14.3385 10.982C14.8427 11.6543 15.482 12 16.125 12C16.768 12 17.4073 11.6543 17.9115 10.982C18.4159 10.3095 18.75 9.34606 18.75 8.25C18.75 7.15394 18.4159 6.19052 17.9115 5.51802C17.4073 4.84575 16.768 4.5 16.125 4.5C15.482 4.5 14.8427 4.84575 14.3385 5.51802Z" fill="currentColor"/>
<path d="M20.0303 13.7197C19.7374 13.4268 19.2626 13.4268 18.9697 13.7197C18.6768 14.0126 18.6768 14.4874 18.9697 14.7803L20.6893 16.5H12.75C12.3358 16.5 12 16.8358 12 17.25C12 17.6642 12.3358 18 12.75 18H20.6893L18.9697 19.7197C18.6768 20.0126 18.6768 20.4874 18.9697 20.7803C19.2626 21.0732 19.7374 21.0732 20.0303 20.7803L23.0303 17.7803L23.0415 17.7689C23.1706 17.6342 23.25 17.4514 23.25 17.25C23.25 17.0429 23.1661 16.8554 23.0303 16.7197L20.0303 13.7197Z" fill="currentColor"/>
<path d="M2.25 13.5C2.66421 13.5 3 13.1642 3 12.75C3 12.3358 2.66421 12 2.25 12C1.83579 12 1.5 12.3358 1.5 12.75C1.5 13.1642 1.83579 13.5 2.25 13.5Z" fill="currentColor"/>
</svg>
