<svg width="24" height="24" viewBox="0 0 24 24" fill="none" xmlns="http://www.w3.org/2000/svg">
<path d="M7.125 3C5.90402 3 4.85582 3.66161 4.13851 4.61802C3.42138 5.5742 3 6.86077 3 8.25C3 9.63923 3.42138 10.9258 4.13851 11.882C4.85582 12.8384 5.90402 13.5 7.125 13.5C8.34598 13.5 9.39418 12.8384 10.1115 11.882C10.8286 10.9258 11.25 9.63923 11.25 8.25C11.25 6.86077 10.8286 5.5742 10.1115 4.61802C9.39418 3.66161 8.34598 3 7.125 3ZM4.5 8.25C4.5 7.15394 4.83414 6.19052 5.33851 5.51802C5.84272 4.84575 6.48202 4.5 7.125 4.5C7.76798 4.5 8.40728 4.84575 8.91149 5.51802C9.41586 6.19052 9.75 7.15394 9.75 8.25C9.75 9.34606 9.41586 10.3095 8.91149 10.982C8.40728 11.6543 7.76798 12 7.125 12C6.48202 12 5.84272 11.6543 5.33851 10.982C4.83414 10.3095 4.5 9.34606 4.5 8.25Z" fill="currentColor"/>
<path d="M13.7197 13.7197C14.0126 13.4268 14.4874 13.4268 14.7803 13.7197C15.0732 14.0126 15.0732 14.4874 14.7803 14.7803L13.0607 16.5H21C21.4142 16.5 21.75 16.8358 21.75 17.25C21.75 17.6642 21.4142 18 21 18H13.0607L14.7803 19.7197C15.0732 20.0126 15.0732 20.4874 14.7803 20.7803C14.4874 21.0732 14.0126 21.0732 13.7197 20.7803L10.7197 17.7803L10.7117 17.7722C10.5807 17.6372 10.5 17.453 10.5 17.25C10.5 17.0429 10.5839 16.8554 10.7197 16.7197L13.7197 13.7197Z" fill="currentColor"/>
<path d="M2.25 13.5C2.66421 13.5 3 13.1642 3 12.75C3 12.3358 2.66421 12 2.25 12C1.83579 12 1.5 12.3358 1.5 12.75C1.5 13.1642 1.83579 13.5 2.25 13.5Z" fill="currentColor"/>
</svg>
