<svg width="24" height="24" viewBox="0 0 24 24" fill="none" xmlns="http://www.w3.org/2000/svg">
<path d="M19.0342 17.2488C18.7042 17.2488 18.3742 17.1963 18.0517 17.1063C17.5192 16.9488 17.0392 16.6563 16.6417 16.2663C16.3492 15.9738 16.3492 15.5013 16.6417 15.2088C16.9342 14.9163 17.4067 14.9163 17.6992 15.2088C17.9167 15.4263 18.1867 15.5913 18.4792 15.6738C18.7717 15.7638 19.0867 15.7788 19.3867 15.7188C19.6867 15.6588 19.9717 15.5238 20.2117 15.3288C20.4517 15.1338 20.6392 14.8788 20.7517 14.6013C20.8717 14.3163 20.9167 14.0088 20.8867 13.7013C20.8567 13.3938 20.7517 13.1013 20.5792 12.8463C20.4067 12.5913 20.1742 12.3813 19.9042 12.2313C19.6342 12.0888 19.3267 12.0063 19.0192 12.0063C18.7417 12.0063 18.4867 11.8563 18.3592 11.6088C18.2317 11.3613 18.2467 11.0688 18.3967 10.8363L19.8667 8.62379H16.7692C16.3567 8.62379 16.0192 8.28629 16.0192 7.87379C16.0192 7.46129 16.3567 7.12379 16.7692 7.12379H21.2692C21.5467 7.12379 21.8017 7.27379 21.9292 7.52129C22.0567 7.76879 22.0492 8.06129 21.8917 8.29379L20.2642 10.7388C20.3842 10.7838 20.4967 10.8363 20.6092 10.9038C21.0967 11.1663 21.5167 11.5413 21.8242 12.0063C22.1317 12.4638 22.3192 12.9963 22.3792 13.5513C22.4317 14.0988 22.3492 14.6613 22.1392 15.1713C21.9292 15.6813 21.5917 16.1388 21.1642 16.4913C20.7367 16.8438 20.2267 17.0838 19.6867 17.1888C19.4692 17.2338 19.2517 17.2563 19.0267 17.2563L19.0342 17.2488Z" fill="currentColor"/>
<path d="M14.2567 17.2488H9.75672C9.47172 17.2488 9.20922 17.0838 9.08172 16.8288C8.95422 16.5738 8.98422 16.2663 9.15672 16.0413L13.2742 10.6938C13.4167 10.4763 13.5067 10.1688 13.4992 9.84629C13.4992 9.47129 13.3717 9.11129 13.1467 8.81879C12.9292 8.54129 12.6217 8.34629 12.2842 8.27879C11.9542 8.21129 11.6017 8.26379 11.3017 8.42879C10.9942 8.60129 10.7542 8.87879 10.6117 9.21629C10.4542 9.59879 10.0192 9.78629 9.63672 9.62879C9.25422 9.47129 9.06672 9.03629 9.22422 8.65379C9.49422 7.99379 9.97422 7.45379 10.5817 7.11629C11.1967 6.77879 11.9092 6.66629 12.5917 6.81629C13.2667 6.95879 13.8817 7.34129 14.3242 7.89629C14.7517 8.44379 14.9917 9.13379 14.9917 9.83879C14.9917 10.4538 14.8192 11.0538 14.4817 11.5638L11.2642 15.7488H14.2417C14.6542 15.7488 14.9917 16.0863 14.9917 16.4988C14.9917 16.9113 14.6542 17.2488 14.2417 17.2488H14.2567Z" fill="currentColor"/>
<path d="M4.60422 17.2488C4.19172 17.2488 3.85422 16.9113 3.85422 16.4988V8.90129L2.66922 9.68879C2.32422 9.92129 1.85922 9.82379 1.62672 9.47879C1.39422 9.13379 1.49172 8.66879 1.83672 8.43629L4.19172 6.87629C4.42422 6.71879 4.71672 6.71129 4.96422 6.83879C5.21172 6.96629 5.36172 7.22129 5.36172 7.49879V16.4988C5.36172 16.9113 5.02422 17.2488 4.61172 17.2488H4.60422Z" fill="currentColor"/>
<path d="M7.13172 17.2488C7.54422 17.2488 7.88172 16.9113 7.88172 16.4988C7.88172 16.0863 7.54422 15.7488 7.13172 15.7488C6.71922 15.7488 6.38172 16.0863 6.38172 16.4988C6.38172 16.9113 6.71922 17.2488 7.13172 17.2488Z" fill="currentColor"/>
</svg>
