<svg width="24" height="24" viewBox="0 0 24 24" fill="none" xmlns="http://www.w3.org/2000/svg">
<path d="M11.25 3.75C11.25 3.33579 11.5858 3 12 3C16.9706 3 21 7.02944 21 12C21 16.9706 16.9706 21 12 21C7.02944 21 3 16.9706 3 12C3 10.8468 3.21727 9.74252 3.61379 8.72717C3.76447 8.34134 4.19941 8.1507 4.58524 8.30138C4.97107 8.45206 5.16171 8.887 5.01103 9.27283C4.68132 10.1171 4.5 11.0365 4.5 12C4.5 16.1421 7.85786 19.5 12 19.5C16.1421 19.5 19.5 16.1421 19.5 12C19.5 8.11099 16.54 4.91332 12.75 4.53703V6.75C12.75 7.16421 12.4142 7.5 12 7.5C11.5858 7.5 11.25 7.16421 11.25 6.75V3.75Z" fill="currentColor"/>
<path d="M5.46967 6.53033C5.17678 6.23744 5.17678 5.76256 5.46967 5.46967C5.76256 5.17678 6.23744 5.17678 6.53033 5.46967L12.5303 11.4697C12.8232 11.7626 12.8232 12.2374 12.5303 12.5303C12.2374 12.8232 11.7626 12.8232 11.4697 12.5303L5.46967 6.53033Z" fill="currentColor"/>
</svg>
