<svg width="24" height="24" viewBox="0 0 24 24" fill="none" xmlns="http://www.w3.org/2000/svg">
<path d="M4.18934 2.68934C4.47064 2.40804 4.85217 2.25 5.25 2.25H14.25C14.4489 2.25 14.6397 2.32902 14.7803 2.46967L20.0303 7.71967C20.171 7.86032 20.25 8.05109 20.25 8.25V20.25C20.25 20.6478 20.092 21.0294 19.8107 21.3107C19.5294 21.592 19.1478 21.75 18.75 21.75H5.25C4.85218 21.75 4.47065 21.592 4.18934 21.3107C3.90804 21.0294 3.75 20.6478 3.75 20.25V3.75C3.75 3.35217 3.90804 2.97064 4.18934 2.68934ZM13.5 3.75L5.25 3.75L5.25 20.25H18.75V9H14.25C13.8358 9 13.5 8.66421 13.5 8.25V3.75ZM15 4.81066V7.5H17.6893L15 4.81066Z" fill="currentColor"/>
</svg>
