<svg width="24" height="24" viewBox="0 0 24 24" fill="none" xmlns="http://www.w3.org/2000/svg">
<path d="M16.0996 11.2C16.4996 9.59995 17.7996 8.49995 19.3996 8.49995C21.2996 8.49995 22.6996 9.89995 22.6996 11.9C22.6996 13.9 21.0996 15.4 19.2996 15.4C17.6996 15.4 16.2996 14.3 15.9996 12.7V16.1C15.9996 17.8 14.9996 18.4 13.2996 18.2V16.7C13.9996 16.8 14.2996 16.6 14.2996 15.9V12.8C13.8996 14.4 12.5996 15.5 10.9996 15.5C9.49961 15.5 8.19961 14.4 7.79961 12.9C7.49961 14.4 6.19961 15.5 4.49961 15.5C2.49961 15.5 1.09961 13.9 1.09961 12C1.09961 10.1 2.59961 8.49995 4.29961 8.49995C5.09961 8.49995 5.79961 8.79995 6.29961 9.29995V5.69995H7.99961V10.8C8.39961 9.39995 9.69961 8.49995 11.0996 8.49995C12.6996 8.49995 14.0996 9.59995 14.3996 11.2V8.69995H16.0996V11.2ZM2.89961 12C2.89961 13.1 3.69961 13.9 4.59961 13.9C5.59961 13.9 6.29961 13 6.29961 12C6.29961 11 5.49961 10.1 4.59961 10.1C3.69961 10.1 2.89961 10.9 2.89961 12ZM9.59961 12C9.59961 13.1 10.2996 13.9 11.1996 13.9C12.0996 13.9 12.7996 13.1 12.7996 12C12.7996 10.8 12.0996 9.99995 11.1996 9.99995C10.2996 9.99995 9.59961 10.8 9.59961 12ZM17.7996 12C17.7996 13.1 18.4996 13.9 19.3996 13.9C20.2996 13.9 21.0996 13.1 20.9996 12C20.9996 10.8 20.2996 9.99995 19.3996 9.99995C18.4996 9.99995 17.7996 10.8 17.7996 12Z" fill="currentColor"/>
<path d="M16.1994 6.59995C16.1994 7.09701 15.7965 7.49995 15.2994 7.49995C14.8024 7.49995 14.3994 7.09701 14.3994 6.59995C14.3994 6.10289 14.8024 5.69995 15.2994 5.69995C15.7965 5.69995 16.1994 6.10289 16.1994 6.59995Z" fill="currentColor"/>
</svg>
