<svg width="24" height="24" viewBox="0 0 24 24" fill="none" xmlns="http://www.w3.org/2000/svg">
<path d="M11.057 1.27601C11.3222 1.05724 11.6554 0.9375 11.9995 0.9375C12.3447 0.9375 12.679 1.05808 12.9447 1.27831C13.876 2.03671 15.8919 3.91687 17.0073 6.81594C17.3851 7.79818 17.6561 8.88864 17.7503 10.0806L20.5886 13.4866C20.7387 13.6632 20.8447 13.873 20.8978 14.0987C20.9504 14.3222 20.9496 14.5549 20.8956 14.778L19.7444 19.9911L19.7438 19.9934C19.6882 20.2417 19.5703 20.4717 19.4013 20.6618C19.2323 20.852 19.0177 20.996 18.7777 21.0804C18.5377 21.1648 18.2801 21.1867 18.0293 21.1442C17.7785 21.1016 17.5426 20.996 17.3438 20.8372L17.3435 20.8369L14.7364 18.7513H9.26282L6.65567 20.837L6.65532 20.8373C6.45656 20.9961 6.22068 21.1017 5.96985 21.1443C5.71902 21.1868 5.4615 21.1649 5.22149 21.0805C4.98149 20.9961 4.76688 20.8521 4.59786 20.6619C4.42884 20.4718 4.31097 20.2418 4.25532 19.9935L4.2548 19.9912L3.1036 14.7781C3.04958 14.555 3.04878 14.3223 3.10138 14.0988C3.15452 13.8729 3.26062 13.663 3.41089 13.4863L6.19295 10.1549C6.28028 8.93196 6.5567 7.81459 6.94683 6.81017C8.07307 3.91057 10.1146 2.03086 11.057 1.27601ZM16.2733 10.4813C16.2666 10.4364 16.2641 10.3911 16.2655 10.3459C16.1941 9.23621 15.9473 8.23832 15.6073 7.35453C14.6257 4.80296 12.8341 3.12307 11.9994 2.44298L11.9992 2.44315C11.1581 3.11608 9.33784 4.79728 8.34506 7.35327C7.9917 8.26302 7.73883 9.29403 7.67779 10.4438C7.67785 10.4696 7.67659 10.4954 7.67399 10.5211C7.58689 12.4406 8.03521 14.6879 9.43818 17.2513H14.5563C15.9396 14.6703 16.3718 12.4098 16.2733 10.4813ZM19.4333 14.4434L17.7095 12.3747C17.5231 14.0348 16.9865 15.8504 15.9588 17.8082L18.2802 19.6653L19.4328 14.4458L19.4333 14.4434ZM6.25099 12.4256L4.56585 14.4434L4.56638 14.4458L5.71899 19.6654L8.03596 17.8118C6.99791 15.8734 6.44915 14.0735 6.25099 12.4256ZM9.74951 21.0013C9.74951 20.5871 10.0853 20.2513 10.4995 20.2513H13.4995C13.9137 20.2513 14.2495 20.5871 14.2495 21.0013C14.2495 21.4155 13.9137 21.7513 13.4995 21.7513H10.4995C10.0853 21.7513 9.74951 21.4155 9.74951 21.0013ZM13.1245 9.00128C13.1245 9.6226 12.6208 10.1263 11.9995 10.1263C11.3782 10.1263 10.8745 9.6226 10.8745 9.00128C10.8745 8.37996 11.3782 7.87628 11.9995 7.87628C12.6208 7.87628 13.1245 8.37996 13.1245 9.00128Z" fill="currentColor"/>
</svg>
