<svg width="24" height="24" viewBox="0 0 24 24" fill="none" xmlns="http://www.w3.org/2000/svg">
<path d="M19.5 17.25C19.9142 17.25 20.25 16.9142 20.25 16.5V6C20.25 5.58579 19.9142 5.25 19.5 5.25H4.5C4.08579 5.25 3.75 5.58579 3.75 6V16.5C3.75 16.9142 4.08579 17.25 4.5 17.25H19.5ZM21.75 16.5C21.75 17.7426 20.7426 18.75 19.5 18.75H4.5C3.25736 18.75 2.25 17.7426 2.25 16.5V6C2.25 4.75736 3.25736 3.75 4.5 3.75H19.5C20.7426 3.75 21.75 4.75736 21.75 6V16.5Z" fill="currentColor"/>
<path d="M8.25 21C8.25 20.5858 8.58579 20.25 9 20.25H15C15.4142 20.25 15.75 20.5858 15.75 21C15.75 21.4142 15.4142 21.75 15 21.75H9C8.58579 21.75 8.25 21.4142 8.25 21Z" fill="currentColor"/>
<path d="M10.1461 7.58874C10.39 7.45823 10.6859 7.47253 10.916 7.62596L15.416 10.626C15.6247 10.7651 15.75 10.9992 15.75 11.25C15.75 11.5008 15.6247 11.7349 15.416 11.874L10.916 14.874C10.6859 15.0275 10.39 15.0418 10.1461 14.9113C9.90224 14.7807 9.75 14.5266 9.75 14.25V8.25C9.75 7.9734 9.90224 7.71926 10.1461 7.58874ZM11.25 9.65139V12.8486L13.6479 11.25L11.25 9.65139Z" fill="currentColor"/>
</svg>
