<svg width="24" height="24" viewBox="0 0 24 24" fill="none" xmlns="http://www.w3.org/2000/svg">
<path d="M2 9.32284H3.69186C4.05704 9.32284 4.4018 9.3936 4.72572 9.53494C5.04982 9.67646 5.33392 9.86938 5.57828 10.1137C5.8226 10.3581 6.01534 10.6422 6.15704 10.9661C6.24364 11.1647 6.30352 11.3711 6.33706 11.5852C6.41886 11.0248 6.67112 10.5329 7.09431 10.1098C7.60861 9.58504 8.23855 9.32284 8.98443 9.32284C9.72517 9.32284 10.3552 9.58504 10.8748 10.1098C11.2578 10.4892 11.5016 10.9239 11.6077 11.4136V9.32284L14.2847 11.9999L16.9698 9.32284V11.4107C17.0752 10.9222 17.3165 10.4883 17.695 10.1098C18.2094 9.58504 18.8396 9.32284 19.5855 9.32284C20.3262 9.32284 20.9559 9.58504 21.4756 10.1098C21.6967 10.3287 21.871 10.5666 22 10.8223V2H2V9.32284ZM19.5855 14.6772C18.8447 14.6772 18.2146 14.415 17.695 13.8902C17.3165 13.5154 17.0751 13.0826 16.9697 12.5924V14.6771H16.0668V11.4753L14.2847 13.2652L12.4951 11.4753V14.6772H11.6077V12.5926C11.5016 13.0856 11.2578 13.5183 10.8748 13.8902C10.3552 14.415 9.72519 14.6772 8.98445 14.6772C8.24395 14.6772 7.61377 14.415 7.09434 13.8902C6.67074 13.471 6.4185 12.9794 6.33684 12.4161C6.30316 12.6297 6.24342 12.8357 6.15704 13.0338C6.01534 13.3579 5.82388 13.6422 5.58216 13.8864C5.34042 14.1307 5.05628 14.3236 4.7296 14.4649C4.40294 14.6066 4.0571 14.6772 3.69188 14.6772H2V22H22V13.185C21.871 13.4402 21.6967 13.6756 21.4756 13.8902C20.956 14.415 20.3262 14.6772 19.5855 14.6772ZM5.33526 12.6866C5.24278 12.9028 5.11546 13.0929 4.9533 13.2576C4.79132 13.4222 4.60228 13.5508 4.38632 13.6433C4.17038 13.736 3.93876 13.7822 3.69186 13.7822H2.79694V10.2177H3.69186C3.9336 10.2177 4.16264 10.264 4.37858 10.3567C4.59456 10.4492 4.78486 10.5778 4.94962 10.7423C5.11416 10.9071 5.24276 11.0972 5.33526 11.3134C5.42796 11.5293 5.4742 11.7583 5.4742 11.9999C5.4742 12.2418 5.42796 12.4705 5.33526 12.6866ZM20.8428 13.2652C21.1926 12.9103 21.3676 12.4888 21.3676 11.9999C21.3676 11.5114 21.1926 11.0923 20.8428 10.7424C20.4932 10.3926 20.0741 10.2178 19.5855 10.2178C19.0969 10.2178 18.6749 10.3926 18.32 10.7424C17.9755 11.0923 17.8034 11.5114 17.8034 11.9999C17.8034 12.4887 17.9755 12.9103 18.32 13.2652C18.6749 13.61 19.0968 13.7823 19.5855 13.7823C20.0741 13.7823 20.4931 13.61 20.8428 13.2652ZM10.7668 11.9999C10.7668 12.4888 10.5919 12.9103 10.2422 13.2652C9.89231 13.61 9.47313 13.7823 8.98443 13.7823C8.49579 13.7823 8.07403 13.61 7.71915 13.2652C7.37457 12.9103 7.20231 12.4887 7.20231 11.9999C7.20231 11.5114 7.37457 11.0923 7.71915 10.7424C8.07403 10.3926 8.49579 10.2178 8.98443 10.2178C9.47313 10.2178 9.89229 10.3926 10.2422 10.7424C10.5919 11.0923 10.7668 11.5114 10.7668 11.9999Z" fill="url(#domo-rainbow)"/>
<defs>
<linearGradient id="domo-rainbow" x1="0" y1="0" x2="1" y2="1">
<stop stop-color="#F43F5E"/>
<stop offset="0.2" stop-color="#F97316"/>
<stop offset="0.4" stop-color="#FACC15"/>
<stop offset="0.6" stop-color="#22C55E"/>
<stop offset="0.8" stop-color="#3B82F6"/>
<stop offset="1" stop-color="#8B5CF6"/>
</linearGradient>
</defs>
</svg>
