<svg width="24" height="24" viewBox="0 0 24 24" fill="none" xmlns="http://www.w3.org/2000/svg">
<path d="M10.5 6.74915C9.25736 6.74915 8.25 7.75651 8.25 8.99915C8.25 9.97881 8.87611 10.8122 9.75 11.1211V12.8772C8.87611 13.1861 8.25 14.0195 8.25 14.9991C8.25 16.2418 9.25736 17.2491 10.5 17.2491C11.4877 17.2491 12.3267 16.6127 12.6295 15.7276C13.7464 15.6483 14.6678 15.3468 15.3438 14.7748C16.1663 14.0789 16.5 13.0912 16.5 11.9991C16.5 10.9071 16.1662 9.91935 15.3438 9.22346C14.6678 8.65147 13.7464 8.34999 12.6295 8.27067C12.3267 7.38555 11.4877 6.74915 10.5 6.74915ZM9.75 8.99915C9.75 8.58493 10.0858 8.24915 10.5 8.24915C10.9142 8.24915 11.25 8.58493 11.25 8.99915C11.25 9.41336 10.9142 9.74915 10.5 9.74915C10.0858 9.74915 9.75 9.41336 9.75 8.99915ZM12.6131 9.77379C13.4759 9.84717 14.0308 10.0773 14.3749 10.3685C14.7713 10.7039 15 11.2162 15 11.9991C15 12.7821 14.7713 13.2944 14.3749 13.6297C14.0308 13.9209 13.4759 14.1511 12.6131 14.2245C12.3829 13.5968 11.8811 13.1002 11.25 12.8772V11.1211C11.8811 10.8981 12.3829 10.4015 12.6131 9.77379ZM10.5 14.2491C10.9142 14.2491 11.25 14.5849 11.25 14.9991C11.25 15.4134 10.9142 15.7491 10.5 15.7491C10.0858 15.7491 9.75 15.4134 9.75 14.9991C9.75 14.5849 10.0858 14.2491 10.5 14.2491Z" fill="currentColor"/>
<path d="M12.7183 2.53667C12.2706 2.29246 11.7294 2.29246 11.2817 2.53667L3.78172 6.62758C3.29983 6.89043 3 7.39551 3 7.94442V16.054C3 16.6029 3.29983 17.108 3.78172 17.3708L11.2817 21.4617C11.7294 21.7059 12.2706 21.7059 12.7183 21.4617L20.2183 17.3708C20.7002 17.108 21 16.6029 21 16.054V7.94442C21 7.39551 20.7002 6.89043 20.2183 6.62758L12.7183 2.53667ZM4.5 7.94442L12 3.85352L19.5 7.94442V16.054L12 20.1449L4.5 16.054V7.94442Z" fill="currentColor"/>
</svg>
