<svg width="24" height="24" viewBox="0 0 24 24" fill="none" xmlns="http://www.w3.org/2000/svg">
<path d="M11.2636 1.43037C11.4878 1.30196 11.7416 1.23438 12 1.23438C12.2584 1.23438 12.5122 1.30196 12.7364 1.43037L20.986 6.07079C21.1859 6.18434 21.3569 6.34182 21.4862 6.53081C21.5091 6.55996 21.5301 6.59118 21.549 6.62438C21.5632 6.64947 21.5759 6.67503 21.587 6.70094C21.6927 6.90961 21.7487 7.14042 21.75 7.37519L21.75 7.37922L21.75 16.627C21.7486 16.8924 21.6772 17.1527 21.543 17.3817C21.4089 17.6107 21.2168 17.8003 20.986 17.9314L20.9833 17.9329L12.7363 22.5718C12.5122 22.7002 12.2584 22.7678 12 22.7678C11.7416 22.7678 11.4878 22.7002 11.2637 22.5718L3.01668 17.9329L3.01402 17.9314C2.78323 17.8003 2.59108 17.6107 2.45695 17.3817C2.32281 17.1527 2.25144 16.8924 2.25001 16.627L2.25 16.623V7.37519C2.25126 7.14038 2.30729 6.90953 2.41309 6.70083C2.42337 6.67678 2.43501 6.65303 2.44802 6.62968C2.46765 6.59447 2.4897 6.56145 2.51384 6.53072C2.64318 6.34177 2.8141 6.18432 3.01402 6.07079L3.01668 6.06928L11.2636 1.43037ZM3.75 8.21407V16.6193C3.75007 16.6209 3.75051 16.6223 3.75127 16.6236C3.75205 16.625 3.75315 16.6261 3.75445 16.6269C3.75436 16.6268 3.75455 16.6269 3.75445 16.6269L11.2598 20.8486L11.3307 12.4396L3.75 8.21407ZM12.8307 12.4397L12.7599 20.8375L20.2453 16.627C20.2452 16.6271 20.2454 16.627 20.2453 16.627C20.2466 16.6262 20.2479 16.625 20.2487 16.6236C20.2495 16.6223 20.2499 16.6209 20.25 16.6194V8.2249L12.8307 12.4397ZM19.4734 6.94095L12 2.73719L4.53671 6.93529L12.0809 11.1405L19.4734 6.94095Z" fill="currentColor"/>
</svg>
