<svg width="24" height="24" viewBox="0 0 24 24" fill="none" xmlns="http://www.w3.org/2000/svg">
<path d="M12.378 1.60217C12.1445 1.46594 11.8558 1.46594 11.6222 1.60217L2.62223 6.85217C2.32956 7.02289 2.1877 7.36865 2.27613 7.69574C2.36455 8.02282 2.6613 8.25 3.00013 8.25H11.7974L15.7501 10.5558V13.5C15.7501 13.9142 16.0859 14.25 16.5001 14.25H21.0001C21.4143 14.25 21.7501 13.9142 21.7501 13.5V7.5C21.7501 7.23325 21.6084 6.98657 21.378 6.85217L12.378 1.60217ZM12.0001 6.75H5.77432L12.0001 3.11828L20.2501 7.93078V12.75H17.2501V10.125C17.2501 9.85825 17.1084 9.61157 16.878 9.47717L12.378 6.85217C12.2633 6.78526 12.1329 6.75 12.0001 6.75Z" fill="currentColor"/>
<path d="M2.6221 17.1478L11.6221 22.3978C11.8556 22.5341 12.1444 22.5341 12.3779 22.3978L21.3779 17.1478C21.6706 16.9771 21.8124 16.6314 21.724 16.3043C21.6356 15.9772 21.3388 15.75 21 15.75L12.2028 15.75L8.25 13.4442V10.5C8.25 10.0858 7.91421 9.75 7.5 9.75H3C2.58579 9.75 2.25 10.0858 2.25 10.5V16.5C2.25 16.7667 2.39168 17.0134 2.6221 17.1478ZM12 17.25L18.2258 17.25L12 20.8817L3.75 16.0692L3.75 11.25H6.75V13.875C6.75 14.1418 6.89168 14.3884 7.1221 14.5228L11.6221 17.1478C11.7368 17.2147 11.8672 17.25 12 17.25Z" fill="currentColor"/>
</svg>
