<svg width="32" height="32" viewBox="0 0 32 32" fill="none" xmlns="http://www.w3.org/2000/svg">
<path fill-rule="evenodd" clip-rule="evenodd" d="M25 3.5C23.067 3.5 21.5 5.067 21.5 7C21.5 8.58551 22.5543 9.92479 24 10.3551V27C24 27.5523 24.4477 28 25 28C25.5523 28 26 27.5523 26 27V10.3551C27.4457 9.92479 28.5 8.58551 28.5 7C28.5 5.067 26.933 3.5 25 3.5ZM23.5 7C23.5 6.17157 24.1716 5.5 25 5.5C25.8284 5.5 26.5 6.17157 26.5 7C26.5 7.82843 25.8284 8.5 25 8.5C24.1716 8.5 23.5 7.82843 23.5 7Z" fill="currentColor"/>
<path fill-rule="evenodd" clip-rule="evenodd" d="M8 24.3551C9.44574 23.9248 10.5 22.5855 10.5 21C10.5 19.067 8.933 17.5 7 17.5C5.067 17.5 3.5 19.067 3.5 21C3.5 22.5855 4.55426 23.9248 6 24.3551V27C6 27.5523 6.44772 28 7 28C7.55228 28 8 27.5523 8 27V24.3551ZM5.5 21C5.5 20.1716 6.17157 19.5 7 19.5C7.82843 19.5 8.5 20.1716 8.5 21C8.5 21.8284 7.82843 22.5 7 22.5C6.17157 22.5 5.5 21.8284 5.5 21Z" fill="currentColor"/>
<path fill-rule="evenodd" clip-rule="evenodd" d="M17 17.3551C18.4457 16.9248 19.5 15.5855 19.5 14C19.5 12.067 17.933 10.5 16 10.5C14.067 10.5 12.5 12.067 12.5 14C12.5 15.5855 13.5543 16.9248 15 17.3551V27C15 27.5523 15.4477 28 16 28C16.5523 28 17 27.5523 17 27V17.3551ZM14.5 14C14.5 13.1716 15.1716 12.5 16 12.5C16.8284 12.5 17.5 13.1716 17.5 14C17.5 14.8284 16.8284 15.5 16 15.5C15.1716 15.5 14.5 14.8284 14.5 14Z" fill="currentColor"/>
</svg>
