<svg width="24" height="24" viewBox="0 0 24 24" fill="none" xmlns="http://www.w3.org/2000/svg">
<path d="M5.625 6.75C6.24632 6.75 6.75 6.24632 6.75 5.625C6.75 5.00368 6.24632 4.5 5.625 4.5C5.00368 4.5 4.5 5.00368 4.5 5.625C4.5 6.24632 5.00368 6.75 5.625 6.75Z" fill="currentColor"/>
<path d="M9.875 6.75C10.4963 6.75 11 6.24632 11 5.625C11 5.00368 10.4963 4.5 9.875 4.5C9.25368 4.5 8.75 5.00368 8.75 5.625C8.75 6.24632 9.25368 6.75 9.875 6.75Z" fill="currentColor"/>
<path d="M14.125 6.75C14.7463 6.75 15.25 6.24632 15.25 5.625C15.25 5.00368 14.7463 4.5 14.125 4.5C13.5037 4.5 13 5.00368 13 5.625C13 6.24632 13.5037 6.75 14.125 6.75Z" fill="currentColor"/>
<path d="M18.375 6.75C18.9963 6.75 19.5 6.24632 19.5 5.625C19.5 5.00368 18.9963 4.5 18.375 4.5C17.7537 4.5 17.25 5.00368 17.25 5.625C17.25 6.24632 17.7537 6.75 18.375 6.75Z" fill="currentColor"/>
<path d="M5.625 11C6.24632 11 6.75 10.4963 6.75 9.875C6.75 9.25368 6.24632 8.75 5.625 8.75C5.00368 8.75 4.5 9.25368 4.5 9.875C4.5 10.4963 5.00368 11 5.625 11Z" fill="currentColor"/>
<path d="M9.875 11C10.4963 11 11 10.4963 11 9.875C11 9.25368 10.4963 8.75 9.875 8.75C9.25368 8.75 8.75 9.25368 8.75 9.875C8.75 10.4963 9.25368 11 9.875 11Z" fill="currentColor"/>
<path d="M14.125 11C14.7463 11 15.25 10.4963 15.25 9.875C15.25 9.25368 14.7463 8.75 14.125 8.75C13.5037 8.75 13 9.25368 13 9.875C13 10.4963 13.5037 11 14.125 11Z" fill="currentColor"/>
<path d="M18.375 11C18.9963 11 19.5 10.4963 19.5 9.875C19.5 9.25368 18.9963 8.75 18.375 8.75C17.7537 8.75 17.25 9.25368 17.25 9.875C17.25 10.4963 17.7537 11 18.375 11Z" fill="currentColor"/>
<path d="M5.625 15.25C6.24632 15.25 6.75 14.7463 6.75 14.125C6.75 13.5037 6.24632 13 5.625 13C5.00368 13 4.5 13.5037 4.5 14.125C4.5 14.7463 5.00368 15.25 5.625 15.25Z" fill="currentColor"/>
<path d="M9.875 15.25C10.4963 15.25 11 14.7463 11 14.125C11 13.5037 10.4963 13 9.875 13C9.25368 13 8.75 13.5037 8.75 14.125C8.75 14.7463 9.25368 15.25 9.875 15.25Z" fill="currentColor"/>
<path d="M14.125 15.25C14.7463 15.25 15.25 14.7463 15.25 14.125C15.25 13.5037 14.7463 13 14.125 13C13.5037 13 13 13.5037 13 14.125C13 14.7463 13.5037 15.25 14.125 15.25Z" fill="currentColor"/>
<path d="M18.375 15.25C18.9963 15.25 19.5 14.7463 19.5 14.125C19.5 13.5037 18.9963 13 18.375 13C17.7537 13 17.25 13.5037 17.25 14.125C17.25 14.7463 17.7537 15.25 18.375 15.25Z" fill="currentColor"/>
<path d="M5.625 19.5C6.24632 19.5 6.75 18.9963 6.75 18.375C6.75 17.7537 6.24632 17.25 5.625 17.25C5.00368 17.25 4.5 17.7537 4.5 18.375C4.5 18.9963 5.00368 19.5 5.625 19.5Z" fill="currentColor"/>
<path d="M9.875 19.5C10.4963 19.5 11 18.9963 11 18.375C11 17.7537 10.4963 17.25 9.875 17.25C9.25368 17.25 8.75 17.7537 8.75 18.375C8.75 18.9963 9.25368 19.5 9.875 19.5Z" fill="currentColor"/>
<path d="M14.125 19.5C14.7463 19.5 15.25 18.9963 15.25 18.375C15.25 17.7537 14.7463 17.25 14.125 17.25C13.5037 17.25 13 17.7537 13 18.375C13 18.9963 13.5037 19.5 14.125 19.5Z" fill="currentColor"/>
<path d="M18.375 19.5C18.9963 19.5 19.5 18.9963 19.5 18.375C19.5 17.7537 18.9963 17.25 18.375 17.25C17.7537 17.25 17.25 17.7537 17.25 18.375C17.25 18.9963 17.7537 19.5 18.375 19.5Z" fill="currentColor"/>
</svg>
