<svg width="24" height="24" viewBox="0 0 24 24" fill="none" xmlns="http://www.w3.org/2000/svg">
<path d="M13.5 18.375C13.5 18.6717 13.412 18.9617 13.2472 19.2084C13.0824 19.455 12.8481 19.6473 12.574 19.7608C12.2999 19.8743 11.9983 19.9041 11.7074 19.8462C11.4164 19.7883 11.1491 19.6454 10.9393 19.4357C10.7296 19.2259 10.5867 18.9586 10.5288 18.6676C10.4709 18.3767 10.5006 18.0751 10.6142 17.801C10.7277 17.5269 10.92 17.2926 11.1666 17.1278C11.4133 16.963 11.7033 16.875 12 16.875C12.3978 16.875 12.7794 17.033 13.0607 17.3143C13.342 17.5956 13.5 17.9772 13.5 18.375ZM12 13.5C12.2967 13.5 12.5867 13.412 12.8334 13.2472C13.08 13.0824 13.2723 12.8481 13.3858 12.574C13.4994 12.2999 13.5291 11.9983 13.4712 11.7074C13.4133 11.4164 13.2704 11.1491 13.0607 10.9393C12.8509 10.7296 12.5836 10.5867 12.2926 10.5288C12.0017 10.4709 11.7001 10.5006 11.426 10.6142C11.1519 10.7277 10.9176 10.92 10.7528 11.1666C10.588 11.4133 10.5 11.7033 10.5 12C10.5 12.3978 10.658 12.7794 10.9393 13.0607C11.2206 13.342 11.6022 13.5 12 13.5ZM12 7.125C12.2967 7.125 12.5867 7.03703 12.8334 6.8722C13.08 6.70738 13.2723 6.47311 13.3858 6.19902C13.4994 5.92494 13.5291 5.62333 13.4712 5.33236C13.4133 5.04139 13.2704 4.77412 13.0607 4.56434C12.8509 4.35456 12.5836 4.2117 12.2926 4.15382C12.0017 4.09594 11.7001 4.12565 11.426 4.23918C11.1519 4.35271 10.9176 4.54497 10.7528 4.79164C10.588 5.03832 10.5 5.32833 10.5 5.625C10.5 6.02282 10.658 6.40435 10.9393 6.68566C11.2206 6.96696 11.6022 7.125 12 7.125Z" fill="currentColor"/>
</svg>
