<svg width="24" height="24" viewBox="0 0 24 24" fill="none" xmlns="http://www.w3.org/2000/svg">
<path d="M18.375 10.5C18.6717 10.5 18.9617 10.588 19.2084 10.7528C19.455 10.9176 19.6473 11.1519 19.7608 11.426C19.8744 11.7001 19.9041 12.0017 19.8462 12.2926C19.7883 12.5836 19.6454 12.8509 19.4357 13.0607C19.2259 13.2704 18.9586 13.4133 18.6676 13.4712C18.3767 13.5291 18.0751 13.4994 17.801 13.3858C17.5269 13.2723 17.2926 13.08 17.1278 12.8334C16.963 12.5867 16.875 12.2967 16.875 12C16.875 11.6022 17.033 11.2206 17.3143 10.9393C17.5956 10.658 17.9772 10.5 18.375 10.5ZM13.5 12C13.5 11.7033 13.412 11.4133 13.2472 11.1666C13.0824 10.92 12.8481 10.7277 12.574 10.6142C12.2999 10.5006 11.9983 10.4709 11.7074 10.5288C11.4164 10.5867 11.1491 10.7296 10.9393 10.9393C10.7296 11.1491 10.5867 11.4164 10.5288 11.7074C10.4709 11.9983 10.5006 12.2999 10.6142 12.574C10.7277 12.8481 10.92 13.0824 11.1666 13.2472C11.4133 13.412 11.7033 13.5 12 13.5C12.3978 13.5 12.7794 13.342 13.0607 13.0607C13.342 12.7794 13.5 12.3978 13.5 12ZM7.125 12C7.125 11.7033 7.03702 11.4133 6.8722 11.1666C6.70738 10.92 6.47311 10.7277 6.19902 10.6142C5.92494 10.5006 5.62333 10.4709 5.33236 10.5288C5.04139 10.5867 4.77412 10.7296 4.56434 10.9393C4.35456 11.1491 4.2117 11.4164 4.15382 11.7074C4.09594 11.9983 4.12565 12.2999 4.23918 12.574C4.35271 12.8481 4.54497 13.0824 4.79164 13.2472C5.03832 13.412 5.32833 13.5 5.625 13.5C6.02282 13.5 6.40435 13.342 6.68566 13.0607C6.96696 12.7794 7.125 12.3978 7.125 12Z" fill="currentColor"/>
</svg>
