<svg width="32" height="32" viewBox="0 0 32 32" fill="none" xmlns="http://www.w3.org/2000/svg">
<path fill-rule="evenodd" clip-rule="evenodd" d="M6.5 14C7.32843 14 8 13.3284 8 12.5C8 11.6716 7.32843 11 6.5 11C5.67157 11 5 11.6716 5 12.5C5 13.3284 5.67157 14 6.5 14ZM6.5 16C8.433 16 10 14.433 10 12.5C10 10.567 8.433 9 6.5 9C4.567 9 3 10.567 3 12.5C3 14.433 4.567 16 6.5 16Z" fill="currentColor"/>
<path fill-rule="evenodd" clip-rule="evenodd" d="M26.5 7C27.3284 7 28 6.32843 28 5.5C28 4.67157 27.3284 4 26.5 4C25.6716 4 25 4.67157 25 5.5C25 6.32843 25.6716 7 26.5 7ZM26.5 9C28.433 9 30 7.433 30 5.5C30 3.567 28.433 2 26.5 2C24.567 2 23 3.567 23 5.5C23 7.433 24.567 9 26.5 9Z" fill="currentColor"/>
<path fill-rule="evenodd" clip-rule="evenodd" d="M5.5 22C6.32843 22 7 21.3284 7 20.5C7 19.6716 6.32843 19 5.5 19C4.67157 19 4 19.6716 4 20.5C4 21.3284 4.67157 22 5.5 22ZM5.5 24C7.433 24 9 22.433 9 20.5C9 18.567 7.433 17 5.5 17C3.567 17 2 18.567 2 20.5C2 22.433 3.567 24 5.5 24Z" fill="currentColor"/>
<path fill-rule="evenodd" clip-rule="evenodd" d="M10.5 29C11.3284 29 12 28.3284 12 27.5C12 26.6716 11.3284 26 10.5 26C9.67157 26 9 26.6716 9 27.5C9 28.3284 9.67157 29 10.5 29ZM10.5 31C12.433 31 14 29.433 14 27.5C14 25.567 12.433 24 10.5 24C8.567 24 7 25.567 7 27.5C7 29.433 8.567 31 10.5 31Z" fill="currentColor"/>
<path fill-rule="evenodd" clip-rule="evenodd" d="M20.5 26C21.3284 26 22 25.3284 22 24.5C22 23.6716 21.3284 23 20.5 23C19.6716 23 19 23.6716 19 24.5C19 25.3284 19.6716 26 20.5 26ZM20.5 28C22.433 28 24 26.433 24 24.5C24 22.567 22.433 21 20.5 21C18.567 21 17 22.567 17 24.5C17 26.433 18.567 28 20.5 28Z" fill="currentColor"/>
<path fill-rule="evenodd" clip-rule="evenodd" d="M15.5 13C16.3284 13 17 12.3284 17 11.5C17 10.6716 16.3284 10 15.5 10C14.6716 10 14 10.6716 14 11.5C14 12.3284 14.6716 13 15.5 13ZM15.5 15C17.433 15 19 13.433 19 11.5C19 9.567 17.433 8 15.5 8C13.567 8 12 9.567 12 11.5C12 13.433 13.567 15 15.5 15Z" fill="currentColor"/>
<path fill-rule="evenodd" clip-rule="evenodd" d="M13.5 21C14.3284 21 15 20.3284 15 19.5C15 18.6716 14.3284 18 13.5 18C12.6716 18 12 18.6716 12 19.5C12 20.3284 12.6716 21 13.5 21ZM13.5 23C15.433 23 17 21.433 17 19.5C17 17.567 15.433 16 13.5 16C11.567 16 10 17.567 10 19.5C10 21.433 11.567 23 13.5 23Z" fill="currentColor"/>
</svg>
