<svg width="24" height="24" viewBox="0 0 24 24" fill="none" xmlns="http://www.w3.org/2000/svg">
<path d="M9.75 2.25H7.5V4.5H9.75V2.25Z" fill="currentColor"/>
<path d="M16.5 2.25H14.25V4.5H16.5V2.25Z" fill="currentColor"/>
<path d="M7.5 6.5625H9.75V8.8125H7.5V6.5625Z" fill="currentColor"/>
<path d="M16.5 6.5625H14.25V8.8125H16.5V6.5625Z" fill="currentColor"/>
<path d="M7.5 10.875H9.75V13.125H7.5V10.875Z" fill="currentColor"/>
<path d="M16.5 10.875H14.25V13.125H16.5V10.875Z" fill="currentColor"/>
<path d="M7.5 15.1875H9.75V17.4375H7.5V15.1875Z" fill="currentColor"/>
<path d="M16.5 15.1875H14.25V17.4375H16.5V15.1875Z" fill="currentColor"/>
<path d="M7.5 19.5H9.75V21.75H7.5V19.5Z" fill="currentColor"/>
<path d="M16.5 19.5H14.25V21.75H16.5V19.5Z" fill="currentColor"/>
</svg>
