<svg width="32" height="32" viewBox="0 0 32 32" fill="none" xmlns="http://www.w3.org/2000/svg">
<path d="M14.67 12.002C15.4985 12.002 16.17 11.3304 16.17 10.502C16.17 9.67359 15.4985 9.00201 14.67 9.00201C13.8416 9.00201 13.17 9.67359 13.17 10.502C13.17 11.3304 13.8416 12.002 14.67 12.002Z" fill="currentColor"/>
<path fill-rule="evenodd" clip-rule="evenodd" d="M29.2365 2.00005C29.2987 1.99959 29.6659 1.99689 29.9683 2.29927C30.2317 2.56263 30.2646 2.87324 30.2644 3.01766C30.2642 3.16631 30.2314 3.28174 30.2144 3.33509C30.1789 3.44731 30.1304 3.53596 30.1075 3.5766C30.0541 3.6714 29.9865 3.76881 29.9265 3.85155C29.7997 4.02626 29.6194 4.25359 29.4084 4.5103C28.9825 5.02866 28.3874 5.72055 27.7342 6.46407C26.5434 7.81947 25.1369 9.3724 24.1651 10.4054C24.1168 12.3375 23.7122 13.9401 22.7933 15.2125C21.9263 16.413 20.6804 17.2111 19.1189 17.7514C18.7563 20.3292 16.5654 21.4231 15.6598 21.8752L15.6173 21.8965C15.3073 22.0515 14.9392 22.0349 14.6444 21.8527C14.3495 21.6705 14.1701 21.3486 14.1701 21.0021V19.0179C13.8097 19.0303 13.4788 19.0502 13.1731 19.0781C13.5004 20.0269 13.5007 20.927 13.3036 21.7272C13.1049 22.5337 12.7164 23.2007 12.3279 23.6984C12.76 25.0407 12.4668 26.3368 11.949 27.3553C11.3623 28.5092 10.43 29.4338 9.6662 29.8703C9.43592 30.0019 9.16281 30.0366 8.90694 29.9668C8.65107 29.897 8.4334 29.7285 8.30181 29.4982C7.51845 28.1273 6.71668 27.3673 5.86885 26.5637C5.72798 26.4302 5.58583 26.2954 5.44229 26.1565C4.3993 25.1469 3.40515 24.0094 2.71548 21.8C0.795744 15.6501 2.93356 9.98928 6.79778 6.67857C10.5517 3.46236 15.9791 2.44524 20.8 5.39848C22.7974 4.69401 24.6992 3.87565 26.1609 3.22509C26.4919 3.07775 26.8054 2.93674 27.0925 2.80757L27.0936 2.8071C27.4765 2.63482 27.8131 2.48344 28.0813 2.36649C28.3162 2.26407 28.5279 2.17515 28.6925 2.11544C28.7698 2.08739 28.8718 2.05273 28.9755 2.0299C29.0231 2.01941 29.1179 2.00056 29.2328 2.00007L29.2365 2.00005ZM11.4159 17.3315C11.0228 17.4237 10.6517 17.539 10.297 17.6816C8.95818 18.2201 7.95687 19.1062 6.90446 20.3588C6.54919 20.7816 6.60396 21.4124 7.02681 21.7677C7.44966 22.123 8.08045 22.0682 8.43572 21.6453C9.38331 20.5175 10.132 19.9037 11.0432 19.5372C11.0899 19.5184 11.1373 19.5002 11.1855 19.4824C11.4875 20.1731 11.4809 20.7646 11.3616 21.2489C11.1975 21.9154 10.7956 22.4623 10.463 22.795C10.1586 23.0993 10.0832 23.5643 10.2757 23.9493C10.6926 24.7831 10.5743 25.6461 10.1662 26.4489C9.95498 26.8642 9.68209 27.2284 9.41167 27.5174C8.66184 26.4497 7.89683 25.727 7.22654 25.0939C7.09153 24.9663 6.95971 24.8418 6.83329 24.7194C5.9381 23.8529 5.18225 22.9905 4.62463 21.2041C2.95327 15.8498 4.81547 11.0106 8.09902 8.19737C11.3822 5.38445 16.0396 4.61696 20.1153 7.33412C20.3742 7.50668 20.6985 7.54895 20.9929 7.4485C22.7643 6.84412 24.4727 6.14288 25.8941 5.527C24.6873 6.89198 23.3342 8.37845 22.4713 9.28576C22.3933 9.36186 22.3265 9.45211 22.275 9.55511C22.0251 10.0557 21.6946 10.5069 21.3062 10.8822C21.2214 10.9642 20.7992 11.2502 20.123 11.4518C19.4756 11.6448 18.6978 11.7282 17.9126 11.5319C17.3768 11.3979 16.8339 11.7237 16.6999 12.2595C16.566 12.7953 16.8917 13.3382 17.4275 13.4722C18.6424 13.7759 19.7942 13.6368 20.6943 13.3685C21.0728 13.2556 21.4271 13.1137 21.7386 12.9585C21.5869 13.3724 21.397 13.7299 21.1719 14.0416C20.5352 14.9231 19.516 15.5775 17.8954 16.0405C17.4661 16.1632 17.1701 16.5556 17.1701 17.0021C17.1701 18.0175 16.7354 18.703 16.1701 19.2011V18.0021C16.1701 17.4498 15.7224 17.0021 15.1701 17.0021C13.717 17.0021 12.5181 17.0805 11.4737 17.3182C11.4544 17.322 11.4351 17.3265 11.4159 17.3315Z" fill="currentColor"/>
</svg>
