<svg width="24" height="24" viewBox="0 0 24 24" fill="none" xmlns="http://www.w3.org/2000/svg">
<path d="M7.70624 3.72134C8.10451 3.60754 8.33513 3.19242 8.22133 2.79415C8.10754 2.39587 7.69242 2.16526 7.29415 2.27905L4.66915 3.02906C4.27087 3.14286 4.04026 3.55797 4.15405 3.95625C4.26785 4.35453 4.68296 4.58514 5.08124 4.47135L7.70624 3.72134Z" fill="currentColor"/>
<path d="M19.3312 4.09634C19.7295 3.98254 19.9601 3.56743 19.8463 3.16915C19.7325 2.77088 19.3174 2.54026 18.9192 2.65405L5.79415 6.40404C5.39588 6.51784 5.16526 6.93295 5.27905 7.33123C5.39284 7.7295 5.80796 7.96012 6.20623 7.84633L19.3312 4.09634Z" fill="currentColor"/>
<path d="M17.8312 8.22134C18.2295 8.10754 18.4601 7.69243 18.3463 7.29415C18.2325 6.89588 17.8174 6.66526 17.4192 6.77905L6.91915 9.77903C6.52088 9.89282 6.29026 10.3079 6.40405 10.7062C6.51784 11.1045 6.93296 11.3351 7.33123 11.2213L17.8312 8.22134Z" fill="currentColor"/>
<path d="M16.8463 11.4192C16.9601 11.8174 16.7295 12.2325 16.3312 12.3463L8.45623 14.5963C8.05796 14.7101 7.64284 14.4795 7.52905 14.0812C7.41526 13.683 7.64588 13.2678 8.04415 13.154L15.9192 10.904C16.3174 10.7903 16.7325 11.0209 16.8463 11.4192Z" fill="currentColor"/>
<path d="M14.8312 16.4713C15.2295 16.3575 15.4601 15.9424 15.3463 15.5442C15.2325 15.1459 14.8174 14.9153 14.4192 15.0291L9.16915 16.5291C8.77088 16.6428 8.54026 17.058 8.65405 17.4562C8.76784 17.8545 9.18296 18.0851 9.58123 17.9713L14.8312 16.4713Z" fill="currentColor"/>
<path d="M13.8463 19.6691C13.9601 20.0674 13.7295 20.4825 13.3312 20.5963L10.7062 21.3463C10.308 21.4601 9.89285 21.2295 9.77905 20.8312C9.66526 20.433 9.89587 20.0179 10.2941 19.9041L12.9191 19.1541C13.3174 19.0403 13.7325 19.2709 13.8463 19.6691Z" fill="currentColor"/>
</svg>
