<svg width="32" height="32" viewBox="0 0 32 32" fill="none" xmlns="http://www.w3.org/2000/svg">
<path d="M21.293 19.293C21.6591 18.9269 22.2381 18.9043 22.6309 19.2246L22.707 19.293L26 22.5859L29.293 19.293L29.3691 19.2246C29.7619 18.9043 30.3409 18.9269 30.707 19.293C31.0729 19.6591 31.0957 20.2382 30.7754 20.6309L30.707 20.707L26.707 24.707C26.341 25.0731 25.7619 25.0955 25.3691 24.7754L25.293 24.707L21.293 20.707L21.2246 20.6309C20.9043 20.2381 20.9269 19.6591 21.293 19.293Z" fill="currentColor"/>
<path d="M27.917 8C28.3798 8.00006 28.8453 8.11951 29.2256 8.36523C29.5958 8.6045 30 9.05383 30 9.7002V15C30 15.5523 29.5523 16 29 16C28.4477 16 28 15.5523 28 15V10.0049C27.9754 10.0018 27.9477 10 27.917 10H4.08301C4.05227 10 4.02457 10.0018 4 10.0049V21.9941C4.0246 21.9972 4.05222 22 4.08301 22H17.917L18.0186 22.0049C18.523 22.0559 18.917 22.4821 18.917 23C18.917 23.5179 18.523 23.9441 18.0186 23.9951L17.917 24H4.08301C3.62023 23.9999 3.1547 23.8805 2.77441 23.6348C2.40421 23.3955 2 22.9462 2 22.2998V9.7002C2 9.05383 2.40421 8.6045 2.77441 8.36523C3.1547 8.11951 3.62023 8.00006 4.08301 8H27.917Z" fill="currentColor"/>
</svg>
