<svg width="24" height="24" viewBox="0 0 24 24" fill="none" xmlns="http://www.w3.org/2000/svg">
<path d="M4.5 3C3.67157 3 3 3.67157 3 4.5V17.25C3 17.6642 3.33579 18 3.75 18C4.16421 18 4.5 17.6642 4.5 17.25V4.5L17.25 4.5C17.6642 4.5 18 4.16421 18 3.75C18 3.33579 17.6642 3 17.25 3H4.5Z" fill="currentColor"/>
<path d="M10.5 13.5C10.5 13.0858 10.8358 12.75 11.25 12.75H12.75V11.25C12.75 10.8358 13.0858 10.5 13.5 10.5C13.9142 10.5 14.25 10.8358 14.25 11.25V12.75H15.75C16.1642 12.75 16.5 13.0858 16.5 13.5C16.5 13.9142 16.1642 14.25 15.75 14.25H14.25V15.75C14.25 16.1642 13.9142 16.5 13.5 16.5C13.0858 16.5 12.75 16.1642 12.75 15.75V14.25H11.25C10.8358 14.25 10.5 13.9142 10.5 13.5Z" fill="currentColor"/>
<path d="M7.5 6C6.67157 6 6 6.67157 6 7.5V19.5C6 20.3284 6.67157 21 7.5 21H19.5C20.3284 21 21 20.3284 21 19.5V7.5C21 6.67157 20.3284 6 19.5 6H7.5ZM7.5 7.5L19.5 7.5V19.5H7.5V7.5Z" fill="currentColor"/>
</svg>
