<svg width="24" height="24" viewBox="0 0 24 24" fill="none" xmlns="http://www.w3.org/2000/svg">
<path d="M5.68934 2.68934C5.97064 2.40804 6.35217 2.25 6.75 2.25H18.75C19.1478 2.25 19.5294 2.40804 19.8107 2.68934C20.092 2.97065 20.25 3.35218 20.25 3.75V20.25C20.25 20.6478 20.092 21.0294 19.8107 21.3107C19.5294 21.592 19.1478 21.75 18.75 21.75H6.75C6.35218 21.75 5.97065 21.592 5.68934 21.3107C5.40804 21.0294 5.25 20.6478 5.25 20.25V18H3.75C2.92157 18 2.25 17.3284 2.25 16.5V7.5C2.25 6.67157 2.92157 6 3.75 6H5.25V3.75C5.25 3.35217 5.40804 2.97064 5.68934 2.68934ZM3.75 7.5V16.5H13.5V7.5H3.75ZM12 6V3.75L6.75 3.75V6H12ZM13.5 6C14.3284 6 15 6.67157 15 7.5V8.25H18.75V3.75H13.5V6ZM18.75 9.75H15V14.25H18.75V9.75ZM18.75 15.75H15V16.5C15 17.3284 14.3284 18 13.5 18V20.25H18.75V15.75ZM12 20.25V18H6.75V20.25H12ZM6.4875 9.15C6.81887 8.90147 7.28897 8.96863 7.5375 9.3L8.625 10.75L9.7125 9.3C9.96103 8.96863 10.4311 8.90147 10.7625 9.15C11.0939 9.39853 11.161 9.86863 10.9125 10.2L9.5625 12L10.9125 13.8C11.161 14.1314 11.0939 14.6015 10.7625 14.85C10.4311 15.0985 9.96103 15.0314 9.7125 14.7L8.625 13.25L7.5375 14.7C7.28897 15.0314 6.81887 15.0985 6.4875 14.85C6.15613 14.6015 6.08897 14.1314 6.3375 13.8L7.6875 12L6.3375 10.2C6.08897 9.86863 6.15613 9.39853 6.4875 9.15Z" fill="currentColor"/>
</svg>
