<svg width="24" height="24" viewBox="0 0 24 24" fill="none" xmlns="http://www.w3.org/2000/svg">
<path d="M12.0005 9.00023C12.4148 9.00023 12.7505 9.33601 12.7505 9.75023V13.5002C12.7505 13.9144 12.4148 14.2502 12.0005 14.2502C11.5863 14.2502 11.2505 13.9144 11.2505 13.5002V9.75023C11.2505 9.33601 11.5863 9.00023 12.0005 9.00023Z" fill="currentColor"/>
<path d="M10.8766 2.55233C11.2181 2.35429 11.6058 2.25 12.0006 2.25C12.3953 2.25 12.7831 2.35429 13.1246 2.55233C13.4655 2.75002 13.7482 3.03413 13.9443 3.37598L13.9453 3.37772L22.1938 17.6252C22.391 17.9667 22.4949 18.354 22.4953 18.7483C22.4956 19.1425 22.3924 19.53 22.1958 19.8718C21.9993 20.2136 21.7164 20.4978 21.3754 20.6958C21.0345 20.8939 20.6475 20.9988 20.2532 21.0002L20.2506 21.0002H3.75058L3.74794 21.0002C3.35365 20.9988 2.96665 20.8939 2.62571 20.6958C2.28477 20.4978 2.00186 20.2136 1.80532 19.8718C1.60878 19.53 1.50551 19.1425 1.50586 18.7483C1.50621 18.354 1.61016 17.9667 1.80731 17.6252L10.0559 3.37772L10.0569 3.37598C10.2529 3.03413 10.5357 2.75002 10.8766 2.55233ZM10.7068 3.75024L11.3559 4.12601L3.10634 18.3752C3.04074 18.489 3.00598 18.6183 3.00586 18.7496C3.00574 18.881 3.04017 19.0102 3.10568 19.1241C3.17119 19.238 3.2655 19.3328 3.37914 19.3988C3.4925 19.4646 3.62112 19.4996 3.7522 19.5002H20.249C20.38 19.4996 20.5087 19.4646 20.622 19.3988C20.7357 19.3328 20.83 19.238 20.8955 19.1241C20.961 19.0102 20.9954 18.881 20.9953 18.7496C20.9952 18.6183 20.9606 18.4894 20.8951 18.3757L12.6434 4.12276C12.5786 4.00951 12.485 3.91539 12.3721 3.84993C12.2592 3.78447 12.1311 3.75 12.0006 3.75C11.8701 3.75 11.7419 3.78447 11.629 3.84993C11.5162 3.91539 11.4226 4.00951 11.3578 4.12276L10.7068 3.75024Z" fill="currentColor"/>
<path d="M12.0005 18.0002C12.6219 18.0002 13.1255 17.4965 13.1255 16.8752C13.1255 16.2539 12.6219 15.7502 12.0005 15.7502C11.3792 15.7502 10.8755 16.2539 10.8755 16.8752C10.8755 17.4965 11.3792 18.0002 12.0005 18.0002Z" fill="currentColor"/>
</svg>
