<svg width="24" height="24" viewBox="0 0 24 24" fill="none" xmlns="http://www.w3.org/2000/svg">
<path d="M15 5.25C14.5858 5.25 14.25 4.91421 14.25 4.5C14.25 4.08579 14.5858 3.75 15 3.75H19.5C19.9142 3.75 20.25 4.08579 20.25 4.5V9C20.25 9.41421 19.9142 9.75 19.5 9.75C19.0858 9.75 18.75 9.41421 18.75 9V6.31066L14.7803 10.2803C14.4874 10.5732 14.0126 10.5732 13.7197 10.2803C13.4268 9.98744 13.4268 9.51256 13.7197 9.21967L17.6893 5.25H15ZM9.21967 13.7197C9.51256 13.4268 9.98744 13.4268 10.2803 13.7197C10.5732 14.0126 10.5732 14.4874 10.2803 14.7803L6.31066 18.75H9C9.41421 18.75 9.75 19.0858 9.75 19.5C9.75 19.9142 9.41421 20.25 9 20.25H4.5C4.08579 20.25 3.75 19.9142 3.75 19.5V15C3.75 14.5858 4.08579 14.25 4.5 14.25C4.91421 14.25 5.25 14.5858 5.25 15V17.6893L9.21967 13.7197Z" fill="currentColor"/>
</svg>
