<svg width="24" height="24" viewBox="0 0 24 24" fill="none" xmlns="http://www.w3.org/2000/svg">
<path d="M19.5009 21C19.2759 21 19.1259 20.925 18.9759 20.775L16.8466 18.4328C15.3507 19.1443 13.7429 19.5 12.0758 19.5H12.0008C4.31336 19.5 1.12853 12.9248 0.84163 12.3325C0.834629 12.3181 0.829354 12.3072 0.825781 12.3C0.750781 12.075 0.750781 11.85 0.825781 11.7L0.836074 11.6789C0.987541 11.3654 2.4856 8.265 5.76591 6.24406L3.97589 4.27504C3.67589 3.97504 3.75089 3.52504 4.05089 3.22504C4.35089 2.92504 4.80089 3.00004 5.10089 3.30004L7.39108 5.81924C7.43514 5.85602 7.47457 5.89907 7.50801 5.94787L9.89324 8.57162C9.94886 8.60793 10.0018 8.65088 10.0507 8.69982C10.1103 8.75939 10.1551 8.82488 10.1863 8.89394L15.0295 14.2215C15.0719 14.2521 15.1125 14.2866 15.1507 14.3248C15.2009 14.375 15.2406 14.4295 15.2706 14.4867L17.4237 16.8551C17.5369 16.9197 17.6306 17.019 17.6886 17.1465L20.1009 19.8C20.4009 20.1 20.3259 20.55 20.0259 20.85C19.8759 20.925 19.6509 21 19.5009 21ZM15.811 17.2937L14.447 15.7933C13.7 16.2294 12.8729 16.4998 12.0007 16.4998C11.1007 16.4998 10.2007 16.1998 9.45072 15.6748C8.70072 15.1498 8.10072 14.4748 7.80072 13.5748C7.50072 12.6748 7.42572 11.7748 7.65072 10.9498C7.81127 10.3076 8.08636 9.74184 8.476 9.22516L6.7573 7.33458C4.16346 8.85366 2.74843 11.1502 2.32578 11.925C3.00078 13.275 5.92578 18 12.0008 18C13.3082 18 14.6156 17.7646 15.811 17.2937ZM9.48091 10.3306C9.29667 10.624 9.16161 10.9492 9.07572 11.2498C8.92572 11.7748 9.00072 12.4498 9.22572 13.0498C9.45072 13.6498 9.82572 14.0998 10.3507 14.4748C10.8757 14.8498 11.4757 14.9998 12.0757 14.9998C12.5564 14.9998 13.0064 14.8766 13.4255 14.6696L9.48091 10.3306Z" fill="currentColor"/>
<path d="M19.576 16.575C19.351 16.575 19.201 16.5 19.051 16.35C18.751 16.05 18.826 15.6 19.126 15.3C20.4388 14.1254 21.2423 12.8235 21.6539 12.1566C21.6891 12.0997 21.7215 12.0472 21.751 12C21.001 10.725 18.076 6 12.001 6C11.401 6 10.801 6.075 10.201 6.15C9.826 6.225 9.376 5.925 9.301 5.55C9.226 5.175 9.526 4.725 9.901 4.65L10.1054 4.62943C10.7748 4.56188 11.3879 4.5 12.001 4.5C19.6884 4.5 22.8732 11.0752 23.1602 11.6675C23.1672 11.682 23.1724 11.6929 23.176 11.7C23.251 11.925 23.251 12.15 23.176 12.3C23.1648 12.3112 23.1351 12.3677 23.0855 12.4623C22.8032 12.9999 21.8756 14.7667 20.026 16.425C19.951 16.575 19.726 16.575 19.576 16.575Z" fill="currentColor"/>
<path d="M15.0007 11.6999C15.0757 12.0749 15.3757 12.3749 15.7507 12.3749C16.2007 12.3749 16.5007 11.9999 16.5007 11.6249C16.4257 10.6499 16.0507 9.74992 15.3757 8.99992C14.7007 8.24992 13.8757 7.72492 12.9007 7.57492C12.4507 7.49992 12.0757 7.79992 12.0007 8.17492C11.9257 8.62492 12.2257 8.99992 12.6007 9.07492C13.2007 9.14992 13.8007 9.52492 14.2507 9.97492C14.7007 10.4249 14.9257 11.0249 15.0007 11.6999Z" fill="currentColor"/>
</svg>
