<svg width="24" height="24" viewBox="0 0 24 24" fill="none" xmlns="http://www.w3.org/2000/svg">
<path d="M12 21.75C6.6 21.75 2.25 17.4 2.25 12C2.25 6.6 6.6 2.25 12 2.25C17.4 2.25 21.75 6.6 21.75 12C21.75 17.4 17.4 21.75 12 21.75ZM12.75 14.25V20.25C16.95 19.875 20.25 16.35 20.25 12C20.25 7.425 16.575 3.75 12 3.75C7.425 3.75 3.75 7.425 3.75 12C3.75 16.275 7.05 19.8 11.25 20.25V14.25H9C8.55 14.25 8.25 13.95 8.25 13.5C8.25 13.05 8.55 12.75 9 12.75H11.25V10.5C11.25 10.125 11.325 9.75 11.475 9.375C11.625 9 11.85 8.7 12.15 8.4C12.45 8.1 12.75 7.875 13.125 7.725C13.5 7.575 13.875 7.5 14.25 7.5H15.75C16.2 7.5 16.5 7.8 16.5 8.25C16.5 8.7 16.2 9 15.75 9H14.25C14.025 9 13.875 9 13.65 9.075C13.5 9.15 13.275 9.225 13.2 9.375C13.05 9.525 12.975 9.675 12.9 9.825C12.75 10.125 12.75 10.275 12.75 10.5V12.75H15C15.45 12.75 15.75 13.05 15.75 13.5C15.75 13.95 15.45 14.25 15 14.25H12.75Z" fill="currentColor"/>
</svg>
