<svg width="24" height="24" viewBox="0 0 24 24" fill="none" xmlns="http://www.w3.org/2000/svg">
<path d="M2.62578 18.6759C2.85078 18.8259 3.15078 18.9009 3.37578 18.9009C3.60496 18.9009 3.83414 18.8134 4.02988 18.7386C4.09037 18.7155 4.14767 18.6936 4.20078 18.6759L12.3008 13.4477V17.4009C12.3008 17.6259 12.3758 17.9259 12.5258 18.1509C12.6758 18.3759 12.9008 18.5259 13.1258 18.6759C13.3508 18.8259 13.6508 18.9009 13.8758 18.9009C14.0515 18.9009 14.2273 18.8494 14.3728 18.8068C14.4758 18.7766 14.5636 18.7509 14.6258 18.7509L22.9508 13.3509C23.1758 13.2009 23.3258 13.0509 23.4758 12.8259C23.5508 12.6009 23.6258 12.3009 23.6258 12.0759C23.6258 11.7759 23.6258 11.5509 23.4758 11.3259C23.3258 11.1009 23.1758 10.9509 22.9508 10.8009L14.6258 5.40091C14.4008 5.25091 14.1758 5.17591 13.8758 5.17591C13.6508 5.10091 13.3508 5.17591 13.1258 5.32591C12.8258 5.40091 12.6758 5.62591 12.5258 5.85091C12.3758 6.07591 12.3008 6.30091 12.3008 6.60091V10.7036L4.12578 5.40091C3.90078 5.25091 3.67578 5.17591 3.37578 5.17591C3.15078 5.10091 2.85078 5.17591 2.62578 5.32591C2.40078 5.47591 2.25078 5.62591 2.02578 5.8509C1.87578 6.0759 1.80078 6.30091 1.80078 6.60091V17.4009C1.80078 17.6259 1.87578 17.9259 2.02578 18.1509C2.17578 18.3759 2.40078 18.5259 2.62578 18.6759ZM3.37578 17.3259V6.60091L11.7008 12.0009L3.37578 17.3259ZM13.8758 17.3259V6.60091L22.2008 12.0009L13.8758 17.3259Z" fill="currentColor"/>
</svg>
