<svg width="32" height="32" viewBox="0 0 32 32" fill="none" xmlns="http://www.w3.org/2000/svg">
<path fill-rule="evenodd" clip-rule="evenodd" d="M22.7587 2C23.2919 2 23.7242 2.44772 23.7242 3V5.84615H29.0345C29.3103 5.84615 29.5729 5.96832 29.7562 6.18184C29.9394 6.39535 30.0257 6.67983 29.9933 6.96352L27.5795 28.1174C27.5221 28.6207 27.1101 29 26.6207 29H22.7587C22.2254 29 21.7932 28.5523 21.7932 28C21.7932 27.4477 22.2254 27 22.7587 27H25.7626L27.9482 7.84615H16.4829C15.9496 7.84615 15.5174 7.39844 15.5174 6.84615C15.5174 6.29387 15.9496 5.84615 16.4829 5.84615H21.7924L21.7932 3C21.7932 2.44772 22.2254 2 22.7587 2Z" fill="currentColor"/>
<path fill-rule="evenodd" clip-rule="evenodd" d="M4.96993 15C5.27394 14.0069 6.03922 13.0576 7.21565 12.3192C8.5039 11.5106 10.2235 11 12.1381 11C14.0526 11 15.7722 11.5106 17.0605 12.3192C18.2369 13.0576 19.0022 14.0069 19.3062 15H4.96993ZM3.00606 14.8723C2.94994 15.132 2.95243 15.4014 3.01334 15.6599C3.0746 15.92 3.19292 16.1605 3.35739 16.3642C3.52177 16.5678 3.72779 16.7291 3.95875 16.8384C4.18796 16.9467 4.43706 17.0016 4.68807 17H4.68446L4.6935 16.9999L4.68807 17H19.5881H19.5917L19.5826 16.9999L19.5881 17C19.8391 17.0016 20.0882 16.9467 20.3174 16.8384C20.5483 16.7291 20.7544 16.5678 20.9187 16.3642C21.0832 16.1605 21.2015 15.9199 21.2628 15.6599C21.3237 15.4013 21.3262 15.1318 21.27 14.8721C20.8946 13.0939 19.6713 11.6193 18.0613 10.6088C16.4434 9.59327 14.3714 9 12.1381 9C9.90476 9 7.83278 9.59327 6.21485 10.6088C4.60479 11.6194 3.3814 13.094 3.00606 14.8723ZM2.00023 19C2.00023 18.4477 2.4325 18 2.96574 18H21.3104C21.8436 18 22.2759 18.4477 22.2759 19C22.2759 19.5523 21.8436 20 21.3104 20H2.96574C2.4325 20 2.00023 19.5523 2.00023 19ZM22.2474 21.7586C22.3761 22.2945 22.061 22.8371 21.5435 22.9704L20.3449 23.2793V24.3733C20.3449 25.3813 19.9023 26.3163 19.167 26.983C18.4359 27.646 17.4688 28 16.4829 28H7.79328C6.80738 28 5.84021 27.646 5.1091 26.983C4.37389 26.3163 3.93125 25.3813 3.93125 24.3733V23.7817L3.19885 23.9704C2.68139 24.1038 2.15754 23.7774 2.02879 23.2414C1.90005 22.7055 2.21516 22.1629 2.73262 22.0296L6.61322 21.0296C6.77369 20.9882 6.94172 20.9903 7.10121 21.0355L10.3742 21.9632L13.6471 21.0355C13.814 20.9882 13.99 20.9882 14.1569 21.0355L17.4414 21.9665L21.0773 21.0296C21.5948 20.8962 22.1186 21.2226 22.2474 21.7586ZM5.86226 23.2841V24.3733C5.86226 24.7586 6.02996 25.1598 6.38116 25.4783C6.73645 25.8005 7.24277 26 7.79328 26H16.4829C17.0334 26 17.5397 25.8005 17.895 25.4783C18.2462 25.1598 18.4139 24.7586 18.4139 24.3733V23.7769L17.6629 23.9704C17.5025 24.0118 17.3344 24.0097 17.1749 23.9645L13.902 23.0368L10.629 23.9645C10.4622 24.0118 10.2861 24.0118 10.1193 23.9645L6.83472 23.0335L5.86226 23.2841Z" fill="currentColor"/>
</svg>
