<svg width="24" height="24" viewBox="0 0 24 24" fill="none" xmlns="http://www.w3.org/2000/svg">
<path d="M12 3C15.375 3 18 4.65 18 6.75V9.75C18 10.7745 17.3752 11.692 16.3433 12.3629C17.44 13.0459 18.075 13.9634 18.075 15C18.0685 15.1809 18.0432 15.3585 18 15.5319V18C18 20.1 15.375 21.75 12 21.75C8.625 21.75 6 20.1 6 18V15C6 13.9755 6.62032 13.0672 7.69371 12.3868C6.63977 11.7138 6 10.7867 6 9.75V6.75C6 4.65 8.625 3 12 3ZM7.5 9.75C7.5 10.8 9.375 12 12 12C14.625 12 16.5 10.8 16.5 9.75V9.25695C15.4105 10.0236 13.8135 10.5 12 10.5C10.1865 10.5 8.58952 10.0236 7.5 9.25695V9.75ZM12 9C14.625 9 16.5 7.8 16.5 6.75C16.5 5.7 14.625 4.5 12 4.5C9.375 4.5 7.5 5.7 7.5 6.75C7.5 7.8 9.375 9 12 9ZM7.5 17.507V18C7.5 19.05 9.375 20.25 12 20.25C14.625 20.25 16.5 19.05 16.5 18V17.515C15.3992 18.2769 13.8071 18.75 12 18.75C10.1865 18.75 8.58952 18.2736 7.5 17.507ZM16.5 15C16.5 14.2753 15.7298 13.5506 14.5276 13.1642C13.7639 13.3803 12.9092 13.5 12 13.5C11.1048 13.5 10.2625 13.3839 9.50781 13.1742C8.2572 13.563 7.5 14.2815 7.5 15C7.5 16.05 9.375 17.25 12 17.25C14.625 17.25 16.5 16.05 16.5 15Z" fill="currentColor"/>
</svg>
