<svg width="24" height="24" viewBox="0 0 24 24" fill="none" xmlns="http://www.w3.org/2000/svg">
<path d="M6.75 3C6.33579 3 6 3.33579 6 3.75C6 4.16421 6.33579 4.5 6.75 4.5H17.25C17.6642 4.5 18 4.16421 18 3.75C18 3.33579 17.6642 3 17.25 3H6.75Z" fill="currentColor"/>
<path d="M4.5 6.75C4.5 6.33579 4.83579 6 5.25 6H18.75C19.1642 6 19.5 6.33579 19.5 6.75C19.5 7.16421 19.1642 7.5 18.75 7.5H5.25C4.83579 7.5 4.5 7.16421 4.5 6.75Z" fill="currentColor"/>
<path d="M8.25 13.5C7.83579 13.5 7.5 13.8358 7.5 14.25C7.5 14.6642 7.83579 15 8.25 15H15.75C16.1642 15 16.5 14.6642 16.5 14.25C16.5 13.8358 16.1642 13.5 15.75 13.5H8.25Z" fill="currentColor"/>
<path d="M4.5 9C3.67157 9 3 9.67157 3 10.5V19.5C3 20.3284 3.67157 21 4.5 21H19.5C20.3284 21 21 20.3284 21 19.5V10.5C21 9.67157 20.3284 9 19.5 9H4.5ZM4.5 10.5H19.5V19.5H4.5V10.5Z" fill="currentColor"/>
</svg>
