<svg width="24" height="24" viewBox="0 0 25 21" fill="none" xmlns="http://www.w3.org/2000/svg">
    <path
        d="M23.1123 0H2.80465C2.31502 0 1.84544 0.194505 1.49922 0.540726C1.153 0.886947 0.958496 1.35652 0.958496 1.84615V18.4615C0.958496 18.9512 1.153 19.4207 1.49922 19.767C1.84544 20.1132 2.31502 20.3077 2.80465 20.3077H23.1123C23.602 20.3077 24.0715 20.1132 24.4178 19.767C24.764 19.4207 24.9585 18.9512 24.9585 18.4615V1.84615C24.9585 1.35652 24.764 0.886947 24.4178 0.540726C24.0715 0.194505 23.602 0 23.1123 0ZM2.80465 5.53846H12.0354V14.7692H2.80465V5.53846ZM13.8816 3.69231V1.84615H17.5739V3.69231H13.8816ZM12.0354 3.69231H8.34311V1.84615H12.0354V3.69231ZM12.0354 16.6154V18.4615H8.34311V16.6154H12.0354ZM13.8816 16.6154H17.5739V18.4615H13.8816V16.6154ZM13.8816 14.7692V5.53846H23.1123V14.7692H13.8816ZM23.1123 3.69231H19.42V1.84615H23.1123V3.69231ZM6.49696 1.84615V3.69231H2.80465V1.84615H6.49696ZM2.80465 16.6154H6.49696V18.4615H2.80465V16.6154ZM23.1123 18.4615H19.42V16.6154H23.1123V18.4615Z"
        fill="currentColor" />
</svg>
    