<svg width="24" height="24" viewBox="0 0 33 33" fill="none" xmlns="http://www.w3.org/2000/svg">
    <path fill-rule="evenodd" clip-rule="evenodd"
        d="M5.71079 4.50571C6.08586 4.13064 6.59457 3.91992 7.125 3.91992H19.125C19.3902 3.91992 19.6446 4.02528 19.8321 4.21282L26.8321 11.2128C27.0196 11.4004 27.125 11.6547 27.125 11.9199V27.9199C27.125 28.4504 26.9143 28.9591 26.5392 29.3341C26.1641 29.7092 25.6554 29.9199 25.125 29.9199H7.125C6.59457 29.9199 6.08586 29.7092 5.71079 29.3341C5.33571 28.9591 5.125 28.4504 5.125 27.9199V5.91992C5.125 5.38949 5.33571 4.88078 5.71079 4.50571ZM18.125 5.91992L7.125 5.91992L7.125 27.9199H25.125V12.9199H19.125C18.5727 12.9199 18.125 12.4722 18.125 11.9199V5.91992ZM20.125 7.33414L23.7108 10.9199H20.125V7.33414ZM11.125 17.9199C11.125 17.3676 11.5727 16.9199 12.125 16.9199H20.125C20.6773 16.9199 21.125 17.3676 21.125 17.9199C21.125 18.4722 20.6773 18.9199 20.125 18.9199H12.125C11.5727 18.9199 11.125 18.4722 11.125 17.9199ZM11.125 21.9199C11.125 21.3676 11.5727 20.9199 12.125 20.9199H20.125C20.6773 20.9199 21.125 21.3676 21.125 21.9199C21.125 22.4722 20.6773 22.9199 20.125 22.9199H12.125C11.5727 22.9199 11.125 22.4722 11.125 21.9199Z"
        fill="currentColor" fill-opacity="1" />
</svg>
    