<svg width="24" height="24" viewBox="0 0 24 24" fill="none" xmlns="http://www.w3.org/2000/svg">
    <path
        d="M9.28687 12.9771C9.14985 12.9203 8.99904 12.9053 8.85352 12.9342C8.70801 12.9631 8.57432 13.0344 8.46937 13.1393L6.43969 15.1699H4.5C4.30109 15.1699 4.11032 15.2489 3.96967 15.3896C3.82902 15.5302 3.75 15.721 3.75 15.9199V19.6699C3.75 19.8688 3.82902 20.0596 3.96967 20.2003C4.11032 20.3409 4.30109 20.4199 4.5 20.4199H6.43969L8.46937 22.4506C8.57427 22.5556 8.70796 22.6271 8.85352 22.6561C8.99908 22.6851 9.14998 22.6702 9.28709 22.6134C9.42421 22.5566 9.54139 22.4604 9.62379 22.3369C9.70619 22.2135 9.75012 22.0683 9.75 21.9199V13.6699C9.74997 13.5216 9.70595 13.3766 9.62352 13.2533C9.54108 13.13 9.42393 13.0338 9.28687 12.9771ZM8.25 20.1096L7.28063 19.1393C7.21092 19.0697 7.12818 19.0145 7.03714 18.9768C6.94609 18.9392 6.84852 18.9198 6.75 18.9199H5.25V16.6699H6.75C6.84852 16.67 6.94609 16.6507 7.03714 16.613C7.12818 16.5754 7.21092 16.5202 7.28063 16.4506L8.25 15.4802V20.1096ZM14.25 17.7949C14.2492 18.4564 14.0759 19.1063 13.747 19.6803C13.4182 20.2543 12.9453 20.7325 12.375 21.0677C12.2042 21.1528 12.0075 21.1695 11.8248 21.1146C11.6421 21.0597 11.4872 20.9372 11.3916 20.7721C11.2961 20.607 11.267 20.4117 11.3103 20.2259C11.3537 20.0401 11.4662 19.8779 11.625 19.7721C11.9688 19.5692 12.2538 19.28 12.4518 18.9333C12.6497 18.5866 12.7539 18.1942 12.7539 17.7949C12.7539 17.3957 12.6497 17.0033 12.4518 16.6565C12.2538 16.3098 11.9688 16.0207 11.625 15.8177C11.4662 15.712 11.3537 15.5497 11.3103 15.3639C11.267 15.1782 11.2961 14.9829 11.3916 14.8178C11.4872 14.6527 11.6421 14.5302 11.8248 14.4753C12.0075 14.4203 12.2042 14.4371 12.375 14.5221C12.9453 14.8574 13.4182 15.3356 13.747 15.9096C14.0759 16.4836 14.2492 17.1334 14.25 17.7949ZM20.0306 8.6393L14.7806 3.3893C14.7109 3.31967 14.6282 3.26446 14.5371 3.22682C14.4461 3.18918 14.3485 3.16984 14.25 3.16992H5.25C4.85218 3.16992 4.47064 3.32796 4.18934 3.60926C3.90804 3.89057 3.75 4.2721 3.75 4.66992V12.1699C3.75 12.3688 3.82902 12.5596 3.96967 12.7003C4.11032 12.8409 4.30109 12.9199 4.5 12.9199C4.69891 12.9199 4.88968 12.8409 5.03033 12.7003C5.17098 12.5596 5.25 12.3688 5.25 12.1699V4.66992H13.5V9.16992C13.5 9.36884 13.579 9.5596 13.7197 9.70025C13.8603 9.84091 14.0511 9.91992 14.25 9.91992H18.75V21.1699H15.75C15.5511 21.1699 15.3603 21.2489 15.2197 21.3896C15.079 21.5302 15 21.721 15 21.9199C15 22.1188 15.079 22.3096 15.2197 22.4503C15.3603 22.5909 15.5511 22.6699 15.75 22.6699H18.75C19.1478 22.6699 19.5294 22.5119 19.8107 22.2306C20.092 21.9493 20.25 21.5678 20.25 21.1699V9.16992C20.2501 9.0714 20.2307 8.97383 20.1931 8.88279C20.1555 8.79174 20.1003 8.709 20.0306 8.6393ZM15 5.73024L17.6897 8.41992H15V5.73024Z"
        fill="currentColor" fill-opacity="1" />
</svg>
    