<svg width="24" height="24" viewBox="0 0 24 24" fill="none" xmlns="http://www.w3.org/2000/svg">
    <path
        d="M20.25 4.66992H6.75C6.35218 4.66992 5.97064 4.82796 5.68934 5.10926C5.40804 5.39057 5.25 5.7721 5.25 6.16992V7.66992H3.75C3.35218 7.66992 2.97064 7.82796 2.68934 8.10926C2.40804 8.39057 2.25 8.7721 2.25 9.16992V19.6699C2.25 20.0677 2.40804 20.4493 2.68934 20.7306C2.97064 21.0119 3.35218 21.1699 3.75 21.1699H17.25C17.6478 21.1699 18.0294 21.0119 18.3107 20.7306C18.592 20.4493 18.75 20.0677 18.75 19.6699V18.1699H20.25C20.6478 18.1699 21.0294 18.0119 21.3107 17.7306C21.592 17.4493 21.75 17.0677 21.75 16.6699V6.16992C21.75 5.7721 21.592 5.39057 21.3107 5.10926C21.0294 4.82796 20.6478 4.66992 20.25 4.66992ZM6.75 6.16992H20.25V12.0527L19.3059 11.1096C19.1666 10.9703 19.0013 10.8598 18.8193 10.7844C18.6373 10.709 18.4422 10.6701 18.2452 10.6701C18.0481 10.6701 17.8531 10.709 17.6711 10.7844C17.489 10.8598 17.3237 10.9703 17.1844 11.1096L15.3094 12.9846L11.1844 8.85961C10.9031 8.57852 10.5217 8.42062 10.1241 8.42062C9.72641 8.42062 9.34503 8.57852 9.06375 8.85961L6.75 11.1734V6.16992ZM17.25 19.6699H3.75V9.16992H5.25V16.6699C5.25 17.0677 5.40804 17.4493 5.68934 17.7306C5.97064 18.0119 6.35218 18.1699 6.75 18.1699H17.25V19.6699ZM20.25 16.6699H6.75V13.2949L10.125 9.91992L14.7806 14.5755C14.9213 14.7161 15.112 14.795 15.3108 14.795C15.5096 14.795 15.7003 14.7161 15.8409 14.5755L18.2466 12.1699L20.25 14.1743V16.6699ZM15 8.79492C15 8.57242 15.066 8.35491 15.1896 8.16991C15.3132 7.9849 15.4889 7.84071 15.6945 7.75556C15.9 7.67041 16.1262 7.64813 16.3445 7.69154C16.5627 7.73495 16.7632 7.84209 16.9205 7.99943C17.0778 8.15676 17.185 8.35722 17.2284 8.57544C17.2718 8.79367 17.2495 9.01987 17.1644 9.22544C17.0792 9.43101 16.935 9.60671 16.75 9.73033C16.565 9.85394 16.3475 9.91992 16.125 9.91992C15.8266 9.91992 15.5405 9.8014 15.3295 9.59042C15.1185 9.37944 15 9.09329 15 8.79492Z"
        fill="currentColor" fill-opacity="1" />
</svg>
    