<svg width="24" height="24" viewBox="0 0 24 24" fill="none" xmlns="http://www.w3.org/2000/svg">
<path d="M13.6248 1.03444C13.8647 0.99292 14.1097 1.07038 14.2822 1.24221C17.0073 3.95805 20.6152 7.9083 20.6152 13.1266C20.6152 15.4141 19.7065 17.6079 18.089 19.2254C16.4715 20.8429 14.2777 21.7516 11.9902 21.7516C9.70274 21.7516 7.50894 20.8429 5.89144 19.2254C4.27394 17.6079 3.36523 15.4141 3.36523 13.1266C3.36523 10.5752 4.64858 7.92775 6.11537 5.71804C6.22544 5.55223 6.3969 5.43696 6.59199 5.39762C6.78709 5.35828 6.98982 5.3981 7.15554 5.5083L10.185 7.5229L13.0756 1.45107C13.1802 1.23129 13.385 1.07595 13.6248 1.03444ZM13.9701 3.06168L11.1674 8.94895C11.0739 9.14533 10.8998 9.29146 10.6902 9.34944C10.4805 9.40741 10.256 9.37153 10.0749 9.25109L6.95965 7.17943C5.74406 9.14226 4.86523 11.2327 4.86523 13.1266C4.86523 15.0162 5.6159 16.8285 6.9521 18.1647C8.28829 19.5009 10.1006 20.2516 11.9902 20.2516C13.8799 20.2516 15.6922 19.5009 17.0284 18.1647C18.3646 16.8285 19.1152 15.0162 19.1152 13.1266C19.1152 9.00128 16.5115 5.68973 13.9701 3.06168Z" fill="currentColor"/>
</svg>
