<svg width="24" height="24" viewBox="0 0 24 24" fill="none" xmlns="http://www.w3.org/2000/svg">
<path d="M21 4.5C21 4.08579 20.6642 3.75 20.25 3.75C19.8358 3.75 19.5 4.08579 19.5 4.5V19.5C19.5 19.9142 19.8358 20.25 20.25 20.25C20.6642 20.25 21 19.9142 21 19.5V4.5Z" fill="currentColor"/>
<path d="M4.5 4.5C4.5 4.08579 4.16421 3.75 3.75 3.75C3.33579 3.75 3 4.08579 3 4.5V19.5C3 19.9142 3.33579 20.25 3.75 20.25C4.16421 20.25 4.5 19.9142 4.5 19.5V4.5Z" fill="currentColor"/>
<path d="M9.53033 9.53033C9.82322 9.23744 9.82322 8.76256 9.53033 8.46967C9.23744 8.17678 8.76256 8.17678 8.46967 8.46967L5.46967 11.4697C5.17678 11.7626 5.17678 12.2374 5.46967 12.5303L8.46967 15.5303C8.76256 15.8232 9.23744 15.8232 9.53033 15.5303C9.82322 15.2374 9.82322 14.7626 9.53033 14.4697L7.81066 12.75H16.1893L14.4697 14.4697C14.1768 14.7626 14.1768 15.2374 14.4697 15.5303C14.7626 15.8232 15.2374 15.8232 15.5303 15.5303L18.5303 12.5303C18.671 12.3897 18.75 12.1989 18.75 12C18.75 11.8011 18.671 11.6103 18.5303 11.4697L15.5303 8.46967C15.2374 8.17678 14.7626 8.17678 14.4697 8.46967C14.1768 8.76256 14.1768 9.23744 14.4697 9.53033L16.1893 11.25H7.81066L9.53033 9.53033Z" fill="currentColor"/>
</svg>
