<svg width="24" height="24" viewBox="0 0 24 24" fill="none" xmlns="http://www.w3.org/2000/svg">
<path d="M4.5 3C4.08579 3 3.75 3.33579 3.75 3.75C3.75 4.16421 4.08579 4.5 4.5 4.5H19.5C19.9142 4.5 20.25 4.16421 20.25 3.75C20.25 3.33579 19.9142 3 19.5 3H4.5Z" fill="currentColor"/>
<path d="M4.5 19.5C4.08579 19.5 3.75 19.8358 3.75 20.25C3.75 20.6642 4.08579 21 4.5 21H19.5C19.9142 21 20.25 20.6642 20.25 20.25C20.25 19.8358 19.9142 19.5 19.5 19.5H4.5Z" fill="currentColor"/>
<path d="M9.53033 14.4697C9.23744 14.1768 8.76256 14.1768 8.46967 14.4697C8.17678 14.7626 8.17678 15.2374 8.46967 15.5303L11.4697 18.5303C11.7626 18.8232 12.2374 18.8232 12.5303 18.5303L15.5303 15.5303C15.8232 15.2374 15.8232 14.7626 15.5303 14.4697C15.2374 14.1768 14.7626 14.1768 14.4697 14.4697L12.75 16.1893V7.81066L14.4697 9.53033C14.7626 9.82322 15.2374 9.82322 15.5303 9.53033C15.8232 9.23744 15.8232 8.76256 15.5303 8.46967L12.5303 5.46967C12.3897 5.32902 12.1989 5.25 12 5.25C11.8011 5.25 11.6103 5.32902 11.4697 5.46967L8.46967 8.46967C8.17678 8.76256 8.17678 9.23744 8.46967 9.53033C8.76256 9.82322 9.23744 9.82322 9.53033 9.53033L11.25 7.81066V16.1893L9.53033 14.4697Z" fill="currentColor"/>
</svg>
