<svg width="24" height="24" viewBox="0 0 24 24" fill="none" xmlns="http://www.w3.org/2000/svg">
<path d="M3 12C3 11.5858 3.33579 11.25 3.75 11.25H7.93934L6.21967 9.53033C5.92678 9.23744 5.92678 8.76256 6.21967 8.46967C6.51256 8.17678 6.98744 8.17678 7.28033 8.46967L10.2803 11.4697C10.421 11.6103 10.5 11.8011 10.5 12C10.5 12.1989 10.421 12.3897 10.2803 12.5303L7.28033 15.5303C6.98744 15.8232 6.51256 15.8232 6.21967 15.5303C5.92678 15.2374 5.92678 14.7626 6.21967 14.4697L7.93934 12.75H3.75C3.33579 12.75 3 12.4142 3 12Z" fill="currentColor"/>
<path d="M12 20.25C11.5858 20.25 11.25 19.9142 11.25 19.5L11.25 4.5C11.25 4.08578 11.5858 3.75 12 3.75C12.4142 3.75 12.75 4.08578 12.75 4.5L12.75 19.5C12.75 19.9142 12.4142 20.25 12 20.25Z" fill="currentColor"/>
<path d="M16.0607 11.25L20.25 11.25C20.6642 11.25 21 11.5858 21 12C21 12.4142 20.6642 12.75 20.25 12.75H16.0607L17.7803 14.4697C18.0732 14.7626 18.0732 15.2374 17.7803 15.5303C17.4874 15.8232 17.0126 15.8232 16.7197 15.5303L13.7197 12.5303C13.579 12.3897 13.5 12.1989 13.5 12C13.5 11.8011 13.579 11.6103 13.7197 11.4697L16.7197 8.46967C17.0126 8.17678 17.4874 8.17678 17.7803 8.46967C18.0732 8.76256 18.0732 9.23744 17.7803 9.53033L16.0607 11.25Z" fill="currentColor"/>
</svg>
