<svg width="24" height="24" viewBox="0 0 24 24" fill="none" xmlns="http://www.w3.org/2000/svg">
<path d="M16.0616 5.01971C17.2374 5.14135 18.4545 4.90927 19.8 3.90012C20.0273 3.72967 20.3314 3.70225 20.5855 3.8293C20.8395 3.95634 21 4.21604 21 4.50012V15.7501C21 15.9862 20.8889 16.2085 20.7 16.3501C19.0456 17.591 17.4502 17.9214 15.9072 17.7618C14.4339 17.6093 13.0324 17.0086 11.7556 16.4613L11.7046 16.4395C10.3701 15.8675 9.16423 15.3573 7.93849 15.2305C6.85071 15.118 5.72755 15.3082 4.50004 16.1364V20.25C4.50004 20.6642 4.16426 21 3.75004 21C3.33583 21 3.00004 20.6642 3.00004 20.25V15.7588C2.99999 15.7534 2.99999 15.748 3.00004 15.7425V4.50003C3.00004 4.26396 3.11119 4.04167 3.30004 3.90003C4.9545 2.65918 6.54988 2.32877 8.09285 2.4884C9.56622 2.64083 10.9677 3.24155 12.2445 3.78885L12.2955 3.81072C13.63 4.38267 14.8359 4.8929 16.0616 5.01971ZM4.50004 14.3986C5.72953 13.7773 6.92617 13.6178 8.09284 13.7385C9.56622 13.8909 10.9677 14.4916 12.2445 15.0389L12.2955 15.0608C13.63 15.6327 14.8359 16.1429 16.0616 16.2697C17.1494 16.3822 18.2725 16.192 19.5 15.3638V5.8516C18.2706 6.47297 17.0739 6.63244 15.9072 6.51175C14.4339 6.35932 13.0324 5.7586 11.7556 5.21129L11.7046 5.18943C10.3701 4.61747 9.16422 4.10724 7.93849 3.98044C6.85071 3.8679 5.72754 4.05811 4.50004 4.88632V14.3986Z" fill="currentColor"/>
</svg>
