<svg width="32" height="32" viewBox="0 0 32 32" fill="none" xmlns="http://www.w3.org/2000/svg">
<path fill-rule="evenodd" clip-rule="evenodd" d="M21.4154 6.69295C22.9831 6.85513 24.6059 6.5457 26.4 5.20016C26.703 4.97289 27.1084 4.93634 27.4472 5.10573C27.786 5.27512 28 5.62138 28 6.00016V21.0002C28 21.3149 27.8518 21.6113 27.6 21.8002C25.3941 23.4546 23.2669 23.8952 21.2096 23.6823C19.2451 23.4791 17.3765 22.6782 15.6741 21.9485L15.6061 21.9193C13.8267 21.1567 12.2189 20.4764 10.5846 20.3073C9.13422 20.1573 7.63667 20.4109 6 21.5152V27C6 27.5523 5.55228 28 5 28C4.44771 28 4 27.5523 4 27V21.0118C3.99992 21.0045 3.99992 20.9973 4 20.9901V6.00004C4 5.68528 4.14819 5.38889 4.4 5.20004C6.60594 3.54558 8.73311 3.10503 10.7904 3.31787C12.7549 3.5211 14.6235 4.32206 16.3259 5.0518L16.3939 5.08095C18.1733 5.84356 19.7811 6.52387 21.4154 6.69295ZM6 19.1982C7.63931 18.3697 9.23483 18.157 10.7904 18.318C12.7549 18.5212 14.6235 19.3221 16.3259 20.0519L16.3939 20.081C18.1733 20.8436 19.7811 21.5239 21.4154 21.693C22.8658 21.843 24.3633 21.5894 26 20.4851V7.80214C24.3607 8.63063 22.7652 8.84326 21.2096 8.68233C19.2451 8.47909 17.3765 7.67813 15.6741 6.94839L15.6061 6.91924C13.8267 6.15663 12.2189 5.47632 10.5846 5.30725C9.13422 5.1572 7.63667 5.41082 6 6.51509V19.1982Z" fill="currentColor"/>
</svg>
