<svg width="32" height="32" viewBox="0 0 32 32" fill="none" xmlns="http://www.w3.org/2000/svg">
<path d="M5 5C4.44772 5 4 5.44772 4 6V14C4 14.5523 4.44772 15 5 15C5.55228 15 6 14.5523 6 14V11H28V25H6V22C6 21.4477 5.55228 21 5 21C4.44772 21 4 21.4477 4 22V26C4 26.5523 4.44772 27 5 27H29C29.5523 27 30 26.5523 30 26V10C30 9.44772 29.5523 9 29 9H16.9538L13.7526 5.3415C13.5627 5.12448 13.2884 5 13 5H5ZM6 7H12.5462L14.2962 9H6V7Z" fill="currentColor"/>
<path d="M10.1 21.5C9.9 21.7 9.8 21.9 9.8 22.2C9.8 22.5 9.9 22.7 10.1 22.9C10.5 23.3 11.1 23.3 11.5 22.9L15.5277 18.8723C15.8217 18.7098 15.9985 18.401 16 18.0042L16 17.9992C16 17.5984 15.8215 17.2869 15.5242 17.1242L11.5 13.1C11.1 12.7 10.5 12.7 10.1 13.1C9.7 13.5 9.7 14.1 10.1 14.5L12.5992 16.9992L3 16.9992C2.4 16.9992 2 17.3992 2 17.9992C2 18.5992 2.4 18.9992 3 18.9992L12.6008 18.9992L10.1 21.5Z" fill="currentColor"/>
</svg>
