<svg width="24" height="24" viewBox="0 0 24 24" fill="none" xmlns="http://www.w3.org/2000/svg">
<path d="M20.325 20.25H3.675C3.45 20.25 3.3 20.25 3.15 20.175C3 20.1 2.85 20.025 2.7 19.875C2.55 19.725 2.475 19.575 2.4 19.425C2.25 19.2 2.25 18.975 2.25 18.825V5.25C2.25 4.875 2.4 4.5 2.7 4.2C3 3.9 3.375 3.75 3.75 3.75H8.7C8.925 3.75 9.075 3.75 9.3 3.825C9.45 3.9 9.675 3.975 9.75 4.125L12.3 6.75H20.25C20.625 6.75 21 6.9 21.3 7.2C21.6 7.5 21.75 7.875 21.75 8.25V18.825C21.75 19.2 21.6 19.575 21.3 19.8C21.075 20.1 20.7 20.25 20.325 20.25ZM3.75 18.75H20.25V8.25H3.75V18.75ZM3.75 6.75H10.2L8.7 5.25H3.75V6.75Z" fill="currentColor"/>
</svg>
