<svg width="24" height="24" viewBox="0 0 24 24" fill="none" xmlns="http://www.w3.org/2000/svg">
<path d="M15 3.75C14.55 3.75 14.25 4.05 14.25 4.5V11.25H9C8.55 11.25 8.25 11.55 8.25 12V15.75H3C2.55 15.75 2.25 16.05 2.25 16.5V19.5C2.25 19.95 2.55 20.25 3 20.25H21C21.45 20.25 21.75 19.95 21.75 19.5V4.5C21.75 4.05 21.45 3.75 21 3.75H15ZM20.25 5.25V18.75H15.75V5.25H20.25ZM9.75 18.75V12.75H14.25V18.75H9.75ZM3.75 17.25H8.25V18.75H3.75V17.25Z" fill="currentColor"/>
<path d="M10.2 5.25L2.475 12.975C2.175 13.275 2.175 13.725 2.475 14.025C2.775 14.325 3.225 14.325 3.525 14.025L11.25 6.3V9C11.25 9.45 11.55 9.75 12 9.75C12.45 9.75 12.75 9.45 12.75 9V4.50071C12.75 4.49998 12.75 4.49853 12.75 4.4978C12.749 4.04902 12.4493 3.75 12 3.75H7.5C7.05 3.75 6.75 4.05 6.75 4.5C6.75 4.95 7.05 5.25 7.5 5.25H10.2Z" fill="currentColor"/>
</svg>
