<svg width="24" height="24" viewBox="0 0 24 24" fill="none" xmlns="http://www.w3.org/2000/svg">
<path d="M3 3.75C3 3.33579 3.33579 3 3.75 3H7.5C7.91421 3 8.25 3.33579 8.25 3.75V7.5C8.25 7.91421 7.91421 8.25 7.5 8.25H3.75C3.33579 8.25 3 7.91421 3 7.5V3.75ZM4.5 6.75H6.75V4.5H4.5V6.75Z" fill="currentColor"/>
<path d="M12 4.5C11.5858 4.5 11.25 4.83579 11.25 5.25C11.25 5.66421 11.5858 6 12 6H20.25C20.6642 6 21 5.66421 21 5.25C21 4.83579 20.6642 4.5 20.25 4.5H12Z" fill="currentColor"/>
<path d="M12 11.25C11.5858 11.25 11.25 11.5858 11.25 12C11.25 12.4142 11.5858 12.75 12 12.75H20.25C20.6642 12.75 21 12.4142 21 12C21 11.5858 20.6642 11.25 20.25 11.25H12Z" fill="currentColor"/>
<path d="M11.25 18.75C11.25 18.3358 11.5858 18 12 18H20.25C20.6642 18 21 18.3358 21 18.75C21 19.1642 20.6642 19.5 20.25 19.5H12C11.5858 19.5 11.25 19.1642 11.25 18.75Z" fill="currentColor"/>
<path d="M9.13345 11.8013C9.43795 11.5205 9.45716 11.0461 9.17635 10.7416C8.89554 10.4371 8.42106 10.4179 8.11656 10.6987L5.37261 13.2291L4.25924 12.1994C3.95515 11.9181 3.48063 11.9367 3.19939 12.2408C2.91814 12.5449 2.93667 13.0194 3.24076 13.3006L4.86264 14.8006C5.14978 15.0662 5.5928 15.0665 5.88032 14.8014L9.13345 11.8013Z" fill="currentColor"/>
<path d="M9.17635 16.7416C9.45716 17.0461 9.43795 17.5205 9.13345 17.8014L5.88032 20.8013C5.5928 21.0665 5.14978 21.0662 4.86264 20.8006L3.24076 19.3006C2.93667 19.0194 2.91814 18.5449 3.19939 18.2408C3.48063 17.9367 3.95515 17.9181 4.25924 18.1994L5.37261 19.2291L8.11656 16.6987C8.42106 16.4179 8.89554 16.4371 9.17635 16.7416Z" fill="currentColor"/>
</svg>
