<svg width="24" height="24" viewBox="0 0 24 24" fill="none" xmlns="http://www.w3.org/2000/svg">
<path d="M15.2515 3L15.2531 3L18 3C18.4142 3 18.75 3.33579 18.75 3.75C18.75 4.16422 18.4142 4.5 18 4.5H15.254C14.7268 4.50136 14.2166 4.68709 13.8118 5.02502C13.407 5.36297 13.1332 5.83183 13.0378 6.35039L13.0377 6.35114L12.1484 11.25H16.5C16.9142 11.25 17.25 11.5858 17.25 12C17.25 12.4142 16.9142 12.75 16.5 12.75H11.8761L10.9379 17.9183L10.9377 17.9199C10.7791 18.7832 10.3234 19.5638 9.64955 20.1264C8.97575 20.689 8.12633 20.998 7.24855 21L4.5 21C4.08579 21 3.75 20.6642 3.75 20.25C3.75 19.8358 4.08579 19.5 4.5 19.5L7.2452 19.5C7.77253 19.4987 8.2834 19.313 8.6882 18.975C9.09297 18.637 9.36678 18.1681 9.46222 17.6496L10.3516 12.75H6C5.58579 12.75 5.25 12.4142 5.25 12C5.25 11.5858 5.58579 11.25 6 11.25H10.6239L11.5621 6.08167L11.5623 6.08012C11.7209 5.21678 12.1766 4.43616 12.8504 3.87359C13.5243 3.31102 14.3737 3.00196 15.2515 3Z" fill="currentColor"/>
<path d="M20.1063 15.1508C20.3992 15.4437 20.3992 15.9186 20.1063 16.2115L17.9392 18.3785L20.1063 20.5456C20.3992 20.8385 20.3992 21.3134 20.1063 21.6063C19.8134 21.8992 19.3385 21.8992 19.0456 21.6063L16.8785 19.4392L14.7115 21.6063C14.4186 21.8992 13.9437 21.8992 13.6508 21.6063C13.3579 21.3134 13.3579 20.8385 13.6508 20.5456L15.8179 18.3785L13.6508 16.2115C13.3579 15.9186 13.3579 15.4437 13.6508 15.1508C13.9437 14.8579 14.4186 14.8579 14.7115 15.1508L16.8785 17.3179L19.0456 15.1508C19.3385 14.8579 19.8134 14.8579 20.1063 15.1508Z" fill="currentColor"/>
</svg>
