<svg width="24" height="24" viewBox="0 0 24 24" fill="none" xmlns="http://www.w3.org/2000/svg">
<path d="M5.25 6C5.25 5.58579 5.58579 5.25 6 5.25H18C18.4142 5.25 18.75 5.58579 18.75 6V9C18.75 9.41421 18.4142 9.75 18 9.75C17.5858 9.75 17.25 9.41421 17.25 9V6.75H12.75L12.75 17.25H15C15.4142 17.25 15.75 17.5858 15.75 18C15.75 18.4142 15.4142 18.75 15 18.75H9C8.58579 18.75 8.25 18.4142 8.25 18C8.25 17.5858 8.58579 17.25 9 17.25H11.25L11.25 6.75H6.75V9C6.75 9.41421 6.41421 9.75 6 9.75C5.58579 9.75 5.25 9.41421 5.25 9V6Z" fill="currentColor"/>
</svg>
