<svg width="24" height="24" viewBox="0 0 24 24" fill="none" xmlns="http://www.w3.org/2000/svg">
<path d="M3.75 3C3.75 2.58579 4.08579 2.25 4.5 2.25H19.5C19.9142 2.25 20.25 2.58579 20.25 3V6C20.25 6.41421 19.9142 6.75 19.5 6.75C19.0858 6.75 18.75 6.41421 18.75 6V3.75H12.75V20.25H15C15.4142 20.25 15.75 20.5858 15.75 21C15.75 21.4142 15.4142 21.75 15 21.75H9C8.58579 21.75 8.25 21.4142 8.25 21C8.25 20.5858 8.58579 20.25 9 20.25H11.25V3.75H5.25V6C5.25 6.41421 4.91421 6.75 4.5 6.75C4.08579 6.75 3.75 6.41421 3.75 6V3Z" fill="currentColor"/>
</svg>
