<svg width="24" height="24" viewBox="0 0 24 24" fill="none" xmlns="http://www.w3.org/2000/svg">
<path d="M12 16.5C12.4142 16.5 12.75 16.1642 12.75 15.75C12.75 15.3358 12.4142 15 12 15C11.5858 15 11.25 15.3358 11.25 15.75C11.25 16.1642 11.5858 16.5 12 16.5Z" fill="currentColor"/>
<path d="M12.5191 7.55367C12.0025 7.44578 11.4675 7.50153 10.9833 7.7121C10.4997 7.92245 10.0923 8.27602 9.80825 8.72232C9.52446 9.16827 9.375 9.68895 9.375 10.2188C9.375 10.633 9.71079 10.9688 10.125 10.9688C10.5392 10.9688 10.875 10.633 10.875 10.2188C10.875 9.96979 10.9455 9.7292 11.0737 9.52763C11.2018 9.32641 11.38 9.1753 11.5816 9.08763C11.7827 9.00018 12.0016 8.97796 12.2125 9.02199C12.4236 9.06609 12.6228 9.17597 12.7827 9.34388C12.943 9.51218 13.056 9.73094 13.1021 9.97427C13.1482 10.2177 13.1242 10.4697 13.0346 10.6969C12.945 10.9239 12.7957 11.1121 12.6109 11.2417C12.4267 11.371 12.2141 11.4375 12 11.4375C11.8011 11.4375 11.6103 11.5165 11.4697 11.6572C11.329 11.7978 11.25 11.9886 11.25 12.1875V12.75C11.25 13.1642 11.5858 13.5 12 13.5C12.3888 13.5 12.7085 13.2042 12.7463 12.8254C13.0037 12.7463 13.2488 12.6266 13.4724 12.4697C13.9044 12.1666 14.2357 11.7399 14.4299 11.2474C14.6241 10.7551 14.6744 10.2154 14.5759 9.69507C14.4773 9.1746 14.2331 8.69176 13.8689 8.3094C13.5044 7.92664 13.0354 7.6615 12.5191 7.55367Z" fill="currentColor"/>
<path d="M2.68936 4.93934C2.97067 4.65804 3.3522 4.5 3.75002 4.5H20.25C20.6478 4.5 21.0294 4.65804 21.3107 4.93934C21.592 5.22065 21.75 5.60218 21.75 6V18C21.75 18.3978 21.592 18.7794 21.3107 19.0607C21.0294 19.342 20.6478 19.5 20.25 19.5H7.78732L7.68995 19.5342L4.70631 22.0372C4.48778 22.218 4.22244 22.3332 3.9411 22.3693C3.65976 22.4055 3.37394 22.3611 3.11681 22.2414C2.85967 22.1216 2.64175 21.9314 2.48834 21.6929C2.33492 21.4543 2.25229 21.1771 2.25005 20.8934L2.25 20.8875L2.25002 6C2.25002 5.60217 2.40806 5.22064 2.68936 4.93934ZM20.25 6L3.75002 6V20.8815L6.8305 18.2973C6.89966 18.2393 6.97873 18.1942 7.06391 18.1643L7.41078 18.0424C7.49067 18.0143 7.57473 18 7.6594 18H20.25V6Z" fill="currentColor"/>
</svg>
