<svg width="24" height="24" viewBox="0 0 24 24" fill="none" xmlns="http://www.w3.org/2000/svg">
<path d="M8.245 4.94357C7.65922 5.52936 7.65922 6.4791 8.245 7.06489L10.9344 9.75433C11.5202 10.3401 12.47 10.3401 13.0558 9.75433L15.7472 7.0629C16.333 6.47711 16.333 5.52737 15.7472 4.94158L13.0577 2.25215C12.472 1.66636 11.5222 1.66636 10.9364 2.25215L8.245 4.94357ZM9.30566 6.00423L11.9971 3.31281L14.6865 6.00224L11.9951 8.69367L9.30566 6.00423Z" fill="currentColor"/>
<path d="M14.2457 10.9436C13.66 11.5294 13.66 12.4791 14.2457 13.0649L16.9352 15.7543C17.521 16.3401 18.4707 16.3401 19.0565 15.7543L21.7479 13.0629C22.3337 12.4771 22.3337 11.5274 21.7479 10.9416L19.0585 8.25215C18.4727 7.66636 17.5229 7.66636 16.9372 8.25215L14.2457 10.9436ZM15.3064 12.0042L17.9978 9.31281L20.6873 12.0022L17.9958 14.6937L15.3064 12.0042Z" fill="currentColor"/>
<path d="M2.245 13.0565C1.65922 12.4707 1.65922 11.5209 2.245 10.9351L4.93643 8.24372C5.52222 7.65794 6.47196 7.65794 7.05775 8.24372L9.74719 10.9332C10.333 11.5189 10.333 12.4687 9.74719 13.0545L7.05576 15.7459C6.46997 16.3317 5.52023 16.3317 4.93444 15.7459L2.245 13.0565ZM5.99709 9.30438L3.30566 11.9958L5.9951 14.6852L8.68653 11.9938L5.99709 9.30438Z" fill="currentColor"/>
<path d="M8.24574 16.9351C7.65995 17.5209 7.65995 18.4707 8.24574 19.0565L10.9352 21.7459C11.521 22.3317 12.4707 22.3317 13.0565 21.7459L15.7479 19.0545C16.3337 18.4687 16.3337 17.5189 15.7479 16.9332L13.0585 14.2437C12.4727 13.6579 11.5229 13.6579 10.9372 14.2437L8.24574 16.9351ZM9.3064 17.9958L11.9978 15.3044L14.6873 17.9938L11.9958 20.6852L9.3064 17.9958Z" fill="currentColor"/>
</svg>
