<svg width="24" height="24" viewBox="0 0 24 24" fill="none" xmlns="http://www.w3.org/2000/svg">
<path d="M16.0015 3L16.0031 3L18.75 3C19.1642 3 19.5 3.33579 19.5 3.75C19.5 4.16422 19.1642 4.5 18.75 4.5H16.004C15.4768 4.50136 14.9666 4.68709 14.5618 5.02502C14.157 5.36297 13.8832 5.83183 13.7878 6.35039C13.7877 6.35064 13.7877 6.35089 13.7877 6.35114L12.8984 11.25H17.25C17.6642 11.25 18 11.5858 18 12C18 12.4142 17.6642 12.75 17.25 12.75H12.6261L11.6879 17.9183L11.6877 17.9199C11.5291 18.7832 11.0734 19.5638 10.3996 20.1264C9.72575 20.689 8.87633 20.998 7.99855 21L5.25 21C4.83579 21 4.5 20.6642 4.5 20.25C4.5 19.8358 4.83579 19.5 5.25 19.5L7.9952 19.5C7.995 19.5 7.9954 19.5 7.9952 19.5C8.52253 19.4987 9.0334 19.313 9.4382 18.975C9.84297 18.637 10.1168 18.1681 10.2122 17.6496C10.2122 17.6498 10.2123 17.6493 10.2122 17.6496L11.1016 12.75H6.75C6.33579 12.75 6 12.4142 6 12C6 11.5858 6.33579 11.25 6.75 11.25H11.3739L12.3121 6.08167L12.3123 6.08012C12.4709 5.21678 12.9266 4.43616 13.6004 3.87359C14.2743 3.31102 15.1237 3.00196 16.0015 3Z" fill="currentColor"/>
</svg>
