<svg width="32" height="32" viewBox="0 0 32 32" fill="none" xmlns="http://www.w3.org/2000/svg">
<g id="FunctionX">
<rect id="Accent" opacity="0.2" x="8" width="1e-05" height="0.0001" fill="currentColor"/>
<g id="Vector">
<path d="M20.3353 4.00001L20.3375 4L24 4C24.5523 4 25 4.44772 25 5C25 5.55229 24.5523 6 24 6H20.3387C19.6357 6.00181 18.9554 6.24945 18.4157 6.70003C17.8761 7.15062 17.511 7.77577 17.3837 8.46719L17.3835 8.46819L16.1979 15H22C22.5523 15 23 15.4477 23 16C23 16.5523 22.5523 17 22 17H15.8348L14.5839 23.8911L14.5835 23.8932C14.3721 25.0443 13.7645 26.0851 12.8661 26.8352C11.9677 27.5853 10.8351 27.9974 9.66473 28L6 28C5.44772 28 5 27.5523 5 27C5 26.4477 5.44772 26 6 26L9.66027 26C10.3634 25.9982 11.0445 25.7506 11.5843 25.3C12.124 24.8494 12.489 24.2242 12.6163 23.5327L13.8021 17H8C7.44772 17 7 16.5523 7 16C7 15.4477 7.44772 15 8 15H14.1652L15.4161 8.1089L15.4165 8.10682C15.6279 6.95571 16.2355 5.91488 17.1339 5.16479C18.0323 4.41469 19.1649 4.00262 20.3353 4.00001Z" fill="currentColor"/>
<path d="M26.8083 20.2011C27.1989 20.5916 27.1989 21.2248 26.8083 21.6153L23.9189 24.5047L26.8083 27.3941C27.1989 27.7847 27.1989 28.4178 26.8083 28.8083C26.4178 29.1989 25.7847 29.1989 25.3941 28.8083L22.5047 25.9189L19.6153 28.8083C19.2248 29.1989 18.5916 29.1989 18.2011 28.8083C17.8106 28.4178 17.8106 27.7847 18.2011 27.3941L21.0905 24.5047L18.2011 21.6153C17.8106 21.2248 17.8106 20.5916 18.2011 20.2011C18.5916 19.8106 19.2248 19.8106 19.6153 20.2011L22.5047 23.0905L25.3941 20.2011C25.7847 19.8106 26.4178 19.8106 26.8083 20.2011Z" fill="currentColor"/>
</g>
</g>
</svg>
