<svg width="24" height="24" viewBox="0 0 24 24" fill="none" xmlns="http://www.w3.org/2000/svg">
<path d="M6.75 6.75C6.46906 6.75 6.21168 6.90701 6.08313 7.15681C5.95457 7.40662 5.97641 7.70732 6.1397 7.93593L9.75 12.9903V17.25C9.75 17.5099 9.88459 17.7513 10.1057 17.888C10.3268 18.0246 10.6029 18.0371 10.8354 17.9208L13.8354 16.4208C14.0895 16.2938 14.25 16.0341 14.25 15.75V12.9903L17.8603 7.93593C18.0236 7.70732 18.0454 7.40662 17.9169 7.15681C17.7883 6.90701 17.5309 6.75 17.25 6.75H6.75ZM11.1103 12.3141L8.20739 8.25H15.7926L12.8897 12.3141C12.7988 12.4413 12.75 12.5937 12.75 12.75V15.2865L11.25 16.0365V12.75C11.25 12.5937 11.2012 12.4413 11.1103 12.3141Z" fill="currentColor"/>
<path d="M4.5 3C3.67157 3 3 3.67157 3 4.5V19.5C3 20.3284 3.67157 21 4.5 21H19.5C20.3284 21 21 20.3284 21 19.5V4.5C21 3.67157 20.3284 3 19.5 3H4.5ZM4.5 4.5L19.5 4.5V19.5H4.5V4.5Z" fill="currentColor"/>
</svg>
