<svg width="24" height="24" viewBox="0 0 24 24" fill="none" xmlns="http://www.w3.org/2000/svg">
<path d="M5.05447 3.2455C4.77584 2.93901 4.30151 2.91642 3.99501 3.19505C3.82878 3.34617 3.74607 3.55485 3.74962 3.7631C3.52846 3.79252 3.3157 3.87101 3.12752 3.99381C2.88385 4.15282 2.69169 4.37926 2.57444 4.64555C2.4572 4.91184 2.41993 5.20648 2.46717 5.49357C2.51434 5.78018 2.6437 6.04692 2.83954 6.2614L2.84054 6.2625L8.99817 13.0388L9.00015 13.0409L9.00011 20.3531L9.00019 20.3607C9.00292 20.6302 9.07821 20.894 9.21813 21.1243C9.35805 21.3546 9.55744 21.543 9.79534 21.6696C10.0332 21.7963 10.3009 21.8565 10.5701 21.8439C10.8393 21.8313 11.1001 21.7465 11.3252 21.5982L11.3282 21.5962L14.3253 19.6013C14.5337 19.465 14.7047 19.2787 14.8226 19.0592C14.9407 18.8394 15.0018 18.5935 15.0002 18.344V16.4157L18.9446 20.7545C19.2232 21.061 19.6975 21.0836 20.004 20.805C20.3105 20.5263 20.3331 20.052 20.0545 19.7455L5.05447 3.2455ZM13.5002 14.7657L13.5001 18.3469L13.5001 18.3486L10.5002 20.3455V13.0436C10.5027 12.6668 10.3615 12.3032 10.1055 12.0268L3.94897 5.25186L3.94727 5.25H4.84955L13.5002 14.7657Z" fill="currentColor"/>
<path d="M8.99951 3.75C8.5853 3.75 8.24951 4.08579 8.24951 4.5C8.24951 4.91421 8.5853 5.25 8.99951 5.25H20.053L20.0445 5.25949L15.1876 10.7532C14.9133 11.0636 14.9424 11.5375 15.2528 11.8119C15.5631 12.0863 16.0371 12.0571 16.3114 11.7468L21.1648 6.25698C21.3584 6.04325 21.4863 5.77821 21.5331 5.49357C21.5804 5.20648 21.5431 4.91184 21.4259 4.64555C21.3086 4.37926 21.1165 4.15282 20.8728 3.99381C20.6291 3.8348 20.3442 3.75009 20.0533 3.75H8.99951Z" fill="currentColor"/>
</svg>
