<svg width="24" height="24" viewBox="0 0 24 24" fill="none" xmlns="http://www.w3.org/2000/svg">
<path d="M19.3033 3.75H3.19703C2.90607 3.75009 2.62118 3.8348 2.37752 3.99381C2.13385 4.15282 1.94169 4.37926 1.82444 4.64555C1.7072 4.91184 1.66993 5.20648 1.71717 5.49357C1.76434 5.78018 1.8937 6.04692 2.08954 6.2614L2.09054 6.2625L8.24817 13.0388L8.25015 13.0409L8.25011 20.3531L8.25019 20.3607C8.25292 20.6302 8.32821 20.894 8.46813 21.1243C8.60805 21.3546 8.80744 21.543 9.04534 21.6696C9.28324 21.7963 9.55086 21.8565 9.82007 21.8439C10.0893 21.8313 10.3501 21.7465 10.5752 21.5982L10.5782 21.5962L13.5753 19.6013C13.7837 19.465 13.9547 19.2787 14.0726 19.0592C14.1907 18.8394 14.2518 18.5935 14.2502 18.344V13.0409L20.4098 6.2625L20.4109 6.26126C20.6067 6.0468 20.736 5.78012 20.7831 5.49357C20.8304 5.20648 20.7931 4.91184 20.6759 4.64555C20.5586 4.37926 20.3665 4.15282 20.1228 3.99381C19.8791 3.8348 19.5942 3.75009 19.3033 3.75ZM3.19897 5.25186L3.19727 5.25H19.303L19.3013 5.25186L13.1448 12.0268C12.8888 12.3032 12.7476 12.6668 12.7502 13.0436L12.7501 18.3469L12.7501 18.3486L9.75015 20.3455V13.0436C9.7527 12.6668 9.61154 12.3032 9.35546 12.0268L3.19897 5.25186Z" fill="currentColor"/>
<path d="M18.7495 12.75C19.1637 12.75 19.4995 13.0858 19.4995 13.5V15H20.9995C21.4137 15 21.7495 15.3358 21.7495 15.75C21.7495 16.1642 21.4137 16.5 20.9995 16.5H19.4995V18C19.4995 18.4142 19.1637 18.75 18.7495 18.75C18.3353 18.75 17.9995 18.4142 17.9995 18V16.5H16.4995C16.0853 16.5 15.7495 16.1642 15.7495 15.75C15.7495 15.3358 16.0853 15 16.4995 15H17.9995V13.5C17.9995 13.0858 18.3353 12.75 18.7495 12.75Z" fill="currentColor"/>
</svg>
