<svg width="32" height="32" viewBox="0 0 32 32" fill="none" xmlns="http://www.w3.org/2000/svg">
<path fill-rule="evenodd" clip-rule="evenodd" d="M29 6C29 5.44772 28.5523 5 28 5L22.6667 5C22.1144 5 21.6667 5.44772 21.6667 6V14C21.6667 14.5523 22.1144 15 22.6667 15H28C28.5523 15 29 14.5523 29 14V6ZM23.6667 7H27V13H23.6667V7Z" fill="currentColor" fill-opacity="0.9"/>
<path fill-rule="evenodd" clip-rule="evenodd" d="M29 18C29 17.4477 28.5523 17 28 17H22.6667C22.1144 17 21.6667 17.4477 21.6667 18V26C21.6667 26.5523 22.1144 27 22.6667 27L28 27C28.5523 27 29 26.5523 29 26V18ZM23.6667 19H27V25L23.6667 25V19Z" fill="currentColor" fill-opacity="0.9"/>
<path fill-rule="evenodd" clip-rule="evenodd" d="M18.6667 5C19.219 5 19.6667 5.44772 19.6667 6V14C19.6667 14.5523 19.219 15 18.6667 15L13.3334 15C12.7811 15 12.3334 14.5523 12.3334 14V6C12.3334 5.44772 12.7811 5 13.3334 5L18.6667 5ZM17.6667 7L14.3334 7V13L17.6667 13V7Z" fill="currentColor" fill-opacity="0.9"/>
<path fill-rule="evenodd" clip-rule="evenodd" d="M19.6667 18C19.6667 17.4477 19.219 17 18.6667 17L13.3334 17C12.7811 17 12.3334 17.4477 12.3334 18V26C12.3334 26.5523 12.7811 27 13.3334 27H18.6667C19.219 27 19.6667 26.5523 19.6667 26V18ZM14.3334 19L17.6667 19V25H14.3334V19Z" fill="currentColor" fill-opacity="0.9"/>
<path fill-rule="evenodd" clip-rule="evenodd" d="M9.33333 5C9.88562 5 10.3333 5.44772 10.3333 6L10.3333 14C10.3333 14.5523 9.88562 15 9.33333 15H4C3.44772 15 3 14.5523 3 14L3 6C3 5.44772 3.44772 5 4 5L9.33333 5ZM8.33333 7L5 7L5 13H8.33333L8.33333 7Z" fill="currentColor" fill-opacity="0.9"/>
<path fill-rule="evenodd" clip-rule="evenodd" d="M10.3333 18C10.3333 17.4477 9.88562 17 9.33333 17H4C3.44772 17 3 17.4477 3 18L3 26C3 26.5523 3.44772 27 4 27H9.33333C9.88562 27 10.3333 26.5523 10.3333 26L10.3333 18ZM5 19H8.33333L8.33333 25H5L5 19Z" fill="currentColor" fill-opacity="0.9"/>
</svg>
