<svg width="24" height="24" viewBox="0 0 24 24" fill="none" xmlns="http://www.w3.org/2000/svg">
<path d="M15.9902 5.28772C14.7249 4.76787 13.3703 4.50034 12.0026 4.5L11.9599 4.50007C7.19814 4.51679 3.20956 7.74291 1.93033 12.1001C1.89749 12.1564 1.87152 12.2181 1.85383 12.2841C1.83692 12.3473 1.8286 12.4107 1.82814 12.4732C1.61385 13.3157 1.5 14.1972 1.5 15.1032V17.2501C1.5 17.6479 1.65803 18.0294 1.93934 18.3107C2.22065 18.592 2.60218 18.7501 3 18.7501H21C21.3978 18.7501 21.7794 18.592 22.0607 18.3107C22.342 18.0294 22.5 17.6479 22.5 17.2501V15.0001C22.5 14.1076 22.3862 13.2207 22.1629 12.3607C22.1588 12.3352 22.1534 12.3096 22.1465 12.2841C22.1397 12.2586 22.1317 12.2338 22.1225 12.2097C22.0067 11.7898 21.8647 11.3765 21.6969 10.9725C21.1667 9.69599 20.3897 8.53668 19.4104 7.56114C18.4311 6.58559 17.2688 5.81301 15.9902 5.28772ZM18.3218 12.5317C17.9217 12.6389 17.6842 13.0501 17.7913 13.4502C17.8985 13.8503 18.3097 14.0878 18.7098 13.9807L20.8577 13.4056C20.9521 13.9306 21 14.4641 21 15.0001V17.2501H11.2155L16.7018 10.1035C16.954 9.7749 16.8921 9.30408 16.5636 9.05185C16.235 8.79962 15.7642 8.8615 15.512 9.19006L9.32448 17.2501H3V15.1032C3 14.525 3.05385 13.9587 3.1568 13.4094L5.29059 13.9807C5.69071 14.0878 6.10191 13.8503 6.20904 13.4502C6.31617 13.0501 6.07866 12.6389 5.67853 12.5317L3.55356 11.9628C4.73787 8.71978 7.7006 6.32772 11.25 6.03108V8.25C11.25 8.66421 11.5858 9 12 9C12.4142 9 12.75 8.66421 12.75 8.25V6.0313C13.6662 6.10792 14.5669 6.32462 15.4202 6.67519C16.5161 7.12544 17.5123 7.78765 18.3517 8.62383C19.1911 9.46001 19.8572 10.4537 20.3116 11.5479C20.3677 11.683 20.4205 11.8193 20.4698 11.9566L18.3218 12.5317Z" fill="currentColor"/>
</svg>
