<svg width="24" height="24" viewBox="0 0 24 24" fill="none" xmlns="http://www.w3.org/2000/svg">
<path d="M12.0009 8.25C9.90091 8.25 8.25091 9.9 8.25091 12C8.25091 14.1 9.90091 15.75 12.0009 15.75C14.1009 15.75 15.7509 14.1 15.7509 12C15.7509 9.9 14.1009 8.25 12.0009 8.25ZM6.75091 12C6.75091 9.075 9.07591 6.75 12.0009 6.75C14.9259 6.75 17.2509 9.075 17.2509 12C17.2509 14.925 14.9259 17.25 12.0009 17.25C9.07591 17.25 6.75091 14.925 6.75091 12Z" fill="currentColor"/>
<path d="M14.5509 22.125C14.4009 22.125 14.2509 22.05 14.1009 21.975L12.2259 20.55C12.0759 20.55 11.9259 20.55 11.7009 20.55L9.82591 21.975C9.67591 22.125 9.37591 22.125 9.15091 22.125C8.25091 21.9 7.42591 21.525 6.67591 21.075C6.45091 20.925 6.37591 20.775 6.30091 20.55L6.00091 18.225C5.92591 18.15 5.77591 18 5.70091 17.925L3.37591 17.625C3.15091 17.625 2.92591 17.475 2.85091 17.25C2.40091 16.5 2.02591 15.6 1.80091 14.775C1.72591 14.55 1.80091 14.325 1.95091 14.1L3.37591 12.225C3.37591 12.075 3.37591 11.925 3.37591 11.775L1.95091 9.9C1.80091 9.75 1.80091 9.45 1.80091 9.225C2.02591 8.325 2.40091 7.5 2.85091 6.75C3.00091 6.6 3.22591 6.45 3.45091 6.375L5.77591 6.075C5.85091 6 6.00091 5.85 6.07591 5.775L6.37591 3.45C6.45091 3.225 6.60091 3 6.75091 2.925C7.50091 2.475 8.40091 2.1 9.22591 1.875C9.45091 1.8 9.67591 1.875 9.90091 2.025L11.7759 3.45C11.9259 3.45 12.0759 3.45 12.3009 3.45L14.1759 2.025C14.3259 1.875 14.6259 1.875 14.8509 1.875C15.7509 2.1 16.5759 2.475 17.3259 2.925C17.5509 3.075 17.6259 3.225 17.7009 3.45L18.0009 5.775C18.1509 5.85 18.2259 6 18.3009 6.075L20.6259 6.375C20.8509 6.375 21.0759 6.525 21.1509 6.75C21.6009 7.5 21.9759 8.4 22.2009 9.225C22.2759 9.45 22.2009 9.675 22.0509 9.9L20.6259 11.775C20.6259 11.925 20.6259 12.075 20.6259 12.225L22.0509 14.1C22.2009 14.25 22.2009 14.55 22.2009 14.775C21.9759 15.675 21.6009 16.5 21.1509 17.25C21.0009 17.475 20.8509 17.55 20.6259 17.625L18.3009 17.925C18.2259 18 18.0759 18.15 18.0009 18.225L17.7009 20.55C17.7009 20.775 17.5509 21 17.3259 21.075C16.5759 21.525 15.6759 21.9 14.8509 22.125C14.7009 22.125 14.6259 22.125 14.5509 22.125ZM7.80091 19.95C8.25091 20.175 8.77591 20.4 9.30091 20.55L11.1009 19.2C11.2509 19.125 11.4009 19.05 11.6259 19.05C11.9259 19.05 12.1509 19.05 12.4509 19.05C12.6009 19.05 12.8259 19.05 12.9759 19.2L14.7759 20.55C15.3009 20.4 15.7509 20.175 16.2759 19.95L16.5759 17.775C16.5759 17.625 16.6509 17.475 16.8009 17.325C17.0259 17.1 17.4759 16.65 17.4759 16.65C17.6259 16.5 17.7759 16.425 17.9259 16.425L20.1009 16.125C20.3259 15.675 20.5509 15.15 20.7009 14.625L19.3509 12.825C19.2759 12.675 19.2009 12.525 19.2009 12.3C19.2009 12.075 19.2009 11.7 19.2009 11.475C19.2009 11.325 19.2759 11.1 19.3509 11.025L20.7009 9.225C20.5509 8.7 20.3259 8.25 20.1009 7.725L17.7759 7.5C17.6259 7.5 17.4759 7.425 17.3259 7.275C17.1009 7.05 16.9509 6.825 16.7259 6.675C16.5759 6.525 16.5009 6.375 16.5009 6.225L16.2009 4.05C15.7509 3.825 15.2259 3.6 14.7009 3.45L12.9009 4.8C12.7509 4.875 12.6009 4.95 12.3759 4.95C12.0759 4.95 11.8509 4.95 11.5509 4.95C11.4009 4.95 11.1759 4.95 11.0259 4.8L9.22591 3.45C8.70091 3.6 8.25091 3.825 7.72591 4.05L7.50091 6.225C7.50091 6.375 7.42591 6.525 7.27591 6.675C7.05091 6.825 6.82591 7.05 6.67591 7.275C6.52591 7.425 6.37591 7.5 6.22591 7.5L4.05091 7.8C3.82591 8.25 3.60091 8.775 3.45091 9.3L4.80091 11.1C4.87591 11.25 4.95091 11.4 4.95091 11.625C4.95091 11.85 4.95091 12.225 4.95091 12.45C4.95091 12.6 4.87591 12.825 4.80091 12.9L3.45091 14.7C3.60091 15.225 3.82591 15.675 4.05091 16.2L6.22591 16.5C6.37591 16.5 6.52591 16.575 6.67591 16.725C6.90091 16.95 7.12591 17.175 7.35091 17.4C7.50091 17.55 7.57591 17.7 7.57591 17.85L7.80091 19.95Z" fill="currentColor"/>
</svg>
