<svg width="24" height="24" viewBox="0 0 24 24" fill="none" xmlns="http://www.w3.org/2000/svg">
<path d="M19.1258 3.375C19.1258 2.925 18.8258 2.625 18.3758 2.625C17.9258 2.625 17.6258 2.925 17.6258 3.375V3.825C17.4008 3.9 17.1758 4.05 16.9508 4.2L16.5008 3.975C16.1258 3.825 15.6008 3.9 15.4508 4.275C15.3008 4.65 15.3758 5.1 15.7508 5.325L16.2008 5.625V6.375L15.7508 6.6C15.3758 6.825 15.2258 7.275 15.4508 7.65C15.6758 8.025 16.1258 8.175 16.5008 7.95L16.9508 7.8C17.1008 7.95 17.3258 8.1 17.6258 8.175V8.7C17.6258 9.15 17.9258 9.45 18.3758 9.45C18.8258 9.45 19.1258 9.15 19.1258 8.7V8.175C19.3508 8.1 19.5758 7.95 19.8008 7.8L20.2508 8.025C20.6258 8.175 21.0758 8.1 21.3008 7.725C21.4508 7.35 21.3758 6.9 21.0008 6.675L20.5508 6.375C20.6258 6.3 20.6258 6.15 20.6258 6C20.6258 5.96893 20.6129 5.925 20.5979 5.87353C20.5765 5.80074 20.5508 5.71287 20.5508 5.625L21.0008 5.4C21.3758 5.175 21.5258 4.725 21.3008 4.35C21.0758 3.975 20.6258 3.825 20.2508 4.05L19.8008 4.275C19.6508 4.125 19.4258 3.975 19.1258 3.9V3.375ZM19.1258 6C19.1258 6.45 18.8258 6.75 18.3758 6.75C17.9258 6.75 17.6258 6.45 17.6258 6C17.6258 5.55 17.9258 5.25 18.3758 5.25C18.8258 5.25 19.1258 5.55 19.1258 6Z" fill="currentColor"/>
<path d="M9.45093 18C7.35093 18 5.70093 16.35 5.70093 14.25C5.70093 12.15 7.35093 10.5 9.45093 10.5C11.5509 10.5 13.2009 12.15 13.2009 14.25C13.2009 16.35 11.4759 18 9.45093 18ZM9.45093 12C8.17593 12 7.20093 12.975 7.20093 14.25C7.20093 15.525 8.17593 16.5 9.45093 16.5C10.7259 16.5 11.7009 15.525 11.7009 14.25C11.7009 12.975 10.6509 12 9.45093 12Z" fill="currentColor"/>
<path d="M11.3258 22.1249C11.1758 22.1249 11.0258 22.0499 10.8758 21.9749L9.52578 20.9999H9.22578L7.87578 22.0499C7.72578 22.1999 7.42578 22.1999 7.20078 22.1999C6.52578 22.0499 5.85078 21.7499 5.25078 21.3749C5.02578 21.2249 4.95078 21.0749 4.87578 20.8499L4.65078 19.1249C4.62213 19.0963 4.59349 19.0786 4.56902 19.0635C4.52943 19.039 4.50078 19.0213 4.50078 18.9749L2.77578 18.7499C2.55078 18.7499 2.32578 18.5999 2.25078 18.3749C1.87578 17.7749 1.65078 17.0999 1.42578 16.4249C1.44588 16.3446 1.46059 16.2696 1.47424 16.2C1.51155 16.0098 1.54097 15.8598 1.65078 15.7499L2.70078 14.3999V14.1749L1.65078 12.7499C1.50078 12.5999 1.50078 12.3749 1.50078 12.1499C1.65078 11.4749 1.95078 10.7999 2.32578 10.1999C2.47578 9.97494 2.62578 9.89994 2.85078 9.82494L4.57578 9.59994C4.60443 9.5713 4.62213 9.54265 4.63726 9.51818C4.66172 9.47859 4.67943 9.44994 4.72578 9.44994L4.95078 7.72494C4.95078 7.49994 5.10078 7.27494 5.32578 7.19994C5.92578 6.82494 6.60078 6.59994 7.27578 6.37494C7.50078 6.29994 7.72578 6.37494 7.95078 6.52494L9.30078 7.57494H9.60078L10.9508 6.52494C11.1008 6.37494 11.4008 6.37494 11.6258 6.37494C12.3008 6.52494 12.9758 6.82494 13.5758 7.19994C13.8008 7.34994 13.8758 7.49994 13.9508 7.72494L14.1758 9.44994L14.3258 9.59994L16.0508 9.82494C16.2758 9.82494 16.5008 9.97494 16.5758 10.1999C16.9508 10.7999 17.1758 11.4749 17.4008 12.1499C17.4758 12.3749 17.4008 12.5999 17.2508 12.8249L16.2008 14.1749V14.3999L17.2508 15.7499C17.4008 15.8999 17.4008 16.1999 17.4008 16.4249C17.2508 17.0999 16.9508 17.7749 16.5758 18.3749C16.4258 18.5999 16.2758 18.6749 16.0508 18.7499L14.2508 18.8999L14.1008 19.0499L13.8758 20.7749C13.8758 20.9999 13.7258 21.2249 13.5008 21.2999C12.9008 21.6749 12.2258 21.8999 11.5508 22.1249H11.3258ZM6.37578 20.1749C6.67578 20.3249 6.97578 20.4749 7.27578 20.5499L8.55078 19.5749C8.70078 19.4999 8.85078 19.4249 9.07578 19.4249H9.67578C9.82578 19.4249 10.0508 19.4249 10.2008 19.5749L11.4758 20.5499C11.7758 20.4749 12.0758 20.3249 12.3758 20.1749L12.6008 18.5999C12.6008 18.4499 12.6758 18.2999 12.8258 18.1499L13.2758 17.6999C13.4258 17.5499 13.5758 17.4749 13.7258 17.4749L15.3008 17.2499C15.4508 16.9499 15.6008 16.6499 15.6758 16.3499L14.7008 15.0749C14.6258 14.9249 14.5508 14.7749 14.5508 14.5499V13.9499C14.5508 13.7999 14.6258 13.5749 14.7008 13.4999L15.6758 12.2249C15.6008 11.9249 15.4508 11.6249 15.3008 11.3249L13.7258 11.0999C13.5758 11.0999 13.4258 11.0249 13.2758 10.8749L12.8258 10.4249C12.6758 10.2749 12.6008 10.1249 12.6008 9.97494L12.3758 8.39994C12.0758 8.24994 11.7758 8.09994 11.4758 8.02494L10.2008 8.99994H9.07578C8.92578 8.99994 8.70078 8.99994 8.55078 8.84994L7.27578 7.87494C6.97578 7.94994 6.67578 8.09994 6.37578 8.24994L6.15078 9.82494C6.15078 9.97494 6.07578 10.1249 5.92578 10.2749L5.47578 10.7249C5.32578 10.8749 5.17578 10.9499 5.02578 10.9499L3.45078 11.2499C3.30078 11.5499 3.15078 11.8499 3.07578 12.1499L4.05078 13.4249C4.12578 13.5749 4.20078 13.7249 4.20078 13.9499V14.5499C4.20078 14.6999 4.12578 14.9249 4.05078 14.9999L3.07578 16.2749C3.15078 16.5749 3.30078 16.8749 3.45078 17.1749L5.02578 17.3999C5.17578 17.3999 5.32578 17.4749 5.47578 17.6249L5.92578 18.0749C6.07578 18.2249 6.15078 18.3749 6.15078 18.5249L6.37578 20.1749Z" fill="currentColor"/>
</svg>
