<svg width="24" height="24" viewBox="0 0 24 24" fill="none" xmlns="http://www.w3.org/2000/svg">
<path fill-rule="evenodd" clip-rule="evenodd" d="M2.25 18.75V10.5C2.25 10.0858 2.58579 9.75 3 9.75C3.41421 9.75 3.75 10.0858 3.75 10.5V11.25L20.25 11.25V9H6.75C6.33579 9 6 8.66421 6 8.25C6 7.83579 6.33579 7.5 6.75 7.5H8.25V5.25H6.75C6.33579 5.25 6 4.91421 6 4.5C6 4.08579 6.33579 3.75 6.75 3.75H20.25C21.0784 3.75 21.75 4.42157 21.75 5.25V18.75C21.75 19.5784 21.0784 20.25 20.25 20.25H3.75C2.92157 20.25 2.25 19.5784 2.25 18.75ZM20.25 12.75L3.75 12.75L3.75 15L20.25 15V12.75ZM3.75 18.75L3.75 16.5L20.25 16.5V18.75H3.75ZM9.75 5.25V7.5H11.25V5.25L9.75 5.25ZM14.25 7.5H12.75V5.25L14.25 5.25V7.5ZM15.75 7.5H17.25V5.25L15.75 5.25V7.5ZM20.25 7.5H18.75V5.25H20.25V7.5Z" fill="currentColor"/>
<path fill-rule="evenodd" clip-rule="evenodd" d="M4.63446 4.76073C5.17418 5.2105 5.17418 6.03946 4.63446 6.48923L2.73016 8.07615C2.41195 8.34132 1.93903 8.29833 1.67385 7.98012C1.40868 7.66191 1.45167 7.18899 1.76988 6.92381L3.32848 5.62498L1.76988 4.32615C1.45167 4.06097 1.40868 3.58805 1.67385 3.26984C1.93903 2.95163 2.41195 2.90864 2.73016 3.17381L4.63446 4.76073Z" fill="currentColor"/>
</svg>
