<svg width="24" height="24" viewBox="0 0 24 24" fill="none" xmlns="http://www.w3.org/2000/svg">
<path d="M2.25 15.375V6.75C2.25 6.375 2.325 6 2.475 5.625C2.625 5.25 2.85 4.875 3.15 4.65C3.375 4.35 3.75 4.125 4.125 3.975C4.5 3.825 4.8 3.75 5.25 3.75C5.7 3.75 6 4.125 6 4.5C6 4.95 5.7 5.25 5.25 5.25C5.1375 5.25 5.04375 5.26875 4.95 5.2875C4.85625 5.30625 4.7625 5.325 4.65 5.325C4.5 5.4 4.35 5.55 4.2 5.7C4.05 5.85 3.9 6 3.825 6.15C3.75 6.375 3.75 6.525 3.75 6.75V12.2117C4.46711 11.6132 5.38473 11.25 6.375 11.25C8.23623 11.25 9.84084 12.533 10.3398 14.25H13.6602C14.1592 12.533 15.7638 11.25 17.625 11.25C18.6153 11.25 19.5329 11.6132 20.25 12.2117V6.75C20.25 6.525 20.25 6.375 20.1 6.15C20.0856 6.12111 20.0711 6.08944 20.0561 6.0566C19.9933 5.9189 19.9211 5.76056 19.8 5.7C19.65 5.55 19.5 5.475 19.35 5.4C19.303 5.38435 19.2593 5.36869 19.2176 5.35372C19.0591 5.29696 18.928 5.25 18.75 5.25C18.3 5.25 18 4.95 18 4.5C18 4.05 18.3 3.75 18.75 3.75C19.125 3.75 19.5 3.825 19.875 3.975C20.25 4.125 20.55 4.35 20.85 4.65C21.15 4.95 21.375 5.25 21.525 5.625C21.675 6 21.75 6.375 21.75 6.75V15.375C21.75 17.625 19.875 19.5 17.625 19.5C15.5013 19.5 13.7116 17.8295 13.5175 15.75H10.4825C10.2884 17.8295 8.49873 19.5 6.375 19.5C4.125 19.5 2.25 17.625 2.25 15.375ZM6.375 18C7.8 18 9 16.8 9 15.375C9 13.95 7.8 12.75 6.375 12.75C4.95 12.75 3.75 13.95 3.75 15.375C3.75 16.8 4.95 18 6.375 18ZM20.25 15.375C20.25 13.95 19.05 12.75 17.625 12.75C16.2 12.75 15 13.95 15 15.375C15 16.8 16.2 18 17.625 18C19.05 18 20.25 16.8 20.25 15.375Z" fill="currentColor"/>
</svg>
