<svg width="24" height="24" viewBox="0 0 24 24" fill="none" xmlns="http://www.w3.org/2000/svg">
<path d="M12.225 21.75C12.15 21.75 12.075 21.75 12 21.75C6.6 21.75 2.25 17.4 2.25 12C2.25 9.075 3.525 6.45 5.55 4.65L5.625 4.575C7.35 3.15 9.6 2.25 12 2.25C12.825 2.25 13.65 2.325 14.4 2.55C14.475 2.55 14.55 2.55 14.625 2.625C18.675 3.75 21.75 7.5 21.75 12C21.75 13.5 21.375 14.925 20.775 16.2C20.775 16.275 20.7 16.275 20.7 16.35C19.125 19.425 15.975 21.6 12.3 21.675C12.225 21.75 12.225 21.75 12.225 21.75ZM4.65 8.25C4.05 9.375 3.75 10.65 3.75 12C3.75 16.425 7.2 20.025 11.625 20.25L11.85 18.975L10.05 17.1C9.825 16.875 9.75 16.65 9.675 16.35C9.6 16.05 9.675 15.75 9.825 15.525L10.575 13.875H10.5C10.2 13.875 9.975 13.8 9.675 13.65C9.45 13.5 9.225 13.275 9.15 13.05L8.775 12.3L6.75 11.85C6.525 11.775 6.3 11.7 6.075 11.475C5.85 11.325 5.775 11.1 5.625 10.875L4.65 8.25ZM12.3 13.5L11.175 16.125L12.9 18C13.05 18.15 13.2 18.375 13.275 18.6C13.35 18.825 13.35 19.05 13.275 19.275L13.125 20.175C15.675 19.8 17.775 18.3 19.05 16.275L14.55 13.5L12.375 13.2L12.3 13.35C12.375 13.35 12.375 13.425 12.3 13.5ZM12.45 11.7C12.525 11.7 12.6 11.7 12.675 11.7L14.85 12C15.075 12 15.3 12.075 15.45 12.225L19.8 14.925C20.1 14.025 20.325 13.05 20.325 12.075C20.325 8.925 18.6 6.225 15.975 4.8C16.05 5.025 16.05 5.25 16.05 5.55C15.975 5.85 15.825 6.15 15.6 6.375L13.05 8.625C12.975 8.7 12.9 8.775 12.75 8.85L11.625 9.525C11.4 9.675 11.175 9.675 10.95 9.675H8.925L8.475 10.725L9.075 10.875C9.3 10.95 9.525 11.025 9.675 11.175C9.825 11.325 9.975 11.475 10.125 11.7L10.5 12.45H11.325C11.475 12.3 11.625 12.075 11.85 12C11.925 11.775 12.225 11.7 12.45 11.7ZM6.75 5.7L6 7.5L7.05 10.2L7.5 9.075C7.65 8.775 7.8 8.55 8.025 8.4C8.25 8.25 8.55 8.175 8.85 8.175H10.875L12 7.5L14.55 5.25L13.875 3.975C13.2 3.825 12.6 3.75 12 3.75C9.975 3.75 8.175 4.5 6.75 5.7Z" fill="currentColor"/>
</svg>
