<svg width="24" height="24" viewBox="0 0 24 24" fill="none" xmlns="http://www.w3.org/2000/svg">
<path d="M19.8755 0.750022C19.8755 0.446675 19.6928 0.173198 19.4125 0.0571123C19.1322 -0.0589735 18.8097 0.00519334 18.5952 0.219692L15.5952 3.21969C15.4545 3.36034 15.3755 3.55111 15.3755 3.75002V7.56434L11.4702 11.4697C11.1773 11.7626 11.1773 12.2374 11.4702 12.5303C11.7631 12.8232 12.2379 12.8232 12.5308 12.5303L16.4361 8.62502H20.2505C20.4494 8.62502 20.6402 8.546 20.7808 8.40535L23.7808 5.40535C23.9953 5.19085 24.0595 4.86827 23.9434 4.58801C23.8273 4.30775 23.5538 4.12502 23.2505 4.12502H19.8755V0.750022ZM16.8755 7.12502V4.06068L18.3755 2.56068V5.62502H21.4398L19.9398 7.12502H16.8755Z" fill="currentColor"/>
<path d="M5.69245 4.52555C7.56587 2.95013 9.96247 2.13544 12.4079 2.24273C12.6808 2.25471 12.9521 2.27807 13.2211 2.31253C13.632 2.36516 13.9224 2.74089 13.8698 3.15174C13.8172 3.5626 13.4414 3.853 13.0306 3.80037C12.8028 3.7712 12.5732 3.75143 12.3422 3.74129C10.2722 3.65048 8.24362 4.34007 6.65786 5.67358C5.07211 7.00709 4.04477 8.88734 3.77918 10.9422C3.51359 12.997 4.02911 15.0767 5.22371 16.7695C6.4183 18.4624 8.20491 19.6451 10.2299 20.0836C12.2549 20.522 14.3707 20.1843 16.1586 19.1372C17.9464 18.0901 19.276 16.4099 19.8842 14.4292C20.2308 13.3004 20.3287 12.1208 20.1837 10.9688C20.1319 10.5578 20.4231 10.1827 20.8341 10.131C21.245 10.0792 21.6201 10.3704 21.6719 10.7814C21.8433 12.1423 21.7276 13.5359 21.3181 14.8695C20.5996 17.2095 19.0288 19.1944 16.9167 20.4315C14.8045 21.6686 12.3048 22.0676 9.91248 21.5496C7.52013 21.0316 5.40943 19.6344 3.99813 17.6344C2.58683 15.6344 1.97779 13.1775 2.29155 10.7499C2.60532 8.3223 3.81903 6.10097 5.69245 4.52555Z" fill="currentColor"/>
<path d="M12.4775 6.78213C11.2575 6.67222 10.0376 6.99313 9.0296 7.68909C8.02162 8.38506 7.28928 9.41212 6.95978 10.5919C6.63027 11.7716 6.72443 13.0295 7.2259 14.1471C7.72737 15.2646 8.60445 16.1712 9.70481 16.7094C10.8052 17.2475 12.0593 17.3832 13.2493 17.0929C14.4393 16.8026 15.49 16.1046 16.2189 15.1202C16.9478 14.1358 17.3089 12.9272 17.2394 11.7043C17.2159 11.2907 16.8616 10.9745 16.4481 10.998C16.0345 11.0215 15.7183 11.3758 15.7418 11.7894C15.7914 12.6623 15.5337 13.525 15.0134 14.2276C14.4931 14.9303 13.7432 15.4285 12.8938 15.6357C12.0444 15.8429 11.1492 15.746 10.3638 15.3619C9.57841 14.9778 8.95237 14.3307 8.59444 13.533C8.2365 12.7353 8.1693 11.8375 8.40449 10.9954C8.63968 10.1533 9.16241 9.42021 9.88187 8.92345C10.6013 8.42668 11.4721 8.19763 12.3429 8.27608C12.7554 8.31325 13.12 8.00895 13.1571 7.59641C13.1943 7.18386 12.89 6.8193 12.4775 6.78213Z" fill="currentColor"/>
</svg>
