<svg width="24" height="24" viewBox="0 0 24 24" fill="none" xmlns="http://www.w3.org/2000/svg">
<path d="M19.8759 0.750022C19.8759 0.446675 19.6931 0.173198 19.4129 0.0571123C19.1326 -0.0589735 18.81 0.00519334 18.5955 0.219692L15.5955 3.21969C15.4549 3.36034 15.3759 3.55111 15.3759 3.75002V7.56434L11.4705 11.4697C11.1776 11.7626 11.1776 12.2374 11.4705 12.5303C11.7634 12.8232 12.2383 12.8232 12.5312 12.5303L16.4365 8.62502H20.2509C20.4498 8.62502 20.6405 8.546 20.7812 8.40535L23.7812 5.40535C23.9957 5.19085 24.0599 4.86827 23.9438 4.58801C23.8277 4.30775 23.5542 4.12502 23.2509 4.12502H19.8759V0.750022ZM16.8759 7.12502V4.06068L18.3759 2.56068V5.62502H21.4402L19.9402 7.12502H16.8759Z" fill="currentColor"/>
<path d="M5.69245 4.52537C7.56587 2.94995 9.96247 2.13526 12.4079 2.24255C12.6808 2.25452 12.9521 2.27788 13.2211 2.31235C13.632 2.36498 13.9224 2.7407 13.8698 3.15156C13.8172 3.56242 13.4414 3.85282 13.0306 3.80019C12.8028 3.77102 12.5732 3.75125 12.3422 3.74111C10.2722 3.65029 8.24362 4.33988 6.65786 5.6734C5.07211 7.00691 4.04477 8.88716 3.77918 10.942C3.51359 12.9968 4.02911 15.0765 5.22371 16.7694C6.4183 18.4622 8.20491 19.6449 10.2299 20.0834C11.5061 20.3597 12.8184 20.3278 14.062 20.0042C14.4629 19.8999 14.8724 20.1403 14.9767 20.5412C15.081 20.942 14.8406 21.3516 14.4397 21.4559C12.9706 21.8381 11.4202 21.8759 9.91248 21.5494C7.52013 21.0314 5.40943 19.6342 3.99813 17.6342C2.58683 15.6342 1.97779 13.1773 2.29155 10.7497C2.60532 8.32212 3.81903 6.10079 5.69245 4.52537Z" fill="currentColor"/>
<path d="M20.8341 10.1308C21.245 10.079 21.6201 10.3702 21.6719 10.7812C21.8248 11.9956 21.7492 13.2361 21.4402 14.4368C21.3369 14.8379 20.928 15.0794 20.5269 14.9761C20.1257 14.8729 19.8843 14.464 19.9875 14.0629C20.2491 13.0466 20.3131 11.9967 20.1837 10.9686C20.1319 10.5577 20.4231 10.1825 20.8341 10.1308Z" fill="currentColor"/>
<path d="M16.5009 18.75C16.0866 18.75 15.7509 19.0858 15.7509 19.5C15.7509 19.9142 16.0866 20.25 16.5009 20.25H18.7509V22.5C18.7509 22.9142 19.0866 23.25 19.5009 23.25C19.9151 23.25 20.2509 22.9142 20.2509 22.5V20.25H22.5009C22.9151 20.25 23.2509 19.9142 23.2509 19.5C23.2509 19.0858 22.9151 18.75 22.5009 18.75H20.2509V16.5C20.2509 16.0858 19.9151 15.75 19.5009 15.75C19.0866 15.75 18.7509 16.0858 18.7509 16.5V18.75H16.5009Z" fill="currentColor"/>
<path d="M12.4783 6.78213C11.2583 6.67222 10.0384 6.99313 9.03042 7.68909C8.02245 8.38506 7.2901 9.41212 6.9606 10.5919C6.6311 11.7716 6.72526 13.0295 7.22672 14.1471C7.72819 15.2646 8.60528 16.1712 9.70563 16.7094C10.806 17.2475 12.0601 17.3832 13.2501 17.0929C14.4401 16.8026 15.4908 16.1046 16.2197 15.1202C16.9487 14.1358 17.3097 12.9272 17.2402 11.7043C17.2167 11.2907 16.8624 10.9745 16.4489 10.998C16.0353 11.0215 15.7191 11.3758 15.7427 11.7894C15.7923 12.6623 15.5345 13.525 15.0143 14.2276C14.494 14.9303 13.744 15.4285 12.8946 15.6357C12.0452 15.8429 11.1501 15.746 10.3646 15.3619C9.57924 14.9778 8.95319 14.3307 8.59526 13.533C8.23733 12.7353 8.17012 11.8375 8.40531 10.9954C8.6405 10.1533 9.16323 9.42021 9.8827 8.92345C10.6022 8.42668 11.4729 8.19763 12.3437 8.27608C12.7562 8.31325 13.1208 8.00895 13.158 7.59641C13.1951 7.18386 12.8908 6.8193 12.4783 6.78213Z" fill="currentColor"/>
</svg>
