<svg width="24" height="24" viewBox="0 0 24 24" fill="none" xmlns="http://www.w3.org/2000/svg">
<path d="M9.45815 2.62355C9.59234 2.39232 9.83948 2.25 10.1068 2.25H15.3568C15.6189 2.25 15.8619 2.38677 15.9979 2.61077L22.3729 13.1108C22.5135 13.3423 22.5183 13.6317 22.3854 13.8678C22.2526 14.1039 22.0027 14.25 21.7318 14.25H16.1068C15.8377 14.25 15.5892 14.1058 15.4556 13.8721L9.45565 3.3721C9.323 3.13998 9.32395 2.85479 9.45815 2.62355ZM11.3992 3.75L16.5421 12.75H20.3991L14.9348 3.75H11.3992Z" fill="currentColor"/>
<path d="M4.87333 20.7367C4.60598 20.7361 4.35916 20.5932 4.22548 20.3617L1.60048 15.8151C1.46946 15.5881 1.46638 15.3093 1.59237 15.0795L7.49813 4.30857C7.62838 4.07102 7.8766 3.92218 8.14749 3.9192C8.41838 3.91621 8.66983 4.05954 8.80528 4.29415L11.6178 9.16554C11.7524 9.39863 11.7517 9.68595 11.6161 9.91843L5.52284 20.3646C5.38814 20.5955 5.14068 20.7373 4.87333 20.7367ZM4.87833 18.4925L10.1011 9.53861L8.17263 6.19836L3.11055 15.4306L4.87833 18.4925Z" fill="currentColor"/>
<path d="M6.66298 20.3617C6.5293 20.5932 6.52899 20.8784 6.66215 21.1102C6.79531 21.3421 7.04181 21.4855 7.30916 21.4867L19.4024 21.5405C19.6716 21.5417 19.9207 21.3986 20.0553 21.1655L22.8678 16.2942C23.0032 16.0595 23.0016 15.7701 22.8636 15.537C22.7256 15.3039 22.4726 15.1634 22.2017 15.1693L9.92096 15.4402C9.65898 15.446 9.419 15.5881 9.28798 15.8151L6.66298 20.3617ZM18.9739 20.0386L8.60821 19.9925L10.376 16.9306L20.9024 16.6984L18.9739 20.0386Z" fill="currentColor"/>
</svg>
