<svg width="24" height="24" viewBox="0 0 24 24" fill="none" xmlns="http://www.w3.org/2000/svg">
<path d="M18 10.5C18 10.0858 17.6642 9.75 17.25 9.75C16.8358 9.75 16.5 10.0858 16.5 10.5V11.25H15.75C15.3358 11.25 15 11.5858 15 12C15 12.4142 15.3358 12.75 15.75 12.75H16.5V13.5C16.5 13.9142 16.8358 14.25 17.25 14.25C17.6642 14.25 18 13.9142 18 13.5V12.75H18.75C19.1642 12.75 19.5 12.4142 19.5 12C19.5 11.5858 19.1642 11.25 18.75 11.25H18V10.5Z" fill="currentColor"/>
<path d="M7.49935 9.1942C8.14862 8.76017 8.92832 8.56474 9.70555 8.64123C10.4828 8.71772 11.2094 9.0614 11.7616 9.61367C12.0545 9.90658 12.5294 9.90661 12.8223 9.61373C13.1152 9.32086 13.1152 8.84598 12.8224 8.55307C12.0247 7.75535 10.9751 7.25893 9.85246 7.14845C8.7298 7.03796 7.60356 7.32024 6.66572 7.94718C5.72789 8.57411 5.0365 9.50689 4.70942 10.5865C4.38233 11.6661 4.43979 12.8258 4.87201 13.8678C5.30422 14.9098 6.08444 15.7697 7.07966 16.3008C8.07488 16.832 9.2235 17.0015 10.3297 16.7806C11.436 16.5597 12.4314 15.9619 13.1462 15.0892C13.8611 14.2166 14.2512 13.123 14.25 11.9949C14.2496 11.581 13.9139 11.2457 13.5 11.2457H9.37968C8.96547 11.2457 8.62968 11.5815 8.62968 11.9957C8.62968 12.4099 8.96547 12.7457 9.37968 12.7457H12.6666C12.5516 13.2533 12.32 13.7308 11.9859 14.1387C11.491 14.7429 10.8018 15.1567 10.036 15.3096C9.27012 15.4626 8.47492 15.3452 7.78592 14.9775C7.09692 14.6098 6.55677 14.0145 6.25754 13.2931C5.95832 12.5717 5.91854 11.7689 6.14498 11.0214C6.37142 10.274 6.85007 9.62823 7.49935 9.1942Z" fill="currentColor"/>
<path d="M2.25 3.81818C2.25 2.9521 2.9521 2.25 3.81818 2.25H20.1818C21.0479 2.25 21.75 2.9521 21.75 3.81818V20.1818C21.75 21.0479 21.0479 21.75 20.1818 21.75H3.81818C2.9521 21.75 2.25 21.0479 2.25 20.1818V3.81818ZM3.81818 3.75C3.78053 3.75 3.75 3.78053 3.75 3.81818V20.1818C3.75 20.2195 3.78053 20.25 3.81818 20.25H20.1818C20.2195 20.25 20.25 20.2195 20.25 20.1818V3.81818C20.25 3.78053 20.2195 3.75 20.1818 3.75H3.81818Z" fill="currentColor"/>
</svg>
