<svg width="24" height="24" viewBox="0 0 24 24" fill="none" xmlns="http://www.w3.org/2000/svg">
<path d="M11.6471 2.33824C11.8676 2.22059 12.1324 2.22059 12.3529 2.33824L23.6029 8.33824C23.8473 8.46858 24 8.72302 24 9C24 9.27698 23.8473 9.53142 23.6029 9.66176L21.375 10.85V15.5156L21.375 15.5188C21.3736 15.8397 21.2681 16.1515 21.0743 16.4072C20.7251 16.8757 19.8456 17.9174 18.375 18.8482V22.5C18.375 22.9142 18.0392 23.25 17.625 23.25C17.2108 23.25 16.875 22.9142 16.875 22.5V19.6443C15.5672 20.2154 13.9496 20.625 12 20.625C6.48818 20.625 3.62958 17.3515 2.92566 16.4071C2.7319 16.1514 2.62636 15.8397 2.62501 15.5188L2.625 15.5156V10.85L0.397059 9.66176C0.152661 9.53142 0 9.27698 0 9C0 8.72302 0.152661 8.46858 0.397059 8.33824L11.6471 2.33824ZM3.78423 9.76825L12 14.15L16.0312 12L11.6471 9.66176C11.2816 9.46684 11.1433 9.01254 11.3382 8.64706C11.5332 8.28158 11.9875 8.14331 12.3529 8.33824L17.625 11.15L20.2158 9.76825C20.2524 9.74435 20.2913 9.72356 20.332 9.70626L21.6562 9L12 3.85L2.34375 9L3.66799 9.70626C3.7087 9.72356 3.74758 9.74435 3.78423 9.76825ZM4.125 11.65V15.5062L4.12664 15.5084L4.1266 15.5084C4.68281 16.2555 7.14899 19.125 12 19.125C14.0317 19.125 15.6451 18.6217 16.875 17.9817V13.25L12.3529 15.6618C12.1324 15.7794 11.8676 15.7794 11.6471 15.6618L4.125 11.65ZM18.375 12.45V17.0142C19.1704 16.3881 19.6611 15.7936 19.8734 15.5084L19.875 15.5062V11.65L18.375 12.45Z" fill="currentColor"/>
</svg>
