<svg width="32" height="32" viewBox="0 0 32 32" fill="none" xmlns="http://www.w3.org/2000/svg">
<g clip-path="url(#clip0_29_486)">
<path d="M15.0002 3C15.5525 3 16.0002 3.44772 16.0002 4V5C16.0002 5.55228 15.5525 6 15.0002 6C14.4479 6 14.0002 5.55228 14.0002 5V4C14.0002 3.44772 14.4479 3 15.0002 3Z" fill="currentColor"/>
<path d="M21.0002 17C21.0002 16.4477 21.4479 16 22.0002 16H23.0002C23.5525 16 24.0002 16.4477 24.0002 17C24.0002 17.5523 23.5525 18 23.0002 18H22.0002C21.4479 18 21.0002 17.5523 21.0002 17Z" fill="currentColor"/>
<path d="M16.0002 9C16.0002 8.44772 15.5525 8 15.0002 8C14.4479 8 14.0002 8.44772 14.0002 9V10C14.0002 10.5523 14.4479 11 15.0002 11C15.5525 11 16.0002 10.5523 16.0002 10V9Z" fill="currentColor"/>
<path d="M16 14C16 13.4477 15.5523 13 15 13C14.4477 13 14 13.4477 14 14V16.6337C13.926 16.6765 13.8562 16.7296 13.7929 16.7929L4.29289 26.2929C3.90237 26.6834 3.90237 27.3166 4.29289 27.7071C4.68342 28.0976 5.31658 28.0976 5.70711 27.7071L15.2071 18.2071C15.2704 18.1438 15.3235 18.074 15.3663 18H18C18.5523 18 19 17.5523 19 17C19 16.4477 18.5523 16 18 16H16V14Z" fill="currentColor"/>
<path d="M27 16C26.4477 16 26 16.4477 26 17C26 17.5523 26.4477 18 27 18H28C28.5523 18 29 17.5523 29 17C29 16.4477 28.5523 16 28 16H27Z" fill="currentColor"/>
<path d="M26.7071 5.29289C27.0976 5.68342 27.0976 6.31658 26.7071 6.70711L20.7071 12.7071C20.3166 13.0976 19.6834 13.0976 19.2929 12.7071C18.9024 12.3166 18.9024 11.6834 19.2929 11.2929L25.2929 5.29289C25.6834 4.90237 26.3166 4.90237 26.7071 5.29289Z" fill="currentColor"/>
</g>
<defs>
<clipPath id="clip0_29_486">
<rect width="32" height="32" fill="white"/>
</clipPath>
</defs>
</svg>
