<svg width="32" height="32" viewBox="0 0 32 32" fill="none" xmlns="http://www.w3.org/2000/svg">
<path d="M5.00001 6C5.00001 5.44772 4.5523 5 4.00001 5C3.44773 5 3.00001 5.44772 3.00001 6V19.4947C3 19.4982 3 19.5017 3.00001 19.5052V26C3.00001 26.5523 3.44773 27 4.00001 27H28C28.5523 27 29 26.5523 29 26C29 25.4477 28.5523 25 28 25H5.00001V19.9118C5.70916 19.1914 6.37725 18.4739 6.99699 17.8084C7.37317 17.4044 7.73166 17.0194 8.07058 16.6646C9.07625 15.6119 9.93448 14.7977 10.7563 14.2732C11.5553 13.7633 12.2551 13.5686 12.975 13.663C13.7208 13.7609 14.6451 14.1892 15.8356 15.2474C18.2022 17.3511 20.4202 18.2189 22.7034 17.589C24.8546 16.9956 26.779 15.127 28.7809 12.6247C29.1259 12.1935 29.056 11.5642 28.6247 11.2192C28.1934 10.8742 27.5641 10.9441 27.2191 11.3753C25.221 13.873 23.6454 15.2545 22.1716 15.661C20.8298 16.0312 19.2978 15.649 17.1644 13.7526C15.8127 12.5511 14.5284 11.8496 13.2351 11.68C11.9158 11.507 10.7459 11.9073 9.68038 12.5873C8.63779 13.2527 7.63685 14.2233 6.62445 15.283C6.24994 15.675 5.87563 16.0772 5.49218 16.4892C5.33 16.6635 5.16618 16.8395 5.00001 17.0172V6Z" fill="currentColor"/>
</svg>
