<svg width="32" height="32" viewBox="0 0 32 32" fill="none" xmlns="http://www.w3.org/2000/svg">
<g clip-path="url(#clip0_29_549)">
<path fill-rule="evenodd" clip-rule="evenodd" d="M8.66205 21.9618C7.7533 23.6449 6.3265 25.0008 4.03962 25C3.46524 24.9998 2.99979 24.5519 3 23.9996C3.00021 23.4473 3.46601 22.9998 4.04038 23C5.25554 23.0004 6.10507 22.357 6.81601 21.0403C7.54986 19.6811 8.00809 17.8162 8.45045 15.795C8.49879 15.5741 8.54698 15.3511 8.59542 15.1269C8.97424 13.3737 9.36883 11.5474 9.97131 10.1235C10.6427 8.53677 11.7706 6.99999 13.8457 7C14.8412 7 15.6582 7.36911 16.2896 7.98607C16.8904 8.57307 17.2951 9.35441 17.5922 10.169C18.1133 11.5973 18.4019 13.4275 18.6782 15.1796C18.7136 15.4038 18.7487 15.6268 18.7842 15.8475C19.1089 17.8708 19.4577 19.729 20.1082 21.0798C20.4271 21.7421 20.7898 22.2179 21.1977 22.5262C21.5873 22.8205 22.0669 23 22.7176 23C23.2919 23 23.7575 23.4477 23.7575 24C23.7575 24.5523 23.2919 25 22.7176 25C21.6171 25 20.6813 24.6795 19.9127 24.0988C19.1625 23.5321 18.6241 22.7579 18.2207 21.9202C17.4266 20.271 17.0458 18.1292 16.7285 16.1525C16.6926 15.929 16.6575 15.7075 16.6228 15.4886C16.3386 13.6947 16.081 12.0688 15.6295 10.831C15.3795 10.1456 15.1019 9.67695 14.8072 9.38894C14.543 9.1309 14.251 9 13.8457 9C13.1192 9 12.4961 9.46353 11.898 10.8772C11.3723 12.1195 11.019 13.7496 10.6304 15.5421C10.5829 15.7614 10.5348 15.9831 10.4859 16.2069C10.0527 18.1859 9.54789 20.3212 8.66205 21.9618ZM25.9861 24C25.9861 23.4477 26.4517 23 27.0261 23H27.96C28.5344 23 29 23.4477 29 24C29 24.5523 28.5344 25 27.96 25H27.0261C26.4517 25 25.9861 24.5523 25.9861 24Z" fill="currentColor"/>
</g>
<defs>
<clipPath id="clip0_29_549">
<rect width="32" height="32" fill="white"/>
</clipPath>
</defs>
</svg>
