<svg width="32" height="32" viewBox="0 0 32 32" fill="none" xmlns="http://www.w3.org/2000/svg">
<g clip-path="url(#clip0_2367_1162)">
<path fill-rule="evenodd" clip-rule="evenodd" d="M28.96 6.53117C29.1151 6.00112 28.8112 5.44566 28.2811 5.29052C27.7511 5.13539 27.1956 5.43931 27.0405 5.96936C26.2932 8.52253 25.1338 11.2245 23.7913 13.6419C23.5401 14.0944 23.6622 14.6675 24.0832 14.9687C24.5596 15.3095 25.2286 15.1718 25.5136 14.66C26.9516 12.0787 28.1741 9.21602 28.96 6.53117ZM18.9761 22.5006C19.5416 22.1607 19.5154 21.3647 18.9787 20.9807L18.9216 20.9399C18.5754 20.6922 18.1154 20.7008 17.741 20.9035C17.6959 20.9279 17.6511 20.9512 17.6067 20.9734C17.0016 21.276 16.5326 21.3388 16.1757 21.2663C15.5253 21.1343 14.5907 20.3589 13.9774 17.5378C13.2842 14.349 12.0658 12.3536 10.523 11.5432C8.84746 10.663 7.17396 11.3519 6.20022 12.6503L6.18554 12.6698L6.17184 12.6901C5.63036 13.4908 5.25647 14.523 4.96473 15.5934C4.66988 16.6753 4.43737 17.8819 4.21633 19.0679L4.15681 19.3877C3.72448 21.7125 3.32381 23.867 2.60579 25.303C2.3588 25.797 2.55903 26.3977 3.053 26.6446C3.54698 26.8916 4.14765 26.6914 4.39465 26.1974C5.24456 24.4976 5.69221 22.0806 6.09909 19.8836C6.12704 19.7327 6.15479 19.5829 6.18247 19.4343C6.40471 18.2419 6.62395 17.1115 6.89435 16.1193C7.16433 15.1287 7.46485 14.3569 7.81478 13.831C8.33851 13.1457 8.98563 12.9947 9.59294 13.3138C10.3387 13.7055 11.3703 14.96 12.023 17.9627C12.6598 20.8916 13.8501 22.835 15.7778 23.2263C16.7101 23.4156 17.6434 23.1912 18.5012 22.7623C18.6599 22.6829 18.8182 22.5955 18.9761 22.5006Z" fill="currentColor"/>
<path fill-rule="evenodd" clip-rule="evenodd" d="M21.0002 5.25024C21.5525 5.25024 22.0002 5.69796 22.0002 6.25024V7.25024C22.0002 7.80253 21.5525 8.25024 21.0002 8.25024C20.4479 8.25024 20.0002 7.80253 20.0002 7.25024V6.25024C20.0002 5.69796 20.4479 5.25024 21.0002 5.25024Z" fill="currentColor"/>
<path fill-rule="evenodd" clip-rule="evenodd" d="M27.0002 19.2502C27.0002 18.698 27.4479 18.2502 28.0002 18.2502H29.0002C29.5525 18.2502 30.0002 18.698 30.0002 19.2502C30.0002 19.8025 29.5525 20.2502 29.0002 20.2502H28.0002C27.4479 20.2502 27.0002 19.8025 27.0002 19.2502Z" fill="currentColor"/>
<path fill-rule="evenodd" clip-rule="evenodd" d="M21.0002 10.2502C21.5525 10.2502 22.0002 10.698 22.0002 11.2502V12.2502C22.0002 12.8025 21.5525 13.2502 21.0002 13.2502C20.4479 13.2502 20.0002 12.8025 20.0002 12.2502V11.2502C20.0002 10.698 20.4479 10.2502 21.0002 10.2502Z" fill="currentColor"/>
<path d="M22 16.2502C22 15.698 21.5523 15.2502 21 15.2502C20.4477 15.2502 20 15.698 20 16.2502V19.2502C20 19.8025 20.4477 20.2502 21 20.2502H24C24.5523 20.2502 25 19.8025 25 19.2502C25 18.698 24.5523 18.2502 24 18.2502H22V16.2502Z" fill="currentColor"/>
</g>
<defs>
<clipPath id="clip0_2367_1162">
<rect width="32" height="32" fill="white"/>
</clipPath>
</defs>
</svg>
