<svg width="32" height="32" viewBox="0 0 32 32" fill="none" xmlns="http://www.w3.org/2000/svg">
<g clip-path="url(#clip0_29_511)">
<path d="M6 26C10.0892 26 12.7011 24.8011 14.441 22.8538C16.1221 20.9724 16.8746 18.5013 17.5225 16.28L17.6 16.0139C18.2421 13.8085 18.8055 11.8737 19.936 10.4287C21.035 9.02415 22.7519 8 26 8C26.5523 8 27 7.55228 27 7C27 6.44772 26.5523 6 26 6C22.2481 6 19.9025 7.22585 18.3609 9.19629C16.984 10.9561 16.3213 13.2416 15.7177 15.3236C15.6791 15.4566 15.6408 15.5888 15.6025 15.72C14.9379 17.9987 14.2842 20.0276 12.9496 21.5212C11.6739 22.9489 9.6608 24 6 24C5.44772 24 5 24.4477 5 25C5 25.5523 5.44772 26 6 26Z" fill="currentColor"/>
<path d="M19 24C18.4477 24 18 24.4477 18 25C18 25.5523 18.4477 26 19 26H19.5C20.0523 26 20.5 25.5523 20.5 25C20.5 24.4477 20.0523 24 19.5 24H19Z" fill="currentColor"/>
<path d="M24.5 24C23.9477 24 23.5 24.4477 23.5 25C23.5 25.5523 23.9477 26 24.5 26H25C25.5523 26 26 25.5523 26 25C26 24.4477 25.5523 24 25 24H24.5Z" fill="currentColor"/>
<path d="M6.63379 13.4307C7.15788 13.7087 7.77767 13.8477 8.49316 13.8477C8.97168 13.8477 9.375 13.8066 9.70312 13.7246C10.0312 13.6471 10.3389 13.5264 10.626 13.3623V11.9678C10.3343 12.1273 10.0244 12.2572 9.69629 12.3574C9.36816 12.4577 8.99674 12.5078 8.58203 12.5078C8.16276 12.5078 7.80957 12.4121 7.52246 12.2207C7.23535 12.0247 7.01888 11.7376 6.87305 11.3594C6.72721 10.9766 6.6543 10.5072 6.6543 9.95117C6.6543 9.37695 6.72493 8.89616 6.86621 8.50879C7.01204 8.12142 7.23079 7.82975 7.52246 7.63379C7.81868 7.43783 8.18783 7.33984 8.62988 7.33984C8.89876 7.33984 9.17904 7.37858 9.4707 7.45605C9.76237 7.53353 10.0472 7.62923 10.3252 7.74316L10.8037 6.45801C10.5485 6.3304 10.2363 6.22331 9.86719 6.13672C9.5026 6.04557 9.09473 6 8.64355 6C7.93262 6 7.30143 6.139 6.75 6.41699C6.20312 6.69499 5.77474 7.12565 5.46484 7.70898C5.15495 8.29232 5 9.04427 5 9.96484C5 10.849 5.14128 11.5781 5.42383 12.1523C5.70638 12.7266 6.1097 13.1527 6.63379 13.4307Z" fill="currentColor"/>
</g>
<defs>
<clipPath id="clip0_29_511">
<rect width="32" height="32" fill="white"/>
</clipPath>
</defs>
</svg>
