<svg width="32" height="32" viewBox="0 0 32 32" fill="none" xmlns="http://www.w3.org/2000/svg">
<g clip-path="url(#clip0_29_559)">
<path fill-rule="evenodd" clip-rule="evenodd" d="M5.87491 24.5725C5.14194 25.3068 4.19333 26 3.01818 26C2.45586 26 2 25.5395 2 24.9714C2 24.4034 2.45586 23.9429 3.01818 23.9429C3.37031 23.9429 3.8217 23.7323 4.441 23.1118C5.00643 22.5454 5.56328 21.7927 6.19064 20.9447C6.23978 20.8783 6.28934 20.8113 6.33938 20.7437C6.9997 19.8525 7.73991 18.8708 8.56491 18.1196C9.39328 17.3654 10.4266 16.7322 11.6813 16.7429C13.0073 16.7542 14.0558 17.3165 14.9149 18.0495C15.687 18.7083 16.3628 19.5572 16.9722 20.3226C17.0188 20.3811 17.065 20.4391 17.1108 20.4965C18.4962 22.2324 19.6083 23.4582 21.3455 23.4582C21.9078 23.4582 22.3636 23.9187 22.3636 24.4867C22.3636 25.0548 21.9078 25.5153 21.3455 25.5153C18.5008 25.5153 16.8128 23.4007 15.5255 21.7877C15.4909 21.7444 15.4566 21.7014 15.4226 21.6587C14.7757 20.8474 14.2169 20.1467 13.6009 19.6211C12.9805 19.0917 12.3744 18.806 11.6641 18.8C11.137 18.7955 10.5794 19.0548 9.92827 19.6477C9.27373 20.2436 8.64575 21.0639 7.96971 21.9764C7.91416 22.0513 7.85819 22.1271 7.80181 22.2034C7.20106 23.0164 6.55375 23.8924 5.87491 24.5725ZM13.8901 22.0946C13.8901 22.0946 13.9401 22.1546 13.8901 22.2433C13.623 22.7167 13.2668 23.2631 12.8177 23.7768C12.2379 24.44 11.459 25.099 10.4674 25.4329C9.93396 25.6126 9.35735 25.3213 9.17952 24.7824C9.0017 24.2435 9.29001 23.661 9.82348 23.4814C10.3592 23.301 10.853 22.9165 11.2914 22.4151C11.7266 21.9172 12.0639 21.3535 12.2948 20.9005C12.3434 20.8052 12.4125 20.7774 12.496 20.797C12.8551 20.8813 13.8901 22.0946 13.8901 22.0946Z" fill="currentColor"/>
<path d="M16.602 16.746C16.7118 16.288 16.8111 15.8184 16.9106 15.3482C17.1664 14.1395 17.4232 12.926 17.8595 11.8907C18.1523 11.196 18.4809 10.708 18.8444 10.4155C19.1728 10.1513 19.5851 9.99957 20.2009 10.0774C20.4023 10.1028 20.6521 10.2189 20.9591 10.5493C21.2715 10.8855 21.5886 11.3871 21.9092 12.0537C22.5464 13.3786 23.091 15.1207 23.6647 16.956L23.6836 17.0165C24.2487 18.8243 24.8465 20.73 25.5767 22.1794C25.943 22.9066 26.3753 23.5875 26.9067 24.0971C27.4519 24.62 28.1441 24.9995 28.9818 24.9995C29.5441 24.9995 30 24.539 30 23.9709C30 23.4028 29.5441 22.9423 28.9818 22.9423C28.8013 22.9423 28.5867 22.8718 28.3087 22.6052C28.0168 22.3253 27.7093 21.8773 27.3915 21.2464C26.7535 19.9798 26.2058 18.2535 25.6255 16.397L25.5778 16.2446C25.0271 14.4823 24.4444 12.6176 23.7408 11.1547C23.3773 10.3989 22.9546 9.6911 22.4438 9.14135C21.9275 8.58577 21.2704 8.13932 20.4536 8.03613C19.3135 7.89208 18.3484 8.18487 17.576 8.80622C16.8387 9.39929 16.3429 10.2376 15.9859 11.0849C15.4659 12.3187 15.1436 13.8436 14.8768 15.1061C14.8482 15.2412 14.8203 15.3734 14.7928 15.5018C14.7928 15.5018 14.8313 15.6003 14.8768 15.6323C15.7455 16.2432 16.2545 16.7429 16.4151 16.956C16.4417 16.9912 16.5273 16.956 16.5273 16.956C16.5591 16.8903 16.5843 16.82 16.602 16.746Z" fill="currentColor"/>
</g>
<defs>
<clipPath id="clip0_29_559">
<rect width="32" height="32" fill="white"/>
</clipPath>
</defs>
</svg>
