<svg width="32" height="32" viewBox="0 0 32 32" fill="none" xmlns="http://www.w3.org/2000/svg">
<path fill-rule="evenodd" clip-rule="evenodd" d="M5.00001 4C4.44772 4 4.00001 4.44772 4.00001 5V15C4.00001 15.5523 4.44772 16 5.00001 16C5.55229 16 6.00001 15.5523 6.00001 15V11H8.50001C10.433 11 12 9.433 12 7.5C12 5.567 10.433 4 8.50001 4H5.00001ZM8.50001 9H6.00001V6H8.50001C9.32844 6 10 6.67157 10 7.5C10 8.32843 9.32844 9 8.50001 9ZM19 8C18.4477 8 18 8.44772 18 9C18 9.55228 18.4477 10 19 10C19.5523 10 20 9.55228 20 9C20 8.44772 19.5523 8 19 8ZM16 9C16 7.34315 17.3432 6 19 6C20.6569 6 22 7.34315 22 9C22 10.6569 20.6569 12 19 12C17.3432 12 16 10.6569 16 9ZM4.13908 23.5088C3.85811 23.0333 4.0158 22.4201 4.49128 22.1391L26.4913 9.1391C26.9668 8.85813 27.58 9.01582 27.8609 9.4913C28.1419 9.96677 27.9842 10.58 27.5087 10.861L5.50873 23.861C5.03326 24.1419 4.42004 23.9842 4.13908 23.5088ZM25 22C24.4477 22 24 22.4477 24 23C24 23.5523 24.4477 24 25 24C25.5523 24 26 23.5523 26 23C26 22.4477 25.5523 22 25 22ZM22 23C22 21.3431 23.3432 20 25 20C26.6569 20 28 21.3431 28 23C28 24.6569 26.6569 26 25 26C23.3432 26 22 24.6569 22 23ZM11 25C11 24.4477 11.4477 24 12 24C12.5523 24 13 24.4477 13 25C13 25.5523 12.5523 26 12 26C11.4477 26 11 25.5523 11 25ZM12 22C10.3432 22 9.00001 23.3431 9.00001 25C9.00001 26.6569 10.3432 28 12 28C13.6569 28 15 26.6569 15 25C15 23.3431 13.6569 22 12 22Z" fill="currentColor" fill-opacity="0.9"/>
</svg>
