<svg width="24" height="24" viewBox="0 0 24 24" fill="none" xmlns="http://www.w3.org/2000/svg">
<path d="M7.63542 14.9177C6.96026 13.9077 6.65627 12.6948 6.77525 11.4858C6.89424 10.2768 7.42884 9.14645 8.28793 8.28746C8.58084 7.99459 8.58087 7.51971 8.28799 7.2268C7.99512 6.93389 7.52024 6.93386 7.22733 7.22674C6.12279 8.33115 5.43544 9.78444 5.28246 11.3389C5.12948 12.8934 5.52033 14.4528 6.3884 15.7513C7.25646 17.0499 8.548 18.0072 10.0429 18.46C11.5377 18.9129 13.1434 18.8334 14.5862 18.2349C16.029 17.6365 17.2195 16.5562 17.955 15.1782C18.6904 13.8002 18.9252 12.2098 18.6193 10.678C18.3134 9.14632 17.4857 7.7681 16.2774 6.77829C15.0691 5.78849 13.5549 5.24837 11.9929 5.25C11.579 5.25044 11.2437 5.5861 11.2437 6L11.2437 11.9932C11.2437 12.4074 11.5795 12.7432 11.9937 12.7432C12.4079 12.7432 12.7437 12.4074 12.7437 11.9932L12.7437 6.80294C13.6876 6.93801 14.582 7.32847 15.3269 7.93867C16.2667 8.70852 16.9104 9.78047 17.1483 10.9718C17.3862 12.1631 17.2036 13.4001 16.6316 14.4719C16.0596 15.5437 15.1336 16.3839 14.0115 16.8494C12.8893 17.3148 11.6405 17.3767 10.4778 17.0245C9.31511 16.6722 8.31058 15.9277 7.63542 14.9177Z" fill="currentColor"/>
<path d="M3.81818 2.25C2.9521 2.25 2.25 2.9521 2.25 3.81818V20.1818C2.25 21.0479 2.9521 21.75 3.81818 21.75H20.1818C21.0479 21.75 21.75 21.0479 21.75 20.1818V3.81818C21.75 2.9521 21.0479 2.25 20.1818 2.25H3.81818ZM3.75 3.81818C3.75 3.78053 3.78053 3.75 3.81818 3.75H20.1818C20.2195 3.75 20.25 3.78053 20.25 3.81818V20.1818C20.25 20.2195 20.2195 20.25 20.1818 20.25H3.81818C3.78053 20.25 3.75 20.2195 3.75 20.1818V3.81818Z" fill="currentColor"/>
</svg>
