<svg width="32" height="32" viewBox="0 0 32 32" fill="none" xmlns="http://www.w3.org/2000/svg">
<g clip-path="url(#clip0_36_167)">
<path d="M5.0546 5.8319C5.67335 5.41949 6.09498 5.32813 6.45708 5.34706C6.86504 5.36839 7.33225 5.53421 8.05287 5.89442L8.10307 5.91954C8.57147 6.15406 9.21003 6.47379 9.95206 6.55623C10.7804 6.64826 11.6375 6.44338 12.5547 5.83192C13.0142 5.52557 13.1384 4.9047 12.832 4.44517C12.5257 3.98564 11.9048 3.86146 11.4453 4.16781C10.8625 4.55633 10.4696 4.60142 10.1729 4.56846C9.8168 4.5289 9.4746 4.36914 8.9471 4.10547C8.19251 3.72828 7.40972 3.39413 6.56149 3.34979C5.66739 3.30305 4.82662 3.58032 3.94537 4.16769C3.48581 4.474 3.36157 5.09486 3.66788 5.55442C3.97419 6.01398 4.59504 6.13821 5.0546 5.8319Z" fill="currentColor"/>
<path d="M9.60544 17H12L8.5034 11.9829L11.9728 8H9.63265L6.93878 11.0595C6.79819 11.236 6.65986 11.4124 6.52381 11.5889C6.38776 11.7654 6.24943 11.9419 6.10884 12.1183V8H4V17H6.10884V13.7866L7 13.2079L9.60544 17Z" fill="currentColor"/>
<path fill-rule="evenodd" clip-rule="evenodd" d="M23.4021 20.1316C25.9415 20.1316 28 18.1089 28 15.6138C28 13.1186 25.9415 11.0959 23.4021 11.0959C20.8628 11.0959 18.8042 13.1186 18.8042 15.6138C18.8042 18.1089 20.8628 20.1316 23.4021 20.1316ZM23.4021 18.1236C24.8129 18.1236 25.9565 16.9999 25.9565 15.6138C25.9565 14.2276 24.8129 13.1039 23.4021 13.1039C21.9914 13.1039 20.8477 14.2276 20.8477 15.6138C20.8477 16.9999 21.9914 18.1236 23.4021 18.1236Z" fill="currentColor"/>
<path fill-rule="evenodd" clip-rule="evenodd" d="M16.0015 26.9999C18.2587 26.9999 20.0885 25.202 20.0885 22.9841C20.0885 20.7662 18.2587 18.9683 16.0015 18.9683C13.7443 18.9683 11.9145 20.7662 11.9145 22.9841C11.9145 25.202 13.7443 26.9999 16.0015 26.9999ZM16.0015 24.992C17.1301 24.992 18.045 24.0931 18.045 22.9841C18.045 21.8752 17.1301 20.9762 16.0015 20.9762C14.8729 20.9762 13.958 21.8752 13.958 22.9841C13.958 24.0931 14.8729 24.992 16.0015 24.992Z" fill="currentColor"/>
<path fill-rule="evenodd" clip-rule="evenodd" d="M24.2791 26.8034C25.6899 26.8034 26.8335 25.6796 26.8335 24.2935C26.8335 22.9073 25.6899 21.7836 24.2791 21.7836C22.8684 21.7836 21.7247 22.9073 21.7247 24.2935C21.7247 25.6796 22.8684 26.8034 24.2791 26.8034ZM24.2791 24.7954C24.5613 24.7954 24.79 24.5707 24.79 24.2935C24.79 24.0162 24.5613 23.7915 24.2791 23.7915C23.997 23.7915 23.7682 24.0162 23.7682 24.2935C23.7682 24.5707 23.997 24.7954 24.2791 24.7954Z" fill="currentColor"/>
</g>
<defs>
<clipPath id="clip0_36_167">
<rect width="32" height="32" fill="white"/>
</clipPath>
</defs>
</svg>
