<svg width="24" height="24" viewBox="0 0 24 24" fill="none" xmlns="http://www.w3.org/2000/svg">
<path d="M12 6.375C12 4.51104 13.511 3 15.375 3C17.239 3 18.75 4.51104 18.75 6.375C18.75 8.23896 17.239 9.75 15.375 9.75C13.511 9.75 12 8.23896 12 6.375ZM15.375 4.5C14.3395 4.5 13.5 5.33947 13.5 6.375C13.5 7.41053 14.3395 8.25 15.375 8.25C16.4105 8.25 17.25 7.41053 17.25 6.375C17.25 5.33947 16.4105 4.5 15.375 4.5Z" fill="currentColor"/>
<path d="M3 15C3 11.6863 5.68629 9 9 9C12.3137 9 15 11.6863 15 15C15 18.3137 12.3137 21 9 21C5.68629 21 3 18.3137 3 15ZM9 10.5C6.51472 10.5 4.5 12.5147 4.5 15C4.5 17.4853 6.51472 19.5 9 19.5C11.4853 19.5 13.5 17.4853 13.5 15C13.5 12.5147 11.4853 10.5 9 10.5Z" fill="currentColor"/>
<path d="M18.75 10.5C17.5074 10.5 16.5 11.5074 16.5 12.75C16.5 13.9926 17.5074 15 18.75 15C19.9926 15 21 13.9926 21 12.75C21 11.5074 19.9926 10.5 18.75 10.5ZM18 12.75C18 12.3358 18.3358 12 18.75 12C19.1642 12 19.5 12.3358 19.5 12.75C19.5 13.1642 19.1642 13.5 18.75 13.5C18.3358 13.5 18 13.1642 18 12.75Z" fill="currentColor"/>
</svg>
