<svg width="32" height="32" viewBox="0 0 32 32" fill="none" xmlns="http://www.w3.org/2000/svg">
<g clip-path="url(#clip0_29_616)">
<path d="M11.0561 15.0356H13.174V6H11.0561V9.51316H7.12681V6H5V15.0356H7.12681V11.0541H11.0561V15.0356Z" fill="currentColor"/>
<path fill-rule="evenodd" clip-rule="evenodd" d="M20.0885 22.9842C20.0885 25.2021 18.2587 27 16.0015 27C13.7443 27 11.9145 25.2021 11.9145 22.9842C11.9145 20.7663 13.7443 18.9683 16.0015 18.9683C18.2587 18.9683 20.0885 20.7663 20.0885 22.9842ZM18.045 22.9842C18.045 24.0931 17.1301 24.9921 16.0015 24.9921C14.8729 24.9921 13.958 24.0931 13.958 22.9842C13.958 21.8752 14.8729 20.9763 16.0015 20.9763C17.1301 20.9763 18.045 21.8752 18.045 22.9842Z" fill="currentColor"/>
<path fill-rule="evenodd" clip-rule="evenodd" d="M23.4021 20.1316C25.9415 20.1316 28 18.1089 28 15.6138C28 13.1187 25.9415 11.096 23.4021 11.096C20.8628 11.096 18.8042 13.1187 18.8042 15.6138C18.8042 18.1089 20.8628 20.1316 23.4021 20.1316ZM23.4021 18.1237C24.8129 18.1237 25.9565 17 25.9565 15.6138C25.9565 14.2276 24.8129 13.1039 23.4021 13.1039C21.9914 13.1039 20.8477 14.2276 20.8477 15.6138C20.8477 17 21.9914 18.1237 23.4021 18.1237Z" fill="currentColor"/>
<path fill-rule="evenodd" clip-rule="evenodd" d="M26.8335 24.2935C26.8335 25.6797 25.6899 26.8034 24.2791 26.8034C22.8684 26.8034 21.7247 25.6797 21.7247 24.2935C21.7247 22.9074 22.8684 21.7836 24.2791 21.7836C25.6899 21.7836 26.8335 22.9074 26.8335 24.2935ZM24.79 24.2935C24.79 24.5708 24.5613 24.7955 24.2791 24.7955C23.997 24.7955 23.7682 24.5708 23.7682 24.2935C23.7682 24.0163 23.997 23.7916 24.2791 23.7916C24.5613 23.7916 24.79 24.0163 24.79 24.2935Z" fill="currentColor"/>
</g>
<defs>
<clipPath id="clip0_29_616">
<rect width="32" height="32" fill="white"/>
</clipPath>
</defs>
</svg>
