<svg width="32" height="32" viewBox="0 0 32 32" fill="none" xmlns="http://www.w3.org/2000/svg">
<g clip-path="url(#clip0_29_652)">
<path d="M4 6H12V4H4V6Z" fill="currentColor"/>
<path d="M12 17H9.60544L7 13.2079L6.10884 13.7866V17H4V8H6.10884V12.1183C6.24943 11.9419 6.38776 11.7654 6.52381 11.5889C6.65986 11.4124 6.79819 11.236 6.93878 11.0595L9.63265 8H11.9728L8.5034 11.9829L12 17Z" fill="currentColor"/>
<path fill-rule="evenodd" clip-rule="evenodd" d="M28 15.6138C28 18.1089 25.9415 20.1316 23.4021 20.1316C20.8628 20.1316 18.8042 18.1089 18.8042 15.6138C18.8042 13.1186 20.8628 11.0959 23.4021 11.0959C25.9415 11.0959 28 13.1186 28 15.6138ZM25.9565 15.6138C25.9565 16.9999 24.8129 18.1236 23.4021 18.1236C21.9914 18.1236 20.8477 16.9999 20.8477 15.6138C20.8477 14.2276 21.9914 13.1039 23.4021 13.1039C24.8129 13.1039 25.9565 14.2276 25.9565 15.6138Z" fill="currentColor"/>
<path fill-rule="evenodd" clip-rule="evenodd" d="M16.0015 26.9999C18.2587 26.9999 20.0885 25.202 20.0885 22.9841C20.0885 20.7662 18.2587 18.9683 16.0015 18.9683C13.7443 18.9683 11.9145 20.7662 11.9145 22.9841C11.9145 25.202 13.7443 26.9999 16.0015 26.9999ZM16.0015 24.992C17.1301 24.992 18.045 24.0931 18.045 22.9841C18.045 21.8752 17.1301 20.9762 16.0015 20.9762C14.8729 20.9762 13.958 21.8752 13.958 22.9841C13.958 24.0931 14.8729 24.992 16.0015 24.992Z" fill="currentColor"/>
<path fill-rule="evenodd" clip-rule="evenodd" d="M26.8335 24.2935C26.8335 25.6796 25.6899 26.8034 24.2791 26.8034C22.8684 26.8034 21.7247 25.6796 21.7247 24.2935C21.7247 22.9073 22.8684 21.7836 24.2791 21.7836C25.6899 21.7836 26.8335 22.9073 26.8335 24.2935ZM24.79 24.2935C24.79 24.5707 24.5613 24.7954 24.2791 24.7954C23.997 24.7954 23.7682 24.5707 23.7682 24.2935C23.7682 24.0162 23.997 23.7915 24.2791 23.7915C24.5613 23.7915 24.79 24.0162 24.79 24.2935Z" fill="currentColor"/>
</g>
<defs>
<clipPath id="clip0_29_652">
<rect width="32" height="32" fill="white"/>
</clipPath>
</defs>
</svg>
