<svg width="24" height="24" viewBox="0 0 24 24" fill="none" xmlns="http://www.w3.org/2000/svg">
<path d="M18.8999 10.5H20.4749C20.7749 10.5 20.9999 10.425 21.2999 10.275C21.5999 10.05 21.7499 9.75 21.7499 9.375V3.375C21.7499 3 21.5999 2.7 21.2999 2.475C21.0749 2.325 20.7749 2.25 20.4749 2.25H10.4249C10.1999 2.25 10.0499 2.25 9.89993 2.325C9.74993 2.4 9.59993 2.475 9.44993 2.625L7.64993 4.5C7.34993 4.8 7.34993 5.25 7.64993 5.55C7.94993 5.85 8.39993 5.85 8.69993 5.55L10.4249 3.75H20.2499V9H18.8999C18.4499 9 18.1499 9.3 18.1499 9.75C18.1499 10.2 18.4499 10.5 18.8999 10.5Z" fill="currentColor"/>
<path d="M13.125 16.875H3.525C3.225 16.875 2.925 16.725 2.625 16.575C2.4 16.35 2.25 15.975 2.25 15.675V8.325C2.25 8.025 2.4 7.65 2.625 7.425C2.85 7.2 3.15 7.125 3.525 7.125H13.125C13.35 7.125 13.5 7.2 13.65 7.275C13.875 7.35 14.025 7.5 14.1 7.65L17.025 11.55C17.25 11.85 17.25 12.15 17.025 12.45L14.1 16.35C13.95 16.5 13.8 16.65 13.65 16.725C13.5 16.8 13.275 16.875 13.125 16.875ZM3.75 15.375H12.975L15.525 12L12.975 8.625H3.75V15.375Z" fill="currentColor"/>
<path d="M10.35 21.75C10.2 21.75 9.97504 21.75 9.82504 21.675C9.79617 21.6606 9.76452 21.6461 9.73169 21.6312C9.594 21.5684 9.43559 21.4961 9.37504 21.375L7.57504 19.5C7.27504 19.2 7.27504 18.75 7.57504 18.45C7.87504 18.15 8.32504 18.15 8.62504 18.45L10.35 20.25H20.25V15H18.9C18.45 15 18.15 14.7 18.15 14.25C18.15 13.8 18.45 13.5 18.9 13.5H20.475C20.775 13.5 21.075 13.575 21.3 13.725C21.6 13.95 21.75 14.25 21.75 14.625V20.625C21.75 21 21.6 21.3 21.3 21.525C21 21.675 20.775 21.75 20.475 21.75H10.35Z" fill="currentColor"/>
</svg>
