<svg width="33" height="32" viewBox="0 0 33 32" fill="none" xmlns="http://www.w3.org/2000/svg">
<g clip-path="url(#clip0_371_8491)">
<path d="M32.2163 14L23.7838 5.51002C21.5317 3.26243 18.4799 2.00012 15.2982 2.00012C12.1164 2.00012 9.06464 3.26243 6.81255 5.51002L6.8013 5.52127L5.08005 7.30002C4.90175 7.49163 4.80568 7.74552 4.81247 8.00717C4.81926 8.26883 4.92836 8.51739 5.11637 8.6995C5.30437 8.88161 5.55628 8.98276 5.81801 8.98122C6.07975 8.97968 6.33045 8.87558 6.5163 8.69127L8.23255 6.91877C8.92303 6.22842 9.711 5.64303 10.5713 5.18127L16.3838 11L4.3838 23C4.19803 23.1857 4.05067 23.4062 3.95014 23.6489C3.8496 23.8916 3.79785 24.1517 3.79785 24.4144C3.79785 24.6771 3.8496 24.9372 3.95014 25.1799C4.05067 25.4225 4.19803 25.643 4.3838 25.8288L6.97005 28.415C7.15577 28.6008 7.37627 28.7481 7.61895 28.8487C7.86163 28.9492 8.12174 29.001 8.38442 29.001C8.64711 29.001 8.90722 28.9492 9.1499 28.8487C9.39258 28.7481 9.61308 28.6008 9.7988 28.415L21.7988 16.415L23.5913 18.2075L25.7988 20.4125C25.9845 20.5983 26.205 20.7456 26.4477 20.8462C26.6904 20.9467 26.9505 20.9985 27.2132 20.9985C27.4759 20.9985 27.736 20.9467 27.9786 20.8462C28.2213 20.7456 28.4418 20.5983 28.6276 20.4125L32.2138 16.8263C32.5885 16.4516 32.7993 15.9436 32.7997 15.4137C32.8002 14.8838 32.5904 14.3753 32.2163 14ZM8.3838 27L5.7988 24.4138L14.2988 15.9138L16.8838 18.5L8.3838 27ZM21.0913 14.29L18.2988 17.0838L15.7125 14.5L18.5063 11.7063C18.5993 11.6134 18.673 11.5031 18.7234 11.3817C18.7737 11.2603 18.7996 11.1302 18.7996 10.9988C18.7996 10.8673 18.7737 10.7372 18.7234 10.6158C18.673 10.4944 18.5993 10.3841 18.5063 10.2913L12.5888 4.37502C14.2985 3.89351 16.1055 3.87606 17.8242 4.32445C19.5428 4.77284 21.111 5.67089 22.3675 6.92627L27.8951 12.49L24.2988 16.0825L22.5063 14.29C22.4134 14.197 22.3031 14.1233 22.1817 14.073C22.0603 14.0226 21.9302 13.9967 21.7988 13.9967C21.6674 13.9967 21.5373 14.0226 21.4159 14.073C21.2945 14.1233 21.1842 14.197 21.0913 14.29ZM27.2163 18.9975L25.7163 17.4975L29.2988 13.9063L30.7988 15.4063L27.2163 18.9975Z" fill="currentColor"/>
<path d="M31.6788 26.7081C31.8663 26.5205 31.9717 26.2662 31.9717 26.001C31.9717 25.7358 31.8663 25.4814 31.6788 25.2939C31.4913 25.1063 31.2369 25.001 30.9717 25.001H29.9717V24.001C29.9717 23.7358 29.8663 23.4814 29.6788 23.2939C29.4913 23.1063 29.2369 23.001 28.9717 23.001C28.7065 23.001 28.4521 23.1063 28.2646 23.2939C28.077 23.4814 27.9717 23.7358 27.9717 24.001V25.001H26.9717C26.7065 25.001 26.4521 25.1063 26.2646 25.2939C26.077 25.4814 25.9717 25.7358 25.9717 26.001C25.9717 26.2662 26.077 26.5205 26.2646 26.7081C26.4521 26.8956 26.7065 27.001 26.9717 27.001H27.9717V28.001C27.9717 28.2662 28.077 28.5205 28.2646 28.7081C28.4521 28.8956 28.7065 29.001 28.9717 29.001C29.2369 29.001 29.4913 28.8956 29.6788 28.7081C29.8663 28.5205 29.9717 28.2662 29.9717 28.001V27.001H30.9717C31.2369 27.001 31.4913 26.8956 31.6788 26.7081Z" fill="currentColor"/>
<path d="M15.9814 27.2929C15.7938 27.4804 15.6885 27.7348 15.6885 28C15.6885 28.2652 15.7938 28.5196 15.9814 28.7071C16.1689 28.8946 16.4233 29 16.6885 29H18.6885V31C18.6885 31.2652 18.7938 31.5196 18.9814 31.7071C19.1689 31.8946 19.4233 32 19.6885 32C19.9537 32 20.208 31.8946 20.3956 31.7071C20.5831 31.5196 20.6885 31.2652 20.6885 31V29H22.6885C22.9537 29 23.208 28.8946 23.3956 28.7071C23.5831 28.5196 23.6885 28.2652 23.6885 28C23.6885 27.7348 23.5831 27.4804 23.3956 27.2929C23.208 27.1054 22.9537 27 22.6885 27H20.6885V25C20.6885 24.7348 20.5831 24.4804 20.3956 24.2929C20.208 24.1054 19.9537 24 19.6885 24C19.4233 24 19.1689 24.1054 18.9814 24.2929C18.7938 24.4804 18.6885 24.7348 18.6885 25V27H16.6885C16.4233 27 16.1689 27.1054 15.9814 27.2929Z" fill="currentColor"/>
</g>
<defs>
<clipPath id="clip0_371_8491">
<rect width="32" height="32" fill="white" transform="translate(0.798828)"/>
</clipPath>
</defs>
</svg>
