<svg width="24" height="24" viewBox="0 0 24 24" fill="none" xmlns="http://www.w3.org/2000/svg">
<path d="M10.5008 20.7008C10.4258 20.7008 10.3508 20.7008 10.3508 20.7008L7.50078 19.9508C7.27578 19.8758 7.05078 19.8008 6.90078 19.6508L4.80078 17.8508C4.50078 17.5508 4.42578 17.1008 4.72578 16.8008C5.02578 16.5008 5.47578 16.4258 5.77578 16.7258L7.87578 18.6008L10.7258 19.2758C11.1008 19.3508 11.4008 19.8008 11.2508 20.1758C11.1758 20.4758 10.8008 20.7008 10.5008 20.7008ZM14.7758 18.7508C14.7008 18.7508 14.5508 18.7508 14.4758 18.7508L9.00078 17.3258C8.77578 17.2508 8.62578 17.1758 8.40078 17.0258L3.37578 13.0508L1.12578 11.9258C0.975781 11.8508 0.825781 11.7008 0.675781 11.5508C0.525781 11.4008 0.450781 11.2508 0.375781 11.0258C0.300781 10.8008 0.300781 10.6508 0.300781 10.4258C0.300781 10.2008 0.375781 10.0508 0.450781 9.82578L2.77578 5.40078C2.92578 5.02578 3.22578 4.80078 3.60078 4.65078C3.97578 4.50078 4.35078 4.57578 4.72578 4.72578L6.82578 5.77578L11.4008 4.42578C11.7758 4.50078 12.1508 4.50078 12.4508 4.65078L15.5258 6.07578H17.0258L19.2008 4.95078C19.5758 4.80078 19.9508 4.72578 20.3258 4.87578C20.7008 5.02578 21.0008 5.25078 21.2258 5.62578L23.5508 10.0508C23.6258 10.2008 23.7008 10.4258 23.7008 10.6508C23.7008 10.8758 23.7008 11.0258 23.6258 11.2508C23.5508 11.4758 23.4758 11.6258 23.3258 11.7758C23.1758 11.9258 23.0258 12.0758 22.8758 12.1508L20.7008 13.2008L19.2758 14.8508C19.2758 14.8508 19.2758 14.8508 19.2008 14.9258L15.7508 18.3758C15.5258 18.5258 15.3008 18.6758 15.0758 18.7508C15.0008 18.7508 14.9258 18.7508 14.7758 18.7508ZM4.72578 12.3008L9.37578 15.9008L14.7758 17.2508L17.6258 14.4008L14.6258 12.2258L13.8758 12.8258C12.6008 13.8008 10.6508 13.8008 9.37578 12.8258L8.85078 12.4508C8.70078 12.3008 8.55078 12.1508 8.40078 12.0008C8.32578 11.7758 8.25078 11.6258 8.25078 11.4008C8.25078 11.1758 8.25078 10.9508 8.32578 10.8008C8.40078 10.5758 8.55078 10.4258 8.70078 10.2758L12.3758 6.60078C12.4508 6.52578 12.4508 6.52578 12.5258 6.45078L11.7758 6.15078L7.27578 7.35078L4.72578 12.3008ZM14.6258 10.5758C14.7758 10.5758 14.9258 10.6508 15.0758 10.7258L18.6758 13.3508L19.4258 12.5258L16.8758 7.65078H15.4508H13.5008L9.75078 11.2508L10.2758 11.6258C11.0258 12.2258 12.2258 12.2258 12.9758 11.6258L14.1758 10.7258C14.3258 10.6508 14.4758 10.5758 14.6258 10.5758ZM18.3008 7.12578L20.6258 11.5508L22.2758 10.7258L19.9508 6.30078L18.3008 7.12578ZM4.05078 6.22578L1.72578 10.6508L3.37578 11.4758L5.70078 7.05078L4.05078 6.22578Z" fill="currentColor"/>
</svg>
