<svg width="24" height="24" viewBox="0 0 24 24" fill="none" xmlns="http://www.w3.org/2000/svg">
<path d="M10.6342 3.01223C11.0417 3.08632 11.312 3.47676 11.2379 3.88429L10.4441 8.25013H14.9195L15.7621 3.61597C15.8362 3.20843 16.2266 2.93813 16.6342 3.01223C17.0417 3.08632 17.312 3.47676 17.2379 3.88429L16.4441 8.25013H21C21.4142 8.25013 21.75 8.58592 21.75 9.00013C21.75 9.41434 21.4142 9.75013 21 9.75013H16.1714L15.3532 14.2501H19.9125C20.3267 14.2501 20.6625 14.5859 20.6625 15.0001C20.6625 15.4143 20.3267 15.7501 19.9125 15.7501H15.0805L14.2379 20.3843C14.1638 20.7918 13.7734 21.0621 13.3658 20.988C12.9583 20.9139 12.688 20.5235 12.7621 20.116L13.5559 15.7501H9.08048L8.2379 20.3843C8.16381 20.7918 7.77337 21.0621 7.36584 20.988C6.9583 20.9139 6.688 20.5235 6.7621 20.116L7.55589 15.7501H3C2.58579 15.7501 2.25 15.4143 2.25 15.0001C2.25 14.5859 2.58579 14.2501 3 14.2501H7.82861L8.6468 9.75013H4.0875C3.67329 9.75013 3.3375 9.41434 3.3375 9.00013C3.3375 8.58592 3.67329 8.25013 4.0875 8.25013H8.91952L9.7621 3.61597C9.83619 3.20843 10.2266 2.93813 10.6342 3.01223ZM10.1714 9.75013L9.3532 14.2501H13.8286L14.6468 9.75013H10.1714Z" fill="currentColor"/>
</svg>
