<svg width="24" height="24" viewBox="0 0 24 24" fill="none" xmlns="http://www.w3.org/2000/svg">
<path d="M6 8.25C5.00544 8.25 4.05161 8.64509 3.34835 9.34835C2.64509 10.0516 2.25 11.0054 2.25 12C2.25 12.9946 2.64509 13.9484 3.34835 14.6517C4.05161 15.3549 5.00544 15.75 6 15.75H9.75C10.1642 15.75 10.5 16.0858 10.5 16.5C10.5 16.9142 10.1642 17.25 9.75 17.25H6C4.60761 17.25 3.27226 16.6969 2.28769 15.7123C1.30312 14.7277 0.75 13.3924 0.75 12C0.75 10.6076 1.30312 9.27226 2.28769 8.28769C3.27226 7.30312 4.60761 6.75 6 6.75H9.75C10.1642 6.75 10.5 7.08579 10.5 7.5C10.5 7.91421 10.1642 8.25 9.75 8.25H6ZM13.5 7.5C13.5 7.08579 13.8358 6.75 14.25 6.75H18C19.3924 6.75 20.7277 7.30312 21.7123 8.28769C22.6969 9.27226 23.25 10.6076 23.25 12C23.25 13.3924 22.6969 14.7277 21.7123 15.7123C20.7277 16.6969 19.3924 17.25 18 17.25H14.25C13.8358 17.25 13.5 16.9142 13.5 16.5C13.5 16.0858 13.8358 15.75 14.25 15.75H18C18.9946 15.75 19.9484 15.3549 20.6516 14.6517C21.3549 13.9484 21.75 12.9946 21.75 12C21.75 11.0054 21.3549 10.0516 20.6516 9.34835C19.9484 8.64509 18.9946 8.25 18 8.25H14.25C13.8358 8.25 13.5 7.91421 13.5 7.5ZM6.75 12C6.75 11.5858 7.08579 11.25 7.5 11.25H16.5C16.9142 11.25 17.25 11.5858 17.25 12C17.25 12.4142 16.9142 12.75 16.5 12.75H7.5C7.08579 12.75 6.75 12.4142 6.75 12Z" fill="currentColor"/>
</svg>
