<svg width="24" height="24" viewBox="0 0 24 24" fill="none" xmlns="http://www.w3.org/2000/svg">
<path d="M16.875 9H7.125C6.675 9 6.375 8.7 6.375 8.25C6.375 7.8 6.675 7.5 7.125 7.5H16.875C17.325 7.5 17.625 7.8 17.625 8.25C17.625 8.7 17.325 9 16.875 9Z" fill="currentColor"/>
<path d="M7.125 12H16.875C17.325 12 17.625 11.7 17.625 11.25C17.625 10.8 17.325 10.5 16.875 10.5H7.125C6.675 10.5 6.375 10.8 6.375 11.25C6.375 11.7 6.675 12 7.125 12Z" fill="currentColor"/>
<path d="M4.5 21H19.5C20.325 21 21 20.325 21 19.5V4.5C21 3.675 20.325 3 19.5 3H4.5C3.675 3 3 3.675 3 4.5V19.5C3 20.325 3.675 21 4.5 21ZM4.5 14.25V4.5H19.5V14.325H16.875C16.65 14.325 16.425 14.325 16.275 14.4C16.05 14.475 15.9 14.55 15.75 14.7L13.95 16.5H10.05L8.25 14.7C8.18944 14.5789 8.0311 14.5067 7.8934 14.4439C7.86056 14.4289 7.82889 14.4144 7.8 14.4C7.75304 14.3843 7.70935 14.3687 7.66756 14.3537C7.50912 14.297 7.37804 14.25 7.2 14.25H4.5ZM4.5 15.75H7.2L9.075 17.55C9.13556 17.6711 9.2939 17.7433 9.4316 17.8061C9.46443 17.8211 9.49612 17.8356 9.525 17.85C9.675 17.925 9.825 18 10.05 18H13.95C14.1 18 14.325 18 14.475 17.85C14.7 17.775 14.85 17.7 15 17.55L16.8 15.825H19.5V19.5H4.5V15.75Z" fill="currentColor"/>
</svg>
