<svg width="32" height="32" viewBox="0 0 32 32" fill="none" xmlns="http://www.w3.org/2000/svg">
<path fill-rule="evenodd" clip-rule="evenodd" d="M6 28H26C27.1 28 28 27.1 28 26V20.1V6C28 4.9 27.1 4 26 4H6C4.9 4 4 4.9 4 6V20V26C4 27.1 4.9 28 6 28ZM6 19V6H26V19.1H22.5C22.2 19.1 21.9 19.1 21.7 19.2C21.4 19.3 21.2 19.4 21 19.6L18.6 22H13.4L11 19.6C10.9193 19.4385 10.7081 19.3422 10.5245 19.2585C10.4807 19.2385 10.4385 19.2193 10.4 19.2C10.3374 19.1791 10.2791 19.1583 10.2234 19.1383C10.0122 19.0626 9.83739 19 9.6 19H6ZM6 21H9.6L12.1 23.4C12.1807 23.5615 12.3919 23.6578 12.5755 23.7415C12.6193 23.7615 12.6615 23.7807 12.7 23.8C12.9 23.9 13.1 24 13.4 24H18.6C18.8 24 19.1 24 19.3 23.8C19.6 23.7 19.8 23.6 20 23.4L22.4 21.1H26V26H6V21Z" fill="currentColor"/>
</svg>
