<svg width="24" height="24" viewBox="0 0 24 24" fill="none" xmlns="http://www.w3.org/2000/svg">
<path d="M3.21967 4.71967C3.51256 4.42678 3.98744 4.42678 4.28033 4.71967L8.03033 8.46967C8.32322 8.76256 8.32322 9.23744 8.03033 9.53033L4.28033 13.2803C3.98744 13.5732 3.51256 13.5732 3.21967 13.2803C2.92678 12.9874 2.92678 12.5126 3.21967 12.2197L6.43934 9L3.21967 5.78033C2.92678 5.48744 2.92678 5.01256 3.21967 4.71967ZM9.75 6C9.75 5.58579 10.0858 5.25 10.5 5.25H20.25C20.6642 5.25 21 5.58579 21 6C21 6.41421 20.6642 6.75 20.25 6.75H10.5C10.0858 6.75 9.75 6.41421 9.75 6ZM9.75 12C9.75 11.5858 10.0858 11.25 10.5 11.25H20.25C20.6642 11.25 21 11.5858 21 12C21 12.4142 20.6642 12.75 20.25 12.75H10.5C10.0858 12.75 9.75 12.4142 9.75 12ZM3 18C3 17.5858 3.33579 17.25 3.75 17.25H20.25C20.6642 17.25 21 17.5858 21 18C21 18.4142 20.6642 18.75 20.25 18.75H3.75C3.33579 18.75 3 18.4142 3 18Z" fill="currentColor"/>
</svg>
