<svg width="24" height="24" viewBox="0 0 24 24" fill="none" xmlns="http://www.w3.org/2000/svg">
<path d="M6.7336 8.32921C6.00817 8.18541 5.25639 8.25987 4.57326 8.54318C3.89014 8.82649 3.30632 9.30594 2.89558 9.92094C2.48484 10.5359 2.26562 11.2589 2.26562 11.9984C2.26562 12.738 2.48484 13.4609 2.89558 14.0759C3.30632 14.6909 3.89014 15.1704 4.57326 15.4537C5.25639 15.737 6.00817 15.8115 6.7336 15.6677C7.45198 15.5253 8.11259 15.1751 8.63365 14.661L9.43358 13.7599C9.70857 13.4501 10.1826 13.422 10.4924 13.6969C10.8021 13.9719 10.8303 14.446 10.5553 14.7557L9.7397 15.6745C9.7297 15.6858 9.71935 15.6967 9.70869 15.7074C8.97541 16.4394 8.04161 16.9376 7.02528 17.139C6.00894 17.3405 4.9557 17.2362 3.99863 16.8393C3.04157 16.4424 2.22364 15.7706 1.64819 14.909C1.07275 14.0474 0.765625 13.0345 0.765625 11.9984C0.765625 10.9623 1.07275 9.94947 1.64819 9.08786C2.22364 8.22624 3.04157 7.55453 3.99863 7.15761C4.9557 6.76069 6.00894 6.65637 7.02528 6.85784C8.04161 7.05931 8.97541 7.55752 9.70869 8.28952C9.71934 8.30015 9.72967 8.3111 9.73966 8.32235L15.3677 14.661C15.8888 15.1751 16.5494 15.5253 17.2678 15.6677C17.9932 15.8115 18.745 15.737 19.4281 15.4537C20.1113 15.1704 20.6951 14.6909 21.1058 14.0759C21.5166 13.4609 21.7358 12.738 21.7358 11.9984C21.7358 11.2589 21.5166 10.5359 21.1058 9.92094C20.6951 9.30594 20.1113 8.82649 19.4281 8.54318C18.745 8.25987 17.9932 8.18541 17.2678 8.32921C16.5494 8.47162 15.8888 8.82173 15.3678 9.33591L14.5678 10.237C14.2928 10.5467 13.8188 10.5749 13.509 10.2999C13.1993 10.0249 13.1711 9.55091 13.4461 9.24115L14.2617 8.3224C14.2717 8.31113 14.282 8.30017 14.2927 8.28952C15.026 7.55752 15.9598 7.05931 16.9761 6.85784C17.9925 6.65637 19.0457 6.76069 20.0028 7.15761C20.9598 7.55453 21.7778 8.22624 22.3532 9.08786C22.9286 9.94947 23.2358 10.9623 23.2358 11.9984C23.2358 13.0345 22.9286 14.0474 22.3532 14.909C21.7778 15.7706 20.9598 16.4424 20.0028 16.8393C19.0457 17.2362 17.9925 17.3405 16.9761 17.139C15.9598 16.9376 15.026 16.4394 14.2927 15.7074C14.2821 15.6967 14.2717 15.6858 14.2617 15.6745L8.63367 9.33593C8.11261 8.82174 7.45199 8.47162 6.7336 8.32921Z" fill="currentColor"/>
</svg>
