<svg width="24" height="24" viewBox="0 0 24 24" fill="none" xmlns="http://www.w3.org/2000/svg">
<path d="M11.2502 2.95312V11.7749L8.55039 9.07504C8.25039 8.77504 7.80039 8.77504 7.50039 9.07504C7.20039 9.37504 7.20039 9.82504 7.50039 10.125L11.4754 14.025C11.6254 14.175 11.7754 14.25 12.0004 14.25C12.2254 14.25 12.3754 14.175 12.4504 14.025L16.3504 10.125C16.6504 9.82504 16.6504 9.37504 16.3504 9.07504C16.0504 8.77504 15.6004 8.77504 15.3004 9.07504L12.7502 11.6252V2.95312C12.7502 2.53125 12.4502 2.25 12.0002 2.25C11.5502 2.25 11.2502 2.53125 11.2502 2.95312Z" fill="currentColor"/>
<path d="M14.2502 19.5C14.2502 20.7426 13.2429 21.75 12.0002 21.75C10.7576 21.75 9.75024 20.7426 9.75024 19.5C9.75024 18.2574 10.7576 17.25 12.0002 17.25C13.2429 17.25 14.2502 18.2574 14.2502 19.5Z" fill="currentColor"/>
</svg>
