<svg width="24" height="24" viewBox="0 0 24 24" fill="none" xmlns="http://www.w3.org/2000/svg">
<path d="M9.75 0C9.33579 0 9 0.335786 9 0.75C9 1.16421 9.33579 1.5 9.75 1.5H14.25C14.6642 1.5 15 1.16421 15 0.75C15 0.335786 14.6642 0 14.25 0H9.75Z" fill="currentColor"/>
<path d="M4.5 12C4.5 7.85786 7.85786 4.5 12 4.5C16.1421 4.5 19.5 7.85786 19.5 12C19.5 12.2137 19.4911 12.4252 19.4736 12.6341C19.4391 13.0468 19.7458 13.4094 20.1585 13.4439C20.5713 13.4785 20.9339 13.1718 20.9684 12.759C20.9893 12.5086 21 12.2555 21 12C21 7.02944 16.9706 3 12 3C7.02944 3 3 7.02944 3 12C3 16.9706 7.02944 21 12 21C12.4142 21 12.75 20.6642 12.75 20.25C12.75 19.8358 12.4142 19.5 12 19.5C7.85786 19.5 4.5 16.1421 4.5 12Z" fill="currentColor"/>
<path d="M15 15C14.5858 15 14.25 15.3358 14.25 15.75V20.25C14.25 20.6642 14.5858 21 15 21H19.5C19.9142 21 20.25 20.6642 20.25 20.25V15.75C20.25 15.3358 19.9142 15 19.5 15H15ZM15.75 19.5V16.5H18.75V19.5H15.75Z" fill="currentColor"/>
<path d="M16.2428 7.75702C16.5357 8.04992 16.5357 8.52479 16.2428 8.81768L12.5303 12.5302C12.2374 12.8231 11.7626 12.8231 11.4697 12.5302C11.1768 12.2373 11.1768 11.7624 11.4697 11.4695L15.1822 7.75702C15.4751 7.46413 15.9499 7.46413 16.2428 7.75702Z" fill="currentColor"/>
</svg>
