<svg width="32" height="32" viewBox="0 0 32 32" fill="none" xmlns="http://www.w3.org/2000/svg">
<g id="JoinLeftOuter">
<g id="Vector">
<path fill-rule="evenodd" clip-rule="evenodd" d="M11.5 24C10.2113 24 8.98964 23.7132 7.89527 23.2L7.87087 23.2141L7.85053 23.1789C4.98237 21.8133 3 18.8882 3 15.5C3 10.8056 6.80558 7 11.5 7C16.1944 7 20 10.8056 20 15.5C20 20.1944 16.1944 24 11.5 24ZM7.87996 20.8995L17.9857 15.0649C17.9383 14.348 17.7747 13.6628 17.5135 13.0281L6.35377 19.4712C6.78192 20.0252 7.29755 20.5082 7.87996 20.8995ZM5.38862 17.719C5.17098 17.1197 5.03897 16.4794 5.00739 15.8127L15.0178 10.0332C15.566 10.3867 16.0576 10.8204 16.476 11.3177L5.38862 17.719ZM10.1992 21.8698L17.6674 17.558C16.8065 20.1392 14.3706 22 11.5 22C11.0545 22 10.6195 21.9552 10.1992 21.8698ZM12.636 9.09893C12.2671 9.03391 11.8875 9 11.5 9C8.6884 9 6.29374 10.7851 5.38759 13.2838L12.636 9.09893Z" fill="currentColor"/>
<path d="M19.5781 22.3125C18.9355 22.9057 19.2002 23.9463 20.0737 23.9895C20.2149 23.9965 20.357 24 20.5 24C25.1944 24 29 20.1944 29 15.5C29 10.8056 25.1944 7 20.5 7C20.2785 7 20.0589 7.00847 19.8417 7.02512C18.9422 7.09401 18.7259 8.18073 19.4303 8.74426C19.6652 8.93214 19.9647 9.01483 20.2652 9.00416C20.3431 9.00139 20.4214 9 20.5 9C24.0899 9 27 11.9101 27 15.5C27 19.0899 24.0899 22 20.5 22C20.479 22 20.458 21.9999 20.437 21.9997C20.1214 21.9967 19.8101 22.0984 19.5781 22.3125Z" fill="currentColor"/>
</g>
</g>
</svg>
