<svg width="32" height="32" viewBox="0 0 32 32" fill="none" xmlns="http://www.w3.org/2000/svg">
<g id="JoinOuter">
<path id="Vector" fill-rule="evenodd" clip-rule="evenodd" d="M11.5 24C13.1526 24 14.695 23.5284 16 22.7124C17.305 23.5284 18.8474 24 20.5 24C25.1944 24 29 20.1944 29 15.5C29 10.8056 25.1944 7 20.5 7C18.8474 7 17.305 7.4716 16 8.28755C14.695 7.4716 13.1526 7 11.5 7C6.80558 7 3 10.8056 3 15.5C3 20.1944 6.80558 24 11.5 24ZM16 10.8096C16.2808 11.079 16.5374 11.3734 16.7663 11.6892L14.4989 12.9983C14.8457 12.1672 15.3602 11.4236 16 10.8096ZM18 15.5023V15.5C18 14.792 17.8868 14.1105 17.6775 13.4725L14.0007 15.5953C14.0108 16.2995 14.1329 16.9766 14.35 17.6097L18 15.5023ZM17.445 18.1322L15.2843 19.3796C15.5002 19.6695 15.7397 19.9407 16 20.1904C16.6062 19.6087 17.0998 18.9107 17.445 18.1322ZM14.3344 21.3511C13.4778 21.7668 12.5161 22 11.5 22C11.2745 22 11.0516 21.9885 10.832 21.9661L13.5526 20.3985C13.7902 20.7349 14.0516 21.0532 14.3344 21.3511ZM12.5989 18.6403L8.26471 21.1389C7.64727 20.7839 7.09366 20.3304 6.62532 19.7998L12.0774 16.6521C12.1713 17.3448 12.3486 18.011 12.5989 18.6403ZM5.02215 16.0404C5.08239 16.7724 5.26394 17.4701 5.54664 18.1132L11.2412 14.8255L12.0748 14.3674C12.2113 13.3425 12.5304 12.3753 12.9983 11.4996L5.04995 16.0886L5.02215 16.0404ZM5.26568 13.6546C6.06099 10.9636 8.55118 9 11.5 9C12.023 9 12.5315 9.06176 13.0188 9.17839L5.26568 13.6546ZM17.6656 9.64889C18.5222 9.23316 19.4839 9 20.5 9C20.7557 9 21.0079 9.01476 21.2559 9.04348L18.4928 10.6387L18.4792 10.6469C18.2332 10.2937 17.9611 9.96013 17.6656 9.64889ZM23.7873 9.89134C24.3992 10.2508 24.9471 10.7075 25.4097 11.2402L19.93 14.4039C19.8408 13.7108 19.668 13.0438 19.4222 12.4134L23.7873 9.89134ZM18.9557 19.5852C19.436 18.7105 19.7669 17.7421 19.9139 16.7144L26.4743 12.935C26.7443 13.5631 26.9182 14.2422 26.9774 14.9539L18.9557 19.5852ZM19.0532 21.8384L26.713 17.416C25.8953 20.0706 23.423 22 20.5 22C20.0027 22 19.5184 21.9442 19.0532 21.8384Z" fill="currentColor"/>
</g>
</svg>
