<svg width="32" height="32" viewBox="0 0 32 32" fill="none" xmlns="http://www.w3.org/2000/svg">
<path d="M20.5 7C25.1944 7 29 10.8056 29 15.5C29 20.1944 25.1944 24 20.5 24C18.8468 24 17.3054 23.5255 16 22.709C14.6946 23.5255 13.1532 24 11.5 24C6.80558 24 3 20.1944 3 15.5C3 10.8056 6.80558 7 11.5 7C13.153 7 14.6947 7.47365 16 8.29004C17.3053 7.47365 18.847 7 20.5 7ZM11.5 9C7.91015 9 5 11.9101 5 15.5C5 19.0899 7.91015 22 11.5 22C12.5168 22 13.4789 21.7659 14.3359 21.3496C12.8892 19.8256 12 17.7672 12 15.5C12 13.2325 12.8889 11.1735 14.3359 9.64941C13.479 9.23324 12.5167 9 11.5 9ZM20.5 9C19.483 9 18.5203 9.233 17.6631 9.64941C19.1104 11.1735 20 13.2323 20 15.5C20 17.7675 19.1101 19.8256 17.6631 21.3496C18.5204 21.7661 19.4828 22 20.5 22C24.0899 22 27 19.0899 27 15.5C27 11.9101 24.0899 9 20.5 9ZM16 10.8115C14.7679 11.9944 14 13.6571 14 15.5C14 17.3426 14.7682 19.0047 16 20.1875C17.2318 19.0047 18 17.3426 18 15.5C18 13.6571 17.2321 11.9944 16 10.8115Z" fill="currentColor"/>
</svg>
