<svg width="32" height="32" viewBox="0 0 32 32" fill="none" xmlns="http://www.w3.org/2000/svg">
<g id="JoinInner">
<path id="Vector" fill-rule="evenodd" clip-rule="evenodd" d="M16 22.7124C14.695 23.5284 13.1526 24 11.5 24C6.80558 24 3 20.1944 3 15.5C3 10.8056 6.80558 7 11.5 7C13.1526 7 14.695 7.4716 16 8.28755C17.305 7.4716 18.8474 7 20.5 7C25.1944 7 29 10.8056 29 15.5C29 20.1944 25.1944 24 20.5 24C18.8474 24 17.305 23.5284 16 22.7124ZM14.3344 21.3511C13.4778 21.7668 12.5161 22 11.5 22C7.91015 22 5 19.0899 5 15.5C5 11.9101 7.91015 9 11.5 9C12.5161 9 13.4778 9.23316 14.3344 9.64889C12.8877 11.1729 12 13.2328 12 15.5C12 17.7672 12.8877 19.8271 14.3344 21.3511ZM17.6656 9.64889C18.5222 9.23316 19.4839 9 20.5 9C24.0899 9 27 11.9101 27 15.5C27 19.0899 24.0899 22 20.5 22C19.4839 22 18.5222 21.7668 17.6656 21.3511C18.8511 20.1023 19.6612 18.4937 19.9151 16.7061L19.9179 16.7044L19.9158 16.7008C19.9713 16.3085 20 15.9076 20 15.5C20 13.2328 19.1123 11.1729 17.6656 9.64889ZM18 15.5V15.5023L14.35 17.6097C14.1329 16.9766 14.0108 16.2995 14.0007 15.5953L17.6775 13.4725C17.8868 14.1105 18 14.792 18 15.5ZM16.7663 11.6892C16.5374 11.3734 16.2808 11.079 16 10.8096C15.3602 11.4236 14.8457 12.1672 14.4989 12.9983L16.7663 11.6892ZM17.445 18.1322L15.2843 19.3796C15.5002 19.6695 15.7397 19.9407 16 20.1904C16.6062 19.6087 17.0998 18.9107 17.445 18.1322Z" fill="currentColor"/>
</g>
</svg>
