<svg width="32" height="32" viewBox="0 0 32 32" fill="none" xmlns="http://www.w3.org/2000/svg">
  <!-- Left Circle -->
  <path fill-rule="evenodd" clip-rule="evenodd"  d="M20.5 7C25.1944 7 29 10.8056 29 15.5C29 20.1944 25.1944 24 20.5 24C18.8468 24 17.3054 23.5255 16 22.709C14.6946 23.5255 13.1532 24 11.5 24C11.3411 24 11.1832 23.9949 11.0264 23.9863C11.0061 23.9852 10.986 23.9827 10.9658 23.9814C10.8391 23.9736 10.7131 23.9636 10.5879 23.9502C10.5327 23.9443 10.4778 23.9367 10.4229 23.9297C10.3223 23.917 10.2224 23.9029 10.123 23.8867C10.0763 23.8791 10.0298 23.8707 9.9834 23.8623C9.88483 23.8445 9.7868 23.8258 9.68945 23.8047C9.63846 23.7936 9.58776 23.7816 9.53711 23.7695C9.43408 23.7452 9.33201 23.7185 9.23047 23.6904C9.19717 23.6812 9.16399 23.6717 9.13086 23.6621C9.00627 23.626 8.8829 23.5875 8.76074 23.5459C8.74905 23.5419 8.73726 23.5382 8.72559 23.5342C8.44182 23.4362 8.16475 23.3245 7.89551 23.1982L7.87109 23.2139L7.85059 23.1777C7.7898 23.1488 7.7299 23.1182 7.66992 23.0879C7.62416 23.0647 7.57849 23.0415 7.5332 23.0176C7.47843 22.9886 7.42418 22.9588 7.37012 22.9287C7.31339 22.8971 7.25709 22.8649 7.20117 22.832C7.15686 22.806 7.11215 22.7807 7.06836 22.7539C6.97085 22.6942 6.87514 22.6318 6.78027 22.5684C6.74641 22.5457 6.7132 22.5222 6.67969 22.499C6.62218 22.4594 6.56526 22.419 6.50879 22.3779C6.45415 22.3382 6.39935 22.2988 6.3457 22.2578C6.31697 22.2359 6.28919 22.2127 6.26074 22.1904C6.15146 22.1047 6.04433 22.0166 5.93945 21.9258C5.91049 21.9007 5.88116 21.8761 5.85254 21.8506C5.80484 21.8081 5.75766 21.7652 5.71094 21.7217C5.6698 21.6834 5.62924 21.6445 5.58887 21.6055C5.53726 21.5555 5.48587 21.5054 5.43555 21.4541C5.36504 21.3823 5.29548 21.3096 5.22754 21.2354C5.20372 21.2093 5.18072 21.1826 5.15723 21.1562C5.10207 21.0945 5.0475 21.0321 4.99414 20.9688C4.96347 20.9323 4.93339 20.8954 4.90332 20.8584C4.85199 20.7953 4.80149 20.7316 4.75195 20.667C4.71361 20.617 4.67592 20.5665 4.63867 20.5156C4.57951 20.4349 4.52119 20.3534 4.46484 20.2705C4.45429 20.255 4.44405 20.2392 4.43359 20.2236C4.37552 20.137 4.31957 20.0488 4.26465 19.96C4.24499 19.9281 4.2253 19.8964 4.20605 19.8643C4.14812 19.7677 4.09127 19.6703 4.03711 19.5713C4.01882 19.5378 4.00223 19.5035 3.98438 19.4697C3.94741 19.3999 3.91104 19.3297 3.87598 19.2588C3.85239 19.211 3.82837 19.1635 3.80566 19.1152C3.76679 19.0327 3.72963 18.9492 3.69336 18.8652C3.68337 18.8421 3.67288 18.8192 3.66309 18.7959C3.61914 18.6916 3.57794 18.5859 3.53809 18.4795C3.5181 18.4261 3.4994 18.3722 3.48047 18.3184C3.45394 18.2429 3.42776 18.1672 3.40332 18.0908C3.39167 18.0544 3.37934 18.0181 3.36816 17.9814C3.33372 17.8685 3.30129 17.7546 3.27148 17.6396C3.2642 17.6115 3.25896 17.5829 3.25195 17.5547C3.22776 17.4573 3.20439 17.3594 3.18359 17.2607C3.17674 17.2282 3.16956 17.1957 3.16309 17.1631C3.1421 17.0573 3.12346 16.9509 3.10645 16.8438C3.10154 16.8129 3.09637 16.782 3.0918 16.751C3.07505 16.6374 3.06104 16.5231 3.04883 16.4082C3.04407 16.3634 3.04019 16.3184 3.03613 16.2734C3.02879 16.192 3.02261 16.1104 3.01758 16.0283C3.01449 15.978 3.011 15.9275 3.00879 15.877C3.00333 15.752 3 15.6263 3 15.5C3 10.8056 6.80558 7 11.5 7C13.153 7 14.6947 7.47365 16 8.29004C17.3053 7.47365 18.847 7 20.5 7ZM10.1982 21.8691C10.3028 21.8904 10.4083 21.9086 10.5146 21.9248C10.5289 21.927 10.5433 21.9286 10.5576 21.9307C10.8653 21.9755 11.1799 22 11.5 22C11.7156 22 11.9285 21.9873 12.1387 21.9668C12.9196 21.8902 13.6599 21.6767 14.335 21.3486C13.9599 20.9534 13.6225 20.522 13.3281 20.0605L10.1982 21.8691ZM20.5 9C19.483 9 18.5203 9.233 17.6631 9.64941C19.1104 11.1735 20 13.2323 20 15.5C20 17.7675 19.1101 19.8256 17.6631 21.3496C18.5204 21.7661 19.4828 22 20.5 22C24.0899 22 27 19.0899 27 15.5C27 11.9101 24.0899 9 20.5 9ZM12.0303 16.1924L6.35449 19.4697C6.61391 19.8055 6.90567 20.1146 7.22461 20.3936C7.24181 20.4086 7.25901 20.4236 7.27637 20.4385C7.46855 20.603 7.67015 20.7569 7.88086 20.8984L12.458 18.2549C12.4596 18.2595 12.4613 18.264 12.4629 18.2686C12.2327 17.6011 12.085 16.8962 12.0283 16.165C12.029 16.1742 12.0295 16.1833 12.0303 16.1924ZM16 10.8115C14.7679 11.9944 14 13.6571 14 15.5C14 17.3426 14.7682 19.0047 16 20.1875C17.2318 19.0047 18 17.3426 18 15.5C18 13.6571 17.2321 11.9944 16 10.8115ZM13.2588 11.0479L5.00781 15.8115C5.02196 16.1113 5.05694 16.4056 5.11035 16.6934C5.12312 16.7621 5.13743 16.8304 5.15234 16.8984C5.21381 17.1787 5.29233 17.4523 5.38867 17.7178L12.1689 13.8018C12.3765 12.7792 12.7696 11.8241 13.3086 10.9707C13.2923 10.9966 13.2748 11.0218 13.2588 11.0479ZM11.5 9C8.68894 9 6.29424 10.7843 5.3877 13.2822L12.6328 9.09961C12.5752 9.08948 12.5171 9.08092 12.459 9.07227C12.1459 9.02599 11.8259 9 11.5 9Z" fill="currentColor"/>
  
  <!-- Right Circle (Mirrored) -->
  <path fill-rule="evenodd" clip-rule="evenodd" d="M20.5 7C25.1944 7 29 10.8056 29 15.5C29 20.1944 25.1944 24 20.5 24C20.3582 24 20.2173 23.9942 20.0771 23.9873C20.0406 23.9855 20.0042 23.9837 19.9678 23.9814C19.8315 23.973 19.696 23.9631 19.5615 23.9482C19.5396 23.9458 19.5179 23.942 19.4961 23.9395C19.3762 23.9253 19.257 23.9088 19.1387 23.8896C19.1084 23.8847 19.078 23.8802 19.0479 23.875C18.9182 23.8526 18.7897 23.8271 18.6621 23.7988C18.6229 23.7901 18.5839 23.7807 18.5449 23.7715C18.438 23.7462 18.3319 23.7187 18.2266 23.6895C18.2045 23.6833 18.1822 23.6782 18.1602 23.6719C18.0302 23.6346 17.9017 23.594 17.7744 23.5508C17.7476 23.5417 17.721 23.5318 17.6943 23.5225C17.5783 23.4818 17.4633 23.4391 17.3496 23.3936C17.3328 23.3868 17.3156 23.3809 17.2988 23.374C17.1854 23.3277 17.0738 23.2775 16.9629 23.2266C16.941 23.2165 16.9183 23.2085 16.8965 23.1982L16.8711 23.2139L16.8506 23.1777C16.8196 23.163 16.7896 23.146 16.7588 23.1309C16.6675 23.0859 16.5767 23.0402 16.4873 22.9922C16.4308 22.9618 16.3751 22.9301 16.3193 22.8984C16.2444 22.856 16.1702 22.8122 16.0967 22.7676C16.0644 22.7479 16.0311 22.73 15.999 22.71L16 22.709C14.6946 23.5255 13.1532 24 11.5 24C6.80558 24 3 20.1944 3 15.5C3 10.8056 6.80558 7 11.5 7C13.153 7 14.6947 7.47365 16 8.29004C17.3053 7.47365 18.847 7 20.5 7ZM11.5 9C7.91015 9 5 11.9101 5 15.5C5 19.0899 7.91015 22 11.5 22C12.5168 22 13.4789 21.7659 14.3359 21.3496C12.8892 19.8256 12 17.7672 12 15.5C12 13.2325 12.8889 11.1735 14.3359 9.64941C13.479 9.23324 12.5167 9 11.5 9ZM19.2002 21.8672C19.2278 21.8728 19.2554 21.8785 19.2832 21.8838C19.6775 21.9585 20.084 22 20.5 22C23.3701 22 25.8038 20.1391 26.665 17.5586L19.2002 21.8672ZM16 10.8115C14.7679 11.9944 14 13.6571 14 15.5C14 17.3426 14.7682 19.0047 16 20.1875C17.2318 19.0047 18 17.3426 18 15.5C18 13.6571 17.2321 11.9944 16 10.8115ZM19.8916 16.8496C19.8925 16.8441 19.8927 16.8385 19.8936 16.833C19.7276 17.884 19.3697 18.8703 18.8555 19.7559L26.9834 15.0654C26.936 14.3482 26.7731 13.6633 26.5117 13.0283L19.8916 16.8496ZM19.5049 12.6377C19.4671 12.5321 19.4266 12.4278 19.3848 12.3242C19.6628 13.0129 19.8516 13.7463 19.9404 14.5107L25.4746 11.3174C25.0603 10.8251 24.5739 10.3963 24.0322 10.0449C24.0265 10.0412 24.0204 10.0379 24.0146 10.0342L19.5049 12.6377ZM20.5 9C19.4832 9 18.5212 9.23411 17.6641 9.65039L17.6631 9.64844V9.64941C18.0128 10.0177 18.3294 10.4176 18.6094 10.8438L21.6309 9.09961C21.6188 9.09749 21.6068 9.09482 21.5947 9.09277C21.2388 9.03232 20.8731 9 20.5 9ZM17.6992 21.3096C17.7694 21.2347 17.8379 21.1584 17.9053 21.0811C17.8378 21.1584 17.7694 21.2347 17.6992 21.3096Z" fill="currentColor"/>
</svg>
