<svg width="32" height="32" viewBox="0 0 32 32" fill="none" xmlns="http://www.w3.org/2000/svg">
<g id="JoinRightOuter">
<g id="Vector">
<path fill-rule="evenodd" clip-rule="evenodd" d="M20.5 7C21.7887 7 23.0104 7.28677 24.1047 7.79999L24.1291 7.7859L24.1495 7.82113C27.0176 9.18668 29 12.1118 29 15.5C29 20.1944 25.1944 24 20.5 24C15.8056 24 12 20.1944 12 15.5C12 10.8056 15.8056 7 20.5 7ZM24.12 10.1005L14.0143 15.9351C14.0617 16.652 14.2253 17.3372 14.4865 17.9719L25.6462 11.5288C25.2181 10.9748 24.7024 10.4918 24.12 10.1005ZM26.6114 13.281C26.829 13.8803 26.961 14.5206 26.9926 15.1873L16.9822 20.9668C16.434 20.6133 15.9424 20.1796 15.524 19.6823L26.6114 13.281ZM21.8008 9.13018L14.3326 13.442C15.1935 10.8608 17.6294 9 20.5 9C20.9455 9 21.3805 9.04481 21.8008 9.13018ZM19.364 21.9011C19.7329 21.9661 20.1125 22 20.5 22C23.3116 22 25.7063 20.2149 26.6124 17.7162L19.364 21.9011Z" fill="currentColor"/>
<path d="M12.4219 8.68752C13.0645 8.09433 12.7998 7.05365 11.9263 7.0105C11.7851 7.00353 11.643 7 11.5 7C6.80558 7 3 10.8056 3 15.5C3 20.1944 6.80558 24 11.5 24C11.7215 24 11.9411 23.9915 12.1583 23.9749C13.0578 23.906 13.2741 22.8193 12.5697 22.2557C12.3348 22.0679 12.0353 21.9852 11.7348 21.9958C11.6569 21.9986 11.5786 22 11.5 22C7.91015 22 5 19.0898 5 15.5C5 11.9101 7.91015 9 11.5 9C11.521 9 11.542 9.0001 11.563 9.0003C11.8786 9.00329 12.1899 8.90163 12.4219 8.68752Z" fill="currentColor"/>
</g>
</g>
</svg>
