<svg width="32" height="32" viewBox="0 0 32 32" fill="none" xmlns="http://www.w3.org/2000/svg">
<g clip-path="url(#clip0_25_3991)">
<path fill-rule="evenodd" clip-rule="evenodd" d="M11.5 9C7.91015 9 5 11.9101 5 15.5C5 19.0899 7.91015 22 11.5 22C15.0899 22 18 19.0899 18 15.5C18 14.5987 17.8171 13.7426 17.4874 12.9649C17.2718 12.4564 17.5092 11.8695 18.0176 11.6539C18.5261 11.4383 19.1131 11.6757 19.3287 12.1842C19.7612 13.2043 20 14.3256 20 15.5C20 20.1944 16.1944 24 11.5 24C6.80558 24 3 20.1944 3 15.5C3 10.8056 6.80558 7 11.5 7C11.7658 7 12.0289 7.01223 12.289 7.0362C12.8389 7.08689 13.2436 7.57381 13.193 8.12376C13.1423 8.67372 12.6553 9.07845 12.1054 9.02775C11.9063 9.0094 11.7044 9 11.5 9ZM20.5 9C16.9101 9 14 11.9101 14 15.5C14 16.4263 14.1932 17.3048 14.5404 18.0996C14.7615 18.6057 14.5305 19.1952 14.0244 19.4164C13.5183 19.6375 12.9288 19.4065 12.7077 18.9004C12.2522 17.8578 12 16.707 12 15.5C12 10.8056 15.8056 7 20.5 7C25.1944 7 29 10.8056 29 15.5C29 20.1944 25.1944 24 20.5 24C20.3431 24 20.187 23.9957 20.032 23.9873C19.4805 23.9573 19.0578 23.486 19.0878 22.9345C19.1177 22.383 19.5891 21.9603 20.1406 21.9903C20.2595 21.9967 20.3793 22 20.5 22C24.0899 22 27 19.0899 27 15.5C27 11.9101 24.0899 9 20.5 9Z" fill="currentColor"/>
</g>
<defs>
<clipPath id="clip0_25_3991">
<rect width="32" height="32" fill="white"/>
</clipPath>
</defs>
</svg>
