<svg width="32" height="32" viewBox="0 0 32 32" fill="none" xmlns="http://www.w3.org/2000/svg">
<path d="M20.5 7C25.1944 7 29 10.8056 29 15.5C29 20.1944 25.1944 24 20.5 24C20.3582 24 20.2173 23.9942 20.0771 23.9873C20.0406 23.9855 20.0042 23.9837 19.9678 23.9814C19.8315 23.973 19.696 23.9631 19.5615 23.9482C19.5396 23.9458 19.5179 23.942 19.4961 23.9395C19.3762 23.9253 19.257 23.9088 19.1387 23.8896C19.1084 23.8847 19.078 23.8802 19.0479 23.875C18.9182 23.8526 18.7897 23.8271 18.6621 23.7988C18.6229 23.7901 18.5839 23.7807 18.5449 23.7715C18.438 23.7462 18.3319 23.7187 18.2266 23.6895C18.2045 23.6833 18.1822 23.6782 18.1602 23.6719C18.0302 23.6346 17.9017 23.594 17.7744 23.5508C17.7476 23.5417 17.721 23.5318 17.6943 23.5225C17.5783 23.4818 17.4633 23.4391 17.3496 23.3936C17.3328 23.3868 17.3156 23.3809 17.2988 23.374C17.1854 23.3277 17.0738 23.2775 16.9629 23.2266C16.941 23.2165 16.9183 23.2085 16.8965 23.1982L16.8711 23.2139L16.8506 23.1777C16.8196 23.163 16.7896 23.146 16.7588 23.1309C16.6675 23.0859 16.5767 23.0402 16.4873 22.9922C16.4308 22.9618 16.3751 22.9301 16.3193 22.8984C16.2444 22.856 16.1702 22.8122 16.0967 22.7676C16.0644 22.7479 16.0311 22.73 15.999 22.71L16 22.709C14.6946 23.5255 13.1532 24 11.5 24C6.80558 24 3 20.1944 3 15.5C3 10.8056 6.80558 7 11.5 7C13.153 7 14.6947 7.47365 16 8.29004C17.3053 7.47365 18.847 7 20.5 7ZM11.5 9C7.91015 9 5 11.9101 5 15.5C5 19.0899 7.91015 22 11.5 22C12.5168 22 13.4789 21.7659 14.3359 21.3496C12.8892 19.8256 12 17.7672 12 15.5C12 13.2325 12.8889 11.1735 14.3359 9.64941C13.479 9.23324 12.5167 9 11.5 9ZM19.2002 21.8672C19.2278 21.8728 19.2554 21.8785 19.2832 21.8838C19.6775 21.9585 20.084 22 20.5 22C23.3701 22 25.8038 20.1391 26.665 17.5586L19.2002 21.8672ZM16 10.8115C14.7679 11.9944 14 13.6571 14 15.5C14 17.3426 14.7682 19.0047 16 20.1875C17.2318 19.0047 18 17.3426 18 15.5C18 13.6571 17.2321 11.9944 16 10.8115ZM19.8916 16.8496C19.8925 16.8441 19.8927 16.8385 19.8936 16.833C19.7276 17.884 19.3697 18.8703 18.8555 19.7559L26.9834 15.0654C26.936 14.3482 26.7731 13.6633 26.5117 13.0283L19.8916 16.8496ZM19.5049 12.6377C19.4671 12.5321 19.4266 12.4278 19.3848 12.3242C19.6628 13.0129 19.8516 13.7463 19.9404 14.5107L25.4746 11.3174C25.0603 10.8251 24.5739 10.3963 24.0322 10.0449C24.0265 10.0412 24.0204 10.0379 24.0146 10.0342L19.5049 12.6377ZM20.5 9C19.4832 9 18.5212 9.23411 17.6641 9.65039L17.6631 9.64844V9.64941C18.0128 10.0177 18.3294 10.4176 18.6094 10.8438L21.6309 9.09961C21.6188 9.09749 21.6068 9.09482 21.5947 9.09277C21.2388 9.03232 20.8731 9 20.5 9ZM17.6992 21.3096C17.7694 21.2347 17.8379 21.1584 17.9053 21.0811C17.8378 21.1584 17.7694 21.2347 17.6992 21.3096Z" fill="currentColor"/>
</svg>
