<svg width="32" height="32" viewBox="0 0 32 32" fill="none" xmlns="http://www.w3.org/2000/svg">
<path fill-rule="evenodd" clip-rule="evenodd" d="M25.3037 4.47773C25.3408 5.3319 24.6816 6.05145 23.8368 6.08859C22.9919 6.12573 22.277 5.46188 22.2398 4.61235C22.2027 3.75817 22.8619 3.03862 23.7068 3.00149C24.5517 2.96435 25.2666 3.62819 25.3037 4.47773ZM16.3535 22.6568C12.2637 22.6568 8.69841 21.1574 6.84615 18.9477C8.24811 22.9122 11.9758 25.7486 16.3535 25.7486C20.7312 25.7486 24.4589 22.9122 25.8608 18.9477C24.0039 21.162 20.4433 22.6568 16.3535 22.6568ZM25.8608 11.9657C24.0086 9.75599 20.4433 8.25654 16.3535 8.25654C12.2637 8.25654 8.70305 9.75134 6.84615 11.9657C8.24811 7.99657 11.9758 5.16479 16.3535 5.16479C20.7312 5.16479 24.4589 8.00121 25.8608 11.9657ZM10.741 26.9695C10.7874 28.0419 9.96107 28.9517 8.89335 28.9982C7.82563 29.0446 6.92503 28.209 6.87861 27.1366C6.83218 26.0642 7.65851 25.1544 8.72623 25.1079C9.79395 25.0615 10.6945 25.8971 10.741 26.9695ZM6.13114 6.66887C6.159 7.30022 6.68821 7.78766 7.31028 7.7598C7.93234 7.73195 8.41978 7.20273 8.39192 6.57138C8.36407 5.94004 7.83949 5.4526 7.21279 5.48045C6.59073 5.50831 6.10329 6.03752 6.13114 6.66887Z" fill="currentColor"/>
</svg>
