<svg width="24" height="24" viewBox="0 0 24 24" fill="none" xmlns="http://www.w3.org/2000/svg">
<path d="M12.7039 3.45673C13.8003 3.0026 15.0067 2.88378 16.1705 3.11529C17.3344 3.3468 18.4035 3.91825 19.2426 4.75736C20.0818 5.59648 20.6532 6.66558 20.8847 7.82946C21.1162 8.99335 20.9974 10.1997 20.5433 11.2961C20.0892 12.3925 19.3201 13.3295 18.3334 13.9888C17.3467 14.6481 16.1867 15 15 15L14.9972 15C14.2393 15.0029 13.4882 14.8582 12.7858 14.5741C12.5117 14.4555 12.1812 14.5082 11.9572 14.7322L10.9393 15.75H9C8.58579 15.75 8.25 16.0858 8.25 16.5V18H6.75C6.33579 18 6 18.3358 6 18.75V20.25H3.75V17.5607L9.26783 12.0428C9.48124 11.8294 9.54594 11.5089 9.43202 11.2294C9.1439 10.5226 8.99713 9.76612 8.99999 9.00282H9V9C9 7.81332 9.35189 6.65328 10.0112 5.66658C10.6705 4.67989 11.6075 3.91085 12.7039 3.45673ZM11.7803 17.0303L12.679 16.1317C13.4273 16.3781 14.2114 16.5028 15.0014 16.5C16.4843 16.4997 17.9338 16.0599 19.1668 15.236C20.4001 14.4119 21.3614 13.2406 21.9291 11.8701C22.4968 10.4997 22.6453 8.99168 22.3559 7.53683C22.0665 6.08197 21.3522 4.7456 20.3033 3.6967C19.2544 2.64781 17.918 1.9335 16.4632 1.64411C15.0083 1.35472 13.5003 1.50325 12.1299 2.07091C10.7594 2.63856 9.58809 3.59986 8.76398 4.83323C7.94012 6.06621 7.50027 7.51574 7.5 8.99861C7.49718 9.7886 7.62191 10.5727 7.86834 11.321L2.46967 16.7197C2.32902 16.8603 2.25 17.0511 2.25 17.25V21C2.25 21.4142 2.58579 21.75 3 21.75H6.75C7.16421 21.75 7.5 21.4142 7.5 21V19.5H9C9.41421 19.5 9.75 19.1642 9.75 18.75V17.25H11.25C11.4489 17.25 11.6397 17.171 11.7803 17.0303ZM15.0014 16.5L15.0028 16.5L15 15.75V16.5H15.0014ZM18 7.125C18 7.74632 17.4963 8.25 16.875 8.25C16.2537 8.25 15.75 7.74632 15.75 7.125C15.75 6.50368 16.2537 6 16.875 6C17.4963 6 18 6.50368 18 7.125Z" fill="currentColor"/>
</svg>
