<svg width="24" height="24" viewBox="0 0 24 24" fill="none" xmlns="http://www.w3.org/2000/svg">
<path d="M3.75 5.25C3.75 4.83579 4.08579 4.5 4.5 4.5H19.5C19.9142 4.5 20.25 4.83579 20.25 5.25V8.25C20.25 8.66421 19.9142 9 19.5 9C19.0858 9 18.75 8.66421 18.75 8.25V6H12.75V18H15C15.4142 18 15.75 18.3358 15.75 18.75C15.75 19.1642 15.4142 19.5 15 19.5H9C8.58579 19.5 8.25 19.1642 8.25 18.75C8.25 18.3358 8.58579 18 9 18H11.25V6H5.25V8.25C5.25 8.66421 4.91421 9 4.5 9C4.08579 9 3.75 8.66421 3.75 8.25V5.25Z" fill="currentColor"/>
</svg>
