<svg width="24" height="24" viewBox="0 0 24 24" fill="none" xmlns="http://www.w3.org/2000/svg">
<path d="M19.3265 3.27507C19.5584 3.55851 19.5517 3.968 19.3107 4.24371L15.1521 9.00004H21.0001C21.3345 9.00004 21.6285 9.22142 21.7209 9.5428C21.8133 9.86417 21.6817 10.2079 21.3984 10.3855L4.64842 20.8855C4.34351 21.0766 3.94582 21.0243 3.70079 20.7607C3.45576 20.4972 3.43245 20.0967 3.64526 19.8065L8.27001 13.5H3.00007C2.66001 13.5 2.3625 13.2712 2.2752 12.9426C2.1879 12.6139 2.33266 12.2677 2.62789 12.0989L18.3739 3.0989C18.6919 2.91716 19.0946 2.99164 19.3265 3.27507ZM5.82362 12H9.75007C10.0327 12 10.2913 12.1589 10.4191 12.411C10.5468 12.6631 10.522 12.9657 10.3549 13.1936L7.17287 17.5327L18.3916 10.5H13.5001C13.2058 10.5 12.9388 10.328 12.8172 10.0601C12.6955 9.79217 12.7418 9.47788 12.9354 9.25638L15.2447 6.61518L5.82362 12Z" fill="currentColor"/>
</svg>
