<svg width="24" height="24" viewBox="0 0 24 24" fill="none" xmlns="http://www.w3.org/2000/svg">
<path d="M15.8178 4.17972C14.6488 3.37785 13.2569 2.96439 11.8397 2.99799C8.18229 3.08226 5.23319 6.12909 5.25007 9.79162L5.25008 9.79262C5.25341 10.8098 5.4882 11.813 5.93668 12.726C6.38515 13.639 7.03555 14.438 7.83858 15.0624L7.84234 15.0653C8.20043 15.3474 8.49043 15.7065 8.69085 16.116C8.89126 16.5254 8.99695 16.9747 9.00006 17.4306L9.0001 17.4357L9.00008 17.9982H15.0001L15.0001 17.4342C15.001 16.974 15.1071 16.5201 15.3103 16.1071C15.5131 15.6951 15.8071 15.3348 16.1701 15.0536C17.2841 14.1783 18.0945 12.9747 18.4863 11.6131C18.8785 10.2508 18.8317 8.79965 18.3527 7.46541C17.8737 6.13116 16.9868 4.98159 15.8178 4.17972ZM11.8047 1.4984C13.5367 1.45745 15.2376 1.96278 16.6663 2.94275C18.0951 3.92281 19.1791 5.32784 19.7645 6.95859C20.3499 8.58933 20.4071 10.363 19.9278 12.028C19.4486 13.6931 18.4573 15.165 17.0945 16.235L17.09 16.2385C16.9068 16.3801 16.7584 16.5617 16.6562 16.7695C16.554 16.977 16.5006 17.2052 16.5001 17.4365C16.5001 17.4363 16.5001 17.4367 16.5001 17.4365V17.9982C16.5001 18.396 16.342 18.7776 16.0607 19.0589C15.7794 19.3402 15.3979 19.4982 15.0001 19.4982H9.00008C8.60226 19.4982 8.22073 19.3402 7.93942 19.0589C7.65812 18.7776 7.50008 18.396 7.50008 17.9982V17.4385C7.49816 17.2086 7.44469 16.982 7.34358 16.7754C7.24244 16.5688 7.09624 16.3875 6.91574 16.2449C5.93397 15.481 5.13878 14.5038 4.59033 13.3873C4.0415 12.27 3.75416 11.0424 3.75008 9.79753L4.50008 9.79508L3.75009 9.79853C3.75009 9.7982 3.75009 9.79786 3.75008 9.79753C3.73 5.32307 7.32504 1.60172 11.8047 1.4984C11.8048 1.4984 11.8046 1.4984 11.8047 1.4984ZM12.02 5.19785C12.0892 4.78946 12.4764 4.51452 12.8848 4.58375C13.9546 4.76509 14.9417 5.27401 15.7099 6.04025C16.4781 6.8065 16.9895 7.7923 17.1736 8.86159C17.2439 9.2698 16.9699 9.65768 16.5617 9.72795C16.1535 9.79823 15.7656 9.52427 15.6953 9.11606C15.5639 8.35283 15.1989 7.64919 14.6506 7.10227C14.1022 6.55534 13.3977 6.19209 12.6341 6.06265C12.2257 5.99342 11.9508 5.60624 12.02 5.19785ZM7.50008 21.7482C7.50008 21.334 7.83587 20.9982 8.25008 20.9982H15.7501C16.1643 20.9982 16.5001 21.334 16.5001 21.7482C16.5001 22.1624 16.1643 22.4982 15.7501 22.4982H8.25008C7.83587 22.4982 7.50008 22.1624 7.50008 21.7482Z" fill="currentColor"/>
</svg>
