<svg width="32" height="32" viewBox="0 0 32 32" fill="none" xmlns="http://www.w3.org/2000/svg">
<g id="Size=32, Style=Regular">
<path id="Vector" fill-rule="evenodd" clip-rule="evenodd" d="M21.0904 5.57536C19.5317 4.5062 17.6759 3.95493 15.7863 3.99972C10.9097 4.11208 6.97759 8.17452 7.0001 13.0579L7.0001 13.0592C7.00454 14.4155 7.3176 15.753 7.91557 16.9704C8.51354 18.1877 9.38073 19.253 10.4514 20.0856L10.4564 20.0895C10.9339 20.4656 11.3206 20.9444 11.5878 21.4903C11.855 22.0363 11.9959 22.6354 12.0001 23.2432L12.0001 23.25L12.0001 24H20.0001L20.0001 23.2481C20.0013 22.6344 20.1428 22.0291 20.4138 21.4785C20.6841 20.9292 21.0762 20.4488 21.5602 20.0739C23.0455 18.9068 24.126 17.3019 24.6485 15.4866C25.1713 13.6702 25.1089 11.7353 24.4703 9.95628C23.8317 8.17728 22.6491 6.64452 21.0904 5.57536ZM15.7396 2.00027C18.0489 1.94566 20.3168 2.61944 22.2217 3.92606C24.1268 5.23281 25.5721 7.10619 26.3527 9.28052C27.1332 11.4548 27.2094 13.8197 26.5704 16.0398C25.9314 18.2598 24.6097 20.2224 22.7927 21.649L22.7867 21.6537C22.5424 21.8425 22.3445 22.0847 22.2082 22.3617C22.072 22.6384 22.0008 22.9426 22.0001 23.2511C22.0001 23.2508 22.0001 23.2513 22.0001 23.2511V24C22.0001 24.5304 21.7894 25.0391 21.4143 25.4142C21.0392 25.7893 20.5305 26 20.0001 26H12.0001C11.4697 26 10.961 25.7893 10.5859 25.4142C10.2108 25.0391 10.0001 24.5304 10.0001 24V23.2538C9.99755 22.9472 9.92625 22.645 9.79144 22.3696C9.65659 22.0941 9.46165 21.8524 9.22099 21.6623C7.91196 20.6437 6.8517 19.3409 6.12044 17.8521C5.38866 16.3624 5.00555 14.7256 5.00011 13.0658L6.00011 13.0625L5.00012 13.0671C5.00011 13.0667 5.00011 13.0662 5.00011 13.0658C4.97334 7.09983 9.76672 2.13803 15.7396 2.00027C15.7397 2.00026 15.7394 2.00027 15.7396 2.00027ZM16.0267 6.93287C16.119 6.38835 16.6352 6.02176 17.1797 6.11407C18.6061 6.35586 19.9222 7.03441 20.9465 8.05607C21.9708 9.07773 22.6527 10.3921 22.8981 11.8179C22.9918 12.3621 22.6265 12.8793 22.0823 12.973C21.538 13.0667 21.0208 12.7014 20.9271 12.1572C20.7519 11.1395 20.2652 10.2013 19.5341 9.47209C18.803 8.74285 17.8636 8.25852 16.8455 8.08594C16.301 7.99363 15.9344 7.47739 16.0267 6.93287ZM10.0001 29C10.0001 28.4477 10.4478 28 11.0001 28H21.0001C21.5524 28 22.0001 28.4477 22.0001 29C22.0001 29.5523 21.5524 30 21.0001 30H11.0001C10.4478 30 10.0001 29.5523 10.0001 29Z" fill="currentColor"/>
</g>
</svg>
