<svg width="24" height="24" viewBox="0 0 24 24" fill="none" xmlns="http://www.w3.org/2000/svg">
<path d="M21 6.375C21 4.5 19.5 3 17.625 3C16.05 3 14.7 4.125 14.325 5.625H14.25L9.675 5.625C9.3 4.125 7.95 3 6.375 3C4.5 3 3 4.5 3 6.375C3 8.25 4.5 9.75 6.375 9.75C7.95 9.75 9.3 8.625 9.675 7.125L11.625 7.125C11.55 7.275 11.475 7.35 11.475 7.5C11.325 7.875 11.25 8.25 11.25 8.625V15.375C11.25 15.6 11.25 15.75 11.175 15.975C11.1 16.125 11.025 16.35 10.875 16.425C10.725 16.575 10.575 16.65 10.425 16.725C10.275 16.8 10.05 16.875 9.825 16.8H9.75C9.375 15.3 8.025 14.175 6.45 14.175C4.5 14.25 3 15.75 3 17.625C3 19.5 4.5 21 6.375 21C7.95 21 9.3 19.875 9.675 18.375H9.75C10.125 18.375 10.5 18.3 10.875 18.15C11.25 18 11.55 17.775 11.85 17.475C12.15 17.175 12.375 16.875 12.525 16.5C12.675 16.125 12.75 15.75 12.75 15.375V8.625C12.75 8.4 12.75 8.25 12.825 8.025C12.9 7.875 12.975 7.65 13.125 7.575C13.275 7.425 13.425 7.35 13.575 7.275C13.725 7.2 13.95 7.2 14.1 7.2H14.175C14.55 8.7 15.825 9.825 17.475 9.825C19.5 9.75 21 8.25 21 6.375ZM15.75 6.375C15.75 5.325 16.575 4.5 17.625 4.5C18.675 4.5 19.5 5.325 19.5 6.375C19.5 7.425 18.675 8.25 17.625 8.25C16.575 8.25 15.75 7.425 15.75 6.375ZM4.5 17.625C4.5 16.575 5.325 15.75 6.375 15.75C7.425 15.75 8.25 16.575 8.25 17.625C8.25 18.675 7.425 19.5 6.375 19.5C5.325 19.5 4.5 18.675 4.5 17.625ZM4.5 6.375C4.5 5.325 5.325 4.5 6.375 4.5C7.425 4.5 8.25 5.325 8.25 6.375C8.25 7.425 7.425 8.25 6.375 8.25C5.325 8.25 4.5 7.425 4.5 6.375Z" fill="currentColor"/>
</svg>
