<svg width="24" height="24" viewBox="0 0 24 24" fill="none" xmlns="http://www.w3.org/2000/svg">
<path d="M2.25 6.75C2.25 6.33579 2.58579 6 3 6H21C21.4142 6 21.75 6.33579 21.75 6.75C21.75 7.16421 21.4142 7.5 21 7.5H3C2.58579 7.5 2.25 7.16421 2.25 6.75Z" fill="currentColor"/>
<path d="M2.25 12C2.25 11.5858 2.58579 11.25 3 11.25H21C21.4142 11.25 21.75 11.5858 21.75 12C21.75 12.4142 21.4142 12.75 21 12.75H3C2.58579 12.75 2.25 12.4142 2.25 12Z" fill="currentColor"/>
<path d="M3 16.5C2.58579 16.5 2.25 16.8358 2.25 17.25C2.25 17.6642 2.58579 18 3 18H21C21.4142 18 21.75 17.6642 21.75 17.25C21.75 16.8358 21.4142 16.5 21 16.5H3Z" fill="currentColor"/>
</svg>
