<svg width="24" height="24" viewBox="0 0 24 24" fill="none" xmlns="http://www.w3.org/2000/svg">
<path d="M5.64446 4.23701C5.86558 4.37367 6.00016 4.61507 6.00016 4.875V10.125C6.00016 10.5392 5.66438 10.875 5.25016 10.875C4.83595 10.875 4.50016 10.5392 4.50016 10.125V6.08853L4.08557 6.29582C3.71509 6.48106 3.26459 6.33089 3.07934 5.96041C2.8941 5.58993 3.04427 5.13942 3.41475 4.95418L4.91475 4.20418C5.14725 4.08793 5.42335 4.10036 5.64446 4.23701ZM9.00016 6C9.00016 5.58579 9.33595 5.25 9.75016 5.25H20.2502C20.6644 5.25 21.0002 5.58579 21.0002 6C21.0002 6.41421 20.6644 6.75 20.2502 6.75H9.75016C9.33595 6.75 9.00016 6.41421 9.00016 6ZM9.00016 12C9.00016 11.5858 9.33595 11.25 9.75016 11.25H20.2502C20.6644 11.25 21.0002 11.5858 21.0002 12C21.0002 12.4142 20.6644 12.75 20.2502 12.75H9.75016C9.33595 12.75 9.00016 12.4142 9.00016 12ZM5.11182 14.2368C5.03294 14.2309 4.95372 14.2418 4.87932 14.2687C4.80492 14.2955 4.73702 14.3377 4.68006 14.3926C4.62309 14.4475 4.57834 14.5138 4.54872 14.5871C4.39361 14.9712 3.95651 15.1568 3.57244 15.0017C3.18836 14.8466 3.00275 14.4095 3.15786 14.0254C3.26646 13.7565 3.43056 13.5135 3.63943 13.3123C3.8483 13.1111 4.09726 12.9562 4.37006 12.8577C4.64285 12.7593 4.93334 12.7195 5.22256 12.7409C5.51179 12.7623 5.79325 12.8445 6.04856 12.982C6.30388 13.1196 6.52732 13.3094 6.70429 13.5392C6.88126 13.769 7.00778 14.0335 7.0756 14.3154C7.14342 14.5974 7.15101 14.8905 7.09788 15.1756C7.04474 15.4607 6.93208 15.7314 6.76723 15.97C6.76183 15.9779 6.75628 15.9856 6.75059 15.9932L5.24841 18H6.37516C6.78938 18 7.12516 18.3358 7.12516 18.75C7.12516 19.1642 6.78938 19.5 6.37516 19.5H3.75016C3.46621 19.5 3.20661 19.3396 3.0795 19.0857C2.95239 18.8318 2.97958 18.5279 3.14974 18.3006L5.53941 15.1081C5.58094 15.0453 5.60947 14.9749 5.62327 14.9008C5.63776 14.823 5.63569 14.7431 5.61719 14.6662C5.5987 14.5893 5.56419 14.5172 5.51593 14.4545C5.46766 14.3918 5.40673 14.3401 5.33709 14.3025C5.26746 14.265 5.1907 14.2426 5.11182 14.2368ZM9.00016 18C9.00016 17.5858 9.33595 17.25 9.75016 17.25H20.2502C20.6644 17.25 21.0002 17.5858 21.0002 18C21.0002 18.4142 20.6644 18.75 20.2502 18.75H9.75016C9.33595 18.75 9.00016 18.4142 9.00016 18Z" fill="currentColor"/>
</svg>
