<svg width="32" height="32" viewBox="0 0 32 32" fill="none" xmlns="http://www.w3.org/2000/svg">
<path d="M17 18.6181C17.3069 18.3434 17.5 17.9443 17.5 17.5C17.5 16.6716 16.8284 16 16 16C15.1716 16 14.5 16.6716 14.5 17.5C14.5 17.9443 14.6931 18.3434 15 18.6181V20.25C15 20.8023 15.4477 21.25 16 21.25C16.5523 21.25 17 20.8023 17 20.25V18.6181Z" fill="currentColor"/>
<path fill-rule="evenodd" clip-rule="evenodd" d="M2.5 6C2.5 3.23858 4.73858 1 7.5 1C10.2614 1 12.5 3.23858 12.5 6V10H26C27.1046 10 28 10.8954 28 12V26C28 27.1046 27.1046 28 26 28H6C4.89543 28 4 27.1046 4 26V12C4 10.8954 4.89543 10 6 10H10.5V6C10.5 4.34315 9.15685 3 7.5 3C5.84315 3 4.5 4.34315 4.5 6V6.23529C4.5 6.78758 4.05228 7.23529 3.5 7.23529C2.94772 7.23529 2.5 6.78758 2.5 6.23529V6ZM6 12V26H26V12H6Z" fill="currentColor"/>
</svg>
