<svg width="32" height="32" viewBox="0 0 32 32" fill="none" xmlns="http://www.w3.org/2000/svg">
<path fill-rule="evenodd" clip-rule="evenodd" d="M16 3C15.0717 3 14.1815 3.36875 13.5251 4.02513C12.8687 4.6815 12.5 5.57174 12.5 6.5V10H19.5V6.5C19.5 5.57174 19.1313 4.6815 18.4749 4.02513C17.8185 3.36875 16.9283 3 16 3ZM10.5 6.5V10H6C4.89543 10 4 10.8954 4 12V26C4 27.1046 4.89543 28 6 28H26C27.1046 28 28 27.1046 28 26V12C28 10.8954 27.1046 10 26 10H21.5V6.5C21.5 5.04131 20.9205 3.64236 19.8891 2.61091C18.8576 1.57946 17.4587 1 16 1C14.5413 1 13.1424 1.57946 12.1109 2.61091C11.0795 3.64236 10.5 5.04131 10.5 6.5ZM6 12H11.5H20.5H26V26H6V12Z" fill="currentColor"/>
<path d="M17 18.6181C17.3069 18.3434 17.5 17.9443 17.5 17.5C17.5 16.6716 16.8284 16 16 16C15.1716 16 14.5 16.6716 14.5 17.5C14.5 17.9443 14.6931 18.3434 15 18.6181V20.25C15 20.8023 15.4477 21.25 16 21.25C16.5523 21.25 17 20.8023 17 20.25V18.6181Z" fill="currentColor"/>
</svg>
