<svg width="24" height="24" viewBox="0 0 24 24" fill="none" xmlns="http://www.w3.org/2000/svg">
<path d="M16.9468 2.99757C17.5326 2.41178 18.4823 2.41178 19.0681 2.99757L21.0071 4.93659C21.5929 5.52237 21.5929 6.47212 21.0071 7.05791L7.06608 20.999C6.4803 21.5847 5.53055 21.5847 4.94477 20.999L3.00575 19.0599C2.41996 18.4742 2.41996 17.5244 3.00575 16.9386L12.9184 7.02598C12.9342 7.00658 12.9512 6.98778 12.9693 6.96968C12.9874 6.95158 13.0062 6.9346 13.0256 6.91874L16.9468 2.99757ZM13.5023 8.56335L4.06641 17.9993L6.00543 19.9383L15.4414 10.5024L13.5023 8.56335ZM16.502 9.44171L19.9465 5.99725L18.0075 4.05823L14.563 7.50269L16.502 9.44171ZM7.87466 3.00001C8.28887 3.00001 8.62466 3.3358 8.62466 3.75001V4.87501H9.74966C10.1639 4.87501 10.4997 5.2108 10.4997 5.62501C10.4997 6.03923 10.1639 6.37501 9.74966 6.37501H8.62466V7.50001C8.62466 7.91423 8.28887 8.25001 7.87466 8.25001C7.46044 8.25001 7.12466 7.91423 7.12466 7.50001V6.37501H5.99966C5.58544 6.37501 5.24966 6.03923 5.24966 5.62501C5.24966 5.2108 5.58544 4.87501 5.99966 4.87501H7.12466V3.75001C7.12466 3.3358 7.46044 3.00001 7.87466 3.00001ZM20.2497 11.25C20.6639 11.25 20.9997 11.5858 20.9997 12V13.5H22.4997C22.9139 13.5 23.2497 13.8358 23.2497 14.25C23.2497 14.6642 22.9139 15 22.4997 15H20.9997V16.5C20.9997 16.9142 20.6639 17.25 20.2497 17.25C19.8354 17.25 19.4997 16.9142 19.4997 16.5V15H17.9997C17.5854 15 17.2497 14.6642 17.2497 14.25C17.2497 13.8358 17.5854 13.5 17.9997 13.5H19.4997V12C19.4997 11.5858 19.8354 11.25 20.2497 11.25ZM15.7497 16.5C16.1639 16.5 16.4997 16.8358 16.4997 17.25V18H17.2497C17.6639 18 17.9997 18.3358 17.9997 18.75C17.9997 19.1642 17.6639 19.5 17.2497 19.5H16.4997V20.25C16.4997 20.6642 16.1639 21 15.7497 21C15.3354 21 14.9997 20.6642 14.9997 20.25V19.5H14.2497C13.8354 19.5 13.4997 19.1642 13.4997 18.75C13.4997 18.3358 13.8354 18 14.2497 18H14.9997V17.25C14.9997 16.8358 15.3354 16.5 15.7497 16.5Z" fill="currentColor"/>
</svg>
