<svg width="24" height="24" viewBox="0 0 24 24" fill="none" xmlns="http://www.w3.org/2000/svg">
<path d="M2.99951 7.49829V16.4236C2.92467 16.7235 3.07467 17.0233 3.37458 17.1733L11.6246 21.6733C11.7746 21.7483 11.8496 21.7483 11.9996 21.7483C12.1496 21.7483 12.2246 21.7483 12.3746 21.6733L20.6246 17.1733C20.9243 17.0235 21.0743 16.7239 20.9998 16.4242V7.49829C20.9998 7.19829 20.8498 6.97329 20.5498 6.82329L12.4635 2.41258C12.4589 2.40779 12.4542 2.40302 12.4495 2.39829C12.31 2.25873 12.1415 2.20573 11.9622 2.22141C11.7828 2.20573 11.6144 2.25873 11.4748 2.39829C11.4701 2.40302 11.4654 2.40779 11.4608 2.41258L3.37451 6.82329C3.14951 6.97329 2.99951 7.19829 2.99951 7.49829ZM11.9656 5.7046L13.4998 11.0233C13.5748 11.1733 13.6498 11.3233 13.7248 11.3983L17.8193 15.2369L12.1496 13.9483H11.8496L6.18667 15.2353L10.1995 11.4733C10.3495 11.3233 10.4245 11.2483 10.4245 11.0983L11.9656 5.7046ZM4.49951 7.94829L10.7995 4.49829L9.07451 10.4983L4.49951 14.7733V7.94829ZM5.84958 16.7983L11.9996 15.3733L18.1496 16.7983L11.9996 20.1733L5.84958 16.7983ZM19.4998 14.7733L14.9248 10.4983L13.1998 4.49829L19.4998 7.94829V14.7733Z" fill="currentColor"/>
</svg>
