<svg width="32" height="32" viewBox="0 0 32 32" fill="none" xmlns="http://www.w3.org/2000/svg">
<path fill-rule="evenodd" clip-rule="evenodd" d="M6.74999 4H25.2582C25.6894 4.00355 26.1081 4.14553 26.4525 4.40497C26.7969 4.66442 27.0489 5.02762 27.1713 5.44108L27.1743 5.45102L28.9617 11.726C28.9874 11.8162 29 11.9084 29 12V13.6667C29 14.7839 28.6015 15.8739 27.8646 16.6927C27.6079 16.9779 27.3165 17.2226 26.9996 17.4206C26.9999 17.4304 27 17.4402 27 17.45V26C27 26.5304 26.7893 27.0392 26.4142 27.4142C26.0391 27.7893 25.5304 28 25 28H7C6.46957 28 5.96086 27.7893 5.58579 27.4142C5.21071 27.0392 5 26.5304 5 26V17.45C5 17.4402 5.00014 17.4304 5.00042 17.4206C4.68353 17.2226 4.39215 16.9779 4.13539 16.6927C3.39848 15.8739 3 14.7839 3 13.6667V12H3.00397C3.00907 11.8883 3.01962 11.7914 3.03825 11.726L4.82859 5.44107C4.95101 5.02761 5.20306 4.66441 5.54748 4.40497C5.89191 4.14553 6.31056 4.00358 6.74176 4.00003L6.74999 4ZM23 13H27V13.6667C27 14.3175 26.7663 14.9233 26.378 15.3547C25.9928 15.7827 25.4944 16 25 16C24.5056 16 24.0072 15.7827 23.622 15.3547C23.2337 14.9233 23 14.3175 23 13.6667V13ZM17 13H21V13.6667C21 14.3175 20.7663 14.9233 20.378 15.3547C19.9928 15.7827 19.4944 16 19 16C18.5056 16 18.0072 15.7827 17.622 15.3547C17.2337 14.9233 17 14.3175 17 13.6667V13ZM11 13H15V13.6667C15 14.3175 14.7663 14.9233 14.378 15.3547C13.9928 15.7827 13.4944 16 13 16C12.5056 16 12.0072 15.7827 11.622 15.3547C11.2337 14.9233 11 14.3175 11 13.6667V13ZM5 13H9V13.6667C9 14.3175 8.76634 14.9233 8.37803 15.3547C7.99284 15.7827 7.4944 16 7 16C6.5056 16 6.00716 15.7827 5.62197 15.3547C5.23366 14.9233 5 14.3175 5 13.6667V13ZM7 26V18C8.0969 18 9.12458 17.5149 9.86461 16.6927C9.9111 16.641 9.95623 16.5883 10 16.5345C10.0438 16.5883 10.0889 16.641 10.1354 16.6927C10.8754 17.5149 11.9031 18 13 18C14.0969 18 15.1246 17.5149 15.8646 16.6927C15.9111 16.641 15.9562 16.5883 16 16.5345C16.0438 16.5883 16.0889 16.641 16.1354 16.6927C16.8754 17.5149 17.9031 18 19 18C20.0969 18 21.1246 17.5149 21.8646 16.6927C21.9111 16.641 21.9562 16.5883 22 16.5345C22.0438 16.5883 22.0889 16.641 22.1354 16.6927C22.8754 17.5149 23.9031 18 25 18V26H20V21.6283C20 21.3524 19.9502 21.0373 19.8145 20.7531C19.7074 20.5288 19.3746 20 18.7 20H13.3C12.6254 20 12.2926 20.5288 12.1855 20.7531C12.0498 21.0373 12 21.3524 12 21.6283V26H7ZM14 26H18V22H14V26ZM6.7508 6.00248C6.75272 6.00104 6.75501 6.00018 6.7574 6H25.2426L26.6753 11H5.32463L6.7508 6.00248Z" fill="currentColor"/>
</svg>
