<svg width="24" height="24" viewBox="0 0 24 24" fill="none" xmlns="http://www.w3.org/2000/svg">
<path d="M20.134 9.46559C20.4269 9.75849 20.4268 10.2333 20.134 10.5262L11.6626 18.9975C11.6164 19.0463 11.5633 19.0891 11.5044 19.1244L8.8528 20.7154C8.55769 20.8925 8.17995 20.846 7.9366 20.6026L7.36154 20.0275L5.86586 21.1689C5.63174 21.3475 5.31474 21.3726 5.05543 21.2331L2.86135 20.0521C2.66437 19.9461 2.525 19.7577 2.48127 19.5383C2.43754 19.319 2.49402 19.0915 2.63529 18.9181L4.25883 16.9248L3.69395 16.36C3.4506 16.1166 3.4041 15.7389 3.58116 15.4438L5.15875 12.8145C5.19193 12.7546 5.23392 12.6983 5.28472 12.6475L13.77 4.16224C14.0629 3.86934 14.5378 3.86934 14.8307 4.16224L16.5233 2.46967C16.8162 2.17678 17.2911 2.17678 17.584 2.46967L21.8266 6.71231C22.1195 7.0052 22.1195 7.48008 21.8266 7.77297L20.134 9.46559ZM20.2357 7.24264L17.0537 4.06066L15.993 5.12132L19.175 8.3033L20.2357 7.24264ZM6.87576 13.1778L11.1184 17.4204L18.543 9.99587L14.3003 5.75323L6.87576 13.1778ZM9.90896 18.3324L5.96415 14.3876L5.16868 15.7134L8.58319 19.1279L9.90896 18.3324ZM6.10591 19.0989L5.17826 18.1712L4.3716 19.1615L5.34043 19.683L6.10591 19.0989Z" fill="currentColor"/>
</svg>
