<svg width="24" height="24" viewBox="0 0 24 24" fill="none" xmlns="http://www.w3.org/2000/svg">
<path d="M9.00138 12.0004C9.00138 10.9674 8.60207 9.9744 7.88692 9.229C7.60016 8.9301 7.61 8.45533 7.90889 8.16856C8.20779 7.8818 8.68256 7.89164 8.96933 8.19054C9.95244 9.21525 10.5014 10.5803 10.5014 12.0004C10.5014 13.4204 9.95244 14.7855 8.96933 15.8102C8.68256 16.1091 8.20779 16.119 7.90889 15.8322C7.61 15.5455 7.60016 15.0707 7.88692 14.7718C8.60207 14.0264 9.00138 13.0334 9.00138 12.0004Z" fill="currentColor"/>
<path d="M13.4987 12.0004C13.4987 9.77889 12.6303 7.64541 11.0788 6.05543C10.7896 5.75896 10.7954 5.28412 11.0918 4.99485C11.3883 4.70557 11.8631 4.71139 12.1524 5.00786C13.9773 6.87801 14.9987 9.38744 14.9987 12.0004C14.9987 14.6133 13.9773 17.1228 12.1524 18.9929C11.8631 19.2894 11.3883 19.2952 11.0918 19.0059C10.7954 18.7167 10.7896 18.2418 11.0788 17.9454C12.6303 16.3554 13.4987 14.2219 13.4987 12.0004Z" fill="currentColor"/>
<path d="M17.9983 12.0004C17.9983 8.58719 16.6553 5.31105 14.2596 2.87995C13.9688 2.58492 13.9723 2.11006 14.2673 1.81932C14.5623 1.52858 15.0372 1.53205 15.3279 1.82708C18.0003 4.53883 19.4983 8.19317 19.4983 12.0004C19.4983 15.8076 18.0003 19.4619 15.3279 22.1737C15.0372 22.4687 14.5623 22.4722 14.2673 22.1815C13.9723 21.8907 13.9688 21.4159 14.2596 21.1208C16.6553 18.6897 17.9983 15.4136 17.9983 12.0004Z" fill="currentColor"/>
<path d="M4.125 12.0004C4.125 12.6217 4.62868 13.1254 5.25 13.1254C5.87132 13.1254 6.375 12.6217 6.375 12.0004C6.375 11.3791 5.87132 10.8754 5.25 10.8754C4.62868 10.8754 4.125 11.3791 4.125 12.0004Z" fill="currentColor"/>
</svg>
