<svg width="32" height="32" viewBox="0 0 32 32" fill="none" xmlns="http://www.w3.org/2000/svg">
<g id="Size=32, Style=Regular">
<path id="Vector" d="M21.4 28.3998C21.3 28.3998 21.2 28.3998 21.2 28.3998C20.9 28.3998 20.6 28.2998 20.3 28.0998L18.9 27.1998C18.6 26.9998 18.4 26.7998 18.2 26.4998C18 26.1998 18 25.8998 18 25.4998V21.0998C15.9 21.2998 11 22.2998 6.3 26.2998C6 26.4998 5.7 26.6998 5.3 26.6998C4.9 26.6998 4.5 26.6998 4.2 26.4998C3.9 26.2998 3.6 26.0998 3.4 25.7998C3.1 25.4998 3 25.0998 3 24.6998V5.2998C3 4.8998 3.1 4.4998 3.3 4.1998C3.5 3.8998 3.8 3.5998 4.1 3.4998C4.4 3.2998 4.8 3.2998 5.2 3.2998C5.6 3.2998 5.9 3.4998 6.2 3.6998C12.4 8.8998 18.9 8.9998 19 8.9998H24C25.6 8.9998 27.1 9.5998 28.2 10.7998C29.3 11.8998 30 13.3998 30 14.9998C30 16.5998 29.4 18.0998 28.2 19.1998C27.3 20.0998 26.1 20.6998 24.8 20.8998L23.3 26.7998C23.2 27.0998 23.1 27.3998 22.9 27.5998C22.7 27.7998 22.4 27.9998 22.1 28.0998C21.9 28.2998 21.6 28.3998 21.4 28.3998ZM20 20.9998V25.4998L21.4 26.3998L22.7 20.9998H20ZM5 5.2998V24.6998C10.3 20.1998 15.8 19.1998 18 18.9998V10.8998C15.8 10.6998 10.3 9.69981 5 5.2998ZM20 18.9998H24C25.1 18.9998 26.1 18.5998 26.8 17.7998C27.6 16.9998 28 15.9998 28 14.9998C28 13.9998 27.6 12.8998 26.8 12.1998C26.1 11.3998 25.1 10.9998 24 10.9998H20V18.9998Z" fill="currentColor"/>
</g>
</svg>
