<svg width="24" height="24" viewBox="0 0 24 24" fill="none" xmlns="http://www.w3.org/2000/svg">
<path d="M17.4135 13.3132C17.5131 12.929 17.8272 12.75 18 12.75L19.5 12.75C19.9142 12.75 20.25 12.4143 20.25 12C20.25 11.5858 19.9142 11.25 19.5 11.25L18 11.25C17.0478 11.25 16.2072 11.9888 15.9615 12.9369C15.8298 13.4449 15.694 14.195 15.5658 15H13.5C13.0858 15 12.75 15.3358 12.75 15.75C12.75 16.1642 13.0858 16.5 13.5 16.5H15.3412L15.3409 16.5022C15.2744 16.9677 15.2131 17.4114 15.1584 17.8068C15.0557 18.55 14.9765 19.1229 14.9311 19.35C14.7723 20.1439 14.3647 20.25 14.25 20.25H12.75C12.3358 20.25 12 20.5858 12 21C12 21.4142 12.3358 21.75 12.75 21.75H14.25C15.2603 21.75 16.1416 20.9456 16.4019 19.6442C16.4563 19.3722 16.5479 18.7099 16.6578 17.9159C16.7103 17.5361 16.767 17.1261 16.8258 16.7142C16.836 16.6429 16.8462 16.5715 16.8566 16.5H18.75C19.1642 16.5 19.5 16.1642 19.5 15.75C19.5 15.3358 19.1642 15 18.75 15H17.0853C17.1968 14.3179 17.309 13.7162 17.4135 13.3132Z" fill="currentColor"/>
<path d="M20.9285 17.8453C21.2211 17.5521 21.6959 17.5515 21.9892 17.844C22.2824 18.1366 22.283 18.6115 21.9904 18.9047L21.1606 19.7365L21.9767 20.554C22.2693 20.8471 22.2689 21.322 21.9757 21.6146C21.6826 21.9073 21.2077 21.9069 20.9151 21.6137L20.1012 20.7984L19.2925 21.6091C18.9999 21.9023 18.525 21.9029 18.2318 21.6103C17.9386 21.3178 17.938 20.8429 18.2305 20.5497L19.0415 19.7368L18.2216 18.9155C17.929 18.6223 17.9294 18.1475 18.2226 17.8548C18.5157 17.5622 18.9906 17.5626 19.2832 17.8558L20.1009 18.6749L20.9285 17.8453Z" fill="currentColor"/>
<path fill-rule="evenodd" clip-rule="evenodd" d="M2.25 5.25C2.25 4.42157 2.92157 3.75 3.75 3.75H20.25C21.0784 3.75 21.75 4.42157 21.75 5.25V9.75C21.75 10.1642 21.4142 10.5 21 10.5C20.5858 10.5 20.25 10.1642 20.25 9.75V9H3.75V11.25L14.25 11.25V12.75L3.75 12.75L3.75 15L11.25 15V16.5H3.75L3.75 18.75H10.5C10.9142 18.75 11.25 19.0858 11.25 19.5C11.25 19.9142 10.9142 20.25 10.5 20.25H3.75C2.92157 20.25 2.25 19.5784 2.25 18.75V5.25ZM20.25 7.5H18.75V5.25H20.25V7.5ZM17.25 5.25V7.5H15.75V5.25L17.25 5.25ZM14.25 5.25V7.5H12.75V5.25L14.25 5.25ZM11.25 5.25V7.5H9.75V5.25L11.25 5.25ZM8.25 5.25V7.5H6.75V5.25L8.25 5.25ZM3.75 7.5H5.25L5.25 5.25L3.75 5.25V7.5Z" fill="currentColor"/>
</svg>
