<svg width="24" height="24" viewBox="0 0 24 24" fill="none" xmlns="http://www.w3.org/2000/svg">
<path d="M15.7492 12.375C15.2992 12.375 14.9992 12.075 14.9992 11.625V6C14.9992 5.175 14.6992 4.425 14.0992 3.9C13.5742 3.3 12.8242 3 11.9992 3C11.4742 3 11.0242 3.15 10.5742 3.375C10.1242 3.6 9.74918 3.975 9.52418 4.425C9.29918 4.8 8.84918 4.875 8.47418 4.65C8.09918 4.425 8.02418 3.975 8.24918 3.6C8.62418 2.925 9.22418 2.4 9.89918 2.025C10.4992 1.725 11.2492 1.5 11.9992 1.5C13.1992 1.5 14.3242 1.95 15.1492 2.85C16.0492 3.675 16.4992 4.8 16.4992 6V11.625C16.4992 12.075 16.1992 12.375 15.7492 12.375Z" fill="currentColor"/>
<path d="M18.9742 20.775C19.1242 20.925 19.2742 21 19.4992 21C19.6492 21 19.8742 20.925 20.0242 20.85C20.3242 20.55 20.3992 20.1 20.0992 19.8L8.91205 7.49419C8.85818 7.39085 8.78086 7.30594 8.68434 7.24371L5.09918 3.30004C4.79918 3.00004 4.34918 2.92504 4.04918 3.22504C3.74918 3.52504 3.67418 3.97504 3.97418 4.27504L7.49919 8.15255V12C7.49919 13.2 7.94919 14.325 8.77419 15.15C9.67419 16.05 10.7992 16.5 11.9992 16.5C12.8805 16.5 13.7158 16.2238 14.4329 15.7797L15.5314 16.9879C14.806 17.4953 13.9651 17.8198 13.1242 18C12.8671 18.0367 12.6055 18.06 12.3417 18.0686C12.2418 18.024 12.1265 18 11.9992 18C11.8811 18 11.7734 18.0207 11.6787 18.0592C11.0795 18.0223 10.4779 17.9067 9.89917 17.7C8.84917 17.325 7.94917 16.575 7.27417 15.75C6.59917 14.925 6.22417 13.875 6.07417 12.75C5.99917 12.3 5.62417 12 5.24917 12.075C4.79917 12.15 4.49917 12.525 4.57417 12.9C4.72417 14.25 5.17417 15.6 6.07417 16.65C6.97417 17.7 8.09917 18.525 9.37417 19.05C9.96951 19.2665 10.6039 19.4049 11.2492 19.4652V21.75C11.2492 22.2 11.5492 22.5 11.9992 22.5C12.4492 22.5 12.7492 22.2 12.7492 21.75V19.4692C12.9492 19.463 13.1492 19.4667 13.3492 19.5C14.5581 19.3091 15.6052 18.7943 16.536 18.0931L18.9742 20.775ZM13.4004 14.6438C12.9667 14.8664 12.4996 15 11.9992 15C11.1742 15 10.4992 14.625 9.89919 14.1C9.29919 13.575 8.99919 12.825 8.99919 12V9.80255L13.4004 14.6438Z" fill="currentColor"/>
<path d="M17.9992 15.15C18.1492 15.225 18.2242 15.225 18.2992 15.225C18.5992 15.225 18.8992 15 18.9742 14.7C19.1992 14.1 19.3492 13.5 19.4242 12.825C19.4242 12.45 19.1242 12.075 18.7492 12C18.3742 12 17.9992 12.3 17.9242 12.675C17.8492 13.2 17.7742 13.725 17.5492 14.175C17.3992 14.55 17.6242 15 17.9992 15.15Z" fill="currentColor"/>
</svg>
