<svg width="24" height="24" viewBox="0 0 24 24" fill="none" xmlns="http://www.w3.org/2000/svg">
<path d="M7.49976 6C7.49976 3.51472 9.51447 1.5 11.9998 1.5C14.485 1.5 16.4998 3.51472 16.4998 6V12C16.4998 14.4853 14.485 16.5 11.9998 16.5C9.51447 16.5 7.49976 14.4853 7.49976 12V6ZM11.9998 3C10.3429 3 8.99976 4.34315 8.99976 6V12C8.99976 13.6569 10.3429 15 11.9998 15C13.6566 15 14.9998 13.6569 14.9998 12V6C14.9998 4.34315 13.6566 3 11.9998 3Z" fill="currentColor"/>
<path d="M12.7498 19.4272C14.3165 19.27 15.8012 18.6231 16.9877 17.5688C18.3622 16.3474 19.2408 14.6642 19.457 12.8382C19.5057 12.4269 19.2117 12.054 18.8004 12.0053C18.389 11.9566 18.0161 12.2506 17.9674 12.6619C17.7944 14.1231 17.0913 15.4701 15.9914 16.4475C14.8914 17.4249 13.4711 17.9648 11.9997 17.9648C10.5282 17.9648 9.10793 17.4249 8.008 16.4475C6.90807 15.4701 6.20497 14.1231 6.03198 12.6619C5.98328 12.2506 5.61035 11.9566 5.19901 12.0053C4.78767 12.054 4.49369 12.4269 4.54238 12.8382C4.75855 14.6642 5.63716 16.3474 7.01164 17.5688C8.19815 18.6231 9.683 19.27 11.2498 19.4273V21.75C11.2498 22.1642 11.5855 22.5 11.9998 22.5C12.414 22.5 12.7498 22.1642 12.7498 21.75V19.4272Z" fill="currentColor"/>
</svg>
