<svg width="24" height="24" viewBox="0 0 24 24" fill="none" xmlns="http://www.w3.org/2000/svg">
<path d="M3.75 11.625C3.75 7.27576 7.27576 3.75 11.625 3.75C15.8602 3.75 19.3215 7.09311 19.5007 11.2821C19.5184 11.6959 19.8682 12.017 20.2821 11.9993C20.6959 11.9816 21.017 11.6318 20.9993 11.2179C20.7858 6.22792 16.6654 2.25 11.625 2.25C6.44733 2.25 2.25 6.44733 2.25 11.625C2.25 16.6654 6.22792 20.7858 11.2179 20.9993C11.6318 21.017 11.9816 20.6959 11.9993 20.2821C12.017 19.8682 11.6959 19.5184 11.2821 19.5007C7.09311 19.3215 3.75 15.8602 3.75 11.625Z" fill="currentColor"/>
<path d="M17.25 12.75C14.7647 12.75 12.75 14.7647 12.75 17.25C12.75 19.7353 14.7647 21.75 17.25 21.75C19.7353 21.75 21.75 19.7353 21.75 17.25C21.75 14.7647 19.7353 12.75 17.25 12.75ZM14.25 17.25C14.25 15.5931 15.5931 14.25 17.25 14.25C18.9069 14.25 20.25 15.5931 20.25 17.25C20.25 18.9069 18.9069 20.25 17.25 20.25C15.5931 20.25 14.25 18.9069 14.25 17.25Z" fill="currentColor"/>
</svg>
