<svg width="24" height="24" viewBox="0 0 24 24" fill="none" xmlns="http://www.w3.org/2000/svg">
<path d="M7.49577 5.25001H2.25001C1.42158 5.25001 0.75001 5.92158 0.75001 6.75001V11.2464C0.749997 11.249 0.749997 11.2516 0.75001 11.2543V12.7458C0.749997 12.7484 0.749997 12.751 0.75001 12.7536V17.25C0.75001 18.0784 1.42158 18.75 2.25001 18.75H7.49581C7.49841 18.75 7.50101 18.75 7.5036 18.75H16.4964C16.499 18.75 16.5016 18.75 16.5042 18.75H21.75C22.5784 18.75 23.25 18.0784 23.25 17.25V12.7536C23.25 12.751 23.25 12.7484 23.25 12.7458V11.2542C23.25 11.2516 23.25 11.249 23.25 11.2464V6.75001C23.25 5.92158 22.5784 5.25001 21.75 5.25001H16.5043C16.5016 5.25 16.499 5.25 16.4964 5.25001H7.50364C7.50102 5.25 7.49839 5.25 7.49577 5.25001ZM16.2182 6.75001L21.75 11.5903V12.4097L16.2182 17.25H7.78181L2.25001 12.4097V11.5903L7.78181 6.75001H16.2182ZM18.4961 6.75001H21.75V9.59718L18.4961 6.75001ZM21.75 14.4028V17.25H18.4961L21.75 14.4028ZM5.50392 17.25H2.25001V14.4028L5.50392 17.25ZM2.25001 9.59718V6.75001H5.50392L2.25001 9.59718ZM12 9.75001C10.7574 9.75001 9.75001 10.7574 9.75001 12C9.75001 13.2427 10.7574 14.25 12 14.25C13.2426 14.25 14.25 13.2427 14.25 12C14.25 10.7574 13.2427 9.75001 12 9.75001ZM8.25001 12C8.25001 9.92894 9.92894 8.25001 12 8.25001C14.0711 8.25001 15.75 9.92894 15.75 12C15.75 14.0711 14.0711 15.75 12 15.75C9.92894 15.75 8.25001 14.0711 8.25001 12Z" fill="currentColor"/>
</svg>
