<svg width="32" height="32" viewBox="0 0 32 32" fill="none" xmlns="http://www.w3.org/2000/svg">
<g clip-path="url(#clip0_25_4380)">
<path d="M29.1925 17.779C29.0642 17.6505 28.9034 17.5593 28.7272 17.5153C28.551 17.4712 28.3662 17.476 28.1925 17.529C26.2857 18.1055 24.2583 18.1538 22.3262 17.6689C20.3941 17.184 18.6298 16.1839 17.2212 14.7754C15.8126 13.3668 14.8126 11.6025 14.3277 9.67038C13.8427 7.73829 13.8911 5.71083 14.4675 3.80405C14.521 3.6303 14.5261 3.44525 14.4823 3.26881C14.4385 3.09237 14.3475 2.93121 14.2189 2.80266C14.0904 2.67411 13.9292 2.58303 13.7528 2.53923C13.5763 2.49542 13.3913 2.50055 13.2175 2.55405C10.5813 3.3616 8.26695 4.98004 6.60378 7.17905C5.14929 9.11012 4.26209 11.4085 4.04186 13.816C3.82162 16.2235 4.27707 18.6447 5.35704 20.8077C6.437 22.9706 8.0987 24.7895 10.1554 26.0601C12.2122 27.3307 14.5825 28.0026 17 28.0003C19.8205 28.009 22.5658 27.0921 24.815 25.3903C27.014 23.7271 28.6325 21.4128 29.44 18.7765C29.4929 18.6034 29.4978 18.4192 29.4542 18.2436C29.4106 18.0679 29.3202 17.9073 29.1925 17.779ZM23.6125 23.7928C21.4945 25.3881 18.8714 26.1647 16.2262 25.9794C13.581 25.7942 11.0918 24.6597 9.2167 22.7848C7.34162 20.9099 6.20692 18.4207 6.02149 15.7755C5.83606 13.1304 6.61237 10.5072 8.20753 8.38905C9.24678 7.01662 10.5904 5.90411 12.1325 5.13905C12.0447 5.75558 12.0004 6.37754 12 7.0003C12.0037 10.447 13.3745 13.7515 15.8117 16.1887C18.2488 18.6258 21.5533 19.9967 25 20.0003C25.624 20.0001 26.2473 19.9558 26.865 19.8678C26.0993 21.4102 24.9859 22.7538 23.6125 23.7928Z" fill="currentColor"/>
</g>
<defs>
<clipPath id="clip0_25_4380">
<rect width="32" height="32" fill="white"/>
</clipPath>
</defs>
</svg>
