<svg width="24" height="24" viewBox="0 0 24 24" fill="none" xmlns="http://www.w3.org/2000/svg">
<path d="M11.25 21.75C11.25 22.2 11.55 22.5 12 22.5C12.45 22.5 12.75 22.2 12.75 21.75C12.75 21.225 12.9 20.775 13.275 20.325C13.5 20.025 13.425 19.5 13.125 19.275C12.825 19.05 12.3 19.125 12.075 19.425C12.0447 19.464 12.0151 19.5035 11.9863 19.5435C11.8751 19.3944 11.7542 19.2542 11.625 19.125C10.95 18.375 9.975 18 9 18H3V6H9C9.6 6 10.2 6.225 10.575 6.675C11.025 7.05 11.25 7.65 11.25 8.25V10.875C11.25 11.325 11.55 11.625 12 11.625C12.45 11.625 12.75 11.325 12.75 10.875V8.25C12.75 7.65 12.975 7.05 13.425 6.675C13.8 6.225 14.4 6 15 6H21V12C21 12.45 21.3 12.75 21.75 12.75C22.2 12.75 22.5 12.45 22.5 12V6C22.5 5.625 22.35 5.25 22.05 4.95C21.75 4.65 21.375 4.5 21 4.5H15C14.025 4.5 13.05 4.875 12.375 5.625C12.2374 5.74886 12.1124 5.88283 12 6.02505C11.8876 5.88283 11.7626 5.74886 11.625 5.625C10.95 4.875 9.975 4.5 9 4.5H3C2.625 4.5 2.25 4.65 1.95 4.95C1.65 5.25 1.5 5.625 1.5 6V18C1.5 18.375 1.65 18.75 1.95 19.05C2.25 19.35 2.625 19.5 3 19.5H9C9.6 19.5 10.2 19.725 10.575 20.175C11.025 20.55 11.25 21.15 11.25 21.75Z" fill="currentColor"/>
<path d="M15.75 21C15.525 21 15.225 20.925 15.075 20.775C14.85 20.625 14.7 20.4 14.625 20.175L13.5 17.25L10.575 16.125C10.35 16.05 10.125 15.9 9.975 15.675C9.825 15.525 9.75 15.225 9.75 15C9.75 14.775 9.825 14.475 9.975 14.325C10.125 14.1 10.35 13.95 10.575 13.875L13.575 12.75L14.7 9.825C14.775 9.6 14.925 9.375 15.15 9.225C15.6 8.925 16.125 8.925 16.575 9.225C16.8 9.375 16.95 9.6 17.025 9.825L18.15 12.825L21.075 13.95C21.3 14.025 21.525 14.175 21.675 14.4C21.825 14.625 21.9 14.85 21.9 15.075C21.9 15.3 21.825 15.6 21.675 15.75C21.525 15.975 21.3 16.125 21.075 16.2L18 17.25L16.875 20.175C16.8 20.4 16.65 20.625 16.425 20.775C16.275 20.925 15.975 21 15.75 21ZM11.775 15L14.175 15.9C14.325 15.975 14.475 16.05 14.625 16.2C14.775 16.35 14.85 16.5 14.925 16.65L15.825 19.05L16.725 16.65C16.8 16.5 16.875 16.35 17.025 16.2C17.175 16.05 17.325 15.975 17.475 15.9L19.875 15L17.475 14.1C17.325 14.025 17.175 13.95 17.025 13.8C16.875 13.65 16.8 13.5 16.725 13.35L15.75 11.025L14.85 13.425C14.775 13.575 14.7 13.725 14.55 13.875C14.4 14.025 14.25 14.1 14.1 14.175L11.775 15Z" fill="currentColor"/>
<path d="M21 22.5C20.55 22.5 20.25 22.2 20.25 21.75V21H19.5C19.05 21 18.75 20.7 18.75 20.25C18.75 19.8 19.05 19.5 19.5 19.5H20.25V18.75C20.25 18.3 20.55 18 21 18C21.45 18 21.75 18.3 21.75 18.75V19.5H22.5C22.95 19.5 23.25 19.8 23.25 20.25C23.25 20.7 22.95 21 22.5 21H21.75V21.75C21.75 22.2 21.45 22.5 21 22.5Z" fill="currentColor"/>
</svg>
