<svg width="24" height="24" viewBox="0 0 24 24" fill="none" xmlns="http://www.w3.org/2000/svg">
<path d="M9.75 0C9.33579 0 9 0.335786 9 0.75C9 1.16421 9.33579 1.5 9.75 1.5H14.25C14.6642 1.5 15 1.16421 15 0.75C15 0.335786 14.6642 0 14.25 0H9.75Z" fill="currentColor"/>
<path d="M16.2428 7.75702C16.5357 8.04992 16.5357 8.52479 16.2428 8.81768L12.5303 12.5302C12.2374 12.8231 11.7626 12.8231 11.4697 12.5302C11.1768 12.2373 11.1768 11.7624 11.4697 11.4695L15.1822 7.75702C15.4751 7.46413 15.9499 7.46413 16.2428 7.75702Z" fill="currentColor"/>
<path d="M3 12C3 7.02944 7.02944 3 12 3C16.9706 3 21 7.02944 21 12C21 16.9706 16.9706 21 12 21C7.02944 21 3 16.9706 3 12ZM12 4.5C7.85786 4.5 4.5 7.85786 4.5 12C4.5 16.1421 7.85786 19.5 12 19.5C16.1421 19.5 19.5 16.1421 19.5 12C19.5 7.85786 16.1421 4.5 12 4.5Z" fill="currentColor"/>
</svg>
