<svg width="24" height="24" viewBox="0 0 24 24" fill="none" xmlns="http://www.w3.org/2000/svg">
<path d="M14.546 8.58558C14.7313 8.2151 14.5811 7.76459 14.2106 7.57935C13.8401 7.3941 13.3896 7.54427 13.2044 7.91475L12.5716 9.18022H7.875C7.46079 9.18022 7.125 9.516 7.125 9.93022C7.125 10.3444 7.46079 10.6802 7.875 10.6802H11.8216L10.6966 12.9302H7.875C7.46079 12.9302 7.125 13.266 7.125 13.6802C7.125 14.0944 7.46079 14.4302 7.875 14.4302H9.94659L9.45432 15.4147C9.26907 15.7852 9.41924 16.2357 9.78972 16.421C10.1602 16.6062 10.6107 16.4561 10.796 16.0856L11.6236 14.4302H16.125C16.5392 14.4302 16.875 14.0944 16.875 13.6802C16.875 13.266 16.5392 12.9302 16.125 12.9302H12.3737L13.4987 10.6802H16.125C16.5392 10.6802 16.875 10.3444 16.875 9.93022C16.875 9.516 16.5392 9.18022 16.125 9.18022H14.2487L14.546 8.58558Z" fill="currentColor"/>
</svg>
