<svg width="24" height="24" viewBox="0 0 24 24" fill="none" xmlns="http://www.w3.org/2000/svg">
<path d="M21.2019 8.79664C21.6941 9.28892 21.9707 9.9566 21.9707 10.6528C21.9707 11.349 21.6941 12.0167 21.2019 12.5089C20.7096 13.0012 20.0419 13.2778 19.3457 13.2778H15.7174C15.8826 13.6261 15.9707 14.0099 15.9707 14.4028C15.9707 15.099 15.6941 15.7667 15.2019 16.2589C14.9841 16.4767 14.732 16.6523 14.4583 16.7803C14.7096 17.19 14.8457 17.6644 14.8457 18.1528C14.8457 18.849 14.5691 19.5167 14.0769 20.0089C13.5846 20.5012 12.9169 20.7778 12.2207 20.7778H8.4707C7.3873 20.7778 6.3145 20.5644 5.31357 20.1498C4.31263 19.7352 3.40315 19.1275 2.63707 18.3614C1.87099 17.5953 1.2633 16.6859 0.848696 15.6849C0.434095 14.684 0.220703 13.6112 0.220703 12.5278C0.220703 10.2832 0.844738 8.58331 2.37113 7.06084C3.83718 5.59856 6.113 4.32615 9.31497 2.80574C9.91277 2.47093 10.6182 2.38269 11.2807 2.56074C11.9537 2.74159 12.5272 3.18236 12.8752 3.78608C13.2232 4.38981 13.317 5.10704 13.1362 5.77999C12.9553 6.45294 12.5146 7.02649 11.9108 7.37446L11.9108 7.37448L10.7772 8.02779H19.3457C20.0419 8.02779 20.7096 8.30435 21.2019 8.79664ZM12.2207 17.0278L12.2207 15.5278H13.3457C13.6441 15.5278 13.9302 15.4093 14.1412 15.1983C14.3522 14.9873 14.4707 14.7012 14.4707 14.4028C14.4707 14.1044 14.3522 13.8183 14.1412 13.6073C13.9302 13.3963 13.6441 13.2778 13.3457 13.2778C12.9315 13.2778 12.5957 12.942 12.5957 12.5278C12.5957 12.1136 12.9315 11.7778 13.3457 11.7778H19.3457C19.6441 11.7778 19.9302 11.6593 20.1412 11.4483C20.3522 11.2373 20.4707 10.9512 20.4707 10.6528C20.4707 10.3544 20.3522 10.0683 20.1412 9.8573C19.9302 9.64632 19.6441 9.52779 19.3457 9.52779H7.97383C7.63427 9.52779 7.33707 9.29965 7.24931 8.97163C7.16155 8.6436 7.30513 8.29753 7.59933 8.12798L11.1618 6.07487C11.1618 6.07487 11.1618 6.07486 11.1618 6.07486C11.4209 5.92554 11.61 5.67945 11.6876 5.3907C11.7652 5.10194 11.7249 4.79418 11.5756 4.53513C11.4263 4.27607 11.1802 4.08694 10.8914 4.00934C10.6027 3.93174 10.2949 3.97203 10.0358 4.12134C10.0186 4.1313 10.0009 4.14057 9.98286 4.14912C6.75727 5.67975 4.69575 6.8608 3.43043 8.12287C2.22167 9.32852 1.7207 10.6286 1.7207 12.5278C1.7207 13.4142 1.8953 14.292 2.23452 15.1109C2.57373 15.9299 3.07094 16.674 3.69773 17.3008C4.32453 17.9276 5.06864 18.4248 5.88759 18.764C6.70654 19.1032 7.58428 19.2778 8.4707 19.2778H12.2207C12.5191 19.2778 12.8052 19.1593 13.0162 18.9483C13.2272 18.7373 13.3457 18.4512 13.3457 18.1528C13.3457 17.8544 13.2272 17.5683 13.0162 17.3573C12.8052 17.1463 12.5191 17.0278 12.2207 17.0278Z" fill="currentColor"/>
</svg>
