<svg width="24" height="24" viewBox="0 0 24 24" fill="none" xmlns="http://www.w3.org/2000/svg">
<path d="M18.3817 17.2488C18.0517 17.2488 17.7217 17.1963 17.3992 17.1063C16.8667 16.9488 16.3792 16.6563 15.9892 16.2588C15.6967 15.9663 15.6967 15.4938 15.9892 15.2013C16.2817 14.9088 16.7542 14.9088 17.0467 15.2013C17.2642 15.4188 17.5342 15.5763 17.8267 15.6663C18.1192 15.7563 18.4342 15.7713 18.7342 15.7113C19.0342 15.6513 19.3192 15.5163 19.5592 15.3213C19.7992 15.1263 19.9867 14.8713 20.0992 14.5863C20.2192 14.3013 20.2642 13.9938 20.2342 13.6863C20.2042 13.3788 20.0992 13.0863 19.9267 12.8238C19.7542 12.5688 19.5217 12.3588 19.2517 12.2163C18.9817 12.0738 18.6742 11.9913 18.3667 11.9913C18.0892 11.9913 17.8342 11.8413 17.7067 11.5938C17.5792 11.3463 17.5942 11.0538 17.7442 10.8213L19.2142 8.60879H16.1167C15.7042 8.60879 15.3667 8.27129 15.3667 7.85879C15.3667 7.44629 15.7042 7.10879 16.1167 7.10879H20.6167C20.8942 7.10879 21.1492 7.25879 21.2767 7.50629C21.4042 7.75379 21.3967 8.04629 21.2392 8.27879L19.6117 10.7238C19.7317 10.7688 19.8442 10.8213 19.9567 10.8888C20.4442 11.1513 20.8642 11.5263 21.1717 11.9913C21.4792 12.4563 21.6742 12.9888 21.7267 13.5363C21.7792 14.0838 21.6967 14.6463 21.4867 15.1563C21.2692 15.6663 20.9317 16.1238 20.5042 16.4763C20.0767 16.8288 19.5667 17.0688 19.0267 17.1738C18.8092 17.2188 18.5917 17.2413 18.3667 17.2413L18.3817 17.2488Z" fill="currentColor"/>
<path d="M13.2292 17.2488H8.72922C8.44422 17.2488 8.18172 17.0838 8.05422 16.8288C7.92672 16.5738 7.95672 16.2663 8.12922 16.0413L12.2467 10.6938C12.3892 10.4763 12.4792 10.1688 12.4717 9.84629C12.4717 9.47129 12.3442 9.11129 12.1192 8.81879C11.9017 8.54129 11.5942 8.34629 11.2567 8.27879C10.9267 8.21129 10.5817 8.26379 10.2742 8.42879C9.96672 8.60129 9.72672 8.87879 9.58422 9.21629C9.42672 9.59879 8.99172 9.78629 8.60922 9.62879C8.22672 9.47129 8.03922 9.03629 8.19672 8.65379C8.46672 7.99379 8.94672 7.45379 9.55422 7.11629C10.1692 6.77879 10.8817 6.66629 11.5642 6.81629C12.2392 6.95879 12.8542 7.34129 13.2967 7.89629C13.7317 8.44379 13.9642 9.13379 13.9642 9.84629C13.9642 10.4613 13.7917 11.0538 13.4617 11.5713L10.2442 15.7563H13.2217C13.6342 15.7563 13.9717 16.0938 13.9717 16.5063C13.9717 16.9188 13.6342 17.2563 13.2217 17.2563L13.2292 17.2488Z" fill="currentColor"/>
<path d="M5.35422 17.2488C4.94172 17.2488 4.60422 16.9113 4.60422 16.4988V8.90129L3.41922 9.68879C3.07422 9.92129 2.60922 9.82379 2.37672 9.47879C2.14422 9.13379 2.24172 8.66879 2.58672 8.43629L4.94172 6.87629C5.17422 6.71879 5.46672 6.71129 5.71422 6.83879C5.96172 6.96629 6.11172 7.22129 6.11172 7.49879V16.4988C6.11172 16.9113 5.77422 17.2488 5.36172 17.2488H5.35422Z" fill="currentColor"/>
</svg>
