<svg width="24" height="24" viewBox="0 0 24 24" fill="none" xmlns="http://www.w3.org/2000/svg">
<path d="M10.9886 2.90399C11.265 2.65164 11.6257 2.51172 12 2.51172C12.3743 2.51172 12.735 2.65164 13.0114 2.90398L13.0125 2.90499L20.5107 9.71893L20.5212 9.72871C20.6694 9.86869 20.7881 10.0369 20.8703 10.2235C20.9526 10.41 20.9966 10.6111 20.9999 10.815L21 10.8271V19.499C21 19.9132 20.6642 20.249 20.25 20.249C19.8358 20.249 19.5 19.9132 19.5 19.499V10.8373C19.4997 10.8342 19.499 10.8312 19.4977 10.8284C19.4965 10.8256 19.4949 10.8231 19.4929 10.8209L12.0018 4.0134L12 4.01172L11.9982 4.0134L4.50711 10.8209C4.50512 10.8231 4.50349 10.8256 4.50229 10.8284C4.50103 10.8312 4.50026 10.8342 4.5 10.8373V19.499C4.5 19.9132 4.16421 20.249 3.75 20.249C3.33579 20.249 3 19.9132 3 19.499V10.8271L3.0001 10.815C3.0034 10.6111 3.04745 10.41 3.12966 10.2235C3.21187 10.0369 3.33057 9.86869 3.47879 9.72871L3.48935 9.71893L10.9875 2.90499L10.9886 2.90399Z" fill="currentColor"/>
<path d="M8.48261 10.4872C9.42154 10.0177 10.6662 9.74896 12 9.74896C13.3338 9.74896 14.5785 10.0177 15.5174 10.4872C16.4115 10.9342 17.25 11.6905 17.25 12.749C17.25 12.911 17.2304 13.0659 17.1939 13.2138C17.23 13.3017 17.25 13.398 17.25 13.499V17.999C17.25 19.0572 16.4114 19.8135 15.5174 20.2606C14.5785 20.7301 13.3339 20.999 12 20.999C10.6661 20.999 9.42151 20.7301 8.48259 20.2606C7.58863 19.8135 6.75 19.0572 6.75 17.999V13.499C6.75 13.398 6.76995 13.3017 6.80613 13.2137C6.76965 13.0659 6.75 12.911 6.75 12.749C6.75 11.6905 7.58854 10.9342 8.48261 10.4872ZM9.15343 11.8288C8.41882 12.1961 8.25 12.5648 8.25 12.749C8.25 12.9332 8.41882 13.3018 9.15343 13.6691C9.84318 14.014 10.8485 14.249 12 14.249C13.1515 14.249 14.1568 14.014 14.8466 13.6691C15.5812 13.3018 15.75 12.9332 15.75 12.749C15.75 12.5648 15.5812 12.1961 14.8466 11.8288C14.1568 11.4839 13.1515 11.249 12 11.249C10.8485 11.249 9.84318 11.4839 9.15343 11.8288ZM8.25 14.8865V17.999C8.25 18.1829 8.41876 18.5516 9.15349 18.919C9.84327 19.2639 10.8486 19.499 12 19.499C13.1514 19.499 14.1567 19.2639 14.8465 18.919C15.5812 18.5516 15.75 18.1829 15.75 17.999V14.8865C15.6732 14.9303 15.5955 14.9717 15.5174 15.0108C14.5785 15.4802 13.3338 15.749 12 15.749C10.6662 15.749 9.42154 15.4802 8.48261 15.0108C8.40447 14.9717 8.32676 14.9303 8.25 14.8865Z" fill="currentColor"/>
</svg>
