<svg width="24" height="24" viewBox="0 0 24 24" fill="none" xmlns="http://www.w3.org/2000/svg">
<path d="M9 7.5C9 7.08579 8.66421 6.75 8.25 6.75C7.83579 6.75 7.5 7.08579 7.5 7.5L7.5 11.25C7.5 11.6642 7.83579 12 8.25 12C8.66421 12 9 11.6642 9 11.25V7.5Z" fill="currentColor"/>
<path d="M15.75 6.75C16.1642 6.75 16.5 7.08579 16.5 7.5V11.25C16.5 11.6642 16.1642 12 15.75 12C15.3358 12 15 11.6642 15 11.25V7.5C15 7.08579 15.3358 6.75 15.75 6.75Z" fill="currentColor"/>
<path d="M13.5 15.75V17.25H10.5V15.75C10.5 14.9216 11.1716 14.25 12 14.25C12.8284 14.25 13.5 14.9216 13.5 15.75Z" fill="currentColor"/>
<path d="M4.5 3C3.67157 3 3 3.67157 3 4.5V19.5C3 20.3284 3.67157 21 4.5 21H19.5C20.3284 21 21 20.3284 21 19.5V4.5C21 3.67157 20.3284 3 19.5 3H4.5ZM4.5 4.5H19.5V19.5H4.5V4.5Z" fill="currentColor"/>
</svg>
