<svg width="24" height="24" viewBox="0 0 24 24" fill="none" xmlns="http://www.w3.org/2000/svg">
<path d="M3.75 3.75C3.75 2.92157 4.42157 2.25 5.25 2.25H18C18.4142 2.25 18.75 2.58579 18.75 3C18.75 3.41421 18.4142 3.75 18 3.75L5.25 3.75V16.5C5.25 16.9142 4.91421 17.25 4.5 17.25C4.08579 17.25 3.75 16.9142 3.75 16.5V3.75Z" fill="currentColor"/>
<path d="M11.25 15C11.25 14.5858 10.9142 14.25 10.5 14.25C10.0858 14.25 9.75 14.5858 9.75 15V18C9.75 18.4142 10.0858 18.75 10.5 18.75C10.9142 18.75 11.25 18.4142 11.25 18V15Z" fill="currentColor"/>
<path d="M13.5 11.25C13.9142 11.25 14.25 11.5858 14.25 12V18C14.25 18.4142 13.9142 18.75 13.5 18.75C13.0858 18.75 12.75 18.4142 12.75 18V12C12.75 11.5858 13.0858 11.25 13.5 11.25Z" fill="currentColor"/>
<path d="M17.25 9C17.25 8.58579 16.9142 8.25 16.5 8.25C16.0858 8.25 15.75 8.58579 15.75 9V18C15.75 18.4142 16.0858 18.75 16.5 18.75C16.9142 18.75 17.25 18.4142 17.25 18V9Z" fill="currentColor"/>
<path d="M6.75 6.75C6.75 5.92157 7.42157 5.25 8.25 5.25H18.75C19.5784 5.25 20.25 5.92157 20.25 6.75V20.25C20.25 21.0784 19.5784 21.75 18.75 21.75H8.25C7.42157 21.75 6.75 21.0784 6.75 20.25V6.75ZM18.75 6.75H8.25V20.25H18.75V6.75Z" fill="currentColor"/>
</svg>
