<svg width="24" height="24" viewBox="0 0 24 24" fill="none" xmlns="http://www.w3.org/2000/svg">
<path d="M12 15C10.35 15 9 13.65 9 12C9 10.35 10.35 9 12 9C13.65 9 15 10.35 15 12C15 13.65 13.65 15 12 15ZM12 10.5C11.175 10.5 10.5 11.175 10.5 12C10.5 12.825 11.175 13.5 12 13.5C12.825 13.5 13.5 12.825 13.5 12C13.5 11.175 12.825 10.5 12 10.5Z" fill="currentColor"/>
<path d="M10.2001 18.825H10.4251C10.513 18.825 10.6009 18.7993 10.6737 18.7779C10.7251 18.7629 10.7691 18.75 10.8001 18.75L11.9251 17.925H12.0751L13.2001 18.75C13.4251 18.9 13.6501 18.975 13.8751 18.9C14.4751 18.75 15.0001 18.525 15.5251 18.225C15.7501 18.15 15.9001 17.925 15.9001 17.7L16.1251 16.275L16.2001 16.2L17.6251 15.975C17.8501 15.9 18.0001 15.825 18.1501 15.6C18.4501 15.075 18.6751 14.55 18.8251 13.95C18.8251 13.725 18.8251 13.425 18.6751 13.275L17.8501 12.15V12L18.6001 10.875C18.7501 10.65 18.8251 10.425 18.7501 10.2C18.6001 9.6 18.3751 9.075 18.0751 8.55C18.0001 8.325 17.7751 8.175 17.5501 8.175L16.2001 7.95L16.1251 7.875L15.9001 6.525C15.8251 6.3 15.7501 6.15 15.5251 6C15.0001 5.7 14.4751 5.4 13.8751 5.25C13.6501 5.25 13.4251 5.25 13.2751 5.4L12.1501 6.225H12.0001L10.8001 5.475C10.5751 5.325 10.3501 5.25 10.1251 5.325C9.52513 5.475 9.00013 5.7 8.47513 6C8.25013 6.075 8.10013 6.3 8.10013 6.525L7.87513 7.875L7.80013 7.95L6.45013 8.175C6.22513 8.25 6.07513 8.325 5.92513 8.55C5.62513 9.075 5.40013 9.6 5.25013 10.2C5.25013 10.425 5.25013 10.65 5.40013 10.8L6.22513 11.925V12.075L5.40013 13.2C5.25013 13.425 5.17513 13.65 5.25013 13.875C5.40013 14.475 5.70013 15 6.00013 15.525C6.07513 15.75 6.30013 15.9 6.52513 15.9L7.87513 16.125L7.95013 16.2L8.17513 17.625C8.25013 17.85 8.32513 18 8.55013 18.15C9.07513 18.45 9.60013 18.675 10.2001 18.825ZM9.93763 17.1C9.82513 17.0438 9.71263 16.9875 9.60013 16.95L9.45013 15.75C9.45013 15.6 9.37513 15.45 9.22513 15.3L8.85013 14.925C8.70013 14.775 8.55013 14.7 8.40013 14.7L7.12513 14.55C6.97513 14.325 6.90013 14.1 6.82513 13.875L7.57513 12.825C7.65013 12.75 7.72513 12.525 7.72513 12.375V11.85C7.72513 11.625 7.65013 11.475 7.57513 11.325L6.82513 10.275C6.86263 10.1625 6.91888 10.05 6.97513 9.9375C7.03138 9.825 7.08763 9.7125 7.12513 9.6L8.40013 9.45C8.55013 9.45 8.70013 9.375 8.85013 9.225L9.22513 8.85C9.37513 8.7 9.45013 8.55 9.45013 8.4L9.60013 7.125C9.82513 6.975 10.0501 6.9 10.2751 6.825L11.3251 7.575C11.4751 7.725 11.7001 7.725 11.8501 7.725H12.3001C12.5251 7.725 12.6751 7.65 12.8251 7.575L13.8751 6.825C13.9876 6.8625 14.1001 6.91875 14.2126 6.975C14.3251 7.03125 14.4376 7.0875 14.5501 7.125L14.7001 8.4C14.7001 8.55 14.7751 8.7 14.9251 8.85C15.022 8.89843 15.0876 8.97814 15.1623 9.06892C15.2033 9.11872 15.247 9.17186 15.3001 9.225C15.4501 9.375 15.6001 9.45 15.7501 9.45L17.0251 9.525C17.1751 9.75 17.2501 9.97499 17.3251 10.2L16.5751 11.25C16.5001 11.325 16.4251 11.55 16.4251 11.7V12.225C16.4251 12.45 16.5001 12.6 16.5751 12.75L17.3251 13.8C17.2876 13.9125 17.2314 14.025 17.1751 14.1375C17.1189 14.25 17.0626 14.3625 17.0251 14.475L15.7501 14.625C15.6001 14.625 15.4501 14.7 15.3001 14.85L14.9251 15.225C14.7751 15.375 14.7001 15.525 14.7001 15.675L14.5501 16.95C14.3251 17.1 14.1001 17.175 13.8751 17.25L12.8251 16.5C12.6751 16.35 12.4501 16.35 12.3001 16.35H11.8501C11.6251 16.35 11.4751 16.425 11.3251 16.5L10.2751 17.25C10.1626 17.2125 10.0501 17.1562 9.93763 17.1Z" fill="currentColor"/>
<path d="M4.5 21C3.675 21 3 20.325 3 19.5V4.5C3 3.675 3.675 3 4.5 3H19.5C20.325 3 21 3.675 21 4.5V19.5C21 20.325 20.325 21 19.5 21H4.5ZM4.5 4.5V19.5H19.5V4.5H4.5Z" fill="currentColor"/>
</svg>
