<svg width="24" height="24" viewBox="0 0 24 24" fill="none" xmlns="http://www.w3.org/2000/svg">
<path d="M3 3.75C3 2.92157 3.67157 2.25 4.5 2.25H17.25C17.6642 2.25 18 2.58579 18 3C18 3.41421 17.6642 3.75 17.25 3.75L4.5 3.75V16.5C4.5 16.9142 4.16421 17.25 3.75 17.25C3.33579 17.25 3 16.9142 3 16.5V3.75Z" fill="currentColor"/>
<path d="M10.5 15C10.5 14.5858 10.1642 14.25 9.75 14.25C9.33579 14.25 9 14.5858 9 15V18C9 18.4142 9.33579 18.75 9.75 18.75C10.1642 18.75 10.5 18.4142 10.5 18V15Z" fill="currentColor"/>
<path d="M13.5 11.25C13.9142 11.25 14.25 11.5858 14.25 12V18C14.25 18.4142 13.9142 18.75 13.5 18.75C13.0858 18.75 12.75 18.4142 12.75 18V12C12.75 11.5858 13.0858 11.25 13.5 11.25Z" fill="currentColor"/>
<path d="M18 9C18 8.58579 17.6642 8.25 17.25 8.25C16.8358 8.25 16.5 8.58579 16.5 9V18C16.5 18.4142 16.8358 18.75 17.25 18.75C17.6642 18.75 18 18.4142 18 18V9Z" fill="currentColor"/>
<path d="M6 6.75C6 5.92157 6.67157 5.25 7.5 5.25H19.5C20.3284 5.25 21 5.92157 21 6.75V20.25C21 21.0784 20.3284 21.75 19.5 21.75H7.5C6.67157 21.75 6 21.0784 6 20.25V6.75ZM19.5 6.75H7.5V20.25H19.5V6.75Z" fill="currentColor"/>
</svg>
