<svg width="32" height="32" viewBox="0 0 32 32" fill="none" xmlns="http://www.w3.org/2000/svg">
<path d="M5 5C5 3.89543 5.89543 3 7 3H24C24.5523 3 25 3.44772 25 4C25 4.55228 24.5523 5 24 5L7 5V22C7 22.5523 6.55228 23 6 23C5.44772 23 5 22.5523 5 22V5Z" fill="currentColor"/>
<path d="M15 20C15 19.4477 14.5523 19 14 19C13.4477 19 13 19.4477 13 20V24C13 24.5523 13.4477 25 14 25C14.5523 25 15 24.5523 15 24V20Z" fill="currentColor"/>
<path d="M18 15C18.5523 15 19 15.4477 19 16V24C19 24.5523 18.5523 25 18 25C17.4477 25 17 24.5523 17 24V16C17 15.4477 17.4477 15 18 15Z" fill="currentColor"/>
<path d="M23 12C23 11.4477 22.5523 11 22 11C21.4477 11 21 11.4477 21 12V24C21 24.5523 21.4477 25 22 25C22.5523 25 23 24.5523 23 24V12Z" fill="currentColor"/>
<path fill-rule="evenodd" clip-rule="evenodd" d="M9 9C9 7.89543 9.89543 7 11 7H25C26.1046 7 27 7.89543 27 9V27C27 28.1046 26.1046 29 25 29H11C9.89543 29 9 28.1046 9 27V9ZM25 9H11V27H25V9Z" fill="currentColor"/>
</svg>
