<svg width="24" height="24" viewBox="0 0 24 24" fill="none" xmlns="http://www.w3.org/2000/svg">
<path d="M5.25 2.25C4.42157 2.25 3.75 2.92157 3.75 3.75V16.5C3.75 16.9142 4.08579 17.25 4.5 17.25C4.91421 17.25 5.25 16.9142 5.25 16.5V3.75L18 3.75C18.4142 3.75 18.75 3.41421 18.75 3C18.75 2.58579 18.4142 2.25 18 2.25H5.25Z" fill="currentColor"/>
<path d="M8.25 5.25C7.42157 5.25 6.75 5.92157 6.75 6.75V20.25C6.75 21.0784 7.42157 21.75 8.25 21.75H18.75C19.5784 21.75 20.25 21.0784 20.25 20.25V6.75C20.25 5.92157 19.5784 5.25 18.75 5.25H8.25ZM8.25 6.75H18.75V20.25H8.25V6.75Z" fill="currentColor"/>
</svg>
