<svg width="24" height="24" viewBox="0 0 24 24" fill="none" xmlns="http://www.w3.org/2000/svg">
<path d="M16.4434 6.80781C16.8576 6.80781 17.1934 7.1436 17.1934 7.55781V18.0578C17.1934 19.4502 16.6402 20.7856 15.6557 21.7701C14.6711 22.7547 13.3357 23.3078 11.9434 23.3078C10.551 23.3078 9.21561 22.7547 8.23105 21.7701C7.24648 20.7856 6.69336 19.4502 6.69336 18.0578L6.69336 4.37031C6.69336 2.3267 8.38687 0.695313 10.4434 0.695313C12.4998 0.695313 14.1934 2.3267 14.1934 4.37031V17.8703C14.1934 18.4671 13.9563 19.0393 13.5343 19.4613C13.1124 19.8833 12.5401 20.1203 11.9434 20.1203C11.3466 20.1203 10.7743 19.8833 10.3524 19.4613C9.93041 19.0393 9.69336 18.4671 9.69336 17.8703V7.37031C9.69336 6.9561 10.0291 6.62031 10.4434 6.62031C10.8576 6.62031 11.1934 6.9561 11.1934 7.37031V17.8703C11.1934 18.0692 11.2724 18.26 11.413 18.4006C11.5537 18.5413 11.7444 18.6203 11.9434 18.6203C12.1423 18.6203 12.333 18.5413 12.4737 18.4006C12.6143 18.26 12.6934 18.0692 12.6934 17.8703V4.37031C12.6934 3.18892 11.7056 2.19531 10.4434 2.19531C9.1811 2.19531 8.19336 3.18892 8.19336 4.37031L8.19336 18.0578C8.19336 19.0524 8.58845 20.0062 9.29171 20.7095C9.99497 21.4127 10.9488 21.8078 11.9434 21.8078C12.9379 21.8078 13.8917 21.4127 14.595 20.7095C15.2983 20.0062 15.6934 19.0524 15.6934 18.0578L15.6934 7.55781C15.6934 7.1436 16.0291 6.80781 16.4434 6.80781Z" fill="currentColor"/>
</svg>
