<svg width="24" height="24" viewBox="0 0 24 24" fill="none" xmlns="http://www.w3.org/2000/svg">
<path d="M15.9697 3.96967C16.2626 3.67678 16.7374 3.67678 17.0303 3.96967L20.0303 6.96967C20.3232 7.26256 20.3232 7.73744 20.0303 8.03033L17.0303 11.0303C16.7374 11.3232 16.2626 11.3232 15.9697 11.0303C15.6768 10.7374 15.6768 10.2626 15.9697 9.96967L17.6893 8.25H4.46591C4.07052 8.25 3.75 7.91421 3.75 7.5C3.75 7.08579 4.07052 6.75 4.46591 6.75H17.6893L15.9697 5.03033C15.6768 4.73744 15.6768 4.26256 15.9697 3.96967Z" fill="currentColor"/>
<path d="M9.96967 12.9697C10.2626 12.6768 10.7374 12.6768 11.0303 12.9697L14.0303 15.9697C14.3232 16.2626 14.3232 16.7374 14.0303 17.0303L11.0303 20.0303C10.7374 20.3232 10.2626 20.3232 9.96967 20.0303C9.67678 19.7374 9.67678 19.2626 9.96967 18.9697L11.6893 17.25H4.44643C4.0618 17.25 3.75 16.9142 3.75 16.5C3.75 16.0858 4.0618 15.75 4.44643 15.75H11.6893L9.96967 14.0303C9.67678 13.7374 9.67678 13.2626 9.96967 12.9697Z" fill="currentColor"/>
</svg>
