<svg width="24" height="24" viewBox="0 0 24 24" fill="none" xmlns="http://www.w3.org/2000/svg">
<path d="M3.75 4.5C3.75 3.67157 4.42157 3 5.25 3H8.625C9.45343 3 10.125 3.67157 10.125 4.5V19.5C10.125 20.3284 9.45343 21 8.625 21H5.25C4.42157 21 3.75 20.3284 3.75 19.5V4.5ZM8.625 4.5H5.25V19.5H8.625V4.5ZM13.875 4.5C13.875 3.67157 14.5466 3 15.375 3H18.75C19.5784 3 20.25 3.67157 20.25 4.5V19.5C20.25 20.3284 19.5784 21 18.75 21H15.375C14.5466 21 13.875 20.3284 13.875 19.5V4.5ZM18.75 4.5H15.375V19.5H18.75V4.5Z" fill="currentColor"/>
</svg>
