<svg width="24" height="24" viewBox="0 0 24 24" fill="none" xmlns="http://www.w3.org/2000/svg">
<path d="M4.5 20.9984H8.7C8.82386 20.9984 8.925 20.9757 9.01592 20.9553C9.09015 20.9386 9.15758 20.9234 9.225 20.9234C9.45 20.8484 9.6 20.7734 9.75 20.6234L21 9.37344C21.1211 9.31288 21.1933 9.15454 21.2561 9.01684C21.2711 8.984 21.2856 8.95233 21.3 8.92344C21.3157 8.87648 21.3313 8.83278 21.3463 8.79099C21.403 8.63256 21.45 8.50148 21.45 8.32344C21.45 8.09844 21.375 7.87344 21.3 7.72344C21.225 7.49844 21.15 7.34844 21 7.19844L16.8 2.99844C16.65 2.84844 16.5 2.77344 16.2 2.69844C15.9 2.54844 15.45 2.54844 15.075 2.69844C14.925 2.77344 14.775 2.84844 14.625 2.99844L3.375 14.2484C3.25389 14.309 3.18167 14.4673 3.11887 14.605C3.10389 14.6379 3.08944 14.6695 3.075 14.6984C3 14.9234 3 15.0734 3 15.2984V19.4984C3 19.8734 3.15 20.2484 3.45 20.5484C3.75 20.8484 4.125 20.9984 4.5 20.9984ZM13.805 5.99345L15.75 4.04844L19.95 8.24844L18.005 10.1934L13.805 5.99345ZM12.7443 7.0541L16.9443 11.2541L8.7 19.4984H4.5V15.2984L12.7443 7.0541Z" fill="currentColor"/>
</svg>
