<svg width="24" height="24" viewBox="0 0 24 24" fill="none" xmlns="http://www.w3.org/2000/svg">
<path d="M2.625 10.125C2.625 12.0767 3.65228 13.817 5.18906 14.8279C4.82431 14.9608 4.46851 15.1182 4.12496 15.3C2.84996 15.9 1.72496 16.875 0.899957 18.075C0.599957 18.45 0.674957 18.9 1.04996 19.125C1.19996 19.2 1.34996 19.275 1.49996 19.275C1.72495 19.275 1.94995 19.125 2.17494 18.975C2.84994 18 3.82496 17.175 4.87496 16.65C6.97496 15.525 9.67496 15.525 11.775 16.65C12.825 17.175 13.8 18 14.475 18.975C14.7 19.275 15.15 19.35 15.525 19.125C15.825 18.9 15.9 18.45 15.675 18.075C14.85 16.95 13.725 15.975 12.45 15.3C12.0912 15.1101 11.7191 14.9469 11.3374 14.8104C12.8595 13.797 13.875 12.0655 13.875 10.125C13.875 7.05 11.325 4.5 8.25 4.5C5.175 4.5 2.625 7.05 2.625 10.125ZM4.125 10.125C4.125 7.875 6 6 8.25 6C10.5 6 12.375 7.875 12.375 10.125C12.375 12.375 10.5 14.25 8.25 14.25C6 14.25 4.125 12.375 4.125 10.125Z" fill="currentColor"/>
<path d="M15.1508 15.0383C15.1503 15.0257 15.1501 15.0129 15.1501 15C15.1501 14.55 15.4501 14.25 15.9001 14.25C17.0251 14.25 18.0751 13.8 18.8251 13.05C19.5751 12.3 20.0251 11.25 20.0251 10.125C20.0251 9 19.5751 7.95 18.8251 7.2C18.0751 6.45 17.0251 6 15.9001 6C15.5251 6 15.1501 6.075 14.7751 6.15C14.4001 6.225 13.9501 6 13.8751 5.625C13.8001 5.25 14.0251 4.8 14.4001 4.725C14.9251 4.575 15.3751 4.5 15.9001 4.5C17.4001 4.5 18.8251 5.1 19.8751 6.15C20.9251 7.2 21.5251 8.625 21.5251 10.125C21.5251 11.625 20.9251 13.05 19.8751 14.1C19.5881 14.387 19.2731 14.6404 18.9361 14.8571C19.3085 14.9854 19.6726 15.1341 20.0251 15.3001C21.3001 15.9751 22.4251 16.9501 23.2501 18.1501C23.4751 18.5251 23.4001 18.9751 23.1001 19.2001C23.0251 19.2001 22.9501 19.2188 22.8751 19.2376C22.8001 19.2563 22.7251 19.2751 22.6501 19.2751C22.4251 19.2751 22.2001 19.2001 22.0501 18.9751C21.3751 18.0001 20.4001 17.1751 19.3501 16.6501C18.3001 16.1251 17.1001 15.8251 15.9001 15.8251C15.4501 15.8251 15.1501 15.5251 15.1501 15.0751C15.1501 15.0627 15.1504 15.0504 15.1508 15.0383Z" fill="currentColor"/>
</svg>
