<svg width="24" height="24" viewBox="0 0 24 24" fill="none" xmlns="http://www.w3.org/2000/svg">
<path d="M1.87509 10.875C1.87509 12.4786 2.64939 13.9014 3.84453 14.7899C3.56496 14.8976 3.29088 15.021 3.02365 15.1598C1.87254 15.7578 0.88225 16.6241 0.136427 17.6854C-0.101729 18.0243 -0.0200585 18.4921 0.318844 18.7302C0.657745 18.9684 1.12554 18.8867 1.3637 18.5478C1.97112 17.6834 2.77765 16.9779 3.71515 16.4909C4.63918 16.0109 5.6637 15.757 6.70451 15.7498L6.75009 15.75L6.79565 15.7498C7.83645 15.757 8.86096 16.0109 9.78498 16.4909C10.7225 16.9779 11.529 17.6834 12.1364 18.5478C12.3746 18.8867 12.8424 18.9684 13.1813 18.7302C13.5202 18.4921 13.6019 18.0243 13.3637 17.6854C12.6179 16.6241 11.6276 15.7578 10.4765 15.1598C10.2093 15.021 9.93519 14.8976 9.65564 14.7899C10.8508 13.9014 11.6251 12.4786 11.6251 10.875C11.6251 8.18261 9.44248 6 6.75009 6C4.0577 6 1.87509 8.18261 1.87509 10.875ZM6.75009 7.5C8.61405 7.5 10.1251 9.01104 10.1251 10.875C10.1251 12.7249 8.63673 14.2272 6.79215 14.2497L6.75006 14.2496L6.70802 14.2497C4.86345 14.2272 3.37509 12.7249 3.37509 10.875C3.37509 9.01104 4.88613 7.5 6.75009 7.5Z" fill="currentColor"/>
<path d="M11.9673 6.75539C12.1159 6.36876 12.5498 6.17581 12.9365 6.32444C13.5674 6.56698 14.1472 6.94044 14.6344 7.42769C15.5487 8.34193 16.0623 9.5819 16.0623 10.8748C16.0623 12.1678 15.5487 13.4077 14.6344 14.322C14.3416 14.6149 13.8667 14.6149 13.5738 14.322C13.2809 14.0291 13.2809 13.5542 13.5738 13.2613C14.2067 12.6284 14.5623 11.7699 14.5623 10.8748C14.5623 9.97973 14.2067 9.12128 13.5738 8.48835C13.2365 8.15102 12.8351 7.89249 12.3982 7.72455C12.0116 7.57593 11.8187 7.14202 11.9673 6.75539Z" fill="currentColor"/>
<path d="M18.7501 12C18.3359 12 18.0001 12.3358 18.0001 12.75C18.0001 13.1642 18.3359 13.5 18.7501 13.5H23.2501C23.6643 13.5 24.0001 13.1642 24.0001 12.75C24.0001 12.3358 23.6643 12 23.2501 12H18.7501Z" fill="currentColor"/>
<path d="M15.1173 15.1589C14.7497 14.968 14.2969 15.1112 14.106 15.4788C13.915 15.8464 14.0582 16.2991 14.4258 16.4901C15.3633 16.977 16.1696 17.6827 16.7766 18.5474C17.0145 18.8864 17.4823 18.9683 17.8213 18.7304C18.1604 18.4924 18.2423 18.0246 18.0043 17.6856C17.2589 16.6237 16.2686 15.757 15.1173 15.1589Z" fill="currentColor"/>
</svg>
