<svg width="24" height="24" viewBox="0 0 24 24" fill="none" xmlns="http://www.w3.org/2000/svg">
<path d="M11.625 10.875C11.625 12.4786 10.8507 13.9014 9.65558 14.7899C9.93515 14.8976 10.2092 15.021 10.4765 15.1598C11.6276 15.7578 12.6179 16.6241 13.3637 17.6854C13.6019 18.0243 13.5202 18.4921 13.1813 18.7302C12.8424 18.9684 12.3746 18.8867 12.1364 18.5478C11.529 17.6834 10.7225 16.9779 9.78498 16.4909C8.86094 16.0109 7.83642 15.757 6.79559 15.7498L6.75 15.75L6.70446 15.7498C5.66366 15.757 4.63916 16.0109 3.71515 16.4909C2.77765 16.9779 1.97112 17.6834 1.3637 18.5478C1.12554 18.8867 0.657745 18.9684 0.318844 18.7302C-0.0200585 18.4921 -0.101729 18.0243 0.136427 17.6854C0.88225 16.6241 1.87254 15.7578 3.02365 15.1598C3.29086 15.021 3.56492 14.8976 3.84447 14.7899C2.64932 13.9014 1.875 12.4786 1.875 10.875C1.875 8.18261 4.05761 6 6.75 6C9.44239 6 11.625 8.18261 11.625 10.875ZM3.375 10.875C3.375 12.7249 4.86337 14.2272 6.70795 14.2497L6.75006 14.2496L6.79208 14.2497C8.63665 14.2272 10.125 12.7249 10.125 10.875C10.125 9.01104 8.61396 7.5 6.75 7.5C4.88604 7.5 3.375 9.01104 3.375 10.875Z" fill="currentColor"/>
<path d="M12.9365 6.32462C12.5499 6.176 12.116 6.36894 11.9674 6.75557C11.8188 7.1422 12.0117 7.57611 12.3983 7.72474C12.8352 7.89268 13.2366 8.15121 13.5739 8.48853C14.2068 9.12147 14.5624 9.97991 14.5624 10.875C14.5624 11.7701 14.2068 12.6286 13.5739 13.2615C13.281 13.5544 13.281 14.0293 13.5739 14.3222C13.8668 14.6151 14.3416 14.6151 14.6345 14.3222C15.5488 13.4079 16.0624 12.1679 16.0624 10.875C16.0624 9.58208 15.5488 8.34211 14.6345 7.42787C14.1473 6.94062 13.5675 6.56716 12.9365 6.32462Z" fill="currentColor"/>
<path d="M18 12.75C18 12.3358 18.3358 12 18.75 12H20.25V10.5C20.25 10.0858 20.5858 9.75 21 9.75C21.4142 9.75 21.75 10.0858 21.75 10.5V12H23.25C23.6642 12 24 12.3358 24 12.75C24 13.1642 23.6642 13.5 23.25 13.5H21.75V15C21.75 15.4142 21.4142 15.75 21 15.75C20.5858 15.75 20.25 15.4142 20.25 15V13.5H18.75C18.3358 13.5 18 13.1642 18 12.75Z" fill="currentColor"/>
<path d="M15.1174 15.1591C14.7498 14.9682 14.297 15.1114 14.1061 15.479C13.9151 15.8465 14.0583 16.2993 14.4259 16.4902C15.3634 16.9772 16.1697 17.6829 16.7767 18.5476C17.0146 18.8866 17.4824 18.9685 17.8214 18.7306C18.1605 18.4926 18.2424 18.0248 18.0044 17.6858C17.259 16.6239 16.2687 15.7572 15.1174 15.1591Z" fill="currentColor"/>
</svg>
