<svg width="24" height="24" viewBox="0 0 24 24" fill="none" xmlns="http://www.w3.org/2000/svg">
<path d="M17.7803 7.28033C18.0732 6.98744 18.0732 6.51256 17.7803 6.21967C17.4874 5.92678 17.0126 5.92678 16.7197 6.21967L6.21967 16.7197C5.92678 17.0126 5.92678 17.4874 6.21967 17.7803C6.51256 18.0732 6.98744 18.0732 7.28033 17.7803L17.7803 7.28033Z" fill="currentColor"/>
<path d="M6 8.625C6 7.17525 7.17525 6 8.625 6C10.0747 6 11.25 7.17525 11.25 8.625C11.25 10.0747 10.0747 11.25 8.625 11.25C7.17525 11.25 6 10.0747 6 8.625ZM8.625 7.5C8.00368 7.5 7.5 8.00368 7.5 8.625C7.5 9.24632 8.00368 9.75 8.625 9.75C9.24632 9.75 9.75 9.24632 9.75 8.625C9.75 8.00368 9.24632 7.5 8.625 7.5Z" fill="currentColor"/>
<path d="M15.375 12.75C13.9253 12.75 12.75 13.9253 12.75 15.375C12.75 16.8247 13.9253 18 15.375 18C16.8247 18 18 16.8247 18 15.375C18 13.9253 16.8247 12.75 15.375 12.75ZM14.25 15.375C14.25 14.7537 14.7537 14.25 15.375 14.25C15.9963 14.25 16.5 14.7537 16.5 15.375C16.5 15.9963 15.9963 16.5 15.375 16.5C14.7537 16.5 14.25 15.9963 14.25 15.375Z" fill="currentColor"/>
<path d="M4.5 3C3.67157 3 3 3.67157 3 4.5V19.5C3 20.3284 3.67157 21 4.5 21H19.5C20.3284 21 21 20.3284 21 19.5V4.5C21 3.67157 20.3284 3 19.5 3H4.5ZM4.5 4.5H19.5V19.5H4.5V4.5Z" fill="currentColor"/>
</svg>
