<svg width="24" height="24" viewBox="0 0 24 24" fill="none" xmlns="http://www.w3.org/2000/svg">
<path d="M12.0001 3.75C14.8996 3.75 17.2501 6.1005 17.2501 9C17.2501 11.8735 14.9416 14.2078 12.0781 14.2494C12.0521 14.2493 12.0261 14.2492 12.0001 14.2492C11.9741 14.2492 11.9482 14.2493 11.9222 14.2494C9.05862 14.2078 6.75012 11.8735 6.75012 9C6.75012 6.1005 9.10063 3.75 12.0001 3.75ZM15.4629 14.7953C17.432 13.6163 18.7501 11.4621 18.7501 9C18.7501 5.27208 15.728 2.25 12.0001 2.25C8.2722 2.25 5.25013 5.27208 5.25013 9C5.25013 11.4621 6.56829 13.6163 8.53739 14.7953C7.78776 15.0378 7.06263 15.3594 6.37468 15.7566C4.66435 16.7442 3.24415 18.1646 2.25682 19.8751C2.04975 20.2338 2.1727 20.6925 2.53144 20.8996C2.89017 21.1066 3.34886 20.9837 3.55593 20.6249C4.41161 19.1425 5.64246 17.9115 7.12474 17.0556C8.58328 16.2135 10.2347 15.7637 11.9179 15.7495C11.9453 15.7498 11.9727 15.75 12.0001 15.75C12.0276 15.75 12.055 15.7498 12.0823 15.7495C13.7656 15.7637 15.417 16.2135 16.8755 17.0556C18.3578 17.9115 19.5886 19.1425 20.4443 20.6249C20.6514 20.9837 21.1101 21.1066 21.4688 20.8996C21.8276 20.6925 21.9505 20.2338 21.7434 19.8751C20.7561 18.1646 19.3359 16.7442 17.6256 15.7566C16.9376 15.3594 16.2125 15.0378 15.4629 14.7953Z" fill="currentColor"/>
</svg>
