<svg width="24" height="24" viewBox="0 0 24 24" fill="none" xmlns="http://www.w3.org/2000/svg">
<path d="M2.25 5.25C2.25 4.42157 2.92157 3.75 3.75 3.75H20.25C21.0784 3.75 21.75 4.42157 21.75 5.25V18.75C21.75 19.5784 21.0784 20.25 20.25 20.25H3.75C2.92157 20.25 2.25 19.5784 2.25 18.75V5.25ZM20.25 5.25H3.75V18.75H20.25V5.25ZM8.63437 9.75C9.4628 9.75 10.1344 10.4216 10.1344 11.25C10.1344 12.0405 9.52296 12.6881 8.74726 12.7458C8.70969 12.7447 8.67206 12.7441 8.63437 12.7441C8.59669 12.7441 8.55906 12.7447 8.52149 12.7458C7.74579 12.6881 7.13437 12.0405 7.13437 11.25C7.13437 10.4216 7.80595 9.75 8.63437 9.75ZM10.7375 13.3894C11.2911 12.8451 11.6344 12.0876 11.6344 11.25C11.6344 9.59315 10.2912 8.25 8.63437 8.25C6.97752 8.25 5.63437 9.59315 5.63437 11.25C5.63437 12.0876 5.97768 12.8451 6.53126 13.3894C6.46448 13.4346 6.39901 13.4821 6.33498 13.5318C5.67722 14.0424 5.20809 14.7573 5.00156 15.564C4.89882 15.9652 5.14083 16.3738 5.5421 16.4766C5.94336 16.5793 6.35195 16.3373 6.45469 15.936C6.57861 15.452 6.86008 15.0231 7.25474 14.7167C7.6168 14.4357 8.05522 14.2725 8.51092 14.2475C8.55186 14.2492 8.59302 14.25 8.63437 14.25C8.67573 14.25 8.71689 14.2492 8.75783 14.2475C9.21353 14.2725 9.65195 14.4357 10.014 14.7167C10.4087 15.0231 10.6901 15.452 10.8141 15.936C10.9168 16.3373 11.3254 16.5793 11.7267 16.4766C12.1279 16.3738 12.3699 15.9652 12.2672 15.564C12.0607 14.7573 11.5915 14.0424 10.9338 13.5318C10.8697 13.4821 10.8043 13.4346 10.7375 13.3894ZM13.5 10.5C13.5 10.0858 13.8358 9.75 14.25 9.75H18C18.4142 9.75 18.75 10.0858 18.75 10.5C18.75 10.9142 18.4142 11.25 18 11.25H14.25C13.8358 11.25 13.5 10.9142 13.5 10.5ZM13.5 13.5C13.5 13.0858 13.8358 12.75 14.25 12.75H18C18.4142 12.75 18.75 13.0858 18.75 13.5C18.75 13.9142 18.4142 14.25 18 14.25H14.25C13.8358 14.25 13.5 13.9142 13.5 13.5Z" fill="currentColor"/>
</svg>
