<svg width="24" height="24" viewBox="0 0 24 24" fill="none" xmlns="http://www.w3.org/2000/svg">
<path d="M10.1258 4.5C12.8182 4.5 15.0008 6.68261 15.0008 9.375C15.0008 12.0387 12.8644 14.2035 10.2116 14.2493C10.183 14.249 10.1544 14.2489 10.1258 14.2489C10.0972 14.2489 10.0686 14.249 10.04 14.2493C7.38719 14.2035 5.2508 12.0387 5.2508 9.375C5.2508 6.68261 7.43341 4.5 10.1258 4.5ZM13.5191 14.7729C15.3105 13.6443 16.5008 11.6487 16.5008 9.375C16.5008 5.85418 13.6466 3 10.1258 3C6.60498 3 3.7508 5.85418 3.7508 9.375C3.7508 11.6487 4.94109 13.6443 6.73254 14.7729C6.26888 14.9196 5.81407 15.0965 5.37113 15.3031C3.88222 15.9974 2.56344 17.0094 1.5075 18.2679C1.24126 18.5853 1.28266 19.0583 1.59998 19.3246C1.9173 19.5908 2.39036 19.5494 2.6566 19.2321C3.57176 18.1413 4.7147 17.2643 6.00508 16.6625C7.26789 16.0736 8.64193 15.7624 10.0345 15.7494C10.0649 15.7498 10.0953 15.75 10.1258 15.75C10.1563 15.75 10.1867 15.7498 10.2171 15.7494C11.6097 15.7624 12.9837 16.0736 14.2465 16.6625C15.5369 17.2643 16.6798 18.1413 17.595 19.2321C17.8612 19.5494 18.3343 19.5908 18.6516 19.3246C18.9689 19.0583 19.0103 18.5853 18.7441 18.2679C17.6882 17.0094 16.3694 15.9974 14.8805 15.3031C14.4375 15.0965 13.9827 14.9196 13.5191 14.7729ZM21.0008 9.75C21.415 9.75 21.7508 10.0858 21.7508 10.5V12H23.2508C23.665 12 24.0008 12.3358 24.0008 12.75C24.0008 13.1642 23.665 13.5 23.2508 13.5H21.7508V15C21.7508 15.4142 21.415 15.75 21.0008 15.75C20.5866 15.75 20.2508 15.4142 20.2508 15V13.5H18.7508C18.3366 13.5 18.0008 13.1642 18.0008 12.75C18.0008 12.3358 18.3366 12 18.7508 12H20.2508V10.5C20.2508 10.0858 20.5866 9.75 21.0008 9.75Z" fill="currentColor"/>
</svg>
