<svg width="24" height="24" viewBox="0 0 24 24" fill="none" xmlns="http://www.w3.org/2000/svg">
<path d="M16.5 21C12.9 21 9.525 19.575 6.975 17.025C4.425 14.475 3 11.1 3 7.5C3 6.225 3.45 5.025 4.275 4.05C5.1 3.075 6.3 2.475 7.575 2.325C7.875 2.25 8.25 2.325 8.475 2.55C8.775 2.7 9 3 9.075 3.3L10.95 7.725C11.025 7.95 11.1 8.175 11.1 8.475C11.1 8.7 11.025 8.925 10.875 9.15L9.3 11.55C9.975 12.975 11.175 14.175 12.6 14.85L14.925 13.275C15.15 13.125 15.375 13.05 15.6 13.05C15.825 13.05 16.125 13.05 16.35 13.2L20.7 15.075C21 15.225 21.225 15.45 21.375 15.675C21.525 15.975 21.6 16.275 21.6 16.575C21.45 17.85 20.85 18.975 19.875 19.875C18.975 20.55 17.775 21 16.5 21ZM7.8 3.75C6.9 3.9 6.075 4.35 5.4 5.025C4.8 5.7 4.5 6.6 4.5 7.5C4.5 10.725 5.775 13.725 8.025 15.975C10.275 18.225 13.275 19.5 16.5 19.5C17.4 19.5 18.3 19.2 18.975 18.6C19.65 18 20.1 17.175 20.25 16.275L15.825 14.4L13.5 15.9C13.275 16.05 13.05 16.125 12.75 16.125C12.525 16.125 12.225 16.125 12 15.975C10.275 15.15 8.85 13.725 8.025 12C7.95 11.775 7.875 11.475 7.875 11.25C7.875 11.025 7.95 10.725 8.1 10.5L9.675 8.1L7.8 3.75Z" fill="currentColor"/>
</svg>
