<svg width="24" height="24" viewBox="0 0 24 24" fill="none" xmlns="http://www.w3.org/2000/svg">
<path d="M15.8708 4.5L17.8561 15.75H12H6.14394L8.12924 4.5H15.8708ZM18.7628 17.25H20.25C20.6642 17.25 21 16.9142 21 16.5C21 16.0858 20.6642 15.75 20.25 15.75H19.3792L17.3939 4.5H18C18.4142 4.5 18.75 4.16422 18.75 3.75C18.75 3.33579 18.4142 3 18 3H16.5146C16.5055 2.99984 16.4963 2.99984 16.4872 3H7.51282C7.50366 2.99984 7.49453 2.99984 7.48543 3H6C5.58579 3 5.25 3.33579 5.25 3.75C5.25 4.16422 5.58579 4.5 6 4.5H6.60606L4.62076 15.75H3.75C3.33579 15.75 3 16.0858 3 16.5C3 16.9142 3.33579 17.25 3.75 17.25H5.23719C5.24634 17.2502 5.25547 17.2502 5.26456 17.25H11.25V22.5C11.25 22.9142 11.5858 23.25 12 23.25C12.4142 23.25 12.75 22.9142 12.75 22.5V17.25H18.7354C18.7445 17.2502 18.7537 17.2502 18.7628 17.25Z" fill="currentColor"/>
</svg>
