<svg width="24" height="24" viewBox="0 0 24 24" fill="none" xmlns="http://www.w3.org/2000/svg">
<path d="M6.76971 2.43978C7.00282 2.30985 7.26636 2.24447 7.53317 2.25037C7.79941 2.25626 8.05926 2.33292 8.28606 2.47246C8.28654 2.47275 8.28702 2.47305 8.2875 2.47335L21.7717 10.7194C21.9922 10.8511 22.1749 11.0375 22.3022 11.2606C22.4305 11.4856 22.498 11.7402 22.498 11.9992C22.498 12.2582 22.4305 12.5127 22.3022 12.7377C22.1749 12.9609 21.9922 13.1473 21.7717 13.2789L8.2875 21.525C8.28694 21.5253 8.28638 21.5257 8.28582 21.526C8.05908 21.6655 7.79931 21.7421 7.53317 21.748C7.26636 21.7539 7.00282 21.6885 6.76971 21.5586C6.53661 21.4286 6.34239 21.2389 6.20708 21.0089C6.07178 20.7788 6.00029 20.5169 6 20.25V3.74835C6.00029 3.48148 6.07178 3.21952 6.20708 2.9895C6.34239 2.75947 6.53661 2.56971 6.76971 2.43978ZM20.9893 11.9992L7.5 3.75001L7.5 20.2483L7.50246 20.2468L20.9893 11.9992Z" fill="currentColor"/>
</svg>
