<svg width="24" height="24" viewBox="0 0 24 24" fill="none" xmlns="http://www.w3.org/2000/svg">
<path d="M8.25 12C8.25 11.5858 8.58579 11.25 9 11.25H11.25V9C11.25 8.58579 11.5858 8.25 12 8.25C12.4142 8.25 12.75 8.58579 12.75 9V11.25H15C15.4142 11.25 15.75 11.5858 15.75 12C15.75 12.4142 15.4142 12.75 15 12.75H12.75V15C12.75 15.4142 12.4142 15.75 12 15.75C11.5858 15.75 11.25 15.4142 11.25 15V12.75H9C8.58579 12.75 8.25 12.4142 8.25 12Z" fill="currentColor"/>
<path d="M2.68936 4.93934C2.97067 4.65804 3.3522 4.5 3.75002 4.5H20.25C20.6478 4.5 21.0294 4.65804 21.3107 4.93934C21.592 5.22065 21.75 5.60218 21.75 6V18C21.75 18.3978 21.592 18.7794 21.3107 19.0607C21.0294 19.342 20.6478 19.5 20.25 19.5H7.78732L7.68995 19.5342L4.70631 22.0372C4.48778 22.218 4.22244 22.3332 3.9411 22.3693C3.65976 22.4055 3.37394 22.3611 3.11681 22.2414C2.85967 22.1216 2.64175 21.9314 2.48834 21.6929C2.33492 21.4543 2.25229 21.1771 2.25005 20.8934L2.25 20.8875L2.25002 6C2.25002 5.60217 2.40806 5.22064 2.68936 4.93934ZM20.25 6L3.75002 6V20.8815L6.8305 18.2973C6.89966 18.2393 6.97873 18.1942 7.06391 18.1643L7.41078 18.0424C7.49067 18.0143 7.57473 18 7.6594 18H20.25V6Z" fill="currentColor"/>
</svg>
