<svg width="24" height="24" viewBox="0 0 24 24" fill="none" xmlns="http://www.w3.org/2000/svg">
<path d="M21.3231 5.17098C21.6936 4.98574 21.8438 4.53524 21.6586 4.16475C21.4733 3.79427 21.0228 3.6441 20.6523 3.82934L12.0942 8.1084L9.49559 5.91431C9.44903 5.87325 9.39818 5.83876 9.34441 5.81103C9.24362 5.75884 9.13414 5.73135 9.02443 5.72785C8.91472 5.72421 8.80368 5.74453 8.69972 5.79006C8.64426 5.81424 8.59128 5.84536 8.54215 5.8833L2.55445 10.306C2.22127 10.5521 2.15067 11.0217 2.39677 11.3548C2.64287 11.688 3.11246 11.7586 3.44565 11.5125L8.96898 7.43284L11.489 9.56054C11.599 9.65841 11.7351 9.72104 11.8787 9.74227C11.9923 9.75905 12.1105 9.74996 12.2244 9.71195C12.2634 9.69901 12.3016 9.6828 12.3384 9.66337L21.3231 5.17098Z" fill="currentColor"/>
<path d="M13.8633 11.25C13.8633 10.8358 14.1991 10.5 14.6133 10.5H19.8633C20.2775 10.5 20.6133 10.8358 20.6133 11.25V18.75H21.375C21.7892 18.75 22.125 19.0858 22.125 19.5C22.125 19.9142 21.7892 20.25 21.375 20.25H2.625C2.21079 20.25 1.875 19.9142 1.875 19.5C1.875 19.0858 2.21079 18.75 2.625 18.75H3.36328V13.5C3.36328 13.0858 3.69907 12.75 4.11328 12.75H9.36328C9.77749 12.75 10.1133 13.0858 10.1133 13.5V15.75H13.8633V11.25ZM10.1133 17.25V18.75H13.8633V17.25H10.1133ZM15.3633 18.75H19.1133V12H15.3633V18.75ZM8.61328 18.75V14.25H4.86328V18.75H8.61328Z" fill="currentColor"/>
</svg>
