<svg width="24" height="24" viewBox="0 0 24 24" fill="none" xmlns="http://www.w3.org/2000/svg">
<path d="M12.75 21.7508C11.7 21.7508 10.725 21.6008 9.675 21.2258C7.875 20.6258 6.225 19.5008 5.025 18.0008H3.75C2.925 18.0008 2.25 17.3258 2.25 16.5008V7.50078C2.25 6.67578 2.925 6.00078 3.75 6.00078H5.025C6.225 4.50078 7.8 3.37578 9.675 2.77578C11.625 2.10078 13.725 2.10078 15.75 2.77578C17.775 3.45078 19.425 4.65078 20.625 6.30078C21.825 7.95078 22.5 9.90078 22.5 12.0008V12.0758V12.1508C22.5 14.1758 21.825 16.2008 20.625 17.8508C19.425 19.5008 17.7 20.7758 15.75 21.3758C14.775 21.6008 13.725 21.7508 12.75 21.7508ZM7.05 18.0008C7.95 18.8258 9 19.4258 10.125 19.8008C10.725 20.0258 11.325 20.1008 11.925 20.1758V17.9258H7.05V18.0008ZM13.5 18.0008V20.2508C14.1 20.1758 14.7 20.1008 15.3 19.8758C16.95 19.3508 18.375 18.3008 19.425 16.8758C20.325 15.6758 20.85 14.2508 21 12.7508H15V16.5008C15 17.3258 14.325 18.0008 13.5 18.0008ZM5.475 16.5008H13.5V7.50078H5.475H3.75V16.5008H5.475ZM15 11.2508H21C20.85 9.75078 20.325 8.32578 19.425 7.12578C18.375 5.70078 16.95 4.65078 15.3 4.12578C14.7 3.97578 14.1 3.82578 13.5 3.75078V6.00078C14.325 6.00078 15 6.67578 15 7.50078V11.2508ZM7.05 6.00078H12V3.75078C11.4 3.82578 10.8 3.90078 10.2 4.12578C9 4.57578 7.95 5.17578 7.05 6.00078ZM7.35 15.0008C6.9 15.0008 6.6 14.7008 6.6 14.2508V9.75078C6.6 9.30078 6.9 9.00078 7.35 9.00078H8.85C9.45 9.00078 10.05 9.22578 10.425 9.67578C10.875 10.1258 11.1 10.6508 11.1 11.2508C11.1 11.8508 10.875 12.4508 10.425 12.8258C9.975 13.2758 9.45 13.5008 8.85 13.5008H8.1V14.2508C8.1 14.7008 7.725 15.0008 7.35 15.0008ZM8.1 12.0008H8.85C9.075 12.0008 9.225 11.9258 9.375 11.7758C9.525 11.6258 9.6 11.4758 9.6 11.2508C9.6 11.0258 9.525 10.8758 9.375 10.7258C9.225 10.5758 9 10.5008 8.85 10.5008H8.1V12.0008Z" fill="currentColor"/>
</svg>
