<svg width="24" height="24" viewBox="0 0 24 24" fill="none" xmlns="http://www.w3.org/2000/svg">
<path d="M12 3.75C12.4142 3.75 12.75 4.08579 12.75 4.5V11.625C12.75 12.0392 12.4142 12.375 12 12.375C11.5858 12.375 11.25 12.0392 11.25 11.625V4.5C11.25 4.08579 11.5858 3.75 12 3.75ZM8.12861 4.67216C8.35454 5.01933 8.25626 5.48392 7.90909 5.70986C6.554 6.59174 5.52016 7.8879 4.96167 9.40516C4.40318 10.9224 4.34994 12.5795 4.80989 14.1295C5.26983 15.6795 6.21834 17.0394 7.51403 18.0064C8.80972 18.9734 10.3832 19.4959 12 19.4959C13.6168 19.4959 15.1903 18.9734 16.486 18.0064C17.7817 17.0394 18.7302 15.6795 19.1901 14.1295C19.6501 12.5795 19.5968 10.9224 19.0383 9.40516C18.4798 7.8879 17.446 6.59174 16.0909 5.70986C15.7437 5.48392 15.6455 5.01933 15.8714 4.67216C16.0973 4.32499 16.5619 4.22671 16.9091 4.45264C18.5352 5.5109 19.7758 7.0663 20.446 8.88702C21.1162 10.7077 21.1801 12.6963 20.6281 14.5562C20.0762 16.4162 18.938 18.048 17.3832 19.2085C15.8283 20.369 13.9401 20.9959 12 20.9959C10.0599 20.9959 8.17166 20.369 6.61683 19.2085C5.06201 18.048 3.9238 16.4162 3.37187 14.5562C2.81993 12.6963 2.88382 10.7077 3.55401 8.88702C4.2242 7.0663 5.4648 5.5109 7.09091 4.45264C7.43808 4.22671 7.90267 4.32499 8.12861 4.67216Z" fill="currentColor"/>
</svg>
