<svg width="24" height="24" viewBox="0 0 24 24" fill="none" xmlns="http://www.w3.org/2000/svg">
<path d="M12 1.5C12.4142 1.5 12.75 1.83579 12.75 2.25V3.75H20.25C21.0784 3.75 21.75 4.42157 21.75 5.25V16.5C21.75 17.3284 21.0784 18 20.25 18H16.5605L18.5857 20.5315C18.8444 20.8549 18.792 21.3269 18.4685 21.5857C18.1451 21.8444 17.6731 21.792 17.4143 21.4685L14.6395 18H9.36047L6.58565 21.4685C6.32689 21.792 5.85493 21.8444 5.53148 21.5857C5.20803 21.3269 5.15559 20.8549 5.41435 20.5315L7.43953 18H3.75C2.92157 18 2.25 17.3284 2.25 16.5V5.25C2.25 4.42157 2.92157 3.75 3.75 3.75H11.25V2.25C11.25 1.83579 11.5858 1.5 12 1.5ZM3.75 5.25V16.5H8.99397C8.99831 16.5 9.00264 16.5 9.00698 16.5H14.993C14.9974 16.5 15.0017 16.5 15.006 16.5H20.25V5.25H3.75Z" fill="currentColor"/>
</svg>
