<svg width="24" height="24" viewBox="0 0 24 24" fill="none" xmlns="http://www.w3.org/2000/svg">
<path d="M6 3C5.58579 3 5.25 3.33579 5.25 3.75V6.75H4.24687C2.99872 6.75 1.875 7.70629 1.875 9V16.5C1.875 16.9142 2.21079 17.25 2.625 17.25H5.25V20.625C5.25 21.0392 5.58579 21.375 6 21.375H18C18.4142 21.375 18.75 21.0392 18.75 20.625V17.25H21.375C21.7892 17.25 22.125 16.9142 22.125 16.5V9C22.125 7.70629 21.0013 6.75 19.7531 6.75H18.75V3.75C18.75 3.33579 18.4142 3 18 3H6ZM4.24687 8.25H6H18H19.7531C20.2862 8.25 20.625 8.64371 20.625 9V15.75H18.75V14.25C18.75 13.8358 18.4142 13.5 18 13.5H6C5.58579 13.5 5.25 13.8358 5.25 14.25V15.75H3.375V9C3.375 8.64371 3.71378 8.25 4.24687 8.25ZM6.75 6.75V4.5H17.25V6.75H6.75ZM6.75 15H17.25V16.5V19.875H6.75V16.5V15ZM18.75 10.875C18.75 11.4963 18.2463 12 17.625 12C17.0037 12 16.5 11.4963 16.5 10.875C16.5 10.2537 17.0037 9.75 17.625 9.75C18.2463 9.75 18.75 10.2537 18.75 10.875Z" fill="currentColor"/>
</svg>
