<svg width="24" height="24" viewBox="0 0 24 24" fill="none" xmlns="http://www.w3.org/2000/svg">
<path d="M3.75 3.75C2.92157 3.75 2.25 4.42157 2.25 5.25V18.75C2.25 19.5784 2.92157 20.25 3.75 20.25H20.25C21.0784 20.25 21.75 19.5784 21.75 18.75V5.25C21.75 4.42157 21.0784 3.75 20.25 3.75H3.75ZM9.69218 5.25H20.25V11.5357H17.1923C16.9093 11.5357 16.6503 11.6951 16.5228 11.9477L14.4005 16.1519L10.3923 5.73077C10.284 5.44917 10.0175 5.25989 9.71596 5.25038C9.70801 5.25012 9.70009 5.25 9.69218 5.25ZM3.75 11.5357V5.25H9.69218C9.39986 5.25 9.13318 5.4202 9.01066 5.68718L6.32667 11.5357H3.75ZM3.75 13.0357H6.80769C7.10082 13.0357 7.36708 12.8649 7.48934 12.5985L9.6314 7.93089L13.6077 18.2692C13.7142 18.5461 13.9738 18.7342 14.2701 18.7491C14.2815 18.7496 14.293 18.7499 14.3044 18.75H3.75V13.0357ZM14.3113 18.75C14.5919 18.7487 14.8498 18.5905 14.9772 18.338L17.6538 13.0357H20.25V18.75H14.3113Z" fill="currentColor"/>
</svg>
