<svg width="24" height="24" viewBox="0 0 24 24" fill="none" xmlns="http://www.w3.org/2000/svg">
<path d="M9 6C9.41421 6 9.75 5.66421 9.75 5.25C9.75 4.83579 9.41421 4.5 9 4.5C8.58579 4.5 8.25 4.83579 8.25 5.25C8.25 5.66421 8.58579 6 9 6Z" fill="currentColor"/>
<path d="M15.75 18.75C15.75 19.1642 15.4142 19.5 15 19.5C14.5858 19.5 14.25 19.1642 14.25 18.75C14.25 18.3358 14.5858 18 15 18C15.4142 18 15.75 18.3358 15.75 18.75Z" fill="currentColor"/>
<path d="M9.75 2.25C7.67893 2.25 6 3.92893 6 6V6.75H5.25C3.17893 6.75 1.5 8.42893 1.5 10.5V13.5C1.5 15.5711 3.17893 17.25 5.25 17.25H6V18C6 20.0711 7.67893 21.75 9.75 21.75H14.25C16.3211 21.75 18 20.0711 18 18V17.25H18.75C20.8211 17.25 22.5 15.5711 22.5 13.5V10.5C22.5 8.42893 20.8211 6.75 18.75 6.75H18V6C18 3.92893 16.3211 2.25 14.25 2.25H9.75ZM16.5 6V9C16.5 10.2426 15.4926 11.25 14.25 11.25H9.75C7.67893 11.25 6 12.9289 6 15V15.75H5.25C4.00736 15.75 3 14.7426 3 13.5V10.5C3 9.25736 4.00736 8.25 5.25 8.25H12C12.4142 8.25 12.75 7.91421 12.75 7.5C12.75 7.08579 12.4142 6.75 12 6.75H7.5V6C7.5 4.75736 8.50736 3.75 9.75 3.75H14.25C15.4926 3.75 16.5 4.75736 16.5 6ZM18 8.25H18.75C19.9926 8.25 21 9.25736 21 10.5V13.5C21 14.7426 19.9926 15.75 18.75 15.75H12C11.5858 15.75 11.25 16.0858 11.25 16.5C11.25 16.9142 11.5858 17.25 12 17.25H16.5V18C16.5 19.2426 15.4926 20.25 14.25 20.25H9.75C8.50736 20.25 7.5 19.2426 7.5 18V15C7.5 13.7574 8.50736 12.75 9.75 12.75H14.25C16.3211 12.75 18 11.0711 18 9V8.25Z" fill="currentColor"/>
</svg>
