<svg width="24" height="24" viewBox="0 0 24 24" fill="none" xmlns="http://www.w3.org/2000/svg">
<path d="M2.68934 5.68934C2.97064 5.40804 3.35217 5.25 3.75 5.25H9.375C9.77283 5.25 10.1544 5.40804 10.4357 5.68934C10.717 5.97064 10.875 6.35217 10.875 6.75V15C10.875 16.1935 10.4009 17.3381 9.55698 18.182C8.71307 19.0259 7.56847 19.5 6.375 19.5C5.96079 19.5 5.625 19.1642 5.625 18.75C5.625 18.3358 5.96079 18 6.375 18C7.17065 18 7.93371 17.6839 8.49632 17.1213C9.05893 16.5587 9.375 15.7956 9.375 15V14.25H3.75C3.35218 14.25 2.97065 14.092 2.68934 13.8107C2.40804 13.5294 2.25 13.1478 2.25 12.75V6.75C2.25 6.35217 2.40804 5.97064 2.68934 5.68934ZM9.375 12.75V6.75L3.75 6.75L3.75 12.75H9.375ZM13.5643 5.68934C13.8456 5.40804 14.2272 5.25 14.625 5.25H20.25C20.6478 5.25 21.0294 5.40804 21.3107 5.68934C21.592 5.97065 21.75 6.35218 21.75 6.75V15C21.75 16.1935 21.2759 17.3381 20.432 18.182C19.5881 19.0259 18.4435 19.5 17.25 19.5C16.8358 19.5 16.5 19.1642 16.5 18.75C16.5 18.3358 16.8358 18 17.25 18C18.0456 18 18.8087 17.6839 19.3713 17.1213C19.9339 16.5587 20.25 15.7956 20.25 15V14.25H14.625C14.2272 14.25 13.8456 14.092 13.5643 13.8107C13.283 13.5294 13.125 13.1478 13.125 12.75V6.75C13.125 6.35218 13.283 5.97065 13.5643 5.68934ZM20.25 12.75V6.75L14.625 6.75V12.75H20.25Z" fill="currentColor"/>
</svg>
