<svg width="24" height="24" viewBox="0 0 24 24" fill="none" xmlns="http://www.w3.org/2000/svg">
<path d="M12 3.75C7.44365 3.75 3.75 7.44365 3.75 12C3.75 16.5563 7.44365 20.25 12 20.25C16.5563 20.25 20.25 16.5563 20.25 12C20.25 7.44365 16.5563 3.75 12 3.75ZM2.25 12C2.25 6.61522 6.61522 2.25 12 2.25C17.3848 2.25 21.75 6.61522 21.75 12C21.75 17.3848 17.3848 21.75 12 21.75C6.61522 21.75 2.25 17.3848 2.25 12Z" fill="currentColor"/>
<path d="M9 7.5C9 7.08579 9.33579 6.75 9.75 6.75H12.75C13.3467 6.75 13.919 6.98705 14.341 7.40901C14.6387 7.70671 14.7858 8.15008 14.8666 8.50035C14.9559 8.88759 15 9.32736 15 9.75C15 10.1726 14.9559 10.6124 14.8666 10.9997C14.7858 11.3499 14.6387 11.7933 14.341 12.091C14.1581 12.2739 13.9469 12.4221 13.7177 12.5313L14.9615 16.2628C15.0925 16.6558 14.8801 17.0805 14.4872 17.2115C14.0942 17.3425 13.6695 17.1301 13.5385 16.7372L12.2094 12.75H10.5V16.5C10.5 16.9142 10.1642 17.25 9.75 17.25C9.33579 17.25 9 16.9142 9 16.5V7.5ZM10.5 11.25H12.75C12.9489 11.25 13.1397 11.171 13.2803 11.0303C13.2766 11.034 13.2775 11.0325 13.2818 11.0244C13.2965 10.9966 13.352 10.8925 13.405 10.6625C13.465 10.4023 13.5 10.0774 13.5 9.75C13.5 9.42264 13.465 9.09773 13.405 8.83747C13.352 8.60747 13.2965 8.50338 13.2818 8.47565C13.2775 8.46754 13.2766 8.46596 13.2803 8.46967C13.1397 8.32902 12.9489 8.25 12.75 8.25H10.5V11.25Z" fill="currentColor"/>
</svg>
