<svg width="32" height="32" viewBox="0 0 32 32" fill="none" xmlns="http://www.w3.org/2000/svg">
<path fill-rule="evenodd" clip-rule="evenodd" d="M3 13C3 12.4477 3.44772 12 4 12C4.55228 12 5 12.4477 5 13V15L9 15V13C9 12.9655 9.00175 12.9314 9.00516 12.8978C9.05637 12.3935 9.48223 12 10 12H17C17.5523 12 18 12.4477 18 13V15L22 15V13C22 12.4477 22.4477 12 23 12C23.5523 12 24 12.4477 24 13V19C24 19.5523 23.5523 20 23 20C22.4477 20 22 19.5523 22 19V17H18V19C18 19.5523 17.5523 20 17 20H10C9.44772 20 9 19.5523 9 19V17H5V19C5 19.5523 4.55228 20 4 20C3.44772 20 3 19.5523 3 19V13ZM16 14L11 14V18L16 18V14Z" fill="currentColor"/>
<path d="M27.5 17C28.3284 17 29 16.3284 29 15.5C29 14.6716 28.3284 14 27.5 14C26.6716 14 26 14.6716 26 15.5C26 16.3284 26.6716 17 27.5 17Z" fill="currentColor"/>
</svg>
