<svg width="24" height="24" viewBox="0 0 24 24" fill="none" xmlns="http://www.w3.org/2000/svg">
<path d="M21.3656 7.13477C21.7798 7.13477 22.1156 7.47055 22.1156 7.88477V13.8848C22.1156 14.299 21.7798 14.6348 21.3656 14.6348H15.3656C14.9514 14.6348 14.6156 14.299 14.6156 13.8848C14.6156 13.4706 14.9514 13.1348 15.3656 13.1348H19.555L17.8353 11.4151C16.6815 10.2607 15.2111 9.47433 13.6103 9.15575C12.0096 8.83717 10.3503 9.00055 8.84245 9.62523C7.33458 10.2499 6.04588 11.3078 5.1394 12.6651C4.23292 14.0223 3.7494 15.618 3.75 17.2501C3.75015 17.6643 3.41449 18.0002 3.00028 18.0004C2.58606 18.0005 2.25015 17.6649 2.25 17.2507C2.24929 15.3218 2.82073 13.436 3.89202 11.832C4.96332 10.2279 6.48632 8.97769 8.26835 8.23944C10.0504 7.50119 12.0113 7.3081 13.9031 7.6846C15.7948 8.06109 17.5324 8.99022 18.896 10.3544C18.8959 10.3544 18.896 10.3545 18.896 10.3544L20.6156 12.0741V7.88477C20.6156 7.47055 20.9514 7.13477 21.3656 7.13477Z" fill="currentColor"/>
</svg>
