<svg width="24" height="24" viewBox="0 0 24 24" fill="none" xmlns="http://www.w3.org/2000/svg">
<path d="M15.2793 12.4428C15.9743 12.3119 16.5 11.7017 16.5 10.9688C16.5 10.1403 15.8284 9.46875 15 9.46875C14.1716 9.46875 13.5 10.1403 13.5 10.9688C13.5 11.3383 13.6337 11.6767 13.8553 11.9381L12.9388 13.7863L12.1986 12.9844C12.2522 12.8302 12.2812 12.6646 12.2812 12.4922C12.2812 11.6638 11.6097 10.9922 10.7812 10.9922C9.95282 10.9922 9.28125 11.6638 9.28125 12.4922C9.28125 12.8618 9.41491 13.2001 9.63653 13.4616L8.6354 15.4804C8.59638 15.5591 8.57245 15.6413 8.56251 15.7239C7.85308 15.8429 7.3125 16.4599 7.3125 17.2031C7.3125 18.0316 7.98407 18.7031 8.8125 18.7031C9.64093 18.7031 10.3125 18.0316 10.3125 17.2031C10.3125 16.8246 10.1723 16.4788 9.94099 16.2149C9.95476 16.1931 9.96754 16.1704 9.97925 16.1468L11.0606 13.9662L11.0631 13.9658L11.8237 14.7897C11.6399 15.0387 11.5312 15.3465 11.5312 15.6797C11.5312 16.5081 12.2028 17.1797 13.0312 17.1797C13.8597 17.1797 14.5312 16.5081 14.5312 15.6797C14.5312 15.3012 14.391 14.9554 14.1597 14.6915C14.1735 14.6697 14.1863 14.647 14.198 14.6234L15.2793 12.4428Z" fill="currentColor"/>
<path d="M5.25 5.4375V18.5625C5.25 19.8574 6.22572 20.8525 7.40738 21.4797C8.62204 22.1243 10.2476 22.5 12 22.5C13.7524 22.5 15.378 22.1243 16.5926 21.4797C17.7743 20.8525 18.75 19.8574 18.75 18.5625V5.4375C18.75 4.14395 17.7758 3.14882 16.5945 2.52126C15.3803 1.87621 13.7546 1.5 12 1.5C10.2454 1.5 8.61971 1.87621 7.40549 2.52126C6.2242 3.14882 5.25 4.14395 5.25 5.4375ZM8.10923 3.84593C9.06658 3.33734 10.4409 3 12 3C13.5591 3 14.9334 3.33734 15.8908 3.84593C16.8811 4.37202 17.25 4.97065 17.25 5.4375C17.25 5.90435 16.8811 6.50298 15.8908 7.02907C14.9334 7.53766 13.5591 7.875 12 7.875C10.4409 7.875 9.06658 7.53766 8.10923 7.02907C7.11894 6.50298 6.75 5.90435 6.75 5.4375C6.75 4.97065 7.11894 4.37202 8.10923 3.84593ZM17.25 7.94967V18.5625C17.25 19.0301 16.8804 19.6287 15.8894 20.1547C14.9314 20.6632 13.557 21 12 21C10.443 21 9.06858 20.6632 8.11059 20.1547C7.11959 19.6287 6.75 19.0301 6.75 18.5625V7.94967C6.9571 8.09773 7.17744 8.23258 7.40549 8.35374C8.61971 8.99879 10.2454 9.375 12 9.375C13.7546 9.375 15.3803 8.99879 16.5945 8.35374C16.8226 8.23258 17.0429 8.09773 17.25 7.94967Z" fill="currentColor"/>
</svg>
