<svg width="24" height="24" viewBox="0 0 24 24" fill="none" xmlns="http://www.w3.org/2000/svg">
<path d="M4.5 4.5C4.08579 4.5 3.75 4.83579 3.75 5.25V8.25C3.75 8.66421 4.08579 9 4.5 9C4.91421 9 5.25 8.66421 5.25 8.25V6H11.25V18H9C8.58579 18 8.25 18.3358 8.25 18.75C8.25 19.1642 8.58579 19.5 9 19.5H12C12.4142 19.5 12.75 19.1642 12.75 18.75V6H18.75V8.25C18.75 8.66421 19.0858 9 19.5 9C19.9142 9 20.25 8.66421 20.25 8.25V5.25C20.25 4.83579 19.9142 4.5 19.5 4.5H4.5Z" fill="currentColor"/>
<path d="M20.0303 14.4697C20.3232 14.7626 20.3232 15.2374 20.0303 15.5303L18.3107 17.25L20.0303 18.9697C20.3232 19.2626 20.3232 19.7374 20.0303 20.0303C19.7374 20.3232 19.2626 20.3232 18.9697 20.0303L17.25 18.3107L15.5303 20.0303C15.2374 20.3232 14.7626 20.3232 14.4697 20.0303C14.1768 19.7374 14.1768 19.2626 14.4697 18.9697L16.1893 17.25L14.4697 15.5303C14.1768 15.2374 14.1768 14.7626 14.4697 14.4697C14.7626 14.1768 15.2374 14.1768 15.5303 14.4697L17.25 16.1893L18.9697 14.4697C19.2626 14.1768 19.7374 14.1768 20.0303 14.4697Z" fill="currentColor"/>
</svg>
