<svg width="24" height="24" viewBox="0 0 24 24" fill="none" xmlns="http://www.w3.org/2000/svg">
<path d="M10.2455 3.17347C11.9915 2.82561 13.8015 3.00341 15.4464 3.68439C17.0914 4.36536 18.4974 5.51891 19.4867 6.99911C20.476 8.47931 21.004 10.2197 21.004 12C21.004 13.7803 20.476 15.5207 19.4867 17.0009C18.4974 18.4811 17.0914 19.6346 15.4464 20.3156C13.8015 20.9966 11.9915 21.1744 10.2455 20.8265C8.49944 20.4787 6.8958 19.6208 5.63742 18.3614C5.34465 18.0684 5.34484 17.5935 5.63786 17.3007C5.93087 17.0079 6.40574 17.0081 6.69852 17.3011C7.74717 18.3506 9.08353 19.0656 10.5386 19.3554C11.9936 19.6453 13.5019 19.4972 14.8727 18.9297C16.2435 18.3622 17.4152 17.4009 18.2396 16.1674C19.064 14.9339 19.504 13.4836 19.504 12C19.504 10.5164 19.064 9.06609 18.2396 7.83259C17.4152 6.59909 16.2435 5.6378 14.8727 5.07032C13.5019 4.50284 11.9936 4.35468 10.5386 4.64456C9.08353 4.93445 7.74717 5.64936 6.69852 6.69887L6.69751 6.69987L4.79494 8.5968H7.48047C7.89468 8.5968 8.23047 8.93259 8.23047 9.3468C8.23047 9.76101 7.89468 10.0968 7.48047 10.0968H2.98047C2.56626 10.0968 2.23047 9.76101 2.23047 9.3468V4.8468C2.23047 4.43259 2.56626 4.0968 2.98047 4.0968C3.39468 4.0968 3.73047 4.43259 3.73047 4.8468V7.53994L5.63742 5.63864C5.63759 5.63847 5.63777 5.6383 5.63794 5.63813C6.89624 4.379 8.49967 3.52129 10.2455 3.17347Z" fill="currentColor"/>
</svg>
