<svg width="24" height="24" viewBox="0 0 24 24" fill="none" xmlns="http://www.w3.org/2000/svg">
<path d="M8.25056 21.0001C8.25056 20.5859 8.58634 20.2501 9.00056 20.2501H15.0006C15.4148 20.2501 15.7506 20.5859 15.7506 21.0001C15.7506 21.4143 15.4148 21.7501 15.0006 21.7501H9.00056C8.58634 21.7501 8.25056 21.4143 8.25056 21.0001Z" fill="currentColor"/>
<path d="M12.0006 4.51885C12.786 4.51885 13.5638 4.67356 14.2895 4.97414C15.0152 5.27473 15.6745 5.7153 16.2299 6.27071C16.7853 6.82613 17.2259 7.48549 17.5265 8.21117C17.8271 8.93685 17.9818 9.71463 17.9818 10.5001C17.9818 13.9618 18.7076 16.0467 19.4042 17.2501H4.59695C5.29347 16.0467 6.01931 13.9618 6.01931 10.5001C6.01931 9.71463 6.17402 8.93685 6.4746 8.21117C6.77519 7.48549 7.21576 6.82613 7.77117 6.27071C8.32659 5.7153 8.98595 5.27473 9.71163 4.97414C10.4373 4.67356 11.2151 4.51885 12.0006 4.51885ZM19.4818 10.5001C19.4818 9.51764 19.2883 8.54481 18.9123 7.63715C18.5364 6.72948 17.9853 5.90475 17.2906 5.21005C16.5959 4.51536 15.7712 3.96429 14.8635 3.58832C13.9558 3.21236 12.983 3.01885 12.0006 3.01885C11.0181 3.01885 10.0453 3.21236 9.13761 3.58832C8.22994 3.96429 7.40521 4.51536 6.71051 5.21005C6.01582 5.90475 5.46475 6.72948 5.08878 7.63715C4.71282 8.54481 4.51931 9.51765 4.51931 10.5001C4.51931 13.7501 3.8392 15.5651 3.29836 16.4993L3.29792 16.5001C3.16648 16.7277 3.09718 16.9859 3.09695 17.2488C3.09672 17.5116 3.16556 17.7699 3.29659 17.9978C3.42762 18.2257 3.61622 18.4151 3.84352 18.5472C4.07081 18.6792 4.32881 18.7492 4.59167 18.7501L4.59431 18.7501H19.4068L19.4094 18.7501C19.6723 18.7492 19.9303 18.6792 20.1576 18.5472C20.3849 18.4151 20.5735 18.2257 20.7045 17.9978C20.8356 17.7699 20.9044 17.5116 20.9042 17.2488C20.9039 16.9859 20.8346 16.7277 20.7032 16.5001L20.7028 16.4993C20.1619 15.5651 19.4818 13.7501 19.4818 10.5001Z" fill="currentColor"/>
<path d="M16.5601 1.84975C16.7812 1.49949 17.2444 1.39478 17.5947 1.61589C19.238 2.65328 20.5644 4.12275 21.4286 5.86348C21.6128 6.23449 21.4613 6.68456 21.0903 6.86875C20.7193 7.05293 20.2692 6.90148 20.085 6.53047C19.3432 5.03622 18.2047 3.77481 16.794 2.88431C16.4437 2.6632 16.339 2.20002 16.5601 1.84975Z" fill="currentColor"/>
<path d="M7.44102 1.84975C7.66212 2.20002 7.55742 2.6632 7.20715 2.88431C5.79645 3.77481 4.65789 5.03622 3.91608 6.53047C3.73189 6.90148 3.28182 7.05293 2.91081 6.86875C2.5398 6.68456 2.38835 6.23449 2.57253 5.86348C3.4367 4.12275 4.76307 2.65328 6.40646 1.61589C6.75673 1.39478 7.21991 1.49949 7.44102 1.84975Z" fill="currentColor"/>
</svg>
