<svg width="24" height="24" viewBox="0 0 24 24" fill="none" xmlns="http://www.w3.org/2000/svg">
<path d="M19.8549 4.14566C18.9844 4.0201 16.8415 3.9728 14.6485 6.16582L13.5895 7.22485C13.5893 7.22508 13.589 7.22531 13.5888 7.22554L8.81323 12.0011L11.9994 15.1873L17.8347 9.35203C20.0278 7.15902 19.9805 5.0162 19.8549 4.14566ZM11.3087 16.6179L7.38268 12.6919L3.67818 11.9492C3.67795 11.9492 3.67841 11.9493 3.67818 11.9492C3.41209 11.8962 3.16467 11.7718 2.96359 11.5896C2.76233 11.4073 2.61435 11.1738 2.53544 10.9139C2.45652 10.6541 2.44962 10.3777 2.51549 10.1142C2.58136 9.85074 2.71751 9.6101 2.90943 9.41796L5.94549 6.39128C6.2221 6.11092 6.59794 5.95055 6.99189 5.94494L7.00257 5.94486H12.7482L13.5879 5.10516C16.2064 2.48666 18.8751 2.48817 20.0724 2.6615C20.3928 2.70537 20.6901 2.85291 20.9189 3.08166C21.1476 3.31042 21.2952 3.60774 21.3391 3.92816C21.5124 5.12541 21.5139 7.7942 18.8954 10.4127L18.0557 11.2524V16.998L18.0556 17.0087C18.05 17.4026 17.8896 17.7785 17.6093 18.0551L14.5826 21.0911C14.3905 21.283 14.1498 21.4192 13.8864 21.4851C13.6229 21.5509 13.3465 21.544 13.0866 21.4651C12.8268 21.3862 12.5932 21.2382 12.4109 21.037C12.2287 20.8359 12.1045 20.5892 12.0515 20.3231C12.0514 20.3228 12.0515 20.3233 12.0515 20.3231L11.3087 16.6179ZM16.5557 12.7524L12.8138 16.4943L13.5225 20.0299L16.5557 16.9873V12.7524ZM11.2482 7.44486H7.01318L7.00711 7.45105L3.9707 10.478L3.97187 10.4782L7.50622 11.1868L11.2482 7.44486ZM7.40407 14.9402C7.5361 15.3328 7.32486 15.7581 6.93225 15.8901C5.66095 16.3176 4.98531 17.3849 4.62392 18.4701C4.48041 18.901 4.39371 19.3159 4.34162 19.6589C4.68465 19.6068 5.09951 19.5201 5.53045 19.3766C6.61571 19.0152 7.68292 18.3396 8.11044 17.0683C8.24246 16.6757 8.66777 16.4645 9.06038 16.5965C9.45298 16.7285 9.66423 17.1538 9.5322 17.5464C8.89097 19.4532 7.30506 20.3667 6.00437 20.7998C5.34731 21.0186 4.73218 21.1266 4.2832 21.1805C4.05763 21.2076 3.87114 21.2213 3.73865 21.2282C3.67233 21.2317 3.61934 21.2335 3.58151 21.2345C3.56258 21.235 3.54744 21.2352 3.53629 21.2353L3.5226 21.2355L3.51805 21.2355L3.51636 21.2355C3.51606 21.2355 3.51507 21.2355 3.51507 20.4855C2.76507 20.4855 2.76507 20.4852 2.76507 20.4849L2.76507 20.4825L2.76509 20.478L2.76522 20.4643C2.76535 20.4531 2.7656 20.438 2.76607 20.4191C2.76701 20.3812 2.76882 20.3282 2.77231 20.2619C2.77928 20.1294 2.793 19.9429 2.82006 19.7174C2.87392 19.2684 2.98194 18.6532 3.20075 17.9962C3.63389 16.6955 4.54731 15.1096 6.45414 14.4684C6.84674 14.3363 7.27205 14.5476 7.40407 14.9402ZM3.51507 20.4855L2.76507 20.4849C2.76507 20.8991 3.10085 21.2355 3.51507 21.2355L3.51507 20.4855Z" fill="currentColor"/>
</svg>
