<svg width="32" height="32" viewBox="0 0 32 32" fill="none" xmlns="http://www.w3.org/2000/svg">
<g id="Pivot">
<g id="Vector">
<path fill-rule="evenodd" clip-rule="evenodd" d="M26 5H20C19.4477 5 19 5.44772 19 6V26C19 26.5523 19.4477 27 20 27H26C26.5523 27 27 26.5523 27 26V6C27 5.44772 26.5523 5 26 5ZM20 3C18.3431 3 17 4.34315 17 6V26C17 27.6569 18.3431 29 20 29H26C27.6569 29 29 27.6569 29 26V6C29 4.34315 27.6569 3 26 3H20Z" fill="currentColor"/>
<path fill-rule="evenodd" clip-rule="evenodd" d="M6 17C4.34315 17 3 18.3431 3 20V26C3 27.6569 4.34314 29 6 29H15C15.5523 29 16 28.5523 16 28C16 27.4477 15.5523 27 15 27H6C5.44772 27 5 26.5523 5 26L5 20C5 19.4477 5.44772 19 6 19H15V17H6Z" fill="currentColor"/>
<path d="M11.7071 4.29289C11.3166 3.90237 10.6834 3.90237 10.2929 4.29289C9.90237 4.68342 9.90237 5.31658 10.2929 5.70711L11.5775 6.99171C11.0607 6.99385 10.5554 7.00233 10.0715 7.02447C8.84112 7.08077 7.63759 7.22742 6.58285 7.6275C5.50068 8.03797 4.56814 8.71863 3.92613 9.81498C3.29779 10.888 3 12.2702 3 14C3 14.5523 3.44772 15 4 15C4.55228 15 5 14.5523 5 14C5 12.4798 5.26471 11.487 5.65199 10.8256C6.02561 10.1876 6.56182 9.77452 7.29215 9.49749C8.04991 9.21007 9.00263 9.07547 10.1629 9.02238C10.6211 9.00142 11.0944 8.99348 11.5858 8.99156V9L10.2929 10.2929C9.90237 10.6834 9.90237 11.3166 10.2929 11.7071C10.6834 12.0976 11.3166 12.0976 11.7071 11.7071L14.7071 8.70711C14.8057 8.60849 14.8794 8.49439 14.9283 8.37264C14.9734 8.26017 14.9988 8.13758 15 8.00922C15 8.00614 15 8.00306 15 7.99997L15 7.99699C14.9996 7.85873 14.9711 7.72707 14.92 7.60741C14.8774 7.50759 14.8179 7.41329 14.7414 7.3289C14.729 7.31524 14.7163 7.30193 14.7032 7.28897L11.7071 4.29289Z" fill="currentColor"/>
</g>
</g>
</svg>
