<svg width="32" height="32" viewBox="0 0 32 32" fill="none" xmlns="http://www.w3.org/2000/svg">
<path fill-rule="evenodd" clip-rule="evenodd" d="M8 23L10 23C10.5523 23 11 23.4477 11 24C11 24.5523 10.5523 25 10 25L8 25H6H4C3.44772 25 3 24.5523 3 24C3 23.4477 3.44772 23 4 23H6H8Z" fill="currentColor"/>
<path fill-rule="evenodd" clip-rule="evenodd" d="M13 23C13 21.3431 14.3431 20 16 20H26C27.6569 20 29 21.3431 29 23V26C29 27.6569 27.6569 29 26 29H16C14.3431 29 13 27.6569 13 26V23ZM22 22H26C26.5523 22 27 22.4477 27 23V26C27 26.5523 26.5523 27 26 27H22V22ZM20 22H16C15.4477 22 15 22.4477 15 23V26C15 26.5523 15.4477 27 16 27H20V22Z" fill="currentColor"/>
<path fill-rule="evenodd" clip-rule="evenodd" d="M3 6C3 4.34315 4.34315 3 6 3H26C27.6569 3 29 4.34315 29 6V14C29 15.6569 27.6569 17 26 17H6C4.34315 17 3 15.6569 3 14V6ZM21 5H26C26.5523 5 27 5.44772 27 6V9L21 9V5ZM19 5H13V9L19 9V5ZM19 11L13 11V15H19V11ZM21 15H26C26.5523 15 27 14.5523 27 14V11L21 11V15ZM11 5V9L5 9V6C5 5.44772 5.44772 5 6 5H11ZM11 11L5 11V14C5 14.5523 5.44772 15 6 15H11V11Z" fill="currentColor"/>
</svg>
