<svg width="32" height="32" viewBox="0 0 32 32" fill="none" xmlns="http://www.w3.org/2000/svg">
<path fill-rule="evenodd" clip-rule="evenodd" d="M20.1261 19.6432C20.1259 19.7914 20.0657 19.9334 19.9586 20.0382C19.8516 20.143 19.7064 20.202 19.5549 20.2024C19.4033 20.2022 19.2579 20.1432 19.1507 20.0384C19.0435 19.9336 18.9832 19.7914 18.983 19.6432C18.983 19.3357 19.2397 19.0847 19.5549 19.0847C19.8693 19.0847 20.1254 19.3357 20.1254 19.6426L20.1261 19.6432ZM21.9947 8.27295C21.9179 8.27543 21.8414 8.26279 21.7698 8.23577C21.6981 8.20875 21.6328 8.16791 21.5776 8.11567C21.5224 8.06344 21.4785 8.00089 21.4486 7.93173C21.4186 7.86258 21.4032 7.78824 21.4033 7.71314C21.4033 7.63804 21.4188 7.56372 21.4488 7.4946C21.4789 7.42548 21.5228 7.36297 21.5781 7.3108C21.6333 7.25863 21.6987 7.21786 21.7704 7.19092C21.8421 7.16398 21.9186 7.15142 21.9954 7.15399C22.1438 7.15896 22.2844 7.22012 22.3876 7.32457C22.4907 7.42901 22.5484 7.56857 22.5483 7.71377C22.5482 7.85898 22.4904 7.99847 22.3871 8.1028C22.2838 8.20714 22.1431 8.26814 21.9947 8.27295ZM19.7772 13.8493C19.7688 13.9919 19.7048 14.1259 19.5986 14.224C19.4923 14.322 19.3518 14.3766 19.2057 14.3766C19.0596 14.3766 18.9191 14.322 18.8128 14.224C18.7066 14.1259 18.6427 13.9919 18.6342 13.8493C18.6342 13.5412 18.8909 13.2902 19.206 13.2902C19.5211 13.2902 19.7779 13.5412 19.7779 13.8493H19.7772ZM22.8168 23.7329C22.8238 23.5892 22.8871 23.4537 22.9937 23.3545C23.1001 23.2552 23.2416 23.1998 23.3887 23.1998C23.5358 23.1998 23.6773 23.2552 23.7838 23.3545C23.8903 23.4537 23.9536 23.5892 23.9606 23.7329C23.9536 23.8767 23.8903 24.0122 23.7838 24.1114C23.6773 24.2107 23.5358 24.2661 23.3887 24.2661C23.2416 24.2661 23.1001 24.2107 22.9937 24.1114C22.8871 24.0122 22.8238 23.8767 22.8168 23.7329ZM25.6853 20.577C25.585 20.6319 25.5015 20.7119 25.4434 20.8089C25.3852 20.9059 25.3546 21.0162 25.3546 21.1286V25.0541L20.7252 27.7308V24.5375H21.7198C21.8727 24.8432 22.1101 25.1009 22.405 25.2815C22.6999 25.4621 23.0407 25.5584 23.3887 25.5594C23.884 25.5589 24.359 25.3664 24.7093 25.024C25.0595 24.6816 25.2566 24.2172 25.2573 23.7329C25.2568 23.2485 25.0598 22.7841 24.7095 22.4415C24.3591 22.099 23.8841 21.9063 23.3887 21.9058C22.977 21.9072 22.5773 22.0416 22.2518 22.2881C21.9262 22.5347 21.6932 22.8794 21.5888 23.2689H20.0768C19.9048 23.2689 19.7399 23.3357 19.6183 23.4546C19.4968 23.5734 19.4284 23.7347 19.4284 23.9028V28.4795L19.1658 28.6316L16.8913 27.3428V10.9039H18.7314V12.0888C18.333 12.1906 17.9801 12.4185 17.7279 12.7368C17.4756 13.0551 17.3381 13.446 17.3368 13.8487C17.3376 14.3329 17.5348 14.797 17.8851 15.1393C18.2354 15.4816 18.7101 15.674 19.2054 15.6745C19.7006 15.674 20.1754 15.4816 20.5257 15.1393C20.876 14.797 21.0732 14.3329 21.074 13.8487C21.0729 13.5084 20.9743 13.1751 20.7895 12.8867C20.6046 12.5983 20.3409 12.3663 20.0282 12.2169V10.9039H22.1678C22.3398 10.9039 22.5047 10.8371 22.6263 10.7182C22.7479 10.5994 22.8162 10.4381 22.8162 10.2699V9.34562C23.1291 9.19632 23.3929 8.96429 23.5779 8.67589C23.7628 8.3875 23.8615 8.0542 23.8627 7.71378C23.8622 7.22936 23.6651 6.76492 23.3148 6.42238C22.9645 6.07984 22.4895 5.88719 21.9941 5.88668C21.4986 5.88719 21.0236 6.07984 20.6733 6.42238C20.323 6.76492 20.1259 7.22936 20.1254 7.71378C20.1254 8.56013 20.72 9.26701 21.5194 9.47368V9.63598H16.8913V5.0454L19.7429 3.37552L25.7028 6.92829V10.8361C25.7028 10.9482 25.7332 11.0584 25.791 11.1553C25.8487 11.2522 25.9317 11.3324 26.0315 11.3876L29.1885 13.1374V15.0894H23.215C23.043 15.0894 22.8781 15.1562 22.7565 15.2751C22.6349 15.394 22.5666 15.5552 22.5666 15.7234V18.8387H21.2238C21.071 18.5329 20.8337 18.2752 20.5386 18.0945C20.2437 17.9139 19.9029 17.8177 19.5549 17.8167C19.0596 17.8172 18.5849 18.0097 18.2346 18.352C17.8842 18.6943 17.6871 19.1583 17.6862 19.6426C17.6866 20.1271 17.8835 20.5917 18.2338 20.9344C18.5842 21.2771 19.0593 21.4698 19.5549 21.4703C19.9666 21.4689 20.3664 21.3344 20.692 21.0878C21.0175 20.8412 21.2505 20.4962 21.3548 20.1066H23.215C23.3869 20.1066 23.5519 20.0398 23.6734 19.9209C23.795 19.8021 23.8633 19.6408 23.8633 19.4727V16.3573H29.1898V18.6479L25.6853 20.577ZM11.8858 18.743C12.2009 18.743 12.4577 18.994 12.4577 19.3021C12.4575 19.4503 12.3972 19.5925 12.29 19.6973C12.1828 19.8021 12.0374 19.8611 11.8858 19.8613C11.7342 19.8611 11.5889 19.8021 11.4816 19.6973C11.3745 19.5925 11.3142 19.4503 11.314 19.3021C11.314 18.994 11.5707 18.743 11.8858 18.743ZM10.9651 8.73638C10.965 8.62562 10.9985 8.51728 11.0614 8.42516C11.1242 8.33298 11.2136 8.26113 11.3182 8.21868C11.4229 8.17623 11.538 8.16509 11.6492 8.18667C11.7603 8.20825 11.8624 8.26158 11.9425 8.33989C12.0226 8.41825 12.0771 8.51804 12.0992 8.6267C12.1213 8.73536 12.1098 8.84795 12.0665 8.95028C12.023 9.0526 11.9496 9.14002 11.8553 9.20146C11.7611 9.26295 11.6503 9.29566 11.537 9.29554C11.3855 9.29522 11.2403 9.23613 11.1333 9.13134C11.0261 9.02654 10.966 8.88453 10.9658 8.73638H10.9651ZM8.62319 13.8487C8.6147 13.9913 8.55077 14.1253 8.4445 14.2233C8.33825 14.3213 8.19771 14.3759 8.05164 14.3759C7.90558 14.3759 7.76503 14.3213 7.65878 14.2233C7.55253 14.1253 7.48861 13.9913 7.4801 13.8487C7.4801 13.5406 7.73686 13.2896 8.05067 13.2896C8.36643 13.2896 8.62319 13.5406 8.62319 13.8487ZM12.011 24.7549C12.0085 24.6798 12.0215 24.6051 12.0492 24.535C12.077 24.465 12.1188 24.4011 12.1723 24.3473C12.2258 24.2933 12.2898 24.2505 12.3606 24.2213C12.4313 24.1921 12.5074 24.1771 12.5842 24.1772C12.661 24.1774 12.737 24.1926 12.8076 24.2221C12.8783 24.2515 12.9422 24.2945 12.9955 24.3486C13.0488 24.4027 13.0904 24.4667 13.1178 24.5368C13.1453 24.6069 13.1581 24.6817 13.1554 24.7568C13.1501 24.9019 13.0874 25.0394 12.9805 25.1402C12.8735 25.2409 12.7307 25.2971 12.5822 25.2968C12.4337 25.2966 12.2911 25.24 12.1845 25.1388C12.0779 25.0377 12.0157 24.9 12.011 24.7549ZM12.9654 28.6278L6.78244 25.0522V21.128C6.78249 21.0145 6.75141 20.9032 6.69245 20.8055C6.63349 20.7078 6.5488 20.6274 6.44723 20.5726L6.21446 20.4483H7.92553V24.9261C7.92553 25.0942 7.99385 25.2555 8.11544 25.3744C8.23703 25.4932 8.40195 25.56 8.57391 25.56H10.9133C11.0661 25.8659 11.3034 26.1237 11.5983 26.3045C11.8933 26.4852 12.2341 26.5816 12.5822 26.5826C13.0776 26.5821 13.5526 26.3895 13.9029 26.0469C14.2533 25.7044 14.4503 25.24 14.4508 24.7555C14.4501 24.2712 14.253 23.8069 13.9027 23.4645C13.5524 23.1222 13.0775 22.9296 12.5822 22.9291C12.1705 22.9305 11.7707 23.0649 11.4453 23.3114C11.1197 23.5579 10.8867 23.9027 10.7823 24.2921H9.22294V19.8144C9.22294 19.6462 9.1546 19.485 9.03303 19.3661C8.91146 19.2472 8.74651 19.1804 8.57456 19.1804H3.85696L3.29676 18.8793V13.1374L6.45371 11.387C6.5536 11.3317 6.63667 11.2514 6.69442 11.1543C6.75218 11.0573 6.78255 10.9471 6.78244 10.8348V9.19917H7.57735V12.0894C7.17902 12.1914 6.82632 12.4192 6.5742 12.7376C6.32207 13.0559 6.18465 13.4468 6.18334 13.8493C6.18403 14.3334 6.38098 14.7974 6.73103 15.1397C7.08107 15.4819 7.55563 15.6745 8.05067 15.6752C8.54597 15.6749 9.02097 15.4825 9.37135 15.1402C9.7218 14.7979 9.9191 14.3336 9.91995 13.8493C9.91878 13.509 9.82016 13.1758 9.63531 12.8874C9.45052 12.599 9.18682 12.367 8.87411 12.2175V9.19981H9.73775C9.84169 9.58957 10.0746 9.93477 10.4001 10.1816C10.7258 10.4284 11.1257 10.5628 11.5377 10.5641C12.0329 10.5633 12.5075 10.3705 12.8576 10.028C13.2076 9.68549 13.4045 9.22124 13.405 8.73701C13.4045 8.25281 13.2076 7.78856 12.8576 7.44606C12.5075 7.10356 12.0329 6.91075 11.5377 6.90991C11.1897 6.91094 10.8489 7.00722 10.5539 7.18783C10.259 7.36844 10.0216 7.62618 9.86872 7.93187H6.78244V6.92703L12.7423 3.37489L15.5952 5.04477V12.3633H11.7114C11.5395 12.3633 11.3745 12.4301 11.2529 12.549C11.1314 12.6679 11.063 12.8292 11.063 12.9973V17.6709C10.7503 17.8203 10.4864 18.0523 10.3016 18.3407C10.1168 18.6291 10.0182 18.9624 10.0172 19.3028C10.0177 19.7872 10.2148 20.2516 10.5651 20.5942C10.9154 20.9367 11.3904 21.1294 11.8858 21.1299C12.3813 21.1294 12.8563 20.9367 13.2066 20.5942C13.5569 20.2516 13.7539 19.7872 13.7545 19.3028C13.7545 18.4564 13.1599 17.7495 12.3598 17.5429V13.6313H15.5952V27.0987L12.9654 28.6278ZM30.4859 12.7684C30.4859 12.5402 30.3601 12.3297 30.1571 12.2169L27.0008 10.4665L27.0002 6.572C27.0002 6.46324 26.9715 6.3563 26.917 6.26148C26.8625 6.16667 26.784 6.08715 26.689 6.03059L20.0846 2.09364C19.9836 2.03344 19.8678 2.00133 19.7495 2.00077C19.6312 2.00021 19.515 2.03123 19.4135 2.09047L16.2442 3.9461L13.0724 2.09047C12.9711 2.03085 12.855 1.99956 12.7368 2C12.6186 2.00045 12.5028 2.03262 12.4019 2.093L5.79691 6.02996C5.70197 6.08661 5.6235 6.16614 5.56901 6.26094C5.51452 6.35573 5.48583 6.46263 5.48568 6.57137V10.4658L2.32808 12.2169C2.22841 12.2722 2.14554 12.3525 2.0879 12.4493C2.03027 12.5462 1.99994 12.6563 2 12.7684V19.2539C2.00002 19.3674 2.0312 19.4788 2.09027 19.5765C2.14935 19.6742 2.23417 19.7546 2.33586 19.8093L5.48633 21.5033L5.48568 25.4149C5.48568 25.6387 5.60628 25.846 5.80339 25.9601L12.6367 29.911C12.7368 29.9691 12.851 29.9997 12.9674 29.9996C13.0838 29.9995 13.198 29.9687 13.298 29.9104L16.0309 28.321L18.8442 29.9148C18.9438 29.9711 19.057 30.0006 19.1721 30C19.2872 29.9994 19.4 29.9689 19.4991 29.9116L26.333 25.9613C26.43 25.9053 26.5103 25.8254 26.566 25.7297C26.6217 25.634 26.6509 25.5257 26.6507 25.4155V21.5001L30.1558 19.5709C30.2561 19.5158 30.3395 19.4356 30.3977 19.3386C30.4558 19.2416 30.4865 19.1312 30.4865 19.0187L30.4859 12.7684Z" fill="currentColor"/>
</svg>
