<svg width="24" height="24" viewBox="0 0 24 24" fill="none" xmlns="http://www.w3.org/2000/svg">
<path d="M16.9801 4.70136C17.1971 4.52058 17.2941 4.23325 17.2311 3.95796C17.1681 3.68267 16.9558 3.46608 16.6819 3.39759L12.1982 2.27666C12.164 2.2673 12.1288 2.26031 12.0928 2.25586C11.8947 2.23092 11.7009 2.28675 11.5491 2.40078C11.4555 2.47115 11.3778 2.56368 11.3249 2.67307C11.2909 2.74304 11.2675 2.81909 11.2567 2.89914C11.2513 2.93903 11.2491 2.97876 11.25 3.01803L11.25 7.83992L7.09548 10.501C6.88021 10.6389 6.75 10.8769 6.75 11.1325V15.3752H6V13.8752C6 13.461 5.66421 13.1252 5.25 13.1252H2.25C1.83579 13.1252 1.5 13.461 1.5 13.8752V21.7502C1.5 22.1644 1.83579 22.5002 2.25 22.5002H21.75C22.1642 22.5002 22.5 22.1644 22.5 21.7502V13.8752C22.5 13.461 22.1642 13.1252 21.75 13.1252H18.75C18.3358 13.1252 18 13.461 18 13.8752V15.3752H17.25V10.7208C17.25 10.4471 17.1009 10.1951 16.8609 10.0633L12.75 7.80635L12.75 3.96077L14.8852 4.49457L13.7698 5.42401C13.4516 5.68918 13.4086 6.1621 13.6738 6.48031C13.939 6.79852 14.4119 6.84152 14.7301 6.57635L16.9801 4.70136ZM13.5 18.7502C13.5 17.9218 12.8284 17.2502 12 17.2502C11.1716 17.2502 10.5 17.9218 10.5 18.7502V21.0002H3V14.6252H4.5V16.1252C4.5 16.5394 4.83579 16.8752 5.25 16.8752H10.125C10.5392 16.8752 10.875 16.5394 10.875 16.1252V14.6252H13.125V16.1252C13.125 16.5394 13.4608 16.8752 13.875 16.8752H18.75C19.1642 16.8752 19.5 16.5394 19.5 16.1252V14.6252H21V21.0002H13.5V18.7502ZM15.75 11.1646V15.3752H14.625V13.8752C14.625 13.461 14.2892 13.1252 13.875 13.1252H10.125C9.71079 13.1252 9.375 13.461 9.375 13.8752V15.3752H8.25V11.5428L12.0295 9.12197L15.75 11.1646Z" fill="currentColor"/>
</svg>
