<svg width="24" height="24" viewBox="0 0 24 24" fill="none" xmlns="http://www.w3.org/2000/svg">
<path d="M15.4393 4.5L4.5 4.5L4.5 19.5H6.75V14.25C6.75 13.8522 6.90804 13.4706 7.18934 13.1893C7.47065 12.908 7.85218 12.75 8.25 12.75H15.75C16.1478 12.75 16.5294 12.908 16.8107 13.1893C17.092 13.4706 17.25 13.8522 17.25 14.25V19.5H19.5V8.56067L15.4393 4.5ZM8.25 19.5H15.75V14.25L8.25 14.25V19.5ZM15.4395 3C15.635 2.99952 15.8287 3.03749 16.0095 3.11177C16.1909 3.18624 16.3557 3.29573 16.4946 3.43399L16.496 3.4353L20.566 7.50536C20.7043 7.64431 20.8138 7.80915 20.8882 7.99047C20.9625 8.17134 21.0005 8.36506 21 8.56059C21 8.56106 21 8.56154 21 8.56201L20.25 8.55938H21V8.56059V19.5C21 19.8978 20.842 20.2794 20.5607 20.5607C20.2794 20.842 19.8978 21 19.5 21H4.5C4.10218 21 3.72065 20.842 3.43934 20.5607C3.15804 20.2794 3 19.8978 3 19.5V4.5C3 4.10218 3.15804 3.72065 3.43934 3.43934C3.72064 3.15804 4.10217 3 4.5 3H15.4395ZM15.4395 3C15.439 3.00001 15.4385 3.00001 15.438 3.00001L15.4406 3.75V3H15.4395ZM8.25 6.75C8.25 6.33579 8.58579 6 9 6H14.25C14.6642 6 15 6.33579 15 6.75C15 7.16421 14.6642 7.5 14.25 7.5H9C8.58579 7.5 8.25 7.16421 8.25 6.75Z" fill="currentColor"/>
</svg>
