<svg width="24" height="24" viewBox="0 0 24 24" fill="none" xmlns="http://www.w3.org/2000/svg">
<path d="M3 7.5C3 5.85424 4.21263 4.52938 5.80723 3.6596C7.43019 2.77434 9.62107 2.25 12 2.25C14.3789 2.25 16.5698 2.77434 18.1928 3.6596C19.7874 4.52938 21 5.85424 21 7.5V11.25C21 11.6642 20.6642 12 20.25 12C19.8358 12 19.5 11.6642 19.5 11.25V10.4404C19.1134 10.7788 18.6702 11.08 18.1928 11.3404C16.5698 12.2257 14.3789 12.75 12 12.75C9.62107 12.75 7.43019 12.2257 5.80723 11.3404C5.32982 11.08 4.88664 10.7788 4.5 10.4404V16.5C4.5 17.2923 5.06242 18.1599 6.30612 18.8983C7.5292 19.6246 9.27934 20.1338 11.2868 20.2326C11.7006 20.2529 12.0194 20.6048 11.9991 21.0185C11.9788 21.4322 11.6269 21.7511 11.2132 21.7307C9.01587 21.6227 7.01601 21.0644 5.54028 20.1881C4.08518 19.3241 3 18.0542 3 16.5V7.5ZM4.5 7.5C4.5 8.33952 5.1342 9.26466 6.52551 10.0236C7.88846 10.767 9.82259 11.25 12 11.25C14.1774 11.25 16.1115 10.767 17.4745 10.0236C18.8658 9.26466 19.5 8.33952 19.5 7.5C19.5 6.66048 18.8658 5.73534 17.4745 4.97644C16.1115 4.23301 14.1774 3.75 12 3.75C9.82259 3.75 7.88846 4.23301 6.52551 4.97644C5.1342 5.73534 4.5 6.66048 4.5 7.5Z" fill="currentColor"/>
<path d="M20.25 13.5C20.6642 13.5 21 13.8358 21 14.25C21 14.6624 20.6671 14.9971 20.2554 15V16.6675L22.3639 20.9018C22.4503 21.0565 22.4975 21.2308 22.4999 21.4096C22.5025 21.6026 22.4528 21.7917 22.3572 21.9578C22.2617 22.1237 22.1243 22.2599 21.9608 22.3543C21.7973 22.4486 21.6127 22.4984 21.4253 22.5L21.4189 22.5L14.5747 22.5C14.3873 22.4984 14.2027 22.4486 14.0392 22.3543C13.8757 22.2599 13.7383 22.1237 13.6428 21.9578C13.5472 21.7917 13.4975 21.6026 13.5001 21.4096C13.5025 21.2306 13.5498 21.0561 13.6364 20.9013L15.7516 16.6673V15H15.75C15.3358 15 15 14.6642 15 14.25C15 13.8358 15.3358 13.5 15.75 13.5H20.25ZM18.7554 15H17.2516V16.7741C17.2504 16.9542 17.2044 17.1301 17.1189 17.2868L15.2639 21H20.7371L18.8878 17.2863C18.8025 17.1297 18.7566 16.9539 18.7554 16.7741L18.7553 16.769L18.7554 15Z" fill="currentColor"/>
</svg>
