<svg version="1.1" xmlns="http://www.w3.org/2000/svg" xmlns:xlink="http://www.w3.org/1999/xlink" width="24px" height="24px" viewBox="0,0,256,256"><g fill="#ffffff" fill-rule="evenodd" stroke="none" stroke-width="1" stroke-linecap="butt" stroke-linejoin="miter" stroke-miterlimit="10" stroke-dasharray="" stroke-dashoffset="0" font-family="none" font-weight="none" font-size="none" text-anchor="none" style="mix-blend-mode: normal"><g transform="translate(2.66667,2.66667) scale(10.66667,10.66667)"><g id="Page-1"><g id="search"><path d="M15.5,14h-0.8l-0.3,-0.3c1,-1.1 1.6,-2.6 1.6,-4.2c0,-3.6 -2.9,-6.5 -6.5,-6.5c-3.6,0 -6.5,2.9 -6.5,6.5c0,3.6 2.9,6.5 6.5,6.5c1.6,0 3.1,-0.6 4.2,-1.6l0.3,0.3v0.8l5,5l1.5,-1.5l-5,-5zM9.5,14c-2.5,0 -4.5,-2 -4.5,-4.5c0,-2.5 2,-4.5 4.5,-4.5c2.5,0 4.5,2 4.5,4.5c0,2.5 -2,4.5 -4.5,4.5z"></path></g></g></g></g></svg>