<svg width="24" height="24" viewBox="0 0 24 24" fill="none" xmlns="http://www.w3.org/2000/svg">
<path fill-rule="evenodd" clip-rule="evenodd" d="M12.2349 6.33694L9.33712 7.11339L10.3077 10.7356L13.2055 9.95916L12.2349 6.33694ZM8.94889 5.66451C8.14869 5.87892 7.67382 6.70142 7.88823 7.50162L8.8588 11.1238C9.07321 11.924 9.89572 12.3989 10.6959 12.1845L13.5937 11.408C14.3939 11.1936 14.8688 10.3711 14.6544 9.57093L13.6838 5.94871C13.4694 5.14851 12.6469 4.67364 11.8467 4.88805L8.94889 5.66451Z" fill="currentColor"/>
<path fill-rule="evenodd" clip-rule="evenodd" d="M19.9262 4.64227L17.0605 3.7546L16.3948 5.90385L19.2604 6.79152L19.9262 4.64227ZM17.5044 2.32177C16.713 2.07664 15.8728 2.51943 15.6277 3.31076L14.9619 5.46001C14.7168 6.25134 15.1596 7.09156 15.9509 7.33668L18.8166 8.22436C19.6079 8.46948 20.4481 8.02669 20.6933 7.23536L21.359 5.08611C21.6041 4.29478 21.1614 3.45457 20.37 3.20944L17.5044 2.32177Z" fill="currentColor"/>
<path fill-rule="evenodd" clip-rule="evenodd" d="M19.5924 14.5888L17.332 12.6164L14.8665 15.442L17.1269 17.4144L19.5924 14.5888ZM18.3182 11.4862C17.694 10.9415 16.7464 11.006 16.2018 11.6302L13.7363 14.4558C13.1916 15.08 13.2561 16.0275 13.8803 16.5722L16.1407 18.5446C16.7649 19.0893 17.7125 19.0248 18.2571 18.4006L20.7227 15.5751C21.2673 14.9508 21.2028 14.0033 20.5786 13.4586L18.3182 11.4862Z" fill="currentColor"/>
<path fill-rule="evenodd" clip-rule="evenodd" d="M6.75 13.5H3.75V15.75H6.75V13.5ZM3.75 12C2.92157 12 2.25 12.6716 2.25 13.5V15.75C2.25 16.5784 2.92157 17.25 3.75 17.25H6.75C7.57843 17.25 8.25 16.5784 8.25 15.75V13.5C8.25 12.6716 7.57843 12 6.75 12H3.75Z" fill="currentColor"/>
<path fill-rule="evenodd" clip-rule="evenodd" d="M21 12C20.5858 12 20.25 11.6642 20.25 11.25L20.25 9.75C20.25 9.33579 20.5858 9 21 9C21.4142 9 21.75 9.33579 21.75 9.75L21.75 11.25C21.75 11.6642 21.4142 12 21 12Z" fill="currentColor"/>
<path d="M21.75 20.25C21.75 21.0784 21.0784 21.75 20.25 21.75H3.75C2.92157 21.75 2.25 21.0784 2.25 20.25V19.5C2.25 19.0858 2.58579 18.75 3 18.75C3.41421 18.75 3.75 19.0858 3.75 19.5L3.75 20.25H20.25V18C20.25 17.5858 20.5858 17.25 21 17.25C21.4142 17.25 21.75 17.5858 21.75 18V20.25Z" fill="currentColor"/>
<path d="M3.75 3.75V7.49957C3.75 7.49943 3.75 7.49972 3.75 7.49957V9.75C3.75 10.1642 3.41421 10.5 3 10.5C2.58579 10.5 2.25 10.1642 2.25 9.75V3.75C2.25 2.92157 2.92157 2.25 3.75 2.25H13.5C13.9142 2.25 14.25 2.58579 14.25 3C14.25 3.41421 13.9142 3.75 13.5 3.75L3.75 3.75Z" fill="currentColor"/>
</svg>
