<svg width="24" height="24" viewBox="0 0 24 24" fill="none" xmlns="http://www.w3.org/2000/svg">
<path fill-rule="evenodd" clip-rule="evenodd" d="M20.25 3.75H3.75L3.75 20.25H20.25V3.75ZM3.75 2.25C2.92157 2.25 2.25 2.92157 2.25 3.75V20.25C2.25 21.0784 2.92157 21.75 3.75 21.75H20.25C21.0784 21.75 21.75 21.0784 21.75 20.25V3.75C21.75 2.92157 21.0784 2.25 20.25 2.25H3.75Z" fill="currentColor"/>
<path fill-rule="evenodd" clip-rule="evenodd" d="M9.75 6.75H6.75V10.5H9.75V6.75ZM6.75 5.25C5.92157 5.25 5.25 5.92157 5.25 6.75V10.5C5.25 11.3284 5.92157 12 6.75 12H9.75C10.5784 12 11.25 11.3284 11.25 10.5V6.75C11.25 5.92157 10.5784 5.25 9.75 5.25H6.75Z" fill="currentColor"/>
<path fill-rule="evenodd" clip-rule="evenodd" d="M17.25 6.75H14.25V9H17.25V6.75ZM14.25 5.25C13.4216 5.25 12.75 5.92157 12.75 6.75V9C12.75 9.82843 13.4216 10.5 14.25 10.5H17.25C18.0784 10.5 18.75 9.82843 18.75 9V6.75C18.75 5.92157 18.0784 5.25 17.25 5.25H14.25Z" fill="currentColor"/>
<path fill-rule="evenodd" clip-rule="evenodd" d="M9.75 15H6.75V17.25H9.75V15ZM6.75 13.5C5.92157 13.5 5.25 14.1716 5.25 15V17.25C5.25 18.0784 5.92157 18.75 6.75 18.75H9.75C10.5784 18.75 11.25 18.0784 11.25 17.25V15C11.25 14.1716 10.5784 13.5 9.75 13.5H6.75Z" fill="currentColor"/>
<path fill-rule="evenodd" clip-rule="evenodd" d="M17.25 13.5H14.25V17.25H17.25V13.5ZM14.25 12C13.4216 12 12.75 12.6716 12.75 13.5V17.25C12.75 18.0784 13.4216 18.75 14.25 18.75H17.25C18.0784 18.75 18.75 18.0784 18.75 17.25V13.5C18.75 12.6716 18.0784 12 17.25 12H14.25Z" fill="currentColor"/>
</svg>
