<svg width="24" height="24" viewBox="0 0 24 24" fill="none" xmlns="http://www.w3.org/2000/svg">
<path d="M12.0007 1.50195C10.5972 1.50195 9.22501 1.91643 8.05624 2.69339C6.89075 3.46816 5.97931 4.56897 5.43556 5.85836C5.43114 5.86707 5.42454 5.87447 5.41642 5.87983C4.57153 6.26248 3.81448 6.81518 3.19257 7.50354C2.56468 8.19852 2.0883 9.01657 1.79372 9.90565C1.49914 10.7947 1.39281 11.7354 1.4815 12.6678C1.57019 13.6002 1.85195 14.5039 2.30887 15.3215C2.76579 16.1391 3.38785 16.8527 4.13551 17.4168C4.88316 17.981 5.74004 18.3834 6.65164 18.5984C7.56324 18.8134 8.50961 18.8363 9.43056 18.6657C10.065 18.5482 10.6777 18.3406 11.2507 18.0505V21.7501C11.2507 22.1643 11.5865 22.5001 12.0007 22.5001C12.4149 22.5001 12.7507 22.1643 12.7507 21.7501V18.0505C13.3236 18.3407 13.9364 18.5482 14.5708 18.6657C15.4917 18.8363 16.4381 18.8134 17.3497 18.5984C18.2613 18.3834 19.1181 17.981 19.8658 17.4168C20.6135 16.8527 21.2355 16.1391 21.6924 15.3215C22.1494 14.5039 22.4311 13.6002 22.5198 12.6678C22.6085 11.7354 22.5022 10.7947 22.2076 9.90565C21.913 9.01657 21.4366 8.19852 20.8087 7.50354C20.1868 6.81518 19.4298 6.26248 18.5849 5.87984C18.5768 5.87447 18.5702 5.86707 18.5658 5.85835C18.022 4.56897 17.1106 3.46816 15.9451 2.69339C14.7763 1.91643 13.4041 1.50195 12.0007 1.50195ZM12.7507 16.3097V14.2656C12.7509 14.2558 12.7509 14.2459 12.7507 14.2361V12.4638L16.8361 10.4211C17.2066 10.2359 17.3567 9.78536 17.1715 9.41488C16.9863 9.04439 16.5358 8.89422 16.1653 9.07947L12.7507 10.7868V8.25012C12.7507 7.83591 12.4149 7.50012 12.0007 7.50012C11.5865 7.50012 11.2507 7.83591 11.2507 8.25012V11.9843C11.2505 11.9953 11.2505 12.0064 11.2507 12.0174V13.0368L7.83609 11.3295C7.46561 11.1442 7.0151 11.2944 6.82986 11.6649C6.64462 12.0354 6.79479 12.4859 7.16527 12.6711L11.2507 14.7138V16.3096C11.2224 16.3257 11.1945 16.3427 11.1672 16.3607L11.1566 16.3678C10.5545 16.7778 9.87365 17.0581 9.15736 17.1908C8.44107 17.3235 7.705 17.3057 6.99598 17.1384C6.28696 16.9712 5.6205 16.6582 5.03899 16.2195C4.45748 15.7807 3.97365 15.2257 3.61827 14.5898C3.26289 13.9539 3.04374 13.251 2.97476 12.5258C2.90578 11.8006 2.98848 11.0689 3.2176 10.3774C3.44671 9.68592 3.81723 9.04966 4.30559 8.50912C4.79395 7.96858 5.38946 7.53558 6.05424 7.23768C6.0644 7.23313 6.07446 7.22835 6.08441 7.22335C6.40641 7.06146 6.66225 6.79283 6.80824 6.46332L6.81408 6.4498C7.24292 5.42817 7.96393 4.55594 8.88665 3.94256C9.80936 3.32917 10.8927 3.00195 12.0007 3.00195C13.1086 3.00195 14.192 3.32917 15.1147 3.94256C16.0374 4.55594 16.7584 5.42817 17.1872 6.4498L17.1931 6.46332C17.3391 6.79283 17.5949 7.06146 17.9169 7.22335C17.9269 7.22835 17.9369 7.23313 17.9471 7.23768C18.6119 7.53558 19.2074 7.96858 19.6957 8.50912C20.1841 9.04966 20.5546 9.68592 20.7837 10.3774C21.0128 11.0689 21.0955 11.8006 21.0266 12.5258C20.9576 13.251 20.7384 13.9539 20.383 14.5898C20.0277 15.2257 19.5438 15.7807 18.9623 16.2195C18.3808 16.6582 17.7144 16.9712 17.0053 17.1384C16.2963 17.3057 15.5602 17.3235 14.844 17.1908C14.1277 17.0581 13.4468 16.7778 12.8447 16.3678L12.8341 16.3607C12.8068 16.3427 12.779 16.3257 12.7507 16.3097Z" fill="currentColor"/>
</svg>
