<svg width="24" height="24" viewBox="0 0 24 24" fill="none" xmlns="http://www.w3.org/2000/svg">
<path d="M10.5 5.25C10.9142 5.25 11.25 5.58579 11.25 6V10.5C11.25 10.9142 10.9142 11.25 10.5 11.25C10.0858 11.25 9.75 10.9142 9.75 10.5V6C9.75 5.58579 10.0858 5.25 10.5 5.25Z" fill="currentColor"/>
<path d="M8.25 6.75C8.66421 6.75 9 7.08579 9 7.5V10.5C9 10.9142 8.66421 11.25 8.25 11.25C7.83579 11.25 7.5 10.9142 7.5 10.5V7.5C7.5 7.08579 7.83579 6.75 8.25 6.75Z" fill="currentColor"/>
<path d="M6 8.25C6.41421 8.25 6.75 8.58579 6.75 9V10.5C6.75 10.9142 6.41421 11.25 6 11.25C5.58579 11.25 5.25 10.9142 5.25 10.5V9C5.25 8.58579 5.58579 8.25 6 8.25Z" fill="currentColor"/>
<path d="M18.6241 6.41611C18.8539 6.07146 18.7608 5.60581 18.4161 5.37604C18.0715 5.14628 17.6058 5.23941 17.376 5.58405L16.0987 7.50008H14.5987L12.876 10.0841C12.6463 10.4287 12.7394 10.8944 13.0841 11.1241C13.4287 11.3539 13.8944 11.2608 14.1241 10.9161L15.4015 9.00008H16.9015L18.6241 6.41611Z" fill="currentColor"/>
<path d="M6.9431 12.7724C7.34494 12.6719 7.75215 12.9162 7.85261 13.3181L8.2731 15C9.65579 15.0064 10.639 15.5783 11.0303 15.9697C11.3232 16.2626 11.3232 16.7374 11.0303 17.0303C10.7374 17.3232 10.2626 17.3232 9.96967 17.0303C9.8783 16.939 9.41776 16.614 8.65396 16.5235L8.97761 17.8181C9.07807 18.2199 8.83375 18.6271 8.4319 18.7276C8.03006 18.8281 7.62285 18.5837 7.52239 18.1819L7.14893 16.688C6.80127 16.8157 6.58919 16.9715 6.53033 17.0303C6.23744 17.3232 5.76256 17.3232 5.46967 17.0303C5.17678 16.7374 5.17678 16.2626 5.46967 15.9697C5.70599 15.7333 6.15814 15.4312 6.78378 15.2274L6.39739 13.6819C6.29693 13.28 6.54125 12.8728 6.9431 12.7724Z" fill="currentColor"/>
<path d="M18.1553 12.2197C17.9849 12.0492 17.7428 11.9711 17.5049 12.0097C17.2669 12.0483 17.062 12.199 16.9542 12.4146L15.8292 14.6646C15.6848 14.9533 15.7414 15.3021 15.9697 15.5303C16.1979 15.7586 16.5467 15.8152 16.8354 15.6708L19.0854 14.5458C19.301 14.438 19.4517 14.2331 19.4903 13.9951C19.5289 13.7572 19.4508 13.5152 19.2803 13.3447L18.1553 12.2197Z" fill="currentColor"/>
<path d="M15.2499 14.3352C15.6405 14.1971 15.8452 13.7686 15.7071 13.3781C15.5691 12.9876 15.1406 12.7829 14.7501 12.9209C13.5859 13.3324 12.75 14.4426 12.75 15.75C12.75 17.4069 14.0931 18.75 15.75 18.75C17.0574 18.75 18.1676 17.9141 18.5791 16.7499C18.7171 16.3594 18.5124 15.9309 18.1219 15.7929C17.7314 15.6548 17.3029 15.8595 17.1648 16.2501C16.9586 16.8337 16.4019 17.25 15.75 17.25C14.9216 17.25 14.25 16.5784 14.25 15.75C14.25 15.0981 14.6663 14.5414 15.2499 14.3352Z" fill="currentColor"/>
<path d="M2.25 3C2.25 2.58579 2.58579 2.25 3 2.25H21C21.4142 2.25 21.75 2.58579 21.75 3V21C21.75 21.4142 21.4142 21.75 21 21.75H3C2.58579 21.75 2.25 21.4142 2.25 21V3ZM3.75 3.75V20.25H20.25V3.75H3.75Z" fill="currentColor"/>
</svg>
