<svg width="32" height="32" viewBox="0 0 32 32" fill="none" xmlns="http://www.w3.org/2000/svg">
<path d="M24 12C26.2091 12 28 13.7909 28 16C28 18.2091 26.2091 20 24 20C23.8928 20 23.7867 19.9946 23.6816 19.9863C23.6663 19.9851 23.651 19.9838 23.6357 19.9824C23.532 19.9731 23.4295 19.9595 23.3281 19.9424C23.3184 19.9407 23.3086 19.9392 23.2988 19.9375C23.1956 19.9192 23.0935 19.8981 22.9932 19.8721C22.9859 19.8702 22.9789 19.8672 22.9717 19.8652C22.8785 19.8405 22.7867 19.8124 22.6963 19.7812C22.6823 19.7764 22.6683 19.7716 22.6543 19.7666C22.5629 19.7339 22.473 19.6982 22.3848 19.6592C22.3706 19.6529 22.3568 19.6461 22.3428 19.6396C22.2536 19.599 22.1656 19.5566 22.0801 19.5098C22.0702 19.5044 22.0606 19.4986 22.0508 19.4932C21.9721 19.4491 21.8956 19.4016 21.8203 19.3525C21.8067 19.3437 21.7928 19.3352 21.7793 19.3262C21.7007 19.2736 21.6243 19.218 21.5498 19.1602C21.5368 19.15 21.5236 19.1401 21.5107 19.1299C21.4357 19.0701 21.3625 19.0083 21.292 18.9434C21.283 18.9351 21.2745 18.9263 21.2656 18.918C21.1211 18.7825 20.9864 18.6369 20.8633 18.4814C20.852 18.4673 20.8411 18.4528 20.8301 18.4385C20.7746 18.3665 20.7215 18.2926 20.6709 18.2168C20.658 18.1974 20.6454 18.1778 20.6328 18.1582C20.5889 18.0898 20.5466 18.0203 20.5068 17.9492C20.4988 17.9348 20.4903 17.9207 20.4824 17.9062C20.437 17.8226 20.3959 17.7365 20.3564 17.6494C20.349 17.6331 20.3412 17.617 20.334 17.6006C20.2965 17.5149 20.262 17.4276 20.2305 17.3389C20.2239 17.3204 20.2182 17.3017 20.2119 17.2832C20.1804 17.1901 20.1507 17.096 20.126 17H14.874C14.8489 17.0977 14.8183 17.1934 14.7861 17.2881C14.7804 17.3051 14.7746 17.322 14.7686 17.3389C14.7366 17.4287 14.7011 17.5168 14.6631 17.6035C14.6564 17.6189 14.6495 17.6342 14.6426 17.6494C14.6031 17.7364 14.5629 17.8227 14.5176 17.9062C14.5096 17.9209 14.5003 17.9347 14.4922 17.9492C14.4524 18.0204 14.4101 18.0898 14.3662 18.1582C14.3536 18.1778 14.3411 18.1974 14.3281 18.2168C14.2775 18.2926 14.2245 18.3664 14.1689 18.4385C14.1579 18.4528 14.147 18.4673 14.1357 18.4814C14.0126 18.6369 13.8779 18.7825 13.7334 18.918C13.7245 18.9263 13.716 18.9351 13.707 18.9434C13.6365 19.0083 13.5633 19.0701 13.4883 19.1299C13.4754 19.1401 13.4622 19.15 13.4492 19.1602C13.3743 19.2183 13.2978 19.2743 13.2188 19.3271C13.2056 19.3359 13.192 19.3439 13.1787 19.3525C13.1034 19.4016 13.027 19.4492 12.9482 19.4932C12.9384 19.4986 12.9288 19.5044 12.9189 19.5098C12.8334 19.5566 12.7454 19.599 12.6562 19.6396C12.6422 19.6461 12.6284 19.6529 12.6143 19.6592C12.526 19.6982 12.4362 19.7339 12.3447 19.7666C12.3308 19.7716 12.3168 19.7764 12.3027 19.7812C12.2123 19.8124 12.1206 19.8405 12.0273 19.8652C12.0201 19.8672 12.0131 19.8702 12.0059 19.8721C11.9055 19.8981 11.8035 19.9193 11.7002 19.9375C11.6904 19.9392 11.6807 19.9407 11.6709 19.9424C11.5696 19.9595 11.4671 19.9731 11.3633 19.9824C11.348 19.9838 11.3327 19.9851 11.3174 19.9863C11.2126 19.9946 11.1069 20 11 20C10.8935 20 10.788 19.9945 10.6836 19.9863C10.6666 19.985 10.6497 19.984 10.6328 19.9824C10.5311 19.9732 10.4305 19.9601 10.3311 19.9434C10.3186 19.9413 10.3063 19.9387 10.2939 19.9365C10.0937 19.9008 9.89872 19.8504 9.70996 19.7861C9.68713 19.7784 9.66424 19.7709 9.6416 19.7627C9.55612 19.7318 9.47231 19.6975 9.38965 19.6611C9.37097 19.6529 9.35251 19.6442 9.33398 19.6357C9.24573 19.5952 9.15888 19.5525 9.07422 19.5059C9.06835 19.5026 9.0625 19.4994 9.05664 19.4961C8.97427 19.4502 8.89409 19.401 8.81543 19.3496C8.80318 19.3416 8.79048 19.3343 8.77832 19.3262C8.70071 19.2742 8.6254 19.2192 8.55176 19.1621C8.53544 19.1495 8.51905 19.1369 8.50293 19.124C8.43185 19.0671 8.36289 19.0078 8.2959 18.9463C8.27944 18.9312 8.26327 18.9158 8.24707 18.9004C8.02846 18.6928 7.83337 18.4611 7.66602 18.209C7.65573 18.1935 7.64582 18.1778 7.63574 18.1621C7.52854 17.9956 7.43351 17.8209 7.35156 17.6387C7.34583 17.6259 7.33959 17.6134 7.33398 17.6006C7.29363 17.5083 7.25706 17.4141 7.22363 17.3184C7.21956 17.3067 7.21588 17.2949 7.21191 17.2832C7.18039 17.1901 7.15069 17.096 7.12598 17H5C4.44772 17 4 16.5523 4 16C4 15.4477 4.44772 15 5 15H7.12598C7.15014 14.9061 7.1783 14.8138 7.20898 14.7227C7.21579 14.7024 7.22237 14.6822 7.22949 14.6621C7.26039 14.575 7.29441 14.4895 7.33105 14.4053C7.34036 14.3839 7.35068 14.363 7.36035 14.3418C7.4401 14.167 7.53169 13.999 7.63477 13.8389C7.64523 13.8226 7.65533 13.8061 7.66602 13.79C7.71787 13.712 7.77204 13.6356 7.8291 13.5615C7.83956 13.5479 7.8507 13.5349 7.86133 13.5215C7.91941 13.448 7.97899 13.3758 8.04199 13.3066C8.05533 13.292 8.06946 13.2781 8.08301 13.2637C8.14131 13.2015 8.20155 13.1413 8.26367 13.083C8.2719 13.0753 8.2798 13.0672 8.28809 13.0596C8.35798 12.9951 8.43052 12.9335 8.50488 12.874C8.52045 12.8616 8.536 12.8491 8.55176 12.8369C8.62539 12.7798 8.70072 12.7248 8.77832 12.6729C8.79048 12.6647 8.80318 12.6574 8.81543 12.6494C8.89408 12.598 8.97429 12.5488 9.05664 12.5029C9.0625 12.4997 9.06835 12.4964 9.07422 12.4932C9.15886 12.4466 9.24575 12.4038 9.33398 12.3633C9.35251 12.3548 9.37097 12.3461 9.38965 12.3379C9.47229 12.3015 9.55614 12.2672 9.6416 12.2363C9.66385 12.2283 9.68655 12.2215 9.70898 12.2139C9.89837 12.1493 10.094 12.0982 10.2949 12.0625C10.307 12.0604 10.319 12.0577 10.3311 12.0557C10.4304 12.0389 10.5311 12.0259 10.6328 12.0166C10.6497 12.0151 10.6666 12.014 10.6836 12.0127C10.788 12.0045 10.8935 12 11 12C11.1068 12 11.2127 12.0045 11.3174 12.0127C11.3327 12.0139 11.348 12.0152 11.3633 12.0166C11.467 12.0259 11.5696 12.0395 11.6709 12.0566C11.6807 12.0583 11.6905 12.0598 11.7002 12.0615C11.8034 12.0798 11.9055 12.101 12.0059 12.127C12.0131 12.1288 12.0201 12.1319 12.0273 12.1338C12.1206 12.1585 12.2123 12.1866 12.3027 12.2178C12.3168 12.2226 12.3308 12.2274 12.3447 12.2324C12.4362 12.2651 12.526 12.3009 12.6143 12.3398C12.6284 12.3461 12.6422 12.353 12.6562 12.3594C12.7454 12.4 12.8334 12.4424 12.9189 12.4893C12.9288 12.4947 12.9384 12.5004 12.9482 12.5059C13.027 12.5498 13.1034 12.5974 13.1787 12.6465C13.192 12.6551 13.2056 12.6631 13.2188 12.6719C13.2978 12.7247 13.3743 12.7807 13.4492 12.8389C13.4622 12.849 13.4754 12.8589 13.4883 12.8691C13.5633 12.9289 13.6365 12.9908 13.707 13.0557C13.716 13.0639 13.7245 13.0727 13.7334 13.0811C13.8779 13.2165 14.0126 13.3622 14.1357 13.5176C14.147 13.5318 14.1579 13.5462 14.1689 13.5605C14.2245 13.6326 14.2775 13.7064 14.3281 13.7822C14.3411 13.8016 14.3536 13.8212 14.3662 13.8408C14.4083 13.9064 14.449 13.9729 14.4873 14.041C14.4951 14.0549 14.5041 14.0681 14.5117 14.082L14.5176 14.0938C14.5615 14.1746 14.6013 14.2577 14.6396 14.3418C14.6458 14.3552 14.6522 14.3684 14.6582 14.3818C14.6985 14.4728 14.735 14.5657 14.7686 14.6602C14.772 14.67 14.7759 14.6796 14.7793 14.6895C14.8146 14.7913 14.8469 14.8946 14.874 15H20.126C20.1531 14.8946 20.1854 14.7913 20.2207 14.6895C20.2241 14.6797 20.227 14.6699 20.2305 14.6602C20.2641 14.5656 20.3014 14.4729 20.3418 14.3818C20.3478 14.3684 20.3542 14.3552 20.3604 14.3418C20.3987 14.2577 20.4385 14.1746 20.4824 14.0938L20.4883 14.082C20.4959 14.0681 20.5049 14.0549 20.5127 14.041C20.5514 13.9723 20.5922 13.905 20.6348 13.8389C20.6469 13.82 20.6585 13.8008 20.6709 13.7822C20.7215 13.7065 20.7746 13.6325 20.8301 13.5605C20.8411 13.5462 20.852 13.5318 20.8633 13.5176C20.9864 13.3622 21.1211 13.2165 21.2656 13.0811C21.2745 13.0727 21.283 13.0639 21.292 13.0557C21.3625 12.9908 21.4357 12.9289 21.5107 12.8691C21.5236 12.8589 21.5368 12.849 21.5498 12.8389C21.6247 12.7807 21.7013 12.7247 21.7803 12.6719C21.7934 12.6631 21.8071 12.6551 21.8203 12.6465C21.8956 12.5974 21.9721 12.5499 22.0508 12.5059C22.0606 12.5004 22.0702 12.4947 22.0801 12.4893C22.1656 12.4424 22.2536 12.4 22.3428 12.3594C22.3568 12.353 22.3706 12.3461 22.3848 12.3398C22.473 12.3009 22.5629 12.2651 22.6543 12.2324C22.6683 12.2274 22.6823 12.2226 22.6963 12.2178C22.7867 12.1866 22.8785 12.1585 22.9717 12.1338C22.9789 12.1319 22.9859 12.1288 22.9932 12.127C23.0935 12.1009 23.1956 12.0798 23.2988 12.0615C23.3086 12.0598 23.3184 12.0583 23.3281 12.0566C23.4294 12.0395 23.532 12.026 23.6357 12.0166C23.651 12.0152 23.6663 12.0139 23.6816 12.0127C23.7867 12.0044 23.8928 12 24 12ZM11 14C9.89543 14 9 14.8954 9 16C9 17.1046 9.89543 18 11 18C12.1046 18 13 17.1046 13 16C13 14.8954 12.1046 14 11 14ZM24 14C22.8954 14 22 14.8954 22 16C22 17.1046 22.8954 18 24 18C25.1046 18 26 17.1046 26 16C26 14.8954 25.1046 14 24 14Z" fill="currentColor"/>
</svg>
