<svg width="32" height="32" viewBox="0 0 32 32" fill="none" xmlns="http://www.w3.org/2000/svg">
<path d="M9.75 17C10.288 17 10.6238 17.3461 10.7744 17.5869C10.9338 17.8419 11 18.1325 11 18.4004V25.5996C11 25.8675 10.9338 26.1581 10.7744 26.4131C10.6238 26.6539 10.288 27 9.75 27H4.25C3.71201 27 3.37623 26.6539 3.22559 26.4131C3.06624 26.1581 3 25.8675 3 25.5996V18.4004C3 18.1325 3.06624 17.8419 3.22559 17.5869C3.37623 17.3461 3.71201 17 4.25 17H9.75ZM5 25H9V19H5V25Z" fill="currentColor"/>
<path d="M27.417 17C27.7535 17.0001 28.1022 17.0917 28.3945 17.292C28.6824 17.4894 29 17.8646 29 18.4004V25.5996C29 26.1354 28.6824 26.5106 28.3945 26.708C28.1022 26.9083 27.7535 26.9999 27.417 27H14.583C14.2465 26.9999 13.8978 26.9083 13.6055 26.708C13.3176 26.5106 13 26.1354 13 25.5996V18.4004C13 17.8646 13.3176 17.4894 13.6055 17.292C13.8978 17.0917 14.2465 17.0001 14.583 17H27.417ZM15 25H27V19H15V25Z" fill="currentColor"/>
<path d="M17.417 5C17.7535 5.00006 18.1022 5.09166 18.3945 5.29199C18.6824 5.48936 19 5.86463 19 6.40039V13.5996C19 14.1354 18.6824 14.5106 18.3945 14.708C18.1022 14.9083 17.7535 14.9999 17.417 15H4.58301C4.24648 14.9999 3.89776 14.9083 3.60547 14.708C3.31765 14.5106 3 14.1354 3 13.5996V6.40039C3 5.86463 3.31765 5.48936 3.60547 5.29199C3.89776 5.09166 4.24648 5.00006 4.58301 5H17.417ZM5 13H17V7H5V13Z" fill="currentColor"/>
<path d="M27.75 5C28.288 5 28.6238 5.34606 28.7744 5.58691C28.9338 5.84187 29 6.1325 29 6.40039V13.5996C29 13.8675 28.9338 14.1581 28.7744 14.4131C28.6238 14.6539 28.288 15 27.75 15H22.25C21.712 15 21.3762 14.6539 21.2256 14.4131C21.0662 14.1581 21 13.8675 21 13.5996V6.40039C21 6.1325 21.0662 5.84187 21.2256 5.58691C21.3762 5.34606 21.712 5 22.25 5H27.75ZM23 13H27V7H23V13Z" fill="currentColor"/>
</svg>
