<svg width="24" height="24" viewBox="0 0 24 24" fill="none" xmlns="http://www.w3.org/2000/svg">
<path d="M3 18.75C3 18.3358 3.33579 18 3.75 18H10.2337C10.5564 16.9157 11.5609 16.125 12.75 16.125C13.9391 16.125 14.9436 16.9157 15.2663 18H20.25C20.6642 18 21 18.3358 21 18.75C21 19.1642 20.6642 19.5 20.25 19.5H15.2663C14.9436 20.5843 13.9391 21.375 12.75 21.375C11.5609 21.375 10.5564 20.5843 10.2337 19.5H3.75C3.33579 19.5 3 19.1642 3 18.75ZM3 12C3 11.5858 3.33579 11.25 3.75 11.25H5.7337C6.05641 10.1657 7.06087 9.375 8.25 9.375C9.43913 9.375 10.4436 10.1657 10.7663 11.25L20.25 11.25C20.6642 11.25 21 11.5858 21 12C21 12.4142 20.6642 12.75 20.25 12.75L10.7663 12.75C10.4436 13.8343 9.43913 14.625 8.25 14.625C7.06087 14.625 6.05641 13.8343 5.7337 12.75H3.75C3.33579 12.75 3 12.4142 3 12ZM3 5.25C3 4.83579 3.33579 4.5 3.75 4.5H13.2337C13.5564 3.41569 14.5609 2.625 15.75 2.625C16.9391 2.625 17.9436 3.41569 18.2663 4.5H20.25C20.6642 4.5 21 4.83579 21 5.25C21 5.66421 20.6642 6 20.25 6H18.2663C17.9436 7.08431 16.9391 7.875 15.75 7.875C14.5609 7.875 13.5564 7.08431 13.2337 6H3.75C3.33579 6 3 5.66421 3 5.25ZM7.125 12C7.125 12.6213 7.62868 13.125 8.25 13.125C8.87132 13.125 9.375 12.6213 9.375 12C9.375 11.3787 8.87132 10.875 8.25 10.875C7.62868 10.875 7.125 11.3787 7.125 12ZM11.625 18.75C11.625 19.3713 12.1287 19.875 12.75 19.875C13.3713 19.875 13.875 19.3713 13.875 18.75C13.875 18.1287 13.3713 17.625 12.75 17.625C12.1287 17.625 11.625 18.1287 11.625 18.75ZM14.625 5.25C14.625 5.87132 15.1287 6.375 15.75 6.375C16.3713 6.375 16.875 5.87132 16.875 5.25C16.875 4.62868 16.3713 4.125 15.75 4.125C15.1287 4.125 14.625 4.62868 14.625 5.25Z" fill="currentColor"/>
</svg>
