<svg width="25" height="24" viewBox="0 0 25 24" fill="none" xmlns="http://www.w3.org/2000/svg">
<path d="M6.77619 5.76282C6.72644 5.61344 6.63094 5.48352 6.50323 5.39145C6.37552 5.29938 6.22207 5.24984 6.06463 5.24984C5.90719 5.24984 5.75375 5.29938 5.62603 5.39145C5.49832 5.48352 5.40282 5.61344 5.35307 5.76282L1.60307 17.0128C1.56548 17.1256 1.55523 17.2456 1.57315 17.3631C1.59108 17.4806 1.63666 17.5921 1.70615 17.6886C1.77565 17.785 1.86706 17.8635 1.97285 17.9176C2.07864 17.9718 2.19579 18 2.31463 18H9.81463C9.93348 18 10.0506 17.9718 10.1564 17.9176C10.2622 17.8635 10.3536 17.785 10.4231 17.6886C10.4926 17.5921 10.5382 17.4806 10.5561 17.3631C10.574 17.2456 10.5638 17.1256 10.5262 17.0128L6.77619 5.76282ZM3.35526 16.5L6.06463 8.37188L8.77401 16.5H3.35526ZM19.5646 7.125C19.5646 6.16082 19.2787 5.21829 18.743 4.4166C18.2074 3.61491 17.446 2.99007 16.5552 2.62109C15.6644 2.25211 14.6842 2.15557 13.7386 2.34367C12.7929 2.53178 11.9243 2.99608 11.2425 3.67786C10.5607 4.35964 10.0964 5.22828 9.9083 6.17394C9.7202 7.11959 9.81674 8.09979 10.1857 8.99058C10.5547 9.88137 11.1795 10.6427 11.9812 11.1784C12.7829 11.7141 13.7254 12 14.6896 12C15.9821 11.9985 17.2212 11.4844 18.1351 10.5705C19.049 9.65659 19.5631 8.41748 19.5646 7.125ZM11.3146 7.125C11.3146 6.45749 11.5126 5.80497 11.8834 5.24995C12.2543 4.69494 12.7814 4.26235 13.3981 4.00691C14.0148 3.75146 14.6934 3.68463 15.3481 3.81485C16.0027 3.94508 16.6041 4.26651 17.0761 4.73852C17.5481 5.21052 17.8696 5.81189 17.9998 6.46657C18.13 7.12126 18.0632 7.79986 17.8077 8.41656C17.5523 9.03326 17.1197 9.56036 16.5647 9.93121C16.0097 10.3021 15.3571 10.5 14.6896 10.5C13.7945 10.5 12.9361 10.1444 12.3031 9.51149C11.6702 8.87855 11.3146 8.02011 11.3146 7.125ZM21.0646 13.5H12.8146C12.6157 13.5 12.425 13.579 12.2843 13.7197C12.1436 13.8603 12.0646 14.0511 12.0646 14.25V19.5C12.0646 19.6989 12.1436 19.8897 12.2843 20.0303C12.425 20.171 12.6157 20.25 12.8146 20.25H21.0646C21.2635 20.25 21.4543 20.171 21.595 20.0303C21.7356 19.8897 21.8146 19.6989 21.8146 19.5V14.25C21.8146 14.0511 21.7356 13.8603 21.595 13.7197C21.4543 13.579 21.2635 13.5 21.0646 13.5ZM20.3146 18.75H13.5646V15H20.3146V18.75Z" fill="currentColor"/>
</svg>
