<svg width="25" height="24" viewBox="0 0 25 24" fill="none" xmlns="http://www.w3.org/2000/svg">
<path d="M6.76674 5.67656C6.69753 5.44438 6.55521 5.24074 6.36096 5.09594C6.1667 4.95114 5.93089 4.87292 5.68861 4.87292C5.44633 4.87292 5.21052 4.95114 5.01627 5.09594C4.82201 5.24074 4.67969 5.44438 4.61049 5.67656L1.23549 16.9266C1.18502 17.0947 1.1746 17.2723 1.20504 17.4451C1.23549 17.618 1.30596 17.7813 1.41082 17.9221C1.51568 18.0629 1.65203 18.1771 1.80895 18.2558C1.96587 18.3344 2.13902 18.3752 2.31455 18.375H9.06455C9.23992 18.375 9.41284 18.3339 9.56953 18.2551C9.72621 18.1764 9.86231 18.0621 9.96696 17.9214C10.0716 17.7806 10.1419 17.6174 10.1723 17.4447C10.2026 17.272 10.1922 17.0945 10.1417 16.9266L6.76674 5.67656ZM3.82674 16.125L5.68955 9.915L7.55236 16.125H3.82674ZM19.9395 6.9375C19.9395 5.93623 19.6426 4.95745 19.0864 4.12493C18.5301 3.2924 17.7394 2.64353 16.8144 2.26036C15.8893 1.87719 14.8714 1.77694 13.8894 1.97228C12.9074 2.16761 12.0053 2.64977 11.2973 3.35777C10.5893 4.06578 10.1072 4.96783 9.91182 5.94986C9.71649 6.93189 9.81674 7.94979 10.1999 8.87484C10.5831 9.79989 11.232 10.5905 12.0645 11.1468C12.897 11.7031 13.8758 12 14.877 12C16.2193 11.9985 17.5061 11.4647 18.4551 10.5156C19.4042 9.56651 19.9381 8.2797 19.9395 6.9375ZM12.0645 6.9375C12.0645 6.38124 12.2295 5.83747 12.5385 5.37496C12.8476 4.91245 13.2868 4.55196 13.8008 4.33909C14.3147 4.12622 14.8802 4.07052 15.4257 4.17904C15.9713 4.28756 16.4725 4.55543 16.8658 4.94876C17.2591 5.3421 17.527 5.84324 17.6355 6.38881C17.744 6.93438 17.6883 7.49988 17.4755 8.0138C17.2626 8.52772 16.9021 8.96697 16.4396 9.27601C15.9771 9.58505 15.4333 9.75 14.877 9.75C14.1311 9.75 13.4158 9.45369 12.8883 8.92624C12.3609 8.39879 12.0645 7.68342 12.0645 6.9375ZM21.0645 13.5H12.8145C12.5162 13.5 12.23 13.6185 12.0191 13.8295C11.8081 14.0405 11.6895 14.3266 11.6895 14.625V19.5C11.6895 19.7984 11.8081 20.0845 12.0191 20.2955C12.23 20.5065 12.5162 20.625 12.8145 20.625H21.0645C21.3629 20.625 21.6491 20.5065 21.86 20.2955C22.071 20.0845 22.1895 19.7984 22.1895 19.5V14.625C22.1895 14.3266 22.071 14.0405 21.86 13.8295C21.6491 13.6185 21.3629 13.5 21.0645 13.5ZM19.9395 18.375H13.9395V15.75H19.9395V18.375Z" fill="currentColor"/>
</svg>
