<svg width="24" height="24" viewBox="0 0 24 24" fill="none" xmlns="http://www.w3.org/2000/svg">
<path d="M11.7437 2.29515C11.9093 2.23495 12.0907 2.23495 12.2563 2.29515L20.5063 5.29515C20.8027 5.40293 21 5.68461 21 5.99998V9.75C21 13.095 20.012 15.7048 18.3923 17.6789C16.7805 19.6432 14.584 20.9292 12.2372 21.7115C12.0832 21.7628 11.9168 21.7628 11.7628 21.7115C9.41597 20.9292 7.21943 19.6432 5.60768 17.6789C3.98792 15.7048 2.99999 13.095 3 9.75V5.99999C3 5.68461 3.1973 5.40293 3.49369 5.29515L11.7437 2.29515ZM4.5 6.52532V9.75C4.49999 12.78 5.38705 15.0452 6.76729 16.7274C8.10437 18.357 9.94257 19.4851 12 20.2073C14.0574 19.4851 15.8956 18.357 17.2327 16.7274C18.6129 15.0452 19.5 12.78 19.5 9.75V6.52532L12 3.79805L4.5 6.52532Z" fill="currentColor"/>
</svg>
