<svg width="24" height="24" viewBox="0 0 24 24" fill="none" xmlns="http://www.w3.org/2000/svg">
<path d="M4.58167 3.40967C4.70967 3.15829 4.96791 3 5.25 3H18C18.4142 3 18.75 3.33579 18.75 3.75V7.55769C18.75 7.97191 18.4142 8.30769 18 8.30769C17.5858 8.30769 17.25 7.97191 17.25 7.55769V4.5H6.72283L11.8566 11.5589C12.0478 11.8219 12.0478 12.1781 11.8566 12.4411L6.72283 19.5H17.25V16.4423C17.25 16.0281 17.5858 15.6923 18 15.6923C18.4142 15.6923 18.75 16.0281 18.75 16.4423V20.25C18.75 20.6642 18.4142 21 18 21H5.25C4.96791 21 4.70967 20.8417 4.58167 20.5903C4.45366 20.339 4.47753 20.037 4.64345 19.8089L10.3226 12L4.64345 4.19113C4.47753 3.96299 4.45366 3.66104 4.58167 3.40967Z" fill="currentColor"/>
</svg>
