<svg width="16" height="16" viewBox="0 0 16 16" fill="none" xmlns="http://www.w3.org/2000/svg">
<path d="M14.4998 10.5H3.99106C4.15731 10.1725 4.32419 9.83562 4.49106 9.49312C5.42856 9.59625 6.52731 8.94438 7.78231 7.54688C8.09481 8.38812 8.68544 9.48 9.69356 9.5C10.2598 9.51125 10.8254 9.175 11.4073 8.47688C11.8317 8.98438 12.7061 9.5 14.4998 9.5C14.6324 9.5 14.7596 9.44732 14.8534 9.35355C14.9471 9.25979 14.9998 9.13261 14.9998 9C14.9998 8.86739 14.9471 8.74021 14.8534 8.64645C14.7596 8.55268 14.6324 8.5 14.4998 8.5C12.5979 8.5 12.0354 7.84688 11.9998 7.49312C12.0054 7.38582 11.9749 7.27974 11.913 7.1919C11.8511 7.10406 11.7615 7.03956 11.6586 7.00875C11.5516 6.97662 11.4371 6.98057 11.3326 7.01999C11.2281 7.05941 11.1395 7.13211 11.0804 7.22687C10.3261 8.38562 9.86919 8.50375 9.71044 8.5C9.19419 8.49 8.66919 7.28 8.48919 6.41125C8.46998 6.3182 8.42466 6.23256 8.35854 6.16433C8.29242 6.09611 8.20822 6.04814 8.11582 6.02604C8.02342 6.00394 7.92663 6.00863 7.8368 6.03955C7.74696 6.07046 7.66779 6.12634 7.60856 6.20062C6.34606 7.78438 5.49981 8.3175 4.97294 8.45562C5.50356 7.27625 5.89981 6.24062 6.15356 5.36875C6.57981 3.90375 6.61106 2.87937 6.24794 2.2375C6.06044 1.90125 5.66419 1.5 4.86919 1.5C3.86544 1.5 3.07356 2.44875 2.69606 4.10313C2.47169 5.085 2.43481 6.17875 2.59481 7.10313C2.75481 8.0275 3.08669 8.7 3.56919 9.09937C3.33606 9.58187 3.09856 10.0531 2.86731 10.5H1.49981C1.36721 10.5 1.24003 10.5527 1.14626 10.6464C1.05249 10.7402 0.999815 10.8674 0.999815 11C0.999815 11.1326 1.05249 11.2598 1.14626 11.3536C1.24003 11.4473 1.36721 11.5 1.49981 11.5H2.33794C1.63044 12.8125 1.08044 13.7275 1.07169 13.7425C1.03604 13.7988 1.01201 13.8617 1.00101 13.9274C0.990001 13.9931 0.992245 14.0604 1.00761 14.1252C1.02297 14.1901 1.05114 14.2512 1.09046 14.305C1.12978 14.3588 1.17945 14.4042 1.23657 14.4385C1.29369 14.4728 1.35709 14.4954 1.42305 14.5049C1.48901 14.5144 1.55621 14.5105 1.62067 14.4937C1.68514 14.4768 1.74559 14.4472 1.79847 14.4067C1.85134 14.3661 1.89557 14.3154 1.92856 14.2575C1.93794 14.2413 2.63294 13.0831 3.47231 11.5H14.4998C14.6324 11.5 14.7596 11.4473 14.8534 11.3536C14.9471 11.2598 14.9998 11.1326 14.9998 11C14.9998 10.8674 14.9471 10.7402 14.8534 10.6464C14.7596 10.5527 14.6324 10.5 14.4998 10.5ZM3.67106 4.32562C3.91981 3.23375 4.40169 2.5 4.86919 2.5C5.20231 2.5 5.31294 2.61625 5.37731 2.72937C5.56481 3.0625 5.78481 4.24125 4.02356 8.12875C3.50731 7.42375 3.33169 5.8125 3.67106 4.32562Z" fill="currentColor" />
</svg>
