<svg width="24" height="24" viewBox="0 0 24 24" fill="none" xmlns="http://www.w3.org/2000/svg">
<path d="M17.2501 6.00002C17.6643 6.00002 18.0001 5.66423 18.0001 5.25002C18.0001 4.8358 17.6643 4.50002 17.2501 4.50002C16.8358 4.50002 16.5001 4.8358 16.5001 5.25002C16.5001 5.66423 16.8358 6.00002 17.2501 6.00002Z" fill="currentColor"/>
<path d="M5.45067 13.2315C5.41713 12.9977 5.49571 12.7617 5.66274 12.5947L15.1287 3.12868C16.3003 1.95711 18.1998 1.95711 19.3714 3.12868C20.543 4.30025 20.543 6.19975 19.3714 7.37132L10.8374 15.9053C10.6019 16.1408 10.2393 16.1928 9.94715 16.033L5.83319 13.783C5.62595 13.6697 5.48421 13.4653 5.45067 13.2315ZM7.43134 12.9474L10.174 14.4474L18.3107 6.31066C18.8965 5.72487 18.8965 4.77513 18.3107 4.18934C17.7249 3.60355 16.7752 3.60355 16.1894 4.18934L7.43134 12.9474Z" fill="currentColor"/>
<path d="M3.75001 15.75C3.75001 15.5511 3.82903 15.3603 3.96969 15.2197L4.34469 14.8447C4.63759 14.5518 5.11246 14.5518 5.40535 14.8447C5.69824 15.1376 5.69823 15.6125 5.40533 15.9053L5.25001 16.0607L5.25 19.1893L7.44675 16.9926C7.73964 16.6997 8.21452 16.6997 8.50741 16.9926C8.8003 17.2855 8.8003 17.7604 8.50741 18.0533L5.03033 21.5303C4.81583 21.7448 4.49324 21.809 4.21299 21.6929C3.93273 21.5768 3.75 21.3033 3.75 21L3.75001 15.75Z" fill="currentColor"/>
</svg>
