<svg width="24" height="24" viewBox="0 0 24 24" fill="none" xmlns="http://www.w3.org/2000/svg">
<path d="M5.68935 2.68934C5.97066 2.40804 6.35219 2.25 6.75001 2.25H17.25C17.6478 2.25 18.0294 2.40804 18.3107 2.68934C18.592 2.97065 18.75 3.35218 18.75 3.75V7.09212C18.7486 7.3233 18.6941 7.55106 18.5907 7.75783C18.4873 7.96461 18.3378 8.14487 18.1537 8.28471L13.2431 12L18.1537 15.7153C18.3378 15.8551 18.4873 16.0354 18.5907 16.2422C18.6941 16.4489 18.7486 16.6767 18.75 16.9079L18.75 16.9125L18.75 20.25C18.75 20.6478 18.592 21.0294 18.3107 21.3107C18.0294 21.592 17.6478 21.75 17.25 21.75H6.75001C6.35219 21.75 5.97066 21.592 5.68935 21.3107C5.40805 21.0294 5.25001 20.6478 5.25001 20.25V16.8704C5.25144 16.6392 5.30596 16.4114 5.40935 16.2047C5.51274 15.9979 5.66224 15.8176 5.84632 15.6778L5.85001 15.675L10.75 12L5.84632 8.32223C5.66223 8.18238 5.51274 8.00211 5.40935 7.79533C5.30596 7.58856 5.25145 7.3608 5.25003 7.12962L5.25 7.125L5.25001 3.75C5.25001 3.35217 5.40805 2.97064 5.68935 2.68934ZM11.998 11.061L17.2463 7.09029C17.2463 7.09032 17.2464 7.09025 17.2463 7.09029C17.2474 7.08943 17.2484 7.08825 17.249 7.08701C17.2496 7.08587 17.2499 7.08462 17.25 7.08334V3.75H6.75001V7.12084C6.75009 7.12212 6.75042 7.12337 6.75099 7.12451C6.75156 7.12566 6.75236 7.12667 6.75334 7.12749L11.998 11.061ZM11.998 12.939L7.74276 16.1304L16.2515 16.157L11.998 12.939ZM17.25 17.6602L6.75001 17.6273V20.25H17.25V17.6602Z" fill="currentColor"/>
</svg>
