<svg width="24" height="24" viewBox="0 0 24 24" fill="none" xmlns="http://www.w3.org/2000/svg">
<path d="M10.1258 21.525C10.7258 21.675 11.4008 21.75 12.0008 21.75C13.2758 21.75 14.5508 21.525 15.7508 21C17.5508 20.25 19.0508 19.05 20.1008 17.4C21.1508 15.825 21.7508 13.95 21.7508 12C21.7508 11.55 21.6758 11.025 21.6008 10.5C21.6008 10.125 21.1508 9.825 20.7758 9.9C20.4008 9.9 20.1008 10.35 20.1758 10.725C20.2508 11.1 20.2508 11.55 20.2508 12C20.2508 13.65 19.7258 15.075 18.8258 16.5C17.9258 17.925 16.6508 18.975 15.1508 19.575C13.5758 20.175 11.9258 20.325 10.3508 20.025C8.7758 19.725 7.2758 18.9 6.1508 17.775C5.0258 16.65 4.2008 15.15 3.9008 13.575C3.6008 12 3.6758 10.35 4.3508 8.85C5.0258 7.35 6.0758 6.075 7.4258 5.175C8.7758 4.2 10.3508 3.75 12.0008 3.75C12.4508 3.75 12.9008 3.75 13.2758 3.825C13.6508 3.9 14.0258 3.6 14.1008 3.225C14.1758 2.85 13.8758 2.475 13.5008 2.4C13.0508 2.325 12.5258 2.25 12.0008 2.25C10.0508 2.25 8.1758 2.85 6.6008 3.9C4.9508 4.95 3.7508 6.45 3.0008 8.25C2.2508 10.05 2.0258 12 2.4008 13.8C2.7758 15.75 3.7508 17.475 5.1008 18.825C6.5258 20.25 8.2508 21.15 10.1258 21.525Z" fill="currentColor"/>
<path d="M16.5005 6H18.0005V7.5C18.0005 7.95 18.3005 8.25 18.7505 8.25C19.2005 8.25 19.5005 7.95 19.5005 7.5V6H21.0005C21.4505 6 21.7505 5.7 21.7505 5.25C21.7505 4.8 21.4505 4.5 21.0005 4.5H19.5005V3C19.5005 2.55 19.2005 2.25 18.7505 2.25C18.3005 2.25 18.0005 2.55 18.0005 3V4.5H16.5005C16.0505 4.5 15.7505 4.8 15.7505 5.25C15.7505 5.7 16.0505 6 16.5005 6Z" fill="currentColor"/>
<path d="M9.75049 10.125C9.75049 10.7463 9.24681 11.25 8.62549 11.25C8.00417 11.25 7.50049 10.7463 7.50049 10.125C7.50049 9.50368 8.00417 9 8.62549 9C9.24681 9 9.75049 9.50368 9.75049 10.125Z" fill="currentColor"/>
<path d="M15.3755 11.25C15.9968 11.25 16.5005 10.7463 16.5005 10.125C16.5005 9.50368 15.9968 9 15.3755 9C14.7542 9 14.2505 9.50368 14.2505 10.125C14.2505 10.7463 14.7542 11.25 15.3755 11.25Z" fill="currentColor"/>
<path d="M9.3753 16.575C10.2003 17.025 11.1003 17.25 12.0003 17.25C12.9003 17.25 13.8003 17.025 14.6253 16.575C15.4503 16.05 16.1253 15.45 16.5753 14.625C16.7253 14.25 16.6503 13.8 16.2753 13.575C15.9003 13.425 15.4503 13.5 15.2253 13.875C14.9253 14.4 14.4753 14.925 13.8753 15.225C12.7503 15.9 11.2503 15.9 10.1253 15.225C9.6003 14.925 9.0753 14.475 8.7753 13.875C8.5503 13.5 8.1003 13.35 7.7253 13.575C7.3503 13.8 7.2003 14.25 7.4253 14.625C7.9503 15.45 8.5503 16.125 9.3753 16.575Z" fill="currentColor"/>
</svg>
