<svg width="32" height="32" viewBox="0 0 32 32" fill="none" xmlns="http://www.w3.org/2000/svg">
<path fill-rule="evenodd" clip-rule="evenodd" d="M5 16C5 9.92487 9.92487 5 16 5C22.0751 5 27 9.92487 27 16C27 22.0751 22.0751 27 16 27C9.92487 27 5 22.0751 5 16ZM16 3C8.8203 3 3 8.8203 3 16C3 23.1797 8.8203 29 16 29C23.1797 29 29 23.1797 29 16C29 8.8203 23.1797 3 16 3ZM13 13.5C13 14.3284 12.3284 15 11.5 15C10.6716 15 10 14.3284 10 13.5C10 12.6716 10.6716 12 11.5 12C12.3284 12 13 12.6716 13 13.5ZM20.5 15C21.3284 15 22 14.3284 22 13.5C22 12.6716 21.3284 12 20.5 12C19.6716 12 19 12.6716 19 13.5C19 14.3284 19.6716 15 20.5 15ZM11.6647 18.498C11.3874 18.0203 10.7755 17.8579 10.2978 18.1351C9.82015 18.4124 9.65769 19.0244 9.93494 19.502C10.5515 20.5642 11.4362 21.4459 12.5006 22.0588C13.565 22.6716 14.7716 22.9942 15.9998 22.9942C17.228 22.9942 18.4347 22.6716 19.499 22.0588C20.5634 21.4459 21.4481 20.5642 22.0647 19.502C22.3419 19.0244 22.1795 18.4124 21.7018 18.1351C21.2242 17.8579 20.6122 18.0203 20.3349 18.498C19.8942 19.2573 19.2618 19.8875 18.501 20.3255C17.7402 20.7636 16.8777 20.9942 15.9998 20.9942C15.1219 20.9942 14.2594 20.7636 13.4986 20.3255C12.7378 19.8875 12.1054 19.2573 11.6647 18.498Z" fill="currentColor"/>
</svg>
