<svg width="24" height="24" viewBox="0 0 24 24" fill="none" xmlns="http://www.w3.org/2000/svg">
<path d="M3.75 12C3.75 7.44365 7.44365 3.75 12 3.75C16.5563 3.75 20.25 7.44365 20.25 12C20.25 16.5563 16.5563 20.25 12 20.25C7.44365 20.25 3.75 16.5563 3.75 12ZM12 2.25C6.61522 2.25 2.25 6.61522 2.25 12C2.25 17.3848 6.61522 21.75 12 21.75C17.3848 21.75 21.75 17.3848 21.75 12C21.75 6.61522 17.3848 2.25 12 2.25ZM9.75 10.125C9.75 10.7463 9.24632 11.25 8.625 11.25C8.00368 11.25 7.5 10.7463 7.5 10.125C7.5 9.50368 8.00368 9 8.625 9C9.24632 9 9.75 9.50368 9.75 10.125ZM15.375 11.25C15.9963 11.25 16.5 10.7463 16.5 10.125C16.5 9.50368 15.9963 9 15.375 9C14.7537 9 14.25 9.50368 14.25 10.125C14.25 10.7463 14.7537 11.25 15.375 11.25ZM8.7485 13.8735C8.54056 13.5153 8.08159 13.3934 7.72335 13.6014C7.36511 13.8093 7.24327 14.2683 7.4512 14.6265C7.91363 15.4232 8.57717 16.0844 9.37544 16.5441C10.1737 17.0037 11.0787 17.2456 11.9999 17.2456C12.921 17.2456 13.826 17.0037 14.6243 16.5441C15.4225 16.0844 16.0861 15.4232 16.5485 14.6265C16.7564 14.2683 16.6346 13.8093 16.2764 13.6014C15.9181 13.3934 15.4591 13.5153 15.2512 13.8735C14.9207 14.443 14.4464 14.9156 13.8758 15.2442C13.3052 15.5727 12.6583 15.7456 11.9999 15.7456C11.3414 15.7456 10.6945 15.5727 10.1239 15.2442C9.55334 14.9156 9.07904 14.443 8.7485 13.8735Z" fill="currentColor"/>
</svg>
