<svg width="24" height="24" viewBox="0 0 24 24" fill="none" xmlns="http://www.w3.org/2000/svg">
<path d="M6.75 10.92C6.75 10.7046 6.81154 10.6062 6.84434 10.5702C6.87102 10.541 6.92442 10.5003 7.05342 10.5C7.2198 10.5009 7.40973 10.569 7.59147 10.7425C7.89107 11.0285 8.36581 11.0175 8.65184 10.7179C8.93788 10.4183 8.92688 9.94356 8.62728 9.65753C8.2 9.24959 7.65089 9.00201 7.05723 9L7.05469 9C6.55179 9 6.07812 9.18414 5.73574 9.55978C5.3994 9.92879 5.25 10.4154 5.25 10.92C5.25 11.5204 5.52483 11.9509 5.91068 12.2313C6.21102 12.4495 6.58298 12.5749 6.83062 12.6584L6.88357 12.6763C7.18915 12.7802 7.34362 12.8433 7.43716 12.9162L7.4409 12.9191C7.47554 12.946 7.5 12.965 7.5 13.08C7.5 13.228 7.47681 13.313 7.45885 13.3566C7.44259 13.396 7.42654 13.4124 7.41437 13.4223C7.38201 13.4488 7.28253 13.4998 7.05608 13.5C6.88967 13.4991 6.69969 13.4311 6.51791 13.2575C6.21831 12.9715 5.74356 12.9825 5.45753 13.2821C5.1715 13.5817 5.1825 14.0564 5.48209 14.3425C5.90938 14.7504 6.45848 14.998 7.05215 15H7.05469C7.46007 15 7.9579 14.9161 8.36493 14.5827C8.79994 14.2263 9 13.6952 9 13.08C9 12.4791 8.74498 12.034 8.35971 11.7335C8.0416 11.4853 7.64867 11.352 7.39085 11.2645L7.36643 11.2562C7.04897 11.1482 6.89171 11.0899 6.79245 11.0178L6.78334 11.0113C6.75531 10.9915 6.75 10.9878 6.75 10.92Z" fill="currentColor"/>
<path d="M16.5943 10.5702C16.5615 10.6062 16.5 10.7046 16.5 10.92C16.5 10.9878 16.5053 10.9915 16.5333 11.0113L16.5425 11.0178C16.6417 11.0899 16.799 11.1482 17.1164 11.2562L17.1409 11.2645C17.3987 11.352 17.7916 11.4853 18.1097 11.7335C18.495 12.034 18.75 12.4791 18.75 13.08C18.75 13.6952 18.5499 14.2263 18.1149 14.5827C17.7079 14.9161 17.2101 15 16.8047 15H16.8021C16.2085 14.998 15.6594 14.7504 15.2321 14.3425C14.9325 14.0564 14.9215 13.5817 15.2075 13.2821C15.4936 12.9825 15.9683 12.9715 16.2679 13.2575C16.4497 13.4311 16.6397 13.4991 16.8061 13.5C17.0325 13.4998 17.132 13.4488 17.1644 13.4223C17.1765 13.4124 17.1926 13.396 17.2089 13.3566C17.2268 13.313 17.25 13.228 17.25 13.08C17.25 12.965 17.2255 12.946 17.1909 12.9191L17.1872 12.9162C17.0936 12.8433 16.9392 12.7802 16.6336 12.6763L16.5806 12.6584C16.333 12.5749 15.961 12.4495 15.6607 12.2313C15.2748 11.9509 15 11.5204 15 10.92C15 10.4154 15.1494 9.92879 15.4857 9.55978C15.8281 9.18414 16.3018 9 16.8047 9H16.8072C17.4009 9.00201 17.95 9.24959 18.3773 9.65753C18.6769 9.94356 18.6879 10.4183 18.4018 10.7179C18.1158 11.0175 17.6411 11.0285 17.3415 10.7425C17.1597 10.569 16.9698 10.5009 16.8034 10.5C16.6744 10.5003 16.621 10.541 16.5943 10.5702Z" fill="currentColor"/>
<path d="M11.1771 9.42753C11.0264 9.11105 10.6766 8.94117 10.3347 9.01842C9.9928 9.09567 9.75 9.39945 9.75 9.74998V14.25C9.75 14.6642 10.0858 15 10.5 15C10.9142 15 11.25 14.6642 11.25 14.25V13.0694L11.3229 13.2224C11.4472 13.4836 11.7107 13.65 12 13.65C12.2893 13.65 12.5528 13.4836 12.6771 13.2224L12.75 13.0694V14.25C12.75 14.6642 13.0858 15 13.5 15C13.9142 15 14.25 14.6642 14.25 14.25V9.74998C14.25 9.39945 14.0072 9.09567 13.6653 9.01842C13.3234 8.94117 12.9736 9.11105 12.8229 9.42753L12 11.1555L11.1771 9.42753Z" fill="currentColor"/>
<path d="M3.75002 4.5C3.3522 4.5 2.97067 4.65804 2.68936 4.93934C2.40806 5.22064 2.25002 5.60217 2.25002 6L2.25 20.8875L2.25005 20.8934C2.25229 21.1771 2.33492 21.4543 2.48834 21.6929C2.64175 21.9314 2.85967 22.1216 3.11681 22.2414C3.37394 22.3611 3.65976 22.4055 3.9411 22.3693C4.22244 22.3332 4.48778 22.218 4.70631 22.0372L7.68995 19.5342L7.78732 19.5H20.25C20.6478 19.5 21.0294 19.342 21.3107 19.0607C21.592 18.7794 21.75 18.3978 21.75 18V6C21.75 5.60218 21.592 5.22065 21.3107 4.93934C21.0294 4.65804 20.6478 4.5 20.25 4.5H3.75002ZM3.75002 6L20.25 6V18H7.6594C7.57473 18 7.49067 18.0143 7.41078 18.0424L7.06391 18.1643C6.97873 18.1942 6.89966 18.2393 6.8305 18.2973L3.75002 20.8815V6Z" fill="currentColor"/>
</svg>
