<svg width="24" height="24" viewBox="0 0 24 24" fill="none" xmlns="http://www.w3.org/2000/svg">
<path d="M14.25 3C14.6642 3 15 3.33579 15 3.75V6.92536L17.6141 5.35688C17.9693 5.14377 18.43 5.25894 18.6431 5.61413C18.8563 5.96931 18.7411 6.43001 18.3859 6.64312L14.6359 8.89312C14.4042 9.03214 14.1156 9.03578 13.8805 8.90265C13.6454 8.76952 13.5 8.5202 13.5 8.25V3.75C13.5 3.33579 13.8358 3 14.25 3Z" fill="currentColor"/>
<path d="M10.1201 15.0974C10.3552 15.2305 10.5006 15.4798 10.5006 15.75L10.5003 20.25C10.5003 20.6642 10.1645 21 9.75028 21C9.33606 21 9.00029 20.6642 9.00032 20.2499L9.00049 17.0747L6.3865 18.6431C6.03132 18.8562 5.57062 18.7411 5.35751 18.3859C5.14439 18.0307 5.25956 17.57 5.61474 17.3569L9.36468 15.1069C9.59638 14.9679 9.88496 14.9642 10.1201 15.0974Z" fill="currentColor"/>
<path d="M10.5003 3.75004C10.5003 3.33582 10.1645 3.00002 9.7503 3.00001C9.33608 3 9.00028 3.33577 9.00027 3.74998L9.00016 6.92533L6.38632 5.35689C6.03115 5.14376 5.57045 5.25892 5.35732 5.61409C5.1442 5.96927 5.25935 6.42997 5.61453 6.6431L9.36422 8.89311C9.59591 9.03214 9.88448 9.03579 10.1196 8.90267C10.3548 8.76955 10.5001 8.52023 10.5001 8.25003L10.5003 3.75004Z" fill="currentColor"/>
<path d="M13.8801 15.0973C14.1152 14.9642 14.4038 14.9678 14.6355 15.1069L18.3855 17.3569C18.7406 17.57 18.8558 18.0307 18.6427 18.3859C18.4296 18.741 17.9689 18.8562 17.6137 18.6431L14.9996 17.0746V20.25C14.9996 20.6642 14.6638 21 14.2496 21C13.8354 21 13.4996 20.6642 13.4996 20.25V15.75C13.4996 15.4798 13.6449 15.2305 13.8801 15.0973Z" fill="currentColor"/>
<path d="M4.13597 9.10687C3.78078 8.89377 3.32009 9.00896 3.10698 9.36415C2.89388 9.71934 3.00907 10.18 3.36426 10.3931L6.04378 12.0008L3.36452 13.6067C3.00925 13.8197 2.89387 14.2803 3.10682 14.6356C3.31978 14.9909 3.78042 15.1062 4.1357 14.8933L7.88767 12.6443C8.11369 12.5089 8.25203 12.2647 8.25208 12.0012C8.25214 11.7377 8.1139 11.4935 7.88794 11.3579L4.13597 9.10687Z" fill="currentColor"/>
<path d="M20.8936 9.36435C21.1066 9.7196 20.9913 10.1803 20.6361 10.3933L17.957 11.9996L20.6358 13.6081C20.991 13.8213 21.106 14.2821 20.8928 14.6372C20.6795 14.9923 20.2188 15.1073 19.8637 14.8941L16.1132 12.6421C15.8873 12.5065 15.7492 12.2623 15.7492 11.9989C15.7493 11.7354 15.8876 11.4914 16.1136 11.3559L19.8647 9.10678C20.22 8.89378 20.6806 9.00909 20.8936 9.36435Z" fill="currentColor"/>
<path d="M12.5304 9.96978C12.2375 9.67689 11.7627 9.67689 11.4698 9.96978L9.96976 11.4698C9.67687 11.7627 9.67687 12.2375 9.96976 12.5304L11.4698 14.0304C11.7627 14.3233 12.2375 14.3233 12.5304 14.0304L14.0304 12.5304C14.3233 12.2375 14.3233 11.7627 14.0304 11.4698L12.5304 9.96978ZM11.5608 12.0001L12.0001 11.5608L12.4394 12.0001L12.0001 12.4394L11.5608 12.0001Z" fill="currentColor"/>
</svg>
