<svg width="24" height="24" viewBox="0 0 24 24" fill="none" xmlns="http://www.w3.org/2000/svg">
<path d="M3.75 6C3.75 5.58579 4.08579 5.25 4.5 5.25H17.25C17.6642 5.25 18 5.58579 18 6C18 6.41421 17.6642 6.75 17.25 6.75H4.5C4.08579 6.75 3.75 6.41421 3.75 6ZM17.25 9.75C17.6642 9.75 18 10.0858 18 10.5V17.6893L20.4697 15.2197C20.7626 14.9268 21.2374 14.9268 21.5303 15.2197C21.8232 15.5126 21.8232 15.9874 21.5303 16.2803L17.7803 20.0303C17.4874 20.3232 17.0126 20.3232 16.7197 20.0303L12.9697 16.2803C12.6768 15.9874 12.6768 15.5126 12.9697 15.2197C13.2626 14.9268 13.7374 14.9268 14.0303 15.2197L16.5 17.6893V10.5C16.5 10.0858 16.8358 9.75 17.25 9.75ZM3.75 12C3.75 11.5858 4.08579 11.25 4.5 11.25H11.25C11.6642 11.25 12 11.5858 12 12C12 12.4142 11.6642 12.75 11.25 12.75H4.5C4.08579 12.75 3.75 12.4142 3.75 12ZM3.75 18C3.75 17.5858 4.08579 17.25 4.5 17.25H9.75C10.1642 17.25 10.5 17.5858 10.5 18C10.5 18.4142 10.1642 18.75 9.75 18.75H4.5C4.08579 18.75 3.75 18.4142 3.75 18Z" fill="currentColor"/>
</svg>
