<svg width="24" height="24" viewBox="0 0 24 24" fill="none" xmlns="http://www.w3.org/2000/svg">
<path fill-rule="evenodd" clip-rule="evenodd" d="M20.7803 18.1553C21.0732 17.8624 21.0732 17.3876 20.7803 17.0947C20.4875 16.8018 20.0126 16.8018 19.7197 17.0947L17.625 19.1894V3C17.625 2.58579 17.2892 2.25 16.875 2.25C16.4609 2.25 16.125 2.58578 16.125 3V19.1894L14.0303 17.0947C13.7375 16.8018 13.2626 16.8018 12.9697 17.0947C12.6768 17.3876 12.6768 17.8624 12.9697 18.1553L16.3442 21.5299C16.5273 21.7129 16.7819 21.782 17.0183 21.7363C17.1601 21.7088 17.2955 21.6401 17.4053 21.5303L20.7803 18.1553ZM5.80758 11.0583C5.7187 11.0347 5.63629 10.9953 5.56359 10.9432C5.4748 10.8798 5.40343 10.7997 5.35134 10.7098C5.29904 10.6198 5.2649 10.518 5.25395 10.4093C5.24481 10.3204 5.25145 10.2295 5.27508 10.1407C5.29307 10.0727 5.32036 10.0086 5.3555 9.94965L8.04098 5.25013H6.00013C5.58592 5.25013 5.25013 4.91435 5.25013 4.50013C5.25013 4.08592 5.58592 3.75013 6.00013 3.75013H9.3201C9.38873 3.74885 9.45795 3.75699 9.5259 3.77507C9.6147 3.7986 9.69705 3.838 9.76973 3.89007C9.8586 3.95347 9.93 4.03361 9.98213 4.12362C10.0345 4.21366 10.0687 4.3156 10.0796 4.4244C10.0886 4.51283 10.082 4.60336 10.0586 4.69166C10.0406 4.75999 10.0133 4.8245 9.97793 4.88374L7.29252 9.58328H9.3333C9.74753 9.58328 10.0833 9.91905 10.0833 10.3333C10.0833 10.7474 9.74753 11.0833 9.3333 11.0833H6.01332C5.94473 11.0845 5.87549 11.0764 5.80758 11.0583ZM8.24475 14.4697C8.17898 14.4039 8.10233 14.3518 8.01938 14.3149C7.81943 14.2256 7.59795 14.2311 7.40919 14.3149C7.32623 14.3518 7.24958 14.4039 7.18382 14.4697C7.12907 14.5244 7.08385 14.5867 7.04897 14.6538L3.83979 20.6137C3.64341 20.9784 3.77987 21.4333 4.14457 21.6296C4.50927 21.826 4.96413 21.6896 5.16051 21.3248L6.09369 19.5918H9.33488L10.2681 21.3248C10.4645 21.6896 10.9193 21.826 11.284 21.6296C11.6487 21.4333 11.7851 20.9784 11.5888 20.6137L8.3796 14.6538C8.34473 14.5867 8.2995 14.5244 8.24475 14.4697ZM8.5272 18.0918L7.71428 16.5821L6.90138 18.0918H8.5272Z" fill="currentColor"/>
</svg>
