<svg width="24" height="24" viewBox="0 0 24 24" fill="none" xmlns="http://www.w3.org/2000/svg">
<path fill-rule="evenodd" clip-rule="evenodd" d="M20.7803 18.1553C21.0732 17.8624 21.0732 17.3876 20.7803 17.0947C20.4875 16.8018 20.0126 16.8018 19.7197 17.0947L17.625 19.1894V3C17.625 2.58579 17.2892 2.25 16.875 2.25C16.4609 2.25 16.125 2.58578 16.125 3V19.1894L14.0303 17.0947C13.7375 16.8018 13.2626 16.8018 12.9697 17.0947C12.6768 17.3876 12.6768 17.8624 12.9697 18.1553L16.3442 21.5299C16.5273 21.7129 16.7819 21.782 17.0183 21.7363C17.1601 21.7088 17.2955 21.6401 17.4053 21.5303L20.7803 18.1553ZM8.24475 3.96968C8.17898 3.90387 8.10233 3.85184 8.01938 3.81497C7.81943 3.72566 7.59795 3.73107 7.40919 3.81497C7.32623 3.85184 7.24958 3.90387 7.18382 3.96968C7.12907 4.02439 7.08385 4.08665 7.04897 4.1538L3.83979 10.1137C3.64341 10.4784 3.77987 10.9333 4.14457 11.1296C4.50927 11.326 4.96413 11.1895 5.16051 10.8248L6.09369 9.0918H9.33488L10.2681 10.8248C10.4645 11.1895 10.9193 11.326 11.284 11.1296C11.6487 10.9333 11.7851 10.4784 11.5888 10.1137L8.3796 4.1538C8.34473 4.08665 8.2995 4.02439 8.24475 3.96968ZM8.5272 7.5918L7.71428 6.08209L6.90138 7.5918H8.5272ZM5.80758 21.7458C5.7187 21.7222 5.63629 21.6828 5.56359 21.6307C5.4748 21.5673 5.40343 21.4872 5.35134 21.3973C5.29904 21.3073 5.2649 21.2055 5.25395 21.0968C5.24481 21.0079 5.25145 20.917 5.27508 20.8282C5.29307 20.7602 5.32036 20.6961 5.3555 20.6371L8.04098 15.9377H6.00013C5.58592 15.9377 5.25013 15.6019 5.25013 15.1877C5.25013 14.7734 5.58592 14.4377 6.00013 14.4377H9.3201C9.38873 14.4364 9.45795 14.4445 9.5259 14.4625C9.6147 14.4861 9.69705 14.5255 9.76973 14.5776C9.8586 14.641 9.93 14.7211 9.98213 14.8111C10.0345 14.9011 10.0687 15.0031 10.0796 15.1119C10.0886 15.2003 10.082 15.2909 10.0586 15.3791C10.0406 15.4475 10.0133 15.512 9.97793 15.5712L7.29252 20.2708H9.3333C9.74753 20.2708 10.0833 20.6066 10.0833 21.0208C10.0833 21.4349 9.74753 21.7708 9.3333 21.7708H6.01332C5.94473 21.772 5.87549 21.7639 5.80758 21.7458Z" fill="currentColor"/>
</svg>
