<svg width="24" height="24" viewBox="0 0 24 24" fill="none" xmlns="http://www.w3.org/2000/svg">
<path d="M5.25 2.25C4.85217 2.25 4.47064 2.40804 4.18934 2.68934C3.90804 2.97064 3.75 3.35217 3.75 3.75V12C3.75 12.4142 4.08579 12.75 4.5 12.75C4.91421 12.75 5.25 12.4142 5.25 12L5.25 3.75L13.5 3.75V9C13.5 9.41421 13.8358 9.75 14.25 9.75H18.75V12C18.75 12.4142 19.0858 12.75 19.5 12.75C19.9142 12.75 20.25 12.4142 20.25 12V8.25C20.25 8.05109 20.171 7.86032 20.0303 7.71967L14.7803 2.46967C14.6397 2.32902 14.4489 2.25 14.25 2.25H5.25ZM18.4393 8.25H15V4.81066L18.4393 8.25Z" fill="currentColor"/>
<path d="M5.25007 16.9153C5.26246 16.9258 5.28615 16.9433 5.32772 16.966C5.50784 17.0641 5.77632 17.1352 6.18538 17.2395L6.20809 17.2453C6.55577 17.3339 7.02869 17.4544 7.41002 17.6775C7.85115 17.9355 8.25006 18.3813 8.25006 19.08C8.25006 19.7823 7.93429 20.3208 7.41221 20.6415C6.94685 20.9274 6.38506 21 5.90631 21L5.9044 21C5.24393 20.9983 4.59848 20.7929 4.06342 20.4098C3.72664 20.1686 3.64912 19.7001 3.89026 19.3634C4.13141 19.0266 4.59992 18.9491 4.93669 19.1902C5.21406 19.3888 5.55435 19.4989 5.90738 19.5C6.27176 19.4999 6.50651 19.4375 6.62697 19.3635C6.67701 19.3327 6.69924 19.3052 6.71246 19.2812C6.72613 19.2563 6.75006 19.1987 6.75006 19.08C6.75006 19.077 6.75052 19.0742 6.75099 19.0713C6.75389 19.0533 6.75712 19.0334 6.6526 18.9722C6.4798 18.8711 6.21515 18.7951 5.81474 18.693L5.74866 18.6762C5.41349 18.5912 4.96818 18.4783 4.6099 18.2831C4.40643 18.1722 4.18727 18.0132 4.01877 17.7774C3.84239 17.5306 3.75006 17.2391 3.75006 16.92C3.75006 16.3474 3.98225 15.838 4.41023 15.4859C4.82301 15.1462 5.35782 15 5.90631 15H5.90821C6.56868 15.0017 7.21413 15.2071 7.74919 15.5902C8.08597 15.8314 8.1635 16.2999 7.92235 16.6366C7.6812 16.9734 7.2127 17.0509 6.87592 16.8098C6.59859 16.6112 6.25835 16.5011 5.90536 16.5C5.61068 16.5002 5.44265 16.5789 5.36332 16.6441C5.29981 16.6964 5.25111 16.771 5.25007 16.9153Z" fill="currentColor"/>
<path d="M18.75 15.75C18.75 15.3358 18.4142 15 18 15C17.5858 15 17.25 15.3358 17.25 15.75V20.25C17.25 20.6642 17.5858 21 18 21H20.25C20.6642 21 21 20.6642 21 20.25C21 19.8358 20.6642 19.5 20.25 19.5H18.75V15.75Z" fill="currentColor"/>
<path d="M14.8709 18.9218C14.9554 18.6248 15 18.3134 15 18C15 16.477 13.947 15 12.375 15C10.803 15 9.75 16.477 9.75 18C9.75 19.523 10.803 21 12.375 21C13.0838 21 13.6872 20.6997 14.136 20.2302L14.6131 20.5175C14.968 20.7312 15.4288 20.6167 15.6425 20.2618C15.8561 19.907 15.7417 19.4461 15.3868 19.2325L14.8709 18.9218ZM11.25 18C11.25 17.0377 11.8759 16.5 12.375 16.5C12.8741 16.5 13.5 17.0377 13.5 18C13.5 18.9623 12.8741 19.5 12.375 19.5C11.8759 19.5 11.25 18.9623 11.25 18Z" fill="currentColor"/>
</svg>
