<svg width="24" height="24" viewBox="0 0 24 24" fill="none" xmlns="http://www.w3.org/2000/svg">
<path d="M3.75 4.5C3.75 4.08579 4.08579 3.75 4.5 3.75H10.5C10.9142 3.75 11.25 4.08579 11.25 4.5V10.5C11.25 10.9142 10.9142 11.25 10.5 11.25H4.5C4.08579 11.25 3.75 10.9142 3.75 10.5V4.5ZM5.25 5.25V9.75H9.75V5.25H5.25Z" fill="currentColor"/>
<path d="M12.75 4.5C12.75 4.08579 13.0858 3.75 13.5 3.75H19.5C19.9142 3.75 20.25 4.08579 20.25 4.5V10.5C20.25 10.9142 19.9142 11.25 19.5 11.25H13.5C13.0858 11.25 12.75 10.9142 12.75 10.5V4.5ZM14.25 5.25V9.75H18.75V5.25H14.25Z" fill="currentColor"/>
<path d="M4.5 12.75C4.08579 12.75 3.75 13.0858 3.75 13.5V19.5C3.75 19.9142 4.08579 20.25 4.5 20.25H10.5C10.9142 20.25 11.25 19.9142 11.25 19.5V13.5C11.25 13.0858 10.9142 12.75 10.5 12.75H4.5ZM5.25 18.75V14.25H9.75V18.75H5.25Z" fill="currentColor"/>
<path d="M16.875 13.5C17.2892 13.5 17.625 13.8358 17.625 14.25V16.125H19.5C19.9142 16.125 20.25 16.4608 20.25 16.875C20.25 17.2892 19.9142 17.625 19.5 17.625H17.625V19.5C17.625 19.9142 17.2892 20.25 16.875 20.25C16.4608 20.25 16.125 19.9142 16.125 19.5V17.625H14.25C13.8358 17.625 13.5 17.2892 13.5 16.875C13.5 16.4608 13.8358 16.125 14.25 16.125H16.125V14.25C16.125 13.8358 16.4608 13.5 16.875 13.5Z" fill="currentColor"/>
</svg>
