<svg width="24" height="24" viewBox="0 0 24 24" fill="none" xmlns="http://www.w3.org/2000/svg">
<path d="M9.74966 12C9.33545 12 8.99966 12.3358 8.99966 12.75C8.99966 13.1642 9.33545 13.5 9.74966 13.5H14.2497C14.6639 13.5 14.9997 13.1642 14.9997 12.75C14.9997 12.3358 14.6639 12 14.2497 12H9.74966Z" fill="currentColor"/>
<path d="M12.0004 1.5C11.6868 1.5 11.3807 1.59652 11.1238 1.77644C10.8704 1.95393 10.6769 2.20411 10.5688 2.49379L8.50962 7.67908L8.50346 7.6951C8.50156 7.70022 8.49821 7.70468 8.49382 7.70793C8.48943 7.71118 8.48418 7.71307 8.47873 7.71338L2.94244 8.06996C1.50661 8.1632 1.0163 9.96052 2.06126 10.8292L2.06187 10.8297L6.29815 14.3631L6.30062 14.3651C6.31014 14.373 6.31725 14.3834 6.32112 14.3952C6.3249 14.4066 6.32544 14.4189 6.3227 14.4307L6.32249 14.4315L5.05797 19.4146C4.69024 20.856 6.24601 22.158 7.59301 21.3016L7.5937 21.3011L11.9892 18.5176L11.9904 18.5169C11.9934 18.515 11.9969 18.514 12.0004 18.514C12.004 18.514 12.0079 18.5153 12.0109 18.5172L16.7359 21.5172L16.7378 21.5184C17.9657 22.2929 19.3772 21.1157 19.046 19.8085L17.6783 14.4315L17.6781 14.4306C17.6754 14.4188 17.6759 14.4066 17.6797 14.3952C17.6836 14.3834 17.6907 14.373 17.7002 14.3651L17.7027 14.3631L21.939 10.8297L21.9395 10.8292C22.9845 9.96055 22.4938 8.16317 21.058 8.06993L15.5267 7.71367L15.5221 7.7134C15.5166 7.71308 15.5114 7.71118 15.507 7.70793C15.5026 7.70468 15.4993 7.70022 15.4974 7.6951L15.4912 7.67908L13.4321 2.49379C13.324 2.20411 13.1305 1.95393 12.877 1.77644C12.6201 1.59652 12.3141 1.5 12.0004 1.5ZM11.9843 3.00509C11.989 3.00178 11.9946 3 12.0004 3C12.0062 3 12.0118 3.00178 12.0165 3.00509C12.0213 3.0084 12.0249 3.01309 12.0268 3.01851C12.0293 3.02536 12.0319 3.03217 12.0346 3.03894L14.0945 8.22607C14.1983 8.50049 14.379 8.73928 14.615 8.91385C14.8529 9.08988 15.1369 9.193 15.4323 9.21071L15.435 9.21087L20.9614 9.56682C20.9724 9.56756 20.9767 9.56944 20.9768 9.56947C20.9771 9.5696 20.9774 9.56972 20.9783 9.57049C20.981 9.57279 20.9902 9.58255 20.9965 9.60264C21.0027 9.6228 21.0018 9.64024 20.9991 9.65035C20.9979 9.6548 20.9964 9.65802 20.9947 9.66077C20.9931 9.66328 20.9894 9.6685 20.9806 9.67579L16.7444 13.2091L16.743 13.2103C16.5163 13.3981 16.3472 13.6461 16.2551 13.9257C16.1627 14.2059 16.1514 14.5064 16.2225 14.7928L17.5922 20.1777C17.5959 20.1924 17.596 20.2018 17.5957 20.2069C17.5954 20.2122 17.5944 20.2165 17.593 20.2205C17.5897 20.2292 17.5825 20.24 17.5711 20.2486C17.5622 20.2554 17.5557 20.2571 17.5537 20.2575C17.5522 20.2571 17.5466 20.255 17.538 20.2497L12.8149 17.2508C12.5714 17.0961 12.2889 17.014 12.0004 17.014C11.7122 17.014 11.43 17.096 11.1867 17.2504L11.1855 17.2511L6.78838 20.0356C6.74389 20.0639 6.71184 20.0673 6.68869 20.0657C6.6607 20.0637 6.62529 20.0523 6.59023 20.0256C6.52172 19.9735 6.48434 19.8914 6.51144 19.7853L7.77738 14.7966L7.77834 14.7928C7.84939 14.5064 7.83809 14.2059 7.74576 13.9257C7.65363 13.6461 7.48455 13.3982 7.25794 13.2103L7.25647 13.2091L3.02143 9.6768L3.02022 9.67579C3.01144 9.6685 3.00773 9.66328 3.00615 9.66077C3.00441 9.65802 3.00291 9.6548 3.00174 9.65035C2.99908 9.64024 2.99814 9.6228 3.00438 9.60264C3.0106 9.58255 3.01982 9.57279 3.02255 9.57049C3.02345 9.56972 3.02376 9.5696 3.02407 9.56947C3.02416 9.56944 3.02872 9.56754 3.03964 9.56681L8.56853 9.21071C8.86396 9.193 9.14791 9.08988 9.38587 8.91385C9.62186 8.73928 9.80252 8.50049 9.90634 8.22607L11.9662 3.03894C11.9689 3.03217 11.9715 3.02536 11.974 3.01851C11.976 3.01309 11.9796 3.0084 11.9843 3.00509Z" fill="currentColor"/>
</svg>
