<svg width="24" height="24" viewBox="0 0 24 24" fill="none" xmlns="http://www.w3.org/2000/svg">
<path d="M17.5509 21.7508C17.2509 21.7508 16.9509 21.6758 16.7259 21.5258L12.0009 18.5258L7.57586 21.3008C6.97586 21.6758 6.22586 21.6758 5.70086 21.2258C5.10086 20.7758 4.87586 20.1008 5.02586 19.4258L6.30086 14.4758L2.02586 10.8758C1.50086 10.5008 1.35086 9.82578 1.57586 9.15078C1.80086 8.55078 2.32586 8.10078 2.92586 8.10078L8.47586 7.72578L10.5759 2.47578C10.6509 2.17578 10.8759 1.95078 11.1009 1.80078C11.6259 1.42578 12.3009 1.42578 12.8259 1.80078C13.0509 1.95078 13.2759 2.25078 13.3509 2.55078L15.3759 7.72578L20.9259 8.10078C21.5259 8.17578 22.1259 8.55078 22.2759 9.15078C22.5009 9.75078 22.2759 10.4258 21.8259 10.8758L17.6259 14.4008L18.9759 19.8758C19.1259 20.4758 18.9009 21.1508 18.3759 21.5258C18.1509 21.6758 17.8509 21.7508 17.5509 21.7508ZM12.8259 17.2508L17.5509 20.2508L18.3009 20.0258L17.5509 20.1758L16.2009 14.7758C16.1259 14.4758 16.1259 14.1758 16.2009 13.8758C16.2759 13.5758 16.4259 13.3508 16.7259 13.1258L20.9259 9.60078C20.9259 9.60078 20.9259 9.60078 20.9259 9.52578L15.3759 9.15078C15.0759 9.15078 14.7759 9.00078 14.5509 8.85078C14.3259 8.70078 14.1009 8.40078 14.0259 8.17578L12.0009 3.00078L9.90086 8.25078C9.82586 8.55078 9.60086 8.77578 9.37586 8.92578C9.15086 9.07578 8.85086 9.22578 8.55086 9.22578L3.00086 9.60078C2.92586 9.67578 3.00086 9.67578 3.00086 9.67578L7.27586 13.2008C7.50086 13.3508 7.65086 13.6508 7.72586 13.9508C7.80086 14.2508 7.80086 14.5508 7.72586 14.8508L6.45086 19.8758C6.45086 20.0258 6.45086 20.1008 6.52586 20.1008C6.60086 20.1758 6.67586 20.1008 6.75086 20.1008L11.1759 17.3258C11.7009 16.9508 12.3009 16.9508 12.8259 17.2508Z" fill="currentColor"/>
</svg>
