<svg width="24" height="24" viewBox="0 0 24 24" fill="none" xmlns="http://www.w3.org/2000/svg">
<path d="M8.55 21.75C8.325 21.75 8.175 21.675 8.025 21.6C7.875 21.525 7.65 21.45 7.575 21.3L2.7 16.5C2.55 16.35 2.475 16.2 2.4 16.05C2.25 15.825 2.25 15.6 2.25 15.45V8.625C2.25 8.4 2.25 8.25 2.325 8.025C2.4 7.875 2.475 7.65 2.625 7.575L7.5 2.7C7.65 2.55 7.8 2.475 7.95 2.4C8.175 2.25 8.325 2.25 8.55 2.25H15.375C15.6 2.25 15.75 2.325 15.975 2.325C16.125 2.4 16.35 2.475 16.425 2.625L21.3 7.425C21.45 7.575 21.525 7.725 21.6 7.95C21.675 8.1 21.675 8.325 21.675 8.55V15.375C21.675 15.6 21.675 15.75 21.525 15.975C21.45 16.125 21.375 16.35 21.225 16.425L16.5 21.3C16.35 21.45 16.2 21.525 15.975 21.6C15.825 21.75 15.6 21.75 15.45 21.75H8.55ZM8.55 3.75L3.75 8.55V15.375L8.55 20.175H15.375L20.175 15.375V8.55L15.45 3.75H8.55Z" fill="currentColor"/>
</svg>
