<svg width="24" height="24" viewBox="0 0 24 24" fill="none" xmlns="http://www.w3.org/2000/svg">
<path d="M12 5.25C9.32632 5.25 7.79062 6.76046 7.79062 8.25V8.25875L7.79057 8.25875C7.78854 8.43272 7.81452 8.60588 7.8675 8.7716C7.99364 9.16614 7.77607 9.58823 7.38153 9.71438C6.98699 9.84052 6.56489 9.62294 6.43875 9.2284C6.33722 8.91084 6.28721 8.57907 6.29063 8.24571C6.29342 5.5938 8.88161 3.75 12 3.75C14.4288 3.75 16.4808 4.83602 17.3159 6.56431C17.4961 6.93726 17.3399 7.3857 16.9669 7.56592C16.594 7.74614 16.1456 7.58989 15.9653 7.21694C15.4505 6.15148 14.0337 5.25 12 5.25ZM16.4936 12.75H20.25C20.6642 12.75 21 12.4142 21 12C21 11.5858 20.6642 11.25 20.25 11.25H12.9917C12.9803 11.2497 12.969 11.2497 12.9576 11.25H3.75C3.33579 11.25 3 11.5858 3 12C3 12.4142 3.33579 12.75 3.75 12.75H12.8672C13.9434 13.0683 14.8615 13.4124 15.5132 13.8895C16.1432 14.3508 16.5 14.9143 16.5 15.75C16.5 16.4806 16.0864 17.2127 15.2755 17.7916C14.4662 18.3694 13.3101 18.75 12 18.75C10.6899 18.75 9.53382 18.3694 8.72446 17.7916C7.91363 17.2127 7.5 16.4806 7.5 15.75C7.5 15.3358 7.16421 15 6.75 15C6.33579 15 6 15.3358 6 15.75C6 17.0913 6.76293 18.2342 7.85289 19.0124C8.94431 19.7916 10.4132 20.25 12 20.25C13.5868 20.25 15.0557 19.7916 16.1471 19.0124C17.2371 18.2342 18 17.0913 18 15.75C18 14.4014 17.3876 13.4377 16.4936 12.75Z" fill="currentColor"/>
</svg>
