<svg width="24" height="24" viewBox="0 0 24 24" fill="none" xmlns="http://www.w3.org/2000/svg">
<path d="M3.75 3C3.33579 3 3 3.33579 3 3.75V20.25C3 20.6642 3.33579 21 3.75 21H7.5C7.91421 21 8.25 20.6642 8.25 20.25C8.25 19.8358 7.91421 19.5 7.5 19.5H4.5V4.5H7.5C7.91421 4.5 8.25 4.16421 8.25 3.75C8.25 3.33579 7.91421 3 7.5 3H3.75Z" fill="currentColor"/>
<path d="M16.5 3C16.0858 3 15.75 3.33579 15.75 3.75C15.75 4.16421 16.0858 4.5 16.5 4.5H19.5V19.5H16.5C16.0858 19.5 15.75 19.8358 15.75 20.25C15.75 20.6642 16.0858 21 16.5 21H20.25C20.6642 21 21 20.6642 21 20.25V3.75C21 3.33579 20.6642 3 20.25 3H16.5Z" fill="currentColor"/>
<path d="M6.75 9.75C6.75 9.33579 7.08579 9 7.5 9H9.25098L9.7668 6.59283C9.85359 6.18781 10.2523 5.92983 10.6573 6.01662C11.0623 6.10341 11.3203 6.5021 11.2335 6.90712L10.785 9H14.501L15.0168 6.59283C15.1036 6.18781 15.5023 5.92983 15.9073 6.01662C16.3123 6.10341 16.5703 6.5021 16.4835 6.90712L16.035 9H17.25C17.6642 9 18 9.33579 18 9.75C18 10.1642 17.6642 10.5 17.25 10.5H15.7136L15.0707 13.5H16.5C16.9142 13.5 17.25 13.8358 17.25 14.25C17.25 14.6642 16.9142 15 16.5 15H14.7493L14.2335 17.4071C14.1467 17.8121 13.748 18.0701 13.343 17.9833C12.938 17.8965 12.68 17.4978 12.7668 17.0928L13.2153 15H9.49932L8.98351 17.4071C8.89672 17.8121 8.49803 18.0701 8.09301 17.9833C7.68799 17.8965 7.43001 17.4978 7.5168 17.0928L7.96527 15H6.75C6.33579 15 6 14.6642 6 14.25C6 13.8358 6.33579 13.5 6.75 13.5H8.28669L8.92955 10.5H7.5C7.08579 10.5 6.75 10.1642 6.75 9.75ZM9.82075 13.5H13.5367L14.1796 10.5H10.4636L9.82075 13.5Z" fill="currentColor"/>
</svg>
