<svg width="24" height="24" viewBox="0 0 24 24" fill="none" xmlns="http://www.w3.org/2000/svg">
<path d="M6.77257 13.3181C6.87303 12.9162 7.28023 12.6719 7.68208 12.7724L10.6821 13.5224C11.0839 13.6228 11.3282 14.0301 11.2278 14.4319C11.1273 14.8337 10.7201 15.0781 10.3183 14.9776L7.31828 14.2276C6.91643 14.1271 6.67211 13.7199 6.77257 13.3181Z" fill="currentColor"/>
<path d="M16.6821 14.2276C17.0839 14.1271 17.3282 13.7199 17.2278 13.3181C17.1273 12.9162 16.7201 12.6719 16.3183 12.7724L13.3183 13.5224C12.9164 13.6228 12.6721 14.0301 12.7726 14.4319C12.873 14.8337 13.2802 15.0781 13.6821 14.9776L16.6821 14.2276Z" fill="currentColor"/>
<path d="M9.54327 2.01852C10.2108 1.68478 11.0804 1.5 12 1.5C12.9196 1.5 13.7892 1.68478 14.4567 2.01852C15.0794 2.32983 15.75 2.89867 15.75 3.75C15.75 4.15082 15.6013 4.48902 15.379 4.7672C16.8202 5.00294 18.1246 5.38677 19.2086 5.88705C21.0284 6.72697 22.5 8.03848 22.5 9.75C22.5 11.126 21.5423 12.2434 20.25 13.0536V17.25C20.25 18.8592 19.1665 20.1882 17.6892 21.0747C16.1969 21.9702 14.1837 22.5 12 22.5C9.81635 22.5 7.80313 21.9702 6.31082 21.0747C4.83352 20.1882 3.75 18.8592 3.75 17.25V13.0536C2.45772 12.2434 1.5 11.126 1.5 9.75C1.5 8.03848 2.97158 6.72697 4.79142 5.88705C5.87535 5.38677 7.17979 5.00294 8.62097 4.7672C8.39866 4.48902 8.25 4.15082 8.25 3.75C8.25 2.89867 8.92065 2.32983 9.54327 2.01852ZM9.75048 3.74592C9.75005 3.74804 9.75 3.75 9.75 3.75C9.75 3.75 9.75005 3.75196 9.75048 3.75408C9.75093 3.7563 9.75208 3.76093 9.75507 3.76823C9.76113 3.78304 9.77563 3.81079 9.80836 3.84949C9.87676 3.93035 10.0051 4.03537 10.2141 4.13984C10.6324 4.34899 11.2628 4.5 12 4.5C12.7372 4.5 13.3676 4.34899 13.7859 4.13984C13.9949 4.03537 14.1232 3.93035 14.1916 3.84949C14.2244 3.81079 14.2389 3.78304 14.2449 3.76823C14.2479 3.76093 14.2491 3.7563 14.2495 3.75408C14.25 3.75196 14.25 3.75 14.25 3.75C14.25 3.75 14.25 3.74804 14.2495 3.74592C14.2491 3.7437 14.2479 3.73908 14.2449 3.73177C14.2389 3.71696 14.2244 3.68921 14.1916 3.65051C14.1232 3.56965 13.9949 3.46463 13.7859 3.36016C13.3676 3.15101 12.7372 3 12 3C11.2628 3 10.6324 3.15101 10.2141 3.36016C10.0051 3.46463 9.87676 3.56965 9.80836 3.65051C9.77563 3.68921 9.76113 3.71696 9.75507 3.73177C9.75208 3.73908 9.75093 3.7437 9.75048 3.74592ZM5.25 12V17.25C5.25 18.1252 5.84546 19.0461 7.08264 19.7885C8.30482 20.5219 10.0416 21 12 21C13.9584 21 15.6952 20.5219 16.9174 19.7885C18.1545 19.0461 18.75 18.1252 18.75 17.25V12C18.75 11.5165 18.4299 10.9408 17.5984 10.3833C16.9303 9.93538 16.0062 9.55601 14.9014 9.30833C14.5469 10.4946 13.2899 11.25 12 11.25C10.7101 11.25 9.45315 10.4946 9.09865 9.30833C7.99384 9.55601 7.06969 9.93538 6.4016 10.3833C5.57007 10.9408 5.25 11.5165 5.25 12ZM5.42 7.24899C3.71103 8.03775 3 8.97624 3 9.75C3 10.2172 3.25567 10.746 3.8503 11.2709C4.09295 10.4043 4.75217 9.68324 5.56628 9.13742C6.61303 8.43562 8.03707 7.93148 9.63365 7.68076C9.85023 7.64674 10.0708 7.7092 10.2375 7.85169C10.4041 7.99418 10.5 8.20244 10.5 8.42168V8.625C10.5 9.12409 11.0377 9.75 12 9.75C12.9623 9.75 13.5 9.12409 13.5 8.625V8.42168C13.5 8.20244 13.5959 7.99418 13.7625 7.85169C13.9292 7.7092 14.1498 7.64674 14.3664 7.68076C15.9629 7.93148 17.387 8.43562 18.4337 9.13742C19.2478 9.68324 19.9071 10.4043 20.1497 11.2709C20.7443 10.746 21 10.2172 21 9.75C21 8.97624 20.289 8.03775 18.58 7.24899C16.9347 6.48964 14.6091 6 12 6C9.39089 6 7.06527 6.48964 5.42 7.24899Z" fill="currentColor"/>
</svg>
