<svg width="32" height="32" viewBox="0 0 32 32" fill="none" xmlns="http://www.w3.org/2000/svg">
<path d="M12.5 17.2505C12.5 16.6982 12.0523 16.2505 11.5 16.2505C10.9477 16.2505 10.5 16.6982 10.5 17.2505V19.2505H8.5C7.94772 19.2505 7.5 19.6982 7.5 20.2505C7.5 20.8028 7.94772 21.2505 8.5 21.2505H10.5V23.2505C10.5 23.8028 10.9477 24.2505 11.5 24.2505C12.0523 24.2505 12.5 23.8028 12.5 23.2505V21.2505H14.5C15.0523 21.2505 15.5 20.8028 15.5 20.2505C15.5 19.6982 15.0523 19.2505 14.5 19.2505H12.5V17.2505Z" fill="currentColor"/>
<path d="M18.5 20.3433C17.9477 20.3433 17.5 19.8955 17.5 19.3433C17.5 18.791 17.9477 18.3433 18.5 18.3433H23.5C24.0523 18.3433 24.5 18.791 24.5 19.3433C24.5 19.8955 24.0523 20.3433 23.5 20.3433H18.5Z" fill="currentColor"/>
<path d="M17.5 22.3433C17.5 21.791 17.9477 21.3433 18.5 21.3433H23.5C24.0523 21.3433 24.5 21.791 24.5 22.3433C24.5 22.8955 24.0523 23.3433 23.5 23.3433H18.5C17.9477 23.3433 17.5 22.8955 17.5 22.3433Z" fill="currentColor"/>
<path d="M7.5 11.3433C7.5 10.791 7.94772 10.3433 8.5 10.3433H14.5C15.0523 10.3433 15.5 10.791 15.5 11.3433C15.5 11.8955 15.0523 12.3433 14.5 12.3433H8.5C7.94772 12.3433 7.5 11.8955 7.5 11.3433Z" fill="currentColor"/>
<path d="M17.7929 8.63616C18.1834 8.24563 18.8166 8.24563 19.2071 8.63616L20.5 9.92905L21.7929 8.63616C22.1834 8.24563 22.8166 8.24563 23.2071 8.63616C23.5976 9.02668 23.5976 9.65984 23.2071 10.0504L21.9142 11.3433L23.2071 12.6362C23.5976 13.0267 23.5976 13.6598 23.2071 14.0504C22.8166 14.4409 22.1834 14.4409 21.7929 14.0504L20.5 12.7575L19.2071 14.0504C18.8166 14.4409 18.1834 14.4409 17.7929 14.0504C17.4024 13.6598 17.4024 13.0267 17.7929 12.6362L19.0858 11.3433L17.7929 10.0504C17.4024 9.65984 17.4024 9.02668 17.7929 8.63616Z" fill="currentColor"/>
<path fill-rule="evenodd" clip-rule="evenodd" d="M4 6C4 4.89543 4.89543 4 6 4H26C27.1046 4 28 4.89543 28 6V26C28 27.1046 27.1046 28 26 28H6C4.89543 28 4 27.1046 4 26V6ZM26 6H6V26H26V6Z" fill="currentColor"/>
</svg>
