<svg width="24" height="24" viewBox="0 0 24 24" fill="none" xmlns="http://www.w3.org/2000/svg">
<path d="M8.55563 3.6866C9.64727 3.23396 10.8174 3.00098 11.9992 3.00098C13.181 3.00098 14.3512 3.23396 15.4428 3.6866C16.5345 4.13924 17.5262 4.80266 18.3612 5.63891C18.6539 5.93201 18.6535 6.40689 18.3604 6.69957C18.0673 6.99225 17.5924 6.9919 17.2998 6.69879C16.604 6.00207 15.7778 5.44934 14.8683 5.07221C13.9588 4.69509 12.9838 4.50098 11.9992 4.50098C11.0146 4.50098 10.0397 4.69509 9.13016 5.07221C8.22064 5.44933 7.3944 6.00207 6.69869 6.69879L6.69752 6.69996L4.79491 8.59698H7.48047C7.89468 8.59698 8.23047 8.93276 8.23047 9.34698C8.23047 9.76119 7.89468 10.097 7.48047 10.097H2.98047C2.56626 10.097 2.23047 9.76119 2.23047 9.34698V4.84698C2.23047 4.43276 2.56626 4.09698 2.98047 4.09698C3.39468 4.09698 3.73047 4.43276 3.73047 4.84698V7.54008L5.63725 5.63891C5.63745 5.63871 5.63765 5.63851 5.63784 5.63832C6.47275 4.80235 7.46424 4.13914 8.55563 3.6866ZM15.7679 14.6533C15.7679 14.2391 16.1037 13.9033 16.5179 13.9033H21.0179C21.4321 13.9033 21.7679 14.2391 21.7679 14.6533V19.1533C21.7679 19.5675 21.4321 19.9033 21.0179 19.9033C20.6037 19.9033 20.2679 19.5675 20.2679 19.1533V16.4603L18.3613 18.3614C18.361 18.3616 18.3607 18.3619 18.3605 18.3622C17.5256 19.198 16.5342 19.8612 15.4429 20.3137C14.3512 20.7663 13.1811 20.9993 11.9993 20.9993C10.8175 20.9993 9.64735 20.7663 8.5557 20.3137C7.46405 19.861 6.47235 19.1976 5.63733 18.3614C5.34465 18.0683 5.34499 17.5934 5.6381 17.3007C5.93121 17.008 6.40608 17.0084 6.69876 17.3015C7.39447 17.9982 8.22071 18.5509 9.13023 18.9281C10.0397 19.3052 11.0147 19.4993 11.9993 19.4993C12.9839 19.4993 13.9588 19.3052 14.8684 18.9281C15.7779 18.5509 16.6041 17.9982 17.2998 17.3015L17.301 17.3003L19.2035 15.4033H16.5179C16.1037 15.4033 15.7679 15.0675 15.7679 14.6533Z" fill="currentColor"/>
</svg>
