<svg width="24" height="25" viewBox="0 0 24 25" fill="none" xmlns="http://www.w3.org/2000/svg">
<g id="TableEdit">
<path id="Vector" fill-rule="evenodd" clip-rule="evenodd" d="M2.25 5C2.25 4.58579 2.58579 4.25 3 4.25H18.75C19.1642 4.25 19.5 4.58579 19.5 5V8C19.5 8.41421 19.1642 8.75 18.75 8.75C18.3358 8.75 18 8.41421 18 8V5.75H3.75V8.75H16.875C17.2892 8.75 17.625 9.08579 17.625 9.5C17.625 9.91421 17.2892 10.25 16.875 10.25H9V13.25H12.375C12.7892 13.25 13.125 13.5858 13.125 14C13.125 14.4142 12.7892 14.75 12.375 14.75H9V18.5C9 18.9142 8.66421 19.25 8.25 19.25H3.71875C3.31867 19.25 2.94177 19.0839 2.66903 18.7993C2.39732 18.5157 2.25 18.1378 2.25 17.75V5ZM7.5 17.75V14.75H3.75V17.75H7.5ZM7.5 13.25V10.25H3.75V13.25H7.5Z" fill="currentColor"/>
<g id="Union">
<path d="M15.5253 14.7422C15.9499 14.7422 16.3705 14.8254 16.7626 14.9883L16.9081 15.0537C17.2429 15.2126 17.5483 15.4283 17.8104 15.6914L17.9013 15.8027C18.0563 16.0388 18.0553 16.3466 17.8993 16.582L17.8085 16.6934C17.5659 16.935 17.1926 16.9642 16.9179 16.7822L16.8065 16.6914C16.6805 16.5649 16.5365 16.4581 16.3798 16.374L16.2186 16.2979C15.9989 16.2066 15.7633 16.1592 15.5253 16.1592C15.3467 16.1592 15.1691 16.1856 14.9989 16.2373L14.8309 16.2979C14.6662 16.3663 14.5131 16.4593 14.3759 16.5723L14.244 16.6914L14.2421 16.6924L12.6366 18.293L12.5263 18.4268C12.2856 18.7508 12.1584 19.1478 12.1679 19.5547L12.1806 19.7285C12.2289 20.1319 12.4114 20.5092 12.7011 20.7988L12.83 20.917C13.1434 21.1753 13.5359 21.3225 13.9452 21.332L14.119 21.3281C14.5217 21.299 14.9049 21.1358 15.2069 20.8633L16.3261 19.7451L16.4364 19.6543C16.7116 19.4723 17.0857 19.5028 17.328 19.7451L17.4188 19.8555C17.5746 20.0913 17.5745 20.3999 17.4188 20.6358L17.328 20.7471L16.1923 21.8828L16.1688 21.9053C15.6303 22.3961 14.9443 22.6886 14.2235 22.7412L13.913 22.749C13.1846 22.7322 12.4862 22.4703 11.9286 22.0108L11.6981 21.8018C11.183 21.2866 10.8593 20.6149 10.7733 19.8975L10.7509 19.5869C10.7317 18.7545 11.0337 17.9465 11.5946 17.3311L11.6181 17.3067L13.2401 15.6904C13.5395 15.3903 13.8963 15.151 14.288 14.9883L14.4354 14.9317C14.7846 14.8064 15.1535 14.7422 15.5253 14.7422Z" fill="#4D4D4D"/>
<path d="M19.3973 11.2734C20.1148 11.3594 20.7865 11.6831 21.3016 12.1983L21.5106 12.4287C21.9702 12.9864 22.232 13.6847 22.2489 14.4131L22.2411 14.7236C22.196 15.3415 21.9749 15.934 21.6034 16.4297L21.4052 16.669L21.3817 16.6934L19.7597 18.3096C19.4977 18.5722 19.1919 18.7875 18.8573 18.9463L18.7118 19.0117C18.3197 19.1745 17.899 19.2578 17.4745 19.2578C17.1029 19.2578 16.7346 19.1935 16.3856 19.0684L16.2372 19.0117C15.8942 18.8693 15.5788 18.6683 15.3046 18.419L15.1893 18.3086C14.9131 18.0313 14.9141 17.5829 15.1913 17.3067L15.3026 17.2158C15.5781 17.0348 15.9516 17.066 16.1932 17.3086L16.3251 17.4277C16.4625 17.5409 16.6161 17.6336 16.7811 17.7022L16.9491 17.7627C17.1191 17.8143 17.2962 17.8408 17.4745 17.8408C17.7126 17.8408 17.949 17.7935 18.1688 17.7022L18.33 17.626C18.4865 17.542 18.6299 17.4349 18.7557 17.3086L18.7577 17.3067L20.3632 15.7061C20.6354 15.4041 20.7989 15.0216 20.828 14.6192L20.8319 14.4453C20.8224 14.036 20.6751 13.6435 20.4169 13.3301L20.2987 13.2012C20.009 12.9115 19.6319 12.729 19.2284 12.6807L19.0546 12.668C18.5895 12.6572 18.138 12.8252 17.7929 13.1367L16.6737 14.2549C16.4315 14.497 16.0582 14.5274 15.7831 14.3457L15.6718 14.2549C15.3952 13.9781 15.3951 13.5297 15.6718 13.2529L16.8075 12.1172L16.8309 12.0947L17.0702 11.8965C17.6485 11.4631 18.3584 11.2342 19.0868 11.251L19.3973 11.2734Z" fill="#4D4D4D"/>
</g>
</g>
</svg>
