<svg width="24" height="24" viewBox="0 0 24 24" fill="none" xmlns="http://www.w3.org/2000/svg">
<path d="M3.75 3.75C2.92157 3.75 2.25 4.42157 2.25 5.25V18.75C2.25 19.5784 2.92157 20.25 3.75 20.25H20.25C21.0784 20.25 21.75 19.5784 21.75 18.75V5.25C21.75 4.42157 21.0784 3.75 20.25 3.75H3.75ZM20.25 9.75H15.75V8.25H20.25V9.75ZM20.25 6.75H3.75V5.25L20.25 5.25V6.75ZM3.75 8.25H8.25V18.75H3.75V8.25ZM9.75 18.75V8.25H14.25V18.75H9.75ZM15.75 18.75V17.25H20.25V18.75H15.75ZM20.25 15.75H15.75V14.25H20.25V15.75ZM20.25 12.75H15.75V11.25H20.25V12.75Z" fill="currentColor"/>
</svg>
