<svg width="32" height="32" viewBox="0 0 32 32" fill="none" xmlns="http://www.w3.org/2000/svg">
<path fill-rule="evenodd" clip-rule="evenodd" d="M3 7C3 6.44772 3.44772 6 4 6H27C27.5523 6 28 6.44772 28 7V13C28 13.5523 27.5523 14 27 14H12V18H15.5C16.0523 18 16.5 18.4477 16.5 19C16.5 19.5523 16.0523 20 15.5 20H12V24H15.5C16.0523 24 16.5 24.4477 16.5 25C16.5 25.5523 16.0523 26 15.5 26H4.95833C4.42489 26 3.92236 25.7785 3.5587 25.399C3.19643 25.021 3 24.517 3 24V7ZM26 8V12H5V8H26ZM10 18V14H5V18H10ZM5 20H10V24H5V20Z" fill="currentColor"/>
<path d="M21.2929 18.2929C21.6834 17.9024 22.3166 17.9024 22.7071 18.2929C23.0976 18.6834 23.0976 19.3166 22.7071 19.7071L21.4142 21H27.0858L25.7929 19.7071C25.4024 19.3166 25.4024 18.6834 25.7929 18.2929C26.1834 17.9024 26.8166 17.9024 27.2071 18.2929L30.2071 21.2929C30.5976 21.6834 30.5976 22.3166 30.2071 22.7071L27.2071 25.7071C26.8166 26.0976 26.1834 26.0976 25.7929 25.7071C25.4024 25.3166 25.4024 24.6834 25.7929 24.2929L27.0858 23H21.4142L22.7071 24.2929C23.0976 24.6834 23.0976 25.3166 22.7071 25.7071C22.3166 26.0976 21.6834 26.0976 21.2929 25.7071L18.2929 22.7071C17.9024 22.3166 17.9024 21.6834 18.2929 21.2929L21.2929 18.2929Z" fill="currentColor"/>
</svg>
