<svg width="24" height="24" viewBox="0 0 24 24" fill="none" xmlns="http://www.w3.org/2000/svg">
<path d="M2.25 5.25C2.25 4.83579 2.58579 4.5 3 4.5H21C21.4142 4.5 21.75 4.83579 21.75 5.25V11.25C21.75 11.6642 21.4142 12 21 12C20.5858 12 20.25 11.6642 20.25 11.25V10.5H9V13.5H13.5C13.9142 13.5 14.25 13.8358 14.25 14.25C14.25 14.6642 13.9142 15 13.5 15H9V18H13.5C13.9142 18 14.25 18.3358 14.25 18.75C14.25 19.1642 13.9142 19.5 13.5 19.5H3.71875C3.31867 19.5 2.94177 19.3339 2.66903 19.0493C2.39732 18.7657 2.25 18.3878 2.25 18V5.25ZM20.25 9V6H3.75V9H20.25ZM7.5 13.5V10.5H3.75V13.5H7.5ZM3.75 15V18H7.5V15H3.75Z" fill="currentColor"/>
<path d="M17.0575 14.4983C16.7804 14.1904 16.3062 14.1654 15.9983 14.4425C15.6904 14.7196 15.6654 15.1938 15.9425 15.5017L18.5675 18.4184C18.7098 18.5764 18.9124 18.6667 19.125 18.6667C19.3376 18.6667 19.5402 18.5764 19.6825 18.4184L22.3075 15.5017C22.5846 15.1938 22.5596 14.7196 22.2517 14.4425C21.9438 14.1654 21.4696 14.1904 21.1925 14.4983L19.125 16.7955L17.0575 14.4983Z" fill="currentColor"/>
</svg>
