<svg width="24" height="24" viewBox="0 0 24 24" fill="none" xmlns="http://www.w3.org/2000/svg">
<path d="M3.75 3.75C2.92157 3.75 2.25 4.42157 2.25 5.25V18.75C2.25 19.5784 2.92157 20.25 3.75 20.25H20.25C21.0784 20.25 21.75 19.5784 21.75 18.75V5.25C21.75 4.42157 21.0784 3.75 20.25 3.75H3.75ZM18.75 18.75V14.25H20.25V18.75H18.75ZM20.25 12.75H3.75V8.25H20.25V12.75ZM3.75 14.25H5.25V18.75H3.75V14.25ZM6.75 18.75V14.25H8.25V18.75H6.75ZM9.75 18.75V14.25H11.25V18.75H9.75ZM12.75 18.75V14.25H14.25V18.75H12.75ZM15.75 18.75V14.25H17.25V18.75H15.75ZM3.75 6.75V5.25L20.25 5.25V6.75H3.75Z" fill="currentColor"/>
</svg>
