<svg width="24" height="24" viewBox="0 0 24 24" fill="none" xmlns="http://www.w3.org/2000/svg">
<path d="M11.1029 1.51458C11.3488 1.4654 11.603 1.54236 11.7803 1.71968L22.2803 12.2197C22.5732 12.5126 22.5732 12.9874 22.2803 13.2803L13.2803 22.2803C12.9874 22.5732 12.5126 22.5732 12.2197 22.2803L9.96968 20.0303C9.67679 19.7374 9.67679 19.2626 9.96968 18.9697C10.2626 18.6768 10.7374 18.6768 11.0303 18.9697L12.75 20.6894L20.6894 12.75L11.0035 3.06417L4.38739 4.38739L3.06417 11.0035L5.03034 12.9697C5.32324 13.2626 5.32324 13.7374 5.03034 14.0303C4.73745 14.3232 4.26258 14.3232 3.96968 14.0303L1.71968 11.7803C1.54236 11.603 1.4654 11.3488 1.51458 11.1029L3.01458 3.60293C3.07396 3.30603 3.30603 3.07396 3.60293 3.01458L11.1029 1.51458Z" fill="currentColor"/>
<path d="M7.875 9C8.49632 9 9 8.49632 9 7.875C9 7.25368 8.49632 6.75 7.875 6.75C7.25368 6.75 6.75 7.25368 6.75 7.875C6.75 8.49632 7.25368 9 7.875 9Z" fill="currentColor"/>
<path d="M4.875 15.75C5.28921 15.75 5.625 16.0858 5.625 16.5V18.375H7.5C7.91421 18.375 8.25 18.7108 8.25 19.125C8.25 19.5392 7.91421 19.875 7.5 19.875H5.625V21.75C5.625 22.1642 5.28921 22.5 4.875 22.5C4.46079 22.5 4.125 22.1642 4.125 21.75V19.875H2.25C1.83579 19.875 1.5 19.5392 1.5 19.125C1.5 18.7108 1.83579 18.375 2.25 18.375H4.125V16.5C4.125 16.0858 4.46079 15.75 4.875 15.75Z" fill="currentColor"/>
</svg>
