<svg width="24" height="24" viewBox="0 0 24 24" fill="none" xmlns="http://www.w3.org/2000/svg">
<path d="M13.5135 3.96967C13.8064 3.67678 14.2813 3.67678 14.5742 3.96967L22.4935 11.889C22.6338 12.0271 22.7455 12.1917 22.8219 12.3732C22.8989 12.5563 22.9386 12.7529 22.9386 12.9515C22.9386 13.1502 22.8989 13.3468 22.8219 13.5299C22.7455 13.7114 22.6338 13.876 22.4935 14.0141L15.7272 20.7803C15.4343 21.0732 14.9594 21.0732 14.6665 20.7803C14.3737 20.4874 14.3737 20.0126 14.6665 19.7197L21.4347 12.9515L13.5135 5.03033C13.2206 4.73744 13.2206 4.26256 13.5135 3.96967Z" fill="currentColor"/>
<path d="M7.5 8.625C7.5 9.24632 6.99632 9.75 6.375 9.75C5.75368 9.75 5.25 9.24632 5.25 8.625C5.25 8.00368 5.75368 7.5 6.375 7.5C6.99632 7.5 7.5 8.00368 7.5 8.625Z" fill="currentColor"/>
<path d="M9.34509 3.77511C9.5621 3.73262 9.78624 3.74419 9.99772 3.80881C10.2091 3.87339 10.4013 3.98895 10.5574 4.14532L18.3503 11.9382C18.4763 12.0623 18.5764 12.21 18.645 12.373C18.7143 12.5376 18.75 12.7143 18.75 12.8929C18.75 13.0714 18.7143 13.2482 18.645 13.4127C18.5764 13.5757 18.4763 13.7235 18.3503 13.8475L11.5975 20.6003C11.4735 20.7263 11.3257 20.8264 11.1627 20.895C10.9982 20.9643 10.8214 21 10.6429 21C10.4643 21 10.2876 20.9643 10.123 20.895C9.96003 20.8264 9.81227 20.7263 9.68821 20.6003L1.89563 12.8077C1.73927 12.6516 1.62339 12.4591 1.55881 12.2477C1.49419 12.0362 1.48262 11.8121 1.52511 11.5951L1.52563 11.5925L2.72782 5.56659C2.78711 5.26941 3.01941 5.0371 3.31659 4.97782L9.34247 3.77563L9.34509 3.77511ZM9.55379 5.26303L4.1009 6.3509L3.01303 11.8038L10.6429 19.4336L17.1836 12.8929L9.55379 5.26303Z" fill="currentColor"/>
</svg>
