<svg width="24" height="24" viewBox="0 0 24 24" fill="none" xmlns="http://www.w3.org/2000/svg">
<path d="M17.594 4.50003C17.8435 4.49842 18.0894 4.55944 18.3092 4.67754C18.5286 4.79541 18.7149 4.96634 18.8512 5.17469L23.124 11.584C23.292 11.8359 23.292 12.1641 23.124 12.4161L18.8512 18.8254C18.7149 19.0337 18.5286 19.2047 18.3092 19.3225C18.0894 19.4406 17.8435 19.5017 17.594 19.5H3.75C3.35218 19.5 2.97065 19.342 2.68934 19.0607C2.40804 18.7794 2.25 18.3979 2.25 18V6.00003C2.25 5.60221 2.40804 5.22068 2.68934 4.93937C2.97064 4.65807 3.35217 4.50003 3.75 4.50003H17.594ZM17.5986 6.00005L17.5969 6.00006L3.75 6.00003L3.75 18H17.5986L17.6009 17.9965L21.5986 12L17.5986 6.00005Z" fill="currentColor"/>
</svg>
