<svg width="24" height="24" viewBox="0 0 24 24" fill="none" xmlns="http://www.w3.org/2000/svg">
<path d="M3.79602 5.29492C3.79602 5.29507 3.79602 5.29526 3.79602 5.29547V18.7017C3.79602 18.7019 3.79602 18.7021 3.79602 18.7023C3.79613 18.7024 3.79626 18.7025 3.79643 18.7027C3.79659 18.7029 3.79674 18.703 3.79687 18.7031C3.79702 18.7031 3.79721 18.7031 3.79742 18.7031H20.2037C20.2039 18.7031 20.2041 18.7031 20.2042 18.7031C20.2044 18.703 20.2045 18.7029 20.2047 18.7027C20.2048 18.7025 20.205 18.7024 20.2051 18.7023C20.2051 18.7021 20.2051 18.7019 20.2051 18.7017V5.29547C20.2051 5.29526 20.2051 5.29507 20.2051 5.29492C20.205 5.29479 20.2048 5.29464 20.2047 5.29447C20.2045 5.29431 20.2044 5.29417 20.2042 5.29407C20.2041 5.29407 20.2039 5.29406 20.2037 5.29406H3.79742C3.79721 5.29406 3.79702 5.29407 3.79687 5.29407C3.79674 5.29417 3.79659 5.29431 3.79643 5.29447C3.79626 5.29464 3.79613 5.29479 3.79602 5.29492ZM2.20508 5.29547C2.20508 4.41604 2.91799 3.70312 3.79742 3.70312H20.2037C21.0831 3.70312 21.796 4.41604 21.796 5.29547V18.7017C21.796 19.5811 21.0831 20.2941 20.2037 20.2941H3.79742C2.918 20.2941 2.20508 19.5811 2.20508 18.7017V5.29547ZM6.87939 8.50167C7.15383 8.15861 7.65442 8.10299 7.99747 8.37744L11.7475 11.3774C11.9362 11.5284 12.046 11.7569 12.046 11.9986C12.046 12.2402 11.9362 12.4688 11.7475 12.6198L7.99747 15.6198C7.65442 15.8942 7.15383 15.8386 6.87939 15.4955C6.60495 15.1525 6.66057 14.6519 7.00362 14.3774L9.97718 11.9986L7.00362 9.61975C6.66057 9.34531 6.60495 8.84472 6.87939 8.50167ZM11.9551 14.9986C11.9551 14.5593 12.3112 14.2031 12.7505 14.2031H16.5005C16.9399 14.2031 17.296 14.5593 17.296 14.9986C17.296 15.4379 16.9399 15.7941 16.5005 15.7941H12.7505C12.3112 15.7941 11.9551 15.4379 11.9551 14.9986Z" fill="currentColor"/>
</svg>
