<svg width="24" height="24" viewBox="0 0 24 24" fill="none" xmlns="http://www.w3.org/2000/svg">
<path d="M12.663 3.39908C12.533 3.15356 12.278 3 12.0002 3C11.7223 3 11.4673 3.15356 11.3373 3.39908L4.58731 16.1491C4.3935 16.5152 4.53316 16.969 4.89923 17.1628C5.26531 17.3566 5.71919 17.217 5.91299 16.8509L7.68701 13.5H16.3133L18.0873 16.8509C18.2811 17.217 18.735 17.3566 19.1011 17.1628C19.4671 16.969 19.6068 16.5152 19.413 16.1491L12.663 3.39908ZM15.5192 12H8.48112L12.0002 5.35295L15.5192 12Z" fill="currentColor"/>
<path d="M3.75 19.5C3.75 19.0858 4.08579 18.75 4.5 18.75L19.5 18.75C19.9142 18.75 20.25 19.0858 20.25 19.5C20.25 19.9142 19.9142 20.25 19.5 20.25L4.5 20.25C4.08579 20.25 3.75 19.9142 3.75 19.5Z" fill="currentColor"/>
</svg>
