<svg width="24" height="24" viewBox="0 0 24 24" fill="none" xmlns="http://www.w3.org/2000/svg">
<path d="M11.25 22.5C10.95 22.5 10.725 22.35 10.575 22.05L7.05 15H3C2.625 15 2.25 14.85 1.95 14.55C1.65 14.25 1.5 13.875 1.5 13.5V5.25C1.5 4.875 1.65 4.5 1.95 4.2C2.25 3.9 2.625 3.75 3 3.75H18.9C19.425 3.75 19.95 3.975 20.4 4.35C20.85 4.725 21.075 5.175 21.15 5.775L22.275 14.775C22.35 15.075 22.275 15.375 22.2 15.75C22.125 16.05 21.975 16.35 21.75 16.575C21.525 16.8 21.3 17.025 21 17.175C20.7 17.325 20.4 17.4 20.1 17.4H15V18.9C15 19.875 14.625 20.85 13.875 21.525C13.125 22.2 12.225 22.5 11.25 22.5ZM8.25 14.1L11.7 21C12.15 20.925 12.525 20.7 12.825 20.4C13.275 19.95 13.5 19.425 13.5 18.825V16.575C13.5 16.125 13.8 15.825 14.25 15.825H20.025C20.1 15.825 20.25 15.825 20.325 15.75C20.4 15.675 20.475 15.675 20.55 15.6C20.625 15.525 20.7 15.45 20.7 15.3C20.7 15.15 20.775 15.075 20.7 15L19.575 6C19.575 5.85 19.5 5.625 19.35 5.55C19.275 5.325 19.125 5.25 18.9 5.25H8.25V14.1ZM3 5.25V13.5H6.75V5.25H3Z" fill="currentColor"/>
</svg>
