<svg width="32" height="32" viewBox="0 0 32 32" fill="none" xmlns="http://www.w3.org/2000/svg">
<path d="M15 30C14.6 30 14.3 29.8 14.1 29.4L9.4 20H4C3.5 20 3 19.8 2.6 19.4C2.2 19 2 18.5 2 18V7C2 6.5 2.2 6 2.6 5.6C3 5.2 3.5 5 4 5H25.2C25.9 5 26.6 5.3 27.2 5.8C27.8 6.3 28.1 6.9 28.2 7.7L29.7 19.7C29.8 20.1 29.7 20.5 29.6 21C29.5 21.4 29.3 21.8 29 22.1C28.7 22.4 28.4 22.7 28 22.9C27.6 23.1 27.2 23.2 26.8 23.2H20V25.2C20 26.5 19.5 27.8 18.5 28.7C17.5 29.6 16.3 30 15 30ZM11 18.8L15.6 28C16.2 27.9 16.7 27.6 17.1 27.2C17.7 26.6 18 25.9 18 25.1V22.1C18 21.5 18.4 21.1 19 21.1H26.7C26.8 21.1 27 21.1 27.1 21C27.2 20.9 27.3 20.9 27.4 20.8C27.5 20.7 27.6 20.6 27.6 20.4C27.6 20.2 27.7 20.1 27.6 20L26.1 8C26.1 7.8 26 7.5 25.8 7.4C25.7 7.1 25.5 7 25.2 7H11V18.8ZM4 7V18H9V7H4Z" fill="currentColor"/>
</svg>
