<svg width="24" height="24" viewBox="0 0 24 24" fill="none" xmlns="http://www.w3.org/2000/svg">
<path d="M7.5 20.25H3C2.625 20.25 2.25 20.1 1.95 19.8C1.65 19.5 1.5 19.125 1.5 18.75V10.5C1.5 10.125 1.65 9.75 1.95 9.45C2.25 9.15 2.625 9 3 9H7.05L10.575 1.95C10.725 1.65 10.95 1.5 11.25 1.5C12.225 1.5 13.2 1.875 13.875 2.625C14.625 3.3 15 4.275 15 5.25V6.75H20.025C20.325 6.75 20.625 6.825 20.925 6.975C21.225 7.125 21.45 7.275 21.675 7.575C21.9 7.8 22.05 8.1 22.125 8.4C22.2 8.7 22.275 9 22.2 9.375L21.075 18.375C21 18.9 20.775 19.425 20.325 19.8C19.95 20.175 19.425 20.4 18.825 20.4H7.5V20.25ZM8.25 18.75H18.9C19.05 18.75 19.275 18.675 19.425 18.525C19.575 18.375 19.65 18.225 19.65 18.075L20.775 9.075C20.775 9 20.775 8.85 20.775 8.775C20.775 8.7 20.7 8.55 20.625 8.475C20.55 8.4 20.475 8.325 20.4 8.325C20.325 8.325 20.175 8.25 20.025 8.25H14.25C13.8 8.25 13.5 7.95 13.5 7.5V5.25C13.5 4.65 13.275 4.05 12.825 3.675C12.525 3.375 12.075 3.15 11.7 3.075L8.25 9.9V18.75ZM3 10.5V18.75H6.75V10.5H3Z" fill="currentColor"/>
</svg>
