<svg width="32" height="32" viewBox="0 0 32 32" fill="none" xmlns="http://www.w3.org/2000/svg">
<path d="M10 27H4C3.5 27 3 26.8 2.6 26.4C2.2 26 2 25.5 2 25V14C2 13.5 2.2 13 2.6 12.6C3 12.2 3.5 12 4 12H9.4L14.1 2.6C14.3 2.2 14.6 2 15 2C16.3 2 17.6 2.5 18.5 3.5C19.5 4.4 20 5.7 20 7V9H26.7C27.1 9 27.5 9.1 27.9 9.3C28.3 9.5 28.6 9.7 28.9 10.1C29.2 10.4 29.4 10.8 29.5 11.2C29.6 11.6 29.7 12 29.6 12.5L28.1 24.5C28 25.2 27.7 25.9 27.1 26.4C26.6 26.9 25.9 27.2 25.1 27.2H10V27ZM11 25H25.2C25.4 25 25.7 24.9 25.9 24.7C26.1 24.5 26.2 24.3 26.2 24.1L27.7 12.1C27.7 12 27.7 11.8 27.7 11.7C27.7 11.6 27.6 11.4 27.5 11.3C27.4 11.2 27.3 11.1 27.2 11.1C27.1 11.1 26.9 11 26.7 11H19C18.4 11 18 10.6 18 10V7C18 6.2 17.7 5.4 17.1 4.9C16.7 4.5 16.1 4.2 15.6 4.1L11 13.2V25ZM4 14V25H9V14H4Z" fill="currentColor"/>
</svg>
