<svg width="24" height="24" viewBox="0 0 24 24" fill="none" xmlns="http://www.w3.org/2000/svg">
<path d="M8.03082 1.71946C7.89017 1.57878 7.69938 1.49975 7.50045 1.49976C7.30152 1.49976 7.11073 1.5788 6.97008 1.71948L5.84515 2.84463C5.79843 2.89137 5.75851 2.94363 5.72604 2.99988L5.25054 2.99987C5.05161 2.99987 4.86083 3.0789 4.72018 3.21957L3.21966 4.72024C3.07902 4.8609 3.00001 5.05167 3.00002 5.25058L3.00007 6.46502C2.67659 6.86471 2.33045 7.47202 2.25458 8.18388C2.19387 8.7534 2.18526 9.61998 2.43336 10.3796C2.55931 10.7653 2.76699 11.1713 3.11445 11.4857C3.47736 11.8141 3.94692 11.9999 4.50053 11.9999C4.91475 11.9999 5.25053 11.6642 5.25053 11.2499C5.25054 10.4726 5.48085 9.95958 5.68685 9.65053C5.76544 9.53261 5.8425 9.44155 5.90567 9.37545L6.79185 9.37552L7.66829 10.2737C7.95758 10.5702 8.43242 10.576 8.72888 10.2867C9.02534 9.99743 9.03116 9.52259 8.74187 9.22613L7.64472 8.10175C7.50359 7.95712 7.31007 7.87556 7.10799 7.87554L5.62507 7.87543C5.477 7.87542 5.33225 7.91923 5.20904 8.00136L5.62501 8.62543C5.20904 8.00136 5.20832 8.00183 5.20832 8.00183L5.20758 8.00233L5.20601 8.00338L5.20256 8.00572L5.19441 8.01132C5.18843 8.01546 5.18137 8.02044 5.1733 8.02627C5.15718 8.03791 5.13699 8.05297 5.11335 8.07154C5.06611 8.10865 5.00481 8.16003 4.93434 8.22658C4.79357 8.35953 4.61476 8.55445 4.4387 8.81858C4.23104 9.13014 4.03163 9.53167 3.90143 10.0298C3.88684 9.99384 3.87273 9.95525 3.85924 9.91392C3.70456 9.44034 3.69595 8.81365 3.74613 8.34286C3.792 7.91249 4.06749 7.49339 4.28043 7.28044C4.42108 7.13978 4.50009 6.94901 4.50008 6.75009L4.50003 5.56117L5.56121 4.49988L6.37556 4.49988C6.57449 4.49989 6.76527 4.42086 6.90592 4.28019C7.04658 4.13953 7.12559 3.94874 7.12557 3.74981L7.12557 3.6855L7.50049 3.3105L9.06486 4.87505L8.68991 5.25L8.5002 5.24999C8.28688 5.24997 8.08365 5.3408 7.94136 5.49973C7.79908 5.65866 7.7312 5.87066 7.75472 6.08268L7.87365 7.15473C7.89242 7.32393 7.96819 7.48171 8.08852 7.60214L9.21998 8.73457L9.22843 8.74289L9.28918 8.8018C9.58654 9.09015 10.0614 9.08285 10.3497 8.78548C10.6381 8.48812 10.6308 8.0133 10.3334 7.72495L10.2769 7.67016L9.33551 6.72796L9.32952 6.67402C9.40345 6.63794 9.47161 6.58962 9.53088 6.53035L10.6558 5.4054C10.9487 5.11252 10.9487 4.63767 10.6559 4.34477L8.03082 1.71946Z" fill="black"/>
<path d="M13.4281 3.67785C14.8963 2.20962 17.0666 1.87475 18.855 2.66885C19.0808 2.76915 19.2428 2.97429 19.288 3.21727C19.3331 3.46025 19.2557 3.70989 19.0809 3.88464L17.0332 5.93235L17.2555 6.76206L18.0852 6.98438L20.1262 4.9434C20.3016 4.76804 20.5523 4.69071 20.7959 4.7368C21.0396 4.7829 21.2447 4.94647 21.3439 5.17376C22.1219 6.95656 21.7829 9.11168 20.3224 10.5721C18.8841 12.0105 16.7719 12.3615 15.0042 11.6278L6.76291 20.9476C6.75275 20.9591 6.74224 20.9703 6.7314 20.9812C5.70627 22.0063 4.04422 22.0063 3.01909 20.9812C1.99396 19.956 1.99396 18.294 3.01909 17.2688C3.02993 17.258 3.04111 17.2475 3.0526 17.2373L12.3725 8.99608C11.6387 7.22831 11.9898 5.11619 13.4281 3.67785ZM17.0877 3.75651C16.1541 3.69805 15.2014 4.02589 14.4888 4.73851C13.3871 5.84016 13.2055 7.51563 13.9473 8.80572C14.1249 9.11447 14.0608 9.50551 13.794 9.74143L4.06564 18.3439C3.64046 18.7842 3.64516 19.4859 4.07975 19.9205C4.51433 20.3551 5.21601 20.3598 5.65638 19.9346L14.2588 10.2063C14.4947 9.93947 14.8858 9.87538 15.1945 10.0529C16.4846 10.7948 18.1601 10.6131 19.2617 9.51148C19.966 8.8072 20.2945 7.86839 20.2456 6.94529L18.8397 8.35122C18.6502 8.54069 18.3741 8.61469 18.1153 8.54534L16.449 8.09888C16.1902 8.02953 15.9881 7.82737 15.9187 7.56855L15.4722 5.90233C15.4029 5.64351 15.4769 5.36735 15.6664 5.17788L17.0877 3.75651Z" fill="black"/>
<path d="M15.3372 13.6024C15.6301 13.3095 16.105 13.3095 16.3979 13.6024L16.511 13.7156L21.1474 18.2115L21.1557 18.2196C21.6015 18.6654 21.7703 19.2206 21.7106 19.7585C21.6535 20.2722 21.3952 20.7282 21.0619 21.0615C20.7287 21.3947 20.2726 21.6531 19.7589 21.7102C19.221 21.7699 18.6658 21.6011 18.22 21.1552L18.2119 21.147L13.7119 16.5064C13.4235 16.209 13.4308 15.7342 13.7282 15.4459C14.0256 15.1575 14.5004 15.1648 14.7887 15.4622L19.284 20.0979C19.3993 20.2116 19.4993 20.2298 19.5933 20.2193C19.7124 20.2061 19.8657 20.1363 20.0012 20.0008C20.1367 19.8653 20.2065 19.712 20.2198 19.5929C20.2302 19.4989 20.212 19.3988 20.0983 19.2836L15.4627 14.7884L15.4544 14.7803L15.3372 14.6631C15.0443 14.3702 15.0443 13.8953 15.3372 13.6024Z" fill="black"/>
</svg>
