<svg version="1.1" xmlns="http://www.w3.org/2000/svg" xmlns:xlink="http://www.w3.org/1999/xlink" width="24" height="24" viewBox="0,0,256,256"><g fill="#ffffff" fill-rule="nonzero" stroke="none" stroke-width="1" stroke-linecap="butt" stroke-linejoin="miter" stroke-miterlimit="10" stroke-dasharray="" stroke-dashoffset="0" font-family="none" font-weight="none" font-size="none" text-anchor="none" style="mix-blend-mode: normal"><g transform="translate(0.16601,4.00115) scale(10.66667,10.66667)"><path d="M8.03082,1.71946c-0.14065,-0.14068 -0.33144,-0.21971 -0.53037,-0.2197c-0.19893,0 -0.38972,0.07904 -0.53037,0.21972l-1.12493,1.12515c-0.04672,0.04674 -0.08664,0.099 -0.11911,0.15525l-0.4755,-0.00001c-0.19893,0 -0.38971,0.07903 -0.53036,0.2197l-1.50052,1.50067c-0.14064,0.14066 -0.21965,0.33143 -0.21964,0.53034l0.00005,1.21444c-0.32348,0.39969 -0.66962,1.007 -0.74549,1.71886c-0.06071,0.56952 -0.06932,1.4361 0.17878,2.19572c0.12595,0.3857 0.33363,0.7917 0.68109,1.1061c0.36291,0.3284 0.83247,0.5142 1.38608,0.5142c0.41422,0 0.75,-0.3357 0.75,-0.75c0.00001,-0.7773 0.23032,-1.29032 0.43632,-1.59937c0.07859,-0.11792 0.15565,-0.20898 0.21882,-0.27508l0.88618,0.00007l0.87644,0.89818c0.28929,0.2965 0.76413,0.3023 1.06059,0.013c0.29646,-0.28927 0.30228,-0.76411 0.01299,-1.06057l-1.09715,-1.12438c-0.14113,-0.14463 -0.33465,-0.22619 -0.53673,-0.22621l-1.48292,-0.00011c-0.14807,-0.00001 -0.29282,0.0438 -0.41603,0.12593l0.41597,0.62407c-0.41597,-0.62407 -0.41669,-0.6236 -0.41669,-0.6236l-0.00074,0.0005l-0.00157,0.00105l-0.00345,0.00234l-0.00815,0.0056c-0.00598,0.00414 -0.01304,0.00912 -0.02111,0.01495c-0.01612,0.01164 -0.03631,0.0267 -0.05995,0.04527c-0.04724,0.03711 -0.10854,0.08849 -0.17901,0.15504c-0.14077,0.13295 -0.31958,0.32787 -0.49564,0.592c-0.20766,0.31156 -0.40707,0.71309 -0.53727,1.21122c-0.01459,-0.03596 -0.0287,-0.07455 -0.04219,-0.11588c-0.15468,-0.47358 -0.16329,-1.10027 -0.11311,-1.57106c0.04587,-0.43037 0.32136,-0.84947 0.5343,-1.06242c0.14065,-0.14066 0.21966,-0.33143 0.21965,-0.53035l-0.00005,-1.18892l1.06118,-1.06129h0.81435c0.19893,0.00001 0.38971,-0.07902 0.53036,-0.21969c0.14066,-0.14066 0.21967,-0.33145 0.21965,-0.53038v-0.06431l0.37492,-0.375l1.56437,1.56455l-0.37495,0.37495l-0.18971,-0.00001c-0.21332,-0.00002 -0.41655,0.09081 -0.55884,0.24974c-0.14228,0.15893 -0.21016,0.37093 -0.18664,0.58295l0.11893,1.07205c0.01877,0.1692 0.09454,0.32698 0.21487,0.44741l1.13146,1.13243l0.00845,0.00832l0.06075,0.05891c0.29736,0.28835 0.77222,0.28105 1.06052,-0.01632c0.2884,-0.29736 0.2811,-0.77218 -0.0163,-1.06053l-0.0565,-0.05479l-0.94139,-0.9422l-0.00599,-0.05394c0.07393,-0.03608 0.14209,-0.0844 0.20136,-0.14367l1.12492,-1.12495c0.2929,-0.29288 0.2929,-0.76773 0.0001,-1.06063z"></path><path d="M13.4281,3.67785c1.4682,-1.46823 3.6385,-1.8031 5.4269,-1.009c0.2258,0.1003 0.3878,0.30544 0.433,0.54842c0.0451,0.24298 -0.0323,0.49262 -0.2071,0.66737l-2.0477,2.04771l0.2223,0.82971l0.8297,0.22232l2.041,-2.04098c0.1754,-0.17536 0.4261,-0.25269 0.6697,-0.2066c0.2437,0.0461 0.4488,0.20967 0.548,0.43696c0.778,1.7828 0.439,3.93792 -1.0215,5.39834c-1.4383,1.4384 -3.5505,1.7894 -5.3182,1.0557l-8.24129,9.3198c-0.01016,0.0115 -0.02067,0.0227 -0.03151,0.0336c-1.02513,1.0251 -2.68718,1.0251 -3.71231,0c-1.02513,-1.0252 -1.02513,-2.6872 0,-3.7124c0.01084,-0.0108 0.02202,-0.0213 0.03351,-0.0315l9.3199,-8.24122c-0.7338,-1.76777 -0.3827,-3.87989 1.0556,-5.31823zM17.0877,3.75651c-0.9336,-0.05846 -1.8863,0.26938 -2.5989,0.982c-1.1017,1.10165 -1.2833,2.77712 -0.5415,4.06721c0.1776,0.30875 0.1135,0.69979 -0.1533,0.93571l-9.72836,8.60247c-0.42518,0.4403 -0.42048,1.142 0.01411,1.5766c0.43458,0.4346 1.13626,0.4393 1.57663,0.0141l8.60242,-9.7283c0.2359,-0.26683 0.627,-0.33092 0.9357,-0.1534c1.2901,0.7419 2.9656,0.5602 4.0672,-0.54142c0.7043,-0.70428 1.0328,-1.64309 0.9839,-2.56619l-1.4059,1.40593c-0.1895,0.18947 -0.4656,0.26347 -0.7244,0.19412l-1.6663,-0.44646c-0.2588,-0.06935 -0.4609,-0.27151 -0.5303,-0.53033l-0.4465,-1.66622c-0.0693,-0.25882 0.0047,-0.53498 0.1942,-0.72445z"></path><path d="M15.3372,13.6024c0.2929,-0.2929 0.7678,-0.2929 1.0607,0l0.1131,0.1132l4.6364,4.4959l0.0083,0.0081c0.4458,0.4458 0.6146,1.001 0.5549,1.5389c-0.0571,0.5137 -0.3154,0.9697 -0.6487,1.303c-0.3332,0.3332 -0.7893,0.5916 -1.303,0.6487c-0.5379,0.0597 -1.0931,-0.1091 -1.5389,-0.555l-0.0081,-0.0082l-4.5,-4.6406c-0.2884,-0.2974 -0.2811,-0.7722 0.0163,-1.0605c0.2974,-0.2884 0.7722,-0.2811 1.0605,0.0163l4.4953,4.6357c0.1153,0.1137 0.2153,0.1319 0.3093,0.1214c0.1191,-0.0132 0.2724,-0.083 0.4079,-0.2185c0.1355,-0.1355 0.2053,-0.2888 0.2186,-0.4079c0.0104,-0.094 -0.0078,-0.1941 -0.1215,-0.3093l-4.6356,-4.4952l-0.0083,-0.0081l-0.1172,-0.1172c-0.2929,-0.2929 -0.2929,-0.7678 0,-1.0607z"></path></g></g></svg>