<svg width="24" height="24" viewBox="0 0 24 24" fill="none" xmlns="http://www.w3.org/2000/svg">
<path d="M7.5 6C7.5 4.75736 8.50736 3.75 9.75 3.75H14.25C15.4926 3.75 16.5 4.75736 16.5 6V7.5H18C20.0711 7.5 21.75 9.17893 21.75 11.25V18.75C21.75 19.5784 21.0784 20.25 20.25 20.25H3.75C2.92157 20.25 2.25 19.5784 2.25 18.75V11.25C2.25 9.17893 3.92893 7.5 6 7.5H7.5V6ZM9 7.5H15V6C15 5.58579 14.6642 5.25 14.25 5.25H9.75C9.33579 5.25 9 5.58579 9 6V7.5ZM7.5 13.5H3.75V18.75H20.25V13.5H16.5V14.25C16.5 14.6642 16.1642 15 15.75 15C15.3358 15 15 14.6642 15 14.25V13.5H9V14.25C9 14.6642 8.66421 15 8.25 15C7.83579 15 7.5 14.6642 7.5 14.25V13.5ZM20.25 12V11.25C20.25 10.0074 19.2426 9 18 9H6C4.75736 9 3.75 10.0074 3.75 11.25V12H20.25Z" fill="currentColor"/>
</svg>
