<svg version="1.1" xmlns="http://www.w3.org/2000/svg" xmlns:xlink="http://www.w3.org/1999/xlink" width="24px" height="24px" viewBox="0,0,256,256"><g fill="#ffffff" fill-rule="evenodd" stroke="none" stroke-width="1" stroke-linecap="butt" stroke-linejoin="miter" stroke-miterlimit="10" stroke-dasharray="" stroke-dashoffset="0" font-family="none" font-weight="none" font-size="none" text-anchor="none" style="mix-blend-mode: normal"><g transform="scale(10.66667,10.66667)"><g id="Page-1"><g id="trash"><path d="M19,6c0,-0.55228 -0.44335,-1 -1.00937,-1h-2.99063v-1c0,-0.55228 -0.45098,-1 -0.99078,-1h-4.01844c-0.54719,0 -0.99078,0.44386 -0.99078,1v1h-2.99063c-0.55746,0 -1.00937,0.44386 -1.00937,1v1h1c0,5.01379 0,13.00126 0,13.00126c0,0.55159 0.45576,0.99874 1.00247,0.99874h9.99505c0.55365,0 1.00247,-0.44484 1.00247,-0.99558v-13.00442h1zM16,19v-12h-2v12zM13,19v-12h-2v12zM10,19v-12h-2v12zM14,4v1h-4v-1z" id="Shape"></path></g></g></g></g></svg>