<svg width="32" height="32" viewBox="0 0 32 32" fill="none" xmlns="http://www.w3.org/2000/svg">
<g clip-path="url(#clip0_30_267)">
<path d="M28.79 23.3864L23.04 16.0001H26C26.1868 16.0001 26.3699 15.9478 26.5285 15.8492C26.687 15.7505 26.8148 15.6093 26.8973 15.4418C26.9798 15.2742 27.0137 15.0868 26.9952 14.901C26.9767 14.7151 26.9065 14.5381 26.7925 14.3901L16.7925 1.39013C16.6991 1.26876 16.5791 1.17046 16.4417 1.10282C16.3043 1.03518 16.1532 1 16 1C15.8469 1 15.6958 1.03518 15.5584 1.10282C15.421 1.17046 15.3009 1.26876 15.2075 1.39013L5.20752 14.3901C5.09358 14.5381 5.02337 14.7151 5.00485 14.901C4.98633 15.0868 5.02023 15.2742 5.10272 15.4418C5.18522 15.6093 5.31299 15.7505 5.47158 15.8492C5.63017 15.9478 5.81323 16.0001 6.00002 16.0001H8.95502L3.20502 23.3864C3.08984 23.5345 3.01868 23.7121 2.99966 23.8988C2.98064 24.0855 3.01453 24.2737 3.09746 24.4421C3.18038 24.6104 3.309 24.752 3.46861 24.8507C3.62822 24.9494 3.81237 25.0012 4.00002 25.0001H15V30.0001C15 30.2653 15.1054 30.5197 15.2929 30.7072C15.4804 30.8948 15.7348 31.0001 16 31.0001C16.2652 31.0001 16.5196 30.8948 16.7071 30.7072C16.8947 30.5197 17 30.2653 17 30.0001V25.0001H28C28.1872 25.0002 28.3707 24.9478 28.5296 24.8487C28.6885 24.7496 28.8164 24.608 28.8987 24.4398C28.981 24.2717 29.0145 24.0838 28.9952 23.8975C28.976 23.7113 28.9049 23.5342 28.79 23.3864ZM6.04502 23.0001L11.795 15.6139C11.9102 15.4657 11.9814 15.2882 12.0004 15.1015C12.0194 14.9148 11.9855 14.7265 11.9026 14.5582C11.8197 14.3899 11.691 14.2483 11.5314 14.1496C11.3718 14.0509 11.1877 13.9991 11 14.0001H8.03127L16 3.64013L23.9688 14.0001H21C20.8129 14.0003 20.6296 14.0529 20.4709 14.1521C20.3122 14.2512 20.1845 14.3929 20.1023 14.561C20.0202 14.7291 19.9868 14.9169 20.0061 15.103C20.0253 15.2892 20.0964 15.4661 20.2113 15.6139L25.955 23.0001H6.04502Z" fill="currentColor"/>
</g>
<defs>
<clipPath id="clip0_30_267">
<rect width="32" height="32" fill="white"/>
</clipPath>
</defs>
</svg>
