<svg width="24" height="24" viewBox="0 0 24 24" fill="none" xmlns="http://www.w3.org/2000/svg">
<path d="M2.625 20.625V16.125C2.625 15.3 3.3 14.625 4.125 14.625H5.625V13.875C5.625 13.5 5.7 13.125 5.85 12.75C6 12.375 6.225 12.075 6.525 11.775C6.825 11.475 7.125 11.25 7.5 11.1C7.875 10.95 8.25 10.875 8.625 10.875H10.875V8.625H9.75C8.925 8.625 8.25 7.95 8.25 7.125V3.375C8.25 2.55 8.925 1.875 9.75 1.875L13.5 1.875C14.325 1.875 15 2.55 15 3.375V7.125C15 7.95 14.325 8.625 13.5 8.625H12.375V10.875H14.625C15 10.875 15.375 10.95 15.75 11.1C16.125 11.25 16.425 11.475 16.725 11.775C17.025 12.075 17.25 12.375 17.4 12.75C17.55 13.125 17.625 13.5 17.625 13.875V14.625H19.125C19.95 14.625 20.625 15.3 20.625 16.125V20.625C20.625 21.45 19.95 22.125 19.125 22.125H14.625C13.8 22.125 13.125 21.45 13.125 20.625V16.125C13.125 15.3 13.8 14.625 14.625 14.625H16.125V13.875C16.125 13.65 16.125 13.5 16.05 13.275C15.975 13.125 15.9 12.9 15.75 12.825C15.6 12.75 15.45 12.6 15.3 12.525C15 12.375 14.85 12.375 14.625 12.375H11.625H8.625C8.4 12.375 8.25 12.375 8.025 12.45C7.875 12.525 7.65 12.6 7.575 12.75C7.425 12.9 7.35 13.05 7.275 13.2C7.125 13.5 7.125 13.725 7.125 13.875V14.625H8.625C9.45 14.625 10.125 15.3 10.125 16.125L10.125 20.625C10.125 21.45 9.45 22.125 8.625 22.125H4.125C3.3 22.125 2.625 21.45 2.625 20.625ZM6.375 16.125H4.125V20.625H8.625L8.625 16.125H6.375ZM13.5 3.375L9.75 3.375V7.125L13.5 7.125V3.375ZM16.875 16.125H14.625V20.625H19.125V16.125H16.875Z" fill="currentColor"/>
</svg>
