<svg width="24" height="24" viewBox="0 0 24 24" fill="none" xmlns="http://www.w3.org/2000/svg">
<path d="M7.50093 21.75C4.20093 21.75 3.22593 20.475 3.15093 20.325C3.00093 20.1 3.00093 19.875 3.00093 19.65C3.00093 19.425 3.22593 19.275 3.45093 19.2C3.45093 19.2 5.70093 18.375 7.12593 16.725C6.52593 16.275 5.62593 15.525 4.80093 14.475C3.52593 12.675 2.17593 9.675 3.00093 5.1C3.07593 4.875 3.22593 4.65 3.52593 4.5C3.82593 4.425 4.05093 4.5 4.27593 4.65C4.27593 4.65 7.42593 7.725 11.2509 8.775V8.25C11.2509 7.05 11.7009 5.925 12.6009 5.025C13.5009 4.2 14.6259 3.75 15.8259 3.75C16.7259 3.75 17.5509 4.05 18.2259 4.5C18.8259 4.875 19.2759 5.4 19.6509 6H22.5009C22.8009 6 23.1009 6.15 23.1759 6.45C23.3259 6.75 23.2509 7.05 23.0259 7.275L20.1759 10.125C19.8759 13.275 18.5259 16.125 16.2009 18.3C13.8759 20.55 10.7259 21.75 7.50093 21.75ZM5.32593 19.95C5.77593 20.1 6.52593 20.25 7.50093 20.25C10.3509 20.25 13.1259 19.2 15.2259 17.175C17.3259 15.225 18.6009 12.525 18.7509 9.675C18.7509 9.525 18.8259 9.3 18.9759 9.225L20.7009 7.5H19.2009C18.9009 7.5 18.6009 7.35 18.5259 7.05C18.3009 6.525 17.9259 6.075 17.4009 5.775C16.8759 5.475 16.3509 5.25 15.8259 5.25C15.0009 5.25 14.2509 5.55 13.6509 6.15C13.0509 6.675 12.7509 7.425 12.7509 8.25V9.75C12.7509 9.975 12.6759 10.2 12.4509 10.35C12.3009 10.5 12.0759 10.5 11.8509 10.5C8.62593 9.975 5.77593 7.95 4.27593 6.75C3.75093 13.275 8.32593 15.75 8.55093 15.825C8.77593 15.9 8.85093 16.125 8.92593 16.275C9.00093 16.425 8.92593 16.725 8.85093 16.875C7.87593 18.375 6.37593 19.35 5.32593 19.95Z" fill="currentColor"/>
</svg>
