<svg width="24" height="24" viewBox="0 0 24 24" fill="none" xmlns="http://www.w3.org/2000/svg">
<path fill-rule="evenodd" clip-rule="evenodd" d="M4.33746 12.9697C4.12296 12.7552 3.80037 12.691 3.52012 12.8071C3.23986 12.9232 3.05713 13.1967 3.05713 13.5V20.25C3.05713 20.6642 3.39291 21 3.80713 21H10.5571C10.8605 21 11.134 20.8173 11.25 20.537C11.3661 20.2568 11.302 19.9342 11.0875 19.7197L4.33746 12.9697ZM4.55713 19.5V15.3107L8.74647 19.5H4.55713Z" fill="currentColor"/>
<path fill-rule="evenodd" clip-rule="evenodd" d="M13.5 3C13.1966 3 12.9232 3.18273 12.8071 3.46299C12.691 3.74324 12.7552 4.06583 12.9697 4.28033L19.7197 11.0303C19.9342 11.2448 20.2568 11.309 20.537 11.1929C20.8173 11.0768 21 10.8034 21 10.5V3.75C21 3.33579 20.6642 3 20.25 3H13.5ZM19.5 8.68934L15.3106 4.5H19.5V8.68934Z" fill="currentColor"/>
</svg>
