<svg width="24" height="24" viewBox="0 0 24 24" fill="none" xmlns="http://www.w3.org/2000/svg">
<path d="M2.63477 7.13477C3.04898 7.13477 3.38477 7.47055 3.38477 7.88477V12.0741L5.1043 10.3546C5.10425 10.3546 5.10434 10.3545 5.1043 10.3546C6.46785 8.99036 8.20554 8.06109 10.0973 7.6846C11.9891 7.3081 13.95 7.50119 15.732 8.23944C17.5141 8.97769 19.0371 10.2279 20.1084 11.832C21.1797 13.436 21.7511 15.3218 21.7504 17.2507C21.7502 17.6649 21.4143 18.0005 21.0001 18.0004C20.5859 18.0002 20.2502 17.6643 20.2504 17.2501C20.251 15.618 19.7675 14.0223 18.861 12.6651C17.9545 11.3078 16.6658 10.2499 15.1579 9.62523C13.6501 9.00055 11.9908 8.83717 10.3901 9.15575C8.78931 9.47433 7.31903 10.2606 6.16523 11.415L4.44543 13.1348H8.63477C9.04898 13.1348 9.38477 13.4706 9.38477 13.8848C9.38477 14.299 9.04898 14.6348 8.63477 14.6348H2.63477C2.22055 14.6348 1.88477 14.299 1.88477 13.8848V7.88477C1.88477 7.47055 2.22055 7.13477 2.63477 7.13477Z" fill="currentColor"/>
</svg>
