<svg width="24" height="24" viewBox="0 0 24 24" fill="none" xmlns="http://www.w3.org/2000/svg">
<path d="M3.9955 3.19505C4.30199 2.91642 4.77633 2.93901 5.05496 3.2455L20.055 19.7455C20.3336 20.052 20.311 20.5263 20.0045 20.805C19.698 21.0836 19.2237 21.061 18.9451 20.7545L15.7591 17.25H12.75V22.5C12.75 22.9142 12.4142 23.25 12 23.25C11.5858 23.25 11.25 22.9142 11.25 22.5V17.25H5.27022C5.25734 17.2503 5.2444 17.2503 5.23141 17.25H3.75C3.33579 17.25 3 16.9142 3 16.5C3 16.0858 3.33579 15.75 3.75 15.75H4.62076L6.21018 6.74615L3.94505 4.25451C3.66642 3.94802 3.68901 3.47368 3.9955 3.19505ZM7.48569 8.14921L6.14395 15.75H14.3955L7.48569 8.14921Z" fill="currentColor"/>
<path d="M8.54993 3C8.13571 3 7.79993 3.33579 7.79993 3.75C7.79993 4.16421 8.13571 4.5 8.54993 4.5H15.8706L17.6738 14.7272C17.7458 15.1352 18.1348 15.4075 18.5427 15.3356C18.9506 15.2637 19.223 14.8747 19.151 14.4668L17.3937 4.5H17.9999C18.4141 4.5 18.7499 4.16421 18.7499 3.75C18.7499 3.33579 18.4141 3 17.9999 3H8.54993Z" fill="currentColor"/>
</svg>
