<svg width="24" height="24" viewBox="0 0 24 24" fill="none" xmlns="http://www.w3.org/2000/svg">
<path d="M11.25 5.5498L5.775 11.0248C5.475 11.3248 5.025 11.3248 4.725 11.0248C4.425 10.7248 4.425 10.2748 4.725 9.9748L11.475 3.2248C11.5125 3.18731 11.55 3.16855 11.5875 3.1498C11.625 3.13105 11.6625 3.1123 11.7 3.0748C11.925 2.9998 12.15 2.9998 12.3 3.0748C12.375 3.0748 12.45 3.1498 12.525 3.2248L19.275 9.9748C19.575 10.2748 19.575 10.7248 19.275 11.0248C18.975 11.3248 18.525 11.3248 18.225 11.0248L12.75 5.5498V17.9998C12.75 18.4498 12.45 18.7498 12 18.7498C11.55 18.7498 11.25 18.4498 11.25 17.9998V5.5498Z" fill="currentColor"/>
<path d="M3 20.9998C3 20.5498 3.3 20.2498 3.75 20.2498H20.25C20.7 20.2498 21 20.5498 21 20.9998C21 21.4498 20.7 21.7498 20.25 21.7498H3.75C3.3 21.7498 3 21.4498 3 20.9998Z" fill="currentColor"/>
</svg>
