<svg width="24" height="24" viewBox="0 0 24 24" fill="none" xmlns="http://www.w3.org/2000/svg">
<path d="M5.77484 20.1763C5.92484 20.2513 5.99984 20.2513 6.14984 20.2513C6.37484 20.2513 6.67484 20.1013 6.74984 19.8763C6.97484 19.5013 6.89984 19.0513 6.52484 18.8263C6.52019 18.8217 6.50397 18.8104 6.47776 18.7921C6.0817 18.516 3.40277 16.6488 3.82484 12.0763C4.16545 7.58033 7.04287 5.62114 7.68021 5.18718C7.74457 5.14337 7.78609 5.11509 7.79984 5.10134C8.17484 4.95134 8.32484 4.50134 8.09984 4.12634C7.94984 3.75134 7.49984 3.67634 7.12484 3.82634C6.89984 3.90134 2.77484 6.15134 2.32484 11.9263C1.79984 17.8513 5.62484 20.1013 5.77484 20.1763Z" fill="currentColor"/>
<path d="M15.9749 19.8763C16.1249 20.1013 16.3499 20.2513 16.6499 20.2513C16.7249 20.2513 16.8749 20.2513 17.0249 20.1763C17.1749 20.1013 21.2999 17.8513 21.8249 12.0763C22.3499 6.15134 18.5249 3.90134 18.3749 3.82634C17.9999 3.67634 17.5499 3.75134 17.3249 4.12634C17.0999 4.50134 17.2499 4.95134 17.5499 5.25134C17.5499 5.25134 20.6999 7.05134 20.2499 12.0013C19.8749 16.9513 16.4249 18.8263 16.2749 18.9013C15.8999 19.0513 15.7499 19.5013 15.9749 19.8763Z" fill="currentColor"/>
<path d="M14.4749 16.7264C14.2499 16.7264 14.0249 16.5764 13.8749 16.4264L11.956 13.5189L9.45075 16.5013C9.30075 16.6513 9.07575 16.7263 8.85075 16.7263C8.70075 16.7263 8.47575 16.6513 8.40074 16.5763C8.10075 16.2763 8.02575 15.8263 8.32575 15.5263L11.1006 12.2229L8.9249 8.92638C8.6999 8.55138 8.7749 8.10138 9.1499 7.87638C9.5249 7.65138 9.9749 7.72638 10.1999 8.10138L12.1195 11.0099L14.6257 8.02632C14.9257 7.72633 15.3757 7.65133 15.6757 7.95133C15.9757 8.25133 16.0507 8.70133 15.7507 9.00132L12.9749 12.3059L15.1499 15.6014C15.3749 15.9764 15.2999 16.4264 14.9249 16.6514C14.7749 16.7264 14.6249 16.7264 14.4749 16.7264Z" fill="currentColor"/>
</svg>
