<svg width="24" height="24" viewBox="0 0 24 24" fill="none" xmlns="http://www.w3.org/2000/svg">
<path d="M3.82686 1.74549C3.54822 1.439 3.07389 1.41642 2.7674 1.69506C2.46091 1.9737 2.43834 2.44804 2.71697 2.75452L4.64477 4.875H2.25C1.85217 4.875 1.47064 5.03304 1.18934 5.31434C0.908035 5.59564 0.75 5.97718 0.75 6.375V17.625C0.75 18.0228 0.908035 18.4044 1.18934 18.6857C1.47065 18.967 1.85218 19.125 2.25 19.125H16.5C16.8081 19.125 17.1065 19.0302 17.3561 18.8567L20.4451 22.2545C20.7237 22.561 21.1981 22.5836 21.5046 22.3049C21.811 22.0263 21.8336 21.552 21.555 21.2455L17.8137 17.1303C17.808 17.1238 17.8022 17.1174 17.7963 17.1112L3.82686 1.74549ZM16.2362 17.625H2.25V6.375H6.00848L16.2362 17.625Z" fill="currentColor"/>
<path d="M23.25 7.5C23.25 7.23265 23.1077 6.98551 22.8764 6.85132C22.6452 6.71713 22.36 6.71617 22.1279 6.84882L18 9.20759V6.375C18 5.97718 17.842 5.59565 17.5607 5.31434C17.2794 5.03304 16.8979 4.875 16.5 4.875H10.3969C9.9827 4.875 9.64691 5.21079 9.64691 5.625C9.64691 6.03921 9.9827 6.375 10.3969 6.375H16.5V10.4925L16.5 10.5V13.5C16.5 13.5218 16.5009 13.5435 16.5028 13.5649C16.5213 13.7802 16.6306 13.9694 16.7923 14.0942C16.823 14.1178 16.8555 14.1391 16.8896 14.1579L22.1279 17.1512C22.36 17.2838 22.6452 17.2829 22.8764 17.1487C23.1077 17.0145 23.25 16.7674 23.25 16.5V7.5ZM18 10.9352L21.75 8.79239V15.2076L18 13.0648V10.9352Z" fill="currentColor"/>
</svg>
