<svg width="24" height="24" viewBox="0 0 24 24" fill="none" xmlns="http://www.w3.org/2000/svg">
<path d="M1.18934 5.31434C1.47064 5.03304 1.85217 4.875 2.25 4.875H14.25C15.2446 4.875 16.1984 5.27009 16.9016 5.97335C17.6049 6.67661 18 7.63044 18 8.625V9.20761L22.1279 6.84882C22.36 6.71617 22.6452 6.71713 22.8764 6.85132C23.1077 6.98551 23.25 7.23265 23.25 7.5V16.5C23.25 16.7674 23.1077 17.0145 22.8764 17.1487C22.6452 17.2829 22.36 17.2838 22.1279 17.1512L18 14.7924V17.625C18 18.0228 17.842 18.4044 17.5607 18.6857C17.2794 18.967 16.8978 19.125 16.5 19.125H4.5C3.50544 19.125 2.55161 18.7299 1.84835 18.0267C1.14509 17.3234 0.75 16.3696 0.75 15.375V6.375C0.75 5.97718 0.908035 5.59564 1.18934 5.31434ZM16.5 13.4854V10.5146C16.4998 10.5053 16.4998 10.4961 16.5 10.4868V8.625C16.5 8.02826 16.2629 7.45597 15.841 7.03401C15.419 6.61205 14.8467 6.375 14.25 6.375L2.25 6.375V15.375C2.25 15.9717 2.48705 16.544 2.90901 16.966C3.33097 17.3879 3.90326 17.625 4.5 17.625H16.5V13.5132C16.4998 13.5039 16.4998 13.4947 16.5 13.4854ZM18 13.0648L21.75 15.2076V8.79239L18 10.9352V13.0648Z" fill="currentColor"/>
</svg>
