<svg width="24" height="24" viewBox="0 0 24 24" fill="none" xmlns="http://www.w3.org/2000/svg">
<path d="M14.5795 2.32627C14.8368 2.45212 15 2.71356 15 3.00001V21C15 21.2865 14.8368 21.5479 14.5795 21.6737C14.3222 21.7996 14.0157 21.7679 13.7895 21.592L7.24267 16.5H3C2.60218 16.5 2.22065 16.342 1.93934 16.0607C1.65803 15.7794 1.5 15.3978 1.5 15V9.00001C1.5 8.60218 1.65804 8.22065 1.93934 7.93935C2.22064 7.65804 2.60217 7.50001 3 7.50001H7.24267L13.7895 2.40799C14.0157 2.23213 14.3222 2.20042 14.5795 2.32627ZM13.5 4.53349L7.96046 8.84202C7.82881 8.94441 7.66678 9.00001 7.5 9.00001H3V15H7.5C7.66678 15 7.82881 15.0556 7.96046 15.158L13.5 19.4665V4.53349Z" fill="currentColor"/>
</svg>
