<svg width="24" height="24" viewBox="0 0 24 24" fill="none" xmlns="http://www.w3.org/2000/svg">
<path d="M14.5795 2.32627C14.8368 2.45212 15 2.71356 15 3.00001V21C15 21.2865 14.8368 21.5479 14.5795 21.6737C14.3222 21.7996 14.0157 21.7679 13.7895 21.592L7.24267 16.5H3C2.60218 16.5 2.22065 16.342 1.93934 16.0607C1.65803 15.7794 1.5 15.3978 1.5 15V9.00001C1.5 8.60218 1.65804 8.22065 1.93934 7.93935C2.22064 7.65804 2.60217 7.50001 3 7.50001H7.24267L13.7895 2.40799C14.0157 2.23213 14.3222 2.20042 14.5795 2.32627ZM6.75 9.00001H3V15H6.75V9.00001ZM8.25 15.3832L13.5 19.4665V4.53349L8.25 8.61682V15.3832ZM19.9909 6.69842C20.2835 6.40518 20.7584 6.40463 21.0516 6.69718C21.749 7.39298 22.3023 8.21951 22.6798 9.12945C23.0574 10.0394 23.2517 11.0149 23.2517 12C23.2517 12.9852 23.0574 13.9606 22.6798 14.8706C22.3023 15.7805 21.749 16.607 21.0516 17.3028C20.7584 17.5954 20.2835 17.5948 19.9909 17.3016C19.6984 17.0084 19.6989 16.5335 19.9922 16.2409C20.5499 15.6845 20.9924 15.0235 21.2944 14.2957C21.5963 13.568 21.7517 12.7879 21.7517 12C21.7517 11.2121 21.5963 10.432 21.2944 9.70428C20.9924 8.97656 20.5499 8.31554 19.9922 7.75908C19.6989 7.46652 19.6984 6.99165 19.9909 6.69842ZM17.3374 9.35195C17.6297 9.05849 18.1046 9.05758 18.3981 9.34991C18.7469 9.69744 19.0238 10.1104 19.2126 10.5652C19.4015 11.02 19.4987 11.5076 19.4987 12C19.4987 12.4924 19.4015 12.98 19.2126 13.4348C19.0238 13.8896 18.7469 14.3026 18.3981 14.6501C18.1046 14.9424 17.6297 14.9415 17.3374 14.6481C17.0451 14.3546 17.046 13.8797 17.3394 13.5874C17.5484 13.3792 17.7142 13.1319 17.8274 12.8594C17.9405 12.587 17.9987 12.295 17.9987 12C17.9987 11.705 17.9405 11.413 17.8274 11.1406C17.7142 10.8682 17.5484 10.6208 17.3394 10.4126C17.046 10.1203 17.0451 9.6454 17.3374 9.35195Z" fill="currentColor"/>
</svg>
