<svg width="24" height="24" viewBox="0 0 24 24" fill="none" xmlns="http://www.w3.org/2000/svg">
<path d="M14.5793 2.32615C14.8367 2.45196 15 2.71346 15 3.00001V10.0125C15 10.4267 14.6642 10.7625 14.25 10.7625C13.8358 10.7625 13.5 10.4267 13.5 10.0125V4.53484L10.9796 6.49795C10.6528 6.75248 10.1816 6.69391 9.92706 6.36712C9.67253 6.04034 9.7311 5.56909 10.0579 5.31456L13.7891 2.40831C14.0152 2.23223 14.3218 2.20035 14.5793 2.32615ZM3.9955 3.19505C4.30199 2.91642 4.77632 2.93901 5.05496 3.2455L14.8031 13.9685C14.8045 13.9699 14.8058 13.9714 14.8071 13.9728L20.055 19.7455C20.3336 20.052 20.311 20.5263 20.0045 20.805C19.698 21.0836 19.2237 21.061 18.945 20.7545L15 16.415V21C15 21.2865 14.8368 21.5479 14.5795 21.6737C14.3222 21.7996 14.0157 21.7679 13.7895 21.592L7.24267 16.5H3C2.60218 16.5 2.22065 16.342 1.93934 16.0607C1.65803 15.7794 1.5 15.3978 1.5 15V9.00001C1.5 8.60218 1.65804 8.22065 1.93934 7.93935C2.22064 7.65804 2.60217 7.50001 3 7.50001H6.8955L3.94504 4.25451C3.66641 3.94802 3.689 3.47368 3.9955 3.19505ZM8.25913 9.00001H3V15H7.5C7.66678 15 7.82881 15.0556 7.96046 15.158L13.5 19.4665V14.765L8.25913 9.00001ZM21 7.50001C21.4142 7.50001 21.75 7.83579 21.75 8.25001V15.75C21.75 16.1642 21.4142 16.5 21 16.5C20.5858 16.5 20.25 16.1642 20.25 15.75V8.25001C20.25 7.83579 20.5858 7.50001 21 7.50001ZM18 9.00001C18.4142 9.00001 18.75 9.33579 18.75 9.75001V14.25C18.75 14.6642 18.4142 15 18 15C17.5858 15 17.25 14.6642 17.25 14.25V9.75001C17.25 9.33579 17.5858 9.00001 18 9.00001Z" fill="currentColor"/>
</svg>
