<svg width="24" height="24" viewBox="0 0 24 24" fill="none" xmlns="http://www.w3.org/2000/svg">
<path d="M14.5795 2.32627C14.8368 2.45212 15 2.71356 15 3.00001V21C15 21.2865 14.8368 21.5479 14.5795 21.6737C14.3222 21.7996 14.0157 21.7679 13.7895 21.592L7.24267 16.5H3C2.60218 16.5 2.22065 16.342 1.93934 16.0607C1.65803 15.7794 1.5 15.3978 1.5 15V9.00001C1.5 8.60218 1.65804 8.22065 1.93934 7.93935C2.22064 7.65804 2.60217 7.50001 3 7.50001H7.24267L13.7895 2.40799C14.0157 2.23213 14.3222 2.20042 14.5795 2.32627ZM13.5 4.53349L7.96046 8.84202C7.82881 8.94441 7.66678 9.00001 7.5 9.00001H3V15H7.5C7.66678 15 7.82881 15.0556 7.96046 15.158L13.5 19.4665V4.53349Z" fill="currentColor"/>
<path d="M23.0303 9.21967C23.3232 9.51256 23.3232 9.98744 23.0303 10.2803L21.3107 12L23.0303 13.7197C23.3232 14.0126 23.3232 14.4874 23.0303 14.7803C22.7374 15.0732 22.2626 15.0732 21.9697 14.7803L20.25 13.0607L18.5303 14.7803C18.2374 15.0732 17.7626 15.0732 17.4697 14.7803C17.1768 14.4874 17.1768 14.0126 17.4697 13.7197L19.1893 12L17.4697 10.2803C17.1768 9.98744 17.1768 9.51256 17.4697 9.21967C17.7626 8.92678 18.2374 8.92678 18.5303 9.21967L20.25 10.9393L21.9697 9.21967C22.2626 8.92678 22.7374 8.92678 23.0303 9.21967Z" fill="currentColor"/>
</svg>
