<svg width="32" height="32" viewBox="0 0 32 32" fill="none" xmlns="http://www.w3.org/2000/svg">
<path fill-rule="evenodd" clip-rule="evenodd" d="M22.5962 3.99692C23.3772 3.21587 24.6435 3.21587 25.4246 3.99692L28.0099 6.58228C28.791 7.36333 28.791 8.62966 28.0099 9.4107L9.42187 27.9988C8.64083 28.7798 7.3745 28.7798 6.59345 27.9988L4.00809 25.4134C3.22704 24.6324 3.22704 23.366 4.00809 22.585L17.2249 9.36814C17.2461 9.34227 17.2687 9.31721 17.2929 9.29307C17.317 9.26894 17.3421 9.2463 17.3679 9.22515L22.5962 3.99692ZM18.0035 11.418L5.4223 23.9992L8.00766 26.5846L20.5889 14.0033L18.0035 11.418ZM22.0031 12.5891L19.4178 10.0037L24.0104 5.41113L26.5957 7.99649L22.0031 12.5891ZM10.5 4.00018C11.0523 4.00018 11.5 4.44789 11.5 5.00018V6.50018H13C13.5523 6.50018 14 6.94789 14 7.50018C14 8.05246 13.5523 8.50018 13 8.50018H11.5V10.0002C11.5 10.5525 11.0523 11.0002 10.5 11.0002C9.94769 11.0002 9.49997 10.5525 9.49997 10.0002V8.50018H7.99997C7.44769 8.50018 6.99997 8.05246 6.99997 7.50018C6.99997 6.94789 7.44769 6.50018 7.99997 6.50018H9.49997V5.00018C9.49997 4.44789 9.94769 4.00018 10.5 4.00018ZM27 15.0002C27.5523 15.0002 28 15.4479 28 16.0002V18.0002H30C30.5523 18.0002 31 18.4479 31 19.0002C31 19.5525 30.5523 20.0002 30 20.0002H28V22.0002C28 22.5525 27.5523 23.0002 27 23.0002C26.4477 23.0002 26 22.5525 26 22.0002V20.0002H24C23.4477 20.0002 23 19.5525 23 19.0002C23 18.4479 23.4477 18.0002 24 18.0002H26V16.0002C26 15.4479 26.4477 15.0002 27 15.0002ZM21 22.0002C21.5523 22.0002 22 22.4479 22 23.0002V24.0002H23C23.5523 24.0002 24 24.4479 24 25.0002C24 25.5525 23.5523 26.0002 23 26.0002H22V27.0002C22 27.5525 21.5523 28.0002 21 28.0002C20.4477 28.0002 20 27.5525 20 27.0002V26.0002H19C18.4477 26.0002 18 25.5525 18 25.0002C18 24.4479 18.4477 24.0002 19 24.0002H20V23.0002C20 22.4479 20.4477 22.0002 21 22.0002Z" fill="currentColor"/>
</svg>
