<svg width="24" height="24" viewBox="0 0 24 24" fill="none" xmlns="http://www.w3.org/2000/svg">
<path d="M12 12.75H15.75C16.2 12.75 16.5 12.45 16.5 12C16.5 11.55 16.2 11.25 15.75 11.25H12.75V8.25C12.75 7.8 12.45 7.5 12 7.5C11.55 7.5 11.25 7.8 11.25 8.25V12C11.25 12.45 11.55 12.75 12 12.75Z" fill="currentColor"/>
<path d="M8.17503 2.7L7.54808 5.97408C5.702 7.34366 4.5 9.53827 4.5 12C4.5 14.4595 5.69982 16.6523 7.54305 18.0222L8.10003 21.2248C8.17503 21.5998 8.32503 21.8999 8.62503 22.1249C8.92503 22.3498 9.22503 22.4999 9.60003 22.4999V22.5749H14.475C14.85 22.5749 15.15 22.4249 15.45 22.1999C15.75 21.9748 15.9 21.6749 15.975 21.2999L16.5441 17.9564C18.3379 16.5828 19.5 14.4205 19.5 12C19.5 9.53777 18.2975 7.34275 16.4508 5.97323L15.825 2.775C15.75 2.4 15.6 2.1 15.3 1.875C15 1.65 14.7 1.5 14.325 1.5H9.60003C9.30003 1.5 8.92503 1.65 8.70003 1.8C8.40003 2.025 8.25003 2.325 8.17503 2.7ZM14.7909 18.9584L14.4 20.9999H9.67503L9.29031 18.9907C10.1317 19.3194 11.0458 19.5 12 19.5C12.985 19.5 13.9272 19.3076 14.7909 18.9584ZM14.4 3L14.7444 5.02293C13.8934 4.68559 12.9673 4.5 12 4.5C11.0458 4.5 10.1317 4.6806 9.29028 5.0093L9.67503 3H14.4ZM6 12C6 8.7 8.7 6 12 6C15.3 6 18 8.7 18 12C18 15.3 15.3 18 12 18C8.7 18 6 15.3 6 12Z" fill="currentColor"/>
</svg>
