<svg width="24" height="24" viewBox="0 0 24 24" fill="none" xmlns="http://www.w3.org/2000/svg">
<path d="M4.06055 9.75C3.85825 10.4652 3.75 11.22 3.75 12C3.75 12.78 3.85825 13.5348 4.06055 14.25H7.62034C7.54146 13.5271 7.5 12.7732 7.5 12C7.5 11.2268 7.54146 10.4729 7.62034 9.75H4.06055ZM4.64956 8.25H7.84569C8.04263 7.23416 8.31835 6.30836 8.65891 5.51313C8.86838 5.02404 9.1073 4.57281 9.37559 4.17619C7.31923 4.86569 5.62431 6.3432 4.64956 8.25ZM14.6244 4.17619C14.8927 4.57281 15.1316 5.02404 15.3411 5.51313C15.6817 6.30836 15.9574 7.23416 16.1543 8.25H19.3504C18.3757 6.3432 16.6808 4.86569 14.6244 4.17619ZM19.9395 9.75H16.3797C16.4585 10.4729 16.5 11.2268 16.5 12C16.5 12.7732 16.4585 13.5271 16.3797 14.25H19.9395C20.1418 13.5348 20.25 12.78 20.25 12C20.25 11.22 20.1418 10.4652 19.9395 9.75ZM19.3504 15.75H16.1543C15.9574 16.7658 15.6817 17.6916 15.3411 18.4869C15.1316 18.976 14.8927 19.4272 14.6244 19.8238C16.6808 19.1343 18.3757 17.6568 19.3504 15.75ZM9.37559 19.8238C9.1073 19.4272 8.86838 18.976 8.65891 18.4869C8.31835 17.6916 8.04263 16.7658 7.84569 15.75H4.64956C5.62431 17.6568 7.31923 19.1343 9.37559 19.8238ZM9.37646 15.75C9.54878 16.5557 9.77378 17.2799 10.0378 17.8963C10.3533 18.6331 10.7097 19.1813 11.0673 19.5345C11.4217 19.8845 11.736 20.0062 12 20.0062C12.264 20.0062 12.5783 19.8845 12.9327 19.5345C13.2903 19.1813 13.6467 18.6331 13.9622 17.8963C14.2262 17.2799 14.4512 16.5557 14.6235 15.75H9.37646ZM14.87 14.25C14.9544 13.5377 15 12.7832 15 12C15 11.2168 14.9544 10.4623 14.87 9.75H9.12997C9.04564 10.4623 9 11.2168 9 12C9 12.7832 9.04564 13.5377 9.12997 14.25H14.87ZM9.37646 8.25H14.6235C14.4512 7.44429 14.2262 6.7201 13.9622 6.10366C13.6467 5.36692 13.2903 4.81865 12.9327 4.46548C12.5783 4.11548 12.264 3.99375 12 3.99375C11.736 3.99375 11.4217 4.11548 11.0673 4.46548C10.7097 4.81865 10.3533 5.36692 10.0378 6.10366C9.77378 6.7201 9.54878 7.44429 9.37646 8.25ZM2.25 12C2.25 6.61522 6.61522 2.25 12 2.25C17.3848 2.25 21.75 6.61522 21.75 12C21.75 17.3848 17.3848 21.75 12 21.75C6.61522 21.75 2.25 17.3848 2.25 12Z" fill="currentColor"/>
</svg>
