<svg width="24" height="24" viewBox="0 0 24 24" fill="none" xmlns="http://www.w3.org/2000/svg">
<path d="M14.25 6.75C11.5576 6.75 9.375 8.93261 9.375 11.625C9.375 14.3174 11.5576 16.5 14.25 16.5C16.9424 16.5 19.125 14.3174 19.125 11.625C19.125 8.93261 16.9424 6.75 14.25 6.75ZM13.5 8.33363V11.5823C13.4804 11.9211 13.6942 12.2416 14.0334 12.3434L17.1868 13.2894C16.6066 14.3109 15.5088 15 14.25 15C12.386 15 10.875 13.489 10.875 11.625C10.875 10.0188 11.997 8.67468 13.5 8.33363ZM15 11.0673V8.33363C16.503 8.67468 17.625 10.0188 17.625 11.625C17.625 11.7015 17.6225 11.7773 17.6175 11.8525L15 11.0673Z" fill="currentColor"/>
<path d="M6 6.75C5.58579 6.75 5.25 7.08579 5.25 7.5V8.25C5.25 8.66421 5.58579 9 6 9H7.5C7.91421 9 8.25 8.66421 8.25 8.25V7.5C8.25 7.08579 7.91421 6.75 7.5 6.75H6Z" fill="currentColor"/>
<path d="M5.25 11.25C5.25 10.8358 5.58579 10.5 6 10.5H7.5C7.91421 10.5 8.25 10.8358 8.25 11.25V12C8.25 12.4142 7.91421 12.75 7.5 12.75H6C5.58579 12.75 5.25 12.4142 5.25 12V11.25Z" fill="currentColor"/>
<path d="M6 14.25C5.58579 14.25 5.25 14.5858 5.25 15V15.75C5.25 16.1642 5.58579 16.5 6 16.5H7.5C7.91421 16.5 8.25 16.1642 8.25 15.75V15C8.25 14.5858 7.91421 14.25 7.5 14.25H6Z" fill="currentColor"/>
<path d="M2.25 5.25C2.25 4.42157 2.92157 3.75 3.75 3.75H20.25C21.0784 3.75 21.75 4.42157 21.75 5.25V18.75C21.75 19.5784 21.0784 20.25 20.25 20.25H3.75C2.92157 20.25 2.25 19.5784 2.25 18.75V5.25ZM20.25 5.25H3.75V18.75H20.25V5.25Z" fill="currentColor"/>
</svg>
