<svg width="24" height="24" viewBox="0 0 24 24" fill="none" xmlns="http://www.w3.org/2000/svg">
<path d="M20.625 21H16.125C15.3 21 14.625 20.325 14.625 19.5V18H13.875C13.5 18 13.125 17.925 12.75 17.775C12.375 17.625 12.075 17.4 11.775 17.1C11.475 16.8 11.25 16.5 11.1 16.125C10.95 15.75 10.875 15.375 10.875 15V12.75H8.625V13.875C8.625 14.7 7.95 15.375 7.125 15.375H3.375C2.55 15.375 1.875 14.7 1.875 13.875L1.875 10.125C1.875 9.3 2.55 8.625 3.375 8.625H7.125C7.95 8.625 8.625 9.3 8.625 10.125V11.25H10.875V9C10.875 8.625 10.95 8.25 11.1 7.875C11.25 7.5 11.475 7.2 11.775 6.9C12.075 6.6 12.375 6.375 12.75 6.225C13.125 6.075 13.5 6 13.875 6H14.625V4.5C14.625 3.675 15.3 3 16.125 3L20.625 3C21.45 3 22.125 3.675 22.125 4.5V9C22.125 9.825 21.45 10.5 20.625 10.5H16.125C15.3 10.5 14.625 9.825 14.625 9V7.5H13.875C13.65 7.5 13.5 7.5 13.275 7.575C13.125 7.65 12.9 7.725 12.825 7.875C12.75 8.025 12.6 8.175 12.525 8.325C12.375 8.625 12.375 8.775 12.375 9V12V15C12.375 15.225 12.375 15.375 12.45 15.6C12.525 15.75 12.6 15.975 12.75 16.05C12.9 16.2 13.05 16.275 13.2 16.35C13.5 16.5 13.725 16.5 13.875 16.5H14.625V15C14.625 14.175 15.3 13.5 16.125 13.5L20.625 13.5C21.45 13.5 22.125 14.175 22.125 15V19.5C22.125 20.325 21.45 21 20.625 21ZM16.125 17.25V19.5H20.625V15L16.125 15V17.25ZM3.375 10.125L3.375 13.875H7.125L7.125 10.125H3.375ZM16.125 6.75V9H20.625V4.5H16.125V6.75Z" fill="currentColor"/>
</svg>
