<svg width="32" height="32" viewBox="0 0 32 32" fill="none" xmlns="http://www.w3.org/2000/svg">
<path fill-rule="evenodd" clip-rule="evenodd" d="M19.2949 10.5537C20.1397 10.5538 20.9764 10.7207 21.7568 11.0439C22.4399 11.3269 23.0686 11.7253 23.6152 12.2207L23.8447 12.4385L23.8457 12.4404L28.293 16.917C28.5094 17.134 28.6307 17.4279 28.6309 17.7344C28.6309 18.0413 28.5079 18.3355 28.291 18.5527L28.292 18.5537L26.4014 20.4453C26.1842 20.6623 25.8891 20.7852 25.582 20.7852C25.2753 20.785 24.9807 20.663 24.7637 20.4463L23.6035 19.2871C23.6014 19.2851 23.5988 19.2833 23.5967 19.2812C23.5942 19.2788 23.5922 19.2759 23.5898 19.2734L22.7236 18.4072L21.332 19.7988C21.3292 19.8018 21.3272 19.8056 21.3242 19.8086C21.3214 19.8115 21.3174 19.8136 21.3145 19.8164L16.4658 24.666C16.2486 24.8831 15.9536 25.0059 15.6465 25.0059C15.3396 25.0057 15.0452 24.883 14.8281 24.666L13.4639 23.3037C13.2742 23.1138 13.1562 22.8644 13.1299 22.5996L13.124 22.4854L13.1299 22.3701C13.1563 22.1053 13.2732 21.8559 13.4629 21.666L19.7217 15.4053L16.7822 12.4668C16.363 12.6998 15.9772 12.9906 15.6367 13.3311L15.6357 13.3301L14.7354 14.2617C14.4931 14.5118 14.094 14.5185 13.8438 14.2764C13.5938 14.0342 13.5872 13.635 13.8291 13.3848L14.7373 12.4463L14.7441 12.4385C15.2911 11.8914 15.9333 11.4501 16.6367 11.1309C16.6535 11.1229 16.6702 11.1148 16.6875 11.1084C16.7357 11.087 16.7833 11.0641 16.832 11.0439C17.6126 10.7206 18.45 10.5537 19.2949 10.5537ZM14.4277 22.4844L15.6455 23.7012L19.9844 19.3613L18.7666 18.1436L14.4277 22.4844ZM24.9346 18.835L25.5811 19.4805L27.3262 17.7344L26.6826 17.0869L24.9346 18.835ZM19.2949 11.8154C18.8792 11.8154 18.4654 11.8654 18.0635 11.9639L21.0596 14.96C21.3057 15.2062 21.3057 15.6053 21.0596 15.8516L19.6592 17.251L20.877 18.4688L22.2773 17.0703L22.377 16.9893C22.6216 16.8278 22.9544 16.8552 23.1699 17.0703L24.043 17.9424L25.7939 16.1914L22.9521 13.3301C22.472 12.85 21.9017 12.4689 21.2744 12.209C20.647 11.9491 19.974 11.8155 19.2949 11.8154Z" fill="currentColor"/>
<path fill-rule="evenodd" clip-rule="evenodd" d="M24.1846 6.36914C24.5326 6.36947 24.8154 6.65185 24.8154 7V10.3438C24.8152 10.6917 24.5325 10.9743 24.1846 10.9746C23.8364 10.9746 23.5539 10.6919 23.5537 10.3438V7.63086H17.75V8.68164C17.7498 9.02983 17.4674 9.3125 17.1191 9.3125C16.771 9.31237 16.4885 9.02975 16.4883 8.68164V7.63086H10.5176V11.415H12.4102C12.7584 11.4152 13.041 11.6976 13.041 12.0459C13.0408 12.394 12.7582 12.6766 12.4102 12.6768H10.5176V16.4609H15.7744C16.1225 16.4612 16.4053 16.7436 16.4053 17.0918C16.4051 17.4398 16.1224 17.7224 15.7744 17.7227H10.5176V21.5078H11.2324C11.5805 21.508 11.863 21.7897 11.8633 22.1377C11.8631 22.4857 11.5805 22.7684 11.2324 22.7686H4.84082C4.45083 22.7685 4.07669 22.6135 3.80078 22.3379C3.52487 22.062 3.36925 21.6871 3.36914 21.2969V7C3.36914 6.65164 3.65164 6.36914 4 6.36914H24.1846ZM4.63086 21.2969C4.63097 21.3525 4.65305 21.407 4.69238 21.4463C4.73171 21.4853 4.78541 21.5078 4.84082 21.5078H9.25586V17.7227H4.63086V21.2969ZM4.63086 16.4609H9.25586V12.6768H4.63086V16.4609ZM4.63086 11.415H9.25586V7.63086H4.63086V11.415Z" fill="currentColor"/>
</svg>
