<svg width="24" height="24" viewBox="0 0 24 24" fill="none" xmlns="http://www.w3.org/2000/svg">
<path d="M1.5 6C1.5 5.58579 1.83579 5.25 2.25 5.25H21.75C22.1642 5.25 22.5 5.58579 22.5 6V9C22.5 9.41421 22.1642 9.75 21.75 9.75H20.25V18C20.25 18.4142 19.9142 18.75 19.5 18.75C19.0858 18.75 18.75 18.4142 18.75 18V9.75H5.25V18C5.25 18.4142 4.91421 18.75 4.5 18.75C4.08579 18.75 3.75 18.4142 3.75 18V9.75H2.25C1.83579 9.75 1.5 9.41421 1.5 9V6ZM21 8.25V6.75H3V8.25H21Z" fill="currentColor"/>
<path d="M6.75 12C6.75 11.5858 7.08579 11.25 7.5 11.25H16.5C16.9142 11.25 17.25 11.5858 17.25 12C17.25 12.4142 16.9142 12.75 16.5 12.75H7.5C7.08579 12.75 6.75 12.4142 6.75 12Z" fill="currentColor"/>
<path d="M7.5 14.25C7.08579 14.25 6.75 14.5858 6.75 15C6.75 15.4142 7.08579 15.75 7.5 15.75H16.5C16.9142 15.75 17.25 15.4142 17.25 15C17.25 14.5858 16.9142 14.25 16.5 14.25H7.5Z" fill="currentColor"/>
</svg>
