<svg width="24" height="24" viewBox="0 0 24 24" fill="none" xmlns="http://www.w3.org/2000/svg">
<path d="M15.9291 3.83007C15.2481 3.7054 14.5453 3.71618 13.8615 3.8663C12.7938 4.10072 11.826 4.66317 11.0939 5.47491C10.3617 6.28666 9.90164 7.30705 9.77819 8.39323C9.65475 9.47942 9.87406 10.577 10.4054 11.5324C10.5782 11.8431 10.5092 12.2324 10.24 12.4647L4.16922 17.7043C3.89805 17.9845 3.74609 18.3594 3.74609 18.75C3.74609 19.1489 3.90454 19.5314 4.18658 19.8135C4.46861 20.0955 4.85114 20.2539 5.25 20.2539C5.6406 20.2539 6.01553 20.102 6.29577 19.8308L11.5353 13.76C11.7749 13.4824 12.1735 13.4233 12.4793 13.6011C13.432 14.1278 14.525 14.3448 15.6068 14.2218C16.693 14.0984 17.7134 13.6384 18.5251 12.9062C19.3369 12.174 19.8993 11.2063 20.1337 10.1385C20.2839 9.45479 20.2946 8.75194 20.17 8.07096L17.1247 11.1235C16.9471 11.3015 16.6922 11.3787 16.4457 11.329L13.7925 10.7947C13.4964 10.735 13.265 10.5036 13.2054 10.2075L12.671 7.55438C12.6214 7.30789 12.6985 7.05292 12.8765 6.87533L15.9291 3.83007ZM12.2909 15.1804L7.41152 20.8338C7.39954 20.8477 7.38705 20.8612 7.37408 20.8741C6.81074 21.4375 6.04668 21.7539 5.25 21.7539C4.45331 21.7539 3.68926 21.4375 3.12592 20.8741C2.56258 20.3108 2.24609 19.5467 2.24609 18.75C2.24609 17.9534 2.56258 17.1893 3.12592 16.626C3.13889 16.613 3.15233 16.6005 3.16621 16.5885L8.81966 11.7092C8.33778 10.6185 8.15232 9.41586 8.28779 8.22385C8.44656 6.82677 9.03825 5.51432 9.98002 4.47023C10.9218 3.42615 12.1665 2.70271 13.5399 2.40119C14.9132 2.09968 16.3465 2.23518 17.639 2.78874C17.868 2.88679 18.0333 3.0921 18.0803 3.33669C18.1273 3.58128 18.0498 3.83323 17.8734 4.00913L14.221 7.6529L14.5774 9.42262L16.3471 9.77906L19.9909 6.1266C20.1668 5.95028 20.4188 5.87278 20.6634 5.91976C20.9079 5.96675 21.1133 6.13208 21.2113 6.36103C21.7649 7.65355 21.9004 9.08683 21.5989 10.4602C21.2973 11.8336 20.5739 13.0783 19.5298 14.02C18.4857 14.9618 17.1733 15.5535 15.7762 15.7123C14.5842 15.8477 13.3815 15.6623 12.2909 15.1804Z" fill="currentColor"/>
</svg>
