<svg width="24" height="24" viewBox="0 0 24 24" fill="none" xmlns="http://www.w3.org/2000/svg">
<path d="M8.625 12C9.24632 12 9.75 11.4963 9.75 10.875C9.75 10.2537 9.24632 9.75 8.625 9.75C8.00368 9.75 7.5 10.2537 7.5 10.875C7.5 11.4963 8.00368 12 8.625 12Z" fill="currentColor"/>
<path d="M11.25 10.125C10.8358 10.125 10.5 10.4608 10.5 10.875C10.5 11.2892 10.8358 11.625 11.25 11.625L15.75 11.625C16.1642 11.625 16.5 11.2892 16.5 10.875C16.5 10.4608 16.1642 10.125 15.75 10.125L11.25 10.125Z" fill="currentColor"/>
<path d="M11.25 13.875C10.8358 13.875 10.5 14.2108 10.5 14.625C10.5 15.0392 10.8358 15.375 11.25 15.375H15.75C16.1642 15.375 16.5 15.0392 16.5 14.625C16.5 14.2108 16.1642 13.875 15.75 13.875H11.25Z" fill="currentColor"/>
<path d="M9.75 14.625C9.75 15.2463 9.24632 15.75 8.625 15.75C8.00368 15.75 7.5 15.2463 7.5 14.625C7.5 14.0037 8.00368 13.5 8.625 13.5C9.24632 13.5 9.75 14.0037 9.75 14.625Z" fill="currentColor"/>
<path d="M8.64589 3C8.70142 2.93792 8.75881 2.87723 8.81802 2.81802C9.66193 1.97411 10.8065 1.5 12 1.5C13.1935 1.5 14.3381 1.97411 15.182 2.81802C15.2412 2.87723 15.2986 2.93792 15.3541 3H18.75C19.1478 3 19.5294 3.15804 19.8107 3.43934C20.092 3.72065 20.25 4.10218 20.25 4.5V20.25C20.25 20.6478 20.092 21.0294 19.8107 21.3107C19.5294 21.592 19.1478 21.75 18.75 21.75H5.25C4.85218 21.75 4.47065 21.592 4.18934 21.3107C3.90804 21.0294 3.75 20.6478 3.75 20.25V4.5C3.75 4.10217 3.90804 3.72064 4.18934 3.43934C4.47064 3.15804 4.85217 3 5.25 3H8.64589ZM9.87868 3.87868C9.77978 3.97758 9.6885 4.08267 9.60522 4.19305C9.60198 4.19746 9.5987 4.20184 9.59537 4.20618C9.21111 4.72127 9 5.34975 9 6H15C15 5.34975 14.7889 4.72126 14.4046 4.20617C14.4013 4.20184 14.398 4.19746 14.3948 4.19305C14.3115 4.08267 14.2202 3.97758 14.1213 3.87868C13.5587 3.31607 12.7956 3 12 3C11.2044 3 10.4413 3.31607 9.87868 3.87868ZM7.75736 4.5H5.25L5.25 20.25H18.75V4.5H16.2426C16.4114 4.97731 16.5 5.48409 16.5 6V6.75C16.5 7.16421 16.1642 7.5 15.75 7.5H8.25C7.83579 7.5 7.5 7.16421 7.5 6.75V6C7.5 5.48409 7.58859 4.97731 7.75736 4.5Z" fill="currentColor"/>
</svg>
